0
SECTION
2
HEADER
9
$INSUNITS
70
4
0
ENDSEC
0
SECTION
2
TABLES
0
TABLE
2
LTYPE
0
LTYPE
72
65
70
64
2
CONTINUOUS
3
______
73
0
40
0
0
ENDTAB
0
TABLE
2
LAYER
0
ENDTAB
0
ENDSEC
0
SECTION
2
ENTITIES
0
LINE
8
0
10
60.175
20
-7.2875
11
73.175
21
-7.2875
0
LINE
8
0
10
60.175
20
-21.2875
11
73.175
21
-21.2875
0
LINE
8
0
10
59.675
20
-7.7875
11
59.675
21
-20.7875
0
LINE
8
0
10
73.675
20
-7.7875
11
73.675
21
-20.7875
0
ARC
8
0
10
60.175
20
-7.7875
40
0.5
50
90
51
180
0
ARC
8
0
10
73.175
20
-7.7875
40
0.5
50
0
51
90
0
ARC
8
0
10
60.175
20
-20.7875
40
0.5
50
180
51
270
0
ARC
8
0
10
73.175
20
-20.7875
40
0.5
50
270
51
0
0
LINE
8
0
10
231.625
20
-7.2875
11
244.625
21
-7.2875
0
LINE
8
0
10
231.625
20
-21.2875
11
244.625
21
-21.2875
0
LINE
8
0
10
231.125
20
-7.7875
11
231.125
21
-20.7875
0
LINE
8
0
10
245.125
20
-7.7875
11
245.125
21
-20.7875
0
ARC
8
0
10
231.625
20
-7.7875
40
0.5
50
90
51
180
0
ARC
8
0
10
244.625
20
-7.7875
40
0.5
50
0
51
90
0
ARC
8
0
10
231.625
20
-20.7875
40
0.5
50
180
51
270
0
ARC
8
0
10
244.625
20
-20.7875
40
0.5
50
270
51
0
0
LINE
8
0
10
41.125
20
-9.764
11
54.125
21
-9.764
0
LINE
8
0
10
41.125
20
-23.764
11
54.125
21
-23.764
0
LINE
8
0
10
40.625
20
-10.264
11
40.625
21
-23.264
0
LINE
8
0
10
54.625
20
-10.264
11
54.625
21
-23.264
0
ARC
8
0
10
41.125
20
-10.264
40
0.5
50
90
51
180
0
ARC
8
0
10
54.125
20
-10.264
40
0.5
50
0
51
90
0
ARC
8
0
10
41.125
20
-23.264
40
0.5
50
180
51
270
0
ARC
8
0
10
54.125
20
-23.264
40
0.5
50
270
51
0
0
LINE
8
0
10
79.225
20
-9.764
11
92.225
21
-9.764
0
LINE
8
0
10
79.225
20
-23.764
11
92.225
21
-23.764
0
LINE
8
0
10
78.725
20
-10.264
11
78.725
21
-23.264
0
LINE
8
0
10
92.725
20
-10.264
11
92.725
21
-23.264
0
ARC
8
0
10
79.225
20
-10.264
40
0.5
50
90
51
180
0
ARC
8
0
10
92.225
20
-10.264
40
0.5
50
0
51
90
0
ARC
8
0
10
79.225
20
-23.264
40
0.5
50
180
51
270
0
ARC
8
0
10
92.225
20
-23.264
40
0.5
50
270
51
0
0
LINE
8
0
10
212.575
20
-9.764
11
225.575
21
-9.764
0
LINE
8
0
10
212.575
20
-23.764
11
225.575
21
-23.764
0
LINE
8
0
10
212.075
20
-10.264
11
212.075
21
-23.264
0
LINE
8
0
10
226.075
20
-10.264
11
226.075
21
-23.264
0
ARC
8
0
10
212.575
20
-10.264
40
0.5
50
90
51
180
0
ARC
8
0
10
225.575
20
-10.264
40
0.5
50
0
51
90
0
ARC
8
0
10
212.575
20
-23.264
40
0.5
50
180
51
270
0
ARC
8
0
10
225.575
20
-23.264
40
0.5
50
270
51
0
0
LINE
8
0
10
250.675
20
-9.764
11
263.675
21
-9.764
0
LINE
8
0
10
250.675
20
-23.764
11
263.675
21
-23.764
0
LINE
8
0
10
250.175
20
-10.264
11
250.175
21
-23.264
0
LINE
8
0
10
264.175
20
-10.264
11
264.175
21
-23.264
0
ARC
8
0
10
250.675
20
-10.264
40
0.5
50
90
51
180
0
ARC
8
0
10
263.675
20
-10.264
40
0.5
50
0
51
90
0
ARC
8
0
10
250.675
20
-23.264
40
0.5
50
180
51
270
0
ARC
8
0
10
263.675
20
-23.264
40
0.5
50
270
51
0
0
LINE
8
0
10
98.275
20
-12.05
11
111.275
21
-12.05
0
LINE
8
0
10
98.275
20
-26.05
11
111.275
21
-26.05
0
LINE
8
0
10
97.775
20
-12.55
11
97.775
21
-25.55
0
LINE
8
0
10
111.775
20
-12.55
11
111.775
21
-25.55
0
ARC
8
0
10
98.275
20
-12.55
40
0.5
50
90
51
180
0
ARC
8
0
10
111.275
20
-12.55
40
0.5
50
0
51
90
0
ARC
8
0
10
98.275
20
-25.55
40
0.5
50
180
51
270
0
ARC
8
0
10
111.275
20
-25.55
40
0.5
50
270
51
0
0
LINE
8
0
10
193.525
20
-12.05
11
206.525
21
-12.05
0
LINE
8
0
10
193.525
20
-26.05
11
206.525
21
-26.05
0
LINE
8
0
10
193.025
20
-12.55
11
193.025
21
-25.55
0
LINE
8
0
10
207.025
20
-12.55
11
207.025
21
-25.55
0
ARC
8
0
10
193.525
20
-12.55
40
0.5
50
90
51
180
0
ARC
8
0
10
206.525
20
-12.55
40
0.5
50
0
51
90
0
ARC
8
0
10
193.525
20
-25.55
40
0.5
50
180
51
270
0
ARC
8
0
10
206.525
20
-25.55
40
0.5
50
270
51
0
0
LINE
8
0
10
3.025
20
-14.5265
11
16.025
21
-14.5265
0
LINE
8
0
10
3.025
20
-28.5265
11
16.025
21
-28.5265
0
LINE
8
0
10
2.525
20
-15.0265
11
2.525
21
-28.0265
0
LINE
8
0
10
16.525
20
-15.0265
11
16.525
21
-28.0265
0
ARC
8
0
10
3.025
20
-15.0265
40
0.5
50
90
51
180
0
ARC
8
0
10
16.025
20
-15.0265
40
0.5
50
0
51
90
0
ARC
8
0
10
3.025
20
-28.0265
40
0.5
50
180
51
270
0
ARC
8
0
10
16.025
20
-28.0265
40
0.5
50
270
51
0
0
LINE
8
0
10
22.075
20
-14.5265
11
35.075
21
-14.5265
0
LINE
8
0
10
22.075
20
-28.5265
11
35.075
21
-28.5265
0
LINE
8
0
10
21.575
20
-15.0265
11
21.575
21
-28.0265
0
LINE
8
0
10
35.575
20
-15.0265
11
35.575
21
-28.0265
0
ARC
8
0
10
22.075
20
-15.0265
40
0.5
50
90
51
180
0
ARC
8
0
10
35.075
20
-15.0265
40
0.5
50
0
51
90
0
ARC
8
0
10
22.075
20
-28.0265
40
0.5
50
180
51
270
0
ARC
8
0
10
35.075
20
-28.0265
40
0.5
50
270
51
0
0
LINE
8
0
10
269.725
20
-14.5265
11
282.725
21
-14.5265
0
LINE
8
0
10
269.725
20
-28.5265
11
282.725
21
-28.5265
0
LINE
8
0
10
269.225
20
-15.0265
11
269.225
21
-28.0265
0
LINE
8
0
10
283.225
20
-15.0265
11
283.225
21
-28.0265
0
ARC
8
0
10
269.725
20
-15.0265
40
0.5
50
90
51
180
0
ARC
8
0
10
282.725
20
-15.0265
40
0.5
50
0
51
90
0
ARC
8
0
10
269.725
20
-28.0265
40
0.5
50
180
51
270
0
ARC
8
0
10
282.725
20
-28.0265
40
0.5
50
270
51
0
0
LINE
8
0
10
288.775
20
-14.5265
11
301.775
21
-14.5265
0
LINE
8
0
10
288.775
20
-28.5265
11
301.775
21
-28.5265
0
LINE
8
0
10
288.275
20
-15.0265
11
288.275
21
-28.0265
0
LINE
8
0
10
302.275
20
-15.0265
11
302.275
21
-28.0265
0
ARC
8
0
10
288.775
20
-15.0265
40
0.5
50
90
51
180
0
ARC
8
0
10
301.775
20
-15.0265
40
0.5
50
0
51
90
0
ARC
8
0
10
288.775
20
-28.0265
40
0.5
50
180
51
270
0
ARC
8
0
10
301.775
20
-28.0265
40
0.5
50
270
51
0
0
LINE
8
0
10
60.175
20
-26.3375
11
73.175
21
-26.3375
0
LINE
8
0
10
60.175
20
-40.3375
11
73.175
21
-40.3375
0
LINE
8
0
10
59.675
20
-26.8375
11
59.675
21
-39.8375
0
LINE
8
0
10
73.675
20
-26.8375
11
73.675
21
-39.8375
0
ARC
8
0
10
60.175
20
-26.8375
40
0.5
50
90
51
180
0
ARC
8
0
10
73.175
20
-26.8375
40
0.5
50
0
51
90
0
ARC
8
0
10
60.175
20
-39.8375
40
0.5
50
180
51
270
0
ARC
8
0
10
73.175
20
-39.8375
40
0.5
50
270
51
0
0
LINE
8
0
10
231.625
20
-26.3375
11
244.625
21
-26.3375
0
LINE
8
0
10
231.625
20
-40.3375
11
244.625
21
-40.3375
0
LINE
8
0
10
231.125
20
-26.8375
11
231.125
21
-39.8375
0
LINE
8
0
10
245.125
20
-26.8375
11
245.125
21
-39.8375
0
ARC
8
0
10
231.625
20
-26.8375
40
0.5
50
90
51
180
0
ARC
8
0
10
244.625
20
-26.8375
40
0.5
50
0
51
90
0
ARC
8
0
10
231.625
20
-39.8375
40
0.5
50
180
51
270
0
ARC
8
0
10
244.625
20
-39.8375
40
0.5
50
270
51
0
0
LINE
8
0
10
41.125
20
-28.814
11
54.125
21
-28.814
0
LINE
8
0
10
41.125
20
-42.814
11
54.125
21
-42.814
0
LINE
8
0
10
40.625
20
-29.314
11
40.625
21
-42.314
0
LINE
8
0
10
54.625
20
-29.314
11
54.625
21
-42.314
0
ARC
8
0
10
41.125
20
-29.314
40
0.5
50
90
51
180
0
ARC
8
0
10
54.125
20
-29.314
40
0.5
50
0
51
90
0
ARC
8
0
10
41.125
20
-42.314
40
0.5
50
180
51
270
0
ARC
8
0
10
54.125
20
-42.314
40
0.5
50
270
51
0
0
LINE
8
0
10
79.225
20
-28.814
11
92.225
21
-28.814
0
LINE
8
0
10
79.225
20
-42.814
11
92.225
21
-42.814
0
LINE
8
0
10
78.725
20
-29.314
11
78.725
21
-42.314
0
LINE
8
0
10
92.725
20
-29.314
11
92.725
21
-42.314
0
ARC
8
0
10
79.225
20
-29.314
40
0.5
50
90
51
180
0
ARC
8
0
10
92.225
20
-29.314
40
0.5
50
0
51
90
0
ARC
8
0
10
79.225
20
-42.314
40
0.5
50
180
51
270
0
ARC
8
0
10
92.225
20
-42.314
40
0.5
50
270
51
0
0
LINE
8
0
10
212.575
20
-28.814
11
225.575
21
-28.814
0
LINE
8
0
10
212.575
20
-42.814
11
225.575
21
-42.814
0
LINE
8
0
10
212.075
20
-29.314
11
212.075
21
-42.314
0
LINE
8
0
10
226.075
20
-29.314
11
226.075
21
-42.314
0
ARC
8
0
10
212.575
20
-29.314
40
0.5
50
90
51
180
0
ARC
8
0
10
225.575
20
-29.314
40
0.5
50
0
51
90
0
ARC
8
0
10
212.575
20
-42.314
40
0.5
50
180
51
270
0
ARC
8
0
10
225.575
20
-42.314
40
0.5
50
270
51
0
0
LINE
8
0
10
250.675
20
-28.814
11
263.675
21
-28.814
0
LINE
8
0
10
250.675
20
-42.814
11
263.675
21
-42.814
0
LINE
8
0
10
250.175
20
-29.314
11
250.175
21
-42.314
0
LINE
8
0
10
264.175
20
-29.314
11
264.175
21
-42.314
0
ARC
8
0
10
250.675
20
-29.314
40
0.5
50
90
51
180
0
ARC
8
0
10
263.675
20
-29.314
40
0.5
50
0
51
90
0
ARC
8
0
10
250.675
20
-42.314
40
0.5
50
180
51
270
0
ARC
8
0
10
263.675
20
-42.314
40
0.5
50
270
51
0
0
LINE
8
0
10
98.275
20
-31.1
11
111.275
21
-31.1
0
LINE
8
0
10
98.275
20
-45.1
11
111.275
21
-45.1
0
LINE
8
0
10
97.775
20
-31.6
11
97.775
21
-44.6
0
LINE
8
0
10
111.775
20
-31.6
11
111.775
21
-44.6
0
ARC
8
0
10
98.275
20
-31.6
40
0.5
50
90
51
180
0
ARC
8
0
10
111.275
20
-31.6
40
0.5
50
0
51
90
0
ARC
8
0
10
98.275
20
-44.6
40
0.5
50
180
51
270
0
ARC
8
0
10
111.275
20
-44.6
40
0.5
50
270
51
0
0
LINE
8
0
10
193.525
20
-31.1
11
206.525
21
-31.1
0
LINE
8
0
10
193.525
20
-45.1
11
206.525
21
-45.1
0
LINE
8
0
10
193.025
20
-31.6
11
193.025
21
-44.6
0
LINE
8
0
10
207.025
20
-31.6
11
207.025
21
-44.6
0
ARC
8
0
10
193.525
20
-31.6
40
0.5
50
90
51
180
0
ARC
8
0
10
206.525
20
-31.6
40
0.5
50
0
51
90
0
ARC
8
0
10
193.525
20
-44.6
40
0.5
50
180
51
270
0
ARC
8
0
10
206.525
20
-44.6
40
0.5
50
270
51
0
0
LINE
8
0
10
3.025
20
-33.5765
11
16.025
21
-33.5765
0
LINE
8
0
10
3.025
20
-47.5765
11
16.025
21
-47.5765
0
LINE
8
0
10
2.525
20
-34.0765
11
2.525
21
-47.0765
0
LINE
8
0
10
16.525
20
-34.0765
11
16.525
21
-47.0765
0
ARC
8
0
10
3.025
20
-34.0765
40
0.5
50
90
51
180
0
ARC
8
0
10
16.025
20
-34.0765
40
0.5
50
0
51
90
0
ARC
8
0
10
3.025
20
-47.0765
40
0.5
50
180
51
270
0
ARC
8
0
10
16.025
20
-47.0765
40
0.5
50
270
51
0
0
LINE
8
0
10
22.075
20
-33.5765
11
35.075
21
-33.5765
0
LINE
8
0
10
22.075
20
-47.5765
11
35.075
21
-47.5765
0
LINE
8
0
10
21.575
20
-34.0765
11
21.575
21
-47.0765
0
LINE
8
0
10
35.575
20
-34.0765
11
35.575
21
-47.0765
0
ARC
8
0
10
22.075
20
-34.0765
40
0.5
50
90
51
180
0
ARC
8
0
10
35.075
20
-34.0765
40
0.5
50
0
51
90
0
ARC
8
0
10
22.075
20
-47.0765
40
0.5
50
180
51
270
0
ARC
8
0
10
35.075
20
-47.0765
40
0.5
50
270
51
0
0
LINE
8
0
10
269.725
20
-33.5765
11
282.725
21
-33.5765
0
LINE
8
0
10
269.725
20
-47.5765
11
282.725
21
-47.5765
0
LINE
8
0
10
269.225
20
-34.0765
11
269.225
21
-47.0765
0
LINE
8
0
10
283.225
20
-34.0765
11
283.225
21
-47.0765
0
ARC
8
0
10
269.725
20
-34.0765
40
0.5
50
90
51
180
0
ARC
8
0
10
282.725
20
-34.0765
40
0.5
50
0
51
90
0
ARC
8
0
10
269.725
20
-47.0765
40
0.5
50
180
51
270
0
ARC
8
0
10
282.725
20
-47.0765
40
0.5
50
270
51
0
0
LINE
8
0
10
288.775
20
-33.5765
11
301.775
21
-33.5765
0
LINE
8
0
10
288.775
20
-47.5765
11
301.775
21
-47.5765
0
LINE
8
0
10
288.275
20
-34.0765
11
288.275
21
-47.0765
0
LINE
8
0
10
302.275
20
-34.0765
11
302.275
21
-47.0765
0
ARC
8
0
10
288.775
20
-34.0765
40
0.5
50
90
51
180
0
ARC
8
0
10
301.775
20
-34.0765
40
0.5
50
0
51
90
0
ARC
8
0
10
288.775
20
-47.0765
40
0.5
50
180
51
270
0
ARC
8
0
10
301.775
20
-47.0765
40
0.5
50
270
51
0
0
LINE
8
0
10
60.175
20
-45.3875
11
73.175
21
-45.3875
0
LINE
8
0
10
60.175
20
-59.3875
11
73.175
21
-59.3875
0
LINE
8
0
10
59.675
20
-45.8875
11
59.675
21
-58.8875
0
LINE
8
0
10
73.675
20
-45.8875
11
73.675
21
-58.8875
0
ARC
8
0
10
60.175
20
-45.8875
40
0.5
50
90
51
180
0
ARC
8
0
10
73.175
20
-45.8875
40
0.5
50
0
51
90
0
ARC
8
0
10
60.175
20
-58.8875
40
0.5
50
180
51
270
0
ARC
8
0
10
73.175
20
-58.8875
40
0.5
50
270
51
0
0
LINE
8
0
10
231.625
20
-45.3875
11
244.625
21
-45.3875
0
LINE
8
0
10
231.625
20
-59.3875
11
244.625
21
-59.3875
0
LINE
8
0
10
231.125
20
-45.8875
11
231.125
21
-58.8875
0
LINE
8
0
10
245.125
20
-45.8875
11
245.125
21
-58.8875
0
ARC
8
0
10
231.625
20
-45.8875
40
0.5
50
90
51
180
0
ARC
8
0
10
244.625
20
-45.8875
40
0.5
50
0
51
90
0
ARC
8
0
10
231.625
20
-58.8875
40
0.5
50
180
51
270
0
ARC
8
0
10
244.625
20
-58.8875
40
0.5
50
270
51
0
0
LINE
8
0
10
41.125
20
-47.864
11
54.125
21
-47.864
0
LINE
8
0
10
41.125
20
-61.864
11
54.125
21
-61.864
0
LINE
8
0
10
40.625
20
-48.364
11
40.625
21
-61.364
0
LINE
8
0
10
54.625
20
-48.364
11
54.625
21
-61.364
0
ARC
8
0
10
41.125
20
-48.364
40
0.5
50
90
51
180
0
ARC
8
0
10
54.125
20
-48.364
40
0.5
50
0
51
90
0
ARC
8
0
10
41.125
20
-61.364
40
0.5
50
180
51
270
0
ARC
8
0
10
54.125
20
-61.364
40
0.5
50
270
51
0
0
LINE
8
0
10
79.225
20
-47.864
11
92.225
21
-47.864
0
LINE
8
0
10
79.225
20
-61.864
11
92.225
21
-61.864
0
LINE
8
0
10
78.725
20
-48.364
11
78.725
21
-61.364
0
LINE
8
0
10
92.725
20
-48.364
11
92.725
21
-61.364
0
ARC
8
0
10
79.225
20
-48.364
40
0.5
50
90
51
180
0
ARC
8
0
10
92.225
20
-48.364
40
0.5
50
0
51
90
0
ARC
8
0
10
79.225
20
-61.364
40
0.5
50
180
51
270
0
ARC
8
0
10
92.225
20
-61.364
40
0.5
50
270
51
0
0
LINE
8
0
10
212.575
20
-47.864
11
225.575
21
-47.864
0
LINE
8
0
10
212.575
20
-61.864
11
225.575
21
-61.864
0
LINE
8
0
10
212.075
20
-48.364
11
212.075
21
-61.364
0
LINE
8
0
10
226.075
20
-48.364
11
226.075
21
-61.364
0
ARC
8
0
10
212.575
20
-48.364
40
0.5
50
90
51
180
0
ARC
8
0
10
225.575
20
-48.364
40
0.5
50
0
51
90
0
ARC
8
0
10
212.575
20
-61.364
40
0.5
50
180
51
270
0
ARC
8
0
10
225.575
20
-61.364
40
0.5
50
270
51
0
0
LINE
8
0
10
250.675
20
-47.864
11
263.675
21
-47.864
0
LINE
8
0
10
250.675
20
-61.864
11
263.675
21
-61.864
0
LINE
8
0
10
250.175
20
-48.364
11
250.175
21
-61.364
0
LINE
8
0
10
264.175
20
-48.364
11
264.175
21
-61.364
0
ARC
8
0
10
250.675
20
-48.364
40
0.5
50
90
51
180
0
ARC
8
0
10
263.675
20
-48.364
40
0.5
50
0
51
90
0
ARC
8
0
10
250.675
20
-61.364
40
0.5
50
180
51
270
0
ARC
8
0
10
263.675
20
-61.364
40
0.5
50
270
51
0
0
LINE
8
0
10
98.275
20
-50.15
11
111.275
21
-50.15
0
LINE
8
0
10
98.275
20
-64.15
11
111.275
21
-64.15
0
LINE
8
0
10
97.775
20
-50.65
11
97.775
21
-63.65
0
LINE
8
0
10
111.775
20
-50.65
11
111.775
21
-63.65
0
ARC
8
0
10
98.275
20
-50.65
40
0.5
50
90
51
180
0
ARC
8
0
10
111.275
20
-50.65
40
0.5
50
0
51
90
0
ARC
8
0
10
98.275
20
-63.65
40
0.5
50
180
51
270
0
ARC
8
0
10
111.275
20
-63.65
40
0.5
50
270
51
0
0
LINE
8
0
10
193.525
20
-50.15
11
206.525
21
-50.15
0
LINE
8
0
10
193.525
20
-64.15
11
206.525
21
-64.15
0
LINE
8
0
10
193.025
20
-50.65
11
193.025
21
-63.65
0
LINE
8
0
10
207.025
20
-50.65
11
207.025
21
-63.65
0
ARC
8
0
10
193.525
20
-50.65
40
0.5
50
90
51
180
0
ARC
8
0
10
206.525
20
-50.65
40
0.5
50
0
51
90
0
ARC
8
0
10
193.525
20
-63.65
40
0.5
50
180
51
270
0
ARC
8
0
10
206.525
20
-63.65
40
0.5
50
270
51
0
0
LINE
8
0
10
3.025
20
-52.6265
11
16.025
21
-52.6265
0
LINE
8
0
10
3.025
20
-66.6265
11
16.025
21
-66.6265
0
LINE
8
0
10
2.525
20
-53.1265
11
2.525
21
-66.1265
0
LINE
8
0
10
16.525
20
-53.1265
11
16.525
21
-66.1265
0
ARC
8
0
10
3.025
20
-53.1265
40
0.5
50
90
51
180
0
ARC
8
0
10
16.025
20
-53.1265
40
0.5
50
0
51
90
0
ARC
8
0
10
3.025
20
-66.1265
40
0.5
50
180
51
270
0
ARC
8
0
10
16.025
20
-66.1265
40
0.5
50
270
51
0
0
LINE
8
0
10
22.075
20
-52.6265
11
35.075
21
-52.6265
0
LINE
8
0
10
22.075
20
-66.6265
11
35.075
21
-66.6265
0
LINE
8
0
10
21.575
20
-53.1265
11
21.575
21
-66.1265
0
LINE
8
0
10
35.575
20
-53.1265
11
35.575
21
-66.1265
0
ARC
8
0
10
22.075
20
-53.1265
40
0.5
50
90
51
180
0
ARC
8
0
10
35.075
20
-53.1265
40
0.5
50
0
51
90
0
ARC
8
0
10
22.075
20
-66.1265
40
0.5
50
180
51
270
0
ARC
8
0
10
35.075
20
-66.1265
40
0.5
50
270
51
0
0
LINE
8
0
10
269.725
20
-52.6265
11
282.725
21
-52.6265
0
LINE
8
0
10
269.725
20
-66.6265
11
282.725
21
-66.6265
0
LINE
8
0
10
269.225
20
-53.1265
11
269.225
21
-66.1265
0
LINE
8
0
10
283.225
20
-53.1265
11
283.225
21
-66.1265
0
ARC
8
0
10
269.725
20
-53.1265
40
0.5
50
90
51
180
0
ARC
8
0
10
282.725
20
-53.1265
40
0.5
50
0
51
90
0
ARC
8
0
10
269.725
20
-66.1265
40
0.5
50
180
51
270
0
ARC
8
0
10
282.725
20
-66.1265
40
0.5
50
270
51
0
0
LINE
8
0
10
288.775
20
-52.6265
11
301.775
21
-52.6265
0
LINE
8
0
10
288.775
20
-66.6265
11
301.775
21
-66.6265
0
LINE
8
0
10
288.275
20
-53.1265
11
288.275
21
-66.1265
0
LINE
8
0
10
302.275
20
-53.1265
11
302.275
21
-66.1265
0
ARC
8
0
10
288.775
20
-53.1265
40
0.5
50
90
51
180
0
ARC
8
0
10
301.775
20
-53.1265
40
0.5
50
0
51
90
0
ARC
8
0
10
288.775
20
-66.1265
40
0.5
50
180
51
270
0
ARC
8
0
10
301.775
20
-66.1265
40
0.5
50
270
51
0
0
LINE
8
0
10
69.7
20
-72.0575
11
82.7
21
-72.0575
0
LINE
8
0
10
69.7
20
-86.0575
11
82.7
21
-86.0575
0
LINE
8
0
10
69.2
20
-72.5575
11
69.2
21
-85.5575
0
LINE
8
0
10
83.2
20
-72.5575
11
83.2
21
-85.5575
0
ARC
8
0
10
69.7
20
-72.5575
40
0.5
50
90
51
180
0
ARC
8
0
10
82.7
20
-72.5575
40
0.5
50
0
51
90
0
ARC
8
0
10
69.7
20
-85.5575
40
0.5
50
180
51
270
0
ARC
8
0
10
82.7
20
-85.5575
40
0.5
50
270
51
0
0
LINE
8
0
10
222.1
20
-72.248
11
235.1
21
-72.248
0
LINE
8
0
10
222.1
20
-86.248
11
235.1
21
-86.248
0
LINE
8
0
10
221.6
20
-72.748
11
221.6
21
-85.748
0
LINE
8
0
10
235.6
20
-72.748
11
235.6
21
-85.748
0
ARC
8
0
10
222.1
20
-72.748
40
0.5
50
90
51
180
0
ARC
8
0
10
235.1
20
-72.748
40
0.5
50
0
51
90
0
ARC
8
0
10
222.1
20
-85.748
40
0.5
50
180
51
270
0
ARC
8
0
10
235.1
20
-85.748
40
0.5
50
270
51
0
0
LINE
8
0
10
93.726693
20
-74.0747905
11
106.2837288
21
-77.4394381
0
LINE
8
0
10
90.1032264
20
-87.5977521
11
102.6602622
21
-90.9623997
0
LINE
8
0
10
93.1143206
20
-74.4283439
11
89.749673
21
-86.9853797
0
LINE
8
0
10
106.6372822
20
-78.0518105
11
103.2726346
21
-90.6088463
0
ARC
8
0
10
93.5972835
20
-74.5577534
40
0.5
50
75
51
165
0
ARC
8
0
10
106.1543193
20
-77.922401
40
0.5
50
345
51
75
0
ARC
8
0
10
90.2326359
20
-87.1147892
40
0.5
50
165
51
255
0
ARC
8
0
10
102.7896717
20
-90.4794368
40
0.5
50
255
51
345
0
LINE
8
0
10
130.7235317
20
-86.6652013
11
124.2235317
21
-97.9235315
0
LINE
8
0
10
118.5991761
20
-79.6652013
11
112.0991761
21
-90.9235315
0
LINE
8
0
10
130.540519
20
-85.9821886
11
119.2821888
21
-79.4821886
0
LINE
8
0
10
123.540519
20
-98.1065442
11
112.2821888
21
-91.6065442
0
ARC
8
0
10
130.290519
20
-86.4152013
40
0.5
50
330
51
60
0
ARC
8
0
10
123.790519
20
-97.6735315
40
0.5
50
240
51
330
0
ARC
8
0
10
119.0321888
20
-79.9152013
40
0.5
50
60
51
150
0
ARC
8
0
10
112.5321888
20
-91.1735315
40
0.5
50
150
51
240
0
LINE
8
0
10
186.0951315
20
-79.7262228
11
192.5951315
21
-90.984553
0
LINE
8
0
10
173.9707759
20
-86.7262228
11
180.4707759
21
-97.984553
0
LINE
8
0
10
185.4121188
20
-79.5432101
11
174.1537886
21
-86.0432101
0
LINE
8
0
10
192.4121188
20
-91.6675657
11
181.1537886
21
-98.1675657
0
ARC
8
0
10
185.6621188
20
-79.9762228
40
0.5
50
30
51
120
0
ARC
8
0
10
192.1621188
20
-91.234553
40
0.5
50
300
51
30
0
ARC
8
0
10
174.4037886
20
-86.4762228
40
0.5
50
120
51
210
0
ARC
8
0
10
180.9037886
20
-97.734553
40
0.5
50
210
51
300
0
LINE
8
0
10
198.4715618
20
-77.6268507
11
211.0285976
21
-74.2622031
0
LINE
8
0
10
202.0950284
20
-91.1498123
11
214.6520642
21
-87.7851647
0
LINE
8
0
10
198.1180084
20
-78.2392231
11
201.482656
21
-90.7962589
0
LINE
8
0
10
211.64097
20
-74.6157565
11
215.0056176
21
-87.1727923
0
ARC
8
0
10
198.6009713
20
-78.1098136
40
0.5
50
105
51
195
0
ARC
8
0
10
211.1580071
20
-74.745166
40
0.5
50
15
51
105
0
ARC
8
0
10
201.9656189
20
-90.6668494
40
0.5
50
195
51
285
0
ARC
8
0
10
214.5226547
20
-87.3022018
40
0.5
50
285
51
15
0
LINE
8
0
10
0
20
-103.1428879
11
304.8
21
-103.1428879
0
LINE
8
0
10
0
20
-4.7625
11
304.8
21
-4.7625
0
LINE
8
0
10
0
20
-103.1428879
11
0
21
-4.7625
0
LINE
8
0
10
304.8
20
-103.1428879
11
304.8
21
-4.7625
0
ENDSEC
0
EOF