G04 #@! TF.GenerationSoftware,KiCad,Pcbnew,(5.1.4)-1*
G04 #@! TF.CreationDate,2023-05-20T17:31:51-04:00*
G04 #@! TF.ProjectId,Corne Integrated Microchip,436f726e-6520-4496-9e74-656772617465,rev?*
G04 #@! TF.SameCoordinates,Original*
G04 #@! TF.FileFunction,Paste,Top*
G04 #@! TF.FilePolarity,Positive*
%FSLAX46Y46*%
G04 Gerber Fmt 4.6, Leading zero omitted, Abs format (unit mm)*
G04 Created by KiCad (PCBNEW (5.1.4)-1) date 2023-05-20 17:31:51*
%MOMM*%
%LPD*%
G04 APERTURE LIST*
%ADD10C,1.800000*%
%ADD11C,0.100000*%
%ADD12R,0.300000X2.450000*%
%ADD13R,0.600000X2.450000*%
%ADD14R,0.700000X1.000000*%
%ADD15R,0.700000X0.600000*%
%ADD16C,0.550000*%
%ADD17C,1.150000*%
%ADD18C,1.425000*%
G04 APERTURE END LIST*
D10*
X157543500Y-56879071D03*
D11*
G36*
X156184173Y-57133494D02*
G01*
X157084173Y-55574648D01*
X158902827Y-56624648D01*
X158002827Y-58183494D01*
X156184173Y-57133494D01*
X156184173Y-57133494D01*
G37*
D10*
X160054974Y-58329071D03*
D11*
G36*
X158695647Y-58583494D02*
G01*
X159595647Y-57024648D01*
X161414301Y-58074648D01*
X160514301Y-59633494D01*
X158695647Y-58583494D01*
X158695647Y-58583494D01*
G37*
D10*
X158904974Y-60320929D03*
D11*
G36*
X157545647Y-60575352D02*
G01*
X158445647Y-59016506D01*
X160264301Y-60066506D01*
X159364301Y-61625352D01*
X157545647Y-60575352D01*
X157545647Y-60575352D01*
G37*
D10*
X156393500Y-58870929D03*
D11*
G36*
X155034173Y-59125352D02*
G01*
X155934173Y-57566506D01*
X157752827Y-58616506D01*
X156852827Y-60175352D01*
X155034173Y-59125352D01*
X155034173Y-59125352D01*
G37*
D10*
X124731763Y-58870929D03*
D11*
G36*
X123372436Y-59125352D02*
G01*
X124272436Y-57566506D01*
X126091090Y-58616506D01*
X125191090Y-60175352D01*
X123372436Y-59125352D01*
X123372436Y-59125352D01*
G37*
D10*
X127243237Y-60320929D03*
D11*
G36*
X125883910Y-60575352D02*
G01*
X126783910Y-59016506D01*
X128602564Y-60066506D01*
X127702564Y-61625352D01*
X125883910Y-60575352D01*
X125883910Y-60575352D01*
G37*
D10*
X128393237Y-58329071D03*
D11*
G36*
X127033910Y-58583494D02*
G01*
X127933910Y-57024648D01*
X129752564Y-58074648D01*
X128852564Y-59633494D01*
X127033910Y-58583494D01*
X127033910Y-58583494D01*
G37*
D10*
X125881763Y-56879071D03*
D11*
G36*
X124522436Y-57133494D02*
G01*
X125422436Y-55574648D01*
X127241090Y-56624648D01*
X126341090Y-58183494D01*
X124522436Y-57133494D01*
X124522436Y-57133494D01*
G37*
D12*
X133600000Y-49470000D03*
X133100000Y-49470000D03*
X132600000Y-49470000D03*
X134100000Y-49470000D03*
X132100000Y-49470000D03*
X134600000Y-49470000D03*
X131600000Y-49470000D03*
X135100000Y-49470000D03*
D13*
X135800000Y-49470000D03*
X130900000Y-49470000D03*
X136575000Y-49470000D03*
X130125000Y-49470000D03*
D12*
X165350000Y-49470000D03*
X164850000Y-49470000D03*
X164350000Y-49470000D03*
X165850000Y-49470000D03*
X163850000Y-49470000D03*
X166350000Y-49470000D03*
X163350000Y-49470000D03*
X166850000Y-49470000D03*
D13*
X167550000Y-49470000D03*
X162650000Y-49470000D03*
X168325000Y-49470000D03*
X161875000Y-49470000D03*
D14*
X132350000Y-53225000D03*
D15*
X134350000Y-53025000D03*
X132350000Y-54925000D03*
X134350000Y-54925000D03*
D14*
X164100000Y-53225000D03*
D15*
X166100000Y-53025000D03*
X164100000Y-54925000D03*
X166100000Y-54925000D03*
D16*
X171958936Y-78195832D03*
D11*
G36*
X171234152Y-77859956D02*
G01*
X171623060Y-77471048D01*
X172683720Y-78531708D01*
X172294812Y-78920616D01*
X171234152Y-77859956D01*
X171234152Y-77859956D01*
G37*
D16*
X171393250Y-78761517D03*
D11*
G36*
X170668466Y-78425641D02*
G01*
X171057374Y-78036733D01*
X172118034Y-79097393D01*
X171729126Y-79486301D01*
X170668466Y-78425641D01*
X170668466Y-78425641D01*
G37*
D16*
X170827565Y-79327202D03*
D11*
G36*
X170102781Y-78991326D02*
G01*
X170491689Y-78602418D01*
X171552349Y-79663078D01*
X171163441Y-80051986D01*
X170102781Y-78991326D01*
X170102781Y-78991326D01*
G37*
D16*
X170261880Y-79892888D03*
D11*
G36*
X169537096Y-79557012D02*
G01*
X169926004Y-79168104D01*
X170986664Y-80228764D01*
X170597756Y-80617672D01*
X169537096Y-79557012D01*
X169537096Y-79557012D01*
G37*
D16*
X169696194Y-80458573D03*
D11*
G36*
X168971410Y-80122697D02*
G01*
X169360318Y-79733789D01*
X170420978Y-80794449D01*
X170032070Y-81183357D01*
X168971410Y-80122697D01*
X168971410Y-80122697D01*
G37*
D16*
X169130509Y-81024259D03*
D11*
G36*
X168405725Y-80688383D02*
G01*
X168794633Y-80299475D01*
X169855293Y-81360135D01*
X169466385Y-81749043D01*
X168405725Y-80688383D01*
X168405725Y-80688383D01*
G37*
D16*
X168564823Y-81589944D03*
D11*
G36*
X167840039Y-81254068D02*
G01*
X168228947Y-80865160D01*
X169289607Y-81925820D01*
X168900699Y-82314728D01*
X167840039Y-81254068D01*
X167840039Y-81254068D01*
G37*
D16*
X167999138Y-82155630D03*
D11*
G36*
X167274354Y-81819754D02*
G01*
X167663262Y-81430846D01*
X168723922Y-82491506D01*
X168335014Y-82880414D01*
X167274354Y-81819754D01*
X167274354Y-81819754D01*
G37*
D16*
X167433452Y-82721315D03*
D11*
G36*
X166708668Y-82385439D02*
G01*
X167097576Y-81996531D01*
X168158236Y-83057191D01*
X167769328Y-83446099D01*
X166708668Y-82385439D01*
X166708668Y-82385439D01*
G37*
D16*
X166867767Y-83287000D03*
D11*
G36*
X166142983Y-82951124D02*
G01*
X166531891Y-82562216D01*
X167592551Y-83622876D01*
X167203643Y-84011784D01*
X166142983Y-82951124D01*
X166142983Y-82951124D01*
G37*
D16*
X166302082Y-83852686D03*
D11*
G36*
X165577298Y-83516810D02*
G01*
X165966206Y-83127902D01*
X167026866Y-84188562D01*
X166637958Y-84577470D01*
X165577298Y-83516810D01*
X165577298Y-83516810D01*
G37*
D16*
X163897918Y-83852686D03*
D11*
G36*
X164233794Y-83127902D02*
G01*
X164622702Y-83516810D01*
X163562042Y-84577470D01*
X163173134Y-84188562D01*
X164233794Y-83127902D01*
X164233794Y-83127902D01*
G37*
D16*
X163332233Y-83287000D03*
D11*
G36*
X163668109Y-82562216D02*
G01*
X164057017Y-82951124D01*
X162996357Y-84011784D01*
X162607449Y-83622876D01*
X163668109Y-82562216D01*
X163668109Y-82562216D01*
G37*
D16*
X162766548Y-82721315D03*
D11*
G36*
X163102424Y-81996531D02*
G01*
X163491332Y-82385439D01*
X162430672Y-83446099D01*
X162041764Y-83057191D01*
X163102424Y-81996531D01*
X163102424Y-81996531D01*
G37*
D16*
X162200862Y-82155630D03*
D11*
G36*
X162536738Y-81430846D02*
G01*
X162925646Y-81819754D01*
X161864986Y-82880414D01*
X161476078Y-82491506D01*
X162536738Y-81430846D01*
X162536738Y-81430846D01*
G37*
D16*
X161635177Y-81589944D03*
D11*
G36*
X161971053Y-80865160D02*
G01*
X162359961Y-81254068D01*
X161299301Y-82314728D01*
X160910393Y-81925820D01*
X161971053Y-80865160D01*
X161971053Y-80865160D01*
G37*
D16*
X161069491Y-81024259D03*
D11*
G36*
X161405367Y-80299475D02*
G01*
X161794275Y-80688383D01*
X160733615Y-81749043D01*
X160344707Y-81360135D01*
X161405367Y-80299475D01*
X161405367Y-80299475D01*
G37*
D16*
X160503806Y-80458573D03*
D11*
G36*
X160839682Y-79733789D02*
G01*
X161228590Y-80122697D01*
X160167930Y-81183357D01*
X159779022Y-80794449D01*
X160839682Y-79733789D01*
X160839682Y-79733789D01*
G37*
D16*
X159938120Y-79892888D03*
D11*
G36*
X160273996Y-79168104D02*
G01*
X160662904Y-79557012D01*
X159602244Y-80617672D01*
X159213336Y-80228764D01*
X160273996Y-79168104D01*
X160273996Y-79168104D01*
G37*
D16*
X159372435Y-79327202D03*
D11*
G36*
X159708311Y-78602418D02*
G01*
X160097219Y-78991326D01*
X159036559Y-80051986D01*
X158647651Y-79663078D01*
X159708311Y-78602418D01*
X159708311Y-78602418D01*
G37*
D16*
X158806750Y-78761517D03*
D11*
G36*
X159142626Y-78036733D02*
G01*
X159531534Y-78425641D01*
X158470874Y-79486301D01*
X158081966Y-79097393D01*
X159142626Y-78036733D01*
X159142626Y-78036733D01*
G37*
D16*
X158241064Y-78195832D03*
D11*
G36*
X158576940Y-77471048D02*
G01*
X158965848Y-77859956D01*
X157905188Y-78920616D01*
X157516280Y-78531708D01*
X158576940Y-77471048D01*
X158576940Y-77471048D01*
G37*
D16*
X158241064Y-75791668D03*
D11*
G36*
X157516280Y-75455792D02*
G01*
X157905188Y-75066884D01*
X158965848Y-76127544D01*
X158576940Y-76516452D01*
X157516280Y-75455792D01*
X157516280Y-75455792D01*
G37*
D16*
X158806750Y-75225983D03*
D11*
G36*
X158081966Y-74890107D02*
G01*
X158470874Y-74501199D01*
X159531534Y-75561859D01*
X159142626Y-75950767D01*
X158081966Y-74890107D01*
X158081966Y-74890107D01*
G37*
D16*
X159372435Y-74660298D03*
D11*
G36*
X158647651Y-74324422D02*
G01*
X159036559Y-73935514D01*
X160097219Y-74996174D01*
X159708311Y-75385082D01*
X158647651Y-74324422D01*
X158647651Y-74324422D01*
G37*
D16*
X159938120Y-74094612D03*
D11*
G36*
X159213336Y-73758736D02*
G01*
X159602244Y-73369828D01*
X160662904Y-74430488D01*
X160273996Y-74819396D01*
X159213336Y-73758736D01*
X159213336Y-73758736D01*
G37*
D16*
X160503806Y-73528927D03*
D11*
G36*
X159779022Y-73193051D02*
G01*
X160167930Y-72804143D01*
X161228590Y-73864803D01*
X160839682Y-74253711D01*
X159779022Y-73193051D01*
X159779022Y-73193051D01*
G37*
D16*
X161069491Y-72963241D03*
D11*
G36*
X160344707Y-72627365D02*
G01*
X160733615Y-72238457D01*
X161794275Y-73299117D01*
X161405367Y-73688025D01*
X160344707Y-72627365D01*
X160344707Y-72627365D01*
G37*
D16*
X161635177Y-72397556D03*
D11*
G36*
X160910393Y-72061680D02*
G01*
X161299301Y-71672772D01*
X162359961Y-72733432D01*
X161971053Y-73122340D01*
X160910393Y-72061680D01*
X160910393Y-72061680D01*
G37*
D16*
X162200862Y-71831870D03*
D11*
G36*
X161476078Y-71495994D02*
G01*
X161864986Y-71107086D01*
X162925646Y-72167746D01*
X162536738Y-72556654D01*
X161476078Y-71495994D01*
X161476078Y-71495994D01*
G37*
D16*
X162766548Y-71266185D03*
D11*
G36*
X162041764Y-70930309D02*
G01*
X162430672Y-70541401D01*
X163491332Y-71602061D01*
X163102424Y-71990969D01*
X162041764Y-70930309D01*
X162041764Y-70930309D01*
G37*
D16*
X163332233Y-70700500D03*
D11*
G36*
X162607449Y-70364624D02*
G01*
X162996357Y-69975716D01*
X164057017Y-71036376D01*
X163668109Y-71425284D01*
X162607449Y-70364624D01*
X162607449Y-70364624D01*
G37*
D16*
X163897918Y-70134814D03*
D11*
G36*
X163173134Y-69798938D02*
G01*
X163562042Y-69410030D01*
X164622702Y-70470690D01*
X164233794Y-70859598D01*
X163173134Y-69798938D01*
X163173134Y-69798938D01*
G37*
D16*
X166302082Y-70134814D03*
D11*
G36*
X166637958Y-69410030D02*
G01*
X167026866Y-69798938D01*
X165966206Y-70859598D01*
X165577298Y-70470690D01*
X166637958Y-69410030D01*
X166637958Y-69410030D01*
G37*
D16*
X166867767Y-70700500D03*
D11*
G36*
X167203643Y-69975716D02*
G01*
X167592551Y-70364624D01*
X166531891Y-71425284D01*
X166142983Y-71036376D01*
X167203643Y-69975716D01*
X167203643Y-69975716D01*
G37*
D16*
X167433452Y-71266185D03*
D11*
G36*
X167769328Y-70541401D02*
G01*
X168158236Y-70930309D01*
X167097576Y-71990969D01*
X166708668Y-71602061D01*
X167769328Y-70541401D01*
X167769328Y-70541401D01*
G37*
D16*
X167999138Y-71831870D03*
D11*
G36*
X168335014Y-71107086D02*
G01*
X168723922Y-71495994D01*
X167663262Y-72556654D01*
X167274354Y-72167746D01*
X168335014Y-71107086D01*
X168335014Y-71107086D01*
G37*
D16*
X168564823Y-72397556D03*
D11*
G36*
X168900699Y-71672772D02*
G01*
X169289607Y-72061680D01*
X168228947Y-73122340D01*
X167840039Y-72733432D01*
X168900699Y-71672772D01*
X168900699Y-71672772D01*
G37*
D16*
X169130509Y-72963241D03*
D11*
G36*
X169466385Y-72238457D02*
G01*
X169855293Y-72627365D01*
X168794633Y-73688025D01*
X168405725Y-73299117D01*
X169466385Y-72238457D01*
X169466385Y-72238457D01*
G37*
D16*
X169696194Y-73528927D03*
D11*
G36*
X170032070Y-72804143D02*
G01*
X170420978Y-73193051D01*
X169360318Y-74253711D01*
X168971410Y-73864803D01*
X170032070Y-72804143D01*
X170032070Y-72804143D01*
G37*
D16*
X170261880Y-74094612D03*
D11*
G36*
X170597756Y-73369828D02*
G01*
X170986664Y-73758736D01*
X169926004Y-74819396D01*
X169537096Y-74430488D01*
X170597756Y-73369828D01*
X170597756Y-73369828D01*
G37*
D16*
X170827565Y-74660298D03*
D11*
G36*
X171163441Y-73935514D02*
G01*
X171552349Y-74324422D01*
X170491689Y-75385082D01*
X170102781Y-74996174D01*
X171163441Y-73935514D01*
X171163441Y-73935514D01*
G37*
D16*
X171393250Y-75225983D03*
D11*
G36*
X171729126Y-74501199D02*
G01*
X172118034Y-74890107D01*
X171057374Y-75950767D01*
X170668466Y-75561859D01*
X171729126Y-74501199D01*
X171729126Y-74501199D01*
G37*
D16*
X171958936Y-75791668D03*
D11*
G36*
X172294812Y-75066884D02*
G01*
X172683720Y-75455792D01*
X171623060Y-76516452D01*
X171234152Y-76127544D01*
X172294812Y-75066884D01*
X172294812Y-75066884D01*
G37*
D16*
X140208936Y-75791668D03*
D11*
G36*
X140544812Y-75066884D02*
G01*
X140933720Y-75455792D01*
X139873060Y-76516452D01*
X139484152Y-76127544D01*
X140544812Y-75066884D01*
X140544812Y-75066884D01*
G37*
D16*
X139643250Y-75225983D03*
D11*
G36*
X139979126Y-74501199D02*
G01*
X140368034Y-74890107D01*
X139307374Y-75950767D01*
X138918466Y-75561859D01*
X139979126Y-74501199D01*
X139979126Y-74501199D01*
G37*
D16*
X139077565Y-74660298D03*
D11*
G36*
X139413441Y-73935514D02*
G01*
X139802349Y-74324422D01*
X138741689Y-75385082D01*
X138352781Y-74996174D01*
X139413441Y-73935514D01*
X139413441Y-73935514D01*
G37*
D16*
X138511880Y-74094612D03*
D11*
G36*
X138847756Y-73369828D02*
G01*
X139236664Y-73758736D01*
X138176004Y-74819396D01*
X137787096Y-74430488D01*
X138847756Y-73369828D01*
X138847756Y-73369828D01*
G37*
D16*
X137946194Y-73528927D03*
D11*
G36*
X138282070Y-72804143D02*
G01*
X138670978Y-73193051D01*
X137610318Y-74253711D01*
X137221410Y-73864803D01*
X138282070Y-72804143D01*
X138282070Y-72804143D01*
G37*
D16*
X137380509Y-72963241D03*
D11*
G36*
X137716385Y-72238457D02*
G01*
X138105293Y-72627365D01*
X137044633Y-73688025D01*
X136655725Y-73299117D01*
X137716385Y-72238457D01*
X137716385Y-72238457D01*
G37*
D16*
X136814823Y-72397556D03*
D11*
G36*
X137150699Y-71672772D02*
G01*
X137539607Y-72061680D01*
X136478947Y-73122340D01*
X136090039Y-72733432D01*
X137150699Y-71672772D01*
X137150699Y-71672772D01*
G37*
D16*
X136249138Y-71831870D03*
D11*
G36*
X136585014Y-71107086D02*
G01*
X136973922Y-71495994D01*
X135913262Y-72556654D01*
X135524354Y-72167746D01*
X136585014Y-71107086D01*
X136585014Y-71107086D01*
G37*
D16*
X135683452Y-71266185D03*
D11*
G36*
X136019328Y-70541401D02*
G01*
X136408236Y-70930309D01*
X135347576Y-71990969D01*
X134958668Y-71602061D01*
X136019328Y-70541401D01*
X136019328Y-70541401D01*
G37*
D16*
X135117767Y-70700500D03*
D11*
G36*
X135453643Y-69975716D02*
G01*
X135842551Y-70364624D01*
X134781891Y-71425284D01*
X134392983Y-71036376D01*
X135453643Y-69975716D01*
X135453643Y-69975716D01*
G37*
D16*
X134552082Y-70134814D03*
D11*
G36*
X134887958Y-69410030D02*
G01*
X135276866Y-69798938D01*
X134216206Y-70859598D01*
X133827298Y-70470690D01*
X134887958Y-69410030D01*
X134887958Y-69410030D01*
G37*
D16*
X132147918Y-70134814D03*
D11*
G36*
X131423134Y-69798938D02*
G01*
X131812042Y-69410030D01*
X132872702Y-70470690D01*
X132483794Y-70859598D01*
X131423134Y-69798938D01*
X131423134Y-69798938D01*
G37*
D16*
X131582233Y-70700500D03*
D11*
G36*
X130857449Y-70364624D02*
G01*
X131246357Y-69975716D01*
X132307017Y-71036376D01*
X131918109Y-71425284D01*
X130857449Y-70364624D01*
X130857449Y-70364624D01*
G37*
D16*
X131016548Y-71266185D03*
D11*
G36*
X130291764Y-70930309D02*
G01*
X130680672Y-70541401D01*
X131741332Y-71602061D01*
X131352424Y-71990969D01*
X130291764Y-70930309D01*
X130291764Y-70930309D01*
G37*
D16*
X130450862Y-71831870D03*
D11*
G36*
X129726078Y-71495994D02*
G01*
X130114986Y-71107086D01*
X131175646Y-72167746D01*
X130786738Y-72556654D01*
X129726078Y-71495994D01*
X129726078Y-71495994D01*
G37*
D16*
X129885177Y-72397556D03*
D11*
G36*
X129160393Y-72061680D02*
G01*
X129549301Y-71672772D01*
X130609961Y-72733432D01*
X130221053Y-73122340D01*
X129160393Y-72061680D01*
X129160393Y-72061680D01*
G37*
D16*
X129319491Y-72963241D03*
D11*
G36*
X128594707Y-72627365D02*
G01*
X128983615Y-72238457D01*
X130044275Y-73299117D01*
X129655367Y-73688025D01*
X128594707Y-72627365D01*
X128594707Y-72627365D01*
G37*
D16*
X128753806Y-73528927D03*
D11*
G36*
X128029022Y-73193051D02*
G01*
X128417930Y-72804143D01*
X129478590Y-73864803D01*
X129089682Y-74253711D01*
X128029022Y-73193051D01*
X128029022Y-73193051D01*
G37*
D16*
X128188120Y-74094612D03*
D11*
G36*
X127463336Y-73758736D02*
G01*
X127852244Y-73369828D01*
X128912904Y-74430488D01*
X128523996Y-74819396D01*
X127463336Y-73758736D01*
X127463336Y-73758736D01*
G37*
D16*
X127622435Y-74660298D03*
D11*
G36*
X126897651Y-74324422D02*
G01*
X127286559Y-73935514D01*
X128347219Y-74996174D01*
X127958311Y-75385082D01*
X126897651Y-74324422D01*
X126897651Y-74324422D01*
G37*
D16*
X127056750Y-75225983D03*
D11*
G36*
X126331966Y-74890107D02*
G01*
X126720874Y-74501199D01*
X127781534Y-75561859D01*
X127392626Y-75950767D01*
X126331966Y-74890107D01*
X126331966Y-74890107D01*
G37*
D16*
X126491064Y-75791668D03*
D11*
G36*
X125766280Y-75455792D02*
G01*
X126155188Y-75066884D01*
X127215848Y-76127544D01*
X126826940Y-76516452D01*
X125766280Y-75455792D01*
X125766280Y-75455792D01*
G37*
D16*
X126491064Y-78195832D03*
D11*
G36*
X126826940Y-77471048D02*
G01*
X127215848Y-77859956D01*
X126155188Y-78920616D01*
X125766280Y-78531708D01*
X126826940Y-77471048D01*
X126826940Y-77471048D01*
G37*
D16*
X127056750Y-78761517D03*
D11*
G36*
X127392626Y-78036733D02*
G01*
X127781534Y-78425641D01*
X126720874Y-79486301D01*
X126331966Y-79097393D01*
X127392626Y-78036733D01*
X127392626Y-78036733D01*
G37*
D16*
X127622435Y-79327202D03*
D11*
G36*
X127958311Y-78602418D02*
G01*
X128347219Y-78991326D01*
X127286559Y-80051986D01*
X126897651Y-79663078D01*
X127958311Y-78602418D01*
X127958311Y-78602418D01*
G37*
D16*
X128188120Y-79892888D03*
D11*
G36*
X128523996Y-79168104D02*
G01*
X128912904Y-79557012D01*
X127852244Y-80617672D01*
X127463336Y-80228764D01*
X128523996Y-79168104D01*
X128523996Y-79168104D01*
G37*
D16*
X128753806Y-80458573D03*
D11*
G36*
X129089682Y-79733789D02*
G01*
X129478590Y-80122697D01*
X128417930Y-81183357D01*
X128029022Y-80794449D01*
X129089682Y-79733789D01*
X129089682Y-79733789D01*
G37*
D16*
X129319491Y-81024259D03*
D11*
G36*
X129655367Y-80299475D02*
G01*
X130044275Y-80688383D01*
X128983615Y-81749043D01*
X128594707Y-81360135D01*
X129655367Y-80299475D01*
X129655367Y-80299475D01*
G37*
D16*
X129885177Y-81589944D03*
D11*
G36*
X130221053Y-80865160D02*
G01*
X130609961Y-81254068D01*
X129549301Y-82314728D01*
X129160393Y-81925820D01*
X130221053Y-80865160D01*
X130221053Y-80865160D01*
G37*
D16*
X130450862Y-82155630D03*
D11*
G36*
X130786738Y-81430846D02*
G01*
X131175646Y-81819754D01*
X130114986Y-82880414D01*
X129726078Y-82491506D01*
X130786738Y-81430846D01*
X130786738Y-81430846D01*
G37*
D16*
X131016548Y-82721315D03*
D11*
G36*
X131352424Y-81996531D02*
G01*
X131741332Y-82385439D01*
X130680672Y-83446099D01*
X130291764Y-83057191D01*
X131352424Y-81996531D01*
X131352424Y-81996531D01*
G37*
D16*
X131582233Y-83287000D03*
D11*
G36*
X131918109Y-82562216D02*
G01*
X132307017Y-82951124D01*
X131246357Y-84011784D01*
X130857449Y-83622876D01*
X131918109Y-82562216D01*
X131918109Y-82562216D01*
G37*
D16*
X132147918Y-83852686D03*
D11*
G36*
X132483794Y-83127902D02*
G01*
X132872702Y-83516810D01*
X131812042Y-84577470D01*
X131423134Y-84188562D01*
X132483794Y-83127902D01*
X132483794Y-83127902D01*
G37*
D16*
X134552082Y-83852686D03*
D11*
G36*
X133827298Y-83516810D02*
G01*
X134216206Y-83127902D01*
X135276866Y-84188562D01*
X134887958Y-84577470D01*
X133827298Y-83516810D01*
X133827298Y-83516810D01*
G37*
D16*
X135117767Y-83287000D03*
D11*
G36*
X134392983Y-82951124D02*
G01*
X134781891Y-82562216D01*
X135842551Y-83622876D01*
X135453643Y-84011784D01*
X134392983Y-82951124D01*
X134392983Y-82951124D01*
G37*
D16*
X135683452Y-82721315D03*
D11*
G36*
X134958668Y-82385439D02*
G01*
X135347576Y-81996531D01*
X136408236Y-83057191D01*
X136019328Y-83446099D01*
X134958668Y-82385439D01*
X134958668Y-82385439D01*
G37*
D16*
X136249138Y-82155630D03*
D11*
G36*
X135524354Y-81819754D02*
G01*
X135913262Y-81430846D01*
X136973922Y-82491506D01*
X136585014Y-82880414D01*
X135524354Y-81819754D01*
X135524354Y-81819754D01*
G37*
D16*
X136814823Y-81589944D03*
D11*
G36*
X136090039Y-81254068D02*
G01*
X136478947Y-80865160D01*
X137539607Y-81925820D01*
X137150699Y-82314728D01*
X136090039Y-81254068D01*
X136090039Y-81254068D01*
G37*
D16*
X137380509Y-81024259D03*
D11*
G36*
X136655725Y-80688383D02*
G01*
X137044633Y-80299475D01*
X138105293Y-81360135D01*
X137716385Y-81749043D01*
X136655725Y-80688383D01*
X136655725Y-80688383D01*
G37*
D16*
X137946194Y-80458573D03*
D11*
G36*
X137221410Y-80122697D02*
G01*
X137610318Y-79733789D01*
X138670978Y-80794449D01*
X138282070Y-81183357D01*
X137221410Y-80122697D01*
X137221410Y-80122697D01*
G37*
D16*
X138511880Y-79892888D03*
D11*
G36*
X137787096Y-79557012D02*
G01*
X138176004Y-79168104D01*
X139236664Y-80228764D01*
X138847756Y-80617672D01*
X137787096Y-79557012D01*
X137787096Y-79557012D01*
G37*
D16*
X139077565Y-79327202D03*
D11*
G36*
X138352781Y-78991326D02*
G01*
X138741689Y-78602418D01*
X139802349Y-79663078D01*
X139413441Y-80051986D01*
X138352781Y-78991326D01*
X138352781Y-78991326D01*
G37*
D16*
X139643250Y-78761517D03*
D11*
G36*
X138918466Y-78425641D02*
G01*
X139307374Y-78036733D01*
X140368034Y-79097393D01*
X139979126Y-79486301D01*
X138918466Y-78425641D01*
X138918466Y-78425641D01*
G37*
D16*
X140208936Y-78195832D03*
D11*
G36*
X139484152Y-77859956D02*
G01*
X139873060Y-77471048D01*
X140933720Y-78531708D01*
X140544812Y-78920616D01*
X139484152Y-77859956D01*
X139484152Y-77859956D01*
G37*
G36*
X137437005Y-53276204D02*
G01*
X137461273Y-53279804D01*
X137485072Y-53285765D01*
X137508171Y-53294030D01*
X137530350Y-53304520D01*
X137551393Y-53317132D01*
X137571099Y-53331747D01*
X137589277Y-53348223D01*
X137605753Y-53366401D01*
X137620368Y-53386107D01*
X137632980Y-53407150D01*
X137643470Y-53429329D01*
X137651735Y-53452428D01*
X137657696Y-53476227D01*
X137661296Y-53500495D01*
X137662500Y-53524999D01*
X137662500Y-54425001D01*
X137661296Y-54449505D01*
X137657696Y-54473773D01*
X137651735Y-54497572D01*
X137643470Y-54520671D01*
X137632980Y-54542850D01*
X137620368Y-54563893D01*
X137605753Y-54583599D01*
X137589277Y-54601777D01*
X137571099Y-54618253D01*
X137551393Y-54632868D01*
X137530350Y-54645480D01*
X137508171Y-54655970D01*
X137485072Y-54664235D01*
X137461273Y-54670196D01*
X137437005Y-54673796D01*
X137412501Y-54675000D01*
X136762499Y-54675000D01*
X136737995Y-54673796D01*
X136713727Y-54670196D01*
X136689928Y-54664235D01*
X136666829Y-54655970D01*
X136644650Y-54645480D01*
X136623607Y-54632868D01*
X136603901Y-54618253D01*
X136585723Y-54601777D01*
X136569247Y-54583599D01*
X136554632Y-54563893D01*
X136542020Y-54542850D01*
X136531530Y-54520671D01*
X136523265Y-54497572D01*
X136517304Y-54473773D01*
X136513704Y-54449505D01*
X136512500Y-54425001D01*
X136512500Y-53524999D01*
X136513704Y-53500495D01*
X136517304Y-53476227D01*
X136523265Y-53452428D01*
X136531530Y-53429329D01*
X136542020Y-53407150D01*
X136554632Y-53386107D01*
X136569247Y-53366401D01*
X136585723Y-53348223D01*
X136603901Y-53331747D01*
X136623607Y-53317132D01*
X136644650Y-53304520D01*
X136666829Y-53294030D01*
X136689928Y-53285765D01*
X136713727Y-53279804D01*
X136737995Y-53276204D01*
X136762499Y-53275000D01*
X137412501Y-53275000D01*
X137437005Y-53276204D01*
X137437005Y-53276204D01*
G37*
D17*
X137087500Y-53975000D03*
D11*
G36*
X139487005Y-53276204D02*
G01*
X139511273Y-53279804D01*
X139535072Y-53285765D01*
X139558171Y-53294030D01*
X139580350Y-53304520D01*
X139601393Y-53317132D01*
X139621099Y-53331747D01*
X139639277Y-53348223D01*
X139655753Y-53366401D01*
X139670368Y-53386107D01*
X139682980Y-53407150D01*
X139693470Y-53429329D01*
X139701735Y-53452428D01*
X139707696Y-53476227D01*
X139711296Y-53500495D01*
X139712500Y-53524999D01*
X139712500Y-54425001D01*
X139711296Y-54449505D01*
X139707696Y-54473773D01*
X139701735Y-54497572D01*
X139693470Y-54520671D01*
X139682980Y-54542850D01*
X139670368Y-54563893D01*
X139655753Y-54583599D01*
X139639277Y-54601777D01*
X139621099Y-54618253D01*
X139601393Y-54632868D01*
X139580350Y-54645480D01*
X139558171Y-54655970D01*
X139535072Y-54664235D01*
X139511273Y-54670196D01*
X139487005Y-54673796D01*
X139462501Y-54675000D01*
X138812499Y-54675000D01*
X138787995Y-54673796D01*
X138763727Y-54670196D01*
X138739928Y-54664235D01*
X138716829Y-54655970D01*
X138694650Y-54645480D01*
X138673607Y-54632868D01*
X138653901Y-54618253D01*
X138635723Y-54601777D01*
X138619247Y-54583599D01*
X138604632Y-54563893D01*
X138592020Y-54542850D01*
X138581530Y-54520671D01*
X138573265Y-54497572D01*
X138567304Y-54473773D01*
X138563704Y-54449505D01*
X138562500Y-54425001D01*
X138562500Y-53524999D01*
X138563704Y-53500495D01*
X138567304Y-53476227D01*
X138573265Y-53452428D01*
X138581530Y-53429329D01*
X138592020Y-53407150D01*
X138604632Y-53386107D01*
X138619247Y-53366401D01*
X138635723Y-53348223D01*
X138653901Y-53331747D01*
X138673607Y-53317132D01*
X138694650Y-53304520D01*
X138716829Y-53294030D01*
X138739928Y-53285765D01*
X138763727Y-53279804D01*
X138787995Y-53276204D01*
X138812499Y-53275000D01*
X139462501Y-53275000D01*
X139487005Y-53276204D01*
X139487005Y-53276204D01*
G37*
D17*
X139137500Y-53975000D03*
D11*
G36*
X129962005Y-53276204D02*
G01*
X129986273Y-53279804D01*
X130010072Y-53285765D01*
X130033171Y-53294030D01*
X130055350Y-53304520D01*
X130076393Y-53317132D01*
X130096099Y-53331747D01*
X130114277Y-53348223D01*
X130130753Y-53366401D01*
X130145368Y-53386107D01*
X130157980Y-53407150D01*
X130168470Y-53429329D01*
X130176735Y-53452428D01*
X130182696Y-53476227D01*
X130186296Y-53500495D01*
X130187500Y-53524999D01*
X130187500Y-54425001D01*
X130186296Y-54449505D01*
X130182696Y-54473773D01*
X130176735Y-54497572D01*
X130168470Y-54520671D01*
X130157980Y-54542850D01*
X130145368Y-54563893D01*
X130130753Y-54583599D01*
X130114277Y-54601777D01*
X130096099Y-54618253D01*
X130076393Y-54632868D01*
X130055350Y-54645480D01*
X130033171Y-54655970D01*
X130010072Y-54664235D01*
X129986273Y-54670196D01*
X129962005Y-54673796D01*
X129937501Y-54675000D01*
X129287499Y-54675000D01*
X129262995Y-54673796D01*
X129238727Y-54670196D01*
X129214928Y-54664235D01*
X129191829Y-54655970D01*
X129169650Y-54645480D01*
X129148607Y-54632868D01*
X129128901Y-54618253D01*
X129110723Y-54601777D01*
X129094247Y-54583599D01*
X129079632Y-54563893D01*
X129067020Y-54542850D01*
X129056530Y-54520671D01*
X129048265Y-54497572D01*
X129042304Y-54473773D01*
X129038704Y-54449505D01*
X129037500Y-54425001D01*
X129037500Y-53524999D01*
X129038704Y-53500495D01*
X129042304Y-53476227D01*
X129048265Y-53452428D01*
X129056530Y-53429329D01*
X129067020Y-53407150D01*
X129079632Y-53386107D01*
X129094247Y-53366401D01*
X129110723Y-53348223D01*
X129128901Y-53331747D01*
X129148607Y-53317132D01*
X129169650Y-53304520D01*
X129191829Y-53294030D01*
X129214928Y-53285765D01*
X129238727Y-53279804D01*
X129262995Y-53276204D01*
X129287499Y-53275000D01*
X129937501Y-53275000D01*
X129962005Y-53276204D01*
X129962005Y-53276204D01*
G37*
D17*
X129612500Y-53975000D03*
D11*
G36*
X127912005Y-53276204D02*
G01*
X127936273Y-53279804D01*
X127960072Y-53285765D01*
X127983171Y-53294030D01*
X128005350Y-53304520D01*
X128026393Y-53317132D01*
X128046099Y-53331747D01*
X128064277Y-53348223D01*
X128080753Y-53366401D01*
X128095368Y-53386107D01*
X128107980Y-53407150D01*
X128118470Y-53429329D01*
X128126735Y-53452428D01*
X128132696Y-53476227D01*
X128136296Y-53500495D01*
X128137500Y-53524999D01*
X128137500Y-54425001D01*
X128136296Y-54449505D01*
X128132696Y-54473773D01*
X128126735Y-54497572D01*
X128118470Y-54520671D01*
X128107980Y-54542850D01*
X128095368Y-54563893D01*
X128080753Y-54583599D01*
X128064277Y-54601777D01*
X128046099Y-54618253D01*
X128026393Y-54632868D01*
X128005350Y-54645480D01*
X127983171Y-54655970D01*
X127960072Y-54664235D01*
X127936273Y-54670196D01*
X127912005Y-54673796D01*
X127887501Y-54675000D01*
X127237499Y-54675000D01*
X127212995Y-54673796D01*
X127188727Y-54670196D01*
X127164928Y-54664235D01*
X127141829Y-54655970D01*
X127119650Y-54645480D01*
X127098607Y-54632868D01*
X127078901Y-54618253D01*
X127060723Y-54601777D01*
X127044247Y-54583599D01*
X127029632Y-54563893D01*
X127017020Y-54542850D01*
X127006530Y-54520671D01*
X126998265Y-54497572D01*
X126992304Y-54473773D01*
X126988704Y-54449505D01*
X126987500Y-54425001D01*
X126987500Y-53524999D01*
X126988704Y-53500495D01*
X126992304Y-53476227D01*
X126998265Y-53452428D01*
X127006530Y-53429329D01*
X127017020Y-53407150D01*
X127029632Y-53386107D01*
X127044247Y-53366401D01*
X127060723Y-53348223D01*
X127078901Y-53331747D01*
X127098607Y-53317132D01*
X127119650Y-53304520D01*
X127141829Y-53294030D01*
X127164928Y-53285765D01*
X127188727Y-53279804D01*
X127212995Y-53276204D01*
X127237499Y-53275000D01*
X127887501Y-53275000D01*
X127912005Y-53276204D01*
X127912005Y-53276204D01*
G37*
D17*
X127562500Y-53975000D03*
D11*
G36*
X132808505Y-57138704D02*
G01*
X132832773Y-57142304D01*
X132856572Y-57148265D01*
X132879671Y-57156530D01*
X132901850Y-57167020D01*
X132922893Y-57179632D01*
X132942599Y-57194247D01*
X132960777Y-57210723D01*
X132977253Y-57228901D01*
X132991868Y-57248607D01*
X133004480Y-57269650D01*
X133014970Y-57291829D01*
X133023235Y-57314928D01*
X133029196Y-57338727D01*
X133032796Y-57362995D01*
X133034000Y-57387499D01*
X133034000Y-58037501D01*
X133032796Y-58062005D01*
X133029196Y-58086273D01*
X133023235Y-58110072D01*
X133014970Y-58133171D01*
X133004480Y-58155350D01*
X132991868Y-58176393D01*
X132977253Y-58196099D01*
X132960777Y-58214277D01*
X132942599Y-58230753D01*
X132922893Y-58245368D01*
X132901850Y-58257980D01*
X132879671Y-58268470D01*
X132856572Y-58276735D01*
X132832773Y-58282696D01*
X132808505Y-58286296D01*
X132784001Y-58287500D01*
X131883999Y-58287500D01*
X131859495Y-58286296D01*
X131835227Y-58282696D01*
X131811428Y-58276735D01*
X131788329Y-58268470D01*
X131766150Y-58257980D01*
X131745107Y-58245368D01*
X131725401Y-58230753D01*
X131707223Y-58214277D01*
X131690747Y-58196099D01*
X131676132Y-58176393D01*
X131663520Y-58155350D01*
X131653030Y-58133171D01*
X131644765Y-58110072D01*
X131638804Y-58086273D01*
X131635204Y-58062005D01*
X131634000Y-58037501D01*
X131634000Y-57387499D01*
X131635204Y-57362995D01*
X131638804Y-57338727D01*
X131644765Y-57314928D01*
X131653030Y-57291829D01*
X131663520Y-57269650D01*
X131676132Y-57248607D01*
X131690747Y-57228901D01*
X131707223Y-57210723D01*
X131725401Y-57194247D01*
X131745107Y-57179632D01*
X131766150Y-57167020D01*
X131788329Y-57156530D01*
X131811428Y-57148265D01*
X131835227Y-57142304D01*
X131859495Y-57138704D01*
X131883999Y-57137500D01*
X132784001Y-57137500D01*
X132808505Y-57138704D01*
X132808505Y-57138704D01*
G37*
D17*
X132334000Y-57712500D03*
D11*
G36*
X132808505Y-59188704D02*
G01*
X132832773Y-59192304D01*
X132856572Y-59198265D01*
X132879671Y-59206530D01*
X132901850Y-59217020D01*
X132922893Y-59229632D01*
X132942599Y-59244247D01*
X132960777Y-59260723D01*
X132977253Y-59278901D01*
X132991868Y-59298607D01*
X133004480Y-59319650D01*
X133014970Y-59341829D01*
X133023235Y-59364928D01*
X133029196Y-59388727D01*
X133032796Y-59412995D01*
X133034000Y-59437499D01*
X133034000Y-60087501D01*
X133032796Y-60112005D01*
X133029196Y-60136273D01*
X133023235Y-60160072D01*
X133014970Y-60183171D01*
X133004480Y-60205350D01*
X132991868Y-60226393D01*
X132977253Y-60246099D01*
X132960777Y-60264277D01*
X132942599Y-60280753D01*
X132922893Y-60295368D01*
X132901850Y-60307980D01*
X132879671Y-60318470D01*
X132856572Y-60326735D01*
X132832773Y-60332696D01*
X132808505Y-60336296D01*
X132784001Y-60337500D01*
X131883999Y-60337500D01*
X131859495Y-60336296D01*
X131835227Y-60332696D01*
X131811428Y-60326735D01*
X131788329Y-60318470D01*
X131766150Y-60307980D01*
X131745107Y-60295368D01*
X131725401Y-60280753D01*
X131707223Y-60264277D01*
X131690747Y-60246099D01*
X131676132Y-60226393D01*
X131663520Y-60205350D01*
X131653030Y-60183171D01*
X131644765Y-60160072D01*
X131638804Y-60136273D01*
X131635204Y-60112005D01*
X131634000Y-60087501D01*
X131634000Y-59437499D01*
X131635204Y-59412995D01*
X131638804Y-59388727D01*
X131644765Y-59364928D01*
X131653030Y-59341829D01*
X131663520Y-59319650D01*
X131676132Y-59298607D01*
X131690747Y-59278901D01*
X131707223Y-59260723D01*
X131725401Y-59244247D01*
X131745107Y-59229632D01*
X131766150Y-59217020D01*
X131788329Y-59206530D01*
X131811428Y-59198265D01*
X131835227Y-59192304D01*
X131859495Y-59188704D01*
X131883999Y-59187500D01*
X132784001Y-59187500D01*
X132808505Y-59188704D01*
X132808505Y-59188704D01*
G37*
D17*
X132334000Y-59762500D03*
D11*
G36*
X134840505Y-57138704D02*
G01*
X134864773Y-57142304D01*
X134888572Y-57148265D01*
X134911671Y-57156530D01*
X134933850Y-57167020D01*
X134954893Y-57179632D01*
X134974599Y-57194247D01*
X134992777Y-57210723D01*
X135009253Y-57228901D01*
X135023868Y-57248607D01*
X135036480Y-57269650D01*
X135046970Y-57291829D01*
X135055235Y-57314928D01*
X135061196Y-57338727D01*
X135064796Y-57362995D01*
X135066000Y-57387499D01*
X135066000Y-58037501D01*
X135064796Y-58062005D01*
X135061196Y-58086273D01*
X135055235Y-58110072D01*
X135046970Y-58133171D01*
X135036480Y-58155350D01*
X135023868Y-58176393D01*
X135009253Y-58196099D01*
X134992777Y-58214277D01*
X134974599Y-58230753D01*
X134954893Y-58245368D01*
X134933850Y-58257980D01*
X134911671Y-58268470D01*
X134888572Y-58276735D01*
X134864773Y-58282696D01*
X134840505Y-58286296D01*
X134816001Y-58287500D01*
X133915999Y-58287500D01*
X133891495Y-58286296D01*
X133867227Y-58282696D01*
X133843428Y-58276735D01*
X133820329Y-58268470D01*
X133798150Y-58257980D01*
X133777107Y-58245368D01*
X133757401Y-58230753D01*
X133739223Y-58214277D01*
X133722747Y-58196099D01*
X133708132Y-58176393D01*
X133695520Y-58155350D01*
X133685030Y-58133171D01*
X133676765Y-58110072D01*
X133670804Y-58086273D01*
X133667204Y-58062005D01*
X133666000Y-58037501D01*
X133666000Y-57387499D01*
X133667204Y-57362995D01*
X133670804Y-57338727D01*
X133676765Y-57314928D01*
X133685030Y-57291829D01*
X133695520Y-57269650D01*
X133708132Y-57248607D01*
X133722747Y-57228901D01*
X133739223Y-57210723D01*
X133757401Y-57194247D01*
X133777107Y-57179632D01*
X133798150Y-57167020D01*
X133820329Y-57156530D01*
X133843428Y-57148265D01*
X133867227Y-57142304D01*
X133891495Y-57138704D01*
X133915999Y-57137500D01*
X134816001Y-57137500D01*
X134840505Y-57138704D01*
X134840505Y-57138704D01*
G37*
D17*
X134366000Y-57712500D03*
D11*
G36*
X134840505Y-59188704D02*
G01*
X134864773Y-59192304D01*
X134888572Y-59198265D01*
X134911671Y-59206530D01*
X134933850Y-59217020D01*
X134954893Y-59229632D01*
X134974599Y-59244247D01*
X134992777Y-59260723D01*
X135009253Y-59278901D01*
X135023868Y-59298607D01*
X135036480Y-59319650D01*
X135046970Y-59341829D01*
X135055235Y-59364928D01*
X135061196Y-59388727D01*
X135064796Y-59412995D01*
X135066000Y-59437499D01*
X135066000Y-60087501D01*
X135064796Y-60112005D01*
X135061196Y-60136273D01*
X135055235Y-60160072D01*
X135046970Y-60183171D01*
X135036480Y-60205350D01*
X135023868Y-60226393D01*
X135009253Y-60246099D01*
X134992777Y-60264277D01*
X134974599Y-60280753D01*
X134954893Y-60295368D01*
X134933850Y-60307980D01*
X134911671Y-60318470D01*
X134888572Y-60326735D01*
X134864773Y-60332696D01*
X134840505Y-60336296D01*
X134816001Y-60337500D01*
X133915999Y-60337500D01*
X133891495Y-60336296D01*
X133867227Y-60332696D01*
X133843428Y-60326735D01*
X133820329Y-60318470D01*
X133798150Y-60307980D01*
X133777107Y-60295368D01*
X133757401Y-60280753D01*
X133739223Y-60264277D01*
X133722747Y-60246099D01*
X133708132Y-60226393D01*
X133695520Y-60205350D01*
X133685030Y-60183171D01*
X133676765Y-60160072D01*
X133670804Y-60136273D01*
X133667204Y-60112005D01*
X133666000Y-60087501D01*
X133666000Y-59437499D01*
X133667204Y-59412995D01*
X133670804Y-59388727D01*
X133676765Y-59364928D01*
X133685030Y-59341829D01*
X133695520Y-59319650D01*
X133708132Y-59298607D01*
X133722747Y-59278901D01*
X133739223Y-59260723D01*
X133757401Y-59244247D01*
X133777107Y-59229632D01*
X133798150Y-59217020D01*
X133820329Y-59206530D01*
X133843428Y-59198265D01*
X133867227Y-59192304D01*
X133891495Y-59188704D01*
X133915999Y-59187500D01*
X134816001Y-59187500D01*
X134840505Y-59188704D01*
X134840505Y-59188704D01*
G37*
D17*
X134366000Y-59762500D03*
D11*
G36*
X169187005Y-53276204D02*
G01*
X169211273Y-53279804D01*
X169235072Y-53285765D01*
X169258171Y-53294030D01*
X169280350Y-53304520D01*
X169301393Y-53317132D01*
X169321099Y-53331747D01*
X169339277Y-53348223D01*
X169355753Y-53366401D01*
X169370368Y-53386107D01*
X169382980Y-53407150D01*
X169393470Y-53429329D01*
X169401735Y-53452428D01*
X169407696Y-53476227D01*
X169411296Y-53500495D01*
X169412500Y-53524999D01*
X169412500Y-54425001D01*
X169411296Y-54449505D01*
X169407696Y-54473773D01*
X169401735Y-54497572D01*
X169393470Y-54520671D01*
X169382980Y-54542850D01*
X169370368Y-54563893D01*
X169355753Y-54583599D01*
X169339277Y-54601777D01*
X169321099Y-54618253D01*
X169301393Y-54632868D01*
X169280350Y-54645480D01*
X169258171Y-54655970D01*
X169235072Y-54664235D01*
X169211273Y-54670196D01*
X169187005Y-54673796D01*
X169162501Y-54675000D01*
X168512499Y-54675000D01*
X168487995Y-54673796D01*
X168463727Y-54670196D01*
X168439928Y-54664235D01*
X168416829Y-54655970D01*
X168394650Y-54645480D01*
X168373607Y-54632868D01*
X168353901Y-54618253D01*
X168335723Y-54601777D01*
X168319247Y-54583599D01*
X168304632Y-54563893D01*
X168292020Y-54542850D01*
X168281530Y-54520671D01*
X168273265Y-54497572D01*
X168267304Y-54473773D01*
X168263704Y-54449505D01*
X168262500Y-54425001D01*
X168262500Y-53524999D01*
X168263704Y-53500495D01*
X168267304Y-53476227D01*
X168273265Y-53452428D01*
X168281530Y-53429329D01*
X168292020Y-53407150D01*
X168304632Y-53386107D01*
X168319247Y-53366401D01*
X168335723Y-53348223D01*
X168353901Y-53331747D01*
X168373607Y-53317132D01*
X168394650Y-53304520D01*
X168416829Y-53294030D01*
X168439928Y-53285765D01*
X168463727Y-53279804D01*
X168487995Y-53276204D01*
X168512499Y-53275000D01*
X169162501Y-53275000D01*
X169187005Y-53276204D01*
X169187005Y-53276204D01*
G37*
D17*
X168837500Y-53975000D03*
D11*
G36*
X171237005Y-53276204D02*
G01*
X171261273Y-53279804D01*
X171285072Y-53285765D01*
X171308171Y-53294030D01*
X171330350Y-53304520D01*
X171351393Y-53317132D01*
X171371099Y-53331747D01*
X171389277Y-53348223D01*
X171405753Y-53366401D01*
X171420368Y-53386107D01*
X171432980Y-53407150D01*
X171443470Y-53429329D01*
X171451735Y-53452428D01*
X171457696Y-53476227D01*
X171461296Y-53500495D01*
X171462500Y-53524999D01*
X171462500Y-54425001D01*
X171461296Y-54449505D01*
X171457696Y-54473773D01*
X171451735Y-54497572D01*
X171443470Y-54520671D01*
X171432980Y-54542850D01*
X171420368Y-54563893D01*
X171405753Y-54583599D01*
X171389277Y-54601777D01*
X171371099Y-54618253D01*
X171351393Y-54632868D01*
X171330350Y-54645480D01*
X171308171Y-54655970D01*
X171285072Y-54664235D01*
X171261273Y-54670196D01*
X171237005Y-54673796D01*
X171212501Y-54675000D01*
X170562499Y-54675000D01*
X170537995Y-54673796D01*
X170513727Y-54670196D01*
X170489928Y-54664235D01*
X170466829Y-54655970D01*
X170444650Y-54645480D01*
X170423607Y-54632868D01*
X170403901Y-54618253D01*
X170385723Y-54601777D01*
X170369247Y-54583599D01*
X170354632Y-54563893D01*
X170342020Y-54542850D01*
X170331530Y-54520671D01*
X170323265Y-54497572D01*
X170317304Y-54473773D01*
X170313704Y-54449505D01*
X170312500Y-54425001D01*
X170312500Y-53524999D01*
X170313704Y-53500495D01*
X170317304Y-53476227D01*
X170323265Y-53452428D01*
X170331530Y-53429329D01*
X170342020Y-53407150D01*
X170354632Y-53386107D01*
X170369247Y-53366401D01*
X170385723Y-53348223D01*
X170403901Y-53331747D01*
X170423607Y-53317132D01*
X170444650Y-53304520D01*
X170466829Y-53294030D01*
X170489928Y-53285765D01*
X170513727Y-53279804D01*
X170537995Y-53276204D01*
X170562499Y-53275000D01*
X171212501Y-53275000D01*
X171237005Y-53276204D01*
X171237005Y-53276204D01*
G37*
D17*
X170887500Y-53975000D03*
D11*
G36*
X161480755Y-53276204D02*
G01*
X161505023Y-53279804D01*
X161528822Y-53285765D01*
X161551921Y-53294030D01*
X161574100Y-53304520D01*
X161595143Y-53317132D01*
X161614849Y-53331747D01*
X161633027Y-53348223D01*
X161649503Y-53366401D01*
X161664118Y-53386107D01*
X161676730Y-53407150D01*
X161687220Y-53429329D01*
X161695485Y-53452428D01*
X161701446Y-53476227D01*
X161705046Y-53500495D01*
X161706250Y-53524999D01*
X161706250Y-54425001D01*
X161705046Y-54449505D01*
X161701446Y-54473773D01*
X161695485Y-54497572D01*
X161687220Y-54520671D01*
X161676730Y-54542850D01*
X161664118Y-54563893D01*
X161649503Y-54583599D01*
X161633027Y-54601777D01*
X161614849Y-54618253D01*
X161595143Y-54632868D01*
X161574100Y-54645480D01*
X161551921Y-54655970D01*
X161528822Y-54664235D01*
X161505023Y-54670196D01*
X161480755Y-54673796D01*
X161456251Y-54675000D01*
X160806249Y-54675000D01*
X160781745Y-54673796D01*
X160757477Y-54670196D01*
X160733678Y-54664235D01*
X160710579Y-54655970D01*
X160688400Y-54645480D01*
X160667357Y-54632868D01*
X160647651Y-54618253D01*
X160629473Y-54601777D01*
X160612997Y-54583599D01*
X160598382Y-54563893D01*
X160585770Y-54542850D01*
X160575280Y-54520671D01*
X160567015Y-54497572D01*
X160561054Y-54473773D01*
X160557454Y-54449505D01*
X160556250Y-54425001D01*
X160556250Y-53524999D01*
X160557454Y-53500495D01*
X160561054Y-53476227D01*
X160567015Y-53452428D01*
X160575280Y-53429329D01*
X160585770Y-53407150D01*
X160598382Y-53386107D01*
X160612997Y-53366401D01*
X160629473Y-53348223D01*
X160647651Y-53331747D01*
X160667357Y-53317132D01*
X160688400Y-53304520D01*
X160710579Y-53294030D01*
X160733678Y-53285765D01*
X160757477Y-53279804D01*
X160781745Y-53276204D01*
X160806249Y-53275000D01*
X161456251Y-53275000D01*
X161480755Y-53276204D01*
X161480755Y-53276204D01*
G37*
D17*
X161131250Y-53975000D03*
D11*
G36*
X159430755Y-53276204D02*
G01*
X159455023Y-53279804D01*
X159478822Y-53285765D01*
X159501921Y-53294030D01*
X159524100Y-53304520D01*
X159545143Y-53317132D01*
X159564849Y-53331747D01*
X159583027Y-53348223D01*
X159599503Y-53366401D01*
X159614118Y-53386107D01*
X159626730Y-53407150D01*
X159637220Y-53429329D01*
X159645485Y-53452428D01*
X159651446Y-53476227D01*
X159655046Y-53500495D01*
X159656250Y-53524999D01*
X159656250Y-54425001D01*
X159655046Y-54449505D01*
X159651446Y-54473773D01*
X159645485Y-54497572D01*
X159637220Y-54520671D01*
X159626730Y-54542850D01*
X159614118Y-54563893D01*
X159599503Y-54583599D01*
X159583027Y-54601777D01*
X159564849Y-54618253D01*
X159545143Y-54632868D01*
X159524100Y-54645480D01*
X159501921Y-54655970D01*
X159478822Y-54664235D01*
X159455023Y-54670196D01*
X159430755Y-54673796D01*
X159406251Y-54675000D01*
X158756249Y-54675000D01*
X158731745Y-54673796D01*
X158707477Y-54670196D01*
X158683678Y-54664235D01*
X158660579Y-54655970D01*
X158638400Y-54645480D01*
X158617357Y-54632868D01*
X158597651Y-54618253D01*
X158579473Y-54601777D01*
X158562997Y-54583599D01*
X158548382Y-54563893D01*
X158535770Y-54542850D01*
X158525280Y-54520671D01*
X158517015Y-54497572D01*
X158511054Y-54473773D01*
X158507454Y-54449505D01*
X158506250Y-54425001D01*
X158506250Y-53524999D01*
X158507454Y-53500495D01*
X158511054Y-53476227D01*
X158517015Y-53452428D01*
X158525280Y-53429329D01*
X158535770Y-53407150D01*
X158548382Y-53386107D01*
X158562997Y-53366401D01*
X158579473Y-53348223D01*
X158597651Y-53331747D01*
X158617357Y-53317132D01*
X158638400Y-53304520D01*
X158660579Y-53294030D01*
X158683678Y-53285765D01*
X158707477Y-53279804D01*
X158731745Y-53276204D01*
X158756249Y-53275000D01*
X159406251Y-53275000D01*
X159430755Y-53276204D01*
X159430755Y-53276204D01*
G37*
D17*
X159081250Y-53975000D03*
D11*
G36*
X164558505Y-57369954D02*
G01*
X164582773Y-57373554D01*
X164606572Y-57379515D01*
X164629671Y-57387780D01*
X164651850Y-57398270D01*
X164672893Y-57410882D01*
X164692599Y-57425497D01*
X164710777Y-57441973D01*
X164727253Y-57460151D01*
X164741868Y-57479857D01*
X164754480Y-57500900D01*
X164764970Y-57523079D01*
X164773235Y-57546178D01*
X164779196Y-57569977D01*
X164782796Y-57594245D01*
X164784000Y-57618749D01*
X164784000Y-58268751D01*
X164782796Y-58293255D01*
X164779196Y-58317523D01*
X164773235Y-58341322D01*
X164764970Y-58364421D01*
X164754480Y-58386600D01*
X164741868Y-58407643D01*
X164727253Y-58427349D01*
X164710777Y-58445527D01*
X164692599Y-58462003D01*
X164672893Y-58476618D01*
X164651850Y-58489230D01*
X164629671Y-58499720D01*
X164606572Y-58507985D01*
X164582773Y-58513946D01*
X164558505Y-58517546D01*
X164534001Y-58518750D01*
X163633999Y-58518750D01*
X163609495Y-58517546D01*
X163585227Y-58513946D01*
X163561428Y-58507985D01*
X163538329Y-58499720D01*
X163516150Y-58489230D01*
X163495107Y-58476618D01*
X163475401Y-58462003D01*
X163457223Y-58445527D01*
X163440747Y-58427349D01*
X163426132Y-58407643D01*
X163413520Y-58386600D01*
X163403030Y-58364421D01*
X163394765Y-58341322D01*
X163388804Y-58317523D01*
X163385204Y-58293255D01*
X163384000Y-58268751D01*
X163384000Y-57618749D01*
X163385204Y-57594245D01*
X163388804Y-57569977D01*
X163394765Y-57546178D01*
X163403030Y-57523079D01*
X163413520Y-57500900D01*
X163426132Y-57479857D01*
X163440747Y-57460151D01*
X163457223Y-57441973D01*
X163475401Y-57425497D01*
X163495107Y-57410882D01*
X163516150Y-57398270D01*
X163538329Y-57387780D01*
X163561428Y-57379515D01*
X163585227Y-57373554D01*
X163609495Y-57369954D01*
X163633999Y-57368750D01*
X164534001Y-57368750D01*
X164558505Y-57369954D01*
X164558505Y-57369954D01*
G37*
D17*
X164084000Y-57943750D03*
D11*
G36*
X164558505Y-59419954D02*
G01*
X164582773Y-59423554D01*
X164606572Y-59429515D01*
X164629671Y-59437780D01*
X164651850Y-59448270D01*
X164672893Y-59460882D01*
X164692599Y-59475497D01*
X164710777Y-59491973D01*
X164727253Y-59510151D01*
X164741868Y-59529857D01*
X164754480Y-59550900D01*
X164764970Y-59573079D01*
X164773235Y-59596178D01*
X164779196Y-59619977D01*
X164782796Y-59644245D01*
X164784000Y-59668749D01*
X164784000Y-60318751D01*
X164782796Y-60343255D01*
X164779196Y-60367523D01*
X164773235Y-60391322D01*
X164764970Y-60414421D01*
X164754480Y-60436600D01*
X164741868Y-60457643D01*
X164727253Y-60477349D01*
X164710777Y-60495527D01*
X164692599Y-60512003D01*
X164672893Y-60526618D01*
X164651850Y-60539230D01*
X164629671Y-60549720D01*
X164606572Y-60557985D01*
X164582773Y-60563946D01*
X164558505Y-60567546D01*
X164534001Y-60568750D01*
X163633999Y-60568750D01*
X163609495Y-60567546D01*
X163585227Y-60563946D01*
X163561428Y-60557985D01*
X163538329Y-60549720D01*
X163516150Y-60539230D01*
X163495107Y-60526618D01*
X163475401Y-60512003D01*
X163457223Y-60495527D01*
X163440747Y-60477349D01*
X163426132Y-60457643D01*
X163413520Y-60436600D01*
X163403030Y-60414421D01*
X163394765Y-60391322D01*
X163388804Y-60367523D01*
X163385204Y-60343255D01*
X163384000Y-60318751D01*
X163384000Y-59668749D01*
X163385204Y-59644245D01*
X163388804Y-59619977D01*
X163394765Y-59596178D01*
X163403030Y-59573079D01*
X163413520Y-59550900D01*
X163426132Y-59529857D01*
X163440747Y-59510151D01*
X163457223Y-59491973D01*
X163475401Y-59475497D01*
X163495107Y-59460882D01*
X163516150Y-59448270D01*
X163538329Y-59437780D01*
X163561428Y-59429515D01*
X163585227Y-59423554D01*
X163609495Y-59419954D01*
X163633999Y-59418750D01*
X164534001Y-59418750D01*
X164558505Y-59419954D01*
X164558505Y-59419954D01*
G37*
D17*
X164084000Y-59993750D03*
D11*
G36*
X166590505Y-57369954D02*
G01*
X166614773Y-57373554D01*
X166638572Y-57379515D01*
X166661671Y-57387780D01*
X166683850Y-57398270D01*
X166704893Y-57410882D01*
X166724599Y-57425497D01*
X166742777Y-57441973D01*
X166759253Y-57460151D01*
X166773868Y-57479857D01*
X166786480Y-57500900D01*
X166796970Y-57523079D01*
X166805235Y-57546178D01*
X166811196Y-57569977D01*
X166814796Y-57594245D01*
X166816000Y-57618749D01*
X166816000Y-58268751D01*
X166814796Y-58293255D01*
X166811196Y-58317523D01*
X166805235Y-58341322D01*
X166796970Y-58364421D01*
X166786480Y-58386600D01*
X166773868Y-58407643D01*
X166759253Y-58427349D01*
X166742777Y-58445527D01*
X166724599Y-58462003D01*
X166704893Y-58476618D01*
X166683850Y-58489230D01*
X166661671Y-58499720D01*
X166638572Y-58507985D01*
X166614773Y-58513946D01*
X166590505Y-58517546D01*
X166566001Y-58518750D01*
X165665999Y-58518750D01*
X165641495Y-58517546D01*
X165617227Y-58513946D01*
X165593428Y-58507985D01*
X165570329Y-58499720D01*
X165548150Y-58489230D01*
X165527107Y-58476618D01*
X165507401Y-58462003D01*
X165489223Y-58445527D01*
X165472747Y-58427349D01*
X165458132Y-58407643D01*
X165445520Y-58386600D01*
X165435030Y-58364421D01*
X165426765Y-58341322D01*
X165420804Y-58317523D01*
X165417204Y-58293255D01*
X165416000Y-58268751D01*
X165416000Y-57618749D01*
X165417204Y-57594245D01*
X165420804Y-57569977D01*
X165426765Y-57546178D01*
X165435030Y-57523079D01*
X165445520Y-57500900D01*
X165458132Y-57479857D01*
X165472747Y-57460151D01*
X165489223Y-57441973D01*
X165507401Y-57425497D01*
X165527107Y-57410882D01*
X165548150Y-57398270D01*
X165570329Y-57387780D01*
X165593428Y-57379515D01*
X165617227Y-57373554D01*
X165641495Y-57369954D01*
X165665999Y-57368750D01*
X166566001Y-57368750D01*
X166590505Y-57369954D01*
X166590505Y-57369954D01*
G37*
D17*
X166116000Y-57943750D03*
D11*
G36*
X166590505Y-59419954D02*
G01*
X166614773Y-59423554D01*
X166638572Y-59429515D01*
X166661671Y-59437780D01*
X166683850Y-59448270D01*
X166704893Y-59460882D01*
X166724599Y-59475497D01*
X166742777Y-59491973D01*
X166759253Y-59510151D01*
X166773868Y-59529857D01*
X166786480Y-59550900D01*
X166796970Y-59573079D01*
X166805235Y-59596178D01*
X166811196Y-59619977D01*
X166814796Y-59644245D01*
X166816000Y-59668749D01*
X166816000Y-60318751D01*
X166814796Y-60343255D01*
X166811196Y-60367523D01*
X166805235Y-60391322D01*
X166796970Y-60414421D01*
X166786480Y-60436600D01*
X166773868Y-60457643D01*
X166759253Y-60477349D01*
X166742777Y-60495527D01*
X166724599Y-60512003D01*
X166704893Y-60526618D01*
X166683850Y-60539230D01*
X166661671Y-60549720D01*
X166638572Y-60557985D01*
X166614773Y-60563946D01*
X166590505Y-60567546D01*
X166566001Y-60568750D01*
X165665999Y-60568750D01*
X165641495Y-60567546D01*
X165617227Y-60563946D01*
X165593428Y-60557985D01*
X165570329Y-60549720D01*
X165548150Y-60539230D01*
X165527107Y-60526618D01*
X165507401Y-60512003D01*
X165489223Y-60495527D01*
X165472747Y-60477349D01*
X165458132Y-60457643D01*
X165445520Y-60436600D01*
X165435030Y-60414421D01*
X165426765Y-60391322D01*
X165420804Y-60367523D01*
X165417204Y-60343255D01*
X165416000Y-60318751D01*
X165416000Y-59668749D01*
X165417204Y-59644245D01*
X165420804Y-59619977D01*
X165426765Y-59596178D01*
X165435030Y-59573079D01*
X165445520Y-59550900D01*
X165458132Y-59529857D01*
X165472747Y-59510151D01*
X165489223Y-59491973D01*
X165507401Y-59475497D01*
X165527107Y-59460882D01*
X165548150Y-59448270D01*
X165570329Y-59437780D01*
X165593428Y-59429515D01*
X165617227Y-59423554D01*
X165641495Y-59419954D01*
X165665999Y-59418750D01*
X166566001Y-59418750D01*
X166590505Y-59419954D01*
X166590505Y-59419954D01*
G37*
D17*
X166116000Y-59993750D03*
D11*
G36*
X161968926Y-84859230D02*
G01*
X161993194Y-84862830D01*
X162016993Y-84868791D01*
X162040092Y-84877056D01*
X162062271Y-84887546D01*
X162083314Y-84900158D01*
X162103020Y-84914773D01*
X162121198Y-84931249D01*
X162580819Y-85390870D01*
X162597295Y-85409048D01*
X162611910Y-85428754D01*
X162624522Y-85449797D01*
X162635012Y-85471976D01*
X162643277Y-85495075D01*
X162649238Y-85518874D01*
X162652838Y-85543142D01*
X162654042Y-85567646D01*
X162652838Y-85592150D01*
X162649238Y-85616418D01*
X162643277Y-85640217D01*
X162635012Y-85663316D01*
X162624522Y-85685495D01*
X162611910Y-85706538D01*
X162597295Y-85726244D01*
X162580819Y-85744422D01*
X161944422Y-86380819D01*
X161926244Y-86397295D01*
X161906538Y-86411910D01*
X161885495Y-86424522D01*
X161863316Y-86435012D01*
X161840217Y-86443277D01*
X161816418Y-86449238D01*
X161792150Y-86452838D01*
X161767646Y-86454042D01*
X161743142Y-86452838D01*
X161718874Y-86449238D01*
X161695075Y-86443277D01*
X161671976Y-86435012D01*
X161649797Y-86424522D01*
X161628754Y-86411910D01*
X161609048Y-86397295D01*
X161590870Y-86380819D01*
X161131249Y-85921198D01*
X161114773Y-85903020D01*
X161100158Y-85883314D01*
X161087546Y-85862271D01*
X161077056Y-85840092D01*
X161068791Y-85816993D01*
X161062830Y-85793194D01*
X161059230Y-85768926D01*
X161058026Y-85744422D01*
X161059230Y-85719918D01*
X161062830Y-85695650D01*
X161068791Y-85671851D01*
X161077056Y-85648752D01*
X161087546Y-85626573D01*
X161100158Y-85605530D01*
X161114773Y-85585824D01*
X161131249Y-85567646D01*
X161767646Y-84931249D01*
X161785824Y-84914773D01*
X161805530Y-84900158D01*
X161826573Y-84887546D01*
X161848752Y-84877056D01*
X161871851Y-84868791D01*
X161895650Y-84862830D01*
X161919918Y-84859230D01*
X161944422Y-84858026D01*
X161968926Y-84859230D01*
X161968926Y-84859230D01*
G37*
D17*
X161856034Y-85656034D03*
D11*
G36*
X160519358Y-83409662D02*
G01*
X160543626Y-83413262D01*
X160567425Y-83419223D01*
X160590524Y-83427488D01*
X160612703Y-83437978D01*
X160633746Y-83450590D01*
X160653452Y-83465205D01*
X160671630Y-83481681D01*
X161131251Y-83941302D01*
X161147727Y-83959480D01*
X161162342Y-83979186D01*
X161174954Y-84000229D01*
X161185444Y-84022408D01*
X161193709Y-84045507D01*
X161199670Y-84069306D01*
X161203270Y-84093574D01*
X161204474Y-84118078D01*
X161203270Y-84142582D01*
X161199670Y-84166850D01*
X161193709Y-84190649D01*
X161185444Y-84213748D01*
X161174954Y-84235927D01*
X161162342Y-84256970D01*
X161147727Y-84276676D01*
X161131251Y-84294854D01*
X160494854Y-84931251D01*
X160476676Y-84947727D01*
X160456970Y-84962342D01*
X160435927Y-84974954D01*
X160413748Y-84985444D01*
X160390649Y-84993709D01*
X160366850Y-84999670D01*
X160342582Y-85003270D01*
X160318078Y-85004474D01*
X160293574Y-85003270D01*
X160269306Y-84999670D01*
X160245507Y-84993709D01*
X160222408Y-84985444D01*
X160200229Y-84974954D01*
X160179186Y-84962342D01*
X160159480Y-84947727D01*
X160141302Y-84931251D01*
X159681681Y-84471630D01*
X159665205Y-84453452D01*
X159650590Y-84433746D01*
X159637978Y-84412703D01*
X159627488Y-84390524D01*
X159619223Y-84367425D01*
X159613262Y-84343626D01*
X159609662Y-84319358D01*
X159608458Y-84294854D01*
X159609662Y-84270350D01*
X159613262Y-84246082D01*
X159619223Y-84222283D01*
X159627488Y-84199184D01*
X159637978Y-84177005D01*
X159650590Y-84155962D01*
X159665205Y-84136256D01*
X159681681Y-84118078D01*
X160318078Y-83481681D01*
X160336256Y-83465205D01*
X160355962Y-83450590D01*
X160377005Y-83437978D01*
X160399184Y-83427488D01*
X160422283Y-83419223D01*
X160446082Y-83413262D01*
X160470350Y-83409662D01*
X160494854Y-83408458D01*
X160519358Y-83409662D01*
X160519358Y-83409662D01*
G37*
D17*
X160406466Y-84206466D03*
D11*
G36*
X130218926Y-84859230D02*
G01*
X130243194Y-84862830D01*
X130266993Y-84868791D01*
X130290092Y-84877056D01*
X130312271Y-84887546D01*
X130333314Y-84900158D01*
X130353020Y-84914773D01*
X130371198Y-84931249D01*
X130830819Y-85390870D01*
X130847295Y-85409048D01*
X130861910Y-85428754D01*
X130874522Y-85449797D01*
X130885012Y-85471976D01*
X130893277Y-85495075D01*
X130899238Y-85518874D01*
X130902838Y-85543142D01*
X130904042Y-85567646D01*
X130902838Y-85592150D01*
X130899238Y-85616418D01*
X130893277Y-85640217D01*
X130885012Y-85663316D01*
X130874522Y-85685495D01*
X130861910Y-85706538D01*
X130847295Y-85726244D01*
X130830819Y-85744422D01*
X130194422Y-86380819D01*
X130176244Y-86397295D01*
X130156538Y-86411910D01*
X130135495Y-86424522D01*
X130113316Y-86435012D01*
X130090217Y-86443277D01*
X130066418Y-86449238D01*
X130042150Y-86452838D01*
X130017646Y-86454042D01*
X129993142Y-86452838D01*
X129968874Y-86449238D01*
X129945075Y-86443277D01*
X129921976Y-86435012D01*
X129899797Y-86424522D01*
X129878754Y-86411910D01*
X129859048Y-86397295D01*
X129840870Y-86380819D01*
X129381249Y-85921198D01*
X129364773Y-85903020D01*
X129350158Y-85883314D01*
X129337546Y-85862271D01*
X129327056Y-85840092D01*
X129318791Y-85816993D01*
X129312830Y-85793194D01*
X129309230Y-85768926D01*
X129308026Y-85744422D01*
X129309230Y-85719918D01*
X129312830Y-85695650D01*
X129318791Y-85671851D01*
X129327056Y-85648752D01*
X129337546Y-85626573D01*
X129350158Y-85605530D01*
X129364773Y-85585824D01*
X129381249Y-85567646D01*
X130017646Y-84931249D01*
X130035824Y-84914773D01*
X130055530Y-84900158D01*
X130076573Y-84887546D01*
X130098752Y-84877056D01*
X130121851Y-84868791D01*
X130145650Y-84862830D01*
X130169918Y-84859230D01*
X130194422Y-84858026D01*
X130218926Y-84859230D01*
X130218926Y-84859230D01*
G37*
D17*
X130106034Y-85656034D03*
D11*
G36*
X128769358Y-83409662D02*
G01*
X128793626Y-83413262D01*
X128817425Y-83419223D01*
X128840524Y-83427488D01*
X128862703Y-83437978D01*
X128883746Y-83450590D01*
X128903452Y-83465205D01*
X128921630Y-83481681D01*
X129381251Y-83941302D01*
X129397727Y-83959480D01*
X129412342Y-83979186D01*
X129424954Y-84000229D01*
X129435444Y-84022408D01*
X129443709Y-84045507D01*
X129449670Y-84069306D01*
X129453270Y-84093574D01*
X129454474Y-84118078D01*
X129453270Y-84142582D01*
X129449670Y-84166850D01*
X129443709Y-84190649D01*
X129435444Y-84213748D01*
X129424954Y-84235927D01*
X129412342Y-84256970D01*
X129397727Y-84276676D01*
X129381251Y-84294854D01*
X128744854Y-84931251D01*
X128726676Y-84947727D01*
X128706970Y-84962342D01*
X128685927Y-84974954D01*
X128663748Y-84985444D01*
X128640649Y-84993709D01*
X128616850Y-84999670D01*
X128592582Y-85003270D01*
X128568078Y-85004474D01*
X128543574Y-85003270D01*
X128519306Y-84999670D01*
X128495507Y-84993709D01*
X128472408Y-84985444D01*
X128450229Y-84974954D01*
X128429186Y-84962342D01*
X128409480Y-84947727D01*
X128391302Y-84931251D01*
X127931681Y-84471630D01*
X127915205Y-84453452D01*
X127900590Y-84433746D01*
X127887978Y-84412703D01*
X127877488Y-84390524D01*
X127869223Y-84367425D01*
X127863262Y-84343626D01*
X127859662Y-84319358D01*
X127858458Y-84294854D01*
X127859662Y-84270350D01*
X127863262Y-84246082D01*
X127869223Y-84222283D01*
X127877488Y-84199184D01*
X127887978Y-84177005D01*
X127900590Y-84155962D01*
X127915205Y-84136256D01*
X127931681Y-84118078D01*
X128568078Y-83481681D01*
X128586256Y-83465205D01*
X128605962Y-83450590D01*
X128627005Y-83437978D01*
X128649184Y-83427488D01*
X128672283Y-83419223D01*
X128696082Y-83413262D01*
X128720350Y-83409662D01*
X128744854Y-83408458D01*
X128769358Y-83409662D01*
X128769358Y-83409662D01*
G37*
D17*
X128656466Y-84206466D03*
D11*
G36*
X173097721Y-89127420D02*
G01*
X173121989Y-89131020D01*
X173145788Y-89136981D01*
X173168887Y-89145246D01*
X173191066Y-89155736D01*
X173212109Y-89168348D01*
X173231815Y-89182963D01*
X173249993Y-89199439D01*
X173266469Y-89217617D01*
X173281084Y-89237323D01*
X173293696Y-89258366D01*
X173304186Y-89280545D01*
X173312451Y-89303644D01*
X173318412Y-89327443D01*
X173322012Y-89351711D01*
X173323216Y-89376215D01*
X173323216Y-90276217D01*
X173322012Y-90300721D01*
X173318412Y-90324989D01*
X173312451Y-90348788D01*
X173304186Y-90371887D01*
X173293696Y-90394066D01*
X173281084Y-90415109D01*
X173266469Y-90434815D01*
X173249993Y-90452993D01*
X173231815Y-90469469D01*
X173212109Y-90484084D01*
X173191066Y-90496696D01*
X173168887Y-90507186D01*
X173145788Y-90515451D01*
X173121989Y-90521412D01*
X173097721Y-90525012D01*
X173073217Y-90526216D01*
X172423215Y-90526216D01*
X172398711Y-90525012D01*
X172374443Y-90521412D01*
X172350644Y-90515451D01*
X172327545Y-90507186D01*
X172305366Y-90496696D01*
X172284323Y-90484084D01*
X172264617Y-90469469D01*
X172246439Y-90452993D01*
X172229963Y-90434815D01*
X172215348Y-90415109D01*
X172202736Y-90394066D01*
X172192246Y-90371887D01*
X172183981Y-90348788D01*
X172178020Y-90324989D01*
X172174420Y-90300721D01*
X172173216Y-90276217D01*
X172173216Y-89376215D01*
X172174420Y-89351711D01*
X172178020Y-89327443D01*
X172183981Y-89303644D01*
X172192246Y-89280545D01*
X172202736Y-89258366D01*
X172215348Y-89237323D01*
X172229963Y-89217617D01*
X172246439Y-89199439D01*
X172264617Y-89182963D01*
X172284323Y-89168348D01*
X172305366Y-89155736D01*
X172327545Y-89145246D01*
X172350644Y-89136981D01*
X172374443Y-89131020D01*
X172398711Y-89127420D01*
X172423215Y-89126216D01*
X173073217Y-89126216D01*
X173097721Y-89127420D01*
X173097721Y-89127420D01*
G37*
D17*
X172748216Y-89826216D03*
D11*
G36*
X175147721Y-89127420D02*
G01*
X175171989Y-89131020D01*
X175195788Y-89136981D01*
X175218887Y-89145246D01*
X175241066Y-89155736D01*
X175262109Y-89168348D01*
X175281815Y-89182963D01*
X175299993Y-89199439D01*
X175316469Y-89217617D01*
X175331084Y-89237323D01*
X175343696Y-89258366D01*
X175354186Y-89280545D01*
X175362451Y-89303644D01*
X175368412Y-89327443D01*
X175372012Y-89351711D01*
X175373216Y-89376215D01*
X175373216Y-90276217D01*
X175372012Y-90300721D01*
X175368412Y-90324989D01*
X175362451Y-90348788D01*
X175354186Y-90371887D01*
X175343696Y-90394066D01*
X175331084Y-90415109D01*
X175316469Y-90434815D01*
X175299993Y-90452993D01*
X175281815Y-90469469D01*
X175262109Y-90484084D01*
X175241066Y-90496696D01*
X175218887Y-90507186D01*
X175195788Y-90515451D01*
X175171989Y-90521412D01*
X175147721Y-90525012D01*
X175123217Y-90526216D01*
X174473215Y-90526216D01*
X174448711Y-90525012D01*
X174424443Y-90521412D01*
X174400644Y-90515451D01*
X174377545Y-90507186D01*
X174355366Y-90496696D01*
X174334323Y-90484084D01*
X174314617Y-90469469D01*
X174296439Y-90452993D01*
X174279963Y-90434815D01*
X174265348Y-90415109D01*
X174252736Y-90394066D01*
X174242246Y-90371887D01*
X174233981Y-90348788D01*
X174228020Y-90324989D01*
X174224420Y-90300721D01*
X174223216Y-90276217D01*
X174223216Y-89376215D01*
X174224420Y-89351711D01*
X174228020Y-89327443D01*
X174233981Y-89303644D01*
X174242246Y-89280545D01*
X174252736Y-89258366D01*
X174265348Y-89237323D01*
X174279963Y-89217617D01*
X174296439Y-89199439D01*
X174314617Y-89182963D01*
X174334323Y-89168348D01*
X174355366Y-89155736D01*
X174377545Y-89145246D01*
X174400644Y-89136981D01*
X174424443Y-89131020D01*
X174448711Y-89127420D01*
X174473215Y-89126216D01*
X175123217Y-89126216D01*
X175147721Y-89127420D01*
X175147721Y-89127420D01*
G37*
D17*
X174798216Y-89826216D03*
D11*
G36*
X124599505Y-89281204D02*
G01*
X124623773Y-89284804D01*
X124647572Y-89290765D01*
X124670671Y-89299030D01*
X124692850Y-89309520D01*
X124713893Y-89322132D01*
X124733599Y-89336747D01*
X124751777Y-89353223D01*
X124768253Y-89371401D01*
X124782868Y-89391107D01*
X124795480Y-89412150D01*
X124805970Y-89434329D01*
X124814235Y-89457428D01*
X124820196Y-89481227D01*
X124823796Y-89505495D01*
X124825000Y-89529999D01*
X124825000Y-90430001D01*
X124823796Y-90454505D01*
X124820196Y-90478773D01*
X124814235Y-90502572D01*
X124805970Y-90525671D01*
X124795480Y-90547850D01*
X124782868Y-90568893D01*
X124768253Y-90588599D01*
X124751777Y-90606777D01*
X124733599Y-90623253D01*
X124713893Y-90637868D01*
X124692850Y-90650480D01*
X124670671Y-90660970D01*
X124647572Y-90669235D01*
X124623773Y-90675196D01*
X124599505Y-90678796D01*
X124575001Y-90680000D01*
X123924999Y-90680000D01*
X123900495Y-90678796D01*
X123876227Y-90675196D01*
X123852428Y-90669235D01*
X123829329Y-90660970D01*
X123807150Y-90650480D01*
X123786107Y-90637868D01*
X123766401Y-90623253D01*
X123748223Y-90606777D01*
X123731747Y-90588599D01*
X123717132Y-90568893D01*
X123704520Y-90547850D01*
X123694030Y-90525671D01*
X123685765Y-90502572D01*
X123679804Y-90478773D01*
X123676204Y-90454505D01*
X123675000Y-90430001D01*
X123675000Y-89529999D01*
X123676204Y-89505495D01*
X123679804Y-89481227D01*
X123685765Y-89457428D01*
X123694030Y-89434329D01*
X123704520Y-89412150D01*
X123717132Y-89391107D01*
X123731747Y-89371401D01*
X123748223Y-89353223D01*
X123766401Y-89336747D01*
X123786107Y-89322132D01*
X123807150Y-89309520D01*
X123829329Y-89299030D01*
X123852428Y-89290765D01*
X123876227Y-89284804D01*
X123900495Y-89281204D01*
X123924999Y-89280000D01*
X124575001Y-89280000D01*
X124599505Y-89281204D01*
X124599505Y-89281204D01*
G37*
D17*
X124250000Y-89980000D03*
D11*
G36*
X126649505Y-89281204D02*
G01*
X126673773Y-89284804D01*
X126697572Y-89290765D01*
X126720671Y-89299030D01*
X126742850Y-89309520D01*
X126763893Y-89322132D01*
X126783599Y-89336747D01*
X126801777Y-89353223D01*
X126818253Y-89371401D01*
X126832868Y-89391107D01*
X126845480Y-89412150D01*
X126855970Y-89434329D01*
X126864235Y-89457428D01*
X126870196Y-89481227D01*
X126873796Y-89505495D01*
X126875000Y-89529999D01*
X126875000Y-90430001D01*
X126873796Y-90454505D01*
X126870196Y-90478773D01*
X126864235Y-90502572D01*
X126855970Y-90525671D01*
X126845480Y-90547850D01*
X126832868Y-90568893D01*
X126818253Y-90588599D01*
X126801777Y-90606777D01*
X126783599Y-90623253D01*
X126763893Y-90637868D01*
X126742850Y-90650480D01*
X126720671Y-90660970D01*
X126697572Y-90669235D01*
X126673773Y-90675196D01*
X126649505Y-90678796D01*
X126625001Y-90680000D01*
X125974999Y-90680000D01*
X125950495Y-90678796D01*
X125926227Y-90675196D01*
X125902428Y-90669235D01*
X125879329Y-90660970D01*
X125857150Y-90650480D01*
X125836107Y-90637868D01*
X125816401Y-90623253D01*
X125798223Y-90606777D01*
X125781747Y-90588599D01*
X125767132Y-90568893D01*
X125754520Y-90547850D01*
X125744030Y-90525671D01*
X125735765Y-90502572D01*
X125729804Y-90478773D01*
X125726204Y-90454505D01*
X125725000Y-90430001D01*
X125725000Y-89529999D01*
X125726204Y-89505495D01*
X125729804Y-89481227D01*
X125735765Y-89457428D01*
X125744030Y-89434329D01*
X125754520Y-89412150D01*
X125767132Y-89391107D01*
X125781747Y-89371401D01*
X125798223Y-89353223D01*
X125816401Y-89336747D01*
X125836107Y-89322132D01*
X125857150Y-89309520D01*
X125879329Y-89299030D01*
X125902428Y-89290765D01*
X125926227Y-89284804D01*
X125950495Y-89281204D01*
X125974999Y-89280000D01*
X126625001Y-89280000D01*
X126649505Y-89281204D01*
X126649505Y-89281204D01*
G37*
D17*
X126300000Y-89980000D03*
D11*
G36*
X140349504Y-56438704D02*
G01*
X140373773Y-56442304D01*
X140397571Y-56448265D01*
X140420671Y-56456530D01*
X140442849Y-56467020D01*
X140463893Y-56479633D01*
X140483598Y-56494247D01*
X140501777Y-56510723D01*
X140518253Y-56528902D01*
X140532867Y-56548607D01*
X140545480Y-56569651D01*
X140555970Y-56591829D01*
X140564235Y-56614929D01*
X140570196Y-56638727D01*
X140573796Y-56662996D01*
X140575000Y-56687500D01*
X140575000Y-57612500D01*
X140573796Y-57637004D01*
X140570196Y-57661273D01*
X140564235Y-57685071D01*
X140555970Y-57708171D01*
X140545480Y-57730349D01*
X140532867Y-57751393D01*
X140518253Y-57771098D01*
X140501777Y-57789277D01*
X140483598Y-57805753D01*
X140463893Y-57820367D01*
X140442849Y-57832980D01*
X140420671Y-57843470D01*
X140397571Y-57851735D01*
X140373773Y-57857696D01*
X140349504Y-57861296D01*
X140325000Y-57862500D01*
X139075000Y-57862500D01*
X139050496Y-57861296D01*
X139026227Y-57857696D01*
X139002429Y-57851735D01*
X138979329Y-57843470D01*
X138957151Y-57832980D01*
X138936107Y-57820367D01*
X138916402Y-57805753D01*
X138898223Y-57789277D01*
X138881747Y-57771098D01*
X138867133Y-57751393D01*
X138854520Y-57730349D01*
X138844030Y-57708171D01*
X138835765Y-57685071D01*
X138829804Y-57661273D01*
X138826204Y-57637004D01*
X138825000Y-57612500D01*
X138825000Y-56687500D01*
X138826204Y-56662996D01*
X138829804Y-56638727D01*
X138835765Y-56614929D01*
X138844030Y-56591829D01*
X138854520Y-56569651D01*
X138867133Y-56548607D01*
X138881747Y-56528902D01*
X138898223Y-56510723D01*
X138916402Y-56494247D01*
X138936107Y-56479633D01*
X138957151Y-56467020D01*
X138979329Y-56456530D01*
X139002429Y-56448265D01*
X139026227Y-56442304D01*
X139050496Y-56438704D01*
X139075000Y-56437500D01*
X140325000Y-56437500D01*
X140349504Y-56438704D01*
X140349504Y-56438704D01*
G37*
D18*
X139700000Y-57150000D03*
D11*
G36*
X140349504Y-59413704D02*
G01*
X140373773Y-59417304D01*
X140397571Y-59423265D01*
X140420671Y-59431530D01*
X140442849Y-59442020D01*
X140463893Y-59454633D01*
X140483598Y-59469247D01*
X140501777Y-59485723D01*
X140518253Y-59503902D01*
X140532867Y-59523607D01*
X140545480Y-59544651D01*
X140555970Y-59566829D01*
X140564235Y-59589929D01*
X140570196Y-59613727D01*
X140573796Y-59637996D01*
X140575000Y-59662500D01*
X140575000Y-60587500D01*
X140573796Y-60612004D01*
X140570196Y-60636273D01*
X140564235Y-60660071D01*
X140555970Y-60683171D01*
X140545480Y-60705349D01*
X140532867Y-60726393D01*
X140518253Y-60746098D01*
X140501777Y-60764277D01*
X140483598Y-60780753D01*
X140463893Y-60795367D01*
X140442849Y-60807980D01*
X140420671Y-60818470D01*
X140397571Y-60826735D01*
X140373773Y-60832696D01*
X140349504Y-60836296D01*
X140325000Y-60837500D01*
X139075000Y-60837500D01*
X139050496Y-60836296D01*
X139026227Y-60832696D01*
X139002429Y-60826735D01*
X138979329Y-60818470D01*
X138957151Y-60807980D01*
X138936107Y-60795367D01*
X138916402Y-60780753D01*
X138898223Y-60764277D01*
X138881747Y-60746098D01*
X138867133Y-60726393D01*
X138854520Y-60705349D01*
X138844030Y-60683171D01*
X138835765Y-60660071D01*
X138829804Y-60636273D01*
X138826204Y-60612004D01*
X138825000Y-60587500D01*
X138825000Y-59662500D01*
X138826204Y-59637996D01*
X138829804Y-59613727D01*
X138835765Y-59589929D01*
X138844030Y-59566829D01*
X138854520Y-59544651D01*
X138867133Y-59523607D01*
X138881747Y-59503902D01*
X138898223Y-59485723D01*
X138916402Y-59469247D01*
X138936107Y-59454633D01*
X138957151Y-59442020D01*
X138979329Y-59431530D01*
X139002429Y-59423265D01*
X139026227Y-59417304D01*
X139050496Y-59413704D01*
X139075000Y-59412500D01*
X140325000Y-59412500D01*
X140349504Y-59413704D01*
X140349504Y-59413704D01*
G37*
D18*
X139700000Y-60125000D03*
D11*
G36*
X172099504Y-56438704D02*
G01*
X172123773Y-56442304D01*
X172147571Y-56448265D01*
X172170671Y-56456530D01*
X172192849Y-56467020D01*
X172213893Y-56479633D01*
X172233598Y-56494247D01*
X172251777Y-56510723D01*
X172268253Y-56528902D01*
X172282867Y-56548607D01*
X172295480Y-56569651D01*
X172305970Y-56591829D01*
X172314235Y-56614929D01*
X172320196Y-56638727D01*
X172323796Y-56662996D01*
X172325000Y-56687500D01*
X172325000Y-57612500D01*
X172323796Y-57637004D01*
X172320196Y-57661273D01*
X172314235Y-57685071D01*
X172305970Y-57708171D01*
X172295480Y-57730349D01*
X172282867Y-57751393D01*
X172268253Y-57771098D01*
X172251777Y-57789277D01*
X172233598Y-57805753D01*
X172213893Y-57820367D01*
X172192849Y-57832980D01*
X172170671Y-57843470D01*
X172147571Y-57851735D01*
X172123773Y-57857696D01*
X172099504Y-57861296D01*
X172075000Y-57862500D01*
X170825000Y-57862500D01*
X170800496Y-57861296D01*
X170776227Y-57857696D01*
X170752429Y-57851735D01*
X170729329Y-57843470D01*
X170707151Y-57832980D01*
X170686107Y-57820367D01*
X170666402Y-57805753D01*
X170648223Y-57789277D01*
X170631747Y-57771098D01*
X170617133Y-57751393D01*
X170604520Y-57730349D01*
X170594030Y-57708171D01*
X170585765Y-57685071D01*
X170579804Y-57661273D01*
X170576204Y-57637004D01*
X170575000Y-57612500D01*
X170575000Y-56687500D01*
X170576204Y-56662996D01*
X170579804Y-56638727D01*
X170585765Y-56614929D01*
X170594030Y-56591829D01*
X170604520Y-56569651D01*
X170617133Y-56548607D01*
X170631747Y-56528902D01*
X170648223Y-56510723D01*
X170666402Y-56494247D01*
X170686107Y-56479633D01*
X170707151Y-56467020D01*
X170729329Y-56456530D01*
X170752429Y-56448265D01*
X170776227Y-56442304D01*
X170800496Y-56438704D01*
X170825000Y-56437500D01*
X172075000Y-56437500D01*
X172099504Y-56438704D01*
X172099504Y-56438704D01*
G37*
D18*
X171450000Y-57150000D03*
D11*
G36*
X172099504Y-59413704D02*
G01*
X172123773Y-59417304D01*
X172147571Y-59423265D01*
X172170671Y-59431530D01*
X172192849Y-59442020D01*
X172213893Y-59454633D01*
X172233598Y-59469247D01*
X172251777Y-59485723D01*
X172268253Y-59503902D01*
X172282867Y-59523607D01*
X172295480Y-59544651D01*
X172305970Y-59566829D01*
X172314235Y-59589929D01*
X172320196Y-59613727D01*
X172323796Y-59637996D01*
X172325000Y-59662500D01*
X172325000Y-60587500D01*
X172323796Y-60612004D01*
X172320196Y-60636273D01*
X172314235Y-60660071D01*
X172305970Y-60683171D01*
X172295480Y-60705349D01*
X172282867Y-60726393D01*
X172268253Y-60746098D01*
X172251777Y-60764277D01*
X172233598Y-60780753D01*
X172213893Y-60795367D01*
X172192849Y-60807980D01*
X172170671Y-60818470D01*
X172147571Y-60826735D01*
X172123773Y-60832696D01*
X172099504Y-60836296D01*
X172075000Y-60837500D01*
X170825000Y-60837500D01*
X170800496Y-60836296D01*
X170776227Y-60832696D01*
X170752429Y-60826735D01*
X170729329Y-60818470D01*
X170707151Y-60807980D01*
X170686107Y-60795367D01*
X170666402Y-60780753D01*
X170648223Y-60764277D01*
X170631747Y-60746098D01*
X170617133Y-60726393D01*
X170604520Y-60705349D01*
X170594030Y-60683171D01*
X170585765Y-60660071D01*
X170579804Y-60636273D01*
X170576204Y-60612004D01*
X170575000Y-60587500D01*
X170575000Y-59662500D01*
X170576204Y-59637996D01*
X170579804Y-59613727D01*
X170585765Y-59589929D01*
X170594030Y-59566829D01*
X170604520Y-59544651D01*
X170617133Y-59523607D01*
X170631747Y-59503902D01*
X170648223Y-59485723D01*
X170666402Y-59469247D01*
X170686107Y-59454633D01*
X170707151Y-59442020D01*
X170729329Y-59431530D01*
X170752429Y-59423265D01*
X170776227Y-59417304D01*
X170800496Y-59413704D01*
X170825000Y-59412500D01*
X172075000Y-59412500D01*
X172099504Y-59413704D01*
X172099504Y-59413704D01*
G37*
D18*
X171450000Y-60125000D03*
D11*
G36*
X173273832Y-80096730D02*
G01*
X173298100Y-80100330D01*
X173321899Y-80106291D01*
X173344998Y-80114556D01*
X173367177Y-80125046D01*
X173388220Y-80137658D01*
X173407926Y-80152273D01*
X173426104Y-80168749D01*
X174062501Y-80805146D01*
X174078977Y-80823324D01*
X174093592Y-80843030D01*
X174106204Y-80864073D01*
X174116694Y-80886252D01*
X174124959Y-80909351D01*
X174130920Y-80933150D01*
X174134520Y-80957418D01*
X174135724Y-80981922D01*
X174134520Y-81006426D01*
X174130920Y-81030694D01*
X174124959Y-81054493D01*
X174116694Y-81077592D01*
X174106204Y-81099771D01*
X174093592Y-81120814D01*
X174078977Y-81140520D01*
X174062501Y-81158698D01*
X173602880Y-81618319D01*
X173584702Y-81634795D01*
X173564996Y-81649410D01*
X173543953Y-81662022D01*
X173521774Y-81672512D01*
X173498675Y-81680777D01*
X173474876Y-81686738D01*
X173450608Y-81690338D01*
X173426104Y-81691542D01*
X173401600Y-81690338D01*
X173377332Y-81686738D01*
X173353533Y-81680777D01*
X173330434Y-81672512D01*
X173308255Y-81662022D01*
X173287212Y-81649410D01*
X173267506Y-81634795D01*
X173249328Y-81618319D01*
X172612931Y-80981922D01*
X172596455Y-80963744D01*
X172581840Y-80944038D01*
X172569228Y-80922995D01*
X172558738Y-80900816D01*
X172550473Y-80877717D01*
X172544512Y-80853918D01*
X172540912Y-80829650D01*
X172539708Y-80805146D01*
X172540912Y-80780642D01*
X172544512Y-80756374D01*
X172550473Y-80732575D01*
X172558738Y-80709476D01*
X172569228Y-80687297D01*
X172581840Y-80666254D01*
X172596455Y-80646548D01*
X172612931Y-80628370D01*
X173072552Y-80168749D01*
X173090730Y-80152273D01*
X173110436Y-80137658D01*
X173131479Y-80125046D01*
X173153658Y-80114556D01*
X173176757Y-80106291D01*
X173200556Y-80100330D01*
X173224824Y-80096730D01*
X173249328Y-80095526D01*
X173273832Y-80096730D01*
X173273832Y-80096730D01*
G37*
D17*
X173337716Y-80893534D03*
D11*
G36*
X174723400Y-78647162D02*
G01*
X174747668Y-78650762D01*
X174771467Y-78656723D01*
X174794566Y-78664988D01*
X174816745Y-78675478D01*
X174837788Y-78688090D01*
X174857494Y-78702705D01*
X174875672Y-78719181D01*
X175512069Y-79355578D01*
X175528545Y-79373756D01*
X175543160Y-79393462D01*
X175555772Y-79414505D01*
X175566262Y-79436684D01*
X175574527Y-79459783D01*
X175580488Y-79483582D01*
X175584088Y-79507850D01*
X175585292Y-79532354D01*
X175584088Y-79556858D01*
X175580488Y-79581126D01*
X175574527Y-79604925D01*
X175566262Y-79628024D01*
X175555772Y-79650203D01*
X175543160Y-79671246D01*
X175528545Y-79690952D01*
X175512069Y-79709130D01*
X175052448Y-80168751D01*
X175034270Y-80185227D01*
X175014564Y-80199842D01*
X174993521Y-80212454D01*
X174971342Y-80222944D01*
X174948243Y-80231209D01*
X174924444Y-80237170D01*
X174900176Y-80240770D01*
X174875672Y-80241974D01*
X174851168Y-80240770D01*
X174826900Y-80237170D01*
X174803101Y-80231209D01*
X174780002Y-80222944D01*
X174757823Y-80212454D01*
X174736780Y-80199842D01*
X174717074Y-80185227D01*
X174698896Y-80168751D01*
X174062499Y-79532354D01*
X174046023Y-79514176D01*
X174031408Y-79494470D01*
X174018796Y-79473427D01*
X174008306Y-79451248D01*
X174000041Y-79428149D01*
X173994080Y-79404350D01*
X173990480Y-79380082D01*
X173989276Y-79355578D01*
X173990480Y-79331074D01*
X173994080Y-79306806D01*
X174000041Y-79283007D01*
X174008306Y-79259908D01*
X174018796Y-79237729D01*
X174031408Y-79216686D01*
X174046023Y-79196980D01*
X174062499Y-79178802D01*
X174522120Y-78719181D01*
X174540298Y-78702705D01*
X174560004Y-78688090D01*
X174581047Y-78675478D01*
X174603226Y-78664988D01*
X174626325Y-78656723D01*
X174650124Y-78650762D01*
X174674392Y-78647162D01*
X174698896Y-78645958D01*
X174723400Y-78647162D01*
X174723400Y-78647162D01*
G37*
D17*
X174787284Y-79443966D03*
D11*
G36*
X165574505Y-63488704D02*
G01*
X165598773Y-63492304D01*
X165622572Y-63498265D01*
X165645671Y-63506530D01*
X165667850Y-63517020D01*
X165688893Y-63529632D01*
X165708599Y-63544247D01*
X165726777Y-63560723D01*
X165743253Y-63578901D01*
X165757868Y-63598607D01*
X165770480Y-63619650D01*
X165780970Y-63641829D01*
X165789235Y-63664928D01*
X165795196Y-63688727D01*
X165798796Y-63712995D01*
X165800000Y-63737499D01*
X165800000Y-64387501D01*
X165798796Y-64412005D01*
X165795196Y-64436273D01*
X165789235Y-64460072D01*
X165780970Y-64483171D01*
X165770480Y-64505350D01*
X165757868Y-64526393D01*
X165743253Y-64546099D01*
X165726777Y-64564277D01*
X165708599Y-64580753D01*
X165688893Y-64595368D01*
X165667850Y-64607980D01*
X165645671Y-64618470D01*
X165622572Y-64626735D01*
X165598773Y-64632696D01*
X165574505Y-64636296D01*
X165550001Y-64637500D01*
X164649999Y-64637500D01*
X164625495Y-64636296D01*
X164601227Y-64632696D01*
X164577428Y-64626735D01*
X164554329Y-64618470D01*
X164532150Y-64607980D01*
X164511107Y-64595368D01*
X164491401Y-64580753D01*
X164473223Y-64564277D01*
X164456747Y-64546099D01*
X164442132Y-64526393D01*
X164429520Y-64505350D01*
X164419030Y-64483171D01*
X164410765Y-64460072D01*
X164404804Y-64436273D01*
X164401204Y-64412005D01*
X164400000Y-64387501D01*
X164400000Y-63737499D01*
X164401204Y-63712995D01*
X164404804Y-63688727D01*
X164410765Y-63664928D01*
X164419030Y-63641829D01*
X164429520Y-63619650D01*
X164442132Y-63598607D01*
X164456747Y-63578901D01*
X164473223Y-63560723D01*
X164491401Y-63544247D01*
X164511107Y-63529632D01*
X164532150Y-63517020D01*
X164554329Y-63506530D01*
X164577428Y-63498265D01*
X164601227Y-63492304D01*
X164625495Y-63488704D01*
X164649999Y-63487500D01*
X165550001Y-63487500D01*
X165574505Y-63488704D01*
X165574505Y-63488704D01*
G37*
D17*
X165100000Y-64062500D03*
D11*
G36*
X165574505Y-65538704D02*
G01*
X165598773Y-65542304D01*
X165622572Y-65548265D01*
X165645671Y-65556530D01*
X165667850Y-65567020D01*
X165688893Y-65579632D01*
X165708599Y-65594247D01*
X165726777Y-65610723D01*
X165743253Y-65628901D01*
X165757868Y-65648607D01*
X165770480Y-65669650D01*
X165780970Y-65691829D01*
X165789235Y-65714928D01*
X165795196Y-65738727D01*
X165798796Y-65762995D01*
X165800000Y-65787499D01*
X165800000Y-66437501D01*
X165798796Y-66462005D01*
X165795196Y-66486273D01*
X165789235Y-66510072D01*
X165780970Y-66533171D01*
X165770480Y-66555350D01*
X165757868Y-66576393D01*
X165743253Y-66596099D01*
X165726777Y-66614277D01*
X165708599Y-66630753D01*
X165688893Y-66645368D01*
X165667850Y-66657980D01*
X165645671Y-66668470D01*
X165622572Y-66676735D01*
X165598773Y-66682696D01*
X165574505Y-66686296D01*
X165550001Y-66687500D01*
X164649999Y-66687500D01*
X164625495Y-66686296D01*
X164601227Y-66682696D01*
X164577428Y-66676735D01*
X164554329Y-66668470D01*
X164532150Y-66657980D01*
X164511107Y-66645368D01*
X164491401Y-66630753D01*
X164473223Y-66614277D01*
X164456747Y-66596099D01*
X164442132Y-66576393D01*
X164429520Y-66555350D01*
X164419030Y-66533171D01*
X164410765Y-66510072D01*
X164404804Y-66486273D01*
X164401204Y-66462005D01*
X164400000Y-66437501D01*
X164400000Y-65787499D01*
X164401204Y-65762995D01*
X164404804Y-65738727D01*
X164410765Y-65714928D01*
X164419030Y-65691829D01*
X164429520Y-65669650D01*
X164442132Y-65648607D01*
X164456747Y-65628901D01*
X164473223Y-65610723D01*
X164491401Y-65594247D01*
X164511107Y-65579632D01*
X164532150Y-65567020D01*
X164554329Y-65556530D01*
X164577428Y-65548265D01*
X164601227Y-65542304D01*
X164625495Y-65538704D01*
X164649999Y-65537500D01*
X165550001Y-65537500D01*
X165574505Y-65538704D01*
X165574505Y-65538704D01*
G37*
D17*
X165100000Y-66112500D03*
D11*
G36*
X155756858Y-78647162D02*
G01*
X155781126Y-78650762D01*
X155804925Y-78656723D01*
X155828024Y-78664988D01*
X155850203Y-78675478D01*
X155871246Y-78688090D01*
X155890952Y-78702705D01*
X155909130Y-78719181D01*
X156368751Y-79178802D01*
X156385227Y-79196980D01*
X156399842Y-79216686D01*
X156412454Y-79237729D01*
X156422944Y-79259908D01*
X156431209Y-79283007D01*
X156437170Y-79306806D01*
X156440770Y-79331074D01*
X156441974Y-79355578D01*
X156440770Y-79380082D01*
X156437170Y-79404350D01*
X156431209Y-79428149D01*
X156422944Y-79451248D01*
X156412454Y-79473427D01*
X156399842Y-79494470D01*
X156385227Y-79514176D01*
X156368751Y-79532354D01*
X155732354Y-80168751D01*
X155714176Y-80185227D01*
X155694470Y-80199842D01*
X155673427Y-80212454D01*
X155651248Y-80222944D01*
X155628149Y-80231209D01*
X155604350Y-80237170D01*
X155580082Y-80240770D01*
X155555578Y-80241974D01*
X155531074Y-80240770D01*
X155506806Y-80237170D01*
X155483007Y-80231209D01*
X155459908Y-80222944D01*
X155437729Y-80212454D01*
X155416686Y-80199842D01*
X155396980Y-80185227D01*
X155378802Y-80168751D01*
X154919181Y-79709130D01*
X154902705Y-79690952D01*
X154888090Y-79671246D01*
X154875478Y-79650203D01*
X154864988Y-79628024D01*
X154856723Y-79604925D01*
X154850762Y-79581126D01*
X154847162Y-79556858D01*
X154845958Y-79532354D01*
X154847162Y-79507850D01*
X154850762Y-79483582D01*
X154856723Y-79459783D01*
X154864988Y-79436684D01*
X154875478Y-79414505D01*
X154888090Y-79393462D01*
X154902705Y-79373756D01*
X154919181Y-79355578D01*
X155555578Y-78719181D01*
X155573756Y-78702705D01*
X155593462Y-78688090D01*
X155614505Y-78675478D01*
X155636684Y-78664988D01*
X155659783Y-78656723D01*
X155683582Y-78650762D01*
X155707850Y-78647162D01*
X155732354Y-78645958D01*
X155756858Y-78647162D01*
X155756858Y-78647162D01*
G37*
D17*
X155643966Y-79443966D03*
D11*
G36*
X157206426Y-80096730D02*
G01*
X157230694Y-80100330D01*
X157254493Y-80106291D01*
X157277592Y-80114556D01*
X157299771Y-80125046D01*
X157320814Y-80137658D01*
X157340520Y-80152273D01*
X157358698Y-80168749D01*
X157818319Y-80628370D01*
X157834795Y-80646548D01*
X157849410Y-80666254D01*
X157862022Y-80687297D01*
X157872512Y-80709476D01*
X157880777Y-80732575D01*
X157886738Y-80756374D01*
X157890338Y-80780642D01*
X157891542Y-80805146D01*
X157890338Y-80829650D01*
X157886738Y-80853918D01*
X157880777Y-80877717D01*
X157872512Y-80900816D01*
X157862022Y-80922995D01*
X157849410Y-80944038D01*
X157834795Y-80963744D01*
X157818319Y-80981922D01*
X157181922Y-81618319D01*
X157163744Y-81634795D01*
X157144038Y-81649410D01*
X157122995Y-81662022D01*
X157100816Y-81672512D01*
X157077717Y-81680777D01*
X157053918Y-81686738D01*
X157029650Y-81690338D01*
X157005146Y-81691542D01*
X156980642Y-81690338D01*
X156956374Y-81686738D01*
X156932575Y-81680777D01*
X156909476Y-81672512D01*
X156887297Y-81662022D01*
X156866254Y-81649410D01*
X156846548Y-81634795D01*
X156828370Y-81618319D01*
X156368749Y-81158698D01*
X156352273Y-81140520D01*
X156337658Y-81120814D01*
X156325046Y-81099771D01*
X156314556Y-81077592D01*
X156306291Y-81054493D01*
X156300330Y-81030694D01*
X156296730Y-81006426D01*
X156295526Y-80981922D01*
X156296730Y-80957418D01*
X156300330Y-80933150D01*
X156306291Y-80909351D01*
X156314556Y-80886252D01*
X156325046Y-80864073D01*
X156337658Y-80843030D01*
X156352273Y-80823324D01*
X156368749Y-80805146D01*
X157005146Y-80168749D01*
X157023324Y-80152273D01*
X157043030Y-80137658D01*
X157064073Y-80125046D01*
X157086252Y-80114556D01*
X157109351Y-80106291D01*
X157133150Y-80100330D01*
X157157418Y-80096730D01*
X157181922Y-80095526D01*
X157206426Y-80096730D01*
X157206426Y-80096730D01*
G37*
D17*
X157093534Y-80893534D03*
D11*
G36*
X168935900Y-84203412D02*
G01*
X168960168Y-84207012D01*
X168983967Y-84212973D01*
X169007066Y-84221238D01*
X169029245Y-84231728D01*
X169050288Y-84244340D01*
X169069994Y-84258955D01*
X169088172Y-84275431D01*
X169724569Y-84911828D01*
X169741045Y-84930006D01*
X169755660Y-84949712D01*
X169768272Y-84970755D01*
X169778762Y-84992934D01*
X169787027Y-85016033D01*
X169792988Y-85039832D01*
X169796588Y-85064100D01*
X169797792Y-85088604D01*
X169796588Y-85113108D01*
X169792988Y-85137376D01*
X169787027Y-85161175D01*
X169778762Y-85184274D01*
X169768272Y-85206453D01*
X169755660Y-85227496D01*
X169741045Y-85247202D01*
X169724569Y-85265380D01*
X169264948Y-85725001D01*
X169246770Y-85741477D01*
X169227064Y-85756092D01*
X169206021Y-85768704D01*
X169183842Y-85779194D01*
X169160743Y-85787459D01*
X169136944Y-85793420D01*
X169112676Y-85797020D01*
X169088172Y-85798224D01*
X169063668Y-85797020D01*
X169039400Y-85793420D01*
X169015601Y-85787459D01*
X168992502Y-85779194D01*
X168970323Y-85768704D01*
X168949280Y-85756092D01*
X168929574Y-85741477D01*
X168911396Y-85725001D01*
X168274999Y-85088604D01*
X168258523Y-85070426D01*
X168243908Y-85050720D01*
X168231296Y-85029677D01*
X168220806Y-85007498D01*
X168212541Y-84984399D01*
X168206580Y-84960600D01*
X168202980Y-84936332D01*
X168201776Y-84911828D01*
X168202980Y-84887324D01*
X168206580Y-84863056D01*
X168212541Y-84839257D01*
X168220806Y-84816158D01*
X168231296Y-84793979D01*
X168243908Y-84772936D01*
X168258523Y-84753230D01*
X168274999Y-84735052D01*
X168734620Y-84275431D01*
X168752798Y-84258955D01*
X168772504Y-84244340D01*
X168793547Y-84231728D01*
X168815726Y-84221238D01*
X168838825Y-84212973D01*
X168862624Y-84207012D01*
X168886892Y-84203412D01*
X168911396Y-84202208D01*
X168935900Y-84203412D01*
X168935900Y-84203412D01*
G37*
D17*
X168999784Y-85000216D03*
D11*
G36*
X167486332Y-85652980D02*
G01*
X167510600Y-85656580D01*
X167534399Y-85662541D01*
X167557498Y-85670806D01*
X167579677Y-85681296D01*
X167600720Y-85693908D01*
X167620426Y-85708523D01*
X167638604Y-85724999D01*
X168275001Y-86361396D01*
X168291477Y-86379574D01*
X168306092Y-86399280D01*
X168318704Y-86420323D01*
X168329194Y-86442502D01*
X168337459Y-86465601D01*
X168343420Y-86489400D01*
X168347020Y-86513668D01*
X168348224Y-86538172D01*
X168347020Y-86562676D01*
X168343420Y-86586944D01*
X168337459Y-86610743D01*
X168329194Y-86633842D01*
X168318704Y-86656021D01*
X168306092Y-86677064D01*
X168291477Y-86696770D01*
X168275001Y-86714948D01*
X167815380Y-87174569D01*
X167797202Y-87191045D01*
X167777496Y-87205660D01*
X167756453Y-87218272D01*
X167734274Y-87228762D01*
X167711175Y-87237027D01*
X167687376Y-87242988D01*
X167663108Y-87246588D01*
X167638604Y-87247792D01*
X167614100Y-87246588D01*
X167589832Y-87242988D01*
X167566033Y-87237027D01*
X167542934Y-87228762D01*
X167520755Y-87218272D01*
X167499712Y-87205660D01*
X167480006Y-87191045D01*
X167461828Y-87174569D01*
X166825431Y-86538172D01*
X166808955Y-86519994D01*
X166794340Y-86500288D01*
X166781728Y-86479245D01*
X166771238Y-86457066D01*
X166762973Y-86433967D01*
X166757012Y-86410168D01*
X166753412Y-86385900D01*
X166752208Y-86361396D01*
X166753412Y-86336892D01*
X166757012Y-86312624D01*
X166762973Y-86288825D01*
X166771238Y-86265726D01*
X166781728Y-86243547D01*
X166794340Y-86222504D01*
X166808955Y-86202798D01*
X166825431Y-86184620D01*
X167285052Y-85724999D01*
X167303230Y-85708523D01*
X167322936Y-85693908D01*
X167343979Y-85681296D01*
X167366158Y-85670806D01*
X167389257Y-85662541D01*
X167413056Y-85656580D01*
X167437324Y-85652980D01*
X167461828Y-85651776D01*
X167486332Y-85652980D01*
X167486332Y-85652980D01*
G37*
D17*
X167550216Y-86449784D03*
D11*
G36*
X173568608Y-73154412D02*
G01*
X173592876Y-73158012D01*
X173616675Y-73163973D01*
X173639774Y-73172238D01*
X173661953Y-73182728D01*
X173682996Y-73195340D01*
X173702702Y-73209955D01*
X173720880Y-73226431D01*
X174180501Y-73686052D01*
X174196977Y-73704230D01*
X174211592Y-73723936D01*
X174224204Y-73744979D01*
X174234694Y-73767158D01*
X174242959Y-73790257D01*
X174248920Y-73814056D01*
X174252520Y-73838324D01*
X174253724Y-73862828D01*
X174252520Y-73887332D01*
X174248920Y-73911600D01*
X174242959Y-73935399D01*
X174234694Y-73958498D01*
X174224204Y-73980677D01*
X174211592Y-74001720D01*
X174196977Y-74021426D01*
X174180501Y-74039604D01*
X173544104Y-74676001D01*
X173525926Y-74692477D01*
X173506220Y-74707092D01*
X173485177Y-74719704D01*
X173462998Y-74730194D01*
X173439899Y-74738459D01*
X173416100Y-74744420D01*
X173391832Y-74748020D01*
X173367328Y-74749224D01*
X173342824Y-74748020D01*
X173318556Y-74744420D01*
X173294757Y-74738459D01*
X173271658Y-74730194D01*
X173249479Y-74719704D01*
X173228436Y-74707092D01*
X173208730Y-74692477D01*
X173190552Y-74676001D01*
X172730931Y-74216380D01*
X172714455Y-74198202D01*
X172699840Y-74178496D01*
X172687228Y-74157453D01*
X172676738Y-74135274D01*
X172668473Y-74112175D01*
X172662512Y-74088376D01*
X172658912Y-74064108D01*
X172657708Y-74039604D01*
X172658912Y-74015100D01*
X172662512Y-73990832D01*
X172668473Y-73967033D01*
X172676738Y-73943934D01*
X172687228Y-73921755D01*
X172699840Y-73900712D01*
X172714455Y-73881006D01*
X172730931Y-73862828D01*
X173367328Y-73226431D01*
X173385506Y-73209955D01*
X173405212Y-73195340D01*
X173426255Y-73182728D01*
X173448434Y-73172238D01*
X173471533Y-73163973D01*
X173495332Y-73158012D01*
X173519600Y-73154412D01*
X173544104Y-73153208D01*
X173568608Y-73154412D01*
X173568608Y-73154412D01*
G37*
D17*
X173455716Y-73951216D03*
D11*
G36*
X175018176Y-74603980D02*
G01*
X175042444Y-74607580D01*
X175066243Y-74613541D01*
X175089342Y-74621806D01*
X175111521Y-74632296D01*
X175132564Y-74644908D01*
X175152270Y-74659523D01*
X175170448Y-74675999D01*
X175630069Y-75135620D01*
X175646545Y-75153798D01*
X175661160Y-75173504D01*
X175673772Y-75194547D01*
X175684262Y-75216726D01*
X175692527Y-75239825D01*
X175698488Y-75263624D01*
X175702088Y-75287892D01*
X175703292Y-75312396D01*
X175702088Y-75336900D01*
X175698488Y-75361168D01*
X175692527Y-75384967D01*
X175684262Y-75408066D01*
X175673772Y-75430245D01*
X175661160Y-75451288D01*
X175646545Y-75470994D01*
X175630069Y-75489172D01*
X174993672Y-76125569D01*
X174975494Y-76142045D01*
X174955788Y-76156660D01*
X174934745Y-76169272D01*
X174912566Y-76179762D01*
X174889467Y-76188027D01*
X174865668Y-76193988D01*
X174841400Y-76197588D01*
X174816896Y-76198792D01*
X174792392Y-76197588D01*
X174768124Y-76193988D01*
X174744325Y-76188027D01*
X174721226Y-76179762D01*
X174699047Y-76169272D01*
X174678004Y-76156660D01*
X174658298Y-76142045D01*
X174640120Y-76125569D01*
X174180499Y-75665948D01*
X174164023Y-75647770D01*
X174149408Y-75628064D01*
X174136796Y-75607021D01*
X174126306Y-75584842D01*
X174118041Y-75561743D01*
X174112080Y-75537944D01*
X174108480Y-75513676D01*
X174107276Y-75489172D01*
X174108480Y-75464668D01*
X174112080Y-75440400D01*
X174118041Y-75416601D01*
X174126306Y-75393502D01*
X174136796Y-75371323D01*
X174149408Y-75350280D01*
X174164023Y-75330574D01*
X174180499Y-75312396D01*
X174816896Y-74675999D01*
X174835074Y-74659523D01*
X174854780Y-74644908D01*
X174875823Y-74632296D01*
X174898002Y-74621806D01*
X174921101Y-74613541D01*
X174944900Y-74607580D01*
X174969168Y-74603980D01*
X174993672Y-74602776D01*
X175018176Y-74603980D01*
X175018176Y-74603980D01*
G37*
D17*
X174905284Y-75400784D03*
D11*
G36*
X141292582Y-80096730D02*
G01*
X141316850Y-80100330D01*
X141340649Y-80106291D01*
X141363748Y-80114556D01*
X141385927Y-80125046D01*
X141406970Y-80137658D01*
X141426676Y-80152273D01*
X141444854Y-80168749D01*
X142081251Y-80805146D01*
X142097727Y-80823324D01*
X142112342Y-80843030D01*
X142124954Y-80864073D01*
X142135444Y-80886252D01*
X142143709Y-80909351D01*
X142149670Y-80933150D01*
X142153270Y-80957418D01*
X142154474Y-80981922D01*
X142153270Y-81006426D01*
X142149670Y-81030694D01*
X142143709Y-81054493D01*
X142135444Y-81077592D01*
X142124954Y-81099771D01*
X142112342Y-81120814D01*
X142097727Y-81140520D01*
X142081251Y-81158698D01*
X141621630Y-81618319D01*
X141603452Y-81634795D01*
X141583746Y-81649410D01*
X141562703Y-81662022D01*
X141540524Y-81672512D01*
X141517425Y-81680777D01*
X141493626Y-81686738D01*
X141469358Y-81690338D01*
X141444854Y-81691542D01*
X141420350Y-81690338D01*
X141396082Y-81686738D01*
X141372283Y-81680777D01*
X141349184Y-81672512D01*
X141327005Y-81662022D01*
X141305962Y-81649410D01*
X141286256Y-81634795D01*
X141268078Y-81618319D01*
X140631681Y-80981922D01*
X140615205Y-80963744D01*
X140600590Y-80944038D01*
X140587978Y-80922995D01*
X140577488Y-80900816D01*
X140569223Y-80877717D01*
X140563262Y-80853918D01*
X140559662Y-80829650D01*
X140558458Y-80805146D01*
X140559662Y-80780642D01*
X140563262Y-80756374D01*
X140569223Y-80732575D01*
X140577488Y-80709476D01*
X140587978Y-80687297D01*
X140600590Y-80666254D01*
X140615205Y-80646548D01*
X140631681Y-80628370D01*
X141091302Y-80168749D01*
X141109480Y-80152273D01*
X141129186Y-80137658D01*
X141150229Y-80125046D01*
X141172408Y-80114556D01*
X141195507Y-80106291D01*
X141219306Y-80100330D01*
X141243574Y-80096730D01*
X141268078Y-80095526D01*
X141292582Y-80096730D01*
X141292582Y-80096730D01*
G37*
D17*
X141356466Y-80893534D03*
D11*
G36*
X142742150Y-78647162D02*
G01*
X142766418Y-78650762D01*
X142790217Y-78656723D01*
X142813316Y-78664988D01*
X142835495Y-78675478D01*
X142856538Y-78688090D01*
X142876244Y-78702705D01*
X142894422Y-78719181D01*
X143530819Y-79355578D01*
X143547295Y-79373756D01*
X143561910Y-79393462D01*
X143574522Y-79414505D01*
X143585012Y-79436684D01*
X143593277Y-79459783D01*
X143599238Y-79483582D01*
X143602838Y-79507850D01*
X143604042Y-79532354D01*
X143602838Y-79556858D01*
X143599238Y-79581126D01*
X143593277Y-79604925D01*
X143585012Y-79628024D01*
X143574522Y-79650203D01*
X143561910Y-79671246D01*
X143547295Y-79690952D01*
X143530819Y-79709130D01*
X143071198Y-80168751D01*
X143053020Y-80185227D01*
X143033314Y-80199842D01*
X143012271Y-80212454D01*
X142990092Y-80222944D01*
X142966993Y-80231209D01*
X142943194Y-80237170D01*
X142918926Y-80240770D01*
X142894422Y-80241974D01*
X142869918Y-80240770D01*
X142845650Y-80237170D01*
X142821851Y-80231209D01*
X142798752Y-80222944D01*
X142776573Y-80212454D01*
X142755530Y-80199842D01*
X142735824Y-80185227D01*
X142717646Y-80168751D01*
X142081249Y-79532354D01*
X142064773Y-79514176D01*
X142050158Y-79494470D01*
X142037546Y-79473427D01*
X142027056Y-79451248D01*
X142018791Y-79428149D01*
X142012830Y-79404350D01*
X142009230Y-79380082D01*
X142008026Y-79355578D01*
X142009230Y-79331074D01*
X142012830Y-79306806D01*
X142018791Y-79283007D01*
X142027056Y-79259908D01*
X142037546Y-79237729D01*
X142050158Y-79216686D01*
X142064773Y-79196980D01*
X142081249Y-79178802D01*
X142540870Y-78719181D01*
X142559048Y-78702705D01*
X142578754Y-78688090D01*
X142599797Y-78675478D01*
X142621976Y-78664988D01*
X142645075Y-78656723D01*
X142668874Y-78650762D01*
X142693142Y-78647162D01*
X142717646Y-78645958D01*
X142742150Y-78647162D01*
X142742150Y-78647162D01*
G37*
D17*
X142806034Y-79443966D03*
D11*
G36*
X133824505Y-63719954D02*
G01*
X133848773Y-63723554D01*
X133872572Y-63729515D01*
X133895671Y-63737780D01*
X133917850Y-63748270D01*
X133938893Y-63760882D01*
X133958599Y-63775497D01*
X133976777Y-63791973D01*
X133993253Y-63810151D01*
X134007868Y-63829857D01*
X134020480Y-63850900D01*
X134030970Y-63873079D01*
X134039235Y-63896178D01*
X134045196Y-63919977D01*
X134048796Y-63944245D01*
X134050000Y-63968749D01*
X134050000Y-64618751D01*
X134048796Y-64643255D01*
X134045196Y-64667523D01*
X134039235Y-64691322D01*
X134030970Y-64714421D01*
X134020480Y-64736600D01*
X134007868Y-64757643D01*
X133993253Y-64777349D01*
X133976777Y-64795527D01*
X133958599Y-64812003D01*
X133938893Y-64826618D01*
X133917850Y-64839230D01*
X133895671Y-64849720D01*
X133872572Y-64857985D01*
X133848773Y-64863946D01*
X133824505Y-64867546D01*
X133800001Y-64868750D01*
X132899999Y-64868750D01*
X132875495Y-64867546D01*
X132851227Y-64863946D01*
X132827428Y-64857985D01*
X132804329Y-64849720D01*
X132782150Y-64839230D01*
X132761107Y-64826618D01*
X132741401Y-64812003D01*
X132723223Y-64795527D01*
X132706747Y-64777349D01*
X132692132Y-64757643D01*
X132679520Y-64736600D01*
X132669030Y-64714421D01*
X132660765Y-64691322D01*
X132654804Y-64667523D01*
X132651204Y-64643255D01*
X132650000Y-64618751D01*
X132650000Y-63968749D01*
X132651204Y-63944245D01*
X132654804Y-63919977D01*
X132660765Y-63896178D01*
X132669030Y-63873079D01*
X132679520Y-63850900D01*
X132692132Y-63829857D01*
X132706747Y-63810151D01*
X132723223Y-63791973D01*
X132741401Y-63775497D01*
X132761107Y-63760882D01*
X132782150Y-63748270D01*
X132804329Y-63737780D01*
X132827428Y-63729515D01*
X132851227Y-63723554D01*
X132875495Y-63719954D01*
X132899999Y-63718750D01*
X133800001Y-63718750D01*
X133824505Y-63719954D01*
X133824505Y-63719954D01*
G37*
D17*
X133350000Y-64293750D03*
D11*
G36*
X133824505Y-65769954D02*
G01*
X133848773Y-65773554D01*
X133872572Y-65779515D01*
X133895671Y-65787780D01*
X133917850Y-65798270D01*
X133938893Y-65810882D01*
X133958599Y-65825497D01*
X133976777Y-65841973D01*
X133993253Y-65860151D01*
X134007868Y-65879857D01*
X134020480Y-65900900D01*
X134030970Y-65923079D01*
X134039235Y-65946178D01*
X134045196Y-65969977D01*
X134048796Y-65994245D01*
X134050000Y-66018749D01*
X134050000Y-66668751D01*
X134048796Y-66693255D01*
X134045196Y-66717523D01*
X134039235Y-66741322D01*
X134030970Y-66764421D01*
X134020480Y-66786600D01*
X134007868Y-66807643D01*
X133993253Y-66827349D01*
X133976777Y-66845527D01*
X133958599Y-66862003D01*
X133938893Y-66876618D01*
X133917850Y-66889230D01*
X133895671Y-66899720D01*
X133872572Y-66907985D01*
X133848773Y-66913946D01*
X133824505Y-66917546D01*
X133800001Y-66918750D01*
X132899999Y-66918750D01*
X132875495Y-66917546D01*
X132851227Y-66913946D01*
X132827428Y-66907985D01*
X132804329Y-66899720D01*
X132782150Y-66889230D01*
X132761107Y-66876618D01*
X132741401Y-66862003D01*
X132723223Y-66845527D01*
X132706747Y-66827349D01*
X132692132Y-66807643D01*
X132679520Y-66786600D01*
X132669030Y-66764421D01*
X132660765Y-66741322D01*
X132654804Y-66717523D01*
X132651204Y-66693255D01*
X132650000Y-66668751D01*
X132650000Y-66018749D01*
X132651204Y-65994245D01*
X132654804Y-65969977D01*
X132660765Y-65946178D01*
X132669030Y-65923079D01*
X132679520Y-65900900D01*
X132692132Y-65879857D01*
X132706747Y-65860151D01*
X132723223Y-65841973D01*
X132741401Y-65825497D01*
X132761107Y-65810882D01*
X132782150Y-65798270D01*
X132804329Y-65787780D01*
X132827428Y-65779515D01*
X132851227Y-65773554D01*
X132875495Y-65769954D01*
X132899999Y-65768750D01*
X133800001Y-65768750D01*
X133824505Y-65769954D01*
X133824505Y-65769954D01*
G37*
D17*
X133350000Y-66343750D03*
D11*
G36*
X124006858Y-78647162D02*
G01*
X124031126Y-78650762D01*
X124054925Y-78656723D01*
X124078024Y-78664988D01*
X124100203Y-78675478D01*
X124121246Y-78688090D01*
X124140952Y-78702705D01*
X124159130Y-78719181D01*
X124618751Y-79178802D01*
X124635227Y-79196980D01*
X124649842Y-79216686D01*
X124662454Y-79237729D01*
X124672944Y-79259908D01*
X124681209Y-79283007D01*
X124687170Y-79306806D01*
X124690770Y-79331074D01*
X124691974Y-79355578D01*
X124690770Y-79380082D01*
X124687170Y-79404350D01*
X124681209Y-79428149D01*
X124672944Y-79451248D01*
X124662454Y-79473427D01*
X124649842Y-79494470D01*
X124635227Y-79514176D01*
X124618751Y-79532354D01*
X123982354Y-80168751D01*
X123964176Y-80185227D01*
X123944470Y-80199842D01*
X123923427Y-80212454D01*
X123901248Y-80222944D01*
X123878149Y-80231209D01*
X123854350Y-80237170D01*
X123830082Y-80240770D01*
X123805578Y-80241974D01*
X123781074Y-80240770D01*
X123756806Y-80237170D01*
X123733007Y-80231209D01*
X123709908Y-80222944D01*
X123687729Y-80212454D01*
X123666686Y-80199842D01*
X123646980Y-80185227D01*
X123628802Y-80168751D01*
X123169181Y-79709130D01*
X123152705Y-79690952D01*
X123138090Y-79671246D01*
X123125478Y-79650203D01*
X123114988Y-79628024D01*
X123106723Y-79604925D01*
X123100762Y-79581126D01*
X123097162Y-79556858D01*
X123095958Y-79532354D01*
X123097162Y-79507850D01*
X123100762Y-79483582D01*
X123106723Y-79459783D01*
X123114988Y-79436684D01*
X123125478Y-79414505D01*
X123138090Y-79393462D01*
X123152705Y-79373756D01*
X123169181Y-79355578D01*
X123805578Y-78719181D01*
X123823756Y-78702705D01*
X123843462Y-78688090D01*
X123864505Y-78675478D01*
X123886684Y-78664988D01*
X123909783Y-78656723D01*
X123933582Y-78650762D01*
X123957850Y-78647162D01*
X123982354Y-78645958D01*
X124006858Y-78647162D01*
X124006858Y-78647162D01*
G37*
D17*
X123893966Y-79443966D03*
D11*
G36*
X125456426Y-80096730D02*
G01*
X125480694Y-80100330D01*
X125504493Y-80106291D01*
X125527592Y-80114556D01*
X125549771Y-80125046D01*
X125570814Y-80137658D01*
X125590520Y-80152273D01*
X125608698Y-80168749D01*
X126068319Y-80628370D01*
X126084795Y-80646548D01*
X126099410Y-80666254D01*
X126112022Y-80687297D01*
X126122512Y-80709476D01*
X126130777Y-80732575D01*
X126136738Y-80756374D01*
X126140338Y-80780642D01*
X126141542Y-80805146D01*
X126140338Y-80829650D01*
X126136738Y-80853918D01*
X126130777Y-80877717D01*
X126122512Y-80900816D01*
X126112022Y-80922995D01*
X126099410Y-80944038D01*
X126084795Y-80963744D01*
X126068319Y-80981922D01*
X125431922Y-81618319D01*
X125413744Y-81634795D01*
X125394038Y-81649410D01*
X125372995Y-81662022D01*
X125350816Y-81672512D01*
X125327717Y-81680777D01*
X125303918Y-81686738D01*
X125279650Y-81690338D01*
X125255146Y-81691542D01*
X125230642Y-81690338D01*
X125206374Y-81686738D01*
X125182575Y-81680777D01*
X125159476Y-81672512D01*
X125137297Y-81662022D01*
X125116254Y-81649410D01*
X125096548Y-81634795D01*
X125078370Y-81618319D01*
X124618749Y-81158698D01*
X124602273Y-81140520D01*
X124587658Y-81120814D01*
X124575046Y-81099771D01*
X124564556Y-81077592D01*
X124556291Y-81054493D01*
X124550330Y-81030694D01*
X124546730Y-81006426D01*
X124545526Y-80981922D01*
X124546730Y-80957418D01*
X124550330Y-80933150D01*
X124556291Y-80909351D01*
X124564556Y-80886252D01*
X124575046Y-80864073D01*
X124587658Y-80843030D01*
X124602273Y-80823324D01*
X124618749Y-80805146D01*
X125255146Y-80168749D01*
X125273324Y-80152273D01*
X125293030Y-80137658D01*
X125314073Y-80125046D01*
X125336252Y-80114556D01*
X125359351Y-80106291D01*
X125383150Y-80100330D01*
X125407418Y-80096730D01*
X125431922Y-80095526D01*
X125456426Y-80096730D01*
X125456426Y-80096730D01*
G37*
D17*
X125343534Y-80893534D03*
D11*
G36*
X137116934Y-84203412D02*
G01*
X137141202Y-84207012D01*
X137165001Y-84212973D01*
X137188100Y-84221238D01*
X137210279Y-84231728D01*
X137231322Y-84244340D01*
X137251028Y-84258955D01*
X137269206Y-84275431D01*
X137905603Y-84911828D01*
X137922079Y-84930006D01*
X137936694Y-84949712D01*
X137949306Y-84970755D01*
X137959796Y-84992934D01*
X137968061Y-85016033D01*
X137974022Y-85039832D01*
X137977622Y-85064100D01*
X137978826Y-85088604D01*
X137977622Y-85113108D01*
X137974022Y-85137376D01*
X137968061Y-85161175D01*
X137959796Y-85184274D01*
X137949306Y-85206453D01*
X137936694Y-85227496D01*
X137922079Y-85247202D01*
X137905603Y-85265380D01*
X137445982Y-85725001D01*
X137427804Y-85741477D01*
X137408098Y-85756092D01*
X137387055Y-85768704D01*
X137364876Y-85779194D01*
X137341777Y-85787459D01*
X137317978Y-85793420D01*
X137293710Y-85797020D01*
X137269206Y-85798224D01*
X137244702Y-85797020D01*
X137220434Y-85793420D01*
X137196635Y-85787459D01*
X137173536Y-85779194D01*
X137151357Y-85768704D01*
X137130314Y-85756092D01*
X137110608Y-85741477D01*
X137092430Y-85725001D01*
X136456033Y-85088604D01*
X136439557Y-85070426D01*
X136424942Y-85050720D01*
X136412330Y-85029677D01*
X136401840Y-85007498D01*
X136393575Y-84984399D01*
X136387614Y-84960600D01*
X136384014Y-84936332D01*
X136382810Y-84911828D01*
X136384014Y-84887324D01*
X136387614Y-84863056D01*
X136393575Y-84839257D01*
X136401840Y-84816158D01*
X136412330Y-84793979D01*
X136424942Y-84772936D01*
X136439557Y-84753230D01*
X136456033Y-84735052D01*
X136915654Y-84275431D01*
X136933832Y-84258955D01*
X136953538Y-84244340D01*
X136974581Y-84231728D01*
X136996760Y-84221238D01*
X137019859Y-84212973D01*
X137043658Y-84207012D01*
X137067926Y-84203412D01*
X137092430Y-84202208D01*
X137116934Y-84203412D01*
X137116934Y-84203412D01*
G37*
D17*
X137180818Y-85000216D03*
D11*
G36*
X135667366Y-85652980D02*
G01*
X135691634Y-85656580D01*
X135715433Y-85662541D01*
X135738532Y-85670806D01*
X135760711Y-85681296D01*
X135781754Y-85693908D01*
X135801460Y-85708523D01*
X135819638Y-85724999D01*
X136456035Y-86361396D01*
X136472511Y-86379574D01*
X136487126Y-86399280D01*
X136499738Y-86420323D01*
X136510228Y-86442502D01*
X136518493Y-86465601D01*
X136524454Y-86489400D01*
X136528054Y-86513668D01*
X136529258Y-86538172D01*
X136528054Y-86562676D01*
X136524454Y-86586944D01*
X136518493Y-86610743D01*
X136510228Y-86633842D01*
X136499738Y-86656021D01*
X136487126Y-86677064D01*
X136472511Y-86696770D01*
X136456035Y-86714948D01*
X135996414Y-87174569D01*
X135978236Y-87191045D01*
X135958530Y-87205660D01*
X135937487Y-87218272D01*
X135915308Y-87228762D01*
X135892209Y-87237027D01*
X135868410Y-87242988D01*
X135844142Y-87246588D01*
X135819638Y-87247792D01*
X135795134Y-87246588D01*
X135770866Y-87242988D01*
X135747067Y-87237027D01*
X135723968Y-87228762D01*
X135701789Y-87218272D01*
X135680746Y-87205660D01*
X135661040Y-87191045D01*
X135642862Y-87174569D01*
X135006465Y-86538172D01*
X134989989Y-86519994D01*
X134975374Y-86500288D01*
X134962762Y-86479245D01*
X134952272Y-86457066D01*
X134944007Y-86433967D01*
X134938046Y-86410168D01*
X134934446Y-86385900D01*
X134933242Y-86361396D01*
X134934446Y-86336892D01*
X134938046Y-86312624D01*
X134944007Y-86288825D01*
X134952272Y-86265726D01*
X134962762Y-86243547D01*
X134975374Y-86222504D01*
X134989989Y-86202798D01*
X135006465Y-86184620D01*
X135466086Y-85724999D01*
X135484264Y-85708523D01*
X135503970Y-85693908D01*
X135525013Y-85681296D01*
X135547192Y-85670806D01*
X135570291Y-85662541D01*
X135594090Y-85656580D01*
X135618358Y-85652980D01*
X135642862Y-85651776D01*
X135667366Y-85652980D01*
X135667366Y-85652980D01*
G37*
D17*
X135731250Y-86449784D03*
D11*
G36*
X141813142Y-72990196D02*
G01*
X141837410Y-72993796D01*
X141861209Y-72999757D01*
X141884308Y-73008022D01*
X141906487Y-73018512D01*
X141927530Y-73031124D01*
X141947236Y-73045739D01*
X141965414Y-73062215D01*
X142425035Y-73521836D01*
X142441511Y-73540014D01*
X142456126Y-73559720D01*
X142468738Y-73580763D01*
X142479228Y-73602942D01*
X142487493Y-73626041D01*
X142493454Y-73649840D01*
X142497054Y-73674108D01*
X142498258Y-73698612D01*
X142497054Y-73723116D01*
X142493454Y-73747384D01*
X142487493Y-73771183D01*
X142479228Y-73794282D01*
X142468738Y-73816461D01*
X142456126Y-73837504D01*
X142441511Y-73857210D01*
X142425035Y-73875388D01*
X141788638Y-74511785D01*
X141770460Y-74528261D01*
X141750754Y-74542876D01*
X141729711Y-74555488D01*
X141707532Y-74565978D01*
X141684433Y-74574243D01*
X141660634Y-74580204D01*
X141636366Y-74583804D01*
X141611862Y-74585008D01*
X141587358Y-74583804D01*
X141563090Y-74580204D01*
X141539291Y-74574243D01*
X141516192Y-74565978D01*
X141494013Y-74555488D01*
X141472970Y-74542876D01*
X141453264Y-74528261D01*
X141435086Y-74511785D01*
X140975465Y-74052164D01*
X140958989Y-74033986D01*
X140944374Y-74014280D01*
X140931762Y-73993237D01*
X140921272Y-73971058D01*
X140913007Y-73947959D01*
X140907046Y-73924160D01*
X140903446Y-73899892D01*
X140902242Y-73875388D01*
X140903446Y-73850884D01*
X140907046Y-73826616D01*
X140913007Y-73802817D01*
X140921272Y-73779718D01*
X140931762Y-73757539D01*
X140944374Y-73736496D01*
X140958989Y-73716790D01*
X140975465Y-73698612D01*
X141611862Y-73062215D01*
X141630040Y-73045739D01*
X141649746Y-73031124D01*
X141670789Y-73018512D01*
X141692968Y-73008022D01*
X141716067Y-72999757D01*
X141739866Y-72993796D01*
X141764134Y-72990196D01*
X141788638Y-72988992D01*
X141813142Y-72990196D01*
X141813142Y-72990196D01*
G37*
D17*
X141700250Y-73787000D03*
D11*
G36*
X143262710Y-74439764D02*
G01*
X143286978Y-74443364D01*
X143310777Y-74449325D01*
X143333876Y-74457590D01*
X143356055Y-74468080D01*
X143377098Y-74480692D01*
X143396804Y-74495307D01*
X143414982Y-74511783D01*
X143874603Y-74971404D01*
X143891079Y-74989582D01*
X143905694Y-75009288D01*
X143918306Y-75030331D01*
X143928796Y-75052510D01*
X143937061Y-75075609D01*
X143943022Y-75099408D01*
X143946622Y-75123676D01*
X143947826Y-75148180D01*
X143946622Y-75172684D01*
X143943022Y-75196952D01*
X143937061Y-75220751D01*
X143928796Y-75243850D01*
X143918306Y-75266029D01*
X143905694Y-75287072D01*
X143891079Y-75306778D01*
X143874603Y-75324956D01*
X143238206Y-75961353D01*
X143220028Y-75977829D01*
X143200322Y-75992444D01*
X143179279Y-76005056D01*
X143157100Y-76015546D01*
X143134001Y-76023811D01*
X143110202Y-76029772D01*
X143085934Y-76033372D01*
X143061430Y-76034576D01*
X143036926Y-76033372D01*
X143012658Y-76029772D01*
X142988859Y-76023811D01*
X142965760Y-76015546D01*
X142943581Y-76005056D01*
X142922538Y-75992444D01*
X142902832Y-75977829D01*
X142884654Y-75961353D01*
X142425033Y-75501732D01*
X142408557Y-75483554D01*
X142393942Y-75463848D01*
X142381330Y-75442805D01*
X142370840Y-75420626D01*
X142362575Y-75397527D01*
X142356614Y-75373728D01*
X142353014Y-75349460D01*
X142351810Y-75324956D01*
X142353014Y-75300452D01*
X142356614Y-75276184D01*
X142362575Y-75252385D01*
X142370840Y-75229286D01*
X142381330Y-75207107D01*
X142393942Y-75186064D01*
X142408557Y-75166358D01*
X142425033Y-75148180D01*
X143061430Y-74511783D01*
X143079608Y-74495307D01*
X143099314Y-74480692D01*
X143120357Y-74468080D01*
X143142536Y-74457590D01*
X143165635Y-74449325D01*
X143189434Y-74443364D01*
X143213702Y-74439764D01*
X143238206Y-74438560D01*
X143262710Y-74439764D01*
X143262710Y-74439764D01*
G37*
D17*
X143149818Y-75236568D03*
D11*
G36*
X170700176Y-69777980D02*
G01*
X170724444Y-69781580D01*
X170748243Y-69787541D01*
X170771342Y-69795806D01*
X170793521Y-69806296D01*
X170814564Y-69818908D01*
X170834270Y-69833523D01*
X170852448Y-69849999D01*
X171312069Y-70309620D01*
X171328545Y-70327798D01*
X171343160Y-70347504D01*
X171355772Y-70368547D01*
X171366262Y-70390726D01*
X171374527Y-70413825D01*
X171380488Y-70437624D01*
X171384088Y-70461892D01*
X171385292Y-70486396D01*
X171384088Y-70510900D01*
X171380488Y-70535168D01*
X171374527Y-70558967D01*
X171366262Y-70582066D01*
X171355772Y-70604245D01*
X171343160Y-70625288D01*
X171328545Y-70644994D01*
X171312069Y-70663172D01*
X170675672Y-71299569D01*
X170657494Y-71316045D01*
X170637788Y-71330660D01*
X170616745Y-71343272D01*
X170594566Y-71353762D01*
X170571467Y-71362027D01*
X170547668Y-71367988D01*
X170523400Y-71371588D01*
X170498896Y-71372792D01*
X170474392Y-71371588D01*
X170450124Y-71367988D01*
X170426325Y-71362027D01*
X170403226Y-71353762D01*
X170381047Y-71343272D01*
X170360004Y-71330660D01*
X170340298Y-71316045D01*
X170322120Y-71299569D01*
X169862499Y-70839948D01*
X169846023Y-70821770D01*
X169831408Y-70802064D01*
X169818796Y-70781021D01*
X169808306Y-70758842D01*
X169800041Y-70735743D01*
X169794080Y-70711944D01*
X169790480Y-70687676D01*
X169789276Y-70663172D01*
X169790480Y-70638668D01*
X169794080Y-70614400D01*
X169800041Y-70590601D01*
X169808306Y-70567502D01*
X169818796Y-70545323D01*
X169831408Y-70524280D01*
X169846023Y-70504574D01*
X169862499Y-70486396D01*
X170498896Y-69849999D01*
X170517074Y-69833523D01*
X170536780Y-69818908D01*
X170557823Y-69806296D01*
X170580002Y-69795806D01*
X170603101Y-69787541D01*
X170626900Y-69781580D01*
X170651168Y-69777980D01*
X170675672Y-69776776D01*
X170700176Y-69777980D01*
X170700176Y-69777980D01*
G37*
D17*
X170587284Y-70574784D03*
D11*
G36*
X169250608Y-68328412D02*
G01*
X169274876Y-68332012D01*
X169298675Y-68337973D01*
X169321774Y-68346238D01*
X169343953Y-68356728D01*
X169364996Y-68369340D01*
X169384702Y-68383955D01*
X169402880Y-68400431D01*
X169862501Y-68860052D01*
X169878977Y-68878230D01*
X169893592Y-68897936D01*
X169906204Y-68918979D01*
X169916694Y-68941158D01*
X169924959Y-68964257D01*
X169930920Y-68988056D01*
X169934520Y-69012324D01*
X169935724Y-69036828D01*
X169934520Y-69061332D01*
X169930920Y-69085600D01*
X169924959Y-69109399D01*
X169916694Y-69132498D01*
X169906204Y-69154677D01*
X169893592Y-69175720D01*
X169878977Y-69195426D01*
X169862501Y-69213604D01*
X169226104Y-69850001D01*
X169207926Y-69866477D01*
X169188220Y-69881092D01*
X169167177Y-69893704D01*
X169144998Y-69904194D01*
X169121899Y-69912459D01*
X169098100Y-69918420D01*
X169073832Y-69922020D01*
X169049328Y-69923224D01*
X169024824Y-69922020D01*
X169000556Y-69918420D01*
X168976757Y-69912459D01*
X168953658Y-69904194D01*
X168931479Y-69893704D01*
X168910436Y-69881092D01*
X168890730Y-69866477D01*
X168872552Y-69850001D01*
X168412931Y-69390380D01*
X168396455Y-69372202D01*
X168381840Y-69352496D01*
X168369228Y-69331453D01*
X168358738Y-69309274D01*
X168350473Y-69286175D01*
X168344512Y-69262376D01*
X168340912Y-69238108D01*
X168339708Y-69213604D01*
X168340912Y-69189100D01*
X168344512Y-69164832D01*
X168350473Y-69141033D01*
X168358738Y-69117934D01*
X168369228Y-69095755D01*
X168381840Y-69074712D01*
X168396455Y-69055006D01*
X168412931Y-69036828D01*
X169049328Y-68400431D01*
X169067506Y-68383955D01*
X169087212Y-68369340D01*
X169108255Y-68356728D01*
X169130434Y-68346238D01*
X169153533Y-68337973D01*
X169177332Y-68332012D01*
X169201600Y-68328412D01*
X169226104Y-68327208D01*
X169250608Y-68328412D01*
X169250608Y-68328412D01*
G37*
D17*
X169137716Y-69125216D03*
D11*
G36*
X138950176Y-69777980D02*
G01*
X138974444Y-69781580D01*
X138998243Y-69787541D01*
X139021342Y-69795806D01*
X139043521Y-69806296D01*
X139064564Y-69818908D01*
X139084270Y-69833523D01*
X139102448Y-69849999D01*
X139562069Y-70309620D01*
X139578545Y-70327798D01*
X139593160Y-70347504D01*
X139605772Y-70368547D01*
X139616262Y-70390726D01*
X139624527Y-70413825D01*
X139630488Y-70437624D01*
X139634088Y-70461892D01*
X139635292Y-70486396D01*
X139634088Y-70510900D01*
X139630488Y-70535168D01*
X139624527Y-70558967D01*
X139616262Y-70582066D01*
X139605772Y-70604245D01*
X139593160Y-70625288D01*
X139578545Y-70644994D01*
X139562069Y-70663172D01*
X138925672Y-71299569D01*
X138907494Y-71316045D01*
X138887788Y-71330660D01*
X138866745Y-71343272D01*
X138844566Y-71353762D01*
X138821467Y-71362027D01*
X138797668Y-71367988D01*
X138773400Y-71371588D01*
X138748896Y-71372792D01*
X138724392Y-71371588D01*
X138700124Y-71367988D01*
X138676325Y-71362027D01*
X138653226Y-71353762D01*
X138631047Y-71343272D01*
X138610004Y-71330660D01*
X138590298Y-71316045D01*
X138572120Y-71299569D01*
X138112499Y-70839948D01*
X138096023Y-70821770D01*
X138081408Y-70802064D01*
X138068796Y-70781021D01*
X138058306Y-70758842D01*
X138050041Y-70735743D01*
X138044080Y-70711944D01*
X138040480Y-70687676D01*
X138039276Y-70663172D01*
X138040480Y-70638668D01*
X138044080Y-70614400D01*
X138050041Y-70590601D01*
X138058306Y-70567502D01*
X138068796Y-70545323D01*
X138081408Y-70524280D01*
X138096023Y-70504574D01*
X138112499Y-70486396D01*
X138748896Y-69849999D01*
X138767074Y-69833523D01*
X138786780Y-69818908D01*
X138807823Y-69806296D01*
X138830002Y-69795806D01*
X138853101Y-69787541D01*
X138876900Y-69781580D01*
X138901168Y-69777980D01*
X138925672Y-69776776D01*
X138950176Y-69777980D01*
X138950176Y-69777980D01*
G37*
D17*
X138837284Y-70574784D03*
D11*
G36*
X137500608Y-68328412D02*
G01*
X137524876Y-68332012D01*
X137548675Y-68337973D01*
X137571774Y-68346238D01*
X137593953Y-68356728D01*
X137614996Y-68369340D01*
X137634702Y-68383955D01*
X137652880Y-68400431D01*
X138112501Y-68860052D01*
X138128977Y-68878230D01*
X138143592Y-68897936D01*
X138156204Y-68918979D01*
X138166694Y-68941158D01*
X138174959Y-68964257D01*
X138180920Y-68988056D01*
X138184520Y-69012324D01*
X138185724Y-69036828D01*
X138184520Y-69061332D01*
X138180920Y-69085600D01*
X138174959Y-69109399D01*
X138166694Y-69132498D01*
X138156204Y-69154677D01*
X138143592Y-69175720D01*
X138128977Y-69195426D01*
X138112501Y-69213604D01*
X137476104Y-69850001D01*
X137457926Y-69866477D01*
X137438220Y-69881092D01*
X137417177Y-69893704D01*
X137394998Y-69904194D01*
X137371899Y-69912459D01*
X137348100Y-69918420D01*
X137323832Y-69922020D01*
X137299328Y-69923224D01*
X137274824Y-69922020D01*
X137250556Y-69918420D01*
X137226757Y-69912459D01*
X137203658Y-69904194D01*
X137181479Y-69893704D01*
X137160436Y-69881092D01*
X137140730Y-69866477D01*
X137122552Y-69850001D01*
X136662931Y-69390380D01*
X136646455Y-69372202D01*
X136631840Y-69352496D01*
X136619228Y-69331453D01*
X136608738Y-69309274D01*
X136600473Y-69286175D01*
X136594512Y-69262376D01*
X136590912Y-69238108D01*
X136589708Y-69213604D01*
X136590912Y-69189100D01*
X136594512Y-69164832D01*
X136600473Y-69141033D01*
X136608738Y-69117934D01*
X136619228Y-69095755D01*
X136631840Y-69074712D01*
X136646455Y-69055006D01*
X136662931Y-69036828D01*
X137299328Y-68400431D01*
X137317506Y-68383955D01*
X137337212Y-68369340D01*
X137358255Y-68356728D01*
X137380434Y-68346238D01*
X137403533Y-68337973D01*
X137427332Y-68332012D01*
X137451600Y-68328412D01*
X137476104Y-68327208D01*
X137500608Y-68328412D01*
X137500608Y-68328412D01*
G37*
D17*
X137387716Y-69125216D03*
D11*
G36*
X161193005Y-64586204D02*
G01*
X161217273Y-64589804D01*
X161241072Y-64595765D01*
X161264171Y-64604030D01*
X161286350Y-64614520D01*
X161307393Y-64627132D01*
X161327099Y-64641747D01*
X161345277Y-64658223D01*
X161361753Y-64676401D01*
X161376368Y-64696107D01*
X161388980Y-64717150D01*
X161399470Y-64739329D01*
X161407735Y-64762428D01*
X161413696Y-64786227D01*
X161417296Y-64810495D01*
X161418500Y-64834999D01*
X161418500Y-65485001D01*
X161417296Y-65509505D01*
X161413696Y-65533773D01*
X161407735Y-65557572D01*
X161399470Y-65580671D01*
X161388980Y-65602850D01*
X161376368Y-65623893D01*
X161361753Y-65643599D01*
X161345277Y-65661777D01*
X161327099Y-65678253D01*
X161307393Y-65692868D01*
X161286350Y-65705480D01*
X161264171Y-65715970D01*
X161241072Y-65724235D01*
X161217273Y-65730196D01*
X161193005Y-65733796D01*
X161168501Y-65735000D01*
X160268499Y-65735000D01*
X160243995Y-65733796D01*
X160219727Y-65730196D01*
X160195928Y-65724235D01*
X160172829Y-65715970D01*
X160150650Y-65705480D01*
X160129607Y-65692868D01*
X160109901Y-65678253D01*
X160091723Y-65661777D01*
X160075247Y-65643599D01*
X160060632Y-65623893D01*
X160048020Y-65602850D01*
X160037530Y-65580671D01*
X160029265Y-65557572D01*
X160023304Y-65533773D01*
X160019704Y-65509505D01*
X160018500Y-65485001D01*
X160018500Y-64834999D01*
X160019704Y-64810495D01*
X160023304Y-64786227D01*
X160029265Y-64762428D01*
X160037530Y-64739329D01*
X160048020Y-64717150D01*
X160060632Y-64696107D01*
X160075247Y-64676401D01*
X160091723Y-64658223D01*
X160109901Y-64641747D01*
X160129607Y-64627132D01*
X160150650Y-64614520D01*
X160172829Y-64604030D01*
X160195928Y-64595765D01*
X160219727Y-64589804D01*
X160243995Y-64586204D01*
X160268499Y-64585000D01*
X161168501Y-64585000D01*
X161193005Y-64586204D01*
X161193005Y-64586204D01*
G37*
D17*
X160718500Y-65160000D03*
D11*
G36*
X161193005Y-62536204D02*
G01*
X161217273Y-62539804D01*
X161241072Y-62545765D01*
X161264171Y-62554030D01*
X161286350Y-62564520D01*
X161307393Y-62577132D01*
X161327099Y-62591747D01*
X161345277Y-62608223D01*
X161361753Y-62626401D01*
X161376368Y-62646107D01*
X161388980Y-62667150D01*
X161399470Y-62689329D01*
X161407735Y-62712428D01*
X161413696Y-62736227D01*
X161417296Y-62760495D01*
X161418500Y-62784999D01*
X161418500Y-63435001D01*
X161417296Y-63459505D01*
X161413696Y-63483773D01*
X161407735Y-63507572D01*
X161399470Y-63530671D01*
X161388980Y-63552850D01*
X161376368Y-63573893D01*
X161361753Y-63593599D01*
X161345277Y-63611777D01*
X161327099Y-63628253D01*
X161307393Y-63642868D01*
X161286350Y-63655480D01*
X161264171Y-63665970D01*
X161241072Y-63674235D01*
X161217273Y-63680196D01*
X161193005Y-63683796D01*
X161168501Y-63685000D01*
X160268499Y-63685000D01*
X160243995Y-63683796D01*
X160219727Y-63680196D01*
X160195928Y-63674235D01*
X160172829Y-63665970D01*
X160150650Y-63655480D01*
X160129607Y-63642868D01*
X160109901Y-63628253D01*
X160091723Y-63611777D01*
X160075247Y-63593599D01*
X160060632Y-63573893D01*
X160048020Y-63552850D01*
X160037530Y-63530671D01*
X160029265Y-63507572D01*
X160023304Y-63483773D01*
X160019704Y-63459505D01*
X160018500Y-63435001D01*
X160018500Y-62784999D01*
X160019704Y-62760495D01*
X160023304Y-62736227D01*
X160029265Y-62712428D01*
X160037530Y-62689329D01*
X160048020Y-62667150D01*
X160060632Y-62646107D01*
X160075247Y-62626401D01*
X160091723Y-62608223D01*
X160109901Y-62591747D01*
X160129607Y-62577132D01*
X160150650Y-62564520D01*
X160172829Y-62554030D01*
X160195928Y-62545765D01*
X160219727Y-62539804D01*
X160243995Y-62536204D01*
X160268499Y-62535000D01*
X161168501Y-62535000D01*
X161193005Y-62536204D01*
X161193005Y-62536204D01*
G37*
D17*
X160718500Y-63110000D03*
D11*
G36*
X129474755Y-62536204D02*
G01*
X129499023Y-62539804D01*
X129522822Y-62545765D01*
X129545921Y-62554030D01*
X129568100Y-62564520D01*
X129589143Y-62577132D01*
X129608849Y-62591747D01*
X129627027Y-62608223D01*
X129643503Y-62626401D01*
X129658118Y-62646107D01*
X129670730Y-62667150D01*
X129681220Y-62689329D01*
X129689485Y-62712428D01*
X129695446Y-62736227D01*
X129699046Y-62760495D01*
X129700250Y-62784999D01*
X129700250Y-63435001D01*
X129699046Y-63459505D01*
X129695446Y-63483773D01*
X129689485Y-63507572D01*
X129681220Y-63530671D01*
X129670730Y-63552850D01*
X129658118Y-63573893D01*
X129643503Y-63593599D01*
X129627027Y-63611777D01*
X129608849Y-63628253D01*
X129589143Y-63642868D01*
X129568100Y-63655480D01*
X129545921Y-63665970D01*
X129522822Y-63674235D01*
X129499023Y-63680196D01*
X129474755Y-63683796D01*
X129450251Y-63685000D01*
X128550249Y-63685000D01*
X128525745Y-63683796D01*
X128501477Y-63680196D01*
X128477678Y-63674235D01*
X128454579Y-63665970D01*
X128432400Y-63655480D01*
X128411357Y-63642868D01*
X128391651Y-63628253D01*
X128373473Y-63611777D01*
X128356997Y-63593599D01*
X128342382Y-63573893D01*
X128329770Y-63552850D01*
X128319280Y-63530671D01*
X128311015Y-63507572D01*
X128305054Y-63483773D01*
X128301454Y-63459505D01*
X128300250Y-63435001D01*
X128300250Y-62784999D01*
X128301454Y-62760495D01*
X128305054Y-62736227D01*
X128311015Y-62712428D01*
X128319280Y-62689329D01*
X128329770Y-62667150D01*
X128342382Y-62646107D01*
X128356997Y-62626401D01*
X128373473Y-62608223D01*
X128391651Y-62591747D01*
X128411357Y-62577132D01*
X128432400Y-62564520D01*
X128454579Y-62554030D01*
X128477678Y-62545765D01*
X128501477Y-62539804D01*
X128525745Y-62536204D01*
X128550249Y-62535000D01*
X129450251Y-62535000D01*
X129474755Y-62536204D01*
X129474755Y-62536204D01*
G37*
D17*
X129000250Y-63110000D03*
D11*
G36*
X129474755Y-64586204D02*
G01*
X129499023Y-64589804D01*
X129522822Y-64595765D01*
X129545921Y-64604030D01*
X129568100Y-64614520D01*
X129589143Y-64627132D01*
X129608849Y-64641747D01*
X129627027Y-64658223D01*
X129643503Y-64676401D01*
X129658118Y-64696107D01*
X129670730Y-64717150D01*
X129681220Y-64739329D01*
X129689485Y-64762428D01*
X129695446Y-64786227D01*
X129699046Y-64810495D01*
X129700250Y-64834999D01*
X129700250Y-65485001D01*
X129699046Y-65509505D01*
X129695446Y-65533773D01*
X129689485Y-65557572D01*
X129681220Y-65580671D01*
X129670730Y-65602850D01*
X129658118Y-65623893D01*
X129643503Y-65643599D01*
X129627027Y-65661777D01*
X129608849Y-65678253D01*
X129589143Y-65692868D01*
X129568100Y-65705480D01*
X129545921Y-65715970D01*
X129522822Y-65724235D01*
X129499023Y-65730196D01*
X129474755Y-65733796D01*
X129450251Y-65735000D01*
X128550249Y-65735000D01*
X128525745Y-65733796D01*
X128501477Y-65730196D01*
X128477678Y-65724235D01*
X128454579Y-65715970D01*
X128432400Y-65705480D01*
X128411357Y-65692868D01*
X128391651Y-65678253D01*
X128373473Y-65661777D01*
X128356997Y-65643599D01*
X128342382Y-65623893D01*
X128329770Y-65602850D01*
X128319280Y-65580671D01*
X128311015Y-65557572D01*
X128305054Y-65533773D01*
X128301454Y-65509505D01*
X128300250Y-65485001D01*
X128300250Y-64834999D01*
X128301454Y-64810495D01*
X128305054Y-64786227D01*
X128311015Y-64762428D01*
X128319280Y-64739329D01*
X128329770Y-64717150D01*
X128342382Y-64696107D01*
X128356997Y-64676401D01*
X128373473Y-64658223D01*
X128391651Y-64641747D01*
X128411357Y-64627132D01*
X128432400Y-64614520D01*
X128454579Y-64604030D01*
X128477678Y-64595765D01*
X128501477Y-64589804D01*
X128525745Y-64586204D01*
X128550249Y-64585000D01*
X129450251Y-64585000D01*
X129474755Y-64586204D01*
X129474755Y-64586204D01*
G37*
D17*
X129000250Y-65160000D03*
D11*
G36*
X158430755Y-64586204D02*
G01*
X158455023Y-64589804D01*
X158478822Y-64595765D01*
X158501921Y-64604030D01*
X158524100Y-64614520D01*
X158545143Y-64627132D01*
X158564849Y-64641747D01*
X158583027Y-64658223D01*
X158599503Y-64676401D01*
X158614118Y-64696107D01*
X158626730Y-64717150D01*
X158637220Y-64739329D01*
X158645485Y-64762428D01*
X158651446Y-64786227D01*
X158655046Y-64810495D01*
X158656250Y-64834999D01*
X158656250Y-65485001D01*
X158655046Y-65509505D01*
X158651446Y-65533773D01*
X158645485Y-65557572D01*
X158637220Y-65580671D01*
X158626730Y-65602850D01*
X158614118Y-65623893D01*
X158599503Y-65643599D01*
X158583027Y-65661777D01*
X158564849Y-65678253D01*
X158545143Y-65692868D01*
X158524100Y-65705480D01*
X158501921Y-65715970D01*
X158478822Y-65724235D01*
X158455023Y-65730196D01*
X158430755Y-65733796D01*
X158406251Y-65735000D01*
X157506249Y-65735000D01*
X157481745Y-65733796D01*
X157457477Y-65730196D01*
X157433678Y-65724235D01*
X157410579Y-65715970D01*
X157388400Y-65705480D01*
X157367357Y-65692868D01*
X157347651Y-65678253D01*
X157329473Y-65661777D01*
X157312997Y-65643599D01*
X157298382Y-65623893D01*
X157285770Y-65602850D01*
X157275280Y-65580671D01*
X157267015Y-65557572D01*
X157261054Y-65533773D01*
X157257454Y-65509505D01*
X157256250Y-65485001D01*
X157256250Y-64834999D01*
X157257454Y-64810495D01*
X157261054Y-64786227D01*
X157267015Y-64762428D01*
X157275280Y-64739329D01*
X157285770Y-64717150D01*
X157298382Y-64696107D01*
X157312997Y-64676401D01*
X157329473Y-64658223D01*
X157347651Y-64641747D01*
X157367357Y-64627132D01*
X157388400Y-64614520D01*
X157410579Y-64604030D01*
X157433678Y-64595765D01*
X157457477Y-64589804D01*
X157481745Y-64586204D01*
X157506249Y-64585000D01*
X158406251Y-64585000D01*
X158430755Y-64586204D01*
X158430755Y-64586204D01*
G37*
D17*
X157956250Y-65160000D03*
D11*
G36*
X158430755Y-62536204D02*
G01*
X158455023Y-62539804D01*
X158478822Y-62545765D01*
X158501921Y-62554030D01*
X158524100Y-62564520D01*
X158545143Y-62577132D01*
X158564849Y-62591747D01*
X158583027Y-62608223D01*
X158599503Y-62626401D01*
X158614118Y-62646107D01*
X158626730Y-62667150D01*
X158637220Y-62689329D01*
X158645485Y-62712428D01*
X158651446Y-62736227D01*
X158655046Y-62760495D01*
X158656250Y-62784999D01*
X158656250Y-63435001D01*
X158655046Y-63459505D01*
X158651446Y-63483773D01*
X158645485Y-63507572D01*
X158637220Y-63530671D01*
X158626730Y-63552850D01*
X158614118Y-63573893D01*
X158599503Y-63593599D01*
X158583027Y-63611777D01*
X158564849Y-63628253D01*
X158545143Y-63642868D01*
X158524100Y-63655480D01*
X158501921Y-63665970D01*
X158478822Y-63674235D01*
X158455023Y-63680196D01*
X158430755Y-63683796D01*
X158406251Y-63685000D01*
X157506249Y-63685000D01*
X157481745Y-63683796D01*
X157457477Y-63680196D01*
X157433678Y-63674235D01*
X157410579Y-63665970D01*
X157388400Y-63655480D01*
X157367357Y-63642868D01*
X157347651Y-63628253D01*
X157329473Y-63611777D01*
X157312997Y-63593599D01*
X157298382Y-63573893D01*
X157285770Y-63552850D01*
X157275280Y-63530671D01*
X157267015Y-63507572D01*
X157261054Y-63483773D01*
X157257454Y-63459505D01*
X157256250Y-63435001D01*
X157256250Y-62784999D01*
X157257454Y-62760495D01*
X157261054Y-62736227D01*
X157267015Y-62712428D01*
X157275280Y-62689329D01*
X157285770Y-62667150D01*
X157298382Y-62646107D01*
X157312997Y-62626401D01*
X157329473Y-62608223D01*
X157347651Y-62591747D01*
X157367357Y-62577132D01*
X157388400Y-62564520D01*
X157410579Y-62554030D01*
X157433678Y-62545765D01*
X157457477Y-62539804D01*
X157481745Y-62536204D01*
X157506249Y-62535000D01*
X158406251Y-62535000D01*
X158430755Y-62536204D01*
X158430755Y-62536204D01*
G37*
D17*
X157956250Y-63110000D03*
D11*
G36*
X126680755Y-62536204D02*
G01*
X126705023Y-62539804D01*
X126728822Y-62545765D01*
X126751921Y-62554030D01*
X126774100Y-62564520D01*
X126795143Y-62577132D01*
X126814849Y-62591747D01*
X126833027Y-62608223D01*
X126849503Y-62626401D01*
X126864118Y-62646107D01*
X126876730Y-62667150D01*
X126887220Y-62689329D01*
X126895485Y-62712428D01*
X126901446Y-62736227D01*
X126905046Y-62760495D01*
X126906250Y-62784999D01*
X126906250Y-63435001D01*
X126905046Y-63459505D01*
X126901446Y-63483773D01*
X126895485Y-63507572D01*
X126887220Y-63530671D01*
X126876730Y-63552850D01*
X126864118Y-63573893D01*
X126849503Y-63593599D01*
X126833027Y-63611777D01*
X126814849Y-63628253D01*
X126795143Y-63642868D01*
X126774100Y-63655480D01*
X126751921Y-63665970D01*
X126728822Y-63674235D01*
X126705023Y-63680196D01*
X126680755Y-63683796D01*
X126656251Y-63685000D01*
X125756249Y-63685000D01*
X125731745Y-63683796D01*
X125707477Y-63680196D01*
X125683678Y-63674235D01*
X125660579Y-63665970D01*
X125638400Y-63655480D01*
X125617357Y-63642868D01*
X125597651Y-63628253D01*
X125579473Y-63611777D01*
X125562997Y-63593599D01*
X125548382Y-63573893D01*
X125535770Y-63552850D01*
X125525280Y-63530671D01*
X125517015Y-63507572D01*
X125511054Y-63483773D01*
X125507454Y-63459505D01*
X125506250Y-63435001D01*
X125506250Y-62784999D01*
X125507454Y-62760495D01*
X125511054Y-62736227D01*
X125517015Y-62712428D01*
X125525280Y-62689329D01*
X125535770Y-62667150D01*
X125548382Y-62646107D01*
X125562997Y-62626401D01*
X125579473Y-62608223D01*
X125597651Y-62591747D01*
X125617357Y-62577132D01*
X125638400Y-62564520D01*
X125660579Y-62554030D01*
X125683678Y-62545765D01*
X125707477Y-62539804D01*
X125731745Y-62536204D01*
X125756249Y-62535000D01*
X126656251Y-62535000D01*
X126680755Y-62536204D01*
X126680755Y-62536204D01*
G37*
D17*
X126206250Y-63110000D03*
D11*
G36*
X126680755Y-64586204D02*
G01*
X126705023Y-64589804D01*
X126728822Y-64595765D01*
X126751921Y-64604030D01*
X126774100Y-64614520D01*
X126795143Y-64627132D01*
X126814849Y-64641747D01*
X126833027Y-64658223D01*
X126849503Y-64676401D01*
X126864118Y-64696107D01*
X126876730Y-64717150D01*
X126887220Y-64739329D01*
X126895485Y-64762428D01*
X126901446Y-64786227D01*
X126905046Y-64810495D01*
X126906250Y-64834999D01*
X126906250Y-65485001D01*
X126905046Y-65509505D01*
X126901446Y-65533773D01*
X126895485Y-65557572D01*
X126887220Y-65580671D01*
X126876730Y-65602850D01*
X126864118Y-65623893D01*
X126849503Y-65643599D01*
X126833027Y-65661777D01*
X126814849Y-65678253D01*
X126795143Y-65692868D01*
X126774100Y-65705480D01*
X126751921Y-65715970D01*
X126728822Y-65724235D01*
X126705023Y-65730196D01*
X126680755Y-65733796D01*
X126656251Y-65735000D01*
X125756249Y-65735000D01*
X125731745Y-65733796D01*
X125707477Y-65730196D01*
X125683678Y-65724235D01*
X125660579Y-65715970D01*
X125638400Y-65705480D01*
X125617357Y-65692868D01*
X125597651Y-65678253D01*
X125579473Y-65661777D01*
X125562997Y-65643599D01*
X125548382Y-65623893D01*
X125535770Y-65602850D01*
X125525280Y-65580671D01*
X125517015Y-65557572D01*
X125511054Y-65533773D01*
X125507454Y-65509505D01*
X125506250Y-65485001D01*
X125506250Y-64834999D01*
X125507454Y-64810495D01*
X125511054Y-64786227D01*
X125517015Y-64762428D01*
X125525280Y-64739329D01*
X125535770Y-64717150D01*
X125548382Y-64696107D01*
X125562997Y-64676401D01*
X125579473Y-64658223D01*
X125597651Y-64641747D01*
X125617357Y-64627132D01*
X125638400Y-64614520D01*
X125660579Y-64604030D01*
X125683678Y-64595765D01*
X125707477Y-64589804D01*
X125731745Y-64586204D01*
X125756249Y-64585000D01*
X126656251Y-64585000D01*
X126680755Y-64586204D01*
X126680755Y-64586204D01*
G37*
D17*
X126206250Y-65160000D03*
M02*
