G04 #@! TF.GenerationSoftware,KiCad,Pcbnew,(5.1.4)-1*
G04 #@! TF.CreationDate,2023-05-16T09:56:59-04:00*
G04 #@! TF.ProjectId,Corne Integrated Microchip,436f726e-6520-4496-9e74-656772617465,rev?*
G04 #@! TF.SameCoordinates,Original*
G04 #@! TF.FileFunction,Profile,NP*
%FSLAX46Y46*%
G04 Gerber Fmt 4.6, Leading zero omitted, Abs format (unit mm)*
G04 Created by KiCad (PCBNEW (5.1.4)-1) date 2023-05-16 09:56:59*
%MOMM*%
%LPD*%
G04 APERTURE LIST*
%ADD10C,0.050000*%
G04 APERTURE END LIST*
D10*
X177800000Y-103187500D02*
G75*
G03X177800000Y-103187500I-1587500J0D01*
G01*
X196850000Y-61118750D02*
G75*
G03X196850000Y-61118750I-1587500J0D01*
G01*
X273050000Y-90487500D02*
G75*
G03X273050000Y-90487500I-1587500J0D01*
G01*
X273050000Y-63500000D02*
G75*
G03X273050000Y-63500000I-1587500J0D01*
G01*
X123825000Y-103187500D02*
G75*
G03X123825000Y-103187500I-1587500J0D01*
G01*
X104775000Y-61118750D02*
G75*
G03X104775000Y-61118750I-1587500J0D01*
G01*
X28575000Y-90487500D02*
G75*
G03X28575000Y-90487500I-1587500J0D01*
G01*
X28575000Y-63500000D02*
G75*
G03X28575000Y-63500000I-1587500J0D01*
G01*
X170656250Y-42068750D02*
X170656250Y-46831250D01*
X160337500Y-41275000D02*
X169862500Y-41275000D01*
X159543750Y-46831250D02*
X159543750Y-42068750D01*
X159543750Y-42068750D02*
G75*
G02X160337500Y-41275000I793750J0D01*
G01*
X159543750Y-46831250D02*
G75*
G02X158750000Y-47625000I-793750J0D01*
G01*
X154781250Y-47625000D02*
X158750000Y-47625000D01*
X153987500Y-48418750D02*
G75*
G02X154781250Y-47625000I793750J0D01*
G01*
X153987500Y-110331250D02*
X153987500Y-48418750D01*
X168275000Y-135731250D02*
X153987500Y-110331250D01*
X203993750Y-121443750D02*
X168275000Y-135731250D01*
X169862500Y-41275000D02*
G75*
G02X170656250Y-42068750I0J-793750D01*
G01*
X171450000Y-47625000D02*
G75*
G02X170656250Y-46831250I0J793750D01*
G01*
X174625000Y-47625000D02*
X171450000Y-47625000D01*
X138906250Y-42068750D02*
X138906250Y-46831250D01*
X127000000Y-47625000D02*
X123825000Y-47625000D01*
X127793750Y-42068750D02*
X127793750Y-46831250D01*
X129381250Y-41275000D02*
X128587500Y-41275000D01*
X138112500Y-41275000D02*
X137318750Y-41275000D01*
X138112500Y-41275000D02*
G75*
G02X138906250Y-42068750I0J-793750D01*
G01*
X127793750Y-42068750D02*
G75*
G02X128587500Y-41275000I793750J0D01*
G01*
X127793750Y-46831250D02*
G75*
G02X127000000Y-47625000I-793750J0D01*
G01*
X139700000Y-47625000D02*
X143668750Y-47625000D01*
X139700000Y-47625000D02*
G75*
G02X138906250Y-46831250I0J793750D01*
G01*
X137318750Y-41275000D02*
X129381250Y-41275000D01*
X289718750Y-105568750D02*
X253206250Y-105568750D01*
X290512500Y-49212500D02*
X290512500Y-104775000D01*
X253206250Y-48418750D02*
X289718750Y-48418750D01*
X252412500Y-44450000D02*
X252412500Y-47625000D01*
X234156250Y-43656250D02*
X251618750Y-43656250D01*
X233362500Y-42068750D02*
X233362500Y-42862500D01*
X215106250Y-41275000D02*
X232568750Y-41275000D01*
X214312500Y-42862500D02*
X214312500Y-42068750D01*
X196056250Y-43656250D02*
X213518750Y-43656250D01*
X195262500Y-44450000D02*
X195262500Y-45243750D01*
X176212500Y-46037500D02*
X194468750Y-46037500D01*
X175418750Y-46831250D02*
G75*
G02X174625000Y-47625000I-793750J0D01*
G01*
X175418750Y-46831250D02*
G75*
G02X176212500Y-46037500I793750J0D01*
G01*
X223837500Y-120650000D02*
X203993750Y-121443750D01*
X253206250Y-105568750D02*
X223837500Y-120650000D01*
X290512500Y-104775000D02*
G75*
G02X289718750Y-105568750I-793750J0D01*
G01*
X289718750Y-48418750D02*
G75*
G02X290512500Y-49212500I0J-793750D01*
G01*
X253206250Y-48418750D02*
G75*
G02X252412500Y-47625000I0J793750D01*
G01*
X251618750Y-43656250D02*
G75*
G02X252412500Y-44450000I0J-793750D01*
G01*
X234156250Y-43656250D02*
G75*
G02X233362500Y-42862500I0J793750D01*
G01*
X232568750Y-41275000D02*
G75*
G02X233362500Y-42068750I0J-793750D01*
G01*
X214312500Y-42068750D02*
G75*
G02X215106250Y-41275000I793750J0D01*
G01*
X214312500Y-42862500D02*
G75*
G02X213518750Y-43656250I-793750J0D01*
G01*
X195262500Y-44450000D02*
G75*
G02X196056250Y-43656250I793750J0D01*
G01*
X195262500Y-45243750D02*
G75*
G02X194468750Y-46037500I-793750J0D01*
G01*
X144462500Y-48418750D02*
X144462500Y-54768750D01*
X143668750Y-47625000D02*
G75*
G02X144462500Y-48418750I0J-793750D01*
G01*
X123825000Y-47625000D02*
G75*
G02X123031250Y-46831250I0J793750D01*
G01*
X122237500Y-46037500D02*
G75*
G02X123031250Y-46831250I0J-793750D01*
G01*
X144462500Y-110331250D02*
X144462500Y-54768750D01*
X130175000Y-135731250D02*
X144462500Y-110331250D01*
X94456250Y-121443750D02*
X130175000Y-135731250D01*
X103981250Y-46037500D02*
X122237500Y-46037500D01*
X103187500Y-44450000D02*
X103187500Y-45243750D01*
X84931250Y-43656250D02*
X102393750Y-43656250D01*
X84137500Y-42068750D02*
X84137500Y-42862500D01*
X65881250Y-41275000D02*
X83343750Y-41275000D01*
X65087500Y-42068750D02*
X65087500Y-42862500D01*
X46831250Y-43656250D02*
X64293750Y-43656250D01*
X46037500Y-47625000D02*
X46037500Y-44450000D01*
X8731250Y-48418750D02*
X45243750Y-48418750D01*
X7937500Y-104775000D02*
X7937500Y-49212500D01*
X45243750Y-105568750D02*
X8731250Y-105568750D01*
X46831250Y-106362500D02*
X45243750Y-105568750D01*
X74612500Y-120650000D02*
X94456250Y-121443750D01*
X46831250Y-106362500D02*
X74612500Y-120650000D01*
X8731250Y-105568750D02*
G75*
G02X7937500Y-104775000I0J793750D01*
G01*
X7937500Y-49212500D02*
G75*
G02X8731250Y-48418750I793750J0D01*
G01*
X46037500Y-47625000D02*
G75*
G02X45243750Y-48418750I-793750J0D01*
G01*
X46037500Y-44450000D02*
G75*
G02X46831250Y-43656250I793750J0D01*
G01*
X65087500Y-42862500D02*
G75*
G02X64293750Y-43656250I-793750J0D01*
G01*
X65087500Y-42068750D02*
G75*
G02X65881250Y-41275000I793750J0D01*
G01*
X83343750Y-41275000D02*
G75*
G02X84137500Y-42068750I0J-793750D01*
G01*
X84931250Y-43656250D02*
G75*
G02X84137500Y-42862500I0J793750D01*
G01*
X102393750Y-43656250D02*
G75*
G02X103187500Y-44450000I0J-793750D01*
G01*
X103981250Y-46037500D02*
G75*
G02X103187500Y-45243750I0J793750D01*
G01*
M02*
