M48
; DRILL file {KiCad (5.1.4)-1} date 5/20/2023 5:31:53 PM
; FORMAT={-:-/ absolute / inch / decimal}
; #@! TF.CreationDate,2023-05-20T17:31:53-04:00
; #@! TF.GenerationSoftware,Kicad,Pcbnew,(5.1.4)-1
; #@! TF.FileFunction,NonPlated,1,2,NPTH
FMAT,2
INCH
T1C0.0256
T2C0.0472
T3C0.0669
T4C0.0709
T5C0.1929
%
G90
G05
T1
X6.3862Y-1.8711
X6.6138Y-1.8711
X5.1362Y-1.8711
X5.3638Y-1.8711
T2
X6.2466Y-3.875
X6.5221Y-3.875
X5.2591Y-3.875
X5.5347Y-3.875
T3
X4.2375Y-3.6875
X4.6375Y-3.6875
X1.9875Y-2.0938
X2.3875Y-2.0938
X10.8625Y-2.2812
X11.2625Y-2.2812
X8.2375Y-4.375
X8.6375Y-4.375
X0.4875Y-2.2812
X0.8875Y-2.2812
X8.6125Y-2.75
X9.0125Y-2.75
X10.1125Y-3.0312
X10.5125Y-3.0312
X4.2375Y-2.9375
X4.6375Y-2.9375
X9.3625Y-2.8438
X9.7625Y-2.8438
X1.2375Y-3.7812
X1.6375Y-3.7812
X1.9875Y-2.8438
X2.3875Y-2.8438
X6.5875Y-4.483
X6.7875Y-4.8295
X3.9631Y-4.4482
X4.3494Y-4.5518
X10.1125Y-3.7812
X10.5125Y-3.7812
X1.2375Y-3.0312
X1.6375Y-3.0312
X8.6125Y-3.5
X9.0125Y-3.5
X0.4875Y-3.7812
X0.8875Y-3.7812
X9.3625Y-2.0938
X9.7625Y-2.0938
X4.2375Y-2.1875
X4.6375Y-2.1875
X7.1125Y-2.9375
X7.5125Y-2.9375
X1.9875Y-3.5938
X2.3875Y-3.5938
X7.8625Y-2.8438
X8.2625Y-2.8438
X2.7375Y-2.75
X3.1375Y-2.75
X10.1125Y-2.2812
X10.5125Y-2.2812
X4.9625Y-4.8295
X5.1625Y-4.483
X2.7375Y-2.0
X3.1375Y-2.0
X8.6125Y-2.0
X9.0125Y-2.0
X3.1125Y-4.375
X3.5125Y-4.375
X9.3625Y-3.5938
X9.7625Y-3.5938
X0.4875Y-3.0312
X0.8875Y-3.0312
X7.8625Y-3.5938
X8.2625Y-3.5938
X1.2375Y-2.2812
X1.6375Y-2.2812
X7.1125Y-3.6875
X7.5125Y-3.6875
X3.4875Y-2.8438
X3.8875Y-2.8438
X7.8625Y-2.0938
X8.2625Y-2.0938
X3.4875Y-3.5938
X3.8875Y-3.5938
X10.8625Y-3.0312
X11.2625Y-3.0312
X3.4875Y-2.0938
X3.8875Y-2.0938
X2.7375Y-3.5
X3.1375Y-3.5
X7.4006Y-4.5518
X7.7869Y-4.4482
X7.1125Y-2.1875
X7.5125Y-2.1875
X10.8625Y-3.7812
X11.2625Y-3.7812
T4
X3.9471Y-4.444
X4.3654Y-4.556
X10.096Y-3.7812
X10.529Y-3.7812
X1.221Y-3.0312
X1.654Y-3.0312
X8.596Y-3.5
X9.029Y-3.5
X0.471Y-3.7812
X0.904Y-3.7812
X9.346Y-2.0938
X9.779Y-2.0938
X4.221Y-2.1875
X4.654Y-2.1875
X7.096Y-2.9375
X7.529Y-2.9375
X1.971Y-3.5938
X2.404Y-3.5938
X7.846Y-2.8438
X8.279Y-2.8438
X2.721Y-2.75
X3.154Y-2.75
X10.096Y-2.2812
X10.529Y-2.2812
X4.9542Y-4.8438
X5.1708Y-4.4687
X2.721Y-2.0
X3.154Y-2.0
X8.596Y-2.0
X9.029Y-2.0
X3.096Y-4.375
X3.529Y-4.375
X9.346Y-3.5938
X9.779Y-3.5938
X0.471Y-3.0312
X0.904Y-3.0312
X7.846Y-3.5938
X8.279Y-3.5938
X1.221Y-2.2812
X1.654Y-2.2812
X7.096Y-3.6875
X7.529Y-3.6875
X3.471Y-2.8438
X3.904Y-2.8438
X7.846Y-2.0938
X8.279Y-2.0938
X3.471Y-3.5938
X3.904Y-3.5938
X10.846Y-3.0312
X11.279Y-3.0312
X3.471Y-2.0938
X3.904Y-2.0938
X2.721Y-3.5
X3.154Y-3.5
X7.3846Y-4.556
X7.8029Y-4.444
X7.096Y-2.1875
X7.529Y-2.1875
X10.846Y-3.7812
X11.279Y-3.7812
X4.221Y-3.6875
X4.654Y-3.6875
X1.971Y-2.0938
X2.404Y-2.0938
X10.846Y-2.2812
X11.279Y-2.2812
X8.221Y-4.375
X8.654Y-4.375
X0.471Y-2.2812
X0.904Y-2.2812
X8.596Y-2.75
X9.029Y-2.75
X10.096Y-3.0312
X10.529Y-3.0312
X4.221Y-2.9375
X4.654Y-2.9375
X9.346Y-2.8438
X9.779Y-2.8438
X1.221Y-3.7812
X1.654Y-3.7812
X1.971Y-2.8438
X2.404Y-2.8438
X6.5792Y-4.4687
X6.7958Y-4.8438
T5
X2.9375Y-3.5
X7.5938Y-4.5
X7.3125Y-2.1875
X11.0625Y-3.7812
X4.4375Y-3.6875
X2.1875Y-2.0938
X11.0625Y-2.2812
X8.4375Y-4.375
X0.6875Y-2.2812
X8.8125Y-2.75
X10.3125Y-3.0312
X4.4375Y-2.9375
X9.5625Y-2.8438
X1.4375Y-3.7812
X2.1875Y-2.8438
X6.6875Y-4.6562
X4.1562Y-4.5
X10.3125Y-3.7812
X1.4375Y-3.0312
X8.8125Y-3.5
X0.6875Y-3.7812
X9.5625Y-2.0938
X4.4375Y-2.1875
X7.3125Y-2.9375
X2.1875Y-3.5938
X8.0625Y-2.8438
X2.9375Y-2.75
X10.3125Y-2.2812
X5.0625Y-4.6562
X2.9375Y-2.0
X8.8125Y-2.0
X3.3125Y-4.375
X9.5625Y-3.5938
X0.6875Y-3.0312
X8.0625Y-3.5938
X1.4375Y-2.2812
X7.3125Y-3.6875
X3.6875Y-2.8438
X8.0625Y-2.0938
X3.6875Y-3.5938
X11.0625Y-3.0312
X3.6875Y-2.0938
T0
M30
