M48
; DRILL file {KiCad (5.1.4)-1} date 5/16/2023 9:57:00 AM
; FORMAT={-:-/ absolute / inch / decimal}
; #@! TF.CreationDate,2023-05-16T09:57:00-04:00
; #@! TF.GenerationSoftware,Kicad,Pcbnew,(5.1.4)-1
; #@! TF.FileFunction,Plated,1,2,PTH
FMAT,2
INCH
T1C0.0118
T2C0.0157
T3C0.0236
T4C0.0320
T5C0.0394
T6C0.0472
T7C0.0512
%
G90
G05
T2
X4.1875Y-4.3438
X4.375Y-4.4375
X4.4937Y-4.885
X4.5587Y-4.54
X4.7488Y-4.39
X4.8187Y-4.56
X4.8788Y-2.8
X4.8788Y-2.89
X4.8798Y-2.8461
X4.8838Y-2.7
X4.9988Y-3.59
X5.0187Y-3.36
X5.0587Y-2.72
X5.0938Y-3.53
X5.1238Y-2.72
X5.1937Y-3.535
X5.2221Y-2.8464
X5.2368Y-2.8048
X5.2387Y-3.225
X5.251Y-2.8732
X5.2837Y-2.895
X5.2837Y-4.965
X5.2938Y-3.535
X5.3187Y-1.8667
X5.355Y-3.53
X5.39Y-2.615
X5.4238Y-4.705
X5.4248Y-2.0127
X5.4817Y-2.845
X5.495Y-2.525
X5.5637Y-2.82
X5.5737Y-4.23
X5.5987Y-2.28
X5.625Y-3.265
X6.14Y-3.24
X6.2975Y-2.73
X6.31Y-3.48
X6.3675Y-2.73
X6.4725Y-2.825
X6.505Y-3.45
X6.505Y-3.545
X6.5225Y-2.83
X6.5247Y-2.8775
X6.5675Y-2.875
X6.61Y-3.5
X6.655Y-2.265
X6.665Y-2.64
X6.7194Y-3.37
X6.73Y-2.525
X6.7317Y-2.845
X6.7479Y-3.3196
X6.7927Y-3.2752
X6.795Y-2.125
X6.8011Y-3.3228
X6.8125Y-2.825
X6.8425Y-2.305
X6.8425Y-3.27
X6.9688Y-3.75
X7.0Y-3.25
X7.0Y-3.3438
X7.0Y-3.4375
X7.1562Y-4.5
X7.2188Y-4.6875
X7.2188Y-4.9688
X7.25Y-3.4375
X7.6562Y-4.375
X7.7625Y-4.16
X7.7925Y-4.34
X7.8575Y-4.36
T4
X5.0938Y-3.625
X5.1937Y-3.625
X5.2938Y-3.625
X5.3937Y-3.625
X6.3575Y-3.625
X6.4575Y-3.625
X6.5575Y-3.625
X6.6575Y-3.625
T6
X8.2875Y-4.275
X8.5375Y-4.175
X6.6991Y-4.4763
X6.9107Y-4.6429
X2.7875Y-3.4
X3.0375Y-3.3
X10.9125Y-3.6812
X11.1625Y-3.5812
X3.5375Y-2.7437
X3.7875Y-2.6437
X2.0375Y-2.7437
X2.2875Y-2.6437
X7.9125Y-2.7437
X8.1625Y-2.6437
X9.4125Y-1.9937
X9.6625Y-1.8938
X0.5375Y-2.1812
X0.7875Y-2.0812
X8.6625Y-2.65
X8.9125Y-2.55
X10.1625Y-2.1812
X10.4125Y-2.0812
X1.2875Y-2.9312
X1.5375Y-2.8312
X3.5375Y-3.4937
X3.7875Y-3.3937
X2.0375Y-1.9937
X2.2875Y-1.8938
X3.5375Y-1.9937
X3.7875Y-1.8938
X10.1625Y-2.9312
X10.4125Y-2.8312
X8.6625Y-3.4
X8.9125Y-3.3
X1.2875Y-3.6812
X1.5375Y-3.5812
X10.1625Y-3.6812
X10.4125Y-3.5812
X3.1625Y-4.275
X3.4125Y-4.175
X7.9125Y-3.4937
X8.1625Y-3.3937
X4.0372Y-4.3646
X4.3046Y-4.3327
X4.2875Y-3.5875
X4.5375Y-3.4875
X10.9125Y-2.9312
X11.1625Y-2.8312
X7.1625Y-2.0875
X7.4125Y-1.9875
X4.2875Y-2.0875
X4.5375Y-1.9875
X8.6625Y-1.9
X8.9125Y-1.8
X0.5375Y-2.9312
X0.7875Y-2.8312
X4.9009Y-4.7362
X4.9393Y-4.4696
X7.423Y-4.4422
X7.6386Y-4.2809
X7.9125Y-1.9937
X8.1625Y-1.8938
X4.2875Y-2.8375
X4.5375Y-2.7375
X7.1625Y-3.5875
X7.4125Y-3.4875
X2.7875Y-2.65
X3.0375Y-2.55
X9.4125Y-2.7437
X9.6625Y-2.6437
X10.9125Y-2.1812
X11.1625Y-2.0812
X9.4125Y-3.4937
X9.6625Y-3.3937
X2.0375Y-3.4937
X2.2875Y-3.3937
X7.1625Y-2.8375
X7.4125Y-2.7375
X0.5375Y-3.6812
X0.7875Y-3.5812
X2.7875Y-1.9
X3.0375Y-1.8
X1.2875Y-2.1812
X1.5375Y-2.0812
T7
X6.8438Y-3.6533
X6.8438Y-3.9092
X4.9375Y-3.6533
X4.9375Y-3.9092
T1
G00X7.2987Y-3.9198
M15
G01X7.3263Y-3.9198
M16
G05
G00X7.4956Y-3.4691
M15
G01X7.5231Y-3.4689
M16
G05
G00X2.9237Y-2.9823
M15
G01X2.9513Y-2.9823
M16
G05
G00X3.1206Y-2.5316
M15
G01X3.1481Y-2.5314
M16
G05
G00X9.5487Y-3.076
M15
G01X9.5763Y-3.076
M16
G05
G00X9.7456Y-2.6254
M15
G01X9.7731Y-2.6251
M16
G05
G00X11.0487Y-2.5135
M15
G01X11.0763Y-2.5135
M16
G05
G00X11.2456Y-2.0629
M15
G01X11.2731Y-2.0626
M16
G05
G00X9.5487Y-3.826
M15
G01X9.5763Y-3.826
M16
G05
G00X9.7456Y-3.3754
M15
G01X9.7731Y-3.3751
M16
G05
G00X2.1737Y-3.826
M15
G01X2.2013Y-3.826
M16
G05
G00X2.3706Y-3.3754
M15
G01X2.3981Y-3.3751
M16
G05
G00X7.2987Y-3.1698
M15
G01X7.3263Y-3.1698
M16
G05
G00X7.4956Y-2.7191
M15
G01X7.5231Y-2.7189
M16
G05
G00X0.6737Y-4.0135
M15
G01X0.7013Y-4.0135
M16
G05
G00X0.8706Y-3.5629
M15
G01X0.8981Y-3.5626
M16
G05
G00X2.9237Y-2.2323
M15
G01X2.9513Y-2.2323
M16
G05
G00X3.1206Y-1.7816
M15
G01X3.1481Y-1.7814
M16
G05
G00X1.4237Y-2.5135
M15
G01X1.4513Y-2.5135
M16
G05
G00X1.6206Y-2.0629
M15
G01X1.6481Y-2.0626
M16
G05
G00X8.4237Y-4.6073
M15
G01X8.4513Y-4.6073
M16
G05
G00X8.6206Y-4.1566
M15
G01X8.6481Y-4.1564
M16
G05
G00X6.4794Y-4.7605
M15
G01X6.4932Y-4.7843
M16
G05
G00X6.9682Y-4.7056
M15
G01X6.9821Y-4.7293
M16
G05
G00X2.9237Y-3.7323
M15
G01X2.9513Y-3.7323
M16
G05
G00X3.1206Y-3.2816
M15
G01X3.1481Y-3.2814
M16
G05
G00X11.0487Y-4.0135
M15
G01X11.0763Y-4.0135
M16
G05
G00X11.2456Y-3.5629
M15
G01X11.2731Y-3.5626
M16
G05
G00X3.6737Y-3.076
M15
G01X3.7013Y-3.076
M16
G05
G00X3.8706Y-2.6254
M15
G01X3.8981Y-2.6251
M16
G05
G00X2.1737Y-3.076
M15
G01X2.2013Y-3.076
M16
G05
G00X2.3706Y-2.6254
M15
G01X2.3981Y-2.6251
M16
G05
G00X8.0487Y-3.076
M15
G01X8.0763Y-3.076
M16
G05
G00X8.2456Y-2.6254
M15
G01X8.2731Y-2.6251
M16
G05
G00X9.5487Y-2.326
M15
G01X9.5763Y-2.326
M16
G05
G00X9.7456Y-1.8754
M15
G01X9.7731Y-1.8751
M16
G05
G00X0.6737Y-2.5135
M15
G01X0.7013Y-2.5135
M16
G05
G00X0.8706Y-2.0629
M15
G01X0.8981Y-2.0626
M16
G05
G00X8.7987Y-2.9823
M15
G01X8.8263Y-2.9823
M16
G05
G00X8.9956Y-2.5316
M15
G01X9.0231Y-2.5314
M16
G05
G00X10.2987Y-2.5135
M15
G01X10.3263Y-2.5135
M16
G05
G00X10.4956Y-2.0629
M15
G01X10.5231Y-2.0626
M16
G05
G00X1.4237Y-3.2635
M15
G01X1.4513Y-3.2635
M16
G05
G00X1.6206Y-2.8129
M15
G01X1.6481Y-2.8126
M16
G05
G00X3.6737Y-3.826
M15
G01X3.7013Y-3.826
M16
G05
G00X3.8706Y-3.3754
M15
G01X3.8981Y-3.3751
M16
G05
G00X2.1737Y-2.326
M15
G01X2.2013Y-2.326
M16
G05
G00X2.3706Y-1.8754
M15
G01X2.3981Y-1.8751
M16
G05
G00X3.6737Y-2.326
M15
G01X3.7013Y-2.326
M16
G05
G00X3.8706Y-1.8754
M15
G01X3.8981Y-1.8751
M16
G05
G00X10.2987Y-3.2635
M15
G01X10.3263Y-3.2635
M16
G05
G00X10.4956Y-2.8129
M15
G01X10.5231Y-2.8126
M16
G05
G00X8.7987Y-3.7323
M15
G01X8.8263Y-3.7323
M16
G05
G00X8.9956Y-3.2816
M15
G01X9.0231Y-3.2814
M16
G05
G00X1.4237Y-4.0135
M15
G01X1.4513Y-4.0135
M16
G05
G00X1.6206Y-3.5629
M15
G01X1.6481Y-3.5626
M16
G05
G00X10.2987Y-4.0135
M15
G01X10.3263Y-4.0135
M16
G05
G00X10.4956Y-3.5629
M15
G01X10.5231Y-3.5626
M16
G05
G00X3.2987Y-4.6073
M15
G01X3.3263Y-4.6073
M16
G05
G00X3.4956Y-4.1566
M15
G01X3.5231Y-4.1564
M16
G05
G00X8.0487Y-3.826
M15
G01X8.0763Y-3.826
M16
G05
G00X8.2456Y-3.3754
M15
G01X8.2731Y-3.3751
M16
G05
G00X4.0828Y-4.7208
M15
G01X4.1094Y-4.7279
M16
G05
G00X4.3896Y-4.3364
M15
G01X4.4163Y-4.3433
M16
G05
G00X4.4237Y-3.9198
M15
G01X4.4513Y-3.9198
M16
G05
G00X4.6206Y-3.4691
M15
G01X4.6481Y-3.4689
M16
G05
G00X11.0487Y-3.2635
M15
G01X11.0763Y-3.2635
M16
G05
G00X11.2456Y-2.8129
M15
G01X11.2731Y-2.8126
M16
G05
G00X7.2987Y-2.4198
M15
G01X7.3263Y-2.4198
M16
G05
G00X7.4956Y-1.9691
M15
G01X7.5231Y-1.9689
M16
G05
G00X4.4237Y-2.4198
M15
G01X4.4513Y-2.4198
M16
G05
G00X4.6206Y-1.9691
M15
G01X4.6481Y-1.9689
M16
G05
G00X8.7987Y-2.2323
M15
G01X8.8263Y-2.2323
M16
G05
G00X8.9956Y-1.7816
M15
G01X9.0231Y-1.7814
M16
G05
G00X0.6737Y-3.2635
M15
G01X0.7013Y-3.2635
M16
G05
G00X0.8706Y-2.8129
M15
G01X0.8981Y-2.8126
M16
G05
G00X4.9649Y-4.3885
M15
G01X4.9785Y-4.3645
M16
G05
G00X5.2568Y-4.7843
M15
G01X5.2706Y-4.7605
M16
G05
G00X7.6406Y-4.7279
M15
G01X7.6672Y-4.7208
M16
G05
G00X7.7141Y-4.2417
M15
G01X7.7406Y-4.2343
M16
G05
G00X8.0487Y-2.326
M15
G01X8.0763Y-2.326
M16
G05
G00X8.2456Y-1.8754
M15
G01X8.2731Y-1.8751
M16
G05
G00X4.4237Y-3.1698
M15
G01X4.4513Y-3.1698
M16
G05
G00X4.6206Y-2.7191
M15
G01X4.6481Y-2.7189
M16
G05
T2
G00X3.4749Y-2.2473
M15
G01X3.4985Y-2.2473
M16
G05
G00X10.0999Y-3.1848
M15
G01X10.1235Y-3.1848
M16
G05
G00X8.5999Y-3.6535
M15
G01X8.6235Y-3.6535
M16
G05
G00X1.2249Y-3.9348
M15
G01X1.2485Y-3.9348
M16
G05
G00X10.0999Y-3.9348
M15
G01X10.1235Y-3.9348
M16
G05
G00X3.0999Y-4.5285
M15
G01X3.1235Y-4.5285
M16
G05
G00X7.8499Y-3.7473
M15
G01X7.8735Y-3.7473
M16
G05
G00X3.9112Y-4.5933
M15
G01X3.934Y-4.5994
M16
G05
G00X4.2249Y-3.841
M15
G01X4.2485Y-3.841
M16
G05
G00X10.8499Y-3.1848
M15
G01X10.8735Y-3.1848
M16
G05
G00X7.0999Y-2.341
M15
G01X7.1235Y-2.341
M16
G05
G00X4.2249Y-2.341
M15
G01X4.2485Y-2.341
M16
G05
G00X8.5999Y-2.1535
M15
G01X8.6235Y-2.1535
M16
G05
G00X0.4749Y-3.1848
M15
G01X0.4985Y-3.1848
M16
G05
G00X5.0892Y-4.9171
M15
G01X5.101Y-4.8967
M16
G05
G00X7.4281Y-4.7033
M15
G01X7.451Y-4.6972
M16
G05
G00X7.8499Y-2.2473
M15
G01X7.8735Y-2.2473
M16
G05
G00X4.2249Y-3.091
M15
G01X4.2485Y-3.091
M16
G05
G00X7.0999Y-3.841
M15
G01X7.1235Y-3.841
M16
G05
G00X2.7249Y-2.9035
M15
G01X2.7485Y-2.9035
M16
G05
G00X9.3499Y-2.9973
M15
G01X9.3735Y-2.9973
M16
G05
G00X10.8499Y-2.4348
M15
G01X10.8735Y-2.4348
M16
G05
G00X9.3499Y-3.7473
M15
G01X9.3735Y-3.7473
M16
G05
G00X1.9749Y-3.7473
M15
G01X1.9985Y-3.7473
M16
G05
G00X7.0999Y-3.091
M15
G01X7.1235Y-3.091
M16
G05
G00X0.4749Y-3.9348
M15
G01X0.4985Y-3.9348
M16
G05
G00X2.7249Y-2.1535
M15
G01X2.7485Y-2.1535
M16
G05
G00X1.2249Y-2.4348
M15
G01X1.2485Y-2.4348
M16
G05
G00X8.2249Y-4.5285
M15
G01X8.2485Y-4.5285
M16
G05
G00X6.4482Y-4.5489
M15
G01X6.46Y-4.5694
M16
G05
G00X2.7249Y-3.6535
M15
G01X2.7485Y-3.6535
M16
G05
G00X10.8499Y-3.9348
M15
G01X10.8735Y-3.9348
M16
G05
G00X3.4749Y-2.9973
M15
G01X3.4985Y-2.9973
M16
G05
G00X1.9749Y-2.9973
M15
G01X1.9985Y-2.9973
M16
G05
G00X7.8499Y-2.9973
M15
G01X7.8735Y-2.9973
M16
G05
G00X9.3499Y-2.2473
M15
G01X9.3735Y-2.2473
M16
G05
G00X0.4749Y-2.4348
M15
G01X0.4985Y-2.4348
M16
G05
G00X8.5999Y-2.9035
M15
G01X8.6235Y-2.9035
M16
G05
G00X10.0999Y-2.4348
M15
G01X10.1235Y-2.4348
M16
G05
G00X1.2249Y-3.1848
M15
G01X1.2485Y-3.1848
M16
G05
G00X3.4749Y-3.7473
M15
G01X3.4985Y-3.7473
M16
G05
G00X1.9749Y-2.2473
M15
G01X1.9985Y-2.2473
M16
G05
T3
G00X5.0799Y-1.7392
M15
G01X5.0799Y-1.7156
M16
G05
G00X5.0799Y-1.9136
M15
G01X5.0799Y-1.8703
M16
G05
G00X5.4201Y-1.7392
M15
G01X5.4201Y-1.7156
M16
G05
G00X5.4201Y-1.9136
M15
G01X5.4201Y-1.8703
M16
G05
G00X6.3299Y-1.7392
M15
G01X6.3299Y-1.7156
M16
G05
G00X6.3299Y-1.9136
M15
G01X6.3299Y-1.8703
M16
G05
G00X6.6701Y-1.7392
M15
G01X6.6701Y-1.7156
M16
G05
G00X6.6701Y-1.9136
M15
G01X6.6701Y-1.8703
M16
G05
T5
G00X6.3076Y-3.7923
M15
G01X6.3273Y-3.7923
M16
G05
G00X6.4257Y-3.7923
M15
G01X6.4454Y-3.7923
M16
G05
G00X6.5832Y-3.7923
M15
G01X6.6029Y-3.7923
M16
G05
G00X6.6422Y-3.9577
M15
G01X6.6619Y-3.9577
M16
G05
G00X5.139Y-3.7923
M15
G01X5.1193Y-3.7923
M16
G05
G00X5.1981Y-3.9577
M15
G01X5.1784Y-3.9577
M16
G05
G00X5.3556Y-3.9577
M15
G01X5.3359Y-3.9577
M16
G05
G00X5.4737Y-3.9577
M15
G01X5.454Y-3.9577
M16
G05
T0
M30
