M48
; DRILL file {KiCad (5.1.4)-1} date 4/29/2023 7:21:58 PM
; FORMAT={-:-/ absolute / inch / decimal}
; #@! TF.CreationDate,2023-04-29T19:21:58-04:00
; #@! TF.GenerationSoftware,Kicad,Pcbnew,(5.1.4)-1
; #@! TF.FileFunction,Plated,1,2,PTH
FMAT,2
INCH
T1C0.0315
T2C0.0430
T3C0.0579
%
G90
G05
T1
X4.5Y-2.625
X4.8Y-2.625
X4.5Y-3.325
X4.8Y-3.325
X4.5Y-4.025
X4.8Y-4.025
X4.5Y-2.925
X4.8Y-2.925
X4.5Y-3.625
X4.8Y-3.625
X4.5Y-4.125
X4.8Y-4.125
X4.5Y-4.225
X4.8Y-4.225
X4.5Y-2.825
X4.8Y-2.825
X4.5Y-3.825
X4.8Y-3.825
X4.5Y-2.725
X4.8Y-2.725
X4.5Y-3.925
X4.8Y-3.925
X4.5Y-3.125
X4.8Y-3.125
X4.5Y-3.725
X4.8Y-3.725
X4.5Y-3.025
X4.8Y-3.025
X4.5Y-3.425
X4.8Y-3.425
X4.5Y-3.525
X4.8Y-3.525
X4.5Y-3.225
X4.8Y-3.225
T2
X4.3563Y-1.37
X4.3563Y-1.47
X4.3563Y-1.57
X4.3563Y-1.67
X4.3563Y-1.77
X4.3563Y-1.87
X4.3563Y-1.97
X4.3563Y-2.07
X4.3563Y-2.17
X4.3563Y-2.27
X4.3563Y-2.37
X4.3563Y-2.47
X4.4562Y-2.27
X4.5562Y-2.27
X4.6562Y-2.27
X4.9562Y-1.37
X4.9562Y-1.47
X4.9562Y-1.57
X4.9562Y-1.67
X4.9562Y-1.77
X4.9562Y-1.87
X4.9562Y-1.97
X4.9562Y-2.07
X4.9562Y-2.17
X4.9562Y-2.27
X4.9562Y-2.37
X4.9562Y-2.47
T3
X2.975Y-2.9937
X3.225Y-2.8937
X3.725Y-2.6187
X3.975Y-2.5187
X1.475Y-2.2437
X1.725Y-2.1437
X2.225Y-1.4937
X2.475Y-1.3938
X2.975Y-3.7437
X3.225Y-3.6437
X2.975Y-4.4937
X3.225Y-4.3937
X2.975Y-2.2437
X3.225Y-2.1437
X3.725Y-1.4937
X3.975Y-1.3938
X1.475Y-2.9937
X1.725Y-2.8937
X1.475Y-3.7437
X1.725Y-3.6437
X1.85Y-4.4937
X2.1Y-4.3937
X3.725Y-4.1187
X3.975Y-4.0187
X2.225Y-3.7437
X2.475Y-3.6437
X2.225Y-2.9937
X2.475Y-2.8937
X2.225Y-2.2437
X2.475Y-2.1437
X2.975Y-1.4937
X3.225Y-1.3938
X1.475Y-1.4937
X1.725Y-1.3938
T0
M30
