<?xml version="1.0" standalone="no"?>
 <!DOCTYPE svg PUBLIC "-//W3C//DTD SVG 1.1//EN" 
 "http://www.w3.org/Graphics/SVG/1.1/DTD/svg11.dtd"> 
<svg xmlns="http://www.w3.org/2000/svg" version="1.1" 
    width="29.7002cm" height="21.0007cm" viewBox="0 0 116930 82680 ">
<title>SVG Picture created as honk40-F_Paste.svg date 2023/05/25 20:58:45 </title>
  <desc>Picture generated by PCBNEW </desc>
<g style="fill:#000000; fill-opacity:1;stroke:#000000; stroke-opacity:1;
stroke-linecap:round; stroke-linejoin:round; "
 transform="translate(0 0) scale(1 1)">
</g>
<g style="fill:#000000; fill-opacity:0.0; 
stroke:#000000; stroke-width:-0.000393701; stroke-opacity:1; 
stroke-linecap:round; stroke-linejoin:round;">
<g >
</g>
<g >
</g>
<g >
</g>
<g >
</g>
<g >
</g>
<g >
</g>
<g >
</g>
<g >
</g>
<g >
</g>
<g >
</g>
<g >
</g>
<g style="fill:#000000; fill-opacity:0.0; 
stroke:#000000; stroke-width:-0.000393701; stroke-opacity:1; 
stroke-linecap:round; stroke-linejoin:round;">
</g>
<g style="fill:#000000; fill-opacity:0.0; 
stroke:#000000; stroke-width:0; stroke-opacity:1; 
stroke-linecap:round; stroke-linejoin:round;">
</g>
<g style="fill:#000000; fill-opacity:1.0; 
stroke:#000000; stroke-width:0; stroke-opacity:1; 
stroke-linecap:round; stroke-linejoin:round;">
<path style="fill:#000000; fill-opacity:1.0; 
stroke:#000000; stroke-width:0; stroke-opacity:1; 
stroke-linecap:round; stroke-linejoin:round;fill-rule:evenodd;"
d="M 59927,22493
60281,21879
60997,22293
60643,22906
59927,22493
Z" /> 
<path style="fill:#000000; fill-opacity:1.0; 
stroke:#000000; stroke-width:0; stroke-opacity:1; 
stroke-linecap:round; stroke-linejoin:round;fill-rule:evenodd;"
d="M 60916,23064
61270,22450
61986,22864
61632,23477
60916,23064
Z" /> 
<path style="fill:#000000; fill-opacity:1.0; 
stroke:#000000; stroke-width:0; stroke-opacity:1; 
stroke-linecap:round; stroke-linejoin:round;fill-rule:evenodd;"
d="M 60463,23848
60817,23234
61533,23648
61179,24261
60463,23848
Z" /> 
<path style="fill:#000000; fill-opacity:1.0; 
stroke:#000000; stroke-width:0; stroke-opacity:1; 
stroke-linecap:round; stroke-linejoin:round;fill-rule:evenodd;"
d="M 59474,23277
59828,22663
60544,23077
60190,23691
59474,23277
Z" /> 
</g>
<g >
</g>
<g style="fill:#000000; fill-opacity:1.0; 
stroke:#000000; stroke-width:0; stroke-opacity:1; 
stroke-linecap:round; stroke-linejoin:round;">
<path style="fill:#000000; fill-opacity:1.0; 
stroke:#000000; stroke-width:0; stroke-opacity:1; 
stroke-linecap:round; stroke-linejoin:round;fill-rule:evenodd;"
d="M 48571,23277
48926,22663
49642,23077
49287,23691
48571,23277
Z" /> 
<path style="fill:#000000; fill-opacity:1.0; 
stroke:#000000; stroke-width:0; stroke-opacity:1; 
stroke-linecap:round; stroke-linejoin:round;fill-rule:evenodd;"
d="M 49560,23848
49914,23234
50630,23648
50276,24261
49560,23848
Z" /> 
<path style="fill:#000000; fill-opacity:1.0; 
stroke:#000000; stroke-width:0; stroke-opacity:1; 
stroke-linecap:round; stroke-linejoin:round;fill-rule:evenodd;"
d="M 50013,23064
50367,22450
51083,22864
50729,23477
50013,23064
Z" /> 
<path style="fill:#000000; fill-opacity:1.0; 
stroke:#000000; stroke-width:0; stroke-opacity:1; 
stroke-linecap:round; stroke-linejoin:round;fill-rule:evenodd;"
d="M 49024,22493
49378,21879
50094,22293
49740,22906
49024,22493
Z" /> 
</g>
<g >
</g>
<g style="fill:#000000; fill-opacity:1.0; 
stroke:#000000; stroke-width:0; stroke-opacity:1; 
stroke-linecap:round; stroke-linejoin:round;">
<path style="fill:#000000; fill-opacity:1.0; 
stroke:#000000; stroke-width:0; stroke-opacity:1; 
stroke-linecap:round; stroke-linejoin:round;fill-rule:evenodd;"
d="M 52657,18994
52657,19958
52539,19958
52539,18994
52657,18994
Z" /> 
<path style="fill:#000000; fill-opacity:1.0; 
stroke:#000000; stroke-width:0; stroke-opacity:1; 
stroke-linecap:round; stroke-linejoin:round;fill-rule:evenodd;"
d="M 52460,18994
52460,19958
52342,19958
52342,18994
52460,18994
Z" /> 
<path style="fill:#000000; fill-opacity:1.0; 
stroke:#000000; stroke-width:0; stroke-opacity:1; 
stroke-linecap:round; stroke-linejoin:round;fill-rule:evenodd;"
d="M 52263,18994
52263,19958
52145,19958
52145,18994
52263,18994
Z" /> 
<path style="fill:#000000; fill-opacity:1.0; 
stroke:#000000; stroke-width:0; stroke-opacity:1; 
stroke-linecap:round; stroke-linejoin:round;fill-rule:evenodd;"
d="M 52854,18994
52854,19958
52736,19958
52736,18994
52854,18994
Z" /> 
<path style="fill:#000000; fill-opacity:1.0; 
stroke:#000000; stroke-width:0; stroke-opacity:1; 
stroke-linecap:round; stroke-linejoin:round;fill-rule:evenodd;"
d="M 52066,18994
52066,19958
51948,19958
51948,18994
52066,18994
Z" /> 
<path style="fill:#000000; fill-opacity:1.0; 
stroke:#000000; stroke-width:0; stroke-opacity:1; 
stroke-linecap:round; stroke-linejoin:round;fill-rule:evenodd;"
d="M 53051,18994
53051,19958
52933,19958
52933,18994
53051,18994
Z" /> 
<path style="fill:#000000; fill-opacity:1.0; 
stroke:#000000; stroke-width:0; stroke-opacity:1; 
stroke-linecap:round; stroke-linejoin:round;fill-rule:evenodd;"
d="M 51870,18994
51870,19958
51751,19958
51751,18994
51870,18994
Z" /> 
<path style="fill:#000000; fill-opacity:1.0; 
stroke:#000000; stroke-width:0; stroke-opacity:1; 
stroke-linecap:round; stroke-linejoin:round;fill-rule:evenodd;"
d="M 53248,18994
53248,19958
53129,19958
53129,18994
53248,18994
Z" /> 
<path style="fill:#000000; fill-opacity:1.0; 
stroke:#000000; stroke-width:0; stroke-opacity:1; 
stroke-linecap:round; stroke-linejoin:round;fill-rule:evenodd;"
d="M 53582,18994
53582,19958
53346,19958
53346,18994
53582,18994
Z" /> 
<path style="fill:#000000; fill-opacity:1.0; 
stroke:#000000; stroke-width:0; stroke-opacity:1; 
stroke-linecap:round; stroke-linejoin:round;fill-rule:evenodd;"
d="M 51653,18994
51653,19958
51417,19958
51417,18994
51653,18994
Z" /> 
<path style="fill:#000000; fill-opacity:1.0; 
stroke:#000000; stroke-width:0; stroke-opacity:1; 
stroke-linecap:round; stroke-linejoin:round;fill-rule:evenodd;"
d="M 53887,18994
53887,19958
53651,19958
53651,18994
53887,18994
Z" /> 
<path style="fill:#000000; fill-opacity:1.0; 
stroke:#000000; stroke-width:0; stroke-opacity:1; 
stroke-linecap:round; stroke-linejoin:round;fill-rule:evenodd;"
d="M 51348,18994
51348,19958
51112,19958
51112,18994
51348,18994
Z" /> 
</g>
<g >
</g>
<g style="fill:#000000; fill-opacity:1.0; 
stroke:#000000; stroke-width:0; stroke-opacity:1; 
stroke-linecap:round; stroke-linejoin:round;">
<path style="fill:#000000; fill-opacity:1.0; 
stroke:#000000; stroke-width:0; stroke-opacity:1; 
stroke-linecap:round; stroke-linejoin:round;fill-rule:evenodd;"
d="M 63594,18994
63594,19958
63476,19958
63476,18994
63594,18994
Z" /> 
<path style="fill:#000000; fill-opacity:1.0; 
stroke:#000000; stroke-width:0; stroke-opacity:1; 
stroke-linecap:round; stroke-linejoin:round;fill-rule:evenodd;"
d="M 63398,18994
63398,19958
63280,19958
63280,18994
63398,18994
Z" /> 
<path style="fill:#000000; fill-opacity:1.0; 
stroke:#000000; stroke-width:0; stroke-opacity:1; 
stroke-linecap:round; stroke-linejoin:round;fill-rule:evenodd;"
d="M 63201,18994
63201,19958
63083,19958
63083,18994
63201,18994
Z" /> 
<path style="fill:#000000; fill-opacity:1.0; 
stroke:#000000; stroke-width:0; stroke-opacity:1; 
stroke-linecap:round; stroke-linejoin:round;fill-rule:evenodd;"
d="M 63791,18994
63791,19958
63673,19958
63673,18994
63791,18994
Z" /> 
<path style="fill:#000000; fill-opacity:1.0; 
stroke:#000000; stroke-width:0; stroke-opacity:1; 
stroke-linecap:round; stroke-linejoin:round;fill-rule:evenodd;"
d="M 63004,18994
63004,19958
62886,19958
62886,18994
63004,18994
Z" /> 
<path style="fill:#000000; fill-opacity:1.0; 
stroke:#000000; stroke-width:0; stroke-opacity:1; 
stroke-linecap:round; stroke-linejoin:round;fill-rule:evenodd;"
d="M 63988,18994
63988,19958
63870,19958
63870,18994
63988,18994
Z" /> 
<path style="fill:#000000; fill-opacity:1.0; 
stroke:#000000; stroke-width:0; stroke-opacity:1; 
stroke-linecap:round; stroke-linejoin:round;fill-rule:evenodd;"
d="M 62807,18994
62807,19958
62689,19958
62689,18994
62807,18994
Z" /> 
<path style="fill:#000000; fill-opacity:1.0; 
stroke:#000000; stroke-width:0; stroke-opacity:1; 
stroke-linecap:round; stroke-linejoin:round;fill-rule:evenodd;"
d="M 64185,18994
64185,19958
64067,19958
64067,18994
64185,18994
Z" /> 
<path style="fill:#000000; fill-opacity:1.0; 
stroke:#000000; stroke-width:0; stroke-opacity:1; 
stroke-linecap:round; stroke-linejoin:round;fill-rule:evenodd;"
d="M 64520,18994
64520,19958
64283,19958
64283,18994
64520,18994
Z" /> 
<path style="fill:#000000; fill-opacity:1.0; 
stroke:#000000; stroke-width:0; stroke-opacity:1; 
stroke-linecap:round; stroke-linejoin:round;fill-rule:evenodd;"
d="M 62591,18994
62591,19958
62354,19958
62354,18994
62591,18994
Z" /> 
<path style="fill:#000000; fill-opacity:1.0; 
stroke:#000000; stroke-width:0; stroke-opacity:1; 
stroke-linecap:round; stroke-linejoin:round;fill-rule:evenodd;"
d="M 64825,18994
64825,19958
64589,19958
64589,18994
64825,18994
Z" /> 
<path style="fill:#000000; fill-opacity:1.0; 
stroke:#000000; stroke-width:0; stroke-opacity:1; 
stroke-linecap:round; stroke-linejoin:round;fill-rule:evenodd;"
d="M 62285,18994
62285,19958
62049,19958
62049,18994
62285,18994
Z" /> 
</g>
<g >
</g>
<g style="fill:#000000; fill-opacity:1.0; 
stroke:#000000; stroke-width:0; stroke-opacity:1; 
stroke-linecap:round; stroke-linejoin:round;">
<path style="fill:#000000; fill-opacity:1.0; 
stroke:#000000; stroke-width:0; stroke-opacity:1; 
stroke-linecap:round; stroke-linejoin:round;fill-rule:evenodd;"
d="M 51968,20757
52244,20757
52244,21151
51968,21151
51968,20757
Z" /> 
<path style="fill:#000000; fill-opacity:1.0; 
stroke:#000000; stroke-width:0; stroke-opacity:1; 
stroke-linecap:round; stroke-linejoin:round;fill-rule:evenodd;"
d="M 52755,20757
53031,20757
53031,20994
52755,20994
52755,20757
Z" /> 
<path style="fill:#000000; fill-opacity:1.0; 
stroke:#000000; stroke-width:0; stroke-opacity:1; 
stroke-linecap:round; stroke-linejoin:round;fill-rule:evenodd;"
d="M 51968,21505
52244,21505
52244,21742
51968,21742
51968,21505
Z" /> 
<path style="fill:#000000; fill-opacity:1.0; 
stroke:#000000; stroke-width:0; stroke-opacity:1; 
stroke-linecap:round; stroke-linejoin:round;fill-rule:evenodd;"
d="M 52755,21505
53031,21505
53031,21742
52755,21742
52755,21505
Z" /> 
</g>
<g >
</g>
<g style="fill:#000000; fill-opacity:1.0; 
stroke:#000000; stroke-width:0; stroke-opacity:1; 
stroke-linecap:round; stroke-linejoin:round;">
<path style="fill:#000000; fill-opacity:1.0; 
stroke:#000000; stroke-width:0; stroke-opacity:1; 
stroke-linecap:round; stroke-linejoin:round;fill-rule:evenodd;"
d="M 62906,20757
63181,20757
63181,21151
62906,21151
62906,20757
Z" /> 
<path style="fill:#000000; fill-opacity:1.0; 
stroke:#000000; stroke-width:0; stroke-opacity:1; 
stroke-linecap:round; stroke-linejoin:round;fill-rule:evenodd;"
d="M 63693,20757
63968,20757
63968,20994
63693,20994
63693,20757
Z" /> 
<path style="fill:#000000; fill-opacity:1.0; 
stroke:#000000; stroke-width:0; stroke-opacity:1; 
stroke-linecap:round; stroke-linejoin:round;fill-rule:evenodd;"
d="M 62906,21505
63181,21505
63181,21742
62906,21742
62906,21505
Z" /> 
<path style="fill:#000000; fill-opacity:1.0; 
stroke:#000000; stroke-width:0; stroke-opacity:1; 
stroke-linecap:round; stroke-linejoin:round;fill-rule:evenodd;"
d="M 63693,21505
63968,21505
63968,21742
63693,21742
63693,21505
Z" /> 
</g>
<g >
</g>
<g style="fill:#000000; fill-opacity:1.0; 
stroke:#000000; stroke-width:0; stroke-opacity:1; 
stroke-linecap:round; stroke-linejoin:round;">
<path style="fill:#000000; fill-opacity:1.0; 
stroke:#000000; stroke-width:0; stroke-opacity:1; 
stroke-linecap:round; stroke-linejoin:round;fill-rule:evenodd;"
d="M 65852,30653
66005,30500
66423,30917
66270,31071
65852,30653
Z" /> 
<path style="fill:#000000; fill-opacity:1.0; 
stroke:#000000; stroke-width:0; stroke-opacity:1; 
stroke-linecap:round; stroke-linejoin:round;fill-rule:evenodd;"
d="M 65629,30876
65782,30723
66200,31140
66047,31293
65629,30876
Z" /> 
<path style="fill:#000000; fill-opacity:1.0; 
stroke:#000000; stroke-width:0; stroke-opacity:1; 
stroke-linecap:round; stroke-linejoin:round;fill-rule:evenodd;"
d="M 65407,31098
65560,30945
65977,31363
65824,31516
65407,31098
Z" /> 
<path style="fill:#000000; fill-opacity:1.0; 
stroke:#000000; stroke-width:0; stroke-opacity:1; 
stroke-linecap:round; stroke-linejoin:round;fill-rule:evenodd;"
d="M 65184,31321
65337,31168
65755,31586
65601,31739
65184,31321
Z" /> 
<path style="fill:#000000; fill-opacity:1.0; 
stroke:#000000; stroke-width:0; stroke-opacity:1; 
stroke-linecap:round; stroke-linejoin:round;fill-rule:evenodd;"
d="M 64961,31544
65114,31391
65532,31808
65379,31961
64961,31544
Z" /> 
<path style="fill:#000000; fill-opacity:1.0; 
stroke:#000000; stroke-width:0; stroke-opacity:1; 
stroke-linecap:round; stroke-linejoin:round;fill-rule:evenodd;"
d="M 64738,31767
64892,31613
65309,32031
65156,32184
64738,31767
Z" /> 
<path style="fill:#000000; fill-opacity:1.0; 
stroke:#000000; stroke-width:0; stroke-opacity:1; 
stroke-linecap:round; stroke-linejoin:round;fill-rule:evenodd;"
d="M 64516,31989
64669,31836
65086,32254
64933,32407
64516,31989
Z" /> 
<path style="fill:#000000; fill-opacity:1.0; 
stroke:#000000; stroke-width:0; stroke-opacity:1; 
stroke-linecap:round; stroke-linejoin:round;fill-rule:evenodd;"
d="M 64293,32212
64446,32059
64864,32476
64711,32630
64293,32212
Z" /> 
<path style="fill:#000000; fill-opacity:1.0; 
stroke:#000000; stroke-width:0; stroke-opacity:1; 
stroke-linecap:round; stroke-linejoin:round;fill-rule:evenodd;"
d="M 64070,32435
64223,32282
64641,32699
64488,32852
64070,32435
Z" /> 
<path style="fill:#000000; fill-opacity:1.0; 
stroke:#000000; stroke-width:0; stroke-opacity:1; 
stroke-linecap:round; stroke-linejoin:round;fill-rule:evenodd;"
d="M 63848,32657
64001,32504
64418,32922
64265,33075
63848,32657
Z" /> 
<path style="fill:#000000; fill-opacity:1.0; 
stroke:#000000; stroke-width:0; stroke-opacity:1; 
stroke-linecap:round; stroke-linejoin:round;fill-rule:evenodd;"
d="M 63625,32880
63778,32727
64196,33145
64042,33298
63625,32880
Z" /> 
<path style="fill:#000000; fill-opacity:1.0; 
stroke:#000000; stroke-width:0; stroke-opacity:1; 
stroke-linecap:round; stroke-linejoin:round;fill-rule:evenodd;"
d="M 63096,32727
63249,32880
62832,33298
62678,33145
63096,32727
Z" /> 
<path style="fill:#000000; fill-opacity:1.0; 
stroke:#000000; stroke-width:0; stroke-opacity:1; 
stroke-linecap:round; stroke-linejoin:round;fill-rule:evenodd;"
d="M 62873,32504
63026,32657
62609,33075
62456,32922
62873,32504
Z" /> 
<path style="fill:#000000; fill-opacity:1.0; 
stroke:#000000; stroke-width:0; stroke-opacity:1; 
stroke-linecap:round; stroke-linejoin:round;fill-rule:evenodd;"
d="M 62651,32282
62804,32435
62386,32852
62233,32699
62651,32282
Z" /> 
<path style="fill:#000000; fill-opacity:1.0; 
stroke:#000000; stroke-width:0; stroke-opacity:1; 
stroke-linecap:round; stroke-linejoin:round;fill-rule:evenodd;"
d="M 62428,32059
62581,32212
62163,32630
62010,32476
62428,32059
Z" /> 
<path style="fill:#000000; fill-opacity:1.0; 
stroke:#000000; stroke-width:0; stroke-opacity:1; 
stroke-linecap:round; stroke-linejoin:round;fill-rule:evenodd;"
d="M 62205,31836
62358,31989
61941,32407
61788,32254
62205,31836
Z" /> 
<path style="fill:#000000; fill-opacity:1.0; 
stroke:#000000; stroke-width:0; stroke-opacity:1; 
stroke-linecap:round; stroke-linejoin:round;fill-rule:evenodd;"
d="M 61982,31613
62136,31767
61718,32184
61565,32031
61982,31613
Z" /> 
<path style="fill:#000000; fill-opacity:1.0; 
stroke:#000000; stroke-width:0; stroke-opacity:1; 
stroke-linecap:round; stroke-linejoin:round;fill-rule:evenodd;"
d="M 61760,31391
61913,31544
61495,31961
61342,31808
61760,31391
Z" /> 
<path style="fill:#000000; fill-opacity:1.0; 
stroke:#000000; stroke-width:0; stroke-opacity:1; 
stroke-linecap:round; stroke-linejoin:round;fill-rule:evenodd;"
d="M 61537,31168
61690,31321
61273,31739
61119,31586
61537,31168
Z" /> 
<path style="fill:#000000; fill-opacity:1.0; 
stroke:#000000; stroke-width:0; stroke-opacity:1; 
stroke-linecap:round; stroke-linejoin:round;fill-rule:evenodd;"
d="M 61314,30945
61467,31098
61050,31516
60897,31363
61314,30945
Z" /> 
<path style="fill:#000000; fill-opacity:1.0; 
stroke:#000000; stroke-width:0; stroke-opacity:1; 
stroke-linecap:round; stroke-linejoin:round;fill-rule:evenodd;"
d="M 61092,30723
61245,30876
60827,31293
60674,31140
61092,30723
Z" /> 
<path style="fill:#000000; fill-opacity:1.0; 
stroke:#000000; stroke-width:0; stroke-opacity:1; 
stroke-linecap:round; stroke-linejoin:round;fill-rule:evenodd;"
d="M 60869,30500
61022,30653
60604,31071
60451,30917
60869,30500
Z" /> 
<path style="fill:#000000; fill-opacity:1.0; 
stroke:#000000; stroke-width:0; stroke-opacity:1; 
stroke-linecap:round; stroke-linejoin:round;fill-rule:evenodd;"
d="M 60451,29707
60604,29553
61022,29971
60869,30124
60451,29707
Z" /> 
<path style="fill:#000000; fill-opacity:1.0; 
stroke:#000000; stroke-width:0; stroke-opacity:1; 
stroke-linecap:round; stroke-linejoin:round;fill-rule:evenodd;"
d="M 60674,29484
60827,29331
61245,29748
61092,29901
60674,29484
Z" /> 
<path style="fill:#000000; fill-opacity:1.0; 
stroke:#000000; stroke-width:0; stroke-opacity:1; 
stroke-linecap:round; stroke-linejoin:round;fill-rule:evenodd;"
d="M 60897,29261
61050,29108
61467,29526
61314,29679
60897,29261
Z" /> 
<path style="fill:#000000; fill-opacity:1.0; 
stroke:#000000; stroke-width:0; stroke-opacity:1; 
stroke-linecap:round; stroke-linejoin:round;fill-rule:evenodd;"
d="M 61119,29038
61273,28885
61690,29303
61537,29456
61119,29038
Z" /> 
<path style="fill:#000000; fill-opacity:1.0; 
stroke:#000000; stroke-width:0; stroke-opacity:1; 
stroke-linecap:round; stroke-linejoin:round;fill-rule:evenodd;"
d="M 61342,28816
61495,28663
61913,29080
61760,29233
61342,28816
Z" /> 
<path style="fill:#000000; fill-opacity:1.0; 
stroke:#000000; stroke-width:0; stroke-opacity:1; 
stroke-linecap:round; stroke-linejoin:round;fill-rule:evenodd;"
d="M 61565,28593
61718,28440
62136,28857
61982,29011
61565,28593
Z" /> 
<path style="fill:#000000; fill-opacity:1.0; 
stroke:#000000; stroke-width:0; stroke-opacity:1; 
stroke-linecap:round; stroke-linejoin:round;fill-rule:evenodd;"
d="M 61788,28370
61941,28217
62358,28635
62205,28788
61788,28370
Z" /> 
<path style="fill:#000000; fill-opacity:1.0; 
stroke:#000000; stroke-width:0; stroke-opacity:1; 
stroke-linecap:round; stroke-linejoin:round;fill-rule:evenodd;"
d="M 62010,28148
62163,27994
62581,28412
62428,28565
62010,28148
Z" /> 
<path style="fill:#000000; fill-opacity:1.0; 
stroke:#000000; stroke-width:0; stroke-opacity:1; 
stroke-linecap:round; stroke-linejoin:round;fill-rule:evenodd;"
d="M 62233,27925
62386,27772
62804,28189
62651,28342
62233,27925
Z" /> 
<path style="fill:#000000; fill-opacity:1.0; 
stroke:#000000; stroke-width:0; stroke-opacity:1; 
stroke-linecap:round; stroke-linejoin:round;fill-rule:evenodd;"
d="M 62456,27702
62609,27549
63026,27967
62873,28120
62456,27702
Z" /> 
<path style="fill:#000000; fill-opacity:1.0; 
stroke:#000000; stroke-width:0; stroke-opacity:1; 
stroke-linecap:round; stroke-linejoin:round;fill-rule:evenodd;"
d="M 62678,27479
62832,27326
63249,27744
63096,27897
62678,27479
Z" /> 
<path style="fill:#000000; fill-opacity:1.0; 
stroke:#000000; stroke-width:0; stroke-opacity:1; 
stroke-linecap:round; stroke-linejoin:round;fill-rule:evenodd;"
d="M 64042,27326
64196,27479
63778,27897
63625,27744
64042,27326
Z" /> 
<path style="fill:#000000; fill-opacity:1.0; 
stroke:#000000; stroke-width:0; stroke-opacity:1; 
stroke-linecap:round; stroke-linejoin:round;fill-rule:evenodd;"
d="M 64265,27549
64418,27702
64001,28120
63848,27967
64265,27549
Z" /> 
<path style="fill:#000000; fill-opacity:1.0; 
stroke:#000000; stroke-width:0; stroke-opacity:1; 
stroke-linecap:round; stroke-linejoin:round;fill-rule:evenodd;"
d="M 64488,27772
64641,27925
64223,28342
64070,28189
64488,27772
Z" /> 
<path style="fill:#000000; fill-opacity:1.0; 
stroke:#000000; stroke-width:0; stroke-opacity:1; 
stroke-linecap:round; stroke-linejoin:round;fill-rule:evenodd;"
d="M 64711,27994
64864,28148
64446,28565
64293,28412
64711,27994
Z" /> 
<path style="fill:#000000; fill-opacity:1.0; 
stroke:#000000; stroke-width:0; stroke-opacity:1; 
stroke-linecap:round; stroke-linejoin:round;fill-rule:evenodd;"
d="M 64933,28217
65086,28370
64669,28788
64516,28635
64933,28217
Z" /> 
<path style="fill:#000000; fill-opacity:1.0; 
stroke:#000000; stroke-width:0; stroke-opacity:1; 
stroke-linecap:round; stroke-linejoin:round;fill-rule:evenodd;"
d="M 65156,28440
65309,28593
64892,29011
64738,28857
65156,28440
Z" /> 
<path style="fill:#000000; fill-opacity:1.0; 
stroke:#000000; stroke-width:0; stroke-opacity:1; 
stroke-linecap:round; stroke-linejoin:round;fill-rule:evenodd;"
d="M 65379,28663
65532,28816
65114,29233
64961,29080
65379,28663
Z" /> 
<path style="fill:#000000; fill-opacity:1.0; 
stroke:#000000; stroke-width:0; stroke-opacity:1; 
stroke-linecap:round; stroke-linejoin:round;fill-rule:evenodd;"
d="M 65601,28885
65755,29038
65337,29456
65184,29303
65601,28885
Z" /> 
<path style="fill:#000000; fill-opacity:1.0; 
stroke:#000000; stroke-width:0; stroke-opacity:1; 
stroke-linecap:round; stroke-linejoin:round;fill-rule:evenodd;"
d="M 65824,29108
65977,29261
65560,29679
65407,29526
65824,29108
Z" /> 
<path style="fill:#000000; fill-opacity:1.0; 
stroke:#000000; stroke-width:0; stroke-opacity:1; 
stroke-linecap:round; stroke-linejoin:round;fill-rule:evenodd;"
d="M 66047,29331
66200,29484
65782,29901
65629,29748
66047,29331
Z" /> 
<path style="fill:#000000; fill-opacity:1.0; 
stroke:#000000; stroke-width:0; stroke-opacity:1; 
stroke-linecap:round; stroke-linejoin:round;fill-rule:evenodd;"
d="M 66270,29553
66423,29707
66005,30124
65852,29971
66270,29553
Z" /> 
</g>
<g >
</g>
<g style="fill:#000000; fill-opacity:1.0; 
stroke:#000000; stroke-width:0; stroke-opacity:1; 
stroke-linecap:round; stroke-linejoin:round;">
<path style="fill:#000000; fill-opacity:1.0; 
stroke:#000000; stroke-width:0; stroke-opacity:1; 
stroke-linecap:round; stroke-linejoin:round;fill-rule:evenodd;"
d="M 55332,29553
55485,29707
55068,30124
54915,29971
55332,29553
Z" /> 
<path style="fill:#000000; fill-opacity:1.0; 
stroke:#000000; stroke-width:0; stroke-opacity:1; 
stroke-linecap:round; stroke-linejoin:round;fill-rule:evenodd;"
d="M 55109,29331
55263,29484
54845,29901
54692,29748
55109,29331
Z" /> 
<path style="fill:#000000; fill-opacity:1.0; 
stroke:#000000; stroke-width:0; stroke-opacity:1; 
stroke-linecap:round; stroke-linejoin:round;fill-rule:evenodd;"
d="M 54887,29108
55040,29261
54622,29679
54469,29526
54887,29108
Z" /> 
<path style="fill:#000000; fill-opacity:1.0; 
stroke:#000000; stroke-width:0; stroke-opacity:1; 
stroke-linecap:round; stroke-linejoin:round;fill-rule:evenodd;"
d="M 54664,28885
54817,29038
54400,29456
54246,29303
54664,28885
Z" /> 
<path style="fill:#000000; fill-opacity:1.0; 
stroke:#000000; stroke-width:0; stroke-opacity:1; 
stroke-linecap:round; stroke-linejoin:round;fill-rule:evenodd;"
d="M 54441,28663
54594,28816
54177,29233
54024,29080
54441,28663
Z" /> 
<path style="fill:#000000; fill-opacity:1.0; 
stroke:#000000; stroke-width:0; stroke-opacity:1; 
stroke-linecap:round; stroke-linejoin:round;fill-rule:evenodd;"
d="M 54219,28440
54372,28593
53954,29011
53801,28857
54219,28440
Z" /> 
<path style="fill:#000000; fill-opacity:1.0; 
stroke:#000000; stroke-width:0; stroke-opacity:1; 
stroke-linecap:round; stroke-linejoin:round;fill-rule:evenodd;"
d="M 53996,28217
54149,28370
53731,28788
53578,28635
53996,28217
Z" /> 
<path style="fill:#000000; fill-opacity:1.0; 
stroke:#000000; stroke-width:0; stroke-opacity:1; 
stroke-linecap:round; stroke-linejoin:round;fill-rule:evenodd;"
d="M 53773,27994
53926,28148
53509,28565
53356,28412
53773,27994
Z" /> 
<path style="fill:#000000; fill-opacity:1.0; 
stroke:#000000; stroke-width:0; stroke-opacity:1; 
stroke-linecap:round; stroke-linejoin:round;fill-rule:evenodd;"
d="M 53550,27772
53704,27925
53286,28342
53133,28189
53550,27772
Z" /> 
<path style="fill:#000000; fill-opacity:1.0; 
stroke:#000000; stroke-width:0; stroke-opacity:1; 
stroke-linecap:round; stroke-linejoin:round;fill-rule:evenodd;"
d="M 53328,27549
53481,27702
53063,28120
52910,27967
53328,27549
Z" /> 
<path style="fill:#000000; fill-opacity:1.0; 
stroke:#000000; stroke-width:0; stroke-opacity:1; 
stroke-linecap:round; stroke-linejoin:round;fill-rule:evenodd;"
d="M 53105,27326
53258,27479
52841,27897
52687,27744
53105,27326
Z" /> 
<path style="fill:#000000; fill-opacity:1.0; 
stroke:#000000; stroke-width:0; stroke-opacity:1; 
stroke-linecap:round; stroke-linejoin:round;fill-rule:evenodd;"
d="M 51741,27479
51894,27326
52312,27744
52158,27897
51741,27479
Z" /> 
<path style="fill:#000000; fill-opacity:1.0; 
stroke:#000000; stroke-width:0; stroke-opacity:1; 
stroke-linecap:round; stroke-linejoin:round;fill-rule:evenodd;"
d="M 51518,27702
51671,27549
52089,27967
51936,28120
51518,27702
Z" /> 
<path style="fill:#000000; fill-opacity:1.0; 
stroke:#000000; stroke-width:0; stroke-opacity:1; 
stroke-linecap:round; stroke-linejoin:round;fill-rule:evenodd;"
d="M 51295,27925
51449,27772
51866,28189
51713,28342
51295,27925
Z" /> 
<path style="fill:#000000; fill-opacity:1.0; 
stroke:#000000; stroke-width:0; stroke-opacity:1; 
stroke-linecap:round; stroke-linejoin:round;fill-rule:evenodd;"
d="M 51073,28148
51226,27994
51643,28412
51490,28565
51073,28148
Z" /> 
<path style="fill:#000000; fill-opacity:1.0; 
stroke:#000000; stroke-width:0; stroke-opacity:1; 
stroke-linecap:round; stroke-linejoin:round;fill-rule:evenodd;"
d="M 50850,28370
51003,28217
51421,28635
51268,28788
50850,28370
Z" /> 
<path style="fill:#000000; fill-opacity:1.0; 
stroke:#000000; stroke-width:0; stroke-opacity:1; 
stroke-linecap:round; stroke-linejoin:round;fill-rule:evenodd;"
d="M 50627,28593
50780,28440
51198,28857
51045,29011
50627,28593
Z" /> 
<path style="fill:#000000; fill-opacity:1.0; 
stroke:#000000; stroke-width:0; stroke-opacity:1; 
stroke-linecap:round; stroke-linejoin:round;fill-rule:evenodd;"
d="M 50405,28816
50558,28663
50975,29080
50822,29233
50405,28816
Z" /> 
<path style="fill:#000000; fill-opacity:1.0; 
stroke:#000000; stroke-width:0; stroke-opacity:1; 
stroke-linecap:round; stroke-linejoin:round;fill-rule:evenodd;"
d="M 50182,29038
50335,28885
50753,29303
50599,29456
50182,29038
Z" /> 
<path style="fill:#000000; fill-opacity:1.0; 
stroke:#000000; stroke-width:0; stroke-opacity:1; 
stroke-linecap:round; stroke-linejoin:round;fill-rule:evenodd;"
d="M 49959,29261
50112,29108
50530,29526
50377,29679
49959,29261
Z" /> 
<path style="fill:#000000; fill-opacity:1.0; 
stroke:#000000; stroke-width:0; stroke-opacity:1; 
stroke-linecap:round; stroke-linejoin:round;fill-rule:evenodd;"
d="M 49736,29484
49890,29331
50307,29748
50154,29901
49736,29484
Z" /> 
<path style="fill:#000000; fill-opacity:1.0; 
stroke:#000000; stroke-width:0; stroke-opacity:1; 
stroke-linecap:round; stroke-linejoin:round;fill-rule:evenodd;"
d="M 49514,29707
49667,29553
50084,29971
49931,30124
49514,29707
Z" /> 
<path style="fill:#000000; fill-opacity:1.0; 
stroke:#000000; stroke-width:0; stroke-opacity:1; 
stroke-linecap:round; stroke-linejoin:round;fill-rule:evenodd;"
d="M 49931,30500
50084,30653
49667,31071
49514,30917
49931,30500
Z" /> 
<path style="fill:#000000; fill-opacity:1.0; 
stroke:#000000; stroke-width:0; stroke-opacity:1; 
stroke-linecap:round; stroke-linejoin:round;fill-rule:evenodd;"
d="M 50154,30723
50307,30876
49890,31293
49736,31140
50154,30723
Z" /> 
<path style="fill:#000000; fill-opacity:1.0; 
stroke:#000000; stroke-width:0; stroke-opacity:1; 
stroke-linecap:round; stroke-linejoin:round;fill-rule:evenodd;"
d="M 50377,30945
50530,31098
50112,31516
49959,31363
50377,30945
Z" /> 
<path style="fill:#000000; fill-opacity:1.0; 
stroke:#000000; stroke-width:0; stroke-opacity:1; 
stroke-linecap:round; stroke-linejoin:round;fill-rule:evenodd;"
d="M 50599,31168
50753,31321
50335,31739
50182,31586
50599,31168
Z" /> 
<path style="fill:#000000; fill-opacity:1.0; 
stroke:#000000; stroke-width:0; stroke-opacity:1; 
stroke-linecap:round; stroke-linejoin:round;fill-rule:evenodd;"
d="M 50822,31391
50975,31544
50558,31961
50405,31808
50822,31391
Z" /> 
<path style="fill:#000000; fill-opacity:1.0; 
stroke:#000000; stroke-width:0; stroke-opacity:1; 
stroke-linecap:round; stroke-linejoin:round;fill-rule:evenodd;"
d="M 51045,31613
51198,31767
50780,32184
50627,32031
51045,31613
Z" /> 
<path style="fill:#000000; fill-opacity:1.0; 
stroke:#000000; stroke-width:0; stroke-opacity:1; 
stroke-linecap:round; stroke-linejoin:round;fill-rule:evenodd;"
d="M 51268,31836
51421,31989
51003,32407
50850,32254
51268,31836
Z" /> 
<path style="fill:#000000; fill-opacity:1.0; 
stroke:#000000; stroke-width:0; stroke-opacity:1; 
stroke-linecap:round; stroke-linejoin:round;fill-rule:evenodd;"
d="M 51490,32059
51643,32212
51226,32630
51073,32476
51490,32059
Z" /> 
<path style="fill:#000000; fill-opacity:1.0; 
stroke:#000000; stroke-width:0; stroke-opacity:1; 
stroke-linecap:round; stroke-linejoin:round;fill-rule:evenodd;"
d="M 51713,32282
51866,32435
51449,32852
51295,32699
51713,32282
Z" /> 
<path style="fill:#000000; fill-opacity:1.0; 
stroke:#000000; stroke-width:0; stroke-opacity:1; 
stroke-linecap:round; stroke-linejoin:round;fill-rule:evenodd;"
d="M 51936,32504
52089,32657
51671,33075
51518,32922
51936,32504
Z" /> 
<path style="fill:#000000; fill-opacity:1.0; 
stroke:#000000; stroke-width:0; stroke-opacity:1; 
stroke-linecap:round; stroke-linejoin:round;fill-rule:evenodd;"
d="M 52158,32727
52312,32880
51894,33298
51741,33145
52158,32727
Z" /> 
<path style="fill:#000000; fill-opacity:1.0; 
stroke:#000000; stroke-width:0; stroke-opacity:1; 
stroke-linecap:round; stroke-linejoin:round;fill-rule:evenodd;"
d="M 52687,32880
52841,32727
53258,33145
53105,33298
52687,32880
Z" /> 
<path style="fill:#000000; fill-opacity:1.0; 
stroke:#000000; stroke-width:0; stroke-opacity:1; 
stroke-linecap:round; stroke-linejoin:round;fill-rule:evenodd;"
d="M 52910,32657
53063,32504
53481,32922
53328,33075
52910,32657
Z" /> 
<path style="fill:#000000; fill-opacity:1.0; 
stroke:#000000; stroke-width:0; stroke-opacity:1; 
stroke-linecap:round; stroke-linejoin:round;fill-rule:evenodd;"
d="M 53133,32435
53286,32282
53704,32699
53550,32852
53133,32435
Z" /> 
<path style="fill:#000000; fill-opacity:1.0; 
stroke:#000000; stroke-width:0; stroke-opacity:1; 
stroke-linecap:round; stroke-linejoin:round;fill-rule:evenodd;"
d="M 53356,32212
53509,32059
53926,32476
53773,32630
53356,32212
Z" /> 
<path style="fill:#000000; fill-opacity:1.0; 
stroke:#000000; stroke-width:0; stroke-opacity:1; 
stroke-linecap:round; stroke-linejoin:round;fill-rule:evenodd;"
d="M 53578,31989
53731,31836
54149,32254
53996,32407
53578,31989
Z" /> 
<path style="fill:#000000; fill-opacity:1.0; 
stroke:#000000; stroke-width:0; stroke-opacity:1; 
stroke-linecap:round; stroke-linejoin:round;fill-rule:evenodd;"
d="M 53801,31767
53954,31613
54372,32031
54219,32184
53801,31767
Z" /> 
<path style="fill:#000000; fill-opacity:1.0; 
stroke:#000000; stroke-width:0; stroke-opacity:1; 
stroke-linecap:round; stroke-linejoin:round;fill-rule:evenodd;"
d="M 54024,31544
54177,31391
54594,31808
54441,31961
54024,31544
Z" /> 
<path style="fill:#000000; fill-opacity:1.0; 
stroke:#000000; stroke-width:0; stroke-opacity:1; 
stroke-linecap:round; stroke-linejoin:round;fill-rule:evenodd;"
d="M 54246,31321
54400,31168
54817,31586
54664,31739
54246,31321
Z" /> 
<path style="fill:#000000; fill-opacity:1.0; 
stroke:#000000; stroke-width:0; stroke-opacity:1; 
stroke-linecap:round; stroke-linejoin:round;fill-rule:evenodd;"
d="M 54469,31098
54622,30945
55040,31363
54887,31516
54469,31098
Z" /> 
<path style="fill:#000000; fill-opacity:1.0; 
stroke:#000000; stroke-width:0; stroke-opacity:1; 
stroke-linecap:round; stroke-linejoin:round;fill-rule:evenodd;"
d="M 54692,30876
54845,30723
55263,31140
55109,31293
54692,30876
Z" /> 
<path style="fill:#000000; fill-opacity:1.0; 
stroke:#000000; stroke-width:0; stroke-opacity:1; 
stroke-linecap:round; stroke-linejoin:round;fill-rule:evenodd;"
d="M 54915,30653
55068,30500
55485,30917
55332,31071
54915,30653
Z" /> 
</g>
<g >
</g>
<g >
</g>
<g >
</g>
<g style="fill:#000000; fill-opacity:1.0; 
stroke:#000000; stroke-width:0; stroke-opacity:1; 
stroke-linecap:round; stroke-linejoin:round;">
<path style="fill:#000000; fill-opacity:1.0; 
stroke:#000000; stroke-width:0; stroke-opacity:1; 
stroke-linecap:round; stroke-linejoin:round;fill-rule:evenodd;"
d="M 54109,20974
54118,20976
54127,20978
54137,20981
54145,20986
54154,20990
54161,20996
54169,21003
54175,21010
54181,21018
54186,21026
54190,21035
54193,21044
54195,21053
54197,21063
54197,21072
54197,21427
54197,21436
54195,21446
54193,21455
54190,21464
54186,21473
54181,21481
54175,21489
54169,21496
54161,21503
54154,21509
54145,21513
54137,21518
54127,21521
54118,21523
54109,21525
54099,21525
53843,21525
53833,21525
53824,21523
53814,21521
53805,21518
53797,21513
53788,21509
53781,21503
53773,21496
53767,21489
53761,21481
53756,21473
53752,21464
53749,21455
53746,21446
53745,21436
53745,21427
53745,21072
53745,21063
53746,21053
53749,21044
53752,21035
53756,21026
53761,21018
53767,21010
53773,21003
53781,20996
53788,20990
53797,20986
53805,20981
53814,20978
53824,20976
53833,20974
53843,20974
54099,20974
54109,20974
Z" /> 
<path style="fill:#000000; fill-opacity:1.0; 
stroke:#000000; stroke-width:0; stroke-opacity:1; 
stroke-linecap:round; stroke-linejoin:round;fill-rule:evenodd;"
d="M 54916,20974
54925,20976
54935,20978
54944,20981
54952,20986
54961,20990
54968,20996
54976,21003
54982,21010
54988,21018
54993,21026
54997,21035
55000,21044
55003,21053
55004,21063
55004,21072
55004,21427
55004,21436
55003,21446
55000,21455
54997,21464
54993,21473
54988,21481
54982,21489
54976,21496
54968,21503
54961,21509
54952,21513
54944,21518
54935,21521
54925,21523
54916,21525
54906,21525
54650,21525
54640,21525
54631,21523
54622,21521
54612,21518
54604,21513
54595,21509
54588,21503
54580,21496
54574,21489
54568,21481
54563,21473
54559,21464
54556,21455
54554,21446
54552,21436
54552,21427
54552,21072
54552,21063
54554,21053
54556,21044
54559,21035
54563,21026
54568,21018
54574,21010
54580,21003
54588,20996
54595,20990
54604,20986
54612,20981
54622,20978
54631,20976
54640,20974
54650,20974
54906,20974
54916,20974
Z" /> 
</g>
<g >
</g>
<g style="fill:#000000; fill-opacity:1.0; 
stroke:#000000; stroke-width:0; stroke-opacity:1; 
stroke-linecap:round; stroke-linejoin:round;">
<path style="fill:#000000; fill-opacity:1.0; 
stroke:#000000; stroke-width:0; stroke-opacity:1; 
stroke-linecap:round; stroke-linejoin:round;fill-rule:evenodd;"
d="M 51166,20974
51175,20976
51185,20978
51194,20981
51202,20986
51211,20990
51218,20996
51226,21003
51232,21010
51238,21018
51243,21026
51247,21035
51250,21044
51253,21053
51254,21063
51254,21072
51254,21427
51254,21436
51253,21446
51250,21455
51247,21464
51243,21473
51238,21481
51232,21489
51226,21496
51218,21503
51211,21509
51202,21513
51194,21518
51185,21521
51175,21523
51166,21525
51156,21525
50900,21525
50890,21525
50881,21523
50872,21521
50862,21518
50854,21513
50845,21509
50838,21503
50830,21496
50824,21489
50818,21481
50813,21473
50809,21464
50806,21455
50804,21446
50802,21436
50802,21427
50802,21072
50802,21063
50804,21053
50806,21044
50809,21035
50813,21026
50818,21018
50824,21010
50830,21003
50838,20996
50845,20990
50854,20986
50862,20981
50872,20978
50881,20976
50890,20974
50900,20974
51156,20974
51166,20974
Z" /> 
<path style="fill:#000000; fill-opacity:1.0; 
stroke:#000000; stroke-width:0; stroke-opacity:1; 
stroke-linecap:round; stroke-linejoin:round;fill-rule:evenodd;"
d="M 50359,20974
50368,20976
50377,20978
50387,20981
50395,20986
50404,20990
50411,20996
50419,21003
50425,21010
50431,21018
50436,21026
50440,21035
50443,21044
50445,21053
50447,21063
50447,21072
50447,21427
50447,21436
50445,21446
50443,21455
50440,21464
50436,21473
50431,21481
50425,21489
50419,21496
50411,21503
50404,21509
50395,21513
50387,21518
50377,21521
50368,21523
50359,21525
50349,21525
50093,21525
50083,21525
50074,21523
50064,21521
50055,21518
50047,21513
50038,21509
50031,21503
50023,21496
50017,21489
50011,21481
50006,21473
50002,21464
49999,21455
49996,21446
49995,21436
49995,21427
49995,21072
49995,21063
49996,21053
49999,21044
50002,21035
50006,21026
50011,21018
50017,21010
50023,21003
50031,20996
50038,20990
50047,20986
50055,20981
50064,20978
50074,20976
50083,20974
50093,20974
50349,20974
50359,20974
Z" /> 
</g>
<g >
</g>
<g style="fill:#000000; fill-opacity:1.0; 
stroke:#000000; stroke-width:0; stroke-opacity:1; 
stroke-linecap:round; stroke-linejoin:round;">
<path style="fill:#000000; fill-opacity:1.0; 
stroke:#000000; stroke-width:0; stroke-opacity:1; 
stroke-linecap:round; stroke-linejoin:round;fill-rule:evenodd;"
d="M 52286,22495
52296,22496
52305,22499
52314,22502
52323,22506
52331,22511
52339,22517
52346,22523
52353,22531
52359,22538
52363,22547
52368,22555
52371,22564
52373,22574
52375,22583
52375,22593
52375,22849
52375,22859
52373,22868
52371,22877
52368,22887
52363,22895
52359,22904
52353,22911
52346,22919
52339,22925
52331,22931
52323,22936
52314,22940
52305,22943
52296,22945
52286,22947
52277,22947
51922,22947
51913,22947
51903,22945
51894,22943
51885,22940
51876,22936
51868,22931
51860,22925
51853,22919
51846,22911
51840,22904
51836,22895
51831,22887
51828,22877
51826,22868
51824,22859
51824,22849
51824,22593
51824,22583
51826,22574
51828,22564
51831,22555
51836,22547
51840,22538
51846,22531
51853,22523
51860,22517
51868,22511
51876,22506
51885,22502
51894,22499
51903,22496
51913,22495
51922,22495
52277,22495
52286,22495
Z" /> 
<path style="fill:#000000; fill-opacity:1.0; 
stroke:#000000; stroke-width:0; stroke-opacity:1; 
stroke-linecap:round; stroke-linejoin:round;fill-rule:evenodd;"
d="M 52286,23302
52296,23304
52305,23306
52314,23309
52323,23313
52331,23318
52339,23324
52346,23330
52353,23338
52359,23345
52363,23354
52368,23362
52371,23372
52373,23381
52375,23390
52375,23400
52375,23656
52375,23666
52373,23675
52371,23685
52368,23694
52363,23702
52359,23711
52353,23718
52346,23726
52339,23732
52331,23738
52323,23743
52314,23747
52305,23750
52296,23753
52286,23754
52277,23754
51922,23754
51913,23754
51903,23753
51894,23750
51885,23747
51876,23743
51868,23738
51860,23732
51853,23726
51846,23718
51840,23711
51836,23702
51831,23694
51828,23685
51826,23675
51824,23666
51824,23656
51824,23400
51824,23390
51826,23381
51828,23372
51831,23362
51836,23354
51840,23345
51846,23338
51853,23330
51860,23324
51868,23318
51876,23313
51885,23309
51894,23306
51903,23304
51913,23302
51922,23302
52277,23302
52286,23302
Z" /> 
</g>
<g >
</g>
<g style="fill:#000000; fill-opacity:1.0; 
stroke:#000000; stroke-width:0; stroke-opacity:1; 
stroke-linecap:round; stroke-linejoin:round;">
<path style="fill:#000000; fill-opacity:1.0; 
stroke:#000000; stroke-width:0; stroke-opacity:1; 
stroke-linecap:round; stroke-linejoin:round;fill-rule:evenodd;"
d="M 53086,22495
53096,22496
53105,22499
53114,22502
53123,22506
53131,22511
53139,22517
53146,22523
53153,22531
53159,22538
53163,22547
53168,22555
53171,22564
53173,22574
53175,22583
53175,22593
53175,22849
53175,22859
53173,22868
53171,22877
53168,22887
53163,22895
53159,22904
53153,22911
53146,22919
53139,22925
53131,22931
53123,22936
53114,22940
53105,22943
53096,22945
53086,22947
53077,22947
52722,22947
52713,22947
52703,22945
52694,22943
52685,22940
52676,22936
52668,22931
52660,22925
52653,22919
52646,22911
52640,22904
52636,22895
52631,22887
52628,22877
52626,22868
52624,22859
52624,22849
52624,22593
52624,22583
52626,22574
52628,22564
52631,22555
52636,22547
52640,22538
52646,22531
52653,22523
52660,22517
52668,22511
52676,22506
52685,22502
52694,22499
52703,22496
52713,22495
52722,22495
53077,22495
53086,22495
Z" /> 
<path style="fill:#000000; fill-opacity:1.0; 
stroke:#000000; stroke-width:0; stroke-opacity:1; 
stroke-linecap:round; stroke-linejoin:round;fill-rule:evenodd;"
d="M 53086,23302
53096,23304
53105,23306
53114,23309
53123,23313
53131,23318
53139,23324
53146,23330
53153,23338
53159,23345
53163,23354
53168,23362
53171,23372
53173,23381
53175,23390
53175,23400
53175,23656
53175,23666
53173,23675
53171,23685
53168,23694
53163,23702
53159,23711
53153,23718
53146,23726
53139,23732
53131,23738
53123,23743
53114,23747
53105,23750
53096,23753
53086,23754
53077,23754
52722,23754
52713,23754
52703,23753
52694,23750
52685,23747
52676,23743
52668,23738
52660,23732
52653,23726
52646,23718
52640,23711
52636,23702
52631,23694
52628,23685
52626,23675
52624,23666
52624,23656
52624,23400
52624,23390
52626,23381
52628,23372
52631,23362
52636,23354
52640,23345
52646,23338
52653,23330
52660,23324
52668,23318
52676,23313
52685,23309
52694,23306
52703,23304
52713,23302
52722,23302
53077,23302
53086,23302
Z" /> 
</g>
<g >
</g>
<g style="fill:#000000; fill-opacity:1.0; 
stroke:#000000; stroke-width:0; stroke-opacity:1; 
stroke-linecap:round; stroke-linejoin:round;">
<path style="fill:#000000; fill-opacity:1.0; 
stroke:#000000; stroke-width:0; stroke-opacity:1; 
stroke-linecap:round; stroke-linejoin:round;fill-rule:evenodd;"
d="M 65046,20974
65056,20976
65065,20978
65074,20981
65083,20986
65091,20990
65099,20996
65106,21003
65112,21010
65118,21018
65123,21026
65127,21035
65131,21044
65133,21053
65134,21063
65135,21072
65135,21427
65134,21436
65133,21446
65131,21455
65127,21464
65123,21473
65118,21481
65112,21489
65106,21496
65099,21503
65091,21509
65083,21513
65074,21518
65065,21521
65056,21523
65046,21525
65036,21525
64781,21525
64771,21525
64761,21523
64752,21521
64743,21518
64734,21513
64726,21509
64718,21503
64711,21496
64704,21489
64699,21481
64694,21473
64690,21464
64686,21455
64684,21446
64683,21436
64682,21427
64682,21072
64683,21063
64684,21053
64686,21044
64690,21035
64694,21026
64699,21018
64704,21010
64711,21003
64718,20996
64726,20990
64734,20986
64743,20981
64752,20978
64761,20976
64771,20974
64781,20974
65036,20974
65046,20974
Z" /> 
<path style="fill:#000000; fill-opacity:1.0; 
stroke:#000000; stroke-width:0; stroke-opacity:1; 
stroke-linecap:round; stroke-linejoin:round;fill-rule:evenodd;"
d="M 65853,20974
65863,20976
65872,20978
65881,20981
65890,20986
65898,20990
65906,20996
65913,21003
65920,21010
65925,21018
65930,21026
65934,21035
65938,21044
65940,21053
65941,21063
65942,21072
65942,21427
65941,21436
65940,21446
65938,21455
65934,21464
65930,21473
65925,21481
65920,21489
65913,21496
65906,21503
65898,21509
65890,21513
65881,21518
65872,21521
65863,21523
65853,21525
65843,21525
65588,21525
65578,21525
65568,21523
65559,21521
65550,21518
65541,21513
65533,21509
65525,21503
65518,21496
65512,21489
65506,21481
65501,21473
65497,21464
65493,21455
65491,21446
65490,21436
65489,21427
65489,21072
65490,21063
65491,21053
65493,21044
65497,21035
65501,21026
65506,21018
65512,21010
65518,21003
65525,20996
65533,20990
65541,20986
65550,20981
65559,20978
65568,20976
65578,20974
65588,20974
65843,20974
65853,20974
Z" /> 
</g>
<g >
</g>
<g style="fill:#000000; fill-opacity:1.0; 
stroke:#000000; stroke-width:0; stroke-opacity:1; 
stroke-linecap:round; stroke-linejoin:round;">
<path style="fill:#000000; fill-opacity:1.0; 
stroke:#000000; stroke-width:0; stroke-opacity:1; 
stroke-linecap:round; stroke-linejoin:round;fill-rule:evenodd;"
d="M 62012,20974
62022,20976
62031,20978
62040,20981
62049,20986
62057,20990
62065,20996
62072,21003
62079,21010
62084,21018
62089,21026
62093,21035
62097,21044
62099,21053
62100,21063
62101,21072
62101,21427
62100,21436
62099,21446
62097,21455
62093,21464
62089,21473
62084,21481
62079,21489
62072,21496
62065,21503
62057,21509
62049,21513
62040,21518
62031,21521
62022,21523
62012,21525
62002,21525
61747,21525
61737,21525
61727,21523
61718,21521
61709,21518
61700,21513
61692,21509
61684,21503
61677,21496
61670,21489
61665,21481
61660,21473
61656,21464
61652,21455
61650,21446
61649,21436
61648,21427
61648,21072
61649,21063
61650,21053
61652,21044
61656,21035
61660,21026
61665,21018
61670,21010
61677,21003
61684,20996
61692,20990
61700,20986
61709,20981
61718,20978
61727,20976
61737,20974
61747,20974
62002,20974
62012,20974
Z" /> 
<path style="fill:#000000; fill-opacity:1.0; 
stroke:#000000; stroke-width:0; stroke-opacity:1; 
stroke-linecap:round; stroke-linejoin:round;fill-rule:evenodd;"
d="M 61205,20974
61215,20976
61224,20978
61233,20981
61242,20986
61250,20990
61258,20996
61265,21003
61271,21010
61277,21018
61282,21026
61286,21035
61290,21044
61292,21053
61293,21063
61294,21072
61294,21427
61293,21436
61292,21446
61290,21455
61286,21464
61282,21473
61277,21481
61271,21489
61265,21496
61258,21503
61250,21509
61242,21513
61233,21518
61224,21521
61215,21523
61205,21525
61195,21525
60939,21525
60930,21525
60920,21523
60911,21521
60902,21518
60893,21513
60885,21509
60877,21503
60870,21496
60863,21489
60858,21481
60853,21473
60849,21464
60845,21455
60843,21446
60842,21436
60841,21427
60841,21072
60842,21063
60843,21053
60845,21044
60849,21035
60853,21026
60858,21018
60863,21010
60870,21003
60877,20996
60885,20990
60893,20986
60902,20981
60911,20978
60920,20976
60930,20974
60939,20974
61195,20974
61205,20974
Z" /> 
</g>
<g >
</g>
<g style="fill:#000000; fill-opacity:1.0; 
stroke:#000000; stroke-width:0; stroke-opacity:1; 
stroke-linecap:round; stroke-linejoin:round;">
<path style="fill:#000000; fill-opacity:1.0; 
stroke:#000000; stroke-width:0; stroke-opacity:1; 
stroke-linecap:round; stroke-linejoin:round;fill-rule:evenodd;"
d="M 63224,22586
63233,22588
63243,22590
63252,22593
63261,22597
63269,22602
63277,22608
63284,22614
63290,22622
63296,22629
63301,22638
63305,22646
63308,22655
63311,22665
63312,22674
63313,22684
63313,22940
63312,22950
63311,22959
63308,22969
63305,22978
63301,22986
63296,22995
63290,23002
63284,23010
63277,23016
63269,23022
63261,23027
63252,23031
63243,23034
63233,23036
63224,23038
63214,23038
62860,23038
62850,23038
62841,23036
62831,23034
62822,23031
62813,23027
62805,23022
62797,23016
62790,23010
62784,23002
62778,22995
62773,22986
62769,22978
62766,22969
62763,22959
62762,22950
62761,22940
62761,22684
62762,22674
62763,22665
62766,22655
62769,22646
62773,22638
62778,22629
62784,22622
62790,22614
62797,22608
62805,22602
62813,22597
62822,22593
62831,22590
62841,22588
62850,22586
62860,22586
63214,22586
63224,22586
Z" /> 
<path style="fill:#000000; fill-opacity:1.0; 
stroke:#000000; stroke-width:0; stroke-opacity:1; 
stroke-linecap:round; stroke-linejoin:round;fill-rule:evenodd;"
d="M 63224,23393
63233,23395
63243,23397
63252,23400
63261,23404
63269,23409
63277,23415
63284,23422
63290,23429
63296,23436
63301,23445
63305,23453
63308,23463
63311,23472
63312,23481
63313,23491
63313,23747
63312,23757
63311,23766
63308,23776
63305,23785
63301,23793
63296,23802
63290,23809
63284,23817
63277,23823
63269,23829
63261,23834
63252,23838
63243,23841
63233,23844
63224,23845
63214,23845
62860,23845
62850,23845
62841,23844
62831,23841
62822,23838
62813,23834
62805,23829
62797,23823
62790,23817
62784,23809
62778,23802
62773,23793
62769,23785
62766,23776
62763,23766
62762,23757
62761,23747
62761,23491
62762,23481
62763,23472
62766,23463
62769,23453
62773,23445
62778,23436
62784,23429
62790,23422
62797,23415
62805,23409
62813,23404
62822,23400
62831,23397
62841,23395
62850,23393
62860,23393
63214,23393
63224,23393
Z" /> 
</g>
<g >
</g>
<g style="fill:#000000; fill-opacity:1.0; 
stroke:#000000; stroke-width:0; stroke-opacity:1; 
stroke-linecap:round; stroke-linejoin:round;">
<path style="fill:#000000; fill-opacity:1.0; 
stroke:#000000; stroke-width:0; stroke-opacity:1; 
stroke-linecap:round; stroke-linejoin:round;fill-rule:evenodd;"
d="M 64024,22586
64033,22588
64043,22590
64052,22593
64061,22597
64069,22602
64077,22608
64084,22614
64090,22622
64096,22629
64101,22638
64105,22646
64108,22655
64111,22665
64112,22674
64113,22684
64113,22940
64112,22950
64111,22959
64108,22969
64105,22978
64101,22986
64096,22995
64090,23002
64084,23010
64077,23016
64069,23022
64061,23027
64052,23031
64043,23034
64033,23036
64024,23038
64014,23038
63660,23038
63650,23038
63641,23036
63631,23034
63622,23031
63613,23027
63605,23022
63597,23016
63590,23010
63584,23002
63578,22995
63573,22986
63569,22978
63566,22969
63563,22959
63562,22950
63561,22940
63561,22684
63562,22674
63563,22665
63566,22655
63569,22646
63573,22638
63578,22629
63584,22622
63590,22614
63597,22608
63605,22602
63613,22597
63622,22593
63631,22590
63641,22588
63650,22586
63660,22586
64014,22586
64024,22586
Z" /> 
<path style="fill:#000000; fill-opacity:1.0; 
stroke:#000000; stroke-width:0; stroke-opacity:1; 
stroke-linecap:round; stroke-linejoin:round;fill-rule:evenodd;"
d="M 64024,23393
64033,23395
64043,23397
64052,23400
64061,23404
64069,23409
64077,23415
64084,23422
64090,23429
64096,23436
64101,23445
64105,23453
64108,23463
64111,23472
64112,23481
64113,23491
64113,23747
64112,23757
64111,23766
64108,23776
64105,23785
64101,23793
64096,23802
64090,23809
64084,23817
64077,23823
64069,23829
64061,23834
64052,23838
64043,23841
64033,23844
64024,23845
64014,23845
63660,23845
63650,23845
63641,23844
63631,23841
63622,23838
63613,23834
63605,23829
63597,23823
63590,23817
63584,23809
63578,23802
63573,23793
63569,23785
63566,23776
63563,23766
63562,23757
63561,23747
63561,23491
63562,23481
63563,23472
63566,23463
63569,23453
63573,23445
63578,23436
63584,23429
63590,23422
63597,23415
63605,23409
63613,23404
63622,23400
63631,23397
63641,23395
63650,23393
63660,23393
64014,23393
64024,23393
Z" /> 
</g>
<g >
</g>
<g style="fill:#000000; fill-opacity:1.0; 
stroke:#000000; stroke-width:0; stroke-opacity:1; 
stroke-linecap:round; stroke-linejoin:round;">
<path style="fill:#000000; fill-opacity:1.0; 
stroke:#000000; stroke-width:0; stroke-opacity:1; 
stroke-linecap:round; stroke-linejoin:round;fill-rule:evenodd;"
d="M 62204,33409
62214,33410
62223,33412
62232,33416
62241,33420
62249,33425
62257,33431
62264,33437
62445,33618
62452,33625
62457,33633
62462,33641
62467,33650
62470,33659
62472,33668
62474,33678
62474,33688
62474,33697
62472,33707
62470,33716
62467,33725
62462,33734
62457,33742
62452,33750
62445,33757
62195,34008
62187,34014
62180,34020
62171,34025
62163,34029
62154,34032
62144,34035
62135,34036
62125,34037
62115,34036
62106,34035
62096,34032
62087,34029
62079,34025
62070,34020
62063,34014
62055,34008
61874,33827
61868,33820
61862,33812
61857,33804
61853,33795
61850,33786
61848,33776
61846,33767
61846,33757
61846,33747
61848,33738
61850,33729
61853,33719
61857,33711
61862,33702
61868,33695
61874,33688
62125,33437
62132,33431
62140,33425
62148,33420
62157,33416
62166,33412
62175,33410
62185,33409
62195,33408
62204,33409
Z" /> 
<path style="fill:#000000; fill-opacity:1.0; 
stroke:#000000; stroke-width:0; stroke-opacity:1; 
stroke-linecap:round; stroke-linejoin:round;fill-rule:evenodd;"
d="M 61634,32838
61643,32839
61653,32842
61662,32845
61670,32849
61679,32854
61686,32860
61694,32866
61875,33047
61881,33054
61887,33062
61892,33070
61896,33079
61899,33088
61901,33098
61903,33107
61903,33117
61903,33127
61901,33136
61899,33145
61896,33155
61892,33163
61887,33172
61881,33179
61875,33186
61624,33437
61617,33443
61609,33449
61601,33454
61592,33458
61583,33462
61574,33464
61564,33465
61554,33466
61545,33465
61535,33464
61526,33462
61517,33458
61508,33454
61500,33449
61492,33443
61485,33437
61304,33256
61297,33249
61292,33241
61287,33233
61282,33224
61279,33215
61277,33206
61275,33196
61275,33186
61275,33177
61277,33167
61279,33158
61282,33149
61287,33140
61292,33132
61297,33124
61304,33117
61554,32866
61562,32860
61569,32854
61578,32849
61586,32845
61595,32842
61605,32839
61614,32838
61624,32837
61634,32838
Z" /> 
</g>
<g >
</g>
<g style="fill:#000000; fill-opacity:1.0; 
stroke:#000000; stroke-width:0; stroke-opacity:1; 
stroke-linecap:round; stroke-linejoin:round;">
<path style="fill:#000000; fill-opacity:1.0; 
stroke:#000000; stroke-width:0; stroke-opacity:1; 
stroke-linecap:round; stroke-linejoin:round;fill-rule:evenodd;"
d="M 51267,33409
51276,33410
51286,33412
51295,33416
51304,33420
51312,33425
51320,33431
51327,33437
51508,33618
51514,33625
51520,33633
51525,33641
51529,33650
51532,33659
51535,33668
51536,33678
51537,33688
51536,33697
51535,33707
51532,33716
51529,33725
51525,33734
51520,33742
51514,33750
51508,33757
51257,34008
51250,34014
51242,34020
51234,34025
51225,34029
51216,34032
51207,34035
51197,34036
51188,34037
51178,34036
51168,34035
51159,34032
51150,34029
51141,34025
51133,34020
51125,34014
51118,34008
50937,33827
50931,33820
50925,33812
50920,33804
50916,33795
50912,33786
50910,33776
50909,33767
50908,33757
50909,33747
50910,33738
50912,33729
50916,33719
50920,33711
50925,33702
50931,33695
50937,33688
51188,33437
51195,33431
51202,33425
51211,33420
51219,33416
51229,33412
51238,33410
51247,33409
51257,33408
51267,33409
Z" /> 
<path style="fill:#000000; fill-opacity:1.0; 
stroke:#000000; stroke-width:0; stroke-opacity:1; 
stroke-linecap:round; stroke-linejoin:round;fill-rule:evenodd;"
d="M 50696,32838
50706,32839
50715,32842
50724,32845
50733,32849
50741,32854
50749,32860
50756,32866
50937,33047
50943,33054
50949,33062
50954,33070
50958,33079
50962,33088
50964,33098
50965,33107
50966,33117
50965,33127
50964,33136
50962,33145
50958,33155
50954,33163
50949,33172
50943,33179
50937,33186
50686,33437
50679,33443
50672,33449
50663,33454
50655,33458
50645,33462
50636,33464
50627,33465
50617,33466
50607,33465
50598,33464
50588,33462
50579,33458
50570,33454
50562,33449
50554,33443
50547,33437
50366,33256
50360,33249
50354,33241
50349,33233
50345,33224
50342,33215
50339,33206
50338,33196
50337,33186
50338,33177
50339,33167
50342,33158
50345,33149
50349,33140
50354,33132
50360,33124
50366,33117
50617,32866
50624,32860
50632,32854
50640,32849
50649,32845
50658,32842
50667,32839
50677,32838
50686,32837
50696,32838
Z" /> 
</g>
<g >
</g>
<g style="fill:#000000; fill-opacity:1.0; 
stroke:#000000; stroke-width:0; stroke-opacity:1; 
stroke-linecap:round; stroke-linejoin:round;">
<path style="fill:#000000; fill-opacity:1.0; 
stroke:#000000; stroke-width:0; stroke-opacity:1; 
stroke-linecap:round; stroke-linejoin:round;fill-rule:evenodd;"
d="M 66586,35089
66595,35090
66605,35093
66614,35096
66622,35100
66631,35105
66639,35111
66646,35117
66652,35125
66658,35132
66663,35141
66667,35149
66670,35158
66673,35168
66674,35177
66674,35187
66674,35541
66674,35551
66673,35561
66670,35570
66667,35579
66663,35588
66658,35596
66652,35604
66646,35611
66639,35617
66631,35623
66622,35628
66614,35632
66605,35636
66595,35638
66586,35639
66576,35640
66320,35640
66311,35639
66301,35638
66292,35636
66282,35632
66274,35628
66265,35623
66258,35617
66251,35611
66244,35604
66238,35596
66233,35588
66229,35579
66226,35570
66224,35561
66222,35551
66222,35541
66222,35187
66222,35177
66224,35168
66226,35158
66229,35149
66233,35141
66238,35132
66244,35125
66251,35117
66258,35111
66265,35105
66274,35100
66282,35096
66292,35093
66301,35090
66311,35089
66320,35089
66576,35089
66586,35089
Z" /> 
<path style="fill:#000000; fill-opacity:1.0; 
stroke:#000000; stroke-width:0; stroke-opacity:1; 
stroke-linecap:round; stroke-linejoin:round;fill-rule:evenodd;"
d="M 67393,35089
67402,35090
67412,35093
67421,35096
67430,35100
67438,35105
67446,35111
67453,35117
67459,35125
67465,35132
67470,35141
67474,35149
67477,35158
67480,35168
67481,35177
67482,35187
67482,35541
67481,35551
67480,35561
67477,35570
67474,35579
67470,35588
67465,35596
67459,35604
67453,35611
67446,35617
67438,35623
67430,35628
67421,35632
67412,35636
67402,35638
67393,35639
67383,35640
67127,35640
67118,35639
67108,35638
67099,35636
67090,35632
67081,35628
67073,35623
67065,35617
67058,35611
67051,35604
67045,35596
67040,35588
67036,35579
67033,35570
67031,35561
67029,35551
67029,35541
67029,35187
67029,35177
67031,35168
67033,35158
67036,35149
67040,35141
67045,35132
67051,35125
67058,35117
67065,35111
67073,35105
67081,35100
67090,35096
67099,35093
67108,35090
67118,35089
67127,35089
67383,35089
67393,35089
Z" /> 
</g>
<g >
</g>
<g style="fill:#000000; fill-opacity:1.0; 
stroke:#000000; stroke-width:0; stroke-opacity:1; 
stroke-linecap:round; stroke-linejoin:round;">
<path style="fill:#000000; fill-opacity:1.0; 
stroke:#000000; stroke-width:0; stroke-opacity:1; 
stroke-linecap:round; stroke-linejoin:round;fill-rule:evenodd;"
d="M 49054,35150
49064,35151
49073,35153
49082,35157
49091,35161
49099,35166
49107,35171
49114,35178
49121,35185
49127,35193
49132,35201
49136,35210
49139,35219
49141,35228
49143,35238
49143,35248
49143,35602
49143,35612
49141,35621
49139,35630
49136,35640
49132,35648
49127,35657
49121,35664
49114,35671
49107,35678
49099,35684
49091,35689
49082,35693
49073,35696
49064,35698
49054,35700
49045,35700
48789,35700
48779,35700
48770,35698
48760,35696
48751,35693
48742,35689
48734,35684
48726,35678
48719,35671
48713,35664
48707,35657
48702,35648
48698,35640
48695,35630
48692,35621
48691,35612
48690,35602
48690,35248
48691,35238
48692,35228
48695,35219
48698,35210
48702,35201
48707,35193
48713,35185
48719,35178
48726,35171
48734,35166
48742,35161
48751,35157
48760,35153
48770,35151
48779,35150
48789,35149
49045,35149
49054,35150
Z" /> 
<path style="fill:#000000; fill-opacity:1.0; 
stroke:#000000; stroke-width:0; stroke-opacity:1; 
stroke-linecap:round; stroke-linejoin:round;fill-rule:evenodd;"
d="M 49862,35150
49871,35151
49880,35153
49890,35157
49898,35161
49907,35166
49914,35171
49921,35178
49928,35185
49934,35193
49939,35201
49943,35210
49946,35219
49948,35228
49950,35238
49950,35248
49950,35602
49950,35612
49948,35621
49946,35630
49943,35640
49939,35648
49934,35657
49928,35664
49921,35671
49914,35678
49907,35684
49898,35689
49890,35693
49880,35696
49871,35698
49862,35700
49852,35700
49596,35700
49586,35700
49577,35698
49567,35696
49558,35693
49550,35689
49541,35684
49534,35678
49526,35671
49520,35664
49514,35657
49509,35648
49505,35640
49502,35630
49499,35621
49498,35612
49498,35602
49498,35248
49498,35238
49499,35228
49502,35219
49505,35210
49509,35201
49514,35193
49520,35185
49526,35178
49534,35171
49541,35166
49550,35161
49558,35157
49567,35153
49577,35151
49586,35150
49596,35149
49852,35149
49862,35150
Z" /> 
</g>
<g >
</g>
<g >
</g>
<g >
</g>
<g >
</g>
<g >
</g>
<g >
</g>
<g >
</g>
<g >
</g>
<g >
</g>
<g >
</g>
<g >
</g>
<g >
</g>
<g >
</g>
<g >
</g>
<g >
</g>
<g >
</g>
<g >
</g>
<g >
</g>
<g >
</g>
<g >
</g>
<g >
</g>
<g >
</g>
<g >
</g>
<g >
</g>
<g >
</g>
<g >
</g>
<g >
</g>
<g >
</g>
<g >
</g>
<g >
</g>
<g >
</g>
<g >
</g>
<g >
</g>
<g >
</g>
<g >
</g>
<g >
</g>
<g >
</g>
<g >
</g>
<g >
</g>
<g >
</g>
<g >
</g>
<g >
</g>
<g >
</g>
<g >
</g>
<g style="fill:#000000; fill-opacity:1.0; 
stroke:#000000; stroke-width:0; stroke-opacity:1; 
stroke-linecap:round; stroke-linejoin:round;">
<path style="fill:#000000; fill-opacity:1.0; 
stroke:#000000; stroke-width:0; stroke-opacity:1; 
stroke-linecap:round; stroke-linejoin:round;fill-rule:evenodd;"
d="M 55255,22219
55265,22221
55274,22223
55283,22226
55292,22231
55300,22236
55308,22241
55315,22248
55322,22255
55327,22263
55332,22271
55336,22280
55340,22289
55342,22298
55344,22308
55344,22317
55344,22682
55344,22691
55342,22701
55340,22710
55336,22719
55332,22728
55327,22736
55322,22744
55315,22751
55308,22758
55300,22763
55292,22768
55283,22773
55274,22776
55265,22778
55255,22780
55246,22780
54753,22780
54744,22780
54734,22778
54725,22776
54716,22773
54707,22768
54699,22763
54691,22758
54684,22751
54677,22744
54672,22736
54667,22728
54663,22719
54659,22710
54657,22701
54655,22691
54655,22682
54655,22317
54655,22308
54657,22298
54659,22289
54663,22280
54667,22271
54672,22263
54677,22255
54684,22248
54691,22241
54699,22236
54707,22231
54716,22226
54725,22223
54734,22221
54744,22219
54753,22219
55246,22219
55255,22219
Z" /> 
<path style="fill:#000000; fill-opacity:1.0; 
stroke:#000000; stroke-width:0; stroke-opacity:1; 
stroke-linecap:round; stroke-linejoin:round;fill-rule:evenodd;"
d="M 55255,23391
55265,23392
55274,23394
55283,23398
55292,23402
55300,23407
55308,23413
55315,23419
55322,23426
55327,23434
55332,23442
55336,23451
55340,23460
55342,23469
55344,23479
55344,23489
55344,23853
55344,23862
55342,23872
55340,23881
55336,23891
55332,23899
55327,23908
55322,23915
55315,23922
55308,23929
55300,23935
55292,23940
55283,23944
55274,23947
55265,23949
55255,23951
55246,23951
54753,23951
54744,23951
54734,23949
54725,23947
54716,23944
54707,23940
54699,23935
54691,23929
54684,23922
54677,23915
54672,23908
54667,23899
54663,23891
54659,23881
54657,23872
54655,23862
54655,23853
54655,23489
54655,23479
54657,23469
54659,23460
54663,23451
54667,23442
54672,23434
54677,23426
54684,23419
54691,23413
54699,23407
54707,23402
54716,23398
54725,23394
54734,23392
54744,23391
54753,23390
55246,23390
55255,23391
Z" /> 
</g>
<g >
</g>
<g style="fill:#000000; fill-opacity:1.0; 
stroke:#000000; stroke-width:0; stroke-opacity:1; 
stroke-linecap:round; stroke-linejoin:round;">
<path style="fill:#000000; fill-opacity:1.0; 
stroke:#000000; stroke-width:0; stroke-opacity:1; 
stroke-linecap:round; stroke-linejoin:round;fill-rule:evenodd;"
d="M 66193,22219
66202,22221
66212,22223
66221,22226
66229,22231
66238,22236
66246,22241
66253,22248
66259,22255
66265,22263
66270,22271
66274,22280
66277,22289
66280,22298
66281,22308
66281,22317
66281,22682
66281,22691
66280,22701
66277,22710
66274,22719
66270,22728
66265,22736
66259,22744
66253,22751
66246,22758
66238,22763
66229,22768
66221,22773
66212,22776
66202,22778
66193,22780
66183,22780
65691,22780
65681,22780
65672,22778
65662,22776
65653,22773
65645,22768
65636,22763
65628,22758
65621,22751
65615,22744
65609,22736
65604,22728
65600,22719
65597,22710
65594,22701
65593,22691
65593,22682
65593,22317
65593,22308
65594,22298
65597,22289
65600,22280
65604,22271
65609,22263
65615,22255
65621,22248
65628,22241
65636,22236
65645,22231
65653,22226
65662,22223
65672,22221
65681,22219
65691,22219
66183,22219
66193,22219
Z" /> 
<path style="fill:#000000; fill-opacity:1.0; 
stroke:#000000; stroke-width:0; stroke-opacity:1; 
stroke-linecap:round; stroke-linejoin:round;fill-rule:evenodd;"
d="M 66193,23391
66202,23392
66212,23394
66221,23398
66229,23402
66238,23407
66246,23413
66253,23419
66259,23426
66265,23434
66270,23442
66274,23451
66277,23460
66280,23469
66281,23479
66281,23489
66281,23853
66281,23862
66280,23872
66277,23881
66274,23891
66270,23899
66265,23908
66259,23915
66253,23922
66246,23929
66238,23935
66229,23940
66221,23944
66212,23947
66202,23949
66193,23951
66183,23951
65691,23951
65681,23951
65672,23949
65662,23947
65653,23944
65645,23940
65636,23935
65628,23929
65621,23922
65615,23915
65609,23908
65604,23899
65600,23891
65597,23881
65594,23872
65593,23862
65593,23853
65593,23489
65593,23479
65594,23469
65597,23460
65600,23451
65604,23442
65609,23434
65615,23426
65621,23419
65628,23413
65636,23407
65645,23402
65653,23398
65662,23394
65672,23392
65681,23391
65691,23390
66183,23390
66193,23391
Z" /> 
</g>
<g >
</g>
<g >
</g>
<g >
</g>
<g >
</g>
<g >
</g>
<g >
</g>
<g >
</g>
<g >
</g>
<g >
</g>
<g >
</g>
<g >
</g>
<g >
</g>
<g >
</g>
<g >
</g>
<g >
</g>
<g >
</g>
<g >
</g>
<g >
</g>
<g >
</g>
<g >
</g>
<g >
</g>
<g >
</g>
<g >
</g>
<g >
</g>
<g >
</g>
<g >
</g>
<g >
</g>
<g >
</g>
<g >
</g>
<g >
</g>
<g >
</g>
<g >
</g>
<g >
</g>
<g >
</g>
<g >
</g>
<g >
</g>
<g >
</g>
<g >
</g>
<g >
</g>
<g >
</g>
<g >
</g>
<g >
</g>
<g >
</g>
<g style="fill:#000000; fill-opacity:1.0; 
stroke:#000000; stroke-width:0; stroke-opacity:1; 
stroke-linecap:round; stroke-linejoin:round;">
<path style="fill:#000000; fill-opacity:1.0; 
stroke:#000000; stroke-width:0; stroke-opacity:1; 
stroke-linecap:round; stroke-linejoin:round;fill-rule:evenodd;"
d="M 66655,31534
66665,31535
66674,31537
66683,31541
66692,31545
66700,31550
66708,31556
66715,31562
66966,31813
66972,31820
66978,31827
66983,31836
66987,31844
66990,31854
66992,31863
66994,31872
66994,31882
66994,31892
66992,31901
66990,31911
66987,31920
66983,31929
66978,31937
66972,31945
66966,31952
66785,32133
66777,32139
66770,32145
66761,32150
66753,32154
66744,32157
66734,32160
66725,32161
66715,32162
66705,32161
66696,32160
66686,32157
66677,32154
66669,32150
66660,32145
66653,32139
66645,32133
66395,31882
66388,31875
66383,31867
66378,31859
66374,31850
66370,31841
66368,31832
66366,31822
66366,31813
66366,31803
66368,31793
66370,31784
66374,31775
66378,31766
66383,31758
66388,31750
66395,31743
66576,31562
66583,31556
66591,31550
66599,31545
66608,31541
66617,31537
66626,31535
66636,31534
66645,31533
66655,31534
Z" /> 
<path style="fill:#000000; fill-opacity:1.0; 
stroke:#000000; stroke-width:0; stroke-opacity:1; 
stroke-linecap:round; stroke-linejoin:round;fill-rule:evenodd;"
d="M 67226,30963
67235,30964
67245,30967
67254,30970
67262,30974
67271,30979
67279,30985
67286,30991
67536,31242
67543,31249
67548,31257
67553,31265
67558,31274
67561,31283
67563,31292
67565,31302
67565,31311
67565,31321
67563,31331
67561,31340
67558,31349
67553,31358
67548,31366
67543,31374
67536,31381
67355,31562
67348,31568
67340,31574
67332,31579
67323,31583
67314,31587
67305,31589
67295,31590
67286,31591
67276,31590
67266,31589
67257,31587
67248,31583
67239,31579
67231,31574
67223,31568
67216,31562
66966,31311
66959,31304
66953,31297
66948,31288
66944,31280
66941,31270
66939,31261
66937,31252
66937,31242
66937,31232
66939,31223
66941,31213
66944,31204
66948,31195
66953,31187
66959,31179
66966,31172
67146,30991
67154,30985
67161,30979
67170,30974
67178,30970
67188,30967
67197,30964
67206,30963
67216,30962
67226,30963
Z" /> 
</g>
<g >
</g>
<g style="fill:#000000; fill-opacity:1.0; 
stroke:#000000; stroke-width:0; stroke-opacity:1; 
stroke-linecap:round; stroke-linejoin:round;">
<path style="fill:#000000; fill-opacity:1.0; 
stroke:#000000; stroke-width:0; stroke-opacity:1; 
stroke-linecap:round; stroke-linejoin:round;fill-rule:evenodd;"
d="M 63624,24995
63633,24996
63643,24999
63652,25002
63661,25006
63669,25011
63677,25017
63684,25023
63690,25031
63696,25038
63701,25047
63705,25055
63708,25064
63711,25074
63712,25083
63713,25093
63713,25349
63712,25359
63711,25368
63708,25377
63705,25387
63701,25395
63696,25404
63690,25411
63684,25419
63677,25425
63669,25431
63661,25436
63652,25440
63643,25443
63633,25445
63624,25447
63614,25447
63260,25447
63250,25447
63241,25445
63231,25443
63222,25440
63213,25436
63205,25431
63197,25425
63190,25419
63184,25411
63178,25404
63173,25395
63169,25387
63166,25377
63163,25368
63162,25359
63161,25349
63161,25093
63162,25083
63163,25074
63166,25064
63169,25055
63173,25047
63178,25038
63184,25031
63190,25023
63197,25017
63205,25011
63213,25006
63222,25002
63231,24999
63241,24996
63250,24995
63260,24995
63614,24995
63624,24995
Z" /> 
<path style="fill:#000000; fill-opacity:1.0; 
stroke:#000000; stroke-width:0; stroke-opacity:1; 
stroke-linecap:round; stroke-linejoin:round;fill-rule:evenodd;"
d="M 63624,25802
63633,25804
63643,25806
63652,25809
63661,25813
63669,25818
63677,25824
63684,25830
63690,25838
63696,25845
63701,25854
63705,25862
63708,25872
63711,25881
63712,25890
63713,25900
63713,26156
63712,26166
63711,26175
63708,26185
63705,26194
63701,26202
63696,26211
63690,26218
63684,26226
63677,26232
63669,26238
63661,26243
63652,26247
63643,26250
63633,26253
63624,26254
63614,26254
63260,26254
63250,26254
63241,26253
63231,26250
63222,26247
63213,26243
63205,26238
63197,26232
63190,26226
63184,26218
63178,26211
63173,26202
63169,26194
63166,26185
63163,26175
63162,26166
63161,26156
63161,25900
63162,25890
63163,25881
63166,25872
63169,25862
63173,25854
63178,25845
63184,25838
63190,25830
63197,25824
63205,25818
63213,25813
63222,25809
63231,25806
63241,25804
63250,25802
63260,25802
63614,25802
63624,25802
Z" /> 
</g>
<g >
</g>
<g style="fill:#000000; fill-opacity:1.0; 
stroke:#000000; stroke-width:0; stroke-opacity:1; 
stroke-linecap:round; stroke-linejoin:round;">
<path style="fill:#000000; fill-opacity:1.0; 
stroke:#000000; stroke-width:0; stroke-opacity:1; 
stroke-linecap:round; stroke-linejoin:round;fill-rule:evenodd;"
d="M 59759,30963
59768,30964
59778,30967
59787,30970
59795,30974
59804,30979
59811,30985
59819,30991
60000,31172
60006,31179
60012,31187
60017,31195
60021,31204
60024,31213
60026,31223
60028,31232
60028,31242
60028,31252
60026,31261
60024,31270
60021,31280
60017,31288
60012,31297
60006,31304
60000,31311
59749,31562
59742,31568
59734,31574
59726,31579
59717,31583
59708,31587
59699,31589
59689,31590
59679,31591
59670,31590
59660,31589
59651,31587
59642,31583
59633,31579
59625,31574
59617,31568
59610,31562
59429,31381
59422,31374
59417,31366
59412,31358
59407,31349
59404,31340
59402,31331
59400,31321
59400,31311
59400,31302
59402,31292
59404,31283
59407,31274
59412,31265
59417,31257
59422,31249
59429,31242
59679,30991
59687,30985
59694,30979
59703,30974
59711,30970
59720,30967
59730,30964
59739,30963
59749,30962
59759,30963
Z" /> 
<path style="fill:#000000; fill-opacity:1.0; 
stroke:#000000; stroke-width:0; stroke-opacity:1; 
stroke-linecap:round; stroke-linejoin:round;fill-rule:evenodd;"
d="M 60329,31534
60339,31535
60348,31537
60357,31541
60366,31545
60374,31550
60382,31556
60389,31562
60570,31743
60577,31750
60582,31758
60587,31766
60592,31775
60595,31784
60597,31793
60599,31803
60599,31813
60599,31822
60597,31832
60595,31841
60592,31850
60587,31859
60582,31867
60577,31875
60570,31882
60320,32133
60312,32139
60305,32145
60296,32150
60288,32154
60279,32157
60269,32160
60260,32161
60250,32162
60240,32161
60231,32160
60221,32157
60212,32154
60204,32150
60195,32145
60188,32139
60180,32133
59999,31952
59993,31945
59987,31937
59982,31929
59978,31920
59975,31911
59973,31901
59971,31892
59971,31882
59971,31872
59973,31863
59975,31854
59978,31844
59982,31836
59987,31827
59993,31820
59999,31813
60250,31562
60257,31556
60265,31550
60273,31545
60282,31541
60291,31537
60300,31535
60310,31534
60320,31533
60329,31534
Z" /> 
</g>
<g >
</g>
<g style="fill:#000000; fill-opacity:1.0; 
stroke:#000000; stroke-width:0; stroke-opacity:1; 
stroke-linecap:round; stroke-linejoin:round;">
<path style="fill:#000000; fill-opacity:1.0; 
stroke:#000000; stroke-width:0; stroke-opacity:1; 
stroke-linecap:round; stroke-linejoin:round;fill-rule:evenodd;"
d="M 64947,33150
64957,33152
64966,33154
64975,33157
64984,33162
64992,33167
65000,33172
65007,33179
65258,33429
65264,33437
65270,33444
65275,33453
65279,33461
65282,33470
65285,33480
65286,33489
65287,33499
65286,33509
65285,33518
65282,33528
65279,33537
65275,33545
65270,33554
65264,33561
65258,33569
65077,33750
65070,33756
65062,33762
65054,33767
65045,33771
65036,33774
65026,33776
65017,33778
65007,33778
64997,33778
64988,33776
64979,33774
64969,33771
64961,33767
64952,33762
64945,33756
64938,33750
64687,33499
64681,33492
64675,33484
64670,33476
64666,33467
64662,33458
64660,33449
64659,33439
64658,33429
64659,33420
64660,33410
64662,33401
64666,33392
64670,33383
64675,33375
64681,33367
64687,33360
64868,33179
64875,33172
64883,33167
64891,33162
64900,33157
64909,33154
64918,33152
64928,33150
64938,33150
64947,33150
Z" /> 
<path style="fill:#000000; fill-opacity:1.0; 
stroke:#000000; stroke-width:0; stroke-opacity:1; 
stroke-linecap:round; stroke-linejoin:round;fill-rule:evenodd;"
d="M 64377,33721
64386,33723
64395,33725
64405,33728
64413,33732
64422,33737
64429,33743
64436,33749
64687,34000
64693,34007
64699,34015
64704,34023
64708,34032
64712,34041
64714,34050
64715,34060
64716,34070
64715,34079
64714,34089
64712,34098
64708,34107
64704,34116
64699,34124
64693,34132
64687,34139
64506,34320
64499,34327
64491,34332
64483,34337
64474,34342
64465,34345
64456,34347
64446,34349
64436,34349
64427,34349
64417,34347
64408,34345
64399,34342
64390,34337
64382,34332
64374,34327
64367,34320
64116,34070
64110,34062
64104,34055
64099,34046
64095,34038
64092,34029
64089,34019
64088,34010
64087,34000
64088,33990
64089,33981
64092,33971
64095,33962
64099,33954
64104,33945
64110,33938
64116,33930
64297,33749
64304,33743
64312,33737
64320,33732
64329,33728
64338,33725
64348,33723
64357,33721
64367,33721
64377,33721
Z" /> 
</g>
<g >
</g>
<g style="fill:#000000; fill-opacity:1.0; 
stroke:#000000; stroke-width:0; stroke-opacity:1; 
stroke-linecap:round; stroke-linejoin:round;">
<path style="fill:#000000; fill-opacity:1.0; 
stroke:#000000; stroke-width:0; stroke-opacity:1; 
stroke-linecap:round; stroke-linejoin:round;fill-rule:evenodd;"
d="M 66771,28800
66781,28802
66790,28804
66799,28807
66808,28812
66816,28817
66824,28822
66831,28829
67012,29010
67018,29017
67024,29025
67029,29033
67033,29042
67037,29051
67039,29060
67040,29070
67041,29079
67040,29089
67039,29099
67037,29108
67033,29117
67029,29126
67024,29134
67018,29142
67012,29149
66761,29400
66754,29406
66747,29412
66738,29417
66730,29421
66720,29424
66711,29426
66702,29428
66692,29428
66682,29428
66673,29426
66663,29424
66654,29421
66645,29417
66637,29412
66629,29406
66622,29400
66441,29219
66435,29211
66429,29204
66424,29195
66420,29187
66417,29178
66414,29168
66413,29159
66412,29149
66413,29139
66414,29130
66417,29120
66420,29111
66424,29103
66429,29094
66435,29087
66441,29079
66692,28829
66699,28822
66707,28817
66715,28812
66724,28807
66733,28804
66742,28802
66752,28800
66761,28800
66771,28800
Z" /> 
<path style="fill:#000000; fill-opacity:1.0; 
stroke:#000000; stroke-width:0; stroke-opacity:1; 
stroke-linecap:round; stroke-linejoin:round;fill-rule:evenodd;"
d="M 67342,29371
67351,29373
67361,29375
67370,29378
67379,29382
67387,29387
67395,29393
67402,29399
67583,29580
67589,29588
67595,29595
67600,29604
67604,29612
67607,29621
67610,29631
67611,29640
67612,29650
67611,29660
67610,29669
67607,29679
67604,29688
67600,29696
67595,29705
67589,29712
67583,29720
67332,29970
67325,29977
67317,29982
67309,29987
67300,29992
67291,29995
67282,29997
67272,29999
67263,29999
67253,29999
67243,29997
67234,29995
67225,29992
67216,29987
67208,29982
67200,29977
67193,29970
67012,29789
67006,29782
67000,29774
66995,29766
66991,29757
66987,29748
66985,29739
66984,29729
66983,29720
66984,29710
66985,29700
66987,29691
66991,29682
66995,29673
67000,29665
67006,29657
67012,29650
67263,29399
67270,29393
67277,29387
67286,29382
67294,29378
67304,29375
67313,29373
67322,29371
67332,29371
67342,29371
Z" /> 
</g>
<g >
</g>
<g style="fill:#000000; fill-opacity:1.0; 
stroke:#000000; stroke-width:0; stroke-opacity:1; 
stroke-linecap:round; stroke-linejoin:round;">
<path style="fill:#000000; fill-opacity:1.0; 
stroke:#000000; stroke-width:0; stroke-opacity:1; 
stroke-linecap:round; stroke-linejoin:round;fill-rule:evenodd;"
d="M 55627,31534
55636,31535
55645,31537
55655,31541
55663,31545
55672,31550
55679,31556
55686,31562
55937,31813
55943,31820
55949,31827
55954,31836
55958,31844
55962,31854
55964,31863
55965,31872
55966,31882
55965,31892
55964,31901
55962,31911
55958,31920
55954,31929
55949,31937
55943,31945
55937,31952
55756,32133
55749,32139
55741,32145
55733,32150
55724,32154
55715,32157
55706,32160
55696,32161
55686,32162
55677,32161
55667,32160
55658,32157
55649,32154
55640,32150
55632,32145
55624,32139
55617,32133
55366,31882
55360,31875
55354,31867
55349,31859
55345,31850
55342,31841
55339,31832
55338,31822
55337,31813
55338,31803
55339,31793
55342,31784
55345,31775
55349,31766
55354,31758
55360,31750
55366,31743
55547,31562
55554,31556
55562,31550
55570,31545
55579,31541
55588,31537
55598,31535
55607,31534
55617,31533
55627,31534
Z" /> 
<path style="fill:#000000; fill-opacity:1.0; 
stroke:#000000; stroke-width:0; stroke-opacity:1; 
stroke-linecap:round; stroke-linejoin:round;fill-rule:evenodd;"
d="M 56197,30963
56207,30964
56216,30967
56225,30970
56234,30974
56242,30979
56250,30985
56257,30991
56508,31242
56514,31249
56520,31257
56525,31265
56529,31274
56532,31283
56535,31292
56536,31302
56537,31311
56536,31321
56535,31331
56532,31340
56529,31349
56525,31358
56520,31366
56514,31374
56508,31381
56327,31562
56320,31568
56312,31574
56304,31579
56295,31583
56286,31587
56276,31589
56267,31590
56257,31591
56247,31590
56238,31589
56229,31587
56219,31583
56211,31579
56202,31574
56195,31568
56188,31562
55937,31311
55931,31304
55925,31297
55920,31288
55916,31280
55912,31270
55910,31261
55909,31252
55908,31242
55909,31232
55910,31223
55912,31213
55916,31204
55920,31195
55925,31187
55931,31179
55937,31172
56118,30991
56125,30985
56133,30979
56141,30974
56150,30970
56159,30967
56168,30964
56178,30963
56188,30962
56197,30963
Z" /> 
</g>
<g >
</g>
<g style="fill:#000000; fill-opacity:1.0; 
stroke:#000000; stroke-width:0; stroke-opacity:1; 
stroke-linecap:round; stroke-linejoin:round;">
<path style="fill:#000000; fill-opacity:1.0; 
stroke:#000000; stroke-width:0; stroke-opacity:1; 
stroke-linecap:round; stroke-linejoin:round;fill-rule:evenodd;"
d="M 52686,25086
52696,25088
52705,25090
52714,25093
52723,25097
52731,25102
52739,25108
52746,25114
52753,25122
52759,25129
52763,25138
52768,25146
52771,25155
52773,25165
52775,25174
52775,25184
52775,25440
52775,25450
52773,25459
52771,25469
52768,25478
52763,25486
52759,25495
52753,25502
52746,25510
52739,25516
52731,25522
52723,25527
52714,25531
52705,25534
52696,25536
52686,25538
52677,25538
52322,25538
52313,25538
52303,25536
52294,25534
52285,25531
52276,25527
52268,25522
52260,25516
52253,25510
52246,25502
52240,25495
52236,25486
52231,25478
52228,25469
52226,25459
52224,25450
52224,25440
52224,25184
52224,25174
52226,25165
52228,25155
52231,25146
52236,25138
52240,25129
52246,25122
52253,25114
52260,25108
52268,25102
52276,25097
52285,25093
52294,25090
52303,25088
52313,25086
52322,25086
52677,25086
52686,25086
Z" /> 
<path style="fill:#000000; fill-opacity:1.0; 
stroke:#000000; stroke-width:0; stroke-opacity:1; 
stroke-linecap:round; stroke-linejoin:round;fill-rule:evenodd;"
d="M 52686,25893
52696,25895
52705,25897
52714,25900
52723,25904
52731,25909
52739,25915
52746,25922
52753,25929
52759,25936
52763,25945
52768,25953
52771,25963
52773,25972
52775,25981
52775,25991
52775,26247
52775,26257
52773,26266
52771,26276
52768,26285
52763,26293
52759,26302
52753,26309
52746,26317
52739,26323
52731,26329
52723,26334
52714,26338
52705,26341
52696,26344
52686,26345
52677,26345
52322,26345
52313,26345
52303,26344
52294,26341
52285,26338
52276,26334
52268,26329
52260,26323
52253,26317
52246,26309
52240,26302
52236,26293
52231,26285
52228,26276
52226,26266
52224,26257
52224,26247
52224,25991
52224,25981
52226,25972
52228,25963
52231,25953
52236,25945
52240,25936
52246,25929
52253,25922
52260,25915
52268,25909
52276,25904
52285,25900
52294,25897
52303,25895
52313,25893
52322,25893
52677,25893
52686,25893
Z" /> 
</g>
<g >
</g>
<g style="fill:#000000; fill-opacity:1.0; 
stroke:#000000; stroke-width:0; stroke-opacity:1; 
stroke-linecap:round; stroke-linejoin:round;">
<path style="fill:#000000; fill-opacity:1.0; 
stroke:#000000; stroke-width:0; stroke-opacity:1; 
stroke-linecap:round; stroke-linejoin:round;fill-rule:evenodd;"
d="M 48821,30963
48831,30964
48840,30967
48849,30970
48858,30974
48866,30979
48874,30985
48881,30991
49062,31172
49068,31179
49074,31187
49079,31195
49083,31204
49087,31213
49089,31223
49090,31232
49091,31242
49090,31252
49089,31261
49087,31270
49083,31280
49079,31288
49074,31297
49068,31304
49062,31311
48811,31562
48804,31568
48797,31574
48788,31579
48780,31583
48770,31587
48761,31589
48752,31590
48742,31591
48732,31590
48723,31589
48713,31587
48704,31583
48695,31579
48687,31574
48679,31568
48672,31562
48491,31381
48485,31374
48479,31366
48474,31358
48470,31349
48467,31340
48464,31331
48463,31321
48462,31311
48463,31302
48464,31292
48467,31283
48470,31274
48474,31265
48479,31257
48485,31249
48491,31242
48742,30991
48749,30985
48757,30979
48765,30974
48774,30970
48783,30967
48792,30964
48802,30963
48811,30962
48821,30963
Z" /> 
<path style="fill:#000000; fill-opacity:1.0; 
stroke:#000000; stroke-width:0; stroke-opacity:1; 
stroke-linecap:round; stroke-linejoin:round;fill-rule:evenodd;"
d="M 49392,31534
49401,31535
49411,31537
49420,31541
49429,31545
49437,31550
49445,31556
49452,31562
49633,31743
49639,31750
49645,31758
49650,31766
49654,31775
49657,31784
49660,31793
49661,31803
49662,31813
49661,31822
49660,31832
49657,31841
49654,31850
49650,31859
49645,31867
49639,31875
49633,31882
49382,32133
49375,32139
49367,32145
49359,32150
49350,32154
49341,32157
49332,32160
49322,32161
49313,32162
49303,32161
49293,32160
49284,32157
49275,32154
49266,32150
49258,32145
49250,32139
49243,32133
49062,31952
49056,31945
49050,31937
49045,31929
49041,31920
49037,31911
49035,31901
49034,31892
49033,31882
49034,31872
49035,31863
49037,31854
49041,31844
49045,31836
49050,31827
49056,31820
49062,31813
49313,31562
49320,31556
49327,31550
49336,31545
49344,31541
49354,31537
49363,31535
49372,31534
49382,31533
49392,31534
Z" /> 
</g>
<g >
</g>
<g style="fill:#000000; fill-opacity:1.0; 
stroke:#000000; stroke-width:0; stroke-opacity:1; 
stroke-linecap:round; stroke-linejoin:round;">
<path style="fill:#000000; fill-opacity:1.0; 
stroke:#000000; stroke-width:0; stroke-opacity:1; 
stroke-linecap:round; stroke-linejoin:round;fill-rule:evenodd;"
d="M 53983,33150
53992,33152
54001,33154
54011,33157
54019,33162
54028,33167
54035,33172
54042,33179
54293,33429
54300,33437
54305,33444
54310,33453
54314,33461
54318,33470
54320,33480
54321,33489
54322,33499
54321,33509
54320,33518
54318,33528
54314,33537
54310,33545
54305,33554
54300,33561
54293,33569
54112,33750
54105,33756
54097,33762
54089,33767
54080,33771
54071,33774
54062,33776
54052,33778
54042,33778
54033,33778
54023,33776
54014,33774
54005,33771
53996,33767
53988,33762
53980,33756
53973,33750
53722,33499
53716,33492
53710,33484
53705,33476
53701,33467
53698,33458
53695,33449
53694,33439
53694,33429
53694,33420
53695,33410
53698,33401
53701,33392
53705,33383
53710,33375
53716,33367
53722,33360
53903,33179
53910,33172
53918,33167
53927,33162
53935,33157
53944,33154
53954,33152
53963,33150
53973,33150
53983,33150
Z" /> 
<path style="fill:#000000; fill-opacity:1.0; 
stroke:#000000; stroke-width:0; stroke-opacity:1; 
stroke-linecap:round; stroke-linejoin:round;fill-rule:evenodd;"
d="M 53412,33721
53421,33723
53431,33725
53440,33728
53449,33732
53457,33737
53465,33743
53472,33749
53722,34000
53729,34007
53735,34015
53740,34023
53744,34032
53747,34041
53749,34050
53751,34060
53751,34070
53751,34079
53749,34089
53747,34098
53744,34107
53740,34116
53735,34124
53729,34132
53722,34139
53541,34320
53534,34327
53526,34332
53518,34337
53509,34342
53500,34345
53491,34347
53481,34349
53472,34349
53462,34349
53453,34347
53443,34345
53434,34342
53425,34337
53417,34332
53409,34327
53402,34320
53152,34070
53145,34062
53139,34055
53134,34046
53130,34038
53127,34029
53125,34019
53123,34010
53123,34000
53123,33990
53125,33981
53127,33971
53130,33962
53134,33954
53139,33945
53145,33938
53152,33930
53333,33749
53340,33743
53348,33737
53356,33732
53365,33728
53374,33725
53383,33723
53393,33721
53402,33721
53412,33721
Z" /> 
</g>
<g >
</g>
<g style="fill:#000000; fill-opacity:1.0; 
stroke:#000000; stroke-width:0; stroke-opacity:1; 
stroke-linecap:round; stroke-linejoin:round;">
<path style="fill:#000000; fill-opacity:1.0; 
stroke:#000000; stroke-width:0; stroke-opacity:1; 
stroke-linecap:round; stroke-linejoin:round;fill-rule:evenodd;"
d="M 55831,28736
55841,28737
55850,28740
55859,28743
55868,28747
55876,28752
55884,28758
55891,28764
56072,28945
56079,28952
56085,28960
56090,28968
56094,28977
56097,28986
56099,28996
56101,29005
56101,29015
56101,29024
56099,29034
56097,29043
56094,29052
56090,29061
56085,29069
56079,29077
56072,29084
55822,29335
55815,29341
55807,29347
55799,29352
55790,29356
55781,29359
55771,29362
55762,29363
55752,29364
55743,29363
55733,29362
55724,29359
55715,29356
55706,29352
55698,29347
55690,29341
55683,29335
55502,29154
55495,29147
55489,29139
55484,29131
55480,29122
55477,29113
55475,29104
55473,29094
55473,29084
55473,29075
55475,29065
55477,29056
55480,29047
55484,29038
55489,29030
55495,29022
55502,29015
55752,28764
55759,28758
55767,28752
55775,28747
55784,28743
55793,28740
55803,28737
55812,28736
55822,28735
55831,28736
Z" /> 
<path style="fill:#000000; fill-opacity:1.0; 
stroke:#000000; stroke-width:0; stroke-opacity:1; 
stroke-linecap:round; stroke-linejoin:round;fill-rule:evenodd;"
d="M 56402,29306
56412,29308
56421,29310
56430,29314
56439,29318
56447,29323
56455,29328
56462,29335
56643,29516
56650,29523
56655,29531
56660,29539
56664,29548
56668,29557
56670,29566
56671,29576
56672,29585
56671,29595
56670,29605
56668,29614
56664,29623
56660,29632
56655,29640
56650,29648
56643,29655
56392,29906
56385,29912
56378,29918
56369,29923
56361,29927
56351,29930
56342,29932
56333,29934
56323,29934
56313,29934
56304,29932
56294,29930
56285,29927
56277,29923
56268,29918
56260,29912
56253,29906
56072,29725
56066,29717
56060,29710
56055,29701
56051,29693
56048,29684
56045,29674
56044,29665
56044,29655
56044,29645
56045,29636
56048,29626
56051,29617
56055,29609
56060,29600
56066,29593
56072,29585
56323,29335
56330,29328
56338,29323
56346,29318
56355,29314
56364,29310
56373,29308
56383,29306
56392,29306
56402,29306
Z" /> 
</g>
<g >
</g>
<g style="fill:#000000; fill-opacity:1.0; 
stroke:#000000; stroke-width:0; stroke-opacity:1; 
stroke-linecap:round; stroke-linejoin:round;">
<path style="fill:#000000; fill-opacity:1.0; 
stroke:#000000; stroke-width:0; stroke-opacity:1; 
stroke-linecap:round; stroke-linejoin:round;fill-rule:evenodd;"
d="M 65642,27471
65651,27473
65661,27475
65670,27478
65679,27482
65687,27487
65695,27493
65702,27499
65883,27680
65889,27688
65895,27695
65900,27704
65904,27712
65907,27721
65910,27731
65911,27740
65912,27750
65911,27760
65910,27769
65907,27779
65904,27788
65900,27796
65895,27805
65889,27812
65883,27820
65632,28070
65625,28077
65617,28082
65609,28087
65600,28092
65591,28095
65582,28097
65572,28099
65563,28099
65553,28099
65543,28097
65534,28095
65525,28092
65516,28087
65508,28082
65500,28077
65493,28070
65312,27889
65306,27882
65300,27874
65295,27866
65291,27857
65287,27848
65285,27839
65284,27829
65283,27820
65284,27810
65285,27800
65287,27791
65291,27782
65295,27773
65300,27765
65306,27757
65312,27750
65563,27499
65570,27493
65577,27487
65586,27482
65594,27478
65604,27475
65613,27473
65622,27471
65632,27471
65642,27471
Z" /> 
<path style="fill:#000000; fill-opacity:1.0; 
stroke:#000000; stroke-width:0; stroke-opacity:1; 
stroke-linecap:round; stroke-linejoin:round;fill-rule:evenodd;"
d="M 65071,26900
65081,26902
65090,26904
65099,26907
65108,26912
65116,26917
65124,26922
65131,26929
65312,27110
65318,27117
65324,27125
65329,27133
65333,27142
65337,27151
65339,27160
65340,27170
65341,27179
65340,27189
65339,27199
65337,27208
65333,27217
65329,27226
65324,27234
65318,27242
65312,27249
65061,27500
65054,27506
65047,27512
65038,27517
65030,27521
65020,27524
65011,27526
65002,27528
64992,27528
64982,27528
64973,27526
64963,27524
64954,27521
64945,27517
64937,27512
64929,27506
64922,27500
64741,27319
64735,27311
64729,27304
64724,27295
64720,27287
64717,27278
64714,27268
64713,27259
64712,27249
64713,27239
64714,27230
64717,27220
64720,27211
64724,27203
64729,27194
64735,27187
64741,27179
64992,26929
64999,26922
65007,26917
65015,26912
65024,26907
65033,26904
65042,26902
65052,26900
65061,26900
65071,26900
Z" /> 
</g>
<g >
</g>
<g style="fill:#000000; fill-opacity:1.0; 
stroke:#000000; stroke-width:0; stroke-opacity:1; 
stroke-linecap:round; stroke-linejoin:round;">
<path style="fill:#000000; fill-opacity:1.0; 
stroke:#000000; stroke-width:0; stroke-opacity:1; 
stroke-linecap:round; stroke-linejoin:round;fill-rule:evenodd;"
d="M 54704,27471
54714,27473
54723,27475
54732,27478
54741,27482
54749,27487
54757,27493
54764,27499
54945,27680
54952,27688
54957,27695
54962,27704
54967,27712
54970,27721
54972,27731
54974,27740
54974,27750
54974,27760
54972,27769
54970,27779
54967,27788
54962,27796
54957,27805
54952,27812
54945,27820
54695,28070
54687,28077
54680,28082
54671,28087
54663,28092
54654,28095
54644,28097
54635,28099
54625,28099
54615,28099
54606,28097
54596,28095
54587,28092
54579,28087
54570,28082
54563,28077
54555,28070
54374,27889
54368,27882
54362,27874
54357,27866
54353,27857
54350,27848
54348,27839
54346,27829
54346,27820
54346,27810
54348,27800
54350,27791
54353,27782
54357,27773
54362,27765
54368,27757
54374,27750
54625,27499
54632,27493
54640,27487
54648,27482
54657,27478
54666,27475
54675,27473
54685,27471
54695,27471
54704,27471
Z" /> 
<path style="fill:#000000; fill-opacity:1.0; 
stroke:#000000; stroke-width:0; stroke-opacity:1; 
stroke-linecap:round; stroke-linejoin:round;fill-rule:evenodd;"
d="M 54134,26900
54143,26902
54153,26904
54162,26907
54170,26912
54179,26917
54186,26922
54194,26929
54375,27110
54381,27117
54387,27125
54392,27133
54396,27142
54399,27151
54401,27160
54403,27170
54403,27179
54403,27189
54401,27199
54399,27208
54396,27217
54392,27226
54387,27234
54381,27242
54375,27249
54124,27500
54117,27506
54109,27512
54101,27517
54092,27521
54083,27524
54074,27526
54064,27528
54054,27528
54045,27528
54035,27526
54026,27524
54017,27521
54008,27517
54000,27512
53992,27506
53985,27500
53804,27319
53797,27311
53792,27304
53787,27295
53782,27287
53779,27278
53777,27268
53775,27259
53775,27249
53775,27239
53777,27230
53779,27220
53782,27211
53787,27203
53792,27194
53797,27187
53804,27179
54054,26929
54062,26922
54069,26917
54078,26912
54086,26907
54095,26904
54105,26902
54114,26900
54124,26900
54134,26900
Z" /> 
</g>
<g >
</g>
<g style="fill:#000000; fill-opacity:1.0; 
stroke:#000000; stroke-width:0; stroke-opacity:1; 
stroke-linecap:round; stroke-linejoin:round;">
<path style="fill:#000000; fill-opacity:1.0; 
stroke:#000000; stroke-width:0; stroke-opacity:1; 
stroke-linecap:round; stroke-linejoin:round;fill-rule:evenodd;"
d="M 61899,25427
61908,25429
61918,25431
61927,25434
61936,25438
61944,25443
61952,25449
61959,25455
61965,25463
61971,25470
61976,25479
61980,25487
61983,25497
61986,25506
61987,25515
61988,25525
61988,25781
61987,25791
61986,25800
61983,25810
61980,25819
61976,25827
61971,25836
61965,25843
61959,25851
61952,25857
61944,25863
61936,25868
61927,25872
61918,25875
61908,25878
61899,25879
61889,25879
61535,25879
61525,25879
61516,25878
61506,25875
61497,25872
61488,25868
61480,25863
61472,25857
61465,25851
61459,25843
61453,25836
61448,25827
61444,25819
61441,25810
61438,25800
61437,25791
61436,25781
61436,25525
61437,25515
61438,25506
61441,25497
61444,25487
61448,25479
61453,25470
61459,25463
61465,25455
61472,25449
61480,25443
61488,25438
61497,25434
61506,25431
61516,25429
61525,25427
61535,25427
61889,25427
61899,25427
Z" /> 
<path style="fill:#000000; fill-opacity:1.0; 
stroke:#000000; stroke-width:0; stroke-opacity:1; 
stroke-linecap:round; stroke-linejoin:round;fill-rule:evenodd;"
d="M 61899,24620
61908,24621
61918,24624
61927,24627
61936,24631
61944,24636
61952,24642
61959,24648
61965,24656
61971,24663
61976,24672
61980,24680
61983,24689
61986,24699
61987,24708
61988,24718
61988,24974
61987,24984
61986,24993
61983,25002
61980,25012
61976,25020
61971,25029
61965,25036
61959,25044
61952,25050
61944,25056
61936,25061
61927,25065
61918,25068
61908,25070
61899,25072
61889,25072
61535,25072
61525,25072
61516,25070
61506,25068
61497,25065
61488,25061
61480,25056
61472,25050
61465,25044
61459,25036
61453,25029
61448,25020
61444,25012
61441,25002
61438,24993
61437,24984
61436,24974
61436,24718
61437,24708
61438,24699
61441,24689
61444,24680
61448,24672
61453,24663
61459,24656
61465,24648
61472,24642
61480,24636
61488,24631
61497,24627
61506,24624
61516,24621
61525,24620
61535,24620
61889,24620
61899,24620
Z" /> 
</g>
<g >
</g>
<g style="fill:#000000; fill-opacity:1.0; 
stroke:#000000; stroke-width:0; stroke-opacity:1; 
stroke-linecap:round; stroke-linejoin:round;">
<path style="fill:#000000; fill-opacity:1.0; 
stroke:#000000; stroke-width:0; stroke-opacity:1; 
stroke-linecap:round; stroke-linejoin:round;fill-rule:evenodd;"
d="M 50974,24620
50983,24621
50993,24624
51002,24627
51011,24631
51019,24636
51027,24642
51034,24648
51040,24656
51046,24663
51051,24672
51055,24680
51058,24689
51061,24699
51062,24708
51063,24718
51063,24974
51062,24984
51061,24993
51058,25002
51055,25012
51051,25020
51046,25029
51040,25036
51034,25044
51027,25050
51019,25056
51011,25061
51002,25065
50993,25068
50983,25070
50974,25072
50964,25072
50610,25072
50600,25072
50591,25070
50581,25068
50572,25065
50563,25061
50555,25056
50547,25050
50540,25044
50534,25036
50528,25029
50523,25020
50519,25012
50516,25002
50513,24993
50512,24984
50511,24974
50511,24718
50512,24708
50513,24699
50516,24689
50519,24680
50523,24672
50528,24663
50534,24656
50540,24648
50547,24642
50555,24636
50563,24631
50572,24627
50581,24624
50591,24621
50600,24620
50610,24620
50964,24620
50974,24620
Z" /> 
<path style="fill:#000000; fill-opacity:1.0; 
stroke:#000000; stroke-width:0; stroke-opacity:1; 
stroke-linecap:round; stroke-linejoin:round;fill-rule:evenodd;"
d="M 50974,25427
50983,25429
50993,25431
51002,25434
51011,25438
51019,25443
51027,25449
51034,25455
51040,25463
51046,25470
51051,25479
51055,25487
51058,25497
51061,25506
51062,25515
51063,25525
51063,25781
51062,25791
51061,25800
51058,25810
51055,25819
51051,25827
51046,25836
51040,25843
51034,25851
51027,25857
51019,25863
51011,25868
51002,25872
50993,25875
50983,25878
50974,25879
50964,25879
50610,25879
50600,25879
50591,25878
50581,25875
50572,25872
50563,25868
50555,25863
50547,25857
50540,25851
50534,25843
50528,25836
50523,25827
50519,25819
50516,25810
50513,25800
50512,25791
50511,25781
50511,25525
50512,25515
50513,25506
50516,25497
50519,25487
50523,25479
50528,25470
50534,25463
50540,25455
50547,25449
50555,25443
50563,25438
50572,25434
50581,25431
50591,25429
50600,25427
50610,25427
50964,25427
50974,25427
Z" /> 
</g>
<g >
</g>
<g style="fill:#000000; fill-opacity:1.0; 
stroke:#000000; stroke-width:0; stroke-opacity:1; 
stroke-linecap:round; stroke-linejoin:round;">
<path style="fill:#000000; fill-opacity:1.0; 
stroke:#000000; stroke-width:0; stroke-opacity:1; 
stroke-linecap:round; stroke-linejoin:round;fill-rule:evenodd;"
d="M 60811,25427
60821,25429
60830,25431
60839,25434
60848,25438
60856,25443
60864,25449
60871,25455
60878,25463
60884,25470
60888,25479
60893,25487
60896,25497
60898,25506
60900,25515
60900,25525
60900,25781
60900,25791
60898,25800
60896,25810
60893,25819
60888,25827
60884,25836
60878,25843
60871,25851
60864,25857
60856,25863
60848,25868
60839,25872
60830,25875
60821,25878
60811,25879
60802,25879
60447,25879
60438,25879
60428,25878
60419,25875
60410,25872
60401,25868
60393,25863
60385,25857
60378,25851
60371,25843
60365,25836
60361,25827
60356,25819
60353,25810
60351,25800
60349,25791
60349,25781
60349,25525
60349,25515
60351,25506
60353,25497
60356,25487
60361,25479
60365,25470
60371,25463
60378,25455
60385,25449
60393,25443
60401,25438
60410,25434
60419,25431
60428,25429
60438,25427
60447,25427
60802,25427
60811,25427
Z" /> 
<path style="fill:#000000; fill-opacity:1.0; 
stroke:#000000; stroke-width:0; stroke-opacity:1; 
stroke-linecap:round; stroke-linejoin:round;fill-rule:evenodd;"
d="M 60811,24620
60821,24621
60830,24624
60839,24627
60848,24631
60856,24636
60864,24642
60871,24648
60878,24656
60884,24663
60888,24672
60893,24680
60896,24689
60898,24699
60900,24708
60900,24718
60900,24974
60900,24984
60898,24993
60896,25002
60893,25012
60888,25020
60884,25029
60878,25036
60871,25044
60864,25050
60856,25056
60848,25061
60839,25065
60830,25068
60821,25070
60811,25072
60802,25072
60447,25072
60438,25072
60428,25070
60419,25068
60410,25065
60401,25061
60393,25056
60385,25050
60378,25044
60371,25036
60365,25029
60361,25020
60356,25012
60353,25002
60351,24993
60349,24984
60349,24974
60349,24718
60349,24708
60351,24699
60353,24689
60356,24680
60361,24672
60365,24663
60371,24656
60378,24648
60385,24642
60393,24636
60401,24631
60410,24627
60419,24624
60428,24621
60438,24620
60447,24620
60802,24620
60811,24620
Z" /> 
</g>
<g >
</g>
<g style="fill:#000000; fill-opacity:1.0; 
stroke:#000000; stroke-width:0; stroke-opacity:1; 
stroke-linecap:round; stroke-linejoin:round;">
<path style="fill:#000000; fill-opacity:1.0; 
stroke:#000000; stroke-width:0; stroke-opacity:1; 
stroke-linecap:round; stroke-linejoin:round;fill-rule:evenodd;"
d="M 49874,24620
49883,24621
49893,24624
49902,24627
49911,24631
49919,24636
49927,24642
49934,24648
49940,24656
49946,24663
49951,24672
49955,24680
49958,24689
49961,24699
49962,24708
49963,24718
49963,24974
49962,24984
49961,24993
49958,25002
49955,25012
49951,25020
49946,25029
49940,25036
49934,25044
49927,25050
49919,25056
49911,25061
49902,25065
49893,25068
49883,25070
49874,25072
49864,25072
49510,25072
49500,25072
49491,25070
49481,25068
49472,25065
49463,25061
49455,25056
49447,25050
49440,25044
49434,25036
49428,25029
49423,25020
49419,25012
49416,25002
49413,24993
49412,24984
49411,24974
49411,24718
49412,24708
49413,24699
49416,24689
49419,24680
49423,24672
49428,24663
49434,24656
49440,24648
49447,24642
49455,24636
49463,24631
49472,24627
49481,24624
49491,24621
49500,24620
49510,24620
49864,24620
49874,24620
Z" /> 
<path style="fill:#000000; fill-opacity:1.0; 
stroke:#000000; stroke-width:0; stroke-opacity:1; 
stroke-linecap:round; stroke-linejoin:round;fill-rule:evenodd;"
d="M 49874,25427
49883,25429
49893,25431
49902,25434
49911,25438
49919,25443
49927,25449
49934,25455
49940,25463
49946,25470
49951,25479
49955,25487
49958,25497
49961,25506
49962,25515
49963,25525
49963,25781
49962,25791
49961,25800
49958,25810
49955,25819
49951,25827
49946,25836
49940,25843
49934,25851
49927,25857
49919,25863
49911,25868
49902,25872
49893,25875
49883,25878
49874,25879
49864,25879
49510,25879
49500,25879
49491,25878
49481,25875
49472,25872
49463,25868
49455,25863
49447,25857
49440,25851
49434,25843
49428,25836
49423,25827
49419,25819
49416,25810
49413,25800
49412,25791
49411,25781
49411,25525
49412,25515
49413,25506
49416,25497
49419,25487
49423,25479
49428,25470
49434,25463
49440,25455
49447,25449
49455,25443
49463,25438
49472,25434
49481,25431
49491,25429
49500,25427
49510,25427
49864,25427
49874,25427
Z" /> 
</g>
<g >
</g>
<g >
</g>
<g >
</g>
</g> 
</svg>
