G04 #@! TF.GenerationSoftware,KiCad,Pcbnew,(5.1.4)-1*
G04 #@! TF.CreationDate,2023-05-04T11:41:47-04:00*
G04 #@! TF.ProjectId,corne-chocolate,636f726e-652d-4636-986f-636f6c617465,2.1*
G04 #@! TF.SameCoordinates,Original*
G04 #@! TF.FileFunction,Soldermask,Top*
G04 #@! TF.FilePolarity,Negative*
%FSLAX46Y46*%
G04 Gerber Fmt 4.6, Leading zero omitted, Abs format (unit mm)*
G04 Created by KiCad (PCBNEW (5.1.4)-1) date 2023-05-04 11:41:47*
%MOMM*%
%LPD*%
G04 APERTURE LIST*
%ADD10C,0.125000*%
%ADD11C,2.200000*%
%ADD12C,3.800000*%
%ADD13C,3.400000*%
%ADD14C,2.000000*%
%ADD15C,0.100000*%
%ADD16C,1.400000*%
%ADD17R,2.000000X2.600000*%
%ADD18C,1.600000*%
%ADD19O,2.900000X2.100000*%
%ADD20R,2.400000X1.400000*%
%ADD21R,2.000000X1.400000*%
%ADD22C,1.924000*%
%ADD23R,1.350000X1.700000*%
%ADD24C,1.797000*%
%ADD25R,1.543000X1.035000*%
%ADD26R,1.924000X1.924000*%
%ADD27C,5.400000*%
%ADD28C,4.400000*%
%ADD29C,2.400000*%
%ADD30R,0.800000X0.800000*%
%ADD31R,1.000000X1.543000*%
G04 APERTURE END LIST*
D10*
X99140773Y-120994642D02*
X99093154Y-121042261D01*
X98950297Y-121089880D01*
X98855059Y-121089880D01*
X98712202Y-121042261D01*
X98616964Y-120947023D01*
X98569345Y-120851785D01*
X98521726Y-120661309D01*
X98521726Y-120518452D01*
X98569345Y-120327976D01*
X98616964Y-120232738D01*
X98712202Y-120137500D01*
X98855059Y-120089880D01*
X98950297Y-120089880D01*
X99093154Y-120137500D01*
X99140773Y-120185119D01*
X99712202Y-121089880D02*
X99616964Y-121042261D01*
X99569345Y-120994642D01*
X99521726Y-120899404D01*
X99521726Y-120613690D01*
X99569345Y-120518452D01*
X99616964Y-120470833D01*
X99712202Y-120423214D01*
X99855059Y-120423214D01*
X99950297Y-120470833D01*
X99997916Y-120518452D01*
X100045535Y-120613690D01*
X100045535Y-120899404D01*
X99997916Y-120994642D01*
X99950297Y-121042261D01*
X99855059Y-121089880D01*
X99712202Y-121089880D01*
X100474107Y-121089880D02*
X100474107Y-120423214D01*
X100474107Y-120613690D02*
X100521726Y-120518452D01*
X100569345Y-120470833D01*
X100664583Y-120423214D01*
X100759821Y-120423214D01*
X101093154Y-120423214D02*
X101093154Y-121089880D01*
X101093154Y-120518452D02*
X101140773Y-120470833D01*
X101236011Y-120423214D01*
X101378869Y-120423214D01*
X101474107Y-120470833D01*
X101521726Y-120566071D01*
X101521726Y-121089880D01*
X102378869Y-121042261D02*
X102283630Y-121089880D01*
X102093154Y-121089880D01*
X101997916Y-121042261D01*
X101950297Y-120947023D01*
X101950297Y-120566071D01*
X101997916Y-120470833D01*
X102093154Y-120423214D01*
X102283630Y-120423214D01*
X102378869Y-120470833D01*
X102426488Y-120566071D01*
X102426488Y-120661309D01*
X101950297Y-120756547D01*
X104188392Y-120994642D02*
X104140773Y-121042261D01*
X103997916Y-121089880D01*
X103902678Y-121089880D01*
X103759821Y-121042261D01*
X103664583Y-120947023D01*
X103616964Y-120851785D01*
X103569345Y-120661309D01*
X103569345Y-120518452D01*
X103616964Y-120327976D01*
X103664583Y-120232738D01*
X103759821Y-120137500D01*
X103902678Y-120089880D01*
X103997916Y-120089880D01*
X104140773Y-120137500D01*
X104188392Y-120185119D01*
X104616964Y-121089880D02*
X104616964Y-120089880D01*
X105045535Y-121089880D02*
X105045535Y-120566071D01*
X104997916Y-120470833D01*
X104902678Y-120423214D01*
X104759821Y-120423214D01*
X104664583Y-120470833D01*
X104616964Y-120518452D01*
X105664583Y-121089880D02*
X105569345Y-121042261D01*
X105521726Y-120994642D01*
X105474107Y-120899404D01*
X105474107Y-120613690D01*
X105521726Y-120518452D01*
X105569345Y-120470833D01*
X105664583Y-120423214D01*
X105807440Y-120423214D01*
X105902678Y-120470833D01*
X105950297Y-120518452D01*
X105997916Y-120613690D01*
X105997916Y-120899404D01*
X105950297Y-120994642D01*
X105902678Y-121042261D01*
X105807440Y-121089880D01*
X105664583Y-121089880D01*
X106855059Y-121042261D02*
X106759821Y-121089880D01*
X106569345Y-121089880D01*
X106474107Y-121042261D01*
X106426488Y-120994642D01*
X106378869Y-120899404D01*
X106378869Y-120613690D01*
X106426488Y-120518452D01*
X106474107Y-120470833D01*
X106569345Y-120423214D01*
X106759821Y-120423214D01*
X106855059Y-120470833D01*
X107426488Y-121089880D02*
X107331250Y-121042261D01*
X107283630Y-120994642D01*
X107236011Y-120899404D01*
X107236011Y-120613690D01*
X107283630Y-120518452D01*
X107331250Y-120470833D01*
X107426488Y-120423214D01*
X107569345Y-120423214D01*
X107664583Y-120470833D01*
X107712202Y-120518452D01*
X107759821Y-120613690D01*
X107759821Y-120899404D01*
X107712202Y-120994642D01*
X107664583Y-121042261D01*
X107569345Y-121089880D01*
X107426488Y-121089880D01*
X108331250Y-121089880D02*
X108236011Y-121042261D01*
X108188392Y-120947023D01*
X108188392Y-120089880D01*
X109140773Y-121089880D02*
X109140773Y-120566071D01*
X109093154Y-120470833D01*
X108997916Y-120423214D01*
X108807440Y-120423214D01*
X108712202Y-120470833D01*
X109140773Y-121042261D02*
X109045535Y-121089880D01*
X108807440Y-121089880D01*
X108712202Y-121042261D01*
X108664583Y-120947023D01*
X108664583Y-120851785D01*
X108712202Y-120756547D01*
X108807440Y-120708928D01*
X109045535Y-120708928D01*
X109140773Y-120661309D01*
X109474107Y-120423214D02*
X109855059Y-120423214D01*
X109616964Y-120089880D02*
X109616964Y-120947023D01*
X109664583Y-121042261D01*
X109759821Y-121089880D01*
X109855059Y-121089880D01*
X110569345Y-121042261D02*
X110474107Y-121089880D01*
X110283630Y-121089880D01*
X110188392Y-121042261D01*
X110140773Y-120947023D01*
X110140773Y-120566071D01*
X110188392Y-120470833D01*
X110283630Y-120423214D01*
X110474107Y-120423214D01*
X110569345Y-120470833D01*
X110616964Y-120566071D01*
X110616964Y-120661309D01*
X110140773Y-120756547D01*
X111712202Y-120423214D02*
X111950297Y-121089880D01*
X112188392Y-120423214D01*
X112521726Y-120185119D02*
X112569345Y-120137500D01*
X112664583Y-120089880D01*
X112902678Y-120089880D01*
X112997916Y-120137500D01*
X113045535Y-120185119D01*
X113093154Y-120280357D01*
X113093154Y-120375595D01*
X113045535Y-120518452D01*
X112474107Y-121089880D01*
X113093154Y-121089880D01*
X113521726Y-120994642D02*
X113569345Y-121042261D01*
X113521726Y-121089880D01*
X113474107Y-121042261D01*
X113521726Y-120994642D01*
X113521726Y-121089880D01*
X114521726Y-121089880D02*
X113950297Y-121089880D01*
X114236011Y-121089880D02*
X114236011Y-120089880D01*
X114140773Y-120232738D01*
X114045535Y-120327976D01*
X113950297Y-120375595D01*
X98569345Y-122714880D02*
X98569345Y-121714880D01*
X98950297Y-121714880D01*
X99045535Y-121762500D01*
X99093154Y-121810119D01*
X99140773Y-121905357D01*
X99140773Y-122048214D01*
X99093154Y-122143452D01*
X99045535Y-122191071D01*
X98950297Y-122238690D01*
X98569345Y-122238690D01*
X100140773Y-122619642D02*
X100093154Y-122667261D01*
X99950297Y-122714880D01*
X99855059Y-122714880D01*
X99712202Y-122667261D01*
X99616964Y-122572023D01*
X99569345Y-122476785D01*
X99521726Y-122286309D01*
X99521726Y-122143452D01*
X99569345Y-121952976D01*
X99616964Y-121857738D01*
X99712202Y-121762500D01*
X99855059Y-121714880D01*
X99950297Y-121714880D01*
X100093154Y-121762500D01*
X100140773Y-121810119D01*
X100902678Y-122191071D02*
X101045535Y-122238690D01*
X101093154Y-122286309D01*
X101140773Y-122381547D01*
X101140773Y-122524404D01*
X101093154Y-122619642D01*
X101045535Y-122667261D01*
X100950297Y-122714880D01*
X100569345Y-122714880D01*
X100569345Y-121714880D01*
X100902678Y-121714880D01*
X100997916Y-121762500D01*
X101045535Y-121810119D01*
X101093154Y-121905357D01*
X101093154Y-122000595D01*
X101045535Y-122095833D01*
X100997916Y-122143452D01*
X100902678Y-122191071D01*
X100569345Y-122191071D01*
X102759821Y-122714880D02*
X102759821Y-121714880D01*
X102759821Y-122667261D02*
X102664583Y-122714880D01*
X102474107Y-122714880D01*
X102378869Y-122667261D01*
X102331250Y-122619642D01*
X102283630Y-122524404D01*
X102283630Y-122238690D01*
X102331250Y-122143452D01*
X102378869Y-122095833D01*
X102474107Y-122048214D01*
X102664583Y-122048214D01*
X102759821Y-122095833D01*
X103616964Y-122667261D02*
X103521726Y-122714880D01*
X103331250Y-122714880D01*
X103236011Y-122667261D01*
X103188392Y-122572023D01*
X103188392Y-122191071D01*
X103236011Y-122095833D01*
X103331250Y-122048214D01*
X103521726Y-122048214D01*
X103616964Y-122095833D01*
X103664583Y-122191071D01*
X103664583Y-122286309D01*
X103188392Y-122381547D01*
X104045535Y-122667261D02*
X104140773Y-122714880D01*
X104331250Y-122714880D01*
X104426488Y-122667261D01*
X104474107Y-122572023D01*
X104474107Y-122524404D01*
X104426488Y-122429166D01*
X104331250Y-122381547D01*
X104188392Y-122381547D01*
X104093154Y-122333928D01*
X104045535Y-122238690D01*
X104045535Y-122191071D01*
X104093154Y-122095833D01*
X104188392Y-122048214D01*
X104331250Y-122048214D01*
X104426488Y-122095833D01*
X104902678Y-122714880D02*
X104902678Y-122048214D01*
X104902678Y-121714880D02*
X104855059Y-121762500D01*
X104902678Y-121810119D01*
X104950297Y-121762500D01*
X104902678Y-121714880D01*
X104902678Y-121810119D01*
X105807440Y-122048214D02*
X105807440Y-122857738D01*
X105759821Y-122952976D01*
X105712202Y-123000595D01*
X105616964Y-123048214D01*
X105474107Y-123048214D01*
X105378869Y-123000595D01*
X105807440Y-122667261D02*
X105712202Y-122714880D01*
X105521726Y-122714880D01*
X105426488Y-122667261D01*
X105378869Y-122619642D01*
X105331250Y-122524404D01*
X105331250Y-122238690D01*
X105378869Y-122143452D01*
X105426488Y-122095833D01*
X105521726Y-122048214D01*
X105712202Y-122048214D01*
X105807440Y-122095833D01*
X106283630Y-122048214D02*
X106283630Y-122714880D01*
X106283630Y-122143452D02*
X106331250Y-122095833D01*
X106426488Y-122048214D01*
X106569345Y-122048214D01*
X106664583Y-122095833D01*
X106712202Y-122191071D01*
X106712202Y-122714880D01*
X107569345Y-122667261D02*
X107474107Y-122714880D01*
X107283630Y-122714880D01*
X107188392Y-122667261D01*
X107140773Y-122572023D01*
X107140773Y-122191071D01*
X107188392Y-122095833D01*
X107283630Y-122048214D01*
X107474107Y-122048214D01*
X107569345Y-122095833D01*
X107616964Y-122191071D01*
X107616964Y-122286309D01*
X107140773Y-122381547D01*
X108474107Y-122714880D02*
X108474107Y-121714880D01*
X108474107Y-122667261D02*
X108378869Y-122714880D01*
X108188392Y-122714880D01*
X108093154Y-122667261D01*
X108045535Y-122619642D01*
X107997916Y-122524404D01*
X107997916Y-122238690D01*
X108045535Y-122143452D01*
X108093154Y-122095833D01*
X108188392Y-122048214D01*
X108378869Y-122048214D01*
X108474107Y-122095833D01*
X109712202Y-122714880D02*
X109712202Y-121714880D01*
X109712202Y-122095833D02*
X109807440Y-122048214D01*
X109997916Y-122048214D01*
X110093154Y-122095833D01*
X110140773Y-122143452D01*
X110188392Y-122238690D01*
X110188392Y-122524404D01*
X110140773Y-122619642D01*
X110093154Y-122667261D01*
X109997916Y-122714880D01*
X109807440Y-122714880D01*
X109712202Y-122667261D01*
X110521726Y-122048214D02*
X110759821Y-122714880D01*
X110997916Y-122048214D02*
X110759821Y-122714880D01*
X110664583Y-122952976D01*
X110616964Y-123000595D01*
X110521726Y-123048214D01*
X111997916Y-122048214D02*
X112378869Y-122048214D01*
X112140773Y-122714880D02*
X112140773Y-121857738D01*
X112188392Y-121762500D01*
X112283630Y-121714880D01*
X112378869Y-121714880D01*
X112855059Y-122714880D02*
X112759821Y-122667261D01*
X112712202Y-122619642D01*
X112664583Y-122524404D01*
X112664583Y-122238690D01*
X112712202Y-122143452D01*
X112759821Y-122095833D01*
X112855059Y-122048214D01*
X112997916Y-122048214D01*
X113093154Y-122095833D01*
X113140773Y-122143452D01*
X113188392Y-122238690D01*
X113188392Y-122524404D01*
X113140773Y-122619642D01*
X113093154Y-122667261D01*
X112997916Y-122714880D01*
X112855059Y-122714880D01*
X113759821Y-122714880D02*
X113664583Y-122667261D01*
X113616964Y-122619642D01*
X113569345Y-122524404D01*
X113569345Y-122238690D01*
X113616964Y-122143452D01*
X113664583Y-122095833D01*
X113759821Y-122048214D01*
X113902678Y-122048214D01*
X113997916Y-122095833D01*
X114045535Y-122143452D01*
X114093154Y-122238690D01*
X114093154Y-122524404D01*
X114045535Y-122619642D01*
X113997916Y-122667261D01*
X113902678Y-122714880D01*
X113759821Y-122714880D01*
X114474107Y-122667261D02*
X114569345Y-122714880D01*
X114759821Y-122714880D01*
X114855059Y-122667261D01*
X114902678Y-122572023D01*
X114902678Y-122524404D01*
X114855059Y-122429166D01*
X114759821Y-122381547D01*
X114616964Y-122381547D01*
X114521726Y-122333928D01*
X114474107Y-122238690D01*
X114474107Y-122191071D01*
X114521726Y-122095833D01*
X114616964Y-122048214D01*
X114759821Y-122048214D01*
X114855059Y-122095833D01*
X115188392Y-122048214D02*
X115569345Y-122048214D01*
X115331250Y-121714880D02*
X115331250Y-122572023D01*
X115378869Y-122667261D01*
X115474107Y-122714880D01*
X115569345Y-122714880D01*
X116331250Y-122714880D02*
X116331250Y-122191071D01*
X116283630Y-122095833D01*
X116188392Y-122048214D01*
X115997916Y-122048214D01*
X115902678Y-122095833D01*
X116331250Y-122667261D02*
X116236011Y-122714880D01*
X115997916Y-122714880D01*
X115902678Y-122667261D01*
X115855059Y-122572023D01*
X115855059Y-122476785D01*
X115902678Y-122381547D01*
X115997916Y-122333928D01*
X116236011Y-122333928D01*
X116331250Y-122286309D01*
X116807440Y-122048214D02*
X116807440Y-122714880D01*
X116807440Y-122143452D02*
X116855059Y-122095833D01*
X116950297Y-122048214D01*
X117093154Y-122048214D01*
X117188392Y-122095833D01*
X117236011Y-122191071D01*
X117236011Y-122714880D01*
D11*
X182500000Y-131736860D03*
X177000000Y-141263140D03*
D12*
X179750000Y-136500000D03*
D13*
X184859550Y-139450000D03*
X180454294Y-142680127D03*
D14*
X186854294Y-131595002D03*
D15*
G36*
X186228461Y-130078977D02*
G01*
X188480127Y-131378977D01*
X187480127Y-133111027D01*
X185228461Y-131811027D01*
X186228461Y-130078977D01*
X186228461Y-130078977D01*
G37*
D14*
X183459550Y-141874871D03*
D15*
G36*
X182833717Y-140358846D02*
G01*
X185085383Y-141658846D01*
X184085383Y-143390896D01*
X181833717Y-142090896D01*
X182833717Y-140358846D01*
X182833717Y-140358846D01*
G37*
D13*
X185454294Y-134019873D03*
D16*
X173502693Y-138920653D03*
X178722693Y-129879347D03*
D11*
X75500000Y-77125000D03*
X64500000Y-77125000D03*
D12*
X70000000Y-77125000D03*
D13*
X70000000Y-83025000D03*
X65000000Y-80825000D03*
D17*
X77900000Y-80825000D03*
X67200000Y-83025000D03*
D13*
X75000000Y-80825000D03*
D16*
X64780000Y-72925000D03*
X75220000Y-72925000D03*
D11*
X162812592Y-134173505D03*
X152187408Y-131326495D03*
D12*
X157500000Y-132750000D03*
D13*
X155972968Y-138448962D03*
X151712740Y-135029830D03*
D14*
X164173184Y-138368596D03*
D15*
G36*
X165475575Y-137371711D02*
G01*
X164802645Y-139883119D01*
X162870793Y-139365481D01*
X163543723Y-136854073D01*
X165475575Y-137371711D01*
X165475575Y-137371711D01*
G37*
D14*
X153268375Y-137724269D03*
D15*
G36*
X154570766Y-136727384D02*
G01*
X153897836Y-139238792D01*
X151965984Y-138721154D01*
X152638914Y-136209746D01*
X154570766Y-136727384D01*
X154570766Y-136727384D01*
G37*
D13*
X161371999Y-137618021D03*
D16*
X153544907Y-127342076D03*
X163629173Y-130044147D03*
D11*
X151500000Y-91375000D03*
X140500000Y-91375000D03*
D12*
X146000000Y-91375000D03*
D13*
X146000000Y-97275000D03*
X141000000Y-95075000D03*
D17*
X153900000Y-95075000D03*
X143200000Y-97275000D03*
D13*
X151000000Y-95075000D03*
D16*
X140780000Y-87175000D03*
X151220000Y-87175000D03*
D11*
X170500000Y-112750000D03*
X159500000Y-112750000D03*
D12*
X165000000Y-112750000D03*
D13*
X165000000Y-118650000D03*
X160000000Y-116450000D03*
D17*
X172900000Y-116450000D03*
X162200000Y-118650000D03*
D13*
X170000000Y-116450000D03*
D16*
X159780000Y-108550000D03*
X170220000Y-108550000D03*
D11*
X170500000Y-93750000D03*
X159500000Y-93750000D03*
D12*
X165000000Y-93750000D03*
D13*
X165000000Y-99650000D03*
X160000000Y-97450000D03*
D17*
X172900000Y-97450000D03*
X162200000Y-99650000D03*
D13*
X170000000Y-97450000D03*
D16*
X159780000Y-89550000D03*
X170220000Y-89550000D03*
D11*
X170500000Y-74750000D03*
X159500000Y-74750000D03*
D12*
X165000000Y-74750000D03*
D13*
X165000000Y-80650000D03*
X160000000Y-78450000D03*
D17*
X172900000Y-78450000D03*
X162200000Y-80650000D03*
D13*
X170000000Y-78450000D03*
D16*
X159780000Y-70550000D03*
X170220000Y-70550000D03*
D11*
X151500000Y-72375000D03*
X140500000Y-72375000D03*
D12*
X146000000Y-72375000D03*
D13*
X146000000Y-78275000D03*
X141000000Y-76075000D03*
D17*
X153900000Y-76075000D03*
X143200000Y-78275000D03*
D13*
X151000000Y-76075000D03*
D16*
X140780000Y-68175000D03*
X151220000Y-68175000D03*
D11*
X113500000Y-110375000D03*
X102500000Y-110375000D03*
D12*
X108000000Y-110375000D03*
D13*
X108000000Y-116275000D03*
X103000000Y-114075000D03*
D17*
X115900000Y-114075000D03*
X105200000Y-116275000D03*
D13*
X113000000Y-114075000D03*
D16*
X102780000Y-106175000D03*
X113220000Y-106175000D03*
D11*
X132500000Y-89000000D03*
X121500000Y-89000000D03*
D12*
X127000000Y-89000000D03*
D13*
X127000000Y-94900000D03*
X122000000Y-92700000D03*
D17*
X134900000Y-92700000D03*
X124200000Y-94900000D03*
D13*
X132000000Y-92700000D03*
D16*
X121780000Y-84800000D03*
X132220000Y-84800000D03*
D11*
X113500000Y-72375000D03*
X102500000Y-72375000D03*
D12*
X108000000Y-72375000D03*
D13*
X108000000Y-78275000D03*
X103000000Y-76075000D03*
D17*
X115900000Y-76075000D03*
X105200000Y-78275000D03*
D13*
X113000000Y-76075000D03*
D16*
X102780000Y-68175000D03*
X113220000Y-68175000D03*
D11*
X94500000Y-115125000D03*
X83500000Y-115125000D03*
D12*
X89000000Y-115125000D03*
D13*
X89000000Y-121025000D03*
X84000000Y-118825000D03*
D17*
X96900000Y-118825000D03*
X86200000Y-121025000D03*
D13*
X94000000Y-118825000D03*
D16*
X83780000Y-110925000D03*
X94220000Y-110925000D03*
D11*
X94500000Y-77125000D03*
X83500000Y-77125000D03*
D12*
X89000000Y-77125000D03*
D13*
X89000000Y-83025000D03*
X84000000Y-80825000D03*
D17*
X96900000Y-80825000D03*
X86200000Y-83025000D03*
D13*
X94000000Y-80825000D03*
D16*
X83780000Y-72925000D03*
X94220000Y-72925000D03*
D11*
X151500000Y-110375000D03*
X140500000Y-110375000D03*
D12*
X146000000Y-110375000D03*
D13*
X146000000Y-116275000D03*
X141000000Y-114075000D03*
D17*
X153900000Y-114075000D03*
X143200000Y-116275000D03*
D13*
X151000000Y-114075000D03*
D16*
X140780000Y-106175000D03*
X151220000Y-106175000D03*
D11*
X132500000Y-70000000D03*
X121500000Y-70000000D03*
D12*
X127000000Y-70000000D03*
D13*
X127000000Y-75900000D03*
X122000000Y-73700000D03*
D17*
X134900000Y-73700000D03*
X124200000Y-75900000D03*
D13*
X132000000Y-73700000D03*
D16*
X121780000Y-65800000D03*
X132220000Y-65800000D03*
D11*
X132500000Y-108000000D03*
X121500000Y-108000000D03*
D12*
X127000000Y-108000000D03*
D13*
X127000000Y-113900000D03*
X122000000Y-111700000D03*
D17*
X134900000Y-111700000D03*
X124200000Y-113900000D03*
D13*
X132000000Y-111700000D03*
D16*
X121780000Y-103800000D03*
X132220000Y-103800000D03*
D11*
X142000000Y-130000000D03*
X131000000Y-130000000D03*
D12*
X136500000Y-130000000D03*
D13*
X136500000Y-135900000D03*
X131500000Y-133700000D03*
D17*
X144400000Y-133700000D03*
X133700000Y-135900000D03*
D13*
X141500000Y-133700000D03*
D16*
X131280000Y-125800000D03*
X141720000Y-125800000D03*
D11*
X75500000Y-115125000D03*
X64500000Y-115125000D03*
D12*
X70000000Y-115125000D03*
D13*
X70000000Y-121025000D03*
X65000000Y-118825000D03*
D17*
X77900000Y-118825000D03*
X67200000Y-121025000D03*
D13*
X75000000Y-118825000D03*
D16*
X64780000Y-110925000D03*
X75220000Y-110925000D03*
D11*
X113500000Y-91375000D03*
X102500000Y-91375000D03*
D12*
X108000000Y-91375000D03*
D13*
X108000000Y-97275000D03*
X103000000Y-95075000D03*
D17*
X115900000Y-95075000D03*
X105200000Y-97275000D03*
D13*
X113000000Y-95075000D03*
D16*
X102780000Y-87175000D03*
X113220000Y-87175000D03*
D11*
X94500000Y-96125000D03*
X83500000Y-96125000D03*
D12*
X89000000Y-96125000D03*
D13*
X89000000Y-102025000D03*
X84000000Y-99825000D03*
D17*
X96900000Y-99825000D03*
X86200000Y-102025000D03*
D13*
X94000000Y-99825000D03*
D16*
X83780000Y-91925000D03*
X94220000Y-91925000D03*
D11*
X75500000Y-96125000D03*
X64500000Y-96125000D03*
D12*
X70000000Y-96125000D03*
D13*
X70000000Y-102025000D03*
X65000000Y-99825000D03*
D17*
X77900000Y-99825000D03*
X67200000Y-102025000D03*
D13*
X75000000Y-99825000D03*
D16*
X64780000Y-91925000D03*
X75220000Y-91925000D03*
D18*
X186200000Y-114950000D03*
X193200000Y-114950000D03*
D19*
X184400000Y-112850000D03*
X182900000Y-117050000D03*
X191400000Y-112850000D03*
X188400000Y-112850000D03*
D18*
X193200000Y-116700000D03*
X186200000Y-116700000D03*
D19*
X191400000Y-118800000D03*
X188400000Y-118800000D03*
X184400000Y-118800000D03*
X182900000Y-114600000D03*
D20*
X162810000Y-123795000D03*
X162810000Y-122045000D03*
X167210000Y-123795000D03*
X167210000Y-122045000D03*
X167170000Y-84005000D03*
X167170000Y-85755000D03*
X162770000Y-84005000D03*
X162770000Y-85755000D03*
X129220000Y-79285000D03*
X129220000Y-81035000D03*
X124820000Y-79285000D03*
X124820000Y-81035000D03*
X91200000Y-86375000D03*
X91200000Y-88125000D03*
X86800000Y-86375000D03*
X86800000Y-88125000D03*
X86800000Y-107115000D03*
X86800000Y-105365000D03*
X91200000Y-107115000D03*
X91200000Y-105365000D03*
X124790000Y-119045000D03*
X124790000Y-117295000D03*
X129190000Y-119045000D03*
X129190000Y-117295000D03*
D16*
X176957772Y-132109039D03*
D15*
G36*
X176851554Y-130893014D02*
G01*
X178063990Y-131593014D01*
X177063990Y-133325064D01*
X175851554Y-132625064D01*
X176851554Y-130893014D01*
X176851554Y-130893014D01*
G37*
D16*
X175442228Y-131234039D03*
D15*
G36*
X175336010Y-130018014D02*
G01*
X176548446Y-130718014D01*
X175548446Y-132450064D01*
X174336010Y-131750064D01*
X175336010Y-130018014D01*
X175336010Y-130018014D01*
G37*
D16*
X174557772Y-136265961D03*
D15*
G36*
X174451554Y-135049936D02*
G01*
X175663990Y-135749936D01*
X174663990Y-137481986D01*
X173451554Y-136781986D01*
X174451554Y-135049936D01*
X174451554Y-135049936D01*
G37*
D16*
X173042228Y-135390961D03*
D15*
G36*
X172936010Y-134174936D02*
G01*
X174148446Y-134874936D01*
X173148446Y-136606986D01*
X171936010Y-135906986D01*
X172936010Y-134174936D01*
X172936010Y-134174936D01*
G37*
D16*
X156908245Y-126033649D03*
D15*
G36*
X155761146Y-126450978D02*
G01*
X156123493Y-125098682D01*
X158055344Y-125616320D01*
X157692997Y-126968616D01*
X155761146Y-126450978D01*
X155761146Y-126450978D01*
G37*
D16*
X156455311Y-127724019D03*
D15*
G36*
X155308212Y-128141348D02*
G01*
X155670559Y-126789052D01*
X157602410Y-127306690D01*
X157240063Y-128658986D01*
X155308212Y-128141348D01*
X155308212Y-128141348D01*
G37*
D16*
X161544689Y-127275981D03*
D15*
G36*
X160397590Y-127693310D02*
G01*
X160759937Y-126341014D01*
X162691788Y-126858652D01*
X162329441Y-128210948D01*
X160397590Y-127693310D01*
X160397590Y-127693310D01*
G37*
D16*
X161091755Y-128966351D03*
D15*
G36*
X159944656Y-129383680D02*
G01*
X160307003Y-128031384D01*
X162238854Y-128549022D01*
X161876507Y-129901318D01*
X159944656Y-129383680D01*
X159944656Y-129383680D01*
G37*
D21*
X134100000Y-123625000D03*
X134100000Y-125375000D03*
X138900000Y-123625000D03*
X138900000Y-125375000D03*
X162600000Y-106375000D03*
X162600000Y-108125000D03*
X167400000Y-106375000D03*
X167400000Y-108125000D03*
X143600000Y-104000000D03*
X143600000Y-105750000D03*
X148400000Y-104000000D03*
X148400000Y-105750000D03*
X124600000Y-101625000D03*
X124600000Y-103375000D03*
X129400000Y-101625000D03*
X129400000Y-103375000D03*
X105600000Y-104000000D03*
X105600000Y-105750000D03*
X110400000Y-104000000D03*
X110400000Y-105750000D03*
X86600000Y-108750000D03*
X86600000Y-110500000D03*
X91400000Y-108750000D03*
X91400000Y-110500000D03*
X67600000Y-108750000D03*
X67600000Y-110500000D03*
X72400000Y-108750000D03*
X72400000Y-110500000D03*
X162600000Y-87375000D03*
X162600000Y-89125000D03*
X167400000Y-87375000D03*
X167400000Y-89125000D03*
X143600000Y-85000000D03*
X143600000Y-86750000D03*
X148400000Y-85000000D03*
X148400000Y-86750000D03*
X124600000Y-82625000D03*
X124600000Y-84375000D03*
X129400000Y-82625000D03*
X129400000Y-84375000D03*
X105600000Y-85000000D03*
X105600000Y-86750000D03*
X110400000Y-85000000D03*
X110400000Y-86750000D03*
X86600000Y-89750000D03*
X86600000Y-91500000D03*
X91400000Y-89750000D03*
X91400000Y-91500000D03*
X67600000Y-89750000D03*
X67600000Y-91500000D03*
X72400000Y-89750000D03*
X72400000Y-91500000D03*
X162600000Y-68375000D03*
X162600000Y-70125000D03*
X167400000Y-68375000D03*
X167400000Y-70125000D03*
X143600000Y-66000000D03*
X143600000Y-67750000D03*
X148400000Y-66000000D03*
X148400000Y-67750000D03*
X124600000Y-63625000D03*
X124600000Y-65375000D03*
X129400000Y-63625000D03*
X129400000Y-65375000D03*
X105600000Y-66000000D03*
X105600000Y-67750000D03*
X110400000Y-66000000D03*
X110400000Y-67750000D03*
X86600000Y-70750000D03*
X86600000Y-72500000D03*
X91400000Y-70750000D03*
X91400000Y-72500000D03*
X67600000Y-70750000D03*
X67600000Y-72500000D03*
X72400000Y-70750000D03*
X72400000Y-72500000D03*
D22*
X192100000Y-73042000D03*
X192100000Y-75582000D03*
X192100000Y-78122000D03*
X192100000Y-80662000D03*
X192100000Y-83202000D03*
X192100000Y-85742000D03*
X192100000Y-88282000D03*
X192100000Y-90822000D03*
X192100000Y-93362000D03*
X192100000Y-95902000D03*
X192100000Y-98442000D03*
X192100000Y-100982000D03*
X176860000Y-100982000D03*
X176860000Y-98442000D03*
X176860000Y-95902000D03*
X176860000Y-93362000D03*
X176860000Y-90822000D03*
X176860000Y-88282000D03*
X176860000Y-85742000D03*
X176860000Y-83202000D03*
X176860000Y-80662000D03*
X176860000Y-78122000D03*
X176860000Y-75582000D03*
X176860000Y-73042000D03*
X193406400Y-71772000D03*
X193406400Y-74312000D03*
X193406400Y-76852000D03*
X193406400Y-79392000D03*
X193406400Y-81932000D03*
X193406400Y-84472000D03*
X193406400Y-87012000D03*
X193406400Y-89552000D03*
X193406400Y-92092000D03*
X193406400Y-94632000D03*
X193406400Y-97172000D03*
X193406400Y-99712000D03*
X178186400Y-99712000D03*
X178186400Y-97172000D03*
X178186400Y-94632000D03*
X178186400Y-92092000D03*
X178186400Y-89552000D03*
X178186400Y-87012000D03*
X178186400Y-84472000D03*
X178186400Y-81932000D03*
X178186400Y-79392000D03*
X178186400Y-76852000D03*
X178186400Y-74312000D03*
X178186400Y-71772000D03*
D23*
X154000000Y-72150000D03*
X154000000Y-68600000D03*
X62000000Y-76900000D03*
X62000000Y-73350000D03*
X97000000Y-76900000D03*
X97000000Y-73350000D03*
X116000000Y-72150000D03*
X116000000Y-68600000D03*
X135000000Y-69775000D03*
X135000000Y-66225000D03*
X157000000Y-72150000D03*
X157000000Y-68600000D03*
X62000000Y-95900000D03*
X62000000Y-92350000D03*
X97000000Y-95900000D03*
X97000000Y-92350000D03*
X116000000Y-91150000D03*
X116000000Y-87600000D03*
X135000000Y-88775000D03*
X135000000Y-85225000D03*
X154000000Y-91150000D03*
X154000000Y-87600000D03*
X157000000Y-91150000D03*
X157000000Y-87600000D03*
X62000000Y-114900000D03*
X62000000Y-111350000D03*
X97000000Y-114900000D03*
X97000000Y-111350000D03*
X116000000Y-110150000D03*
X116000000Y-106600000D03*
X135000000Y-107775000D03*
X135000000Y-104225000D03*
X157000000Y-110150000D03*
X157000000Y-106600000D03*
X128500000Y-129775000D03*
X128500000Y-126225000D03*
X144500000Y-129525000D03*
X144500000Y-125975000D03*
X147500000Y-129525000D03*
X147500000Y-125975000D03*
X154000000Y-110150000D03*
X154000000Y-106600000D03*
D24*
X189540000Y-108000000D03*
X184460000Y-108000000D03*
X189540000Y-110300000D03*
X184460000Y-110300000D03*
D25*
X188875000Y-100749620D03*
X188875000Y-101750380D03*
X186375000Y-100749620D03*
X186375000Y-101750380D03*
X183875000Y-100749620D03*
X183875000Y-101750380D03*
X181375000Y-100749620D03*
X181375000Y-101750380D03*
D26*
X174000000Y-102820000D03*
X174000000Y-105360000D03*
X174000000Y-107900000D03*
D24*
X181300000Y-105300000D03*
X183840000Y-105300000D03*
X186380000Y-105300000D03*
X188920000Y-105300000D03*
D27*
X79500000Y-105500000D03*
D28*
X177750000Y-115750000D03*
X192250000Y-124250000D03*
D27*
X79500000Y-86750000D03*
X98500000Y-86750000D03*
X98500000Y-105750000D03*
X155500000Y-83000000D03*
X122750000Y-122750000D03*
X169250000Y-130500000D03*
D24*
X181000000Y-108000000D03*
X181000000Y-110300000D03*
D29*
X192900000Y-103750000D03*
X192900000Y-110250000D03*
D30*
X181100000Y-112800000D03*
D31*
X180600000Y-112800000D03*
X181600000Y-112800000D03*
M02*
