M48
; DRILL file {KiCad (5.1.4)-1} date 5/20/2023 6:37:01 PM
; FORMAT={-:-/ absolute / inch / decimal}
; #@! TF.CreationDate,2023-05-20T18:37:01-04:00
; #@! TF.GenerationSoftware,Kicad,Pcbnew,(5.1.4)-1
; #@! TF.FileFunction,Plated,1,2,PTH
FMAT,2
INCH
T1C0.0118
T2C0.0157
T3C0.0236
T4C0.0320
T5C0.0394
T6C0.0472
T7C0.0512
%
G90
G05
T2
X4.1875Y-4.3438
X4.375Y-4.4375
X4.8788Y-2.8
X4.8788Y-2.89
X4.8798Y-2.8461
X4.8838Y-2.7
X4.92Y-3.455
X5.0187Y-3.36
X5.055Y-2.63
X5.085Y-2.705
X5.0938Y-3.53
X5.1937Y-3.535
X5.235Y-2.84
X5.2387Y-3.225
X5.25Y-2.88
X5.2938Y-3.535
X5.295Y-2.9
X5.32Y-2.58
X5.345Y-2.91
X5.355Y-3.53
X5.445Y-2.455
X5.4817Y-2.845
X5.54Y-4.35
X5.5637Y-2.82
X5.6Y-2.315
X5.625Y-3.265
X5.9837Y-3.24
X6.1537Y-3.48
X6.1688Y-2.635
X6.1937Y-2.73
X6.2037Y-3.1
X6.3137Y-2.835
X6.3487Y-3.45
X6.3487Y-3.545
X6.3662Y-2.83
X6.3684Y-2.8775
X6.4112Y-2.875
X6.4138Y-2.585
X6.4537Y-3.5
X6.5388Y-2.46
X6.5537Y-3.4
X6.5755Y-2.845
X6.5917Y-3.3196
X6.6364Y-3.2752
X6.6448Y-3.3228
X6.6562Y-2.825
X6.6863Y-2.305
X6.6863Y-3.27
X7.5Y-4.375
X7.6063Y-4.16
X7.6362Y-4.34
X7.7012Y-4.36
X8.2812Y-2.4688
X8.2812Y-3.2188
T4
X5.0938Y-3.625
X5.1937Y-3.625
X5.2938Y-3.625
X5.3937Y-3.625
X6.2012Y-3.625
X6.3012Y-3.625
X6.4013Y-3.625
X6.5012Y-3.625
T6
X10.0062Y-3.6812
X10.2562Y-3.5812
X0.5375Y-2.9312
X0.7875Y-2.8312
X7.0062Y-2.8375
X7.2562Y-2.7375
X1.2875Y-2.1812
X1.5375Y-2.0812
X7.0062Y-3.5875
X7.2562Y-3.4875
X0.5375Y-3.6812
X0.7875Y-3.5812
X8.5062Y-2.65
X8.7562Y-2.55
X10.0062Y-2.9312
X10.2562Y-2.8312
X0.5375Y-2.1812
X0.7875Y-2.0812
X4.2875Y-2.8375
X4.5375Y-2.7375
X8.5062Y-1.9
X8.7562Y-1.8
X4.9009Y-4.7362
X4.9393Y-4.4696
X2.0375Y-1.9937
X2.2875Y-1.8938
X7.0062Y-2.0875
X7.2562Y-1.9875
X3.5375Y-2.7437
X3.7875Y-2.6437
X4.2875Y-3.5875
X4.5375Y-3.4875
X2.7875Y-1.9
X3.0375Y-1.8
X1.2875Y-2.9312
X1.5375Y-2.8312
X7.7562Y-3.4937
X8.0062Y-3.3937
X9.2562Y-3.4937
X9.5062Y-3.3937
X2.7875Y-3.4
X3.0375Y-3.3
X3.5375Y-1.9937
X3.7875Y-1.8938
X7.7562Y-2.7437
X8.0062Y-2.6437
X10.0062Y-2.1812
X10.2562Y-2.0812
X7.2667Y-4.4422
X7.4823Y-4.2809
X9.2562Y-1.9937
X9.5062Y-1.8938
X4.0372Y-4.3646
X4.3046Y-4.3327
X2.7875Y-2.65
X3.0375Y-2.55
X3.5375Y-3.4937
X3.7875Y-3.3937
X10.7562Y-3.6812
X11.0062Y-3.5812
X2.0375Y-2.7437
X2.2875Y-2.6437
X8.5062Y-3.4
X8.7562Y-3.3
X8.1312Y-4.275
X8.3812Y-4.175
X2.0375Y-3.4937
X2.2875Y-3.3937
X10.7562Y-2.9312
X11.0062Y-2.8312
X1.2875Y-3.6812
X1.5375Y-3.5812
X9.2562Y-2.7437
X9.5062Y-2.6437
X10.7562Y-2.1812
X11.0062Y-2.0812
X3.1625Y-4.275
X3.4125Y-4.175
X4.2875Y-2.0875
X4.5375Y-1.9875
X7.7562Y-1.9937
X8.0062Y-1.8938
X6.5429Y-4.4763
X6.7545Y-4.6429
T7
X6.6875Y-3.6533
X6.6875Y-3.9092
X4.9375Y-3.6533
X4.9375Y-3.9092
T1
G00X8.6425Y-2.2323
M15
G01X8.67Y-2.2323
M16
G05
G00X8.8393Y-1.7816
M15
G01X8.8669Y-1.7814
M16
G05
G00X4.9649Y-4.3885
M15
G01X4.9785Y-4.3645
M16
G05
G00X5.2568Y-4.7843
M15
G01X5.2706Y-4.7605
M16
G05
G00X2.1737Y-2.326
M15
G01X2.2013Y-2.326
M16
G05
G00X2.3706Y-1.8754
M15
G01X2.3981Y-1.8751
M16
G05
G00X7.1425Y-2.4198
M15
G01X7.17Y-2.4198
M16
G05
G00X7.3393Y-1.9691
M15
G01X7.3669Y-1.9689
M16
G05
G00X3.6737Y-3.076
M15
G01X3.7013Y-3.076
M16
G05
G00X3.8706Y-2.6254
M15
G01X3.8981Y-2.6251
M16
G05
G00X4.4237Y-3.9198
M15
G01X4.4513Y-3.9198
M16
G05
G00X4.6206Y-3.4691
M15
G01X4.6481Y-3.4689
M16
G05
G00X2.9237Y-2.2323
M15
G01X2.9513Y-2.2323
M16
G05
G00X3.1206Y-1.7816
M15
G01X3.1481Y-1.7814
M16
G05
G00X1.4237Y-3.2635
M15
G01X1.4513Y-3.2635
M16
G05
G00X1.6206Y-2.8129
M15
G01X1.6481Y-2.8126
M16
G05
G00X7.8925Y-3.826
M15
G01X7.92Y-3.826
M16
G05
G00X8.0893Y-3.3754
M15
G01X8.1169Y-3.3751
M16
G05
G00X9.3925Y-3.826
M15
G01X9.42Y-3.826
M16
G05
G00X9.5893Y-3.3754
M15
G01X9.6169Y-3.3751
M16
G05
G00X2.9237Y-3.7323
M15
G01X2.9513Y-3.7323
M16
G05
G00X3.1206Y-3.2816
M15
G01X3.1481Y-3.2814
M16
G05
G00X3.6737Y-2.326
M15
G01X3.7013Y-2.326
M16
G05
G00X3.8706Y-1.8754
M15
G01X3.8981Y-1.8751
M16
G05
G00X7.8925Y-3.076
M15
G01X7.92Y-3.076
M16
G05
G00X8.0893Y-2.6254
M15
G01X8.1169Y-2.6251
M16
G05
G00X10.1425Y-2.5135
M15
G01X10.17Y-2.5135
M16
G05
G00X10.3393Y-2.0629
M15
G01X10.3669Y-2.0626
M16
G05
G00X7.4843Y-4.7279
M15
G01X7.5109Y-4.7208
M16
G05
G00X7.5578Y-4.2417
M15
G01X7.5844Y-4.2343
M16
G05
G00X9.3925Y-2.326
M15
G01X9.42Y-2.326
M16
G05
G00X9.5893Y-1.8754
M15
G01X9.6169Y-1.8751
M16
G05
G00X4.0828Y-4.7208
M15
G01X4.1094Y-4.7279
M16
G05
G00X4.3896Y-4.3364
M15
G01X4.4163Y-4.3433
M16
G05
G00X2.9237Y-2.9823
M15
G01X2.9513Y-2.9823
M16
G05
G00X3.1206Y-2.5316
M15
G01X3.1481Y-2.5314
M16
G05
G00X3.6737Y-3.826
M15
G01X3.7013Y-3.826
M16
G05
G00X3.8706Y-3.3754
M15
G01X3.8981Y-3.3751
M16
G05
G00X10.8925Y-4.0135
M15
G01X10.92Y-4.0135
M16
G05
G00X11.0893Y-3.5629
M15
G01X11.1169Y-3.5626
M16
G05
G00X2.1737Y-3.076
M15
G01X2.2013Y-3.076
M16
G05
G00X2.3706Y-2.6254
M15
G01X2.3981Y-2.6251
M16
G05
G00X8.6425Y-3.7323
M15
G01X8.67Y-3.7323
M16
G05
G00X8.8393Y-3.2816
M15
G01X8.8669Y-3.2814
M16
G05
G00X8.2675Y-4.6073
M15
G01X8.295Y-4.6073
M16
G05
G00X8.4643Y-4.1566
M15
G01X8.4919Y-4.1564
M16
G05
G00X2.1737Y-3.826
M15
G01X2.2013Y-3.826
M16
G05
G00X2.3706Y-3.3754
M15
G01X2.3981Y-3.3751
M16
G05
G00X10.8925Y-3.2635
M15
G01X10.92Y-3.2635
M16
G05
G00X11.0893Y-2.8129
M15
G01X11.1169Y-2.8126
M16
G05
G00X1.4237Y-4.0135
M15
G01X1.4513Y-4.0135
M16
G05
G00X1.6206Y-3.5629
M15
G01X1.6481Y-3.5626
M16
G05
G00X9.3925Y-3.076
M15
G01X9.42Y-3.076
M16
G05
G00X9.5893Y-2.6254
M15
G01X9.6169Y-2.6251
M16
G05
G00X10.8925Y-2.5135
M15
G01X10.92Y-2.5135
M16
G05
G00X11.0893Y-2.0629
M15
G01X11.1169Y-2.0626
M16
G05
G00X3.2987Y-4.6073
M15
G01X3.3263Y-4.6073
M16
G05
G00X3.4956Y-4.1566
M15
G01X3.5231Y-4.1564
M16
G05
G00X4.4237Y-2.4198
M15
G01X4.4513Y-2.4198
M16
G05
G00X4.6206Y-1.9691
M15
G01X4.6481Y-1.9689
M16
G05
G00X7.8925Y-2.326
M15
G01X7.92Y-2.326
M16
G05
G00X8.0893Y-1.8754
M15
G01X8.1169Y-1.8751
M16
G05
G00X6.3232Y-4.7605
M15
G01X6.337Y-4.7843
M16
G05
G00X6.8119Y-4.7056
M15
G01X6.8259Y-4.7293
M16
G05
G00X10.1425Y-4.0135
M15
G01X10.17Y-4.0135
M16
G05
G00X10.3393Y-3.5629
M15
G01X10.3669Y-3.5626
M16
G05
G00X0.6737Y-3.2635
M15
G01X0.7013Y-3.2635
M16
G05
G00X0.8706Y-2.8129
M15
G01X0.8981Y-2.8126
M16
G05
G00X7.1425Y-3.1698
M15
G01X7.17Y-3.1698
M16
G05
G00X7.3393Y-2.7191
M15
G01X7.3669Y-2.7189
M16
G05
G00X1.4237Y-2.5135
M15
G01X1.4513Y-2.5135
M16
G05
G00X1.6206Y-2.0629
M15
G01X1.6481Y-2.0626
M16
G05
G00X7.1425Y-3.9198
M15
G01X7.17Y-3.9198
M16
G05
G00X7.3393Y-3.4691
M15
G01X7.3669Y-3.4689
M16
G05
G00X0.6737Y-4.0135
M15
G01X0.7013Y-4.0135
M16
G05
G00X0.8706Y-3.5629
M15
G01X0.8981Y-3.5626
M16
G05
G00X8.6425Y-2.9823
M15
G01X8.67Y-2.9823
M16
G05
G00X8.8393Y-2.5316
M15
G01X8.8669Y-2.5314
M16
G05
G00X10.1425Y-3.2635
M15
G01X10.17Y-3.2635
M16
G05
G00X10.3393Y-2.8129
M15
G01X10.3669Y-2.8126
M16
G05
G00X0.6737Y-2.5135
M15
G01X0.7013Y-2.5135
M16
G05
G00X0.8706Y-2.0629
M15
G01X0.8981Y-2.0626
M16
G05
G00X4.4237Y-3.1698
M15
G01X4.4513Y-3.1698
M16
G05
G00X4.6206Y-2.7191
M15
G01X4.6481Y-2.7189
M16
G05
T2
G00X6.292Y-4.5489
M15
G01X6.3038Y-4.5694
M16
G05
G00X9.9437Y-3.9348
M15
G01X9.9673Y-3.9348
M16
G05
G00X0.4749Y-3.1848
M15
G01X0.4985Y-3.1848
M16
G05
G00X6.9437Y-3.091
M15
G01X6.9673Y-3.091
M16
G05
G00X1.2249Y-2.4348
M15
G01X1.2485Y-2.4348
M16
G05
G00X6.9437Y-3.841
M15
G01X6.9673Y-3.841
M16
G05
G00X0.4749Y-3.9348
M15
G01X0.4985Y-3.9348
M16
G05
G00X8.4437Y-2.9035
M15
G01X8.4673Y-2.9035
M16
G05
G00X9.9437Y-3.1848
M15
G01X9.9673Y-3.1848
M16
G05
G00X0.4749Y-2.4348
M15
G01X0.4985Y-2.4348
M16
G05
G00X4.2249Y-3.091
M15
G01X4.2485Y-3.091
M16
G05
G00X8.4437Y-2.1535
M15
G01X8.4673Y-2.1535
M16
G05
G00X5.0892Y-4.9171
M15
G01X5.101Y-4.8967
M16
G05
G00X1.9749Y-2.2473
M15
G01X1.9985Y-2.2473
M16
G05
G00X6.9437Y-2.341
M15
G01X6.9673Y-2.341
M16
G05
G00X3.4749Y-2.9973
M15
G01X3.4985Y-2.9973
M16
G05
G00X4.2249Y-3.841
M15
G01X4.2485Y-3.841
M16
G05
G00X2.7249Y-2.1535
M15
G01X2.7485Y-2.1535
M16
G05
G00X1.2249Y-3.1848
M15
G01X1.2485Y-3.1848
M16
G05
G00X7.6937Y-3.7473
M15
G01X7.7173Y-3.7473
M16
G05
G00X9.1937Y-3.7473
M15
G01X9.2173Y-3.7473
M16
G05
G00X2.7249Y-3.6535
M15
G01X2.7485Y-3.6535
M16
G05
G00X3.4749Y-2.2473
M15
G01X3.4985Y-2.2473
M16
G05
G00X7.6937Y-2.9973
M15
G01X7.7173Y-2.9973
M16
G05
G00X9.9437Y-2.4348
M15
G01X9.9673Y-2.4348
M16
G05
G00X7.2719Y-4.7033
M15
G01X7.2947Y-4.6972
M16
G05
G00X9.1937Y-2.2473
M15
G01X9.2173Y-2.2473
M16
G05
G00X3.9112Y-4.5933
M15
G01X3.934Y-4.5994
M16
G05
G00X2.7249Y-2.9035
M15
G01X2.7485Y-2.9035
M16
G05
G00X3.4749Y-3.7473
M15
G01X3.4985Y-3.7473
M16
G05
G00X10.6937Y-3.9348
M15
G01X10.7173Y-3.9348
M16
G05
G00X1.9749Y-2.9973
M15
G01X1.9985Y-2.9973
M16
G05
G00X8.4437Y-3.6535
M15
G01X8.4673Y-3.6535
M16
G05
G00X8.0687Y-4.5285
M15
G01X8.0923Y-4.5285
M16
G05
G00X1.9749Y-3.7473
M15
G01X1.9985Y-3.7473
M16
G05
G00X10.6937Y-3.1848
M15
G01X10.7173Y-3.1848
M16
G05
G00X1.2249Y-3.9348
M15
G01X1.2485Y-3.9348
M16
G05
G00X9.1937Y-2.9973
M15
G01X9.2173Y-2.9973
M16
G05
G00X10.6937Y-2.4348
M15
G01X10.7173Y-2.4348
M16
G05
G00X3.0999Y-4.5285
M15
G01X3.1235Y-4.5285
M16
G05
G00X4.2249Y-2.341
M15
G01X4.2485Y-2.341
M16
G05
G00X7.6937Y-2.2473
M15
G01X7.7173Y-2.2473
M16
G05
T3
G00X6.1737Y-1.7392
M15
G01X6.1737Y-1.7156
M16
G05
G00X6.1737Y-1.9136
M15
G01X6.1737Y-1.8703
M16
G05
G00X6.5138Y-1.7392
M15
G01X6.5138Y-1.7156
M16
G05
G00X6.5138Y-1.9136
M15
G01X6.5138Y-1.8703
M16
G05
G00X5.0799Y-1.7392
M15
G01X5.0799Y-1.7156
M16
G05
G00X5.0799Y-1.9136
M15
G01X5.0799Y-1.8703
M16
G05
G00X5.4201Y-1.7392
M15
G01X5.4201Y-1.7156
M16
G05
G00X5.4201Y-1.9136
M15
G01X5.4201Y-1.8703
M16
G05
T5
G00X5.139Y-3.7923
M15
G01X5.1193Y-3.7923
M16
G05
G00X5.1981Y-3.9577
M15
G01X5.1784Y-3.9577
M16
G05
G00X5.3556Y-3.9577
M15
G01X5.3359Y-3.9577
M16
G05
G00X5.4737Y-3.9577
M15
G01X5.454Y-3.9577
M16
G05
G00X6.1513Y-3.7923
M15
G01X6.171Y-3.7923
M16
G05
G00X6.2694Y-3.7923
M15
G01X6.2891Y-3.7923
M16
G05
G00X6.4269Y-3.7923
M15
G01X6.4466Y-3.7923
M16
G05
G00X6.486Y-3.9577
M15
G01X6.5057Y-3.9577
M16
G05
T0
M30
