G04 #@! TF.GenerationSoftware,KiCad,Pcbnew,(5.1.4)-1*
G04 #@! TF.CreationDate,2023-05-20T18:36:56-04:00*
G04 #@! TF.ProjectId,Corne Integrated Microchip,436f726e-6520-4496-9e74-656772617465,rev?*
G04 #@! TF.SameCoordinates,Original*
G04 #@! TF.FileFunction,Paste,Bot*
G04 #@! TF.FilePolarity,Positive*
%FSLAX46Y46*%
G04 Gerber Fmt 4.6, Leading zero omitted, Abs format (unit mm)*
G04 Created by KiCad (PCBNEW (5.1.4)-1) date 2023-05-20 18:36:56*
%MOMM*%
%LPD*%
G04 APERTURE LIST*
%ADD10R,1.200000X0.900000*%
G04 APERTURE END LIST*
D10*
X218281250Y-109537500D03*
X218281250Y-112837500D03*
X200818750Y-109475000D03*
X200818750Y-112775000D03*
X197643750Y-109475000D03*
X197643750Y-112775000D03*
X269081250Y-94456250D03*
X269081250Y-97756250D03*
X265906250Y-94456250D03*
X265906250Y-97756250D03*
X230981250Y-88900000D03*
X230981250Y-92200000D03*
X227806250Y-88900000D03*
X227806250Y-92200000D03*
X192881250Y-90487500D03*
X192881250Y-93787500D03*
X189706250Y-90425000D03*
X189706250Y-93725000D03*
X269081250Y-75406250D03*
X269081250Y-78706250D03*
X265906250Y-75406250D03*
X265906250Y-78706250D03*
X230981250Y-69850000D03*
X230981250Y-73150000D03*
X227806250Y-69850000D03*
X227806250Y-73150000D03*
X192881250Y-71437500D03*
X192881250Y-74737500D03*
X189706250Y-71437500D03*
X189706250Y-74737500D03*
X269081250Y-56356250D03*
X269081250Y-59656250D03*
X265906250Y-56356250D03*
X265906250Y-59656250D03*
X230981250Y-50737500D03*
X230981250Y-54037500D03*
X227806250Y-50737500D03*
X227806250Y-54037500D03*
X192881250Y-52387500D03*
X192881250Y-55687500D03*
X189706250Y-52387500D03*
X189706250Y-55687500D03*
X96837500Y-109537500D03*
X96837500Y-112837500D03*
X93662500Y-109537500D03*
X93662500Y-112837500D03*
X76200000Y-109537500D03*
X76200000Y-112837500D03*
X104775000Y-90487500D03*
X104775000Y-93787500D03*
X101600000Y-90487500D03*
X101600000Y-93787500D03*
X66675000Y-88900000D03*
X66675000Y-92200000D03*
X63500000Y-88900000D03*
X63500000Y-92200000D03*
X28575000Y-94456250D03*
X28575000Y-97756250D03*
X25400000Y-94456250D03*
X25400000Y-97756250D03*
X104775000Y-71437500D03*
X104775000Y-74737500D03*
X101600000Y-71437500D03*
X101600000Y-74737500D03*
X66675000Y-69850000D03*
X66675000Y-73150000D03*
X63500000Y-69850000D03*
X63500000Y-73150000D03*
X28575000Y-75406250D03*
X28575000Y-78706250D03*
X25400000Y-75406250D03*
X25400000Y-78706250D03*
X104775000Y-52387500D03*
X104775000Y-55687500D03*
X101600000Y-52387500D03*
X101600000Y-55687500D03*
X66675000Y-50800000D03*
X66675000Y-54100000D03*
X63500000Y-50800000D03*
X63500000Y-54100000D03*
X28575000Y-56356250D03*
X28575000Y-59656250D03*
X25400000Y-56356250D03*
X25400000Y-59656250D03*
M02*
