G04 #@! TF.GenerationSoftware,KiCad,Pcbnew,(5.1.4)-1*
G04 #@! TF.CreationDate,2023-04-29T11:54:21-04:00*
G04 #@! TF.ProjectId,Evan-PCB-ISP,4576616e-2d50-4434-922d-4953502e6b69,rev?*
G04 #@! TF.SameCoordinates,Original*
G04 #@! TF.FileFunction,Soldermask,Bot*
G04 #@! TF.FilePolarity,Negative*
%FSLAX46Y46*%
G04 Gerber Fmt 4.6, Leading zero omitted, Abs format (unit mm)*
G04 Created by KiCad (PCBNEW (5.1.4)-1) date 2023-04-29 11:54:21*
%MOMM*%
%LPD*%
G04 APERTURE LIST*
%ADD10C,0.100000*%
G04 APERTURE END LIST*
D10*
G36*
X122923000Y-117386000D02*
G01*
X121021000Y-117386000D01*
X121021000Y-116184000D01*
X122923000Y-116184000D01*
X122923000Y-117386000D01*
X122923000Y-117386000D01*
G37*
G36*
X116723000Y-117386000D02*
G01*
X114821000Y-117386000D01*
X114821000Y-116184000D01*
X116723000Y-116184000D01*
X116723000Y-117386000D01*
X116723000Y-117386000D01*
G37*
G36*
X116723000Y-113686000D02*
G01*
X114821000Y-113686000D01*
X114821000Y-112484000D01*
X116723000Y-112484000D01*
X116723000Y-113686000D01*
X116723000Y-113686000D01*
G37*
G36*
X122923000Y-113686000D02*
G01*
X121021000Y-113686000D01*
X121021000Y-112484000D01*
X122923000Y-112484000D01*
X122923000Y-113686000D01*
X122923000Y-113686000D01*
G37*
G36*
X187150500Y-112450500D02*
G01*
X185848500Y-112450500D01*
X185848500Y-111448500D01*
X187150500Y-111448500D01*
X187150500Y-112450500D01*
X187150500Y-112450500D01*
G37*
G36*
X168132250Y-112419750D02*
G01*
X166830250Y-112419750D01*
X166830250Y-111417750D01*
X168132250Y-111417750D01*
X168132250Y-112419750D01*
X168132250Y-112419750D01*
G37*
G36*
X145310718Y-110918315D02*
G01*
X145349388Y-110930046D01*
X145385027Y-110949096D01*
X145416267Y-110974733D01*
X145441904Y-111005973D01*
X145460954Y-111041612D01*
X145472685Y-111080282D01*
X145477250Y-111126638D01*
X145477250Y-112202862D01*
X145472685Y-112249218D01*
X145460954Y-112287888D01*
X145441904Y-112323527D01*
X145416267Y-112354767D01*
X145385027Y-112380404D01*
X145349388Y-112399454D01*
X145310718Y-112411185D01*
X145264362Y-112415750D01*
X144613138Y-112415750D01*
X144566782Y-112411185D01*
X144528112Y-112399454D01*
X144492473Y-112380404D01*
X144461233Y-112354767D01*
X144435596Y-112323527D01*
X144416546Y-112287888D01*
X144404815Y-112249218D01*
X144400250Y-112202862D01*
X144400250Y-111126638D01*
X144404815Y-111080282D01*
X144416546Y-111041612D01*
X144435596Y-111005973D01*
X144461233Y-110974733D01*
X144492473Y-110949096D01*
X144528112Y-110930046D01*
X144566782Y-110918315D01*
X144613138Y-110913750D01*
X145264362Y-110913750D01*
X145310718Y-110918315D01*
X145310718Y-110918315D01*
G37*
G36*
X143435718Y-110918315D02*
G01*
X143474388Y-110930046D01*
X143510027Y-110949096D01*
X143541267Y-110974733D01*
X143566904Y-111005973D01*
X143585954Y-111041612D01*
X143597685Y-111080282D01*
X143602250Y-111126638D01*
X143602250Y-112202862D01*
X143597685Y-112249218D01*
X143585954Y-112287888D01*
X143566904Y-112323527D01*
X143541267Y-112354767D01*
X143510027Y-112380404D01*
X143474388Y-112399454D01*
X143435718Y-112411185D01*
X143389362Y-112415750D01*
X142738138Y-112415750D01*
X142691782Y-112411185D01*
X142653112Y-112399454D01*
X142617473Y-112380404D01*
X142586233Y-112354767D01*
X142560596Y-112323527D01*
X142541546Y-112287888D01*
X142529815Y-112249218D01*
X142525250Y-112202862D01*
X142525250Y-111126638D01*
X142529815Y-111080282D01*
X142541546Y-111041612D01*
X142560596Y-111005973D01*
X142586233Y-110974733D01*
X142617473Y-110949096D01*
X142653112Y-110930046D01*
X142691782Y-110918315D01*
X142738138Y-110913750D01*
X143389362Y-110913750D01*
X143435718Y-110918315D01*
X143435718Y-110918315D01*
G37*
G36*
X160140224Y-108364934D02*
G01*
X160358224Y-108455233D01*
X160512373Y-108519083D01*
X160847298Y-108742873D01*
X161132127Y-109027702D01*
X161355917Y-109362627D01*
X161388312Y-109440836D01*
X161510066Y-109734776D01*
X161588650Y-110129844D01*
X161588650Y-110532656D01*
X161510066Y-110927724D01*
X161427673Y-111126638D01*
X161355917Y-111299873D01*
X161132127Y-111634798D01*
X160847298Y-111919627D01*
X160512373Y-112143417D01*
X160368859Y-112202862D01*
X160140224Y-112297566D01*
X159745156Y-112376150D01*
X159342344Y-112376150D01*
X158947276Y-112297566D01*
X158718641Y-112202862D01*
X158575127Y-112143417D01*
X158240202Y-111919627D01*
X157955373Y-111634798D01*
X157731583Y-111299873D01*
X157659827Y-111126638D01*
X157577434Y-110927724D01*
X157498850Y-110532656D01*
X157498850Y-110129844D01*
X157577434Y-109734776D01*
X157699188Y-109440836D01*
X157731583Y-109362627D01*
X157955373Y-109027702D01*
X158240202Y-108742873D01*
X158575127Y-108519083D01*
X158729276Y-108455233D01*
X158947276Y-108364934D01*
X159342344Y-108286350D01*
X159745156Y-108286350D01*
X160140224Y-108364934D01*
X160140224Y-108364934D01*
G37*
G36*
X179158474Y-108333184D02*
G01*
X179296033Y-108390163D01*
X179530623Y-108487333D01*
X179865548Y-108711123D01*
X180150377Y-108995952D01*
X180374167Y-109330877D01*
X180406562Y-109409086D01*
X180528316Y-109703026D01*
X180606900Y-110098094D01*
X180606900Y-110500906D01*
X180528316Y-110895974D01*
X180451973Y-111080282D01*
X180374167Y-111268123D01*
X180150377Y-111603048D01*
X179865548Y-111887877D01*
X179530623Y-112111667D01*
X179453971Y-112143417D01*
X179158474Y-112265816D01*
X178763406Y-112344400D01*
X178360594Y-112344400D01*
X177965526Y-112265816D01*
X177670029Y-112143417D01*
X177593377Y-112111667D01*
X177258452Y-111887877D01*
X176973623Y-111603048D01*
X176749833Y-111268123D01*
X176672027Y-111080282D01*
X176595684Y-110895974D01*
X176517100Y-110500906D01*
X176517100Y-110098094D01*
X176595684Y-109703026D01*
X176717438Y-109409086D01*
X176749833Y-109330877D01*
X176973623Y-108995952D01*
X177258452Y-108711123D01*
X177593377Y-108487333D01*
X177827967Y-108390163D01*
X177965526Y-108333184D01*
X178360594Y-108254600D01*
X178763406Y-108254600D01*
X179158474Y-108333184D01*
X179158474Y-108333184D01*
G37*
G36*
X154733854Y-109440835D02*
G01*
X154902376Y-109510639D01*
X155054041Y-109611978D01*
X155183022Y-109740959D01*
X155284361Y-109892624D01*
X155354165Y-110061146D01*
X155389750Y-110240047D01*
X155389750Y-110422453D01*
X155354165Y-110601354D01*
X155284361Y-110769876D01*
X155183022Y-110921541D01*
X155054041Y-111050522D01*
X154902376Y-111151861D01*
X154733854Y-111221665D01*
X154554953Y-111257250D01*
X154372547Y-111257250D01*
X154193646Y-111221665D01*
X154025124Y-111151861D01*
X153873459Y-111050522D01*
X153744478Y-110921541D01*
X153643139Y-110769876D01*
X153573335Y-110601354D01*
X153537750Y-110422453D01*
X153537750Y-110240047D01*
X153573335Y-110061146D01*
X153643139Y-109892624D01*
X153744478Y-109740959D01*
X153873459Y-109611978D01*
X154025124Y-109510639D01*
X154193646Y-109440835D01*
X154372547Y-109405250D01*
X154554953Y-109405250D01*
X154733854Y-109440835D01*
X154733854Y-109440835D01*
G37*
G36*
X164893854Y-109440835D02*
G01*
X165062376Y-109510639D01*
X165214041Y-109611978D01*
X165343022Y-109740959D01*
X165444361Y-109892624D01*
X165514165Y-110061146D01*
X165549750Y-110240047D01*
X165549750Y-110422453D01*
X165514165Y-110601354D01*
X165444361Y-110769876D01*
X165343022Y-110921541D01*
X165214041Y-111050522D01*
X165062376Y-111151861D01*
X164893854Y-111221665D01*
X164714953Y-111257250D01*
X164532547Y-111257250D01*
X164353646Y-111221665D01*
X164185124Y-111151861D01*
X164033459Y-111050522D01*
X163904478Y-110921541D01*
X163803139Y-110769876D01*
X163733335Y-110601354D01*
X163697750Y-110422453D01*
X163697750Y-110240047D01*
X163733335Y-110061146D01*
X163803139Y-109892624D01*
X163904478Y-109740959D01*
X164033459Y-109611978D01*
X164185124Y-109510639D01*
X164353646Y-109440835D01*
X164532547Y-109405250D01*
X164714953Y-109405250D01*
X164893854Y-109440835D01*
X164893854Y-109440835D01*
G37*
G36*
X183912104Y-109409085D02*
G01*
X184080626Y-109478889D01*
X184232291Y-109580228D01*
X184361272Y-109709209D01*
X184462611Y-109860874D01*
X184532415Y-110029396D01*
X184568000Y-110208297D01*
X184568000Y-110390703D01*
X184532415Y-110569604D01*
X184462611Y-110738126D01*
X184361272Y-110889791D01*
X184232291Y-111018772D01*
X184080626Y-111120111D01*
X183912104Y-111189915D01*
X183733203Y-111225500D01*
X183550797Y-111225500D01*
X183371896Y-111189915D01*
X183203374Y-111120111D01*
X183051709Y-111018772D01*
X182922728Y-110889791D01*
X182821389Y-110738126D01*
X182751585Y-110569604D01*
X182716000Y-110390703D01*
X182716000Y-110208297D01*
X182751585Y-110029396D01*
X182821389Y-109860874D01*
X182922728Y-109709209D01*
X183051709Y-109580228D01*
X183203374Y-109478889D01*
X183371896Y-109409085D01*
X183550797Y-109373500D01*
X183733203Y-109373500D01*
X183912104Y-109409085D01*
X183912104Y-109409085D01*
G37*
G36*
X173752104Y-109409085D02*
G01*
X173920626Y-109478889D01*
X174072291Y-109580228D01*
X174201272Y-109709209D01*
X174302611Y-109860874D01*
X174372415Y-110029396D01*
X174408000Y-110208297D01*
X174408000Y-110390703D01*
X174372415Y-110569604D01*
X174302611Y-110738126D01*
X174201272Y-110889791D01*
X174072291Y-111018772D01*
X173920626Y-111120111D01*
X173752104Y-111189915D01*
X173573203Y-111225500D01*
X173390797Y-111225500D01*
X173211896Y-111189915D01*
X173043374Y-111120111D01*
X172891709Y-111018772D01*
X172762728Y-110889791D01*
X172661389Y-110738126D01*
X172591585Y-110569604D01*
X172556000Y-110390703D01*
X172556000Y-110208297D01*
X172591585Y-110029396D01*
X172661389Y-109860874D01*
X172762728Y-109709209D01*
X172891709Y-109580228D01*
X173043374Y-109478889D01*
X173211896Y-109409085D01*
X173390797Y-109373500D01*
X173573203Y-109373500D01*
X173752104Y-109409085D01*
X173752104Y-109409085D01*
G37*
G36*
X130759468Y-108656065D02*
G01*
X130798138Y-108667796D01*
X130833777Y-108686846D01*
X130865017Y-108712483D01*
X130890654Y-108743723D01*
X130909704Y-108779362D01*
X130921435Y-108818032D01*
X130926000Y-108864388D01*
X130926000Y-109515612D01*
X130921435Y-109561968D01*
X130909704Y-109600638D01*
X130890654Y-109636277D01*
X130865017Y-109667517D01*
X130833777Y-109693154D01*
X130798138Y-109712204D01*
X130759468Y-109723935D01*
X130713112Y-109728500D01*
X129636888Y-109728500D01*
X129590532Y-109723935D01*
X129551862Y-109712204D01*
X129516223Y-109693154D01*
X129484983Y-109667517D01*
X129459346Y-109636277D01*
X129440296Y-109600638D01*
X129428565Y-109561968D01*
X129424000Y-109515612D01*
X129424000Y-108864388D01*
X129428565Y-108818032D01*
X129440296Y-108779362D01*
X129459346Y-108743723D01*
X129484983Y-108712483D01*
X129516223Y-108686846D01*
X129551862Y-108667796D01*
X129590532Y-108656065D01*
X129636888Y-108651500D01*
X130713112Y-108651500D01*
X130759468Y-108656065D01*
X130759468Y-108656065D01*
G37*
G36*
X148920468Y-108275065D02*
G01*
X148959138Y-108286796D01*
X148994777Y-108305846D01*
X149026017Y-108331483D01*
X149051654Y-108362723D01*
X149070704Y-108398362D01*
X149082435Y-108437032D01*
X149087000Y-108483388D01*
X149087000Y-109134612D01*
X149082435Y-109180968D01*
X149070704Y-109219638D01*
X149051654Y-109255277D01*
X149026017Y-109286517D01*
X148994777Y-109312154D01*
X148959138Y-109331204D01*
X148920468Y-109342935D01*
X148874112Y-109347500D01*
X147797888Y-109347500D01*
X147751532Y-109342935D01*
X147712862Y-109331204D01*
X147677223Y-109312154D01*
X147645983Y-109286517D01*
X147620346Y-109255277D01*
X147601296Y-109219638D01*
X147589565Y-109180968D01*
X147585000Y-109134612D01*
X147585000Y-108483388D01*
X147589565Y-108437032D01*
X147601296Y-108398362D01*
X147620346Y-108362723D01*
X147645983Y-108331483D01*
X147677223Y-108305846D01*
X147712862Y-108286796D01*
X147751532Y-108275065D01*
X147797888Y-108270500D01*
X148874112Y-108270500D01*
X148920468Y-108275065D01*
X148920468Y-108275065D01*
G37*
G36*
X187150500Y-109150500D02*
G01*
X185848500Y-109150500D01*
X185848500Y-108148500D01*
X187150500Y-108148500D01*
X187150500Y-109150500D01*
X187150500Y-109150500D01*
G37*
G36*
X143676750Y-109148750D02*
G01*
X135024750Y-109148750D01*
X135024750Y-107546750D01*
X143676750Y-107546750D01*
X143676750Y-109148750D01*
X143676750Y-109148750D01*
G37*
G36*
X168132250Y-109119750D02*
G01*
X166830250Y-109119750D01*
X166830250Y-108117750D01*
X168132250Y-108117750D01*
X168132250Y-109119750D01*
X168132250Y-109119750D01*
G37*
G36*
X157066955Y-105155131D02*
G01*
X157072395Y-105155250D01*
X157159578Y-105155250D01*
X157175847Y-105158486D01*
X157194706Y-105160765D01*
X157211282Y-105161496D01*
X157295973Y-105182260D01*
X157301268Y-105183434D01*
X157386777Y-105200443D01*
X157402112Y-105206795D01*
X157420151Y-105212705D01*
X157436271Y-105216657D01*
X157515254Y-105253530D01*
X157520244Y-105255727D01*
X157600795Y-105289092D01*
X157614591Y-105298310D01*
X157631143Y-105307632D01*
X157646176Y-105314650D01*
X157716444Y-105366221D01*
X157720942Y-105369372D01*
X157793406Y-105417791D01*
X157805133Y-105429518D01*
X157819559Y-105441898D01*
X157832929Y-105451711D01*
X157866064Y-105487903D01*
X157891771Y-105515983D01*
X157895579Y-105519964D01*
X157957209Y-105581594D01*
X157966424Y-105595385D01*
X157978146Y-105610328D01*
X157989355Y-105622571D01*
X158034549Y-105697124D01*
X158037496Y-105701751D01*
X158085908Y-105774205D01*
X158092255Y-105789527D01*
X158100842Y-105806481D01*
X158109441Y-105820667D01*
X158139228Y-105902618D01*
X158141202Y-105907698D01*
X158174557Y-105988223D01*
X158174557Y-105988224D01*
X158177791Y-106004483D01*
X158182908Y-106022792D01*
X158188575Y-106038384D01*
X158201805Y-106124595D01*
X158202751Y-106129963D01*
X158219750Y-106215423D01*
X158219750Y-106232002D01*
X158221194Y-106250942D01*
X158223713Y-106267354D01*
X158219870Y-106354499D01*
X158219750Y-106359939D01*
X158219750Y-106447075D01*
X158216516Y-106463333D01*
X158214238Y-106482191D01*
X158213506Y-106498781D01*
X158192738Y-106583487D01*
X158191562Y-106588787D01*
X158174557Y-106674277D01*
X158168207Y-106689607D01*
X158162299Y-106707643D01*
X158158345Y-106723770D01*
X158121461Y-106802776D01*
X158119261Y-106807773D01*
X158085908Y-106888295D01*
X158076694Y-106902085D01*
X158067372Y-106918637D01*
X158060352Y-106933674D01*
X158008761Y-107003970D01*
X158005616Y-107008460D01*
X157957211Y-107080904D01*
X157900210Y-107137905D01*
X157895561Y-107142813D01*
X157492549Y-107591971D01*
X156570473Y-108619626D01*
X156442429Y-108736852D01*
X156372304Y-108779362D01*
X156244333Y-108856939D01*
X156026616Y-108936073D01*
X155797645Y-108971211D01*
X155566220Y-108961004D01*
X155341231Y-108905843D01*
X155236477Y-108856939D01*
X155131329Y-108807852D01*
X155034588Y-108736852D01*
X154944573Y-108670789D01*
X154824605Y-108539750D01*
X154788148Y-108499929D01*
X154726578Y-108398362D01*
X154668061Y-108301833D01*
X154588927Y-108084116D01*
X154553789Y-107855145D01*
X154563996Y-107623720D01*
X154619157Y-107398731D01*
X154685894Y-107255778D01*
X154717148Y-107188830D01*
X154717150Y-107188827D01*
X154819864Y-107048872D01*
X155603483Y-106175527D01*
X156106537Y-105614871D01*
X156117431Y-105600839D01*
X156130289Y-105581596D01*
X156187323Y-105524562D01*
X156191973Y-105519653D01*
X156207028Y-105502874D01*
X156228451Y-105483261D01*
X156232432Y-105479453D01*
X156294096Y-105417789D01*
X156307893Y-105408570D01*
X156322852Y-105396835D01*
X156335071Y-105385648D01*
X156368992Y-105365085D01*
X156409580Y-105340481D01*
X156414171Y-105337558D01*
X156486705Y-105289092D01*
X156502050Y-105282736D01*
X156518998Y-105274151D01*
X156533166Y-105265562D01*
X156533167Y-105265562D01*
X156533168Y-105265561D01*
X156615062Y-105235795D01*
X156620163Y-105233812D01*
X156700723Y-105200443D01*
X156717002Y-105197205D01*
X156735292Y-105192094D01*
X156750885Y-105186427D01*
X156837050Y-105173204D01*
X156842413Y-105172259D01*
X156927923Y-105155250D01*
X156944516Y-105155250D01*
X156963459Y-105153805D01*
X156979856Y-105151289D01*
X157066955Y-105155131D01*
X157066955Y-105155131D01*
G37*
G36*
X176085205Y-105123381D02*
G01*
X176090645Y-105123500D01*
X176177828Y-105123500D01*
X176194097Y-105126736D01*
X176212956Y-105129015D01*
X176229532Y-105129746D01*
X176314223Y-105150510D01*
X176319518Y-105151684D01*
X176405027Y-105168693D01*
X176420362Y-105175045D01*
X176438401Y-105180955D01*
X176454521Y-105184907D01*
X176533504Y-105221780D01*
X176538494Y-105223977D01*
X176619045Y-105257342D01*
X176632841Y-105266560D01*
X176649393Y-105275882D01*
X176664426Y-105282900D01*
X176734694Y-105334471D01*
X176739192Y-105337622D01*
X176811656Y-105386041D01*
X176823383Y-105397768D01*
X176837809Y-105410148D01*
X176851179Y-105419961D01*
X176909132Y-105483261D01*
X176910021Y-105484233D01*
X176913829Y-105488214D01*
X176975459Y-105549844D01*
X176984674Y-105563635D01*
X176996396Y-105578578D01*
X177007605Y-105590821D01*
X177052799Y-105665374D01*
X177055746Y-105670001D01*
X177104158Y-105742455D01*
X177110505Y-105757777D01*
X177119092Y-105774731D01*
X177127691Y-105788917D01*
X177157478Y-105870868D01*
X177159452Y-105875948D01*
X177192807Y-105956473D01*
X177195457Y-105969794D01*
X177196041Y-105972733D01*
X177201158Y-105991042D01*
X177206825Y-106006634D01*
X177220055Y-106092845D01*
X177221001Y-106098213D01*
X177238000Y-106183673D01*
X177238000Y-106200252D01*
X177239444Y-106219192D01*
X177241963Y-106235604D01*
X177238120Y-106322749D01*
X177238000Y-106328189D01*
X177238000Y-106415325D01*
X177234766Y-106431583D01*
X177232488Y-106450441D01*
X177231756Y-106467031D01*
X177210988Y-106551737D01*
X177209812Y-106557037D01*
X177192807Y-106642527D01*
X177186457Y-106657857D01*
X177180549Y-106675893D01*
X177176595Y-106692020D01*
X177139711Y-106771026D01*
X177137511Y-106776023D01*
X177104158Y-106856545D01*
X177094944Y-106870335D01*
X177085622Y-106886887D01*
X177078602Y-106901924D01*
X177027011Y-106972220D01*
X177023866Y-106976710D01*
X176975461Y-107049154D01*
X176918460Y-107106155D01*
X176913811Y-107111063D01*
X176302368Y-107792517D01*
X175588723Y-108587876D01*
X175460679Y-108705102D01*
X175398371Y-108742873D01*
X175262583Y-108825189D01*
X175044866Y-108904323D01*
X174815895Y-108939461D01*
X174584470Y-108929254D01*
X174359481Y-108874093D01*
X174254727Y-108825189D01*
X174149579Y-108776102D01*
X174052838Y-108705102D01*
X173962823Y-108639039D01*
X173835465Y-108499928D01*
X173806398Y-108468179D01*
X173724564Y-108333185D01*
X173686311Y-108270083D01*
X173607177Y-108052366D01*
X173572039Y-107823395D01*
X173582246Y-107591970D01*
X173637407Y-107366981D01*
X173694489Y-107244709D01*
X173735398Y-107157080D01*
X173745868Y-107142814D01*
X173838114Y-107017122D01*
X174593245Y-106175527D01*
X175124787Y-105583121D01*
X175135681Y-105569089D01*
X175148539Y-105549846D01*
X175205573Y-105492812D01*
X175210223Y-105487903D01*
X175225278Y-105471124D01*
X175246701Y-105451511D01*
X175250682Y-105447703D01*
X175312346Y-105386039D01*
X175326143Y-105376820D01*
X175341102Y-105365085D01*
X175353321Y-105353898D01*
X175385385Y-105334461D01*
X175427830Y-105308731D01*
X175432421Y-105305808D01*
X175504955Y-105257342D01*
X175520300Y-105250986D01*
X175537248Y-105242401D01*
X175551416Y-105233812D01*
X175551417Y-105233812D01*
X175551418Y-105233811D01*
X175633312Y-105204045D01*
X175638410Y-105202063D01*
X175718973Y-105168693D01*
X175735252Y-105165455D01*
X175753542Y-105160344D01*
X175769135Y-105154677D01*
X175855300Y-105141454D01*
X175860663Y-105140509D01*
X175946173Y-105123500D01*
X175962766Y-105123500D01*
X175981709Y-105122055D01*
X175998106Y-105119539D01*
X176085205Y-105123381D01*
X176085205Y-105123381D01*
G37*
G36*
X130759468Y-106781065D02*
G01*
X130798138Y-106792796D01*
X130833777Y-106811846D01*
X130865017Y-106837483D01*
X130890654Y-106868723D01*
X130909704Y-106904362D01*
X130921435Y-106943032D01*
X130926000Y-106989388D01*
X130926000Y-107640612D01*
X130921435Y-107686968D01*
X130909704Y-107725638D01*
X130890654Y-107761277D01*
X130865017Y-107792517D01*
X130833777Y-107818154D01*
X130798138Y-107837204D01*
X130759468Y-107848935D01*
X130713112Y-107853500D01*
X129636888Y-107853500D01*
X129590532Y-107848935D01*
X129551862Y-107837204D01*
X129516223Y-107818154D01*
X129484983Y-107792517D01*
X129459346Y-107761277D01*
X129440296Y-107725638D01*
X129428565Y-107686968D01*
X129424000Y-107640612D01*
X129424000Y-106989388D01*
X129428565Y-106943032D01*
X129440296Y-106904362D01*
X129459346Y-106868723D01*
X129484983Y-106837483D01*
X129516223Y-106811846D01*
X129551862Y-106792796D01*
X129590532Y-106781065D01*
X129636888Y-106776500D01*
X130713112Y-106776500D01*
X130759468Y-106781065D01*
X130759468Y-106781065D01*
G37*
G36*
X148920468Y-106400065D02*
G01*
X148959138Y-106411796D01*
X148994777Y-106430846D01*
X149026017Y-106456483D01*
X149051654Y-106487723D01*
X149070704Y-106523362D01*
X149082435Y-106562032D01*
X149087000Y-106608388D01*
X149087000Y-107259612D01*
X149082435Y-107305968D01*
X149070704Y-107344638D01*
X149051654Y-107380277D01*
X149026017Y-107411517D01*
X148994777Y-107437154D01*
X148959138Y-107456204D01*
X148920468Y-107467935D01*
X148874112Y-107472500D01*
X147797888Y-107472500D01*
X147751532Y-107467935D01*
X147712862Y-107456204D01*
X147677223Y-107437154D01*
X147645983Y-107411517D01*
X147620346Y-107380277D01*
X147601296Y-107344638D01*
X147589565Y-107305968D01*
X147585000Y-107259612D01*
X147585000Y-106608388D01*
X147589565Y-106562032D01*
X147601296Y-106523362D01*
X147620346Y-106487723D01*
X147645983Y-106456483D01*
X147677223Y-106430846D01*
X147712862Y-106411796D01*
X147751532Y-106400065D01*
X147797888Y-106395500D01*
X148874112Y-106395500D01*
X148920468Y-106400065D01*
X148920468Y-106400065D01*
G37*
G36*
X162171877Y-104073511D02*
G01*
X162192650Y-104075250D01*
X162199577Y-104075250D01*
X162294504Y-104094132D01*
X162298098Y-104094792D01*
X162393480Y-104110874D01*
X162399953Y-104113335D01*
X162419978Y-104119091D01*
X162426777Y-104120443D01*
X162489164Y-104146284D01*
X162516193Y-104157480D01*
X162519594Y-104158831D01*
X162610005Y-104193211D01*
X162615877Y-104196890D01*
X162634386Y-104206437D01*
X162640795Y-104209092D01*
X162721313Y-104262892D01*
X162724304Y-104264828D01*
X162806307Y-104316209D01*
X162811334Y-104320950D01*
X162827646Y-104333941D01*
X162833402Y-104337787D01*
X162901860Y-104406245D01*
X162904439Y-104408749D01*
X162974840Y-104475139D01*
X162978845Y-104480769D01*
X162992309Y-104496694D01*
X162997209Y-104501594D01*
X163050994Y-104582089D01*
X163053041Y-104585057D01*
X163109130Y-104663895D01*
X163111964Y-104670208D01*
X163122058Y-104688443D01*
X163125908Y-104694205D01*
X163162970Y-104783680D01*
X163164374Y-104786935D01*
X163204015Y-104875223D01*
X163205565Y-104881975D01*
X163211902Y-104901812D01*
X163214557Y-104908223D01*
X163233442Y-105003167D01*
X163234188Y-105006651D01*
X163255848Y-105101001D01*
X163255927Y-105103678D01*
X163256050Y-105107904D01*
X163258397Y-105128620D01*
X163259750Y-105135424D01*
X163259750Y-105232236D01*
X163259803Y-105235834D01*
X163260938Y-105274527D01*
X163260045Y-105287475D01*
X163259750Y-105296047D01*
X163259750Y-105367076D01*
X163253831Y-105396835D01*
X163253354Y-105399229D01*
X163251250Y-105415000D01*
X163212988Y-105969795D01*
X163184126Y-106140980D01*
X163101788Y-106357505D01*
X162978791Y-106553807D01*
X162819861Y-106722340D01*
X162631105Y-106856630D01*
X162419777Y-106951515D01*
X162193999Y-107003348D01*
X161962448Y-107010139D01*
X161962447Y-107010139D01*
X161916762Y-107002436D01*
X161734020Y-106971626D01*
X161517495Y-106889288D01*
X161321193Y-106766291D01*
X161152660Y-106607361D01*
X161018370Y-106418605D01*
X160923485Y-106207277D01*
X160871652Y-105981499D01*
X160866562Y-105807973D01*
X160907454Y-105215044D01*
X160907750Y-105206446D01*
X160907750Y-105135425D01*
X160908879Y-105129747D01*
X160926638Y-105040469D01*
X160927294Y-105036895D01*
X160932981Y-105003167D01*
X160943374Y-104941520D01*
X160945835Y-104935049D01*
X160951592Y-104915017D01*
X160952636Y-104909770D01*
X160952943Y-104908223D01*
X160990014Y-104818726D01*
X160991303Y-104815480D01*
X161025712Y-104724995D01*
X161029386Y-104719131D01*
X161038937Y-104700615D01*
X161041592Y-104694205D01*
X161095407Y-104613665D01*
X161097327Y-104610699D01*
X161148709Y-104528693D01*
X161153461Y-104523654D01*
X161166439Y-104507357D01*
X161170287Y-104501598D01*
X161238743Y-104433142D01*
X161241296Y-104430512D01*
X161261773Y-104408798D01*
X161307639Y-104360160D01*
X161313271Y-104356153D01*
X161329197Y-104342688D01*
X161334096Y-104337789D01*
X161414574Y-104284016D01*
X161417556Y-104281960D01*
X161496395Y-104225870D01*
X161502705Y-104223037D01*
X161520944Y-104212941D01*
X161526701Y-104209094D01*
X161526704Y-104209093D01*
X161526705Y-104209092D01*
X161616179Y-104172031D01*
X161619437Y-104170625D01*
X161707723Y-104130985D01*
X161714475Y-104129435D01*
X161734312Y-104123098D01*
X161740723Y-104120443D01*
X161835649Y-104101561D01*
X161839196Y-104100801D01*
X161933501Y-104079151D01*
X161935880Y-104079081D01*
X161940415Y-104078948D01*
X161961131Y-104076601D01*
X161967924Y-104075250D01*
X162064709Y-104075250D01*
X162068334Y-104075197D01*
X162165052Y-104072360D01*
X162171877Y-104073511D01*
X162171877Y-104073511D01*
G37*
G36*
X181190127Y-104041761D02*
G01*
X181210900Y-104043500D01*
X181217827Y-104043500D01*
X181312754Y-104062382D01*
X181316348Y-104063042D01*
X181411730Y-104079124D01*
X181418203Y-104081585D01*
X181438228Y-104087341D01*
X181445027Y-104088693D01*
X181498577Y-104110874D01*
X181534443Y-104125730D01*
X181537844Y-104127081D01*
X181628255Y-104161461D01*
X181634127Y-104165140D01*
X181652636Y-104174687D01*
X181659045Y-104177342D01*
X181739563Y-104231142D01*
X181742554Y-104233078D01*
X181824557Y-104284459D01*
X181829584Y-104289200D01*
X181845896Y-104302191D01*
X181851652Y-104306037D01*
X181920110Y-104374495D01*
X181922689Y-104376999D01*
X181993090Y-104443389D01*
X181997095Y-104449019D01*
X182010559Y-104464944D01*
X182015459Y-104469844D01*
X182069244Y-104550339D01*
X182071291Y-104553307D01*
X182127380Y-104632145D01*
X182130214Y-104638458D01*
X182140308Y-104656693D01*
X182144158Y-104662455D01*
X182181220Y-104751930D01*
X182182624Y-104755185D01*
X182222265Y-104843473D01*
X182223815Y-104850225D01*
X182230152Y-104870062D01*
X182232807Y-104876473D01*
X182251692Y-104971417D01*
X182252438Y-104974901D01*
X182274098Y-105069251D01*
X182274098Y-105069254D01*
X182274300Y-105076154D01*
X182276647Y-105096870D01*
X182278000Y-105103674D01*
X182278000Y-105200486D01*
X182278053Y-105204084D01*
X182279188Y-105242777D01*
X182278295Y-105255725D01*
X182278000Y-105264297D01*
X182278000Y-105335326D01*
X182271685Y-105367076D01*
X182271604Y-105367479D01*
X182269500Y-105383250D01*
X182231238Y-105938045D01*
X182202376Y-106109230D01*
X182120038Y-106325755D01*
X181997041Y-106522057D01*
X181838111Y-106690590D01*
X181649355Y-106824880D01*
X181438027Y-106919765D01*
X181212249Y-106971598D01*
X180980698Y-106978389D01*
X180980697Y-106978389D01*
X180935012Y-106970686D01*
X180752270Y-106939876D01*
X180535745Y-106857538D01*
X180339443Y-106734541D01*
X180170910Y-106575611D01*
X180036620Y-106386855D01*
X179941735Y-106175527D01*
X179889902Y-105949749D01*
X179884812Y-105776223D01*
X179925704Y-105183294D01*
X179926000Y-105174696D01*
X179926000Y-105103675D01*
X179938566Y-105040500D01*
X179944888Y-105008719D01*
X179945544Y-105005145D01*
X179951231Y-104971417D01*
X179961624Y-104909770D01*
X179964085Y-104903299D01*
X179969842Y-104883267D01*
X179971193Y-104876474D01*
X179971711Y-104875223D01*
X180008264Y-104786976D01*
X180009553Y-104783730D01*
X180043962Y-104693245D01*
X180047636Y-104687381D01*
X180057187Y-104668865D01*
X180059842Y-104662455D01*
X180113657Y-104581915D01*
X180115577Y-104578949D01*
X180166959Y-104496943D01*
X180171711Y-104491904D01*
X180184689Y-104475607D01*
X180188537Y-104469848D01*
X180256993Y-104401392D01*
X180259546Y-104398762D01*
X180280023Y-104377048D01*
X180325889Y-104328410D01*
X180331521Y-104324403D01*
X180347447Y-104310938D01*
X180352346Y-104306039D01*
X180432824Y-104252266D01*
X180435806Y-104250210D01*
X180514645Y-104194120D01*
X180520955Y-104191287D01*
X180539194Y-104181191D01*
X180544951Y-104177344D01*
X180544954Y-104177343D01*
X180544955Y-104177342D01*
X180634429Y-104140281D01*
X180637687Y-104138875D01*
X180725973Y-104099235D01*
X180732725Y-104097685D01*
X180752562Y-104091348D01*
X180758973Y-104088693D01*
X180853899Y-104069811D01*
X180857446Y-104069051D01*
X180951751Y-104047401D01*
X180954130Y-104047331D01*
X180958665Y-104047198D01*
X180979381Y-104044851D01*
X180986174Y-104043500D01*
X181082959Y-104043500D01*
X181086584Y-104043447D01*
X181183302Y-104040610D01*
X181190127Y-104041761D01*
X181190127Y-104041761D01*
G37*
G36*
X134451750Y-106973750D02*
G01*
X132849750Y-106973750D01*
X132849750Y-98321750D01*
X134451750Y-98321750D01*
X134451750Y-106973750D01*
X134451750Y-106973750D01*
G37*
G36*
X145851750Y-106973750D02*
G01*
X144249750Y-106973750D01*
X144249750Y-98321750D01*
X145851750Y-98321750D01*
X145851750Y-106973750D01*
X145851750Y-106973750D01*
G37*
G36*
X115830604Y-101690347D02*
G01*
X115867144Y-101701432D01*
X115900821Y-101719433D01*
X115930341Y-101743659D01*
X115954567Y-101773179D01*
X115972568Y-101806856D01*
X115983653Y-101843396D01*
X115988000Y-101887538D01*
X115988000Y-102836462D01*
X115983653Y-102880604D01*
X115972568Y-102917144D01*
X115954567Y-102950821D01*
X115930341Y-102980341D01*
X115900821Y-103004567D01*
X115867144Y-103022568D01*
X115830604Y-103033653D01*
X115786462Y-103038000D01*
X114337538Y-103038000D01*
X114293396Y-103033653D01*
X114256856Y-103022568D01*
X114223179Y-103004567D01*
X114193659Y-102980341D01*
X114169433Y-102950821D01*
X114151432Y-102917144D01*
X114140347Y-102880604D01*
X114136000Y-102836462D01*
X114136000Y-101887538D01*
X114140347Y-101843396D01*
X114151432Y-101806856D01*
X114169433Y-101773179D01*
X114193659Y-101743659D01*
X114223179Y-101719433D01*
X114256856Y-101701432D01*
X114293396Y-101690347D01*
X114337538Y-101686000D01*
X115786462Y-101686000D01*
X115830604Y-101690347D01*
X115830604Y-101690347D01*
G37*
G36*
X130897968Y-101234565D02*
G01*
X130936638Y-101246296D01*
X130972277Y-101265346D01*
X131003517Y-101290983D01*
X131029154Y-101322223D01*
X131048204Y-101357862D01*
X131059935Y-101396532D01*
X131064500Y-101442888D01*
X131064500Y-102519112D01*
X131059935Y-102565468D01*
X131048204Y-102604138D01*
X131029154Y-102639777D01*
X131003517Y-102671017D01*
X130972277Y-102696654D01*
X130936638Y-102715704D01*
X130897968Y-102727435D01*
X130851612Y-102732000D01*
X130200388Y-102732000D01*
X130154032Y-102727435D01*
X130115362Y-102715704D01*
X130079723Y-102696654D01*
X130048483Y-102671017D01*
X130022846Y-102639777D01*
X130003796Y-102604138D01*
X129992065Y-102565468D01*
X129987500Y-102519112D01*
X129987500Y-101442888D01*
X129992065Y-101396532D01*
X130003796Y-101357862D01*
X130022846Y-101322223D01*
X130048483Y-101290983D01*
X130079723Y-101265346D01*
X130115362Y-101246296D01*
X130154032Y-101234565D01*
X130200388Y-101230000D01*
X130851612Y-101230000D01*
X130897968Y-101234565D01*
X130897968Y-101234565D01*
G37*
G36*
X129022968Y-101234565D02*
G01*
X129061638Y-101246296D01*
X129097277Y-101265346D01*
X129128517Y-101290983D01*
X129154154Y-101322223D01*
X129173204Y-101357862D01*
X129184935Y-101396532D01*
X129189500Y-101442888D01*
X129189500Y-102519112D01*
X129184935Y-102565468D01*
X129173204Y-102604138D01*
X129154154Y-102639777D01*
X129128517Y-102671017D01*
X129097277Y-102696654D01*
X129061638Y-102715704D01*
X129022968Y-102727435D01*
X128976612Y-102732000D01*
X128325388Y-102732000D01*
X128279032Y-102727435D01*
X128240362Y-102715704D01*
X128204723Y-102696654D01*
X128173483Y-102671017D01*
X128147846Y-102639777D01*
X128128796Y-102604138D01*
X128117065Y-102565468D01*
X128112500Y-102519112D01*
X128112500Y-101442888D01*
X128117065Y-101396532D01*
X128128796Y-101357862D01*
X128147846Y-101322223D01*
X128173483Y-101290983D01*
X128204723Y-101265346D01*
X128240362Y-101246296D01*
X128279032Y-101234565D01*
X128325388Y-101230000D01*
X128976612Y-101230000D01*
X129022968Y-101234565D01*
X129022968Y-101234565D01*
G37*
G36*
X115830604Y-98890347D02*
G01*
X115867144Y-98901432D01*
X115900821Y-98919433D01*
X115930341Y-98943659D01*
X115954567Y-98973179D01*
X115972568Y-99006856D01*
X115983653Y-99043396D01*
X115988000Y-99087538D01*
X115988000Y-100036462D01*
X115983653Y-100080604D01*
X115972568Y-100117144D01*
X115954567Y-100150821D01*
X115930341Y-100180341D01*
X115900821Y-100204567D01*
X115867144Y-100222568D01*
X115830604Y-100233653D01*
X115786462Y-100238000D01*
X114337538Y-100238000D01*
X114293396Y-100233653D01*
X114256856Y-100222568D01*
X114223179Y-100204567D01*
X114193659Y-100180341D01*
X114169433Y-100150821D01*
X114151432Y-100117144D01*
X114140347Y-100080604D01*
X114136000Y-100036462D01*
X114136000Y-99087538D01*
X114140347Y-99043396D01*
X114151432Y-99006856D01*
X114169433Y-98973179D01*
X114193659Y-98943659D01*
X114223179Y-98919433D01*
X114256856Y-98901432D01*
X114293396Y-98890347D01*
X114337538Y-98886000D01*
X115786462Y-98886000D01*
X115830604Y-98890347D01*
X115830604Y-98890347D01*
G37*
G36*
X148952218Y-98303815D02*
G01*
X148990888Y-98315546D01*
X149026527Y-98334596D01*
X149057767Y-98360233D01*
X149083404Y-98391473D01*
X149102454Y-98427112D01*
X149114185Y-98465782D01*
X149118750Y-98512138D01*
X149118750Y-99163362D01*
X149114185Y-99209718D01*
X149102454Y-99248388D01*
X149083404Y-99284027D01*
X149057767Y-99315267D01*
X149026527Y-99340904D01*
X148990888Y-99359954D01*
X148952218Y-99371685D01*
X148905862Y-99376250D01*
X147829638Y-99376250D01*
X147783282Y-99371685D01*
X147744612Y-99359954D01*
X147708973Y-99340904D01*
X147677733Y-99315267D01*
X147652096Y-99284027D01*
X147633046Y-99248388D01*
X147621315Y-99209718D01*
X147616750Y-99163362D01*
X147616750Y-98512138D01*
X147621315Y-98465782D01*
X147633046Y-98427112D01*
X147652096Y-98391473D01*
X147677733Y-98360233D01*
X147708973Y-98334596D01*
X147744612Y-98315546D01*
X147783282Y-98303815D01*
X147829638Y-98299250D01*
X148905862Y-98299250D01*
X148952218Y-98303815D01*
X148952218Y-98303815D01*
G37*
G36*
X143676750Y-97748750D02*
G01*
X135024750Y-97748750D01*
X135024750Y-96146750D01*
X143676750Y-96146750D01*
X143676750Y-97748750D01*
X143676750Y-97748750D01*
G37*
G36*
X148952218Y-96428815D02*
G01*
X148990888Y-96440546D01*
X149026527Y-96459596D01*
X149057767Y-96485233D01*
X149083404Y-96516473D01*
X149102454Y-96552112D01*
X149114185Y-96590782D01*
X149118750Y-96637138D01*
X149118750Y-97288362D01*
X149114185Y-97334718D01*
X149102454Y-97373388D01*
X149083404Y-97409027D01*
X149057767Y-97440267D01*
X149026527Y-97465904D01*
X148990888Y-97484954D01*
X148952218Y-97496685D01*
X148905862Y-97501250D01*
X147829638Y-97501250D01*
X147783282Y-97496685D01*
X147744612Y-97484954D01*
X147708973Y-97465904D01*
X147677733Y-97440267D01*
X147652096Y-97409027D01*
X147633046Y-97373388D01*
X147621315Y-97334718D01*
X147616750Y-97288362D01*
X147616750Y-96637138D01*
X147621315Y-96590782D01*
X147633046Y-96552112D01*
X147652096Y-96516473D01*
X147677733Y-96485233D01*
X147708973Y-96459596D01*
X147744612Y-96440546D01*
X147783282Y-96428815D01*
X147829638Y-96424250D01*
X148905862Y-96424250D01*
X148952218Y-96428815D01*
X148952218Y-96428815D01*
G37*
G36*
X121583718Y-94971815D02*
G01*
X121622388Y-94983546D01*
X121658027Y-95002596D01*
X121689267Y-95028233D01*
X121714904Y-95059473D01*
X121733954Y-95095112D01*
X121745685Y-95133782D01*
X121750250Y-95180138D01*
X121750250Y-95831362D01*
X121745685Y-95877718D01*
X121733954Y-95916388D01*
X121714904Y-95952027D01*
X121689267Y-95983267D01*
X121658027Y-96008904D01*
X121622388Y-96027954D01*
X121583718Y-96039685D01*
X121537362Y-96044250D01*
X120461138Y-96044250D01*
X120414782Y-96039685D01*
X120376112Y-96027954D01*
X120340473Y-96008904D01*
X120309233Y-95983267D01*
X120283596Y-95952027D01*
X120264546Y-95916388D01*
X120252815Y-95877718D01*
X120248250Y-95831362D01*
X120248250Y-95180138D01*
X120252815Y-95133782D01*
X120264546Y-95095112D01*
X120283596Y-95059473D01*
X120309233Y-95028233D01*
X120340473Y-95002596D01*
X120376112Y-94983546D01*
X120414782Y-94971815D01*
X120461138Y-94967250D01*
X121537362Y-94967250D01*
X121583718Y-94971815D01*
X121583718Y-94971815D01*
G37*
G36*
X118408718Y-94971815D02*
G01*
X118447388Y-94983546D01*
X118483027Y-95002596D01*
X118514267Y-95028233D01*
X118539904Y-95059473D01*
X118558954Y-95095112D01*
X118570685Y-95133782D01*
X118575250Y-95180138D01*
X118575250Y-95831362D01*
X118570685Y-95877718D01*
X118558954Y-95916388D01*
X118539904Y-95952027D01*
X118514267Y-95983267D01*
X118483027Y-96008904D01*
X118447388Y-96027954D01*
X118408718Y-96039685D01*
X118362362Y-96044250D01*
X117286138Y-96044250D01*
X117239782Y-96039685D01*
X117201112Y-96027954D01*
X117165473Y-96008904D01*
X117134233Y-95983267D01*
X117108596Y-95952027D01*
X117089546Y-95916388D01*
X117077815Y-95877718D01*
X117073250Y-95831362D01*
X117073250Y-95180138D01*
X117077815Y-95133782D01*
X117089546Y-95095112D01*
X117108596Y-95059473D01*
X117134233Y-95028233D01*
X117165473Y-95002596D01*
X117201112Y-94983546D01*
X117239782Y-94971815D01*
X117286138Y-94967250D01*
X118362362Y-94967250D01*
X118408718Y-94971815D01*
X118408718Y-94971815D01*
G37*
G36*
X128854468Y-94874815D02*
G01*
X128893138Y-94886546D01*
X128928777Y-94905596D01*
X128960017Y-94931233D01*
X128985654Y-94962473D01*
X129004704Y-94998112D01*
X129016435Y-95036782D01*
X129021000Y-95083138D01*
X129021000Y-95734362D01*
X129016435Y-95780718D01*
X129004704Y-95819388D01*
X128985654Y-95855027D01*
X128960017Y-95886267D01*
X128928777Y-95911904D01*
X128893138Y-95930954D01*
X128854468Y-95942685D01*
X128808112Y-95947250D01*
X127731888Y-95947250D01*
X127685532Y-95942685D01*
X127646862Y-95930954D01*
X127611223Y-95911904D01*
X127579983Y-95886267D01*
X127554346Y-95855027D01*
X127535296Y-95819388D01*
X127523565Y-95780718D01*
X127519000Y-95734362D01*
X127519000Y-95083138D01*
X127523565Y-95036782D01*
X127535296Y-94998112D01*
X127554346Y-94962473D01*
X127579983Y-94931233D01*
X127611223Y-94905596D01*
X127646862Y-94886546D01*
X127685532Y-94874815D01*
X127731888Y-94870250D01*
X128808112Y-94870250D01*
X128854468Y-94874815D01*
X128854468Y-94874815D01*
G37*
G36*
X132156468Y-94874815D02*
G01*
X132195138Y-94886546D01*
X132230777Y-94905596D01*
X132262017Y-94931233D01*
X132287654Y-94962473D01*
X132306704Y-94998112D01*
X132318435Y-95036782D01*
X132323000Y-95083138D01*
X132323000Y-95734362D01*
X132318435Y-95780718D01*
X132306704Y-95819388D01*
X132287654Y-95855027D01*
X132262017Y-95886267D01*
X132230777Y-95911904D01*
X132195138Y-95930954D01*
X132156468Y-95942685D01*
X132110112Y-95947250D01*
X131033888Y-95947250D01*
X130987532Y-95942685D01*
X130948862Y-95930954D01*
X130913223Y-95911904D01*
X130881983Y-95886267D01*
X130856346Y-95855027D01*
X130837296Y-95819388D01*
X130825565Y-95780718D01*
X130821000Y-95734362D01*
X130821000Y-95083138D01*
X130825565Y-95036782D01*
X130837296Y-94998112D01*
X130856346Y-94962473D01*
X130881983Y-94931233D01*
X130913223Y-94905596D01*
X130948862Y-94886546D01*
X130987532Y-94874815D01*
X131033888Y-94870250D01*
X132110112Y-94870250D01*
X132156468Y-94874815D01*
X132156468Y-94874815D01*
G37*
G36*
X118408718Y-93096815D02*
G01*
X118447388Y-93108546D01*
X118483027Y-93127596D01*
X118514267Y-93153233D01*
X118539904Y-93184473D01*
X118558954Y-93220112D01*
X118570685Y-93258782D01*
X118575250Y-93305138D01*
X118575250Y-93956362D01*
X118570685Y-94002718D01*
X118558954Y-94041388D01*
X118539904Y-94077027D01*
X118514267Y-94108267D01*
X118483027Y-94133904D01*
X118447388Y-94152954D01*
X118408718Y-94164685D01*
X118362362Y-94169250D01*
X117286138Y-94169250D01*
X117239782Y-94164685D01*
X117201112Y-94152954D01*
X117165473Y-94133904D01*
X117134233Y-94108267D01*
X117108596Y-94077027D01*
X117089546Y-94041388D01*
X117077815Y-94002718D01*
X117073250Y-93956362D01*
X117073250Y-93305138D01*
X117077815Y-93258782D01*
X117089546Y-93220112D01*
X117108596Y-93184473D01*
X117134233Y-93153233D01*
X117165473Y-93127596D01*
X117201112Y-93108546D01*
X117239782Y-93096815D01*
X117286138Y-93092250D01*
X118362362Y-93092250D01*
X118408718Y-93096815D01*
X118408718Y-93096815D01*
G37*
G36*
X121583718Y-93096815D02*
G01*
X121622388Y-93108546D01*
X121658027Y-93127596D01*
X121689267Y-93153233D01*
X121714904Y-93184473D01*
X121733954Y-93220112D01*
X121745685Y-93258782D01*
X121750250Y-93305138D01*
X121750250Y-93956362D01*
X121745685Y-94002718D01*
X121733954Y-94041388D01*
X121714904Y-94077027D01*
X121689267Y-94108267D01*
X121658027Y-94133904D01*
X121622388Y-94152954D01*
X121583718Y-94164685D01*
X121537362Y-94169250D01*
X120461138Y-94169250D01*
X120414782Y-94164685D01*
X120376112Y-94152954D01*
X120340473Y-94133904D01*
X120309233Y-94108267D01*
X120283596Y-94077027D01*
X120264546Y-94041388D01*
X120252815Y-94002718D01*
X120248250Y-93956362D01*
X120248250Y-93305138D01*
X120252815Y-93258782D01*
X120264546Y-93220112D01*
X120283596Y-93184473D01*
X120309233Y-93153233D01*
X120340473Y-93127596D01*
X120376112Y-93108546D01*
X120414782Y-93096815D01*
X120461138Y-93092250D01*
X121537362Y-93092250D01*
X121583718Y-93096815D01*
X121583718Y-93096815D01*
G37*
G36*
X132156468Y-92999815D02*
G01*
X132195138Y-93011546D01*
X132230777Y-93030596D01*
X132262017Y-93056233D01*
X132287654Y-93087473D01*
X132306704Y-93123112D01*
X132318435Y-93161782D01*
X132323000Y-93208138D01*
X132323000Y-93859362D01*
X132318435Y-93905718D01*
X132306704Y-93944388D01*
X132287654Y-93980027D01*
X132262017Y-94011267D01*
X132230777Y-94036904D01*
X132195138Y-94055954D01*
X132156468Y-94067685D01*
X132110112Y-94072250D01*
X131033888Y-94072250D01*
X130987532Y-94067685D01*
X130948862Y-94055954D01*
X130913223Y-94036904D01*
X130881983Y-94011267D01*
X130856346Y-93980027D01*
X130837296Y-93944388D01*
X130825565Y-93905718D01*
X130821000Y-93859362D01*
X130821000Y-93208138D01*
X130825565Y-93161782D01*
X130837296Y-93123112D01*
X130856346Y-93087473D01*
X130881983Y-93056233D01*
X130913223Y-93030596D01*
X130948862Y-93011546D01*
X130987532Y-92999815D01*
X131033888Y-92995250D01*
X132110112Y-92995250D01*
X132156468Y-92999815D01*
X132156468Y-92999815D01*
G37*
G36*
X128854468Y-92999815D02*
G01*
X128893138Y-93011546D01*
X128928777Y-93030596D01*
X128960017Y-93056233D01*
X128985654Y-93087473D01*
X129004704Y-93123112D01*
X129016435Y-93161782D01*
X129021000Y-93208138D01*
X129021000Y-93859362D01*
X129016435Y-93905718D01*
X129004704Y-93944388D01*
X128985654Y-93980027D01*
X128960017Y-94011267D01*
X128928777Y-94036904D01*
X128893138Y-94055954D01*
X128854468Y-94067685D01*
X128808112Y-94072250D01*
X127731888Y-94072250D01*
X127685532Y-94067685D01*
X127646862Y-94055954D01*
X127611223Y-94036904D01*
X127579983Y-94011267D01*
X127554346Y-93980027D01*
X127535296Y-93944388D01*
X127523565Y-93905718D01*
X127519000Y-93859362D01*
X127519000Y-93208138D01*
X127523565Y-93161782D01*
X127535296Y-93123112D01*
X127554346Y-93087473D01*
X127579983Y-93056233D01*
X127611223Y-93030596D01*
X127646862Y-93011546D01*
X127685532Y-92999815D01*
X127731888Y-92995250D01*
X128808112Y-92995250D01*
X128854468Y-92999815D01*
X128854468Y-92999815D01*
G37*
G36*
X168100500Y-93400500D02*
G01*
X166798500Y-93400500D01*
X166798500Y-92398500D01*
X168100500Y-92398500D01*
X168100500Y-93400500D01*
X168100500Y-93400500D01*
G37*
G36*
X187182250Y-93369750D02*
G01*
X185880250Y-93369750D01*
X185880250Y-92367750D01*
X187182250Y-92367750D01*
X187182250Y-93369750D01*
X187182250Y-93369750D01*
G37*
G36*
X179190224Y-89314934D02*
G01*
X179408224Y-89405233D01*
X179562373Y-89469083D01*
X179897298Y-89692873D01*
X180182127Y-89977702D01*
X180405917Y-90312627D01*
X180438312Y-90390836D01*
X180560066Y-90684776D01*
X180638650Y-91079844D01*
X180638650Y-91482656D01*
X180560066Y-91877724D01*
X180469767Y-92095724D01*
X180405917Y-92249873D01*
X180182127Y-92584798D01*
X179897298Y-92869627D01*
X179562373Y-93093417D01*
X179479857Y-93127596D01*
X179190224Y-93247566D01*
X178795156Y-93326150D01*
X178392344Y-93326150D01*
X177997276Y-93247566D01*
X177707643Y-93127596D01*
X177625127Y-93093417D01*
X177290202Y-92869627D01*
X177005373Y-92584798D01*
X176781583Y-92249873D01*
X176717733Y-92095724D01*
X176627434Y-91877724D01*
X176548850Y-91482656D01*
X176548850Y-91079844D01*
X176627434Y-90684776D01*
X176749188Y-90390836D01*
X176781583Y-90312627D01*
X177005373Y-89977702D01*
X177290202Y-89692873D01*
X177625127Y-89469083D01*
X177779276Y-89405233D01*
X177997276Y-89314934D01*
X178392344Y-89236350D01*
X178795156Y-89236350D01*
X179190224Y-89314934D01*
X179190224Y-89314934D01*
G37*
G36*
X160108474Y-89283184D02*
G01*
X160326474Y-89373483D01*
X160480623Y-89437333D01*
X160815548Y-89661123D01*
X161100377Y-89945952D01*
X161324167Y-90280877D01*
X161356562Y-90359086D01*
X161478316Y-90653026D01*
X161556900Y-91048094D01*
X161556900Y-91450906D01*
X161478316Y-91845974D01*
X161427451Y-91968772D01*
X161324167Y-92218123D01*
X161100377Y-92553048D01*
X160815548Y-92837877D01*
X160480623Y-93061667D01*
X160357309Y-93112745D01*
X160108474Y-93215816D01*
X159713406Y-93294400D01*
X159310594Y-93294400D01*
X158915526Y-93215816D01*
X158666691Y-93112745D01*
X158543377Y-93061667D01*
X158208452Y-92837877D01*
X157923623Y-92553048D01*
X157699833Y-92218123D01*
X157596549Y-91968772D01*
X157545684Y-91845974D01*
X157467100Y-91450906D01*
X157467100Y-91048094D01*
X157545684Y-90653026D01*
X157667438Y-90359086D01*
X157699833Y-90280877D01*
X157923623Y-89945952D01*
X158208452Y-89661123D01*
X158543377Y-89437333D01*
X158697526Y-89373483D01*
X158915526Y-89283184D01*
X159310594Y-89204600D01*
X159713406Y-89204600D01*
X160108474Y-89283184D01*
X160108474Y-89283184D01*
G37*
G36*
X183943854Y-90390835D02*
G01*
X184112376Y-90460639D01*
X184264041Y-90561978D01*
X184393022Y-90690959D01*
X184494361Y-90842624D01*
X184564165Y-91011146D01*
X184599750Y-91190047D01*
X184599750Y-91372453D01*
X184564165Y-91551354D01*
X184494361Y-91719876D01*
X184393022Y-91871541D01*
X184264041Y-92000522D01*
X184112376Y-92101861D01*
X183943854Y-92171665D01*
X183764953Y-92207250D01*
X183582547Y-92207250D01*
X183403646Y-92171665D01*
X183235124Y-92101861D01*
X183083459Y-92000522D01*
X182954478Y-91871541D01*
X182853139Y-91719876D01*
X182783335Y-91551354D01*
X182747750Y-91372453D01*
X182747750Y-91190047D01*
X182783335Y-91011146D01*
X182853139Y-90842624D01*
X182954478Y-90690959D01*
X183083459Y-90561978D01*
X183235124Y-90460639D01*
X183403646Y-90390835D01*
X183582547Y-90355250D01*
X183764953Y-90355250D01*
X183943854Y-90390835D01*
X183943854Y-90390835D01*
G37*
G36*
X173783854Y-90390835D02*
G01*
X173952376Y-90460639D01*
X174104041Y-90561978D01*
X174233022Y-90690959D01*
X174334361Y-90842624D01*
X174404165Y-91011146D01*
X174439750Y-91190047D01*
X174439750Y-91372453D01*
X174404165Y-91551354D01*
X174334361Y-91719876D01*
X174233022Y-91871541D01*
X174104041Y-92000522D01*
X173952376Y-92101861D01*
X173783854Y-92171665D01*
X173604953Y-92207250D01*
X173422547Y-92207250D01*
X173243646Y-92171665D01*
X173075124Y-92101861D01*
X172923459Y-92000522D01*
X172794478Y-91871541D01*
X172693139Y-91719876D01*
X172623335Y-91551354D01*
X172587750Y-91372453D01*
X172587750Y-91190047D01*
X172623335Y-91011146D01*
X172693139Y-90842624D01*
X172794478Y-90690959D01*
X172923459Y-90561978D01*
X173075124Y-90460639D01*
X173243646Y-90390835D01*
X173422547Y-90355250D01*
X173604953Y-90355250D01*
X173783854Y-90390835D01*
X173783854Y-90390835D01*
G37*
G36*
X154702104Y-90359085D02*
G01*
X154870626Y-90428889D01*
X155022291Y-90530228D01*
X155151272Y-90659209D01*
X155252611Y-90810874D01*
X155322415Y-90979396D01*
X155358000Y-91158297D01*
X155358000Y-91340703D01*
X155322415Y-91519604D01*
X155252611Y-91688126D01*
X155151272Y-91839791D01*
X155022291Y-91968772D01*
X154870626Y-92070111D01*
X154702104Y-92139915D01*
X154523203Y-92175500D01*
X154340797Y-92175500D01*
X154161896Y-92139915D01*
X153993374Y-92070111D01*
X153841709Y-91968772D01*
X153712728Y-91839791D01*
X153611389Y-91688126D01*
X153541585Y-91519604D01*
X153506000Y-91340703D01*
X153506000Y-91158297D01*
X153541585Y-90979396D01*
X153611389Y-90810874D01*
X153712728Y-90659209D01*
X153841709Y-90530228D01*
X153993374Y-90428889D01*
X154161896Y-90359085D01*
X154340797Y-90323500D01*
X154523203Y-90323500D01*
X154702104Y-90359085D01*
X154702104Y-90359085D01*
G37*
G36*
X164862104Y-90359085D02*
G01*
X165030626Y-90428889D01*
X165182291Y-90530228D01*
X165311272Y-90659209D01*
X165412611Y-90810874D01*
X165482415Y-90979396D01*
X165518000Y-91158297D01*
X165518000Y-91340703D01*
X165482415Y-91519604D01*
X165412611Y-91688126D01*
X165311272Y-91839791D01*
X165182291Y-91968772D01*
X165030626Y-92070111D01*
X164862104Y-92139915D01*
X164683203Y-92175500D01*
X164500797Y-92175500D01*
X164321896Y-92139915D01*
X164153374Y-92070111D01*
X164001709Y-91968772D01*
X163872728Y-91839791D01*
X163771389Y-91688126D01*
X163701585Y-91519604D01*
X163666000Y-91340703D01*
X163666000Y-91158297D01*
X163701585Y-90979396D01*
X163771389Y-90810874D01*
X163872728Y-90659209D01*
X164001709Y-90530228D01*
X164153374Y-90428889D01*
X164321896Y-90359085D01*
X164500797Y-90323500D01*
X164683203Y-90323500D01*
X164862104Y-90359085D01*
X164862104Y-90359085D01*
G37*
G36*
X135490218Y-90145815D02*
G01*
X135528888Y-90157546D01*
X135564527Y-90176596D01*
X135595767Y-90202233D01*
X135621404Y-90233473D01*
X135640454Y-90269112D01*
X135652185Y-90307782D01*
X135656750Y-90354138D01*
X135656750Y-91005362D01*
X135652185Y-91051718D01*
X135640454Y-91090388D01*
X135621404Y-91126027D01*
X135595767Y-91157267D01*
X135564527Y-91182904D01*
X135528888Y-91201954D01*
X135490218Y-91213685D01*
X135443862Y-91218250D01*
X134367638Y-91218250D01*
X134321282Y-91213685D01*
X134282612Y-91201954D01*
X134246973Y-91182904D01*
X134215733Y-91157267D01*
X134190096Y-91126027D01*
X134171046Y-91090388D01*
X134159315Y-91051718D01*
X134154750Y-91005362D01*
X134154750Y-90354138D01*
X134159315Y-90307782D01*
X134171046Y-90269112D01*
X134190096Y-90233473D01*
X134215733Y-90202233D01*
X134246973Y-90176596D01*
X134282612Y-90157546D01*
X134321282Y-90145815D01*
X134367638Y-90141250D01*
X135443862Y-90141250D01*
X135490218Y-90145815D01*
X135490218Y-90145815D01*
G37*
G36*
X139001750Y-91194750D02*
G01*
X137499750Y-91194750D01*
X137499750Y-89892750D01*
X139001750Y-89892750D01*
X139001750Y-91194750D01*
X139001750Y-91194750D01*
G37*
G36*
X141201750Y-91194750D02*
G01*
X139699750Y-91194750D01*
X139699750Y-89892750D01*
X141201750Y-89892750D01*
X141201750Y-91194750D01*
X141201750Y-91194750D01*
G37*
G36*
X144253218Y-90048815D02*
G01*
X144291888Y-90060546D01*
X144327527Y-90079596D01*
X144358767Y-90105233D01*
X144384404Y-90136473D01*
X144403454Y-90172112D01*
X144415185Y-90210782D01*
X144419750Y-90257138D01*
X144419750Y-90908362D01*
X144415185Y-90954718D01*
X144403454Y-90993388D01*
X144384404Y-91029027D01*
X144358767Y-91060267D01*
X144327527Y-91085904D01*
X144291888Y-91104954D01*
X144253218Y-91116685D01*
X144206862Y-91121250D01*
X143130638Y-91121250D01*
X143084282Y-91116685D01*
X143045612Y-91104954D01*
X143009973Y-91085904D01*
X142978733Y-91060267D01*
X142953096Y-91029027D01*
X142934046Y-90993388D01*
X142922315Y-90954718D01*
X142917750Y-90908362D01*
X142917750Y-90257138D01*
X142922315Y-90210782D01*
X142934046Y-90172112D01*
X142953096Y-90136473D01*
X142978733Y-90105233D01*
X143009973Y-90079596D01*
X143045612Y-90060546D01*
X143084282Y-90048815D01*
X143130638Y-90044250D01*
X144206862Y-90044250D01*
X144253218Y-90048815D01*
X144253218Y-90048815D01*
G37*
G36*
X168100500Y-90100500D02*
G01*
X166798500Y-90100500D01*
X166798500Y-89098500D01*
X168100500Y-89098500D01*
X168100500Y-90100500D01*
X168100500Y-90100500D01*
G37*
G36*
X187182250Y-90069750D02*
G01*
X185880250Y-90069750D01*
X185880250Y-89067750D01*
X187182250Y-89067750D01*
X187182250Y-90069750D01*
X187182250Y-90069750D01*
G37*
G36*
X176116955Y-86105131D02*
G01*
X176122395Y-86105250D01*
X176209578Y-86105250D01*
X176225847Y-86108486D01*
X176244706Y-86110765D01*
X176261282Y-86111496D01*
X176345973Y-86132260D01*
X176351268Y-86133434D01*
X176436777Y-86150443D01*
X176452112Y-86156795D01*
X176470151Y-86162705D01*
X176486271Y-86166657D01*
X176565254Y-86203530D01*
X176570244Y-86205727D01*
X176650795Y-86239092D01*
X176664591Y-86248310D01*
X176681143Y-86257632D01*
X176696176Y-86264650D01*
X176766444Y-86316221D01*
X176770942Y-86319372D01*
X176843406Y-86367791D01*
X176855133Y-86379518D01*
X176869559Y-86391898D01*
X176882929Y-86401711D01*
X176916064Y-86437903D01*
X176941771Y-86465983D01*
X176945579Y-86469964D01*
X177007209Y-86531594D01*
X177016424Y-86545385D01*
X177028146Y-86560328D01*
X177039355Y-86572571D01*
X177084549Y-86647124D01*
X177087496Y-86651751D01*
X177100902Y-86671815D01*
X177135908Y-86724205D01*
X177142255Y-86739527D01*
X177150842Y-86756481D01*
X177159441Y-86770667D01*
X177189228Y-86852618D01*
X177191202Y-86857698D01*
X177224557Y-86938223D01*
X177224557Y-86938224D01*
X177227791Y-86954483D01*
X177232908Y-86972792D01*
X177238575Y-86988384D01*
X177251805Y-87074595D01*
X177252751Y-87079963D01*
X177269750Y-87165423D01*
X177269750Y-87182002D01*
X177271194Y-87200942D01*
X177273713Y-87217354D01*
X177269870Y-87304499D01*
X177269750Y-87309939D01*
X177269750Y-87397075D01*
X177266516Y-87413333D01*
X177264238Y-87432191D01*
X177263506Y-87448781D01*
X177242738Y-87533487D01*
X177241562Y-87538787D01*
X177224557Y-87624277D01*
X177218207Y-87639607D01*
X177212299Y-87657643D01*
X177208345Y-87673770D01*
X177171461Y-87752776D01*
X177169261Y-87757773D01*
X177135908Y-87838295D01*
X177126694Y-87852085D01*
X177117372Y-87868637D01*
X177110352Y-87883674D01*
X177058761Y-87953970D01*
X177055616Y-87958460D01*
X177007211Y-88030904D01*
X176950210Y-88087905D01*
X176945561Y-88092813D01*
X175951341Y-89200873D01*
X175620473Y-89569626D01*
X175492429Y-89686852D01*
X175393381Y-89746895D01*
X175294333Y-89806939D01*
X175076616Y-89886073D01*
X174847645Y-89921211D01*
X174616220Y-89911004D01*
X174391231Y-89855843D01*
X174286477Y-89806939D01*
X174181329Y-89757852D01*
X174084588Y-89686852D01*
X173994573Y-89620789D01*
X173879183Y-89494750D01*
X173838148Y-89449929D01*
X173773479Y-89343250D01*
X173718061Y-89251833D01*
X173638927Y-89034116D01*
X173603789Y-88805145D01*
X173613996Y-88573720D01*
X173669157Y-88348731D01*
X173736446Y-88204596D01*
X173767148Y-88138830D01*
X173767150Y-88138827D01*
X173869864Y-87998872D01*
X174644647Y-87135375D01*
X175156537Y-86564871D01*
X175167431Y-86550839D01*
X175180289Y-86531596D01*
X175237323Y-86474562D01*
X175241973Y-86469653D01*
X175257028Y-86452874D01*
X175278451Y-86433261D01*
X175282432Y-86429453D01*
X175344096Y-86367789D01*
X175357893Y-86358570D01*
X175372852Y-86346835D01*
X175385071Y-86335648D01*
X175418992Y-86315085D01*
X175459580Y-86290481D01*
X175464171Y-86287558D01*
X175536705Y-86239092D01*
X175552050Y-86232736D01*
X175568998Y-86224151D01*
X175583166Y-86215562D01*
X175583167Y-86215562D01*
X175583168Y-86215561D01*
X175665062Y-86185795D01*
X175670163Y-86183812D01*
X175750723Y-86150443D01*
X175767002Y-86147205D01*
X175785292Y-86142094D01*
X175800885Y-86136427D01*
X175887050Y-86123204D01*
X175892413Y-86122259D01*
X175977923Y-86105250D01*
X175994516Y-86105250D01*
X176013459Y-86103805D01*
X176029856Y-86101289D01*
X176116955Y-86105131D01*
X176116955Y-86105131D01*
G37*
G36*
X157035205Y-86073381D02*
G01*
X157040645Y-86073500D01*
X157127828Y-86073500D01*
X157144097Y-86076736D01*
X157162956Y-86079015D01*
X157179532Y-86079746D01*
X157264223Y-86100510D01*
X157269518Y-86101684D01*
X157355027Y-86118693D01*
X157370362Y-86125045D01*
X157388401Y-86130955D01*
X157404521Y-86134907D01*
X157483504Y-86171780D01*
X157488494Y-86173977D01*
X157569045Y-86207342D01*
X157582841Y-86216560D01*
X157599393Y-86225882D01*
X157614426Y-86232900D01*
X157684694Y-86284471D01*
X157689192Y-86287622D01*
X157761656Y-86336041D01*
X157773383Y-86347768D01*
X157787809Y-86360148D01*
X157801179Y-86369961D01*
X157859132Y-86433261D01*
X157860021Y-86434233D01*
X157863829Y-86438214D01*
X157925459Y-86499844D01*
X157934674Y-86513635D01*
X157946396Y-86528578D01*
X157957605Y-86540821D01*
X158002799Y-86615374D01*
X158005746Y-86620001D01*
X158054158Y-86692455D01*
X158060505Y-86707777D01*
X158069092Y-86724731D01*
X158077691Y-86738917D01*
X158107478Y-86820868D01*
X158109452Y-86825948D01*
X158142807Y-86906473D01*
X158145457Y-86919794D01*
X158146041Y-86922733D01*
X158151158Y-86941042D01*
X158156825Y-86956634D01*
X158170055Y-87042845D01*
X158171001Y-87048213D01*
X158188000Y-87133673D01*
X158188000Y-87150252D01*
X158189444Y-87169192D01*
X158191963Y-87185604D01*
X158188120Y-87272749D01*
X158188000Y-87278189D01*
X158188000Y-87365325D01*
X158184766Y-87381583D01*
X158182488Y-87400441D01*
X158181756Y-87417031D01*
X158160988Y-87501737D01*
X158159812Y-87507037D01*
X158142807Y-87592527D01*
X158136457Y-87607857D01*
X158130549Y-87625893D01*
X158126595Y-87642020D01*
X158089711Y-87721026D01*
X158087511Y-87726023D01*
X158054158Y-87806545D01*
X158044944Y-87820335D01*
X158035622Y-87836887D01*
X158028602Y-87851924D01*
X157977011Y-87922220D01*
X157973866Y-87926710D01*
X157925461Y-87999154D01*
X157868460Y-88056155D01*
X157863811Y-88061063D01*
X157530569Y-88432462D01*
X156538723Y-89537876D01*
X156410679Y-89655102D01*
X156348371Y-89692873D01*
X156212583Y-89775189D01*
X155994866Y-89854323D01*
X155765895Y-89889461D01*
X155534470Y-89879254D01*
X155309481Y-89824093D01*
X155204727Y-89775189D01*
X155099579Y-89726102D01*
X155002838Y-89655102D01*
X154912823Y-89589039D01*
X154785465Y-89449928D01*
X154756398Y-89418179D01*
X154674564Y-89283185D01*
X154636311Y-89220083D01*
X154557177Y-89002366D01*
X154522039Y-88773395D01*
X154532246Y-88541970D01*
X154587407Y-88316981D01*
X154653959Y-88174424D01*
X154685398Y-88107080D01*
X154695868Y-88092814D01*
X154788114Y-87967122D01*
X155534409Y-87135375D01*
X156074787Y-86533121D01*
X156085681Y-86519089D01*
X156098539Y-86499846D01*
X156155573Y-86442812D01*
X156160223Y-86437903D01*
X156175278Y-86421124D01*
X156196701Y-86401511D01*
X156200682Y-86397703D01*
X156262346Y-86336039D01*
X156276143Y-86326820D01*
X156291102Y-86315085D01*
X156303321Y-86303898D01*
X156335385Y-86284461D01*
X156377830Y-86258731D01*
X156382421Y-86255808D01*
X156454955Y-86207342D01*
X156470300Y-86200986D01*
X156487248Y-86192401D01*
X156501416Y-86183812D01*
X156501417Y-86183812D01*
X156501418Y-86183811D01*
X156583312Y-86154045D01*
X156588410Y-86152063D01*
X156668973Y-86118693D01*
X156685252Y-86115455D01*
X156703542Y-86110344D01*
X156719135Y-86104677D01*
X156805300Y-86091454D01*
X156810663Y-86090509D01*
X156896173Y-86073500D01*
X156912766Y-86073500D01*
X156931709Y-86072055D01*
X156948106Y-86069539D01*
X157035205Y-86073381D01*
X157035205Y-86073381D01*
G37*
G36*
X141201750Y-89494750D02*
G01*
X139699750Y-89494750D01*
X139699750Y-88192750D01*
X141201750Y-88192750D01*
X141201750Y-89494750D01*
X141201750Y-89494750D01*
G37*
G36*
X139001750Y-89494750D02*
G01*
X137499750Y-89494750D01*
X137499750Y-88192750D01*
X139001750Y-88192750D01*
X139001750Y-89494750D01*
X139001750Y-89494750D01*
G37*
G36*
X135490218Y-88270815D02*
G01*
X135528888Y-88282546D01*
X135564527Y-88301596D01*
X135595767Y-88327233D01*
X135621404Y-88358473D01*
X135640454Y-88394112D01*
X135652185Y-88432782D01*
X135656750Y-88479138D01*
X135656750Y-89130362D01*
X135652185Y-89176718D01*
X135640454Y-89215388D01*
X135621404Y-89251027D01*
X135595767Y-89282267D01*
X135564527Y-89307904D01*
X135528888Y-89326954D01*
X135490218Y-89338685D01*
X135443862Y-89343250D01*
X134367638Y-89343250D01*
X134321282Y-89338685D01*
X134282612Y-89326954D01*
X134246973Y-89307904D01*
X134215733Y-89282267D01*
X134190096Y-89251027D01*
X134171046Y-89215388D01*
X134159315Y-89176718D01*
X134154750Y-89130362D01*
X134154750Y-88479138D01*
X134159315Y-88432782D01*
X134171046Y-88394112D01*
X134190096Y-88358473D01*
X134215733Y-88327233D01*
X134246973Y-88301596D01*
X134282612Y-88282546D01*
X134321282Y-88270815D01*
X134367638Y-88266250D01*
X135443862Y-88266250D01*
X135490218Y-88270815D01*
X135490218Y-88270815D01*
G37*
G36*
X144253218Y-88173815D02*
G01*
X144291888Y-88185546D01*
X144327527Y-88204596D01*
X144358767Y-88230233D01*
X144384404Y-88261473D01*
X144403454Y-88297112D01*
X144415185Y-88335782D01*
X144419750Y-88382138D01*
X144419750Y-89033362D01*
X144415185Y-89079718D01*
X144403454Y-89118388D01*
X144384404Y-89154027D01*
X144358767Y-89185267D01*
X144327527Y-89210904D01*
X144291888Y-89229954D01*
X144253218Y-89241685D01*
X144206862Y-89246250D01*
X143130638Y-89246250D01*
X143084282Y-89241685D01*
X143045612Y-89229954D01*
X143009973Y-89210904D01*
X142978733Y-89185267D01*
X142953096Y-89154027D01*
X142934046Y-89118388D01*
X142922315Y-89079718D01*
X142917750Y-89033362D01*
X142917750Y-88382138D01*
X142922315Y-88335782D01*
X142934046Y-88297112D01*
X142953096Y-88261473D01*
X142978733Y-88230233D01*
X143009973Y-88204596D01*
X143045612Y-88185546D01*
X143084282Y-88173815D01*
X143130638Y-88169250D01*
X144206862Y-88169250D01*
X144253218Y-88173815D01*
X144253218Y-88173815D01*
G37*
G36*
X116351127Y-86424037D02*
G01*
X116520966Y-86475557D01*
X116677491Y-86559222D01*
X116713229Y-86588552D01*
X116814686Y-86671814D01*
X116895811Y-86770667D01*
X116927278Y-86809009D01*
X117010943Y-86965534D01*
X117062463Y-87135373D01*
X117062463Y-87135375D01*
X117075500Y-87267740D01*
X117075500Y-88356260D01*
X117071772Y-88394112D01*
X117062463Y-88488627D01*
X117010943Y-88658466D01*
X116927278Y-88814991D01*
X116897948Y-88850729D01*
X116814686Y-88952186D01*
X116677489Y-89064779D01*
X116554792Y-89130362D01*
X116520965Y-89148443D01*
X116351126Y-89199963D01*
X116174500Y-89217359D01*
X115997873Y-89199963D01*
X115828034Y-89148443D01*
X115671509Y-89064778D01*
X115634154Y-89034121D01*
X115534314Y-88952186D01*
X115421721Y-88814989D01*
X115338058Y-88658467D01*
X115338057Y-88658465D01*
X115286537Y-88488626D01*
X115273500Y-88356257D01*
X115273501Y-87267742D01*
X115286538Y-87135373D01*
X115338058Y-86965534D01*
X115421723Y-86809009D01*
X115453190Y-86770667D01*
X115534315Y-86671814D01*
X115635772Y-86588552D01*
X115671510Y-86559222D01*
X115828035Y-86475557D01*
X115997874Y-86424037D01*
X116174500Y-86406641D01*
X116351127Y-86424037D01*
X116351127Y-86424037D01*
G37*
G36*
X123651127Y-86424037D02*
G01*
X123820966Y-86475557D01*
X123977491Y-86559222D01*
X124013229Y-86588552D01*
X124114686Y-86671814D01*
X124195811Y-86770667D01*
X124227278Y-86809009D01*
X124310943Y-86965534D01*
X124362463Y-87135373D01*
X124362463Y-87135375D01*
X124375500Y-87267740D01*
X124375500Y-88356260D01*
X124371772Y-88394112D01*
X124362463Y-88488627D01*
X124310943Y-88658466D01*
X124227278Y-88814991D01*
X124197948Y-88850729D01*
X124114686Y-88952186D01*
X123977489Y-89064779D01*
X123854792Y-89130362D01*
X123820965Y-89148443D01*
X123651126Y-89199963D01*
X123474500Y-89217359D01*
X123297873Y-89199963D01*
X123128034Y-89148443D01*
X122971509Y-89064778D01*
X122934154Y-89034121D01*
X122834314Y-88952186D01*
X122721721Y-88814989D01*
X122638058Y-88658467D01*
X122638057Y-88658465D01*
X122586537Y-88488626D01*
X122573500Y-88356257D01*
X122573501Y-87267742D01*
X122586538Y-87135373D01*
X122638058Y-86965534D01*
X122721723Y-86809009D01*
X122753190Y-86770667D01*
X122834315Y-86671814D01*
X122935772Y-86588552D01*
X122971510Y-86559222D01*
X123128035Y-86475557D01*
X123297874Y-86424037D01*
X123474500Y-86406641D01*
X123651127Y-86424037D01*
X123651127Y-86424037D01*
G37*
G36*
X121725500Y-88988000D02*
G01*
X117923500Y-88988000D01*
X117923500Y-86636000D01*
X121725500Y-86636000D01*
X121725500Y-88988000D01*
X121725500Y-88988000D01*
G37*
G36*
X181221877Y-85023511D02*
G01*
X181242650Y-85025250D01*
X181249577Y-85025250D01*
X181344504Y-85044132D01*
X181348098Y-85044792D01*
X181443480Y-85060874D01*
X181449953Y-85063335D01*
X181469978Y-85069091D01*
X181476777Y-85070443D01*
X181539164Y-85096284D01*
X181566193Y-85107480D01*
X181569594Y-85108831D01*
X181660005Y-85143211D01*
X181665877Y-85146890D01*
X181684386Y-85156437D01*
X181690795Y-85159092D01*
X181771313Y-85212892D01*
X181774304Y-85214828D01*
X181856307Y-85266209D01*
X181861334Y-85270950D01*
X181877646Y-85283941D01*
X181883402Y-85287787D01*
X181951860Y-85356245D01*
X181954439Y-85358749D01*
X182024840Y-85425139D01*
X182028845Y-85430769D01*
X182042309Y-85446694D01*
X182047209Y-85451594D01*
X182100994Y-85532089D01*
X182103041Y-85535057D01*
X182159130Y-85613895D01*
X182161964Y-85620208D01*
X182172058Y-85638443D01*
X182175908Y-85644205D01*
X182212970Y-85733680D01*
X182214374Y-85736935D01*
X182254015Y-85825223D01*
X182255565Y-85831975D01*
X182261902Y-85851812D01*
X182264557Y-85858223D01*
X182283442Y-85953167D01*
X182284188Y-85956651D01*
X182305848Y-86051001D01*
X182305927Y-86053678D01*
X182306050Y-86057904D01*
X182308397Y-86078620D01*
X182309750Y-86085424D01*
X182309750Y-86182236D01*
X182309803Y-86185834D01*
X182310938Y-86224527D01*
X182310045Y-86237475D01*
X182309750Y-86246047D01*
X182309750Y-86317076D01*
X182303831Y-86346835D01*
X182303354Y-86349229D01*
X182301250Y-86365000D01*
X182262988Y-86919795D01*
X182234126Y-87090980D01*
X182151788Y-87307505D01*
X182028791Y-87503807D01*
X181869861Y-87672340D01*
X181681105Y-87806630D01*
X181469777Y-87901515D01*
X181243999Y-87953348D01*
X181012448Y-87960139D01*
X181012447Y-87960139D01*
X180966762Y-87952436D01*
X180784020Y-87921626D01*
X180567495Y-87839288D01*
X180371193Y-87716291D01*
X180202660Y-87557361D01*
X180068370Y-87368605D01*
X179973485Y-87157277D01*
X179921652Y-86931499D01*
X179916562Y-86757973D01*
X179957454Y-86165044D01*
X179957750Y-86156446D01*
X179957750Y-86085425D01*
X179958879Y-86079747D01*
X179976638Y-85990469D01*
X179977294Y-85986895D01*
X179982981Y-85953167D01*
X179993374Y-85891520D01*
X179995835Y-85885049D01*
X180001592Y-85865017D01*
X180002636Y-85859770D01*
X180002943Y-85858223D01*
X180040014Y-85768726D01*
X180041303Y-85765480D01*
X180075712Y-85674995D01*
X180079386Y-85669131D01*
X180088937Y-85650615D01*
X180091592Y-85644205D01*
X180145407Y-85563665D01*
X180147327Y-85560699D01*
X180198709Y-85478693D01*
X180203461Y-85473654D01*
X180216439Y-85457357D01*
X180220287Y-85451598D01*
X180288743Y-85383142D01*
X180291296Y-85380512D01*
X180311773Y-85358798D01*
X180357639Y-85310160D01*
X180363271Y-85306153D01*
X180379197Y-85292688D01*
X180384096Y-85287789D01*
X180464574Y-85234016D01*
X180467556Y-85231960D01*
X180546395Y-85175870D01*
X180552705Y-85173037D01*
X180570944Y-85162941D01*
X180576701Y-85159094D01*
X180576704Y-85159093D01*
X180576705Y-85159092D01*
X180666179Y-85122031D01*
X180669437Y-85120625D01*
X180757723Y-85080985D01*
X180764475Y-85079435D01*
X180784312Y-85073098D01*
X180790723Y-85070443D01*
X180885649Y-85051561D01*
X180889196Y-85050801D01*
X180983501Y-85029151D01*
X180985880Y-85029081D01*
X180990415Y-85028948D01*
X181011131Y-85026601D01*
X181017924Y-85025250D01*
X181114709Y-85025250D01*
X181118334Y-85025197D01*
X181215052Y-85022360D01*
X181221877Y-85023511D01*
X181221877Y-85023511D01*
G37*
G36*
X162140127Y-84991761D02*
G01*
X162160900Y-84993500D01*
X162167827Y-84993500D01*
X162262754Y-85012382D01*
X162266348Y-85013042D01*
X162361730Y-85029124D01*
X162368203Y-85031585D01*
X162388228Y-85037341D01*
X162395027Y-85038693D01*
X162448577Y-85060874D01*
X162484443Y-85075730D01*
X162487844Y-85077081D01*
X162578255Y-85111461D01*
X162584127Y-85115140D01*
X162602636Y-85124687D01*
X162609045Y-85127342D01*
X162689563Y-85181142D01*
X162692554Y-85183078D01*
X162774557Y-85234459D01*
X162779584Y-85239200D01*
X162795896Y-85252191D01*
X162801652Y-85256037D01*
X162870110Y-85324495D01*
X162872689Y-85326999D01*
X162943090Y-85393389D01*
X162947095Y-85399019D01*
X162960559Y-85414944D01*
X162965459Y-85419844D01*
X163019244Y-85500339D01*
X163021291Y-85503307D01*
X163077380Y-85582145D01*
X163080214Y-85588458D01*
X163090308Y-85606693D01*
X163094158Y-85612455D01*
X163131220Y-85701930D01*
X163132624Y-85705185D01*
X163172265Y-85793473D01*
X163173815Y-85800225D01*
X163180152Y-85820062D01*
X163182807Y-85826473D01*
X163201692Y-85921417D01*
X163202438Y-85924901D01*
X163224098Y-86019251D01*
X163224098Y-86019254D01*
X163224300Y-86026154D01*
X163226647Y-86046870D01*
X163228000Y-86053674D01*
X163228000Y-86150486D01*
X163228053Y-86154084D01*
X163229188Y-86192777D01*
X163228295Y-86205725D01*
X163228000Y-86214297D01*
X163228000Y-86285326D01*
X163221685Y-86317076D01*
X163221604Y-86317479D01*
X163219500Y-86333250D01*
X163181238Y-86888045D01*
X163152376Y-87059230D01*
X163070038Y-87275755D01*
X162947041Y-87472057D01*
X162788111Y-87640590D01*
X162599355Y-87774880D01*
X162388027Y-87869765D01*
X162162249Y-87921598D01*
X161930698Y-87928389D01*
X161930697Y-87928389D01*
X161885012Y-87920686D01*
X161702270Y-87889876D01*
X161485745Y-87807538D01*
X161289443Y-87684541D01*
X161120910Y-87525611D01*
X160986620Y-87336855D01*
X160891735Y-87125527D01*
X160839902Y-86899749D01*
X160834812Y-86726223D01*
X160875704Y-86133294D01*
X160876000Y-86124696D01*
X160876000Y-86053675D01*
X160888566Y-85990500D01*
X160894888Y-85958719D01*
X160895544Y-85955145D01*
X160901231Y-85921417D01*
X160911624Y-85859770D01*
X160914085Y-85853299D01*
X160919842Y-85833267D01*
X160921193Y-85826474D01*
X160921711Y-85825223D01*
X160958264Y-85736976D01*
X160959553Y-85733730D01*
X160993962Y-85643245D01*
X160997636Y-85637381D01*
X161007187Y-85618865D01*
X161009842Y-85612455D01*
X161063657Y-85531915D01*
X161065577Y-85528949D01*
X161116959Y-85446943D01*
X161121711Y-85441904D01*
X161134689Y-85425607D01*
X161138537Y-85419848D01*
X161206993Y-85351392D01*
X161209546Y-85348762D01*
X161230023Y-85327048D01*
X161275889Y-85278410D01*
X161281521Y-85274403D01*
X161297447Y-85260938D01*
X161302346Y-85256039D01*
X161382824Y-85202266D01*
X161385806Y-85200210D01*
X161464645Y-85144120D01*
X161470955Y-85141287D01*
X161489194Y-85131191D01*
X161494951Y-85127344D01*
X161494954Y-85127343D01*
X161494955Y-85127342D01*
X161584429Y-85090281D01*
X161587687Y-85088875D01*
X161675973Y-85049235D01*
X161682725Y-85047685D01*
X161702562Y-85041348D01*
X161708973Y-85038693D01*
X161803899Y-85019811D01*
X161807446Y-85019051D01*
X161901751Y-84997401D01*
X161904130Y-84997331D01*
X161908665Y-84997198D01*
X161929381Y-84994851D01*
X161936174Y-84993500D01*
X162032959Y-84993500D01*
X162036584Y-84993447D01*
X162133302Y-84990610D01*
X162140127Y-84991761D01*
X162140127Y-84991761D01*
G37*
G36*
X116351127Y-81924037D02*
G01*
X116520966Y-81975557D01*
X116677491Y-82059222D01*
X116713229Y-82088552D01*
X116814686Y-82171814D01*
X116897948Y-82273271D01*
X116927278Y-82309009D01*
X117010943Y-82465534D01*
X117062463Y-82635373D01*
X117075500Y-82767742D01*
X117075500Y-83856258D01*
X117062463Y-83988627D01*
X117010943Y-84158466D01*
X116927278Y-84314991D01*
X116897948Y-84350729D01*
X116814686Y-84452186D01*
X116677489Y-84564779D01*
X116520967Y-84648442D01*
X116520965Y-84648443D01*
X116351126Y-84699963D01*
X116174500Y-84717359D01*
X115997873Y-84699963D01*
X115828034Y-84648443D01*
X115671509Y-84564778D01*
X115635771Y-84535448D01*
X115534314Y-84452186D01*
X115421721Y-84314989D01*
X115338058Y-84158467D01*
X115338057Y-84158465D01*
X115286537Y-83988626D01*
X115273500Y-83856257D01*
X115273501Y-82767742D01*
X115286538Y-82635373D01*
X115338058Y-82465534D01*
X115421723Y-82309009D01*
X115451053Y-82273271D01*
X115534315Y-82171814D01*
X115635772Y-82088552D01*
X115671510Y-82059222D01*
X115828035Y-81975557D01*
X115997874Y-81924037D01*
X116174500Y-81906641D01*
X116351127Y-81924037D01*
X116351127Y-81924037D01*
G37*
G36*
X123651127Y-81924037D02*
G01*
X123820966Y-81975557D01*
X123977491Y-82059222D01*
X124013229Y-82088552D01*
X124114686Y-82171814D01*
X124197948Y-82273271D01*
X124227278Y-82309009D01*
X124310943Y-82465534D01*
X124362463Y-82635373D01*
X124375500Y-82767742D01*
X124375500Y-83856258D01*
X124362463Y-83988627D01*
X124310943Y-84158466D01*
X124227278Y-84314991D01*
X124197948Y-84350729D01*
X124114686Y-84452186D01*
X123977489Y-84564779D01*
X123820967Y-84648442D01*
X123820965Y-84648443D01*
X123651126Y-84699963D01*
X123474500Y-84717359D01*
X123297873Y-84699963D01*
X123128034Y-84648443D01*
X122971509Y-84564778D01*
X122935771Y-84535448D01*
X122834314Y-84452186D01*
X122721721Y-84314989D01*
X122638058Y-84158467D01*
X122638057Y-84158465D01*
X122586537Y-83988626D01*
X122573500Y-83856257D01*
X122573501Y-82767742D01*
X122586538Y-82635373D01*
X122638058Y-82465534D01*
X122721723Y-82309009D01*
X122751053Y-82273271D01*
X122834315Y-82171814D01*
X122935772Y-82088552D01*
X122971510Y-82059222D01*
X123128035Y-81975557D01*
X123297874Y-81924037D01*
X123474500Y-81906641D01*
X123651127Y-81924037D01*
X123651127Y-81924037D01*
G37*
M02*
