G04 #@! TF.GenerationSoftware,KiCad,Pcbnew,(5.1.4)-1*
G04 #@! TF.CreationDate,2023-04-29T11:54:21-04:00*
G04 #@! TF.ProjectId,Evan-PCB-ISP,4576616e-2d50-4434-922d-4953502e6b69,rev?*
G04 #@! TF.SameCoordinates,Original*
G04 #@! TF.FileFunction,Copper,L2,Bot*
G04 #@! TF.FilePolarity,Positive*
%FSLAX46Y46*%
G04 Gerber Fmt 4.6, Leading zero omitted, Abs format (unit mm)*
G04 Created by KiCad (PCBNEW (5.1.4)-1) date 2023-04-29 11:54:21*
%MOMM*%
%LPD*%
G04 APERTURE LIST*
%ADD10R,1.400000X1.200000*%
%ADD11O,1.700000X2.700000*%
%ADD12R,0.500000X2.250000*%
%ADD13R,0.550000X1.500000*%
%ADD14R,1.500000X0.550000*%
%ADD15R,1.800000X1.100000*%
%ADD16C,0.100000*%
%ADD17C,0.975000*%
%ADD18C,2.250000*%
%ADD19C,2.250000*%
%ADD20C,1.250000*%
%ADD21R,1.200000X0.900000*%
%ADD22C,0.800000*%
%ADD23C,0.381000*%
%ADD24C,0.203200*%
%ADD25C,0.254000*%
G04 APERTURE END LIST*
D10*
X140450750Y-88843750D03*
X138250750Y-88843750D03*
X138250750Y-90543750D03*
X140450750Y-90543750D03*
D11*
X116174500Y-83312000D03*
X123474500Y-83312000D03*
X123474500Y-87812000D03*
X116174500Y-87812000D03*
D12*
X118224500Y-87812000D03*
X119024500Y-87812000D03*
X119824500Y-87812000D03*
X120624500Y-87812000D03*
X121424500Y-87812000D03*
D13*
X135350750Y-108347750D03*
X136150750Y-108347750D03*
X136950750Y-108347750D03*
X137750750Y-108347750D03*
X138550750Y-108347750D03*
X139350750Y-108347750D03*
X140150750Y-108347750D03*
X140950750Y-108347750D03*
X141750750Y-108347750D03*
X142550750Y-108347750D03*
X143350750Y-108347750D03*
D14*
X145050750Y-106647750D03*
X145050750Y-105847750D03*
X145050750Y-105047750D03*
X145050750Y-104247750D03*
X145050750Y-103447750D03*
X145050750Y-102647750D03*
X145050750Y-101847750D03*
X145050750Y-101047750D03*
X145050750Y-100247750D03*
X145050750Y-99447750D03*
X145050750Y-98647750D03*
D13*
X143350750Y-96947750D03*
X142550750Y-96947750D03*
X141750750Y-96947750D03*
X140950750Y-96947750D03*
X140150750Y-96947750D03*
X139350750Y-96947750D03*
X138550750Y-96947750D03*
X137750750Y-96947750D03*
X136950750Y-96947750D03*
X136150750Y-96947750D03*
X135350750Y-96947750D03*
D14*
X133650750Y-98647750D03*
X133650750Y-99447750D03*
X133650750Y-100247750D03*
X133650750Y-101047750D03*
X133650750Y-101847750D03*
X133650750Y-102647750D03*
X133650750Y-103447750D03*
X133650750Y-104247750D03*
X133650750Y-105047750D03*
X133650750Y-105847750D03*
X133650750Y-106647750D03*
D15*
X121972000Y-116785000D03*
X115772000Y-113085000D03*
X121972000Y-113085000D03*
X115772000Y-116785000D03*
D16*
G36*
X148816142Y-106447674D02*
G01*
X148839803Y-106451184D01*
X148863007Y-106456996D01*
X148885529Y-106465054D01*
X148907153Y-106475282D01*
X148927670Y-106487579D01*
X148946883Y-106501829D01*
X148964607Y-106517893D01*
X148980671Y-106535617D01*
X148994921Y-106554830D01*
X149007218Y-106575347D01*
X149017446Y-106596971D01*
X149025504Y-106619493D01*
X149031316Y-106642697D01*
X149034826Y-106666358D01*
X149036000Y-106690250D01*
X149036000Y-107177750D01*
X149034826Y-107201642D01*
X149031316Y-107225303D01*
X149025504Y-107248507D01*
X149017446Y-107271029D01*
X149007218Y-107292653D01*
X148994921Y-107313170D01*
X148980671Y-107332383D01*
X148964607Y-107350107D01*
X148946883Y-107366171D01*
X148927670Y-107380421D01*
X148907153Y-107392718D01*
X148885529Y-107402946D01*
X148863007Y-107411004D01*
X148839803Y-107416816D01*
X148816142Y-107420326D01*
X148792250Y-107421500D01*
X147879750Y-107421500D01*
X147855858Y-107420326D01*
X147832197Y-107416816D01*
X147808993Y-107411004D01*
X147786471Y-107402946D01*
X147764847Y-107392718D01*
X147744330Y-107380421D01*
X147725117Y-107366171D01*
X147707393Y-107350107D01*
X147691329Y-107332383D01*
X147677079Y-107313170D01*
X147664782Y-107292653D01*
X147654554Y-107271029D01*
X147646496Y-107248507D01*
X147640684Y-107225303D01*
X147637174Y-107201642D01*
X147636000Y-107177750D01*
X147636000Y-106690250D01*
X147637174Y-106666358D01*
X147640684Y-106642697D01*
X147646496Y-106619493D01*
X147654554Y-106596971D01*
X147664782Y-106575347D01*
X147677079Y-106554830D01*
X147691329Y-106535617D01*
X147707393Y-106517893D01*
X147725117Y-106501829D01*
X147744330Y-106487579D01*
X147764847Y-106475282D01*
X147786471Y-106465054D01*
X147808993Y-106456996D01*
X147832197Y-106451184D01*
X147855858Y-106447674D01*
X147879750Y-106446500D01*
X148792250Y-106446500D01*
X148816142Y-106447674D01*
X148816142Y-106447674D01*
G37*
D17*
X148336000Y-106934000D03*
D16*
G36*
X148816142Y-108322674D02*
G01*
X148839803Y-108326184D01*
X148863007Y-108331996D01*
X148885529Y-108340054D01*
X148907153Y-108350282D01*
X148927670Y-108362579D01*
X148946883Y-108376829D01*
X148964607Y-108392893D01*
X148980671Y-108410617D01*
X148994921Y-108429830D01*
X149007218Y-108450347D01*
X149017446Y-108471971D01*
X149025504Y-108494493D01*
X149031316Y-108517697D01*
X149034826Y-108541358D01*
X149036000Y-108565250D01*
X149036000Y-109052750D01*
X149034826Y-109076642D01*
X149031316Y-109100303D01*
X149025504Y-109123507D01*
X149017446Y-109146029D01*
X149007218Y-109167653D01*
X148994921Y-109188170D01*
X148980671Y-109207383D01*
X148964607Y-109225107D01*
X148946883Y-109241171D01*
X148927670Y-109255421D01*
X148907153Y-109267718D01*
X148885529Y-109277946D01*
X148863007Y-109286004D01*
X148839803Y-109291816D01*
X148816142Y-109295326D01*
X148792250Y-109296500D01*
X147879750Y-109296500D01*
X147855858Y-109295326D01*
X147832197Y-109291816D01*
X147808993Y-109286004D01*
X147786471Y-109277946D01*
X147764847Y-109267718D01*
X147744330Y-109255421D01*
X147725117Y-109241171D01*
X147707393Y-109225107D01*
X147691329Y-109207383D01*
X147677079Y-109188170D01*
X147664782Y-109167653D01*
X147654554Y-109146029D01*
X147646496Y-109123507D01*
X147640684Y-109100303D01*
X147637174Y-109076642D01*
X147636000Y-109052750D01*
X147636000Y-108565250D01*
X147637174Y-108541358D01*
X147640684Y-108517697D01*
X147646496Y-108494493D01*
X147654554Y-108471971D01*
X147664782Y-108450347D01*
X147677079Y-108429830D01*
X147691329Y-108410617D01*
X147707393Y-108392893D01*
X147725117Y-108376829D01*
X147744330Y-108362579D01*
X147764847Y-108350282D01*
X147786471Y-108340054D01*
X147808993Y-108331996D01*
X147832197Y-108326184D01*
X147855858Y-108322674D01*
X147879750Y-108321500D01*
X148792250Y-108321500D01*
X148816142Y-108322674D01*
X148816142Y-108322674D01*
G37*
D17*
X148336000Y-108809000D03*
D16*
G36*
X128750142Y-94922424D02*
G01*
X128773803Y-94925934D01*
X128797007Y-94931746D01*
X128819529Y-94939804D01*
X128841153Y-94950032D01*
X128861670Y-94962329D01*
X128880883Y-94976579D01*
X128898607Y-94992643D01*
X128914671Y-95010367D01*
X128928921Y-95029580D01*
X128941218Y-95050097D01*
X128951446Y-95071721D01*
X128959504Y-95094243D01*
X128965316Y-95117447D01*
X128968826Y-95141108D01*
X128970000Y-95165000D01*
X128970000Y-95652500D01*
X128968826Y-95676392D01*
X128965316Y-95700053D01*
X128959504Y-95723257D01*
X128951446Y-95745779D01*
X128941218Y-95767403D01*
X128928921Y-95787920D01*
X128914671Y-95807133D01*
X128898607Y-95824857D01*
X128880883Y-95840921D01*
X128861670Y-95855171D01*
X128841153Y-95867468D01*
X128819529Y-95877696D01*
X128797007Y-95885754D01*
X128773803Y-95891566D01*
X128750142Y-95895076D01*
X128726250Y-95896250D01*
X127813750Y-95896250D01*
X127789858Y-95895076D01*
X127766197Y-95891566D01*
X127742993Y-95885754D01*
X127720471Y-95877696D01*
X127698847Y-95867468D01*
X127678330Y-95855171D01*
X127659117Y-95840921D01*
X127641393Y-95824857D01*
X127625329Y-95807133D01*
X127611079Y-95787920D01*
X127598782Y-95767403D01*
X127588554Y-95745779D01*
X127580496Y-95723257D01*
X127574684Y-95700053D01*
X127571174Y-95676392D01*
X127570000Y-95652500D01*
X127570000Y-95165000D01*
X127571174Y-95141108D01*
X127574684Y-95117447D01*
X127580496Y-95094243D01*
X127588554Y-95071721D01*
X127598782Y-95050097D01*
X127611079Y-95029580D01*
X127625329Y-95010367D01*
X127641393Y-94992643D01*
X127659117Y-94976579D01*
X127678330Y-94962329D01*
X127698847Y-94950032D01*
X127720471Y-94939804D01*
X127742993Y-94931746D01*
X127766197Y-94925934D01*
X127789858Y-94922424D01*
X127813750Y-94921250D01*
X128726250Y-94921250D01*
X128750142Y-94922424D01*
X128750142Y-94922424D01*
G37*
D17*
X128270000Y-95408750D03*
D16*
G36*
X128750142Y-93047424D02*
G01*
X128773803Y-93050934D01*
X128797007Y-93056746D01*
X128819529Y-93064804D01*
X128841153Y-93075032D01*
X128861670Y-93087329D01*
X128880883Y-93101579D01*
X128898607Y-93117643D01*
X128914671Y-93135367D01*
X128928921Y-93154580D01*
X128941218Y-93175097D01*
X128951446Y-93196721D01*
X128959504Y-93219243D01*
X128965316Y-93242447D01*
X128968826Y-93266108D01*
X128970000Y-93290000D01*
X128970000Y-93777500D01*
X128968826Y-93801392D01*
X128965316Y-93825053D01*
X128959504Y-93848257D01*
X128951446Y-93870779D01*
X128941218Y-93892403D01*
X128928921Y-93912920D01*
X128914671Y-93932133D01*
X128898607Y-93949857D01*
X128880883Y-93965921D01*
X128861670Y-93980171D01*
X128841153Y-93992468D01*
X128819529Y-94002696D01*
X128797007Y-94010754D01*
X128773803Y-94016566D01*
X128750142Y-94020076D01*
X128726250Y-94021250D01*
X127813750Y-94021250D01*
X127789858Y-94020076D01*
X127766197Y-94016566D01*
X127742993Y-94010754D01*
X127720471Y-94002696D01*
X127698847Y-93992468D01*
X127678330Y-93980171D01*
X127659117Y-93965921D01*
X127641393Y-93949857D01*
X127625329Y-93932133D01*
X127611079Y-93912920D01*
X127598782Y-93892403D01*
X127588554Y-93870779D01*
X127580496Y-93848257D01*
X127574684Y-93825053D01*
X127571174Y-93801392D01*
X127570000Y-93777500D01*
X127570000Y-93290000D01*
X127571174Y-93266108D01*
X127574684Y-93242447D01*
X127580496Y-93219243D01*
X127588554Y-93196721D01*
X127598782Y-93175097D01*
X127611079Y-93154580D01*
X127625329Y-93135367D01*
X127641393Y-93117643D01*
X127659117Y-93101579D01*
X127678330Y-93087329D01*
X127698847Y-93075032D01*
X127720471Y-93064804D01*
X127742993Y-93056746D01*
X127766197Y-93050934D01*
X127789858Y-93047424D01*
X127813750Y-93046250D01*
X128726250Y-93046250D01*
X128750142Y-93047424D01*
X128750142Y-93047424D01*
G37*
D17*
X128270000Y-93533750D03*
D16*
G36*
X121479392Y-93144424D02*
G01*
X121503053Y-93147934D01*
X121526257Y-93153746D01*
X121548779Y-93161804D01*
X121570403Y-93172032D01*
X121590920Y-93184329D01*
X121610133Y-93198579D01*
X121627857Y-93214643D01*
X121643921Y-93232367D01*
X121658171Y-93251580D01*
X121670468Y-93272097D01*
X121680696Y-93293721D01*
X121688754Y-93316243D01*
X121694566Y-93339447D01*
X121698076Y-93363108D01*
X121699250Y-93387000D01*
X121699250Y-93874500D01*
X121698076Y-93898392D01*
X121694566Y-93922053D01*
X121688754Y-93945257D01*
X121680696Y-93967779D01*
X121670468Y-93989403D01*
X121658171Y-94009920D01*
X121643921Y-94029133D01*
X121627857Y-94046857D01*
X121610133Y-94062921D01*
X121590920Y-94077171D01*
X121570403Y-94089468D01*
X121548779Y-94099696D01*
X121526257Y-94107754D01*
X121503053Y-94113566D01*
X121479392Y-94117076D01*
X121455500Y-94118250D01*
X120543000Y-94118250D01*
X120519108Y-94117076D01*
X120495447Y-94113566D01*
X120472243Y-94107754D01*
X120449721Y-94099696D01*
X120428097Y-94089468D01*
X120407580Y-94077171D01*
X120388367Y-94062921D01*
X120370643Y-94046857D01*
X120354579Y-94029133D01*
X120340329Y-94009920D01*
X120328032Y-93989403D01*
X120317804Y-93967779D01*
X120309746Y-93945257D01*
X120303934Y-93922053D01*
X120300424Y-93898392D01*
X120299250Y-93874500D01*
X120299250Y-93387000D01*
X120300424Y-93363108D01*
X120303934Y-93339447D01*
X120309746Y-93316243D01*
X120317804Y-93293721D01*
X120328032Y-93272097D01*
X120340329Y-93251580D01*
X120354579Y-93232367D01*
X120370643Y-93214643D01*
X120388367Y-93198579D01*
X120407580Y-93184329D01*
X120428097Y-93172032D01*
X120449721Y-93161804D01*
X120472243Y-93153746D01*
X120495447Y-93147934D01*
X120519108Y-93144424D01*
X120543000Y-93143250D01*
X121455500Y-93143250D01*
X121479392Y-93144424D01*
X121479392Y-93144424D01*
G37*
D17*
X120999250Y-93630750D03*
D16*
G36*
X121479392Y-95019424D02*
G01*
X121503053Y-95022934D01*
X121526257Y-95028746D01*
X121548779Y-95036804D01*
X121570403Y-95047032D01*
X121590920Y-95059329D01*
X121610133Y-95073579D01*
X121627857Y-95089643D01*
X121643921Y-95107367D01*
X121658171Y-95126580D01*
X121670468Y-95147097D01*
X121680696Y-95168721D01*
X121688754Y-95191243D01*
X121694566Y-95214447D01*
X121698076Y-95238108D01*
X121699250Y-95262000D01*
X121699250Y-95749500D01*
X121698076Y-95773392D01*
X121694566Y-95797053D01*
X121688754Y-95820257D01*
X121680696Y-95842779D01*
X121670468Y-95864403D01*
X121658171Y-95884920D01*
X121643921Y-95904133D01*
X121627857Y-95921857D01*
X121610133Y-95937921D01*
X121590920Y-95952171D01*
X121570403Y-95964468D01*
X121548779Y-95974696D01*
X121526257Y-95982754D01*
X121503053Y-95988566D01*
X121479392Y-95992076D01*
X121455500Y-95993250D01*
X120543000Y-95993250D01*
X120519108Y-95992076D01*
X120495447Y-95988566D01*
X120472243Y-95982754D01*
X120449721Y-95974696D01*
X120428097Y-95964468D01*
X120407580Y-95952171D01*
X120388367Y-95937921D01*
X120370643Y-95921857D01*
X120354579Y-95904133D01*
X120340329Y-95884920D01*
X120328032Y-95864403D01*
X120317804Y-95842779D01*
X120309746Y-95820257D01*
X120303934Y-95797053D01*
X120300424Y-95773392D01*
X120299250Y-95749500D01*
X120299250Y-95262000D01*
X120300424Y-95238108D01*
X120303934Y-95214447D01*
X120309746Y-95191243D01*
X120317804Y-95168721D01*
X120328032Y-95147097D01*
X120340329Y-95126580D01*
X120354579Y-95107367D01*
X120370643Y-95089643D01*
X120388367Y-95073579D01*
X120407580Y-95059329D01*
X120428097Y-95047032D01*
X120449721Y-95036804D01*
X120472243Y-95028746D01*
X120495447Y-95022934D01*
X120519108Y-95019424D01*
X120543000Y-95018250D01*
X121455500Y-95018250D01*
X121479392Y-95019424D01*
X121479392Y-95019424D01*
G37*
D17*
X120999250Y-95505750D03*
D16*
G36*
X118304392Y-93144424D02*
G01*
X118328053Y-93147934D01*
X118351257Y-93153746D01*
X118373779Y-93161804D01*
X118395403Y-93172032D01*
X118415920Y-93184329D01*
X118435133Y-93198579D01*
X118452857Y-93214643D01*
X118468921Y-93232367D01*
X118483171Y-93251580D01*
X118495468Y-93272097D01*
X118505696Y-93293721D01*
X118513754Y-93316243D01*
X118519566Y-93339447D01*
X118523076Y-93363108D01*
X118524250Y-93387000D01*
X118524250Y-93874500D01*
X118523076Y-93898392D01*
X118519566Y-93922053D01*
X118513754Y-93945257D01*
X118505696Y-93967779D01*
X118495468Y-93989403D01*
X118483171Y-94009920D01*
X118468921Y-94029133D01*
X118452857Y-94046857D01*
X118435133Y-94062921D01*
X118415920Y-94077171D01*
X118395403Y-94089468D01*
X118373779Y-94099696D01*
X118351257Y-94107754D01*
X118328053Y-94113566D01*
X118304392Y-94117076D01*
X118280500Y-94118250D01*
X117368000Y-94118250D01*
X117344108Y-94117076D01*
X117320447Y-94113566D01*
X117297243Y-94107754D01*
X117274721Y-94099696D01*
X117253097Y-94089468D01*
X117232580Y-94077171D01*
X117213367Y-94062921D01*
X117195643Y-94046857D01*
X117179579Y-94029133D01*
X117165329Y-94009920D01*
X117153032Y-93989403D01*
X117142804Y-93967779D01*
X117134746Y-93945257D01*
X117128934Y-93922053D01*
X117125424Y-93898392D01*
X117124250Y-93874500D01*
X117124250Y-93387000D01*
X117125424Y-93363108D01*
X117128934Y-93339447D01*
X117134746Y-93316243D01*
X117142804Y-93293721D01*
X117153032Y-93272097D01*
X117165329Y-93251580D01*
X117179579Y-93232367D01*
X117195643Y-93214643D01*
X117213367Y-93198579D01*
X117232580Y-93184329D01*
X117253097Y-93172032D01*
X117274721Y-93161804D01*
X117297243Y-93153746D01*
X117320447Y-93147934D01*
X117344108Y-93144424D01*
X117368000Y-93143250D01*
X118280500Y-93143250D01*
X118304392Y-93144424D01*
X118304392Y-93144424D01*
G37*
D17*
X117824250Y-93630750D03*
D16*
G36*
X118304392Y-95019424D02*
G01*
X118328053Y-95022934D01*
X118351257Y-95028746D01*
X118373779Y-95036804D01*
X118395403Y-95047032D01*
X118415920Y-95059329D01*
X118435133Y-95073579D01*
X118452857Y-95089643D01*
X118468921Y-95107367D01*
X118483171Y-95126580D01*
X118495468Y-95147097D01*
X118505696Y-95168721D01*
X118513754Y-95191243D01*
X118519566Y-95214447D01*
X118523076Y-95238108D01*
X118524250Y-95262000D01*
X118524250Y-95749500D01*
X118523076Y-95773392D01*
X118519566Y-95797053D01*
X118513754Y-95820257D01*
X118505696Y-95842779D01*
X118495468Y-95864403D01*
X118483171Y-95884920D01*
X118468921Y-95904133D01*
X118452857Y-95921857D01*
X118435133Y-95937921D01*
X118415920Y-95952171D01*
X118395403Y-95964468D01*
X118373779Y-95974696D01*
X118351257Y-95982754D01*
X118328053Y-95988566D01*
X118304392Y-95992076D01*
X118280500Y-95993250D01*
X117368000Y-95993250D01*
X117344108Y-95992076D01*
X117320447Y-95988566D01*
X117297243Y-95982754D01*
X117274721Y-95974696D01*
X117253097Y-95964468D01*
X117232580Y-95952171D01*
X117213367Y-95937921D01*
X117195643Y-95921857D01*
X117179579Y-95904133D01*
X117165329Y-95884920D01*
X117153032Y-95864403D01*
X117142804Y-95842779D01*
X117134746Y-95820257D01*
X117128934Y-95797053D01*
X117125424Y-95773392D01*
X117124250Y-95749500D01*
X117124250Y-95262000D01*
X117125424Y-95238108D01*
X117128934Y-95214447D01*
X117134746Y-95191243D01*
X117142804Y-95168721D01*
X117153032Y-95147097D01*
X117165329Y-95126580D01*
X117179579Y-95107367D01*
X117195643Y-95089643D01*
X117213367Y-95073579D01*
X117232580Y-95059329D01*
X117253097Y-95047032D01*
X117274721Y-95036804D01*
X117297243Y-95028746D01*
X117320447Y-95022934D01*
X117344108Y-95019424D01*
X117368000Y-95018250D01*
X118280500Y-95018250D01*
X118304392Y-95019424D01*
X118304392Y-95019424D01*
G37*
D17*
X117824250Y-95505750D03*
D18*
X176062000Y-106299500D03*
X175407001Y-107029500D03*
D19*
X174752000Y-107759500D02*
X176062002Y-106299500D01*
D18*
X181102000Y-105219500D03*
X181082000Y-105509500D03*
D19*
X181062000Y-105799500D02*
X181102000Y-105219500D01*
D18*
X176093750Y-87281250D03*
X175438751Y-88011250D03*
D19*
X174783750Y-88741250D02*
X176093752Y-87281250D01*
D18*
X181133750Y-86201250D03*
X181113750Y-86491250D03*
D19*
X181093750Y-86781250D02*
X181133750Y-86201250D01*
D18*
X157043750Y-106331250D03*
X156388751Y-107061250D03*
D19*
X155733750Y-107791250D02*
X157043752Y-106331250D01*
D18*
X162083750Y-105251250D03*
X162063750Y-105541250D03*
D19*
X162043750Y-105831250D02*
X162083750Y-105251250D01*
D18*
X157012000Y-87249500D03*
X156357001Y-87979500D03*
D19*
X155702000Y-88709500D02*
X157012002Y-87249500D01*
D18*
X162052000Y-86169500D03*
X162032000Y-86459500D03*
D19*
X162012000Y-86749500D02*
X162052000Y-86169500D01*
D16*
G36*
X115711504Y-98938204D02*
G01*
X115735773Y-98941804D01*
X115759571Y-98947765D01*
X115782671Y-98956030D01*
X115804849Y-98966520D01*
X115825893Y-98979133D01*
X115845598Y-98993747D01*
X115863777Y-99010223D01*
X115880253Y-99028402D01*
X115894867Y-99048107D01*
X115907480Y-99069151D01*
X115917970Y-99091329D01*
X115926235Y-99114429D01*
X115932196Y-99138227D01*
X115935796Y-99162496D01*
X115937000Y-99187000D01*
X115937000Y-99937000D01*
X115935796Y-99961504D01*
X115932196Y-99985773D01*
X115926235Y-100009571D01*
X115917970Y-100032671D01*
X115907480Y-100054849D01*
X115894867Y-100075893D01*
X115880253Y-100095598D01*
X115863777Y-100113777D01*
X115845598Y-100130253D01*
X115825893Y-100144867D01*
X115804849Y-100157480D01*
X115782671Y-100167970D01*
X115759571Y-100176235D01*
X115735773Y-100182196D01*
X115711504Y-100185796D01*
X115687000Y-100187000D01*
X114437000Y-100187000D01*
X114412496Y-100185796D01*
X114388227Y-100182196D01*
X114364429Y-100176235D01*
X114341329Y-100167970D01*
X114319151Y-100157480D01*
X114298107Y-100144867D01*
X114278402Y-100130253D01*
X114260223Y-100113777D01*
X114243747Y-100095598D01*
X114229133Y-100075893D01*
X114216520Y-100054849D01*
X114206030Y-100032671D01*
X114197765Y-100009571D01*
X114191804Y-99985773D01*
X114188204Y-99961504D01*
X114187000Y-99937000D01*
X114187000Y-99187000D01*
X114188204Y-99162496D01*
X114191804Y-99138227D01*
X114197765Y-99114429D01*
X114206030Y-99091329D01*
X114216520Y-99069151D01*
X114229133Y-99048107D01*
X114243747Y-99028402D01*
X114260223Y-99010223D01*
X114278402Y-98993747D01*
X114298107Y-98979133D01*
X114319151Y-98966520D01*
X114341329Y-98956030D01*
X114364429Y-98947765D01*
X114388227Y-98941804D01*
X114412496Y-98938204D01*
X114437000Y-98937000D01*
X115687000Y-98937000D01*
X115711504Y-98938204D01*
X115711504Y-98938204D01*
G37*
D20*
X115062000Y-99562000D03*
D16*
G36*
X115711504Y-101738204D02*
G01*
X115735773Y-101741804D01*
X115759571Y-101747765D01*
X115782671Y-101756030D01*
X115804849Y-101766520D01*
X115825893Y-101779133D01*
X115845598Y-101793747D01*
X115863777Y-101810223D01*
X115880253Y-101828402D01*
X115894867Y-101848107D01*
X115907480Y-101869151D01*
X115917970Y-101891329D01*
X115926235Y-101914429D01*
X115932196Y-101938227D01*
X115935796Y-101962496D01*
X115937000Y-101987000D01*
X115937000Y-102737000D01*
X115935796Y-102761504D01*
X115932196Y-102785773D01*
X115926235Y-102809571D01*
X115917970Y-102832671D01*
X115907480Y-102854849D01*
X115894867Y-102875893D01*
X115880253Y-102895598D01*
X115863777Y-102913777D01*
X115845598Y-102930253D01*
X115825893Y-102944867D01*
X115804849Y-102957480D01*
X115782671Y-102967970D01*
X115759571Y-102976235D01*
X115735773Y-102982196D01*
X115711504Y-102985796D01*
X115687000Y-102987000D01*
X114437000Y-102987000D01*
X114412496Y-102985796D01*
X114388227Y-102982196D01*
X114364429Y-102976235D01*
X114341329Y-102967970D01*
X114319151Y-102957480D01*
X114298107Y-102944867D01*
X114278402Y-102930253D01*
X114260223Y-102913777D01*
X114243747Y-102895598D01*
X114229133Y-102875893D01*
X114216520Y-102854849D01*
X114206030Y-102832671D01*
X114197765Y-102809571D01*
X114191804Y-102785773D01*
X114188204Y-102761504D01*
X114187000Y-102737000D01*
X114187000Y-101987000D01*
X114188204Y-101962496D01*
X114191804Y-101938227D01*
X114197765Y-101914429D01*
X114206030Y-101891329D01*
X114216520Y-101869151D01*
X114229133Y-101848107D01*
X114243747Y-101828402D01*
X114260223Y-101810223D01*
X114278402Y-101793747D01*
X114298107Y-101779133D01*
X114319151Y-101766520D01*
X114341329Y-101756030D01*
X114364429Y-101747765D01*
X114388227Y-101741804D01*
X114412496Y-101738204D01*
X114437000Y-101737000D01*
X115687000Y-101737000D01*
X115711504Y-101738204D01*
X115711504Y-101738204D01*
G37*
D20*
X115062000Y-102362000D03*
D21*
X186499500Y-108649500D03*
X186499500Y-111949500D03*
X186531250Y-89568750D03*
X186531250Y-92868750D03*
X167481250Y-108618750D03*
X167481250Y-111918750D03*
X167449500Y-89599500D03*
X167449500Y-92899500D03*
D16*
G36*
X128918642Y-101282174D02*
G01*
X128942303Y-101285684D01*
X128965507Y-101291496D01*
X128988029Y-101299554D01*
X129009653Y-101309782D01*
X129030170Y-101322079D01*
X129049383Y-101336329D01*
X129067107Y-101352393D01*
X129083171Y-101370117D01*
X129097421Y-101389330D01*
X129109718Y-101409847D01*
X129119946Y-101431471D01*
X129128004Y-101453993D01*
X129133816Y-101477197D01*
X129137326Y-101500858D01*
X129138500Y-101524750D01*
X129138500Y-102437250D01*
X129137326Y-102461142D01*
X129133816Y-102484803D01*
X129128004Y-102508007D01*
X129119946Y-102530529D01*
X129109718Y-102552153D01*
X129097421Y-102572670D01*
X129083171Y-102591883D01*
X129067107Y-102609607D01*
X129049383Y-102625671D01*
X129030170Y-102639921D01*
X129009653Y-102652218D01*
X128988029Y-102662446D01*
X128965507Y-102670504D01*
X128942303Y-102676316D01*
X128918642Y-102679826D01*
X128894750Y-102681000D01*
X128407250Y-102681000D01*
X128383358Y-102679826D01*
X128359697Y-102676316D01*
X128336493Y-102670504D01*
X128313971Y-102662446D01*
X128292347Y-102652218D01*
X128271830Y-102639921D01*
X128252617Y-102625671D01*
X128234893Y-102609607D01*
X128218829Y-102591883D01*
X128204579Y-102572670D01*
X128192282Y-102552153D01*
X128182054Y-102530529D01*
X128173996Y-102508007D01*
X128168184Y-102484803D01*
X128164674Y-102461142D01*
X128163500Y-102437250D01*
X128163500Y-101524750D01*
X128164674Y-101500858D01*
X128168184Y-101477197D01*
X128173996Y-101453993D01*
X128182054Y-101431471D01*
X128192282Y-101409847D01*
X128204579Y-101389330D01*
X128218829Y-101370117D01*
X128234893Y-101352393D01*
X128252617Y-101336329D01*
X128271830Y-101322079D01*
X128292347Y-101309782D01*
X128313971Y-101299554D01*
X128336493Y-101291496D01*
X128359697Y-101285684D01*
X128383358Y-101282174D01*
X128407250Y-101281000D01*
X128894750Y-101281000D01*
X128918642Y-101282174D01*
X128918642Y-101282174D01*
G37*
D17*
X128651000Y-101981000D03*
D16*
G36*
X130793642Y-101282174D02*
G01*
X130817303Y-101285684D01*
X130840507Y-101291496D01*
X130863029Y-101299554D01*
X130884653Y-101309782D01*
X130905170Y-101322079D01*
X130924383Y-101336329D01*
X130942107Y-101352393D01*
X130958171Y-101370117D01*
X130972421Y-101389330D01*
X130984718Y-101409847D01*
X130994946Y-101431471D01*
X131003004Y-101453993D01*
X131008816Y-101477197D01*
X131012326Y-101500858D01*
X131013500Y-101524750D01*
X131013500Y-102437250D01*
X131012326Y-102461142D01*
X131008816Y-102484803D01*
X131003004Y-102508007D01*
X130994946Y-102530529D01*
X130984718Y-102552153D01*
X130972421Y-102572670D01*
X130958171Y-102591883D01*
X130942107Y-102609607D01*
X130924383Y-102625671D01*
X130905170Y-102639921D01*
X130884653Y-102652218D01*
X130863029Y-102662446D01*
X130840507Y-102670504D01*
X130817303Y-102676316D01*
X130793642Y-102679826D01*
X130769750Y-102681000D01*
X130282250Y-102681000D01*
X130258358Y-102679826D01*
X130234697Y-102676316D01*
X130211493Y-102670504D01*
X130188971Y-102662446D01*
X130167347Y-102652218D01*
X130146830Y-102639921D01*
X130127617Y-102625671D01*
X130109893Y-102609607D01*
X130093829Y-102591883D01*
X130079579Y-102572670D01*
X130067282Y-102552153D01*
X130057054Y-102530529D01*
X130048996Y-102508007D01*
X130043184Y-102484803D01*
X130039674Y-102461142D01*
X130038500Y-102437250D01*
X130038500Y-101524750D01*
X130039674Y-101500858D01*
X130043184Y-101477197D01*
X130048996Y-101453993D01*
X130057054Y-101431471D01*
X130067282Y-101409847D01*
X130079579Y-101389330D01*
X130093829Y-101370117D01*
X130109893Y-101352393D01*
X130127617Y-101336329D01*
X130146830Y-101322079D01*
X130167347Y-101309782D01*
X130188971Y-101299554D01*
X130211493Y-101291496D01*
X130234697Y-101285684D01*
X130258358Y-101282174D01*
X130282250Y-101281000D01*
X130769750Y-101281000D01*
X130793642Y-101282174D01*
X130793642Y-101282174D01*
G37*
D17*
X130526000Y-101981000D03*
D16*
G36*
X130655142Y-108703674D02*
G01*
X130678803Y-108707184D01*
X130702007Y-108712996D01*
X130724529Y-108721054D01*
X130746153Y-108731282D01*
X130766670Y-108743579D01*
X130785883Y-108757829D01*
X130803607Y-108773893D01*
X130819671Y-108791617D01*
X130833921Y-108810830D01*
X130846218Y-108831347D01*
X130856446Y-108852971D01*
X130864504Y-108875493D01*
X130870316Y-108898697D01*
X130873826Y-108922358D01*
X130875000Y-108946250D01*
X130875000Y-109433750D01*
X130873826Y-109457642D01*
X130870316Y-109481303D01*
X130864504Y-109504507D01*
X130856446Y-109527029D01*
X130846218Y-109548653D01*
X130833921Y-109569170D01*
X130819671Y-109588383D01*
X130803607Y-109606107D01*
X130785883Y-109622171D01*
X130766670Y-109636421D01*
X130746153Y-109648718D01*
X130724529Y-109658946D01*
X130702007Y-109667004D01*
X130678803Y-109672816D01*
X130655142Y-109676326D01*
X130631250Y-109677500D01*
X129718750Y-109677500D01*
X129694858Y-109676326D01*
X129671197Y-109672816D01*
X129647993Y-109667004D01*
X129625471Y-109658946D01*
X129603847Y-109648718D01*
X129583330Y-109636421D01*
X129564117Y-109622171D01*
X129546393Y-109606107D01*
X129530329Y-109588383D01*
X129516079Y-109569170D01*
X129503782Y-109548653D01*
X129493554Y-109527029D01*
X129485496Y-109504507D01*
X129479684Y-109481303D01*
X129476174Y-109457642D01*
X129475000Y-109433750D01*
X129475000Y-108946250D01*
X129476174Y-108922358D01*
X129479684Y-108898697D01*
X129485496Y-108875493D01*
X129493554Y-108852971D01*
X129503782Y-108831347D01*
X129516079Y-108810830D01*
X129530329Y-108791617D01*
X129546393Y-108773893D01*
X129564117Y-108757829D01*
X129583330Y-108743579D01*
X129603847Y-108731282D01*
X129625471Y-108721054D01*
X129647993Y-108712996D01*
X129671197Y-108707184D01*
X129694858Y-108703674D01*
X129718750Y-108702500D01*
X130631250Y-108702500D01*
X130655142Y-108703674D01*
X130655142Y-108703674D01*
G37*
D17*
X130175000Y-109190000D03*
D16*
G36*
X130655142Y-106828674D02*
G01*
X130678803Y-106832184D01*
X130702007Y-106837996D01*
X130724529Y-106846054D01*
X130746153Y-106856282D01*
X130766670Y-106868579D01*
X130785883Y-106882829D01*
X130803607Y-106898893D01*
X130819671Y-106916617D01*
X130833921Y-106935830D01*
X130846218Y-106956347D01*
X130856446Y-106977971D01*
X130864504Y-107000493D01*
X130870316Y-107023697D01*
X130873826Y-107047358D01*
X130875000Y-107071250D01*
X130875000Y-107558750D01*
X130873826Y-107582642D01*
X130870316Y-107606303D01*
X130864504Y-107629507D01*
X130856446Y-107652029D01*
X130846218Y-107673653D01*
X130833921Y-107694170D01*
X130819671Y-107713383D01*
X130803607Y-107731107D01*
X130785883Y-107747171D01*
X130766670Y-107761421D01*
X130746153Y-107773718D01*
X130724529Y-107783946D01*
X130702007Y-107792004D01*
X130678803Y-107797816D01*
X130655142Y-107801326D01*
X130631250Y-107802500D01*
X129718750Y-107802500D01*
X129694858Y-107801326D01*
X129671197Y-107797816D01*
X129647993Y-107792004D01*
X129625471Y-107783946D01*
X129603847Y-107773718D01*
X129583330Y-107761421D01*
X129564117Y-107747171D01*
X129546393Y-107731107D01*
X129530329Y-107713383D01*
X129516079Y-107694170D01*
X129503782Y-107673653D01*
X129493554Y-107652029D01*
X129485496Y-107629507D01*
X129479684Y-107606303D01*
X129476174Y-107582642D01*
X129475000Y-107558750D01*
X129475000Y-107071250D01*
X129476174Y-107047358D01*
X129479684Y-107023697D01*
X129485496Y-107000493D01*
X129493554Y-106977971D01*
X129503782Y-106956347D01*
X129516079Y-106935830D01*
X129530329Y-106916617D01*
X129546393Y-106898893D01*
X129564117Y-106882829D01*
X129583330Y-106868579D01*
X129603847Y-106856282D01*
X129625471Y-106846054D01*
X129647993Y-106837996D01*
X129671197Y-106832184D01*
X129694858Y-106828674D01*
X129718750Y-106827500D01*
X130631250Y-106827500D01*
X130655142Y-106828674D01*
X130655142Y-106828674D01*
G37*
D17*
X130175000Y-107315000D03*
D16*
G36*
X135385892Y-90193424D02*
G01*
X135409553Y-90196934D01*
X135432757Y-90202746D01*
X135455279Y-90210804D01*
X135476903Y-90221032D01*
X135497420Y-90233329D01*
X135516633Y-90247579D01*
X135534357Y-90263643D01*
X135550421Y-90281367D01*
X135564671Y-90300580D01*
X135576968Y-90321097D01*
X135587196Y-90342721D01*
X135595254Y-90365243D01*
X135601066Y-90388447D01*
X135604576Y-90412108D01*
X135605750Y-90436000D01*
X135605750Y-90923500D01*
X135604576Y-90947392D01*
X135601066Y-90971053D01*
X135595254Y-90994257D01*
X135587196Y-91016779D01*
X135576968Y-91038403D01*
X135564671Y-91058920D01*
X135550421Y-91078133D01*
X135534357Y-91095857D01*
X135516633Y-91111921D01*
X135497420Y-91126171D01*
X135476903Y-91138468D01*
X135455279Y-91148696D01*
X135432757Y-91156754D01*
X135409553Y-91162566D01*
X135385892Y-91166076D01*
X135362000Y-91167250D01*
X134449500Y-91167250D01*
X134425608Y-91166076D01*
X134401947Y-91162566D01*
X134378743Y-91156754D01*
X134356221Y-91148696D01*
X134334597Y-91138468D01*
X134314080Y-91126171D01*
X134294867Y-91111921D01*
X134277143Y-91095857D01*
X134261079Y-91078133D01*
X134246829Y-91058920D01*
X134234532Y-91038403D01*
X134224304Y-91016779D01*
X134216246Y-90994257D01*
X134210434Y-90971053D01*
X134206924Y-90947392D01*
X134205750Y-90923500D01*
X134205750Y-90436000D01*
X134206924Y-90412108D01*
X134210434Y-90388447D01*
X134216246Y-90365243D01*
X134224304Y-90342721D01*
X134234532Y-90321097D01*
X134246829Y-90300580D01*
X134261079Y-90281367D01*
X134277143Y-90263643D01*
X134294867Y-90247579D01*
X134314080Y-90233329D01*
X134334597Y-90221032D01*
X134356221Y-90210804D01*
X134378743Y-90202746D01*
X134401947Y-90196934D01*
X134425608Y-90193424D01*
X134449500Y-90192250D01*
X135362000Y-90192250D01*
X135385892Y-90193424D01*
X135385892Y-90193424D01*
G37*
D17*
X134905750Y-90679750D03*
D16*
G36*
X135385892Y-88318424D02*
G01*
X135409553Y-88321934D01*
X135432757Y-88327746D01*
X135455279Y-88335804D01*
X135476903Y-88346032D01*
X135497420Y-88358329D01*
X135516633Y-88372579D01*
X135534357Y-88388643D01*
X135550421Y-88406367D01*
X135564671Y-88425580D01*
X135576968Y-88446097D01*
X135587196Y-88467721D01*
X135595254Y-88490243D01*
X135601066Y-88513447D01*
X135604576Y-88537108D01*
X135605750Y-88561000D01*
X135605750Y-89048500D01*
X135604576Y-89072392D01*
X135601066Y-89096053D01*
X135595254Y-89119257D01*
X135587196Y-89141779D01*
X135576968Y-89163403D01*
X135564671Y-89183920D01*
X135550421Y-89203133D01*
X135534357Y-89220857D01*
X135516633Y-89236921D01*
X135497420Y-89251171D01*
X135476903Y-89263468D01*
X135455279Y-89273696D01*
X135432757Y-89281754D01*
X135409553Y-89287566D01*
X135385892Y-89291076D01*
X135362000Y-89292250D01*
X134449500Y-89292250D01*
X134425608Y-89291076D01*
X134401947Y-89287566D01*
X134378743Y-89281754D01*
X134356221Y-89273696D01*
X134334597Y-89263468D01*
X134314080Y-89251171D01*
X134294867Y-89236921D01*
X134277143Y-89220857D01*
X134261079Y-89203133D01*
X134246829Y-89183920D01*
X134234532Y-89163403D01*
X134224304Y-89141779D01*
X134216246Y-89119257D01*
X134210434Y-89096053D01*
X134206924Y-89072392D01*
X134205750Y-89048500D01*
X134205750Y-88561000D01*
X134206924Y-88537108D01*
X134210434Y-88513447D01*
X134216246Y-88490243D01*
X134224304Y-88467721D01*
X134234532Y-88446097D01*
X134246829Y-88425580D01*
X134261079Y-88406367D01*
X134277143Y-88388643D01*
X134294867Y-88372579D01*
X134314080Y-88358329D01*
X134334597Y-88346032D01*
X134356221Y-88335804D01*
X134378743Y-88327746D01*
X134401947Y-88321934D01*
X134425608Y-88318424D01*
X134449500Y-88317250D01*
X135362000Y-88317250D01*
X135385892Y-88318424D01*
X135385892Y-88318424D01*
G37*
D17*
X134905750Y-88804750D03*
D16*
G36*
X144148892Y-88221424D02*
G01*
X144172553Y-88224934D01*
X144195757Y-88230746D01*
X144218279Y-88238804D01*
X144239903Y-88249032D01*
X144260420Y-88261329D01*
X144279633Y-88275579D01*
X144297357Y-88291643D01*
X144313421Y-88309367D01*
X144327671Y-88328580D01*
X144339968Y-88349097D01*
X144350196Y-88370721D01*
X144358254Y-88393243D01*
X144364066Y-88416447D01*
X144367576Y-88440108D01*
X144368750Y-88464000D01*
X144368750Y-88951500D01*
X144367576Y-88975392D01*
X144364066Y-88999053D01*
X144358254Y-89022257D01*
X144350196Y-89044779D01*
X144339968Y-89066403D01*
X144327671Y-89086920D01*
X144313421Y-89106133D01*
X144297357Y-89123857D01*
X144279633Y-89139921D01*
X144260420Y-89154171D01*
X144239903Y-89166468D01*
X144218279Y-89176696D01*
X144195757Y-89184754D01*
X144172553Y-89190566D01*
X144148892Y-89194076D01*
X144125000Y-89195250D01*
X143212500Y-89195250D01*
X143188608Y-89194076D01*
X143164947Y-89190566D01*
X143141743Y-89184754D01*
X143119221Y-89176696D01*
X143097597Y-89166468D01*
X143077080Y-89154171D01*
X143057867Y-89139921D01*
X143040143Y-89123857D01*
X143024079Y-89106133D01*
X143009829Y-89086920D01*
X142997532Y-89066403D01*
X142987304Y-89044779D01*
X142979246Y-89022257D01*
X142973434Y-88999053D01*
X142969924Y-88975392D01*
X142968750Y-88951500D01*
X142968750Y-88464000D01*
X142969924Y-88440108D01*
X142973434Y-88416447D01*
X142979246Y-88393243D01*
X142987304Y-88370721D01*
X142997532Y-88349097D01*
X143009829Y-88328580D01*
X143024079Y-88309367D01*
X143040143Y-88291643D01*
X143057867Y-88275579D01*
X143077080Y-88261329D01*
X143097597Y-88249032D01*
X143119221Y-88238804D01*
X143141743Y-88230746D01*
X143164947Y-88224934D01*
X143188608Y-88221424D01*
X143212500Y-88220250D01*
X144125000Y-88220250D01*
X144148892Y-88221424D01*
X144148892Y-88221424D01*
G37*
D17*
X143668750Y-88707750D03*
D16*
G36*
X144148892Y-90096424D02*
G01*
X144172553Y-90099934D01*
X144195757Y-90105746D01*
X144218279Y-90113804D01*
X144239903Y-90124032D01*
X144260420Y-90136329D01*
X144279633Y-90150579D01*
X144297357Y-90166643D01*
X144313421Y-90184367D01*
X144327671Y-90203580D01*
X144339968Y-90224097D01*
X144350196Y-90245721D01*
X144358254Y-90268243D01*
X144364066Y-90291447D01*
X144367576Y-90315108D01*
X144368750Y-90339000D01*
X144368750Y-90826500D01*
X144367576Y-90850392D01*
X144364066Y-90874053D01*
X144358254Y-90897257D01*
X144350196Y-90919779D01*
X144339968Y-90941403D01*
X144327671Y-90961920D01*
X144313421Y-90981133D01*
X144297357Y-90998857D01*
X144279633Y-91014921D01*
X144260420Y-91029171D01*
X144239903Y-91041468D01*
X144218279Y-91051696D01*
X144195757Y-91059754D01*
X144172553Y-91065566D01*
X144148892Y-91069076D01*
X144125000Y-91070250D01*
X143212500Y-91070250D01*
X143188608Y-91069076D01*
X143164947Y-91065566D01*
X143141743Y-91059754D01*
X143119221Y-91051696D01*
X143097597Y-91041468D01*
X143077080Y-91029171D01*
X143057867Y-91014921D01*
X143040143Y-90998857D01*
X143024079Y-90981133D01*
X143009829Y-90961920D01*
X142997532Y-90941403D01*
X142987304Y-90919779D01*
X142979246Y-90897257D01*
X142973434Y-90874053D01*
X142969924Y-90850392D01*
X142968750Y-90826500D01*
X142968750Y-90339000D01*
X142969924Y-90315108D01*
X142973434Y-90291447D01*
X142979246Y-90268243D01*
X142987304Y-90245721D01*
X142997532Y-90224097D01*
X143009829Y-90203580D01*
X143024079Y-90184367D01*
X143040143Y-90166643D01*
X143057867Y-90150579D01*
X143077080Y-90136329D01*
X143097597Y-90124032D01*
X143119221Y-90113804D01*
X143141743Y-90105746D01*
X143164947Y-90099934D01*
X143188608Y-90096424D01*
X143212500Y-90095250D01*
X144125000Y-90095250D01*
X144148892Y-90096424D01*
X144148892Y-90096424D01*
G37*
D17*
X143668750Y-90582750D03*
D16*
G36*
X132052142Y-93047424D02*
G01*
X132075803Y-93050934D01*
X132099007Y-93056746D01*
X132121529Y-93064804D01*
X132143153Y-93075032D01*
X132163670Y-93087329D01*
X132182883Y-93101579D01*
X132200607Y-93117643D01*
X132216671Y-93135367D01*
X132230921Y-93154580D01*
X132243218Y-93175097D01*
X132253446Y-93196721D01*
X132261504Y-93219243D01*
X132267316Y-93242447D01*
X132270826Y-93266108D01*
X132272000Y-93290000D01*
X132272000Y-93777500D01*
X132270826Y-93801392D01*
X132267316Y-93825053D01*
X132261504Y-93848257D01*
X132253446Y-93870779D01*
X132243218Y-93892403D01*
X132230921Y-93912920D01*
X132216671Y-93932133D01*
X132200607Y-93949857D01*
X132182883Y-93965921D01*
X132163670Y-93980171D01*
X132143153Y-93992468D01*
X132121529Y-94002696D01*
X132099007Y-94010754D01*
X132075803Y-94016566D01*
X132052142Y-94020076D01*
X132028250Y-94021250D01*
X131115750Y-94021250D01*
X131091858Y-94020076D01*
X131068197Y-94016566D01*
X131044993Y-94010754D01*
X131022471Y-94002696D01*
X131000847Y-93992468D01*
X130980330Y-93980171D01*
X130961117Y-93965921D01*
X130943393Y-93949857D01*
X130927329Y-93932133D01*
X130913079Y-93912920D01*
X130900782Y-93892403D01*
X130890554Y-93870779D01*
X130882496Y-93848257D01*
X130876684Y-93825053D01*
X130873174Y-93801392D01*
X130872000Y-93777500D01*
X130872000Y-93290000D01*
X130873174Y-93266108D01*
X130876684Y-93242447D01*
X130882496Y-93219243D01*
X130890554Y-93196721D01*
X130900782Y-93175097D01*
X130913079Y-93154580D01*
X130927329Y-93135367D01*
X130943393Y-93117643D01*
X130961117Y-93101579D01*
X130980330Y-93087329D01*
X131000847Y-93075032D01*
X131022471Y-93064804D01*
X131044993Y-93056746D01*
X131068197Y-93050934D01*
X131091858Y-93047424D01*
X131115750Y-93046250D01*
X132028250Y-93046250D01*
X132052142Y-93047424D01*
X132052142Y-93047424D01*
G37*
D17*
X131572000Y-93533750D03*
D16*
G36*
X132052142Y-94922424D02*
G01*
X132075803Y-94925934D01*
X132099007Y-94931746D01*
X132121529Y-94939804D01*
X132143153Y-94950032D01*
X132163670Y-94962329D01*
X132182883Y-94976579D01*
X132200607Y-94992643D01*
X132216671Y-95010367D01*
X132230921Y-95029580D01*
X132243218Y-95050097D01*
X132253446Y-95071721D01*
X132261504Y-95094243D01*
X132267316Y-95117447D01*
X132270826Y-95141108D01*
X132272000Y-95165000D01*
X132272000Y-95652500D01*
X132270826Y-95676392D01*
X132267316Y-95700053D01*
X132261504Y-95723257D01*
X132253446Y-95745779D01*
X132243218Y-95767403D01*
X132230921Y-95787920D01*
X132216671Y-95807133D01*
X132200607Y-95824857D01*
X132182883Y-95840921D01*
X132163670Y-95855171D01*
X132143153Y-95867468D01*
X132121529Y-95877696D01*
X132099007Y-95885754D01*
X132075803Y-95891566D01*
X132052142Y-95895076D01*
X132028250Y-95896250D01*
X131115750Y-95896250D01*
X131091858Y-95895076D01*
X131068197Y-95891566D01*
X131044993Y-95885754D01*
X131022471Y-95877696D01*
X131000847Y-95867468D01*
X130980330Y-95855171D01*
X130961117Y-95840921D01*
X130943393Y-95824857D01*
X130927329Y-95807133D01*
X130913079Y-95787920D01*
X130900782Y-95767403D01*
X130890554Y-95745779D01*
X130882496Y-95723257D01*
X130876684Y-95700053D01*
X130873174Y-95676392D01*
X130872000Y-95652500D01*
X130872000Y-95165000D01*
X130873174Y-95141108D01*
X130876684Y-95117447D01*
X130882496Y-95094243D01*
X130890554Y-95071721D01*
X130900782Y-95050097D01*
X130913079Y-95029580D01*
X130927329Y-95010367D01*
X130943393Y-94992643D01*
X130961117Y-94976579D01*
X130980330Y-94962329D01*
X131000847Y-94950032D01*
X131022471Y-94939804D01*
X131044993Y-94931746D01*
X131068197Y-94925934D01*
X131091858Y-94922424D01*
X131115750Y-94921250D01*
X132028250Y-94921250D01*
X132052142Y-94922424D01*
X132052142Y-94922424D01*
G37*
D17*
X131572000Y-95408750D03*
D16*
G36*
X143331392Y-110965924D02*
G01*
X143355053Y-110969434D01*
X143378257Y-110975246D01*
X143400779Y-110983304D01*
X143422403Y-110993532D01*
X143442920Y-111005829D01*
X143462133Y-111020079D01*
X143479857Y-111036143D01*
X143495921Y-111053867D01*
X143510171Y-111073080D01*
X143522468Y-111093597D01*
X143532696Y-111115221D01*
X143540754Y-111137743D01*
X143546566Y-111160947D01*
X143550076Y-111184608D01*
X143551250Y-111208500D01*
X143551250Y-112121000D01*
X143550076Y-112144892D01*
X143546566Y-112168553D01*
X143540754Y-112191757D01*
X143532696Y-112214279D01*
X143522468Y-112235903D01*
X143510171Y-112256420D01*
X143495921Y-112275633D01*
X143479857Y-112293357D01*
X143462133Y-112309421D01*
X143442920Y-112323671D01*
X143422403Y-112335968D01*
X143400779Y-112346196D01*
X143378257Y-112354254D01*
X143355053Y-112360066D01*
X143331392Y-112363576D01*
X143307500Y-112364750D01*
X142820000Y-112364750D01*
X142796108Y-112363576D01*
X142772447Y-112360066D01*
X142749243Y-112354254D01*
X142726721Y-112346196D01*
X142705097Y-112335968D01*
X142684580Y-112323671D01*
X142665367Y-112309421D01*
X142647643Y-112293357D01*
X142631579Y-112275633D01*
X142617329Y-112256420D01*
X142605032Y-112235903D01*
X142594804Y-112214279D01*
X142586746Y-112191757D01*
X142580934Y-112168553D01*
X142577424Y-112144892D01*
X142576250Y-112121000D01*
X142576250Y-111208500D01*
X142577424Y-111184608D01*
X142580934Y-111160947D01*
X142586746Y-111137743D01*
X142594804Y-111115221D01*
X142605032Y-111093597D01*
X142617329Y-111073080D01*
X142631579Y-111053867D01*
X142647643Y-111036143D01*
X142665367Y-111020079D01*
X142684580Y-111005829D01*
X142705097Y-110993532D01*
X142726721Y-110983304D01*
X142749243Y-110975246D01*
X142772447Y-110969434D01*
X142796108Y-110965924D01*
X142820000Y-110964750D01*
X143307500Y-110964750D01*
X143331392Y-110965924D01*
X143331392Y-110965924D01*
G37*
D17*
X143063750Y-111664750D03*
D16*
G36*
X145206392Y-110965924D02*
G01*
X145230053Y-110969434D01*
X145253257Y-110975246D01*
X145275779Y-110983304D01*
X145297403Y-110993532D01*
X145317920Y-111005829D01*
X145337133Y-111020079D01*
X145354857Y-111036143D01*
X145370921Y-111053867D01*
X145385171Y-111073080D01*
X145397468Y-111093597D01*
X145407696Y-111115221D01*
X145415754Y-111137743D01*
X145421566Y-111160947D01*
X145425076Y-111184608D01*
X145426250Y-111208500D01*
X145426250Y-112121000D01*
X145425076Y-112144892D01*
X145421566Y-112168553D01*
X145415754Y-112191757D01*
X145407696Y-112214279D01*
X145397468Y-112235903D01*
X145385171Y-112256420D01*
X145370921Y-112275633D01*
X145354857Y-112293357D01*
X145337133Y-112309421D01*
X145317920Y-112323671D01*
X145297403Y-112335968D01*
X145275779Y-112346196D01*
X145253257Y-112354254D01*
X145230053Y-112360066D01*
X145206392Y-112363576D01*
X145182500Y-112364750D01*
X144695000Y-112364750D01*
X144671108Y-112363576D01*
X144647447Y-112360066D01*
X144624243Y-112354254D01*
X144601721Y-112346196D01*
X144580097Y-112335968D01*
X144559580Y-112323671D01*
X144540367Y-112309421D01*
X144522643Y-112293357D01*
X144506579Y-112275633D01*
X144492329Y-112256420D01*
X144480032Y-112235903D01*
X144469804Y-112214279D01*
X144461746Y-112191757D01*
X144455934Y-112168553D01*
X144452424Y-112144892D01*
X144451250Y-112121000D01*
X144451250Y-111208500D01*
X144452424Y-111184608D01*
X144455934Y-111160947D01*
X144461746Y-111137743D01*
X144469804Y-111115221D01*
X144480032Y-111093597D01*
X144492329Y-111073080D01*
X144506579Y-111053867D01*
X144522643Y-111036143D01*
X144540367Y-111020079D01*
X144559580Y-111005829D01*
X144580097Y-110993532D01*
X144601721Y-110983304D01*
X144624243Y-110975246D01*
X144647447Y-110969434D01*
X144671108Y-110965924D01*
X144695000Y-110964750D01*
X145182500Y-110964750D01*
X145206392Y-110965924D01*
X145206392Y-110965924D01*
G37*
D17*
X144938750Y-111664750D03*
D16*
G36*
X148847892Y-96476424D02*
G01*
X148871553Y-96479934D01*
X148894757Y-96485746D01*
X148917279Y-96493804D01*
X148938903Y-96504032D01*
X148959420Y-96516329D01*
X148978633Y-96530579D01*
X148996357Y-96546643D01*
X149012421Y-96564367D01*
X149026671Y-96583580D01*
X149038968Y-96604097D01*
X149049196Y-96625721D01*
X149057254Y-96648243D01*
X149063066Y-96671447D01*
X149066576Y-96695108D01*
X149067750Y-96719000D01*
X149067750Y-97206500D01*
X149066576Y-97230392D01*
X149063066Y-97254053D01*
X149057254Y-97277257D01*
X149049196Y-97299779D01*
X149038968Y-97321403D01*
X149026671Y-97341920D01*
X149012421Y-97361133D01*
X148996357Y-97378857D01*
X148978633Y-97394921D01*
X148959420Y-97409171D01*
X148938903Y-97421468D01*
X148917279Y-97431696D01*
X148894757Y-97439754D01*
X148871553Y-97445566D01*
X148847892Y-97449076D01*
X148824000Y-97450250D01*
X147911500Y-97450250D01*
X147887608Y-97449076D01*
X147863947Y-97445566D01*
X147840743Y-97439754D01*
X147818221Y-97431696D01*
X147796597Y-97421468D01*
X147776080Y-97409171D01*
X147756867Y-97394921D01*
X147739143Y-97378857D01*
X147723079Y-97361133D01*
X147708829Y-97341920D01*
X147696532Y-97321403D01*
X147686304Y-97299779D01*
X147678246Y-97277257D01*
X147672434Y-97254053D01*
X147668924Y-97230392D01*
X147667750Y-97206500D01*
X147667750Y-96719000D01*
X147668924Y-96695108D01*
X147672434Y-96671447D01*
X147678246Y-96648243D01*
X147686304Y-96625721D01*
X147696532Y-96604097D01*
X147708829Y-96583580D01*
X147723079Y-96564367D01*
X147739143Y-96546643D01*
X147756867Y-96530579D01*
X147776080Y-96516329D01*
X147796597Y-96504032D01*
X147818221Y-96493804D01*
X147840743Y-96485746D01*
X147863947Y-96479934D01*
X147887608Y-96476424D01*
X147911500Y-96475250D01*
X148824000Y-96475250D01*
X148847892Y-96476424D01*
X148847892Y-96476424D01*
G37*
D17*
X148367750Y-96962750D03*
D16*
G36*
X148847892Y-98351424D02*
G01*
X148871553Y-98354934D01*
X148894757Y-98360746D01*
X148917279Y-98368804D01*
X148938903Y-98379032D01*
X148959420Y-98391329D01*
X148978633Y-98405579D01*
X148996357Y-98421643D01*
X149012421Y-98439367D01*
X149026671Y-98458580D01*
X149038968Y-98479097D01*
X149049196Y-98500721D01*
X149057254Y-98523243D01*
X149063066Y-98546447D01*
X149066576Y-98570108D01*
X149067750Y-98594000D01*
X149067750Y-99081500D01*
X149066576Y-99105392D01*
X149063066Y-99129053D01*
X149057254Y-99152257D01*
X149049196Y-99174779D01*
X149038968Y-99196403D01*
X149026671Y-99216920D01*
X149012421Y-99236133D01*
X148996357Y-99253857D01*
X148978633Y-99269921D01*
X148959420Y-99284171D01*
X148938903Y-99296468D01*
X148917279Y-99306696D01*
X148894757Y-99314754D01*
X148871553Y-99320566D01*
X148847892Y-99324076D01*
X148824000Y-99325250D01*
X147911500Y-99325250D01*
X147887608Y-99324076D01*
X147863947Y-99320566D01*
X147840743Y-99314754D01*
X147818221Y-99306696D01*
X147796597Y-99296468D01*
X147776080Y-99284171D01*
X147756867Y-99269921D01*
X147739143Y-99253857D01*
X147723079Y-99236133D01*
X147708829Y-99216920D01*
X147696532Y-99196403D01*
X147686304Y-99174779D01*
X147678246Y-99152257D01*
X147672434Y-99129053D01*
X147668924Y-99105392D01*
X147667750Y-99081500D01*
X147667750Y-98594000D01*
X147668924Y-98570108D01*
X147672434Y-98546447D01*
X147678246Y-98523243D01*
X147686304Y-98500721D01*
X147696532Y-98479097D01*
X147708829Y-98458580D01*
X147723079Y-98439367D01*
X147739143Y-98421643D01*
X147756867Y-98405579D01*
X147776080Y-98391329D01*
X147796597Y-98379032D01*
X147818221Y-98368804D01*
X147840743Y-98360746D01*
X147863947Y-98354934D01*
X147887608Y-98351424D01*
X147911500Y-98350250D01*
X148824000Y-98350250D01*
X148847892Y-98351424D01*
X148847892Y-98351424D01*
G37*
D17*
X148367750Y-98837750D03*
D22*
X131953000Y-101346000D03*
X130048000Y-94107000D03*
X132023250Y-105847750D03*
X146431000Y-111760000D03*
X149987000Y-98933000D03*
X126619000Y-95504000D03*
X124460000Y-113157000D03*
D23*
X121424500Y-88687000D02*
X121424500Y-87812000D01*
X123190000Y-90452500D02*
X121424500Y-88687000D01*
X123190000Y-102120500D02*
X123190000Y-90452500D01*
X124517250Y-103447750D02*
X123190000Y-102120500D01*
X128651000Y-103390500D02*
X128708250Y-103447750D01*
X128651000Y-101981000D02*
X128651000Y-103390500D01*
X133650750Y-103447750D02*
X128708250Y-103447750D01*
X128708250Y-103447750D02*
X124517250Y-103447750D01*
X130975000Y-109190000D02*
X131072000Y-109093000D01*
X130175000Y-109190000D02*
X130975000Y-109190000D01*
X131072000Y-109093000D02*
X131445000Y-109093000D01*
X131445000Y-109093000D02*
X133477000Y-111125000D01*
X133477000Y-111125000D02*
X135382000Y-111125000D01*
X136150750Y-110356250D02*
X136150750Y-108347750D01*
X135382000Y-111125000D02*
X136150750Y-110356250D01*
X115727000Y-109190000D02*
X130175000Y-109190000D01*
X113284000Y-111633000D02*
X115727000Y-109190000D01*
X113284000Y-115578000D02*
X113284000Y-111633000D01*
X115772000Y-116785000D02*
X114491000Y-116785000D01*
X114491000Y-116785000D02*
X113284000Y-115578000D01*
X137750750Y-95816750D02*
X137750750Y-96947750D01*
X137750750Y-95795078D02*
X137750750Y-95816750D01*
X135489422Y-93533750D02*
X137750750Y-95795078D01*
X131730750Y-93533750D02*
X135489422Y-93533750D01*
X142550750Y-111151750D02*
X143063750Y-111664750D01*
X142550750Y-108347750D02*
X142550750Y-111151750D01*
X136150750Y-107216750D02*
X136150750Y-108347750D01*
X136150750Y-105019848D02*
X136150750Y-107216750D01*
X134578652Y-103447750D02*
X136150750Y-105019848D01*
X133650750Y-103447750D02*
X134578652Y-103447750D01*
X140353848Y-105019848D02*
X136150750Y-105019848D01*
X142550750Y-107216750D02*
X140353848Y-105019848D01*
X142550750Y-108347750D02*
X142550750Y-107216750D01*
X137750750Y-98078750D02*
X139494000Y-99822000D01*
X137750750Y-96947750D02*
X137750750Y-98078750D01*
X139494000Y-99822000D02*
X140335000Y-99822000D01*
X140335000Y-105001000D02*
X140353848Y-105019848D01*
X140335000Y-99822000D02*
X140335000Y-105001000D01*
X141509250Y-98647750D02*
X145050750Y-98647750D01*
X140335000Y-99822000D02*
X141509250Y-98647750D01*
X143063750Y-112464750D02*
X145153000Y-114554000D01*
X143063750Y-111664750D02*
X143063750Y-112464750D01*
X145153000Y-114554000D02*
X146939000Y-114554000D01*
X148336000Y-113157000D02*
X148336000Y-108809000D01*
X146939000Y-114554000D02*
X148336000Y-113157000D01*
X146682750Y-98647750D02*
X145050750Y-98647750D01*
X148367750Y-96962750D02*
X146682750Y-98647750D01*
X137750750Y-94112250D02*
X137750750Y-95795078D01*
X134905750Y-91267250D02*
X137750750Y-94112250D01*
X134905750Y-90679750D02*
X134905750Y-91267250D01*
X140450750Y-87364750D02*
X140450750Y-88843750D01*
X134105750Y-90679750D02*
X133223000Y-89797000D01*
X133223000Y-89797000D02*
X133223000Y-87884000D01*
X134905750Y-90679750D02*
X134105750Y-90679750D01*
X133223000Y-87884000D02*
X133985000Y-87122000D01*
X133985000Y-87122000D02*
X140208000Y-87122000D01*
X140208000Y-87122000D02*
X140450750Y-87364750D01*
X140147848Y-88843750D02*
X140450750Y-88843750D01*
X138250750Y-90543750D02*
X138447848Y-90543750D01*
X140586750Y-88707750D02*
X140450750Y-88843750D01*
X143668750Y-88707750D02*
X140586750Y-88707750D01*
D24*
X138350750Y-90543750D02*
X138250750Y-90543750D01*
X140050750Y-88843750D02*
X138350750Y-90543750D01*
X140450750Y-88843750D02*
X140050750Y-88843750D01*
D23*
X120015000Y-107315000D02*
X130175000Y-107315000D01*
X115062000Y-102362000D02*
X120015000Y-107315000D01*
X130175000Y-107315000D02*
X131642250Y-105847750D01*
X130303750Y-95408750D02*
X131730750Y-95408750D01*
X133650750Y-101847750D02*
X132454750Y-101847750D01*
X132454750Y-101847750D02*
X131953000Y-101346000D01*
X130048000Y-94107000D02*
X129525000Y-94630000D01*
X128428750Y-93533750D02*
X129525000Y-94630000D01*
X129525000Y-94630000D02*
X130303750Y-95408750D01*
X136950750Y-95816750D02*
X136950750Y-96947750D01*
X136374490Y-95240490D02*
X136950750Y-95816750D01*
X133389641Y-95240490D02*
X136374490Y-95240490D01*
X133221381Y-95408750D02*
X133389641Y-95240490D01*
X131730750Y-95408750D02*
X133221381Y-95408750D01*
X131642250Y-105847750D02*
X132023250Y-105847750D01*
X132023250Y-105847750D02*
X133650750Y-105847750D01*
X132023250Y-105847750D02*
X132023250Y-108849578D01*
X132023250Y-108849578D02*
X133717662Y-110543990D01*
X133717662Y-110543990D02*
X135141338Y-110543990D01*
X135350750Y-110334578D02*
X135350750Y-108347750D01*
X135141338Y-110543990D02*
X135350750Y-110334578D01*
X145034000Y-111760000D02*
X144938750Y-111664750D01*
X146431000Y-111760000D02*
X145034000Y-111760000D01*
X143350750Y-110076750D02*
X144938750Y-111664750D01*
X143350750Y-108347750D02*
X143350750Y-110076750D01*
X148463000Y-98933000D02*
X148367750Y-98837750D01*
X149987000Y-98933000D02*
X148463000Y-98933000D01*
X147757750Y-99447750D02*
X145050750Y-99447750D01*
X148367750Y-98837750D02*
X147757750Y-99447750D01*
D25*
X139350750Y-95943750D02*
X139350750Y-96947750D01*
X139350750Y-92497750D02*
X139350750Y-95943750D01*
X140450750Y-91397750D02*
X139350750Y-92497750D01*
X140450750Y-90543750D02*
X140450750Y-91397750D01*
X140489750Y-90582750D02*
X140450750Y-90543750D01*
X143668750Y-90582750D02*
X140489750Y-90582750D01*
X134944750Y-88843750D02*
X134905750Y-88804750D01*
X138250750Y-88843750D02*
X134944750Y-88843750D01*
X137296750Y-88843750D02*
X136652000Y-89488500D01*
X138250750Y-88843750D02*
X137296750Y-88843750D01*
X138550750Y-95943750D02*
X138550750Y-96947750D01*
X138550750Y-94180382D02*
X138550750Y-95943750D01*
X136652000Y-92281632D02*
X138550750Y-94180382D01*
X136652000Y-89488500D02*
X136652000Y-92281632D01*
X131192750Y-102647750D02*
X130526000Y-101981000D01*
X133650750Y-102647750D02*
X131192750Y-102647750D01*
X167449500Y-88895500D02*
X167449500Y-89599500D01*
X165303500Y-86749500D02*
X167449500Y-88895500D01*
X162012000Y-86749500D02*
X165303500Y-86749500D01*
X167599500Y-92899500D02*
X169156250Y-94456250D01*
X167449500Y-92899500D02*
X167599500Y-92899500D01*
X185677250Y-92868750D02*
X186531250Y-92868750D01*
X184089750Y-94456250D02*
X185677250Y-92868750D01*
X169156250Y-94456250D02*
X184089750Y-94456250D01*
X146054750Y-101847750D02*
X145050750Y-101847750D01*
X157647250Y-101847750D02*
X146054750Y-101847750D01*
X166595500Y-92899500D02*
X157647250Y-101847750D01*
X167449500Y-92899500D02*
X166595500Y-92899500D01*
X167481250Y-107914750D02*
X167481250Y-108618750D01*
X165397750Y-105831250D02*
X167481250Y-107914750D01*
X162043750Y-105831250D02*
X165397750Y-105831250D01*
X167631250Y-111918750D02*
X169218750Y-113506250D01*
X167481250Y-111918750D02*
X167631250Y-111918750D01*
X185645500Y-111949500D02*
X186499500Y-111949500D01*
X184088750Y-113506250D02*
X185645500Y-111949500D01*
X169218750Y-113506250D02*
X184088750Y-113506250D01*
X149840750Y-104247750D02*
X145050750Y-104247750D01*
X166627250Y-111918750D02*
X165516000Y-113030000D01*
X167481250Y-111918750D02*
X166627250Y-111918750D01*
X153670000Y-113030000D02*
X151638000Y-110998000D01*
X151638000Y-110998000D02*
X151638000Y-106045000D01*
X165516000Y-113030000D02*
X153670000Y-113030000D01*
X151638000Y-106045000D02*
X149840750Y-104247750D01*
X181673750Y-86201250D02*
X181093750Y-86781250D01*
X183867750Y-86201250D02*
X181673750Y-86201250D01*
X186531250Y-88864750D02*
X183867750Y-86201250D01*
X186531250Y-89568750D02*
X186531250Y-88864750D01*
X181062000Y-105799500D02*
X184539500Y-105799500D01*
X186499500Y-107759500D02*
X186499500Y-108649500D01*
X184539500Y-105799500D02*
X186499500Y-107759500D01*
D23*
X115062000Y-98837000D02*
X115062000Y-99562000D01*
X115062000Y-92480500D02*
X115062000Y-98837000D01*
X118224500Y-89318000D02*
X115062000Y-92480500D01*
X118224500Y-87812000D02*
X118224500Y-89318000D01*
D25*
X146054750Y-103447750D02*
X145050750Y-103447750D01*
X152469750Y-103447750D02*
X146054750Y-103447750D01*
X155733750Y-106711750D02*
X152469750Y-103447750D01*
X155733750Y-107791250D02*
X155733750Y-106711750D01*
X144852751Y-102845749D02*
X145050750Y-102647750D01*
X174752000Y-107759500D02*
X169838249Y-102845749D01*
X169838249Y-102845749D02*
X144852751Y-102845749D01*
X119024500Y-92430500D02*
X117824250Y-93630750D01*
X119024500Y-87812000D02*
X119024500Y-92430500D01*
X117824250Y-96093250D02*
X119380000Y-97649000D01*
X117824250Y-95505750D02*
X117824250Y-96093250D01*
X132646750Y-105047750D02*
X133650750Y-105047750D01*
X123836684Y-105047750D02*
X132646750Y-105047750D01*
X119380000Y-100591066D02*
X123836684Y-105047750D01*
X119380000Y-97649000D02*
X119380000Y-100591066D01*
X119824500Y-92456000D02*
X120999250Y-93630750D01*
X119824500Y-87812000D02*
X119824500Y-92456000D01*
X120999250Y-95505750D02*
X120999250Y-96170750D01*
X120999250Y-96170750D02*
X120269000Y-96901000D01*
X120269000Y-96901000D02*
X120269000Y-100838000D01*
X123678750Y-104247750D02*
X133650750Y-104247750D01*
X120269000Y-100838000D02*
X123678750Y-104247750D01*
X128428750Y-95408750D02*
X126714250Y-95408750D01*
X126714250Y-95408750D02*
X126619000Y-95504000D01*
X122044000Y-113157000D02*
X121972000Y-113085000D01*
X124460000Y-113157000D02*
X122044000Y-113157000D01*
X128428750Y-95408750D02*
X128428750Y-95996250D01*
X136150750Y-95943750D02*
X136150750Y-96947750D01*
X128428750Y-95996250D02*
X129079500Y-96647000D01*
X129079500Y-96647000D02*
X132715000Y-96647000D01*
X132715000Y-96647000D02*
X133604000Y-95758000D01*
X133604000Y-95758000D02*
X135965000Y-95758000D01*
X135965000Y-95758000D02*
X136150750Y-95943750D01*
X146652750Y-106647750D02*
X145050750Y-106647750D01*
X148336000Y-106934000D02*
X146939000Y-106934000D01*
X146939000Y-106934000D02*
X146652750Y-106647750D01*
X116174500Y-87812000D02*
X116174500Y-83312000D01*
X117278500Y-83312000D02*
X123474500Y-83312000D01*
X116174500Y-83312000D02*
X117278500Y-83312000D01*
X123474500Y-83312000D02*
X123474500Y-87812000D01*
G36*
X114710987Y-82520889D02*
G01*
X114689500Y-82739050D01*
X114689500Y-83884949D01*
X114710987Y-84103110D01*
X114795901Y-84383033D01*
X114933794Y-84641013D01*
X115119366Y-84867134D01*
X115345486Y-85052706D01*
X115412501Y-85088526D01*
X115412500Y-86035475D01*
X115345487Y-86071294D01*
X115119367Y-86256866D01*
X114933794Y-86482986D01*
X114795901Y-86740966D01*
X114710987Y-87020889D01*
X114689500Y-87239050D01*
X114689500Y-88384949D01*
X114710987Y-88603110D01*
X114795901Y-88883033D01*
X114933794Y-89141013D01*
X115119366Y-89367134D01*
X115345486Y-89552706D01*
X115603466Y-89690599D01*
X115883389Y-89775513D01*
X116174500Y-89804185D01*
X116465610Y-89775513D01*
X116657879Y-89717189D01*
X114506966Y-91868102D01*
X114475459Y-91893959D01*
X114424275Y-91956328D01*
X114372301Y-92019658D01*
X114312117Y-92132254D01*
X114295647Y-92163067D01*
X114248444Y-92318675D01*
X114236500Y-92439947D01*
X114232506Y-92480500D01*
X114236500Y-92521051D01*
X114236501Y-98324257D01*
X114097150Y-98366528D01*
X113943614Y-98448595D01*
X113809038Y-98559038D01*
X113698595Y-98693614D01*
X113616528Y-98847150D01*
X113565992Y-99013746D01*
X113548928Y-99187000D01*
X113548928Y-99937000D01*
X113565992Y-100110254D01*
X113616528Y-100276850D01*
X113698595Y-100430386D01*
X113809038Y-100564962D01*
X113943614Y-100675405D01*
X114097150Y-100757472D01*
X114263746Y-100808008D01*
X114437000Y-100825072D01*
X115687000Y-100825072D01*
X115860254Y-100808008D01*
X116026850Y-100757472D01*
X116180386Y-100675405D01*
X116314962Y-100564962D01*
X116425405Y-100430386D01*
X116507472Y-100276850D01*
X116558008Y-100110254D01*
X116575072Y-99937000D01*
X116575072Y-99187000D01*
X116558008Y-99013746D01*
X116507472Y-98847150D01*
X116425405Y-98693614D01*
X116314962Y-98559038D01*
X116180386Y-98448595D01*
X116026850Y-98366528D01*
X115887500Y-98324257D01*
X115887500Y-92822432D01*
X118262501Y-90447432D01*
X118262501Y-92114868D01*
X117872192Y-92505178D01*
X117368000Y-92505178D01*
X117195965Y-92522122D01*
X117030541Y-92572303D01*
X116878086Y-92653792D01*
X116744458Y-92763458D01*
X116634792Y-92897086D01*
X116553303Y-93049541D01*
X116503122Y-93214965D01*
X116486178Y-93387000D01*
X116486178Y-93874500D01*
X116503122Y-94046535D01*
X116553303Y-94211959D01*
X116634792Y-94364414D01*
X116744458Y-94498042D01*
X116830006Y-94568250D01*
X116744458Y-94638458D01*
X116634792Y-94772086D01*
X116553303Y-94924541D01*
X116503122Y-95089965D01*
X116486178Y-95262000D01*
X116486178Y-95749500D01*
X116503122Y-95921535D01*
X116553303Y-96086959D01*
X116634792Y-96239414D01*
X116744458Y-96373042D01*
X116878086Y-96482708D01*
X117030541Y-96564197D01*
X117195965Y-96614378D01*
X117272348Y-96621901D01*
X117282829Y-96634672D01*
X117311899Y-96658529D01*
X118618000Y-97964631D01*
X118618001Y-100553633D01*
X118614314Y-100591066D01*
X118629027Y-100740444D01*
X118672599Y-100884081D01*
X118743355Y-101016458D01*
X118796650Y-101081397D01*
X118838579Y-101132488D01*
X118867649Y-101156345D01*
X123271405Y-105560102D01*
X123295262Y-105589172D01*
X123324332Y-105613029D01*
X123411291Y-105684395D01*
X123482048Y-105722215D01*
X123543669Y-105755152D01*
X123687306Y-105798724D01*
X123799258Y-105809750D01*
X123799261Y-105809750D01*
X123836684Y-105813436D01*
X123874107Y-105809750D01*
X130512817Y-105809750D01*
X130133139Y-106189428D01*
X129718750Y-106189428D01*
X129546715Y-106206372D01*
X129381291Y-106256553D01*
X129228836Y-106338042D01*
X129095208Y-106447708D01*
X129060910Y-106489500D01*
X120356934Y-106489500D01*
X116575072Y-102707640D01*
X116575072Y-101987000D01*
X116558008Y-101813746D01*
X116507472Y-101647150D01*
X116425405Y-101493614D01*
X116314962Y-101359038D01*
X116180386Y-101248595D01*
X116026850Y-101166528D01*
X115860254Y-101115992D01*
X115687000Y-101098928D01*
X114437000Y-101098928D01*
X114263746Y-101115992D01*
X114097150Y-101166528D01*
X113943614Y-101248595D01*
X113809038Y-101359038D01*
X113698595Y-101493614D01*
X113616528Y-101647150D01*
X113565992Y-101813746D01*
X113548928Y-101987000D01*
X113548928Y-102737000D01*
X113565992Y-102910254D01*
X113616528Y-103076850D01*
X113698595Y-103230386D01*
X113809038Y-103364962D01*
X113943614Y-103475405D01*
X114097150Y-103557472D01*
X114263746Y-103608008D01*
X114437000Y-103625072D01*
X115157640Y-103625072D01*
X119402611Y-107870045D01*
X119428459Y-107901541D01*
X119459955Y-107927389D01*
X119459958Y-107927392D01*
X119554157Y-108004699D01*
X119656817Y-108059572D01*
X119697566Y-108081353D01*
X119853174Y-108128556D01*
X119974447Y-108140500D01*
X119974449Y-108140500D01*
X120015000Y-108144494D01*
X120055550Y-108140500D01*
X129060910Y-108140500D01*
X129095208Y-108182292D01*
X129101564Y-108187508D01*
X129023815Y-108251315D01*
X128944463Y-108348006D01*
X128885498Y-108458320D01*
X128849188Y-108578018D01*
X128836928Y-108702500D01*
X128840000Y-108904250D01*
X128998750Y-109063000D01*
X130048000Y-109063000D01*
X130048000Y-109043000D01*
X130302000Y-109043000D01*
X130302000Y-109063000D01*
X130322000Y-109063000D01*
X130322000Y-109317000D01*
X130302000Y-109317000D01*
X130302000Y-110153750D01*
X130460750Y-110312500D01*
X130875000Y-110315572D01*
X130999482Y-110303312D01*
X131119180Y-110267002D01*
X131229494Y-110208037D01*
X131326185Y-110128685D01*
X131405537Y-110031994D01*
X131464502Y-109921680D01*
X131500812Y-109801982D01*
X131513072Y-109677500D01*
X131510433Y-109504193D01*
X133105268Y-111099029D01*
X133131121Y-111130531D01*
X133171991Y-111164072D01*
X133256818Y-111233688D01*
X133256820Y-111233689D01*
X133400228Y-111310343D01*
X133555836Y-111357546D01*
X133677109Y-111369490D01*
X133677118Y-111369490D01*
X133717661Y-111373483D01*
X133758204Y-111369490D01*
X135100788Y-111369490D01*
X135141338Y-111373484D01*
X135181888Y-111369490D01*
X135181891Y-111369490D01*
X135303164Y-111357546D01*
X135458772Y-111310343D01*
X135602180Y-111233689D01*
X135727879Y-111130531D01*
X135753736Y-111099024D01*
X135905785Y-110946975D01*
X135937291Y-110921119D01*
X136040449Y-110795420D01*
X136117103Y-110652012D01*
X136164306Y-110496404D01*
X136176250Y-110375131D01*
X136176250Y-110375129D01*
X136180244Y-110334579D01*
X136176250Y-110294028D01*
X136176250Y-109732750D01*
X136277752Y-109732750D01*
X136277752Y-109592584D01*
X136321256Y-109628287D01*
X136344417Y-109640667D01*
X136436500Y-109732750D01*
X136550087Y-109723204D01*
X136551268Y-109723562D01*
X136675750Y-109735822D01*
X137225750Y-109735822D01*
X137350232Y-109723562D01*
X137350750Y-109723405D01*
X137351268Y-109723562D01*
X137475750Y-109735822D01*
X138025750Y-109735822D01*
X138150232Y-109723562D01*
X138150750Y-109723405D01*
X138151268Y-109723562D01*
X138275750Y-109735822D01*
X138825750Y-109735822D01*
X138950232Y-109723562D01*
X138950750Y-109723405D01*
X138951268Y-109723562D01*
X139075750Y-109735822D01*
X139625750Y-109735822D01*
X139750232Y-109723562D01*
X139750750Y-109723405D01*
X139751268Y-109723562D01*
X139875750Y-109735822D01*
X140425750Y-109735822D01*
X140550232Y-109723562D01*
X140550750Y-109723405D01*
X140551268Y-109723562D01*
X140675750Y-109735822D01*
X141225750Y-109735822D01*
X141350232Y-109723562D01*
X141350750Y-109723405D01*
X141351268Y-109723562D01*
X141475750Y-109735822D01*
X142025750Y-109735822D01*
X142150232Y-109723562D01*
X142151413Y-109723204D01*
X142265000Y-109732750D01*
X142357083Y-109640667D01*
X142380244Y-109628287D01*
X142423748Y-109592584D01*
X142423748Y-109732750D01*
X142525251Y-109732750D01*
X142525251Y-110036190D01*
X142521256Y-110076750D01*
X142537195Y-110238576D01*
X142564278Y-110327857D01*
X142451768Y-110338938D01*
X142332070Y-110375248D01*
X142221756Y-110434213D01*
X142125065Y-110513565D01*
X142045713Y-110610256D01*
X141986748Y-110720570D01*
X141950438Y-110840268D01*
X141938178Y-110964750D01*
X141941250Y-111379000D01*
X142100000Y-111537750D01*
X142936750Y-111537750D01*
X142936750Y-111517750D01*
X143190750Y-111517750D01*
X143190750Y-111537750D01*
X143210750Y-111537750D01*
X143210750Y-111791750D01*
X143190750Y-111791750D01*
X143190750Y-112841000D01*
X143349500Y-112999750D01*
X143551250Y-113002822D01*
X143675732Y-112990562D01*
X143795430Y-112954252D01*
X143905744Y-112895287D01*
X144002435Y-112815935D01*
X144066242Y-112738186D01*
X144071458Y-112744542D01*
X144205086Y-112854208D01*
X144357541Y-112935697D01*
X144522965Y-112985878D01*
X144695000Y-113002822D01*
X145182500Y-113002822D01*
X145354535Y-112985878D01*
X145519959Y-112935697D01*
X145672414Y-112854208D01*
X145806042Y-112744542D01*
X145889438Y-112642924D01*
X145940744Y-112677205D01*
X146129102Y-112755226D01*
X146329061Y-112795000D01*
X146532939Y-112795000D01*
X146732898Y-112755226D01*
X146921256Y-112677205D01*
X147090774Y-112563937D01*
X147234937Y-112419774D01*
X147348205Y-112250256D01*
X147426226Y-112061898D01*
X147466000Y-111861939D01*
X147466000Y-111658061D01*
X147426226Y-111458102D01*
X147348205Y-111269744D01*
X147234937Y-111100226D01*
X147090774Y-110956063D01*
X146921256Y-110842795D01*
X146732898Y-110764774D01*
X146532939Y-110725000D01*
X146329061Y-110725000D01*
X146129102Y-110764774D01*
X145974603Y-110828770D01*
X145915708Y-110718586D01*
X145806042Y-110584958D01*
X145672414Y-110475292D01*
X145519959Y-110393803D01*
X145354535Y-110343622D01*
X145182500Y-110326678D01*
X144768111Y-110326678D01*
X144176250Y-109734818D01*
X144176250Y-109414896D01*
X144215252Y-109341930D01*
X144229033Y-109296500D01*
X146997928Y-109296500D01*
X147010188Y-109420982D01*
X147046498Y-109540680D01*
X147105463Y-109650994D01*
X147184815Y-109747685D01*
X147281506Y-109827037D01*
X147391820Y-109886002D01*
X147511518Y-109922312D01*
X147636000Y-109934572D01*
X148050250Y-109931500D01*
X148209000Y-109772750D01*
X148209000Y-108936000D01*
X148463000Y-108936000D01*
X148463000Y-109772750D01*
X148621750Y-109931500D01*
X149036000Y-109934572D01*
X149160482Y-109922312D01*
X149280180Y-109886002D01*
X149390494Y-109827037D01*
X149487185Y-109747685D01*
X149566537Y-109650994D01*
X149625502Y-109540680D01*
X149661812Y-109420982D01*
X149674072Y-109296500D01*
X149671000Y-109094750D01*
X149512250Y-108936000D01*
X148463000Y-108936000D01*
X148209000Y-108936000D01*
X147159750Y-108936000D01*
X147001000Y-109094750D01*
X146997928Y-109296500D01*
X144229033Y-109296500D01*
X144251562Y-109222232D01*
X144263822Y-109097750D01*
X144263822Y-107597750D01*
X144259788Y-107556788D01*
X144300750Y-107560822D01*
X145800750Y-107560822D01*
X145925232Y-107548562D01*
X146044930Y-107512252D01*
X146155244Y-107453287D01*
X146208294Y-107409750D01*
X146337121Y-107409750D01*
X146373712Y-107446341D01*
X146397578Y-107475422D01*
X146513608Y-107570645D01*
X146645985Y-107641402D01*
X146789622Y-107684974D01*
X146901574Y-107696000D01*
X146901577Y-107696000D01*
X146939000Y-107699686D01*
X146976423Y-107696000D01*
X147169797Y-107696000D01*
X147256208Y-107801292D01*
X147262564Y-107806508D01*
X147184815Y-107870315D01*
X147105463Y-107967006D01*
X147046498Y-108077320D01*
X147010188Y-108197018D01*
X146997928Y-108321500D01*
X147001000Y-108523250D01*
X147159750Y-108682000D01*
X148209000Y-108682000D01*
X148209000Y-108662000D01*
X148463000Y-108662000D01*
X148463000Y-108682000D01*
X149512250Y-108682000D01*
X149671000Y-108523250D01*
X149674072Y-108321500D01*
X149661812Y-108197018D01*
X149625502Y-108077320D01*
X149566537Y-107967006D01*
X149487185Y-107870315D01*
X149409436Y-107806508D01*
X149415792Y-107801292D01*
X149525458Y-107667664D01*
X149606947Y-107515209D01*
X149657128Y-107349785D01*
X149674072Y-107177750D01*
X149674072Y-106690250D01*
X149657128Y-106518215D01*
X149606947Y-106352791D01*
X149525458Y-106200336D01*
X149415792Y-106066708D01*
X149282164Y-105957042D01*
X149129709Y-105875553D01*
X148964285Y-105825372D01*
X148792250Y-105808428D01*
X147879750Y-105808428D01*
X147707715Y-105825372D01*
X147542291Y-105875553D01*
X147389836Y-105957042D01*
X147256208Y-106066708D01*
X147208932Y-106124313D01*
X147194172Y-106106328D01*
X147078142Y-106011105D01*
X146945765Y-105940348D01*
X146802128Y-105896776D01*
X146690176Y-105885750D01*
X146690173Y-105885750D01*
X146652750Y-105882064D01*
X146615327Y-105885750D01*
X146438822Y-105885750D01*
X146438822Y-105572750D01*
X146426562Y-105448268D01*
X146426405Y-105447750D01*
X146426562Y-105447232D01*
X146438822Y-105322750D01*
X146438822Y-105009750D01*
X149525120Y-105009750D01*
X149860000Y-105344630D01*
X149860000Y-119164500D01*
X114300529Y-119164500D01*
X113934540Y-119128614D01*
X113613538Y-119031698D01*
X113317475Y-118874279D01*
X113057627Y-118662351D01*
X112843894Y-118403992D01*
X112684412Y-118109036D01*
X112585257Y-117788719D01*
X112547000Y-117424729D01*
X112547000Y-117335000D01*
X114233928Y-117335000D01*
X114246188Y-117459482D01*
X114282498Y-117579180D01*
X114341463Y-117689494D01*
X114420815Y-117786185D01*
X114517506Y-117865537D01*
X114627820Y-117924502D01*
X114747518Y-117960812D01*
X114872000Y-117973072D01*
X115486250Y-117970000D01*
X115645000Y-117811250D01*
X115645000Y-116912000D01*
X115899000Y-116912000D01*
X115899000Y-117811250D01*
X116057750Y-117970000D01*
X116672000Y-117973072D01*
X116796482Y-117960812D01*
X116916180Y-117924502D01*
X117026494Y-117865537D01*
X117123185Y-117786185D01*
X117202537Y-117689494D01*
X117261502Y-117579180D01*
X117297812Y-117459482D01*
X117310072Y-117335000D01*
X117307000Y-117070750D01*
X117148250Y-116912000D01*
X115899000Y-116912000D01*
X115645000Y-116912000D01*
X114395750Y-116912000D01*
X114237000Y-117070750D01*
X114233928Y-117335000D01*
X112547000Y-117335000D01*
X112547000Y-116235000D01*
X114233928Y-116235000D01*
X114237000Y-116499250D01*
X114395750Y-116658000D01*
X115645000Y-116658000D01*
X115645000Y-115758750D01*
X115899000Y-115758750D01*
X115899000Y-116658000D01*
X117148250Y-116658000D01*
X117307000Y-116499250D01*
X117310072Y-116235000D01*
X120433928Y-116235000D01*
X120433928Y-117335000D01*
X120446188Y-117459482D01*
X120482498Y-117579180D01*
X120541463Y-117689494D01*
X120620815Y-117786185D01*
X120717506Y-117865537D01*
X120827820Y-117924502D01*
X120947518Y-117960812D01*
X121072000Y-117973072D01*
X122872000Y-117973072D01*
X122996482Y-117960812D01*
X123116180Y-117924502D01*
X123226494Y-117865537D01*
X123323185Y-117786185D01*
X123402537Y-117689494D01*
X123461502Y-117579180D01*
X123497812Y-117459482D01*
X123510072Y-117335000D01*
X123510072Y-116235000D01*
X123497812Y-116110518D01*
X123461502Y-115990820D01*
X123402537Y-115880506D01*
X123323185Y-115783815D01*
X123226494Y-115704463D01*
X123116180Y-115645498D01*
X122996482Y-115609188D01*
X122872000Y-115596928D01*
X121072000Y-115596928D01*
X120947518Y-115609188D01*
X120827820Y-115645498D01*
X120717506Y-115704463D01*
X120620815Y-115783815D01*
X120541463Y-115880506D01*
X120482498Y-115990820D01*
X120446188Y-116110518D01*
X120433928Y-116235000D01*
X117310072Y-116235000D01*
X117297812Y-116110518D01*
X117261502Y-115990820D01*
X117202537Y-115880506D01*
X117123185Y-115783815D01*
X117026494Y-115704463D01*
X116916180Y-115645498D01*
X116796482Y-115609188D01*
X116672000Y-115596928D01*
X116057750Y-115600000D01*
X115899000Y-115758750D01*
X115645000Y-115758750D01*
X115486250Y-115600000D01*
X114872000Y-115596928D01*
X114747518Y-115609188D01*
X114627820Y-115645498D01*
X114517506Y-115704463D01*
X114420815Y-115783815D01*
X114341463Y-115880506D01*
X114282498Y-115990820D01*
X114246188Y-116110518D01*
X114233928Y-116235000D01*
X112547000Y-116235000D01*
X112547000Y-112535000D01*
X114233928Y-112535000D01*
X114233928Y-113635000D01*
X114246188Y-113759482D01*
X114282498Y-113879180D01*
X114341463Y-113989494D01*
X114420815Y-114086185D01*
X114517506Y-114165537D01*
X114627820Y-114224502D01*
X114747518Y-114260812D01*
X114872000Y-114273072D01*
X116672000Y-114273072D01*
X116796482Y-114260812D01*
X116916180Y-114224502D01*
X117026494Y-114165537D01*
X117123185Y-114086185D01*
X117202537Y-113989494D01*
X117261502Y-113879180D01*
X117297812Y-113759482D01*
X117310072Y-113635000D01*
X117310072Y-112535000D01*
X120433928Y-112535000D01*
X120433928Y-113635000D01*
X120446188Y-113759482D01*
X120482498Y-113879180D01*
X120541463Y-113989494D01*
X120620815Y-114086185D01*
X120717506Y-114165537D01*
X120827820Y-114224502D01*
X120947518Y-114260812D01*
X121072000Y-114273072D01*
X122872000Y-114273072D01*
X122996482Y-114260812D01*
X123116180Y-114224502D01*
X123226494Y-114165537D01*
X123323185Y-114086185D01*
X123402537Y-113989494D01*
X123440217Y-113919000D01*
X123758289Y-113919000D01*
X123800226Y-113960937D01*
X123969744Y-114074205D01*
X124158102Y-114152226D01*
X124358061Y-114192000D01*
X124561939Y-114192000D01*
X124761898Y-114152226D01*
X124950256Y-114074205D01*
X125119774Y-113960937D01*
X125263937Y-113816774D01*
X125377205Y-113647256D01*
X125455226Y-113458898D01*
X125495000Y-113258939D01*
X125495000Y-113055061D01*
X125455226Y-112855102D01*
X125377205Y-112666744D01*
X125263937Y-112497226D01*
X125131461Y-112364750D01*
X141938178Y-112364750D01*
X141950438Y-112489232D01*
X141986748Y-112608930D01*
X142045713Y-112719244D01*
X142125065Y-112815935D01*
X142221756Y-112895287D01*
X142332070Y-112954252D01*
X142451768Y-112990562D01*
X142576250Y-113002822D01*
X142778000Y-112999750D01*
X142936750Y-112841000D01*
X142936750Y-111791750D01*
X142100000Y-111791750D01*
X141941250Y-111950500D01*
X141938178Y-112364750D01*
X125131461Y-112364750D01*
X125119774Y-112353063D01*
X124950256Y-112239795D01*
X124761898Y-112161774D01*
X124561939Y-112122000D01*
X124358061Y-112122000D01*
X124158102Y-112161774D01*
X123969744Y-112239795D01*
X123800226Y-112353063D01*
X123758289Y-112395000D01*
X123493105Y-112395000D01*
X123461502Y-112290820D01*
X123402537Y-112180506D01*
X123323185Y-112083815D01*
X123226494Y-112004463D01*
X123116180Y-111945498D01*
X122996482Y-111909188D01*
X122872000Y-111896928D01*
X121072000Y-111896928D01*
X120947518Y-111909188D01*
X120827820Y-111945498D01*
X120717506Y-112004463D01*
X120620815Y-112083815D01*
X120541463Y-112180506D01*
X120482498Y-112290820D01*
X120446188Y-112410518D01*
X120433928Y-112535000D01*
X117310072Y-112535000D01*
X117297812Y-112410518D01*
X117261502Y-112290820D01*
X117202537Y-112180506D01*
X117123185Y-112083815D01*
X117026494Y-112004463D01*
X116916180Y-111945498D01*
X116796482Y-111909188D01*
X116672000Y-111896928D01*
X114872000Y-111896928D01*
X114747518Y-111909188D01*
X114627820Y-111945498D01*
X114517506Y-112004463D01*
X114420815Y-112083815D01*
X114341463Y-112180506D01*
X114282498Y-112290820D01*
X114246188Y-112410518D01*
X114233928Y-112535000D01*
X112547000Y-112535000D01*
X112547000Y-109677500D01*
X128836928Y-109677500D01*
X128849188Y-109801982D01*
X128885498Y-109921680D01*
X128944463Y-110031994D01*
X129023815Y-110128685D01*
X129120506Y-110208037D01*
X129230820Y-110267002D01*
X129350518Y-110303312D01*
X129475000Y-110315572D01*
X129889250Y-110312500D01*
X130048000Y-110153750D01*
X130048000Y-109317000D01*
X128998750Y-109317000D01*
X128840000Y-109475750D01*
X128836928Y-109677500D01*
X112547000Y-109677500D01*
X112547000Y-84138029D01*
X112582886Y-83772040D01*
X112679801Y-83451040D01*
X112837221Y-83154975D01*
X113049149Y-82895127D01*
X113307510Y-82681392D01*
X113602464Y-82521912D01*
X113922782Y-82422756D01*
X114286762Y-82384500D01*
X114752360Y-82384500D01*
X114710987Y-82520889D01*
X114710987Y-82520889D01*
G37*
X114710987Y-82520889D02*
X114689500Y-82739050D01*
X114689500Y-83884949D01*
X114710987Y-84103110D01*
X114795901Y-84383033D01*
X114933794Y-84641013D01*
X115119366Y-84867134D01*
X115345486Y-85052706D01*
X115412501Y-85088526D01*
X115412500Y-86035475D01*
X115345487Y-86071294D01*
X115119367Y-86256866D01*
X114933794Y-86482986D01*
X114795901Y-86740966D01*
X114710987Y-87020889D01*
X114689500Y-87239050D01*
X114689500Y-88384949D01*
X114710987Y-88603110D01*
X114795901Y-88883033D01*
X114933794Y-89141013D01*
X115119366Y-89367134D01*
X115345486Y-89552706D01*
X115603466Y-89690599D01*
X115883389Y-89775513D01*
X116174500Y-89804185D01*
X116465610Y-89775513D01*
X116657879Y-89717189D01*
X114506966Y-91868102D01*
X114475459Y-91893959D01*
X114424275Y-91956328D01*
X114372301Y-92019658D01*
X114312117Y-92132254D01*
X114295647Y-92163067D01*
X114248444Y-92318675D01*
X114236500Y-92439947D01*
X114232506Y-92480500D01*
X114236500Y-92521051D01*
X114236501Y-98324257D01*
X114097150Y-98366528D01*
X113943614Y-98448595D01*
X113809038Y-98559038D01*
X113698595Y-98693614D01*
X113616528Y-98847150D01*
X113565992Y-99013746D01*
X113548928Y-99187000D01*
X113548928Y-99937000D01*
X113565992Y-100110254D01*
X113616528Y-100276850D01*
X113698595Y-100430386D01*
X113809038Y-100564962D01*
X113943614Y-100675405D01*
X114097150Y-100757472D01*
X114263746Y-100808008D01*
X114437000Y-100825072D01*
X115687000Y-100825072D01*
X115860254Y-100808008D01*
X116026850Y-100757472D01*
X116180386Y-100675405D01*
X116314962Y-100564962D01*
X116425405Y-100430386D01*
X116507472Y-100276850D01*
X116558008Y-100110254D01*
X116575072Y-99937000D01*
X116575072Y-99187000D01*
X116558008Y-99013746D01*
X116507472Y-98847150D01*
X116425405Y-98693614D01*
X116314962Y-98559038D01*
X116180386Y-98448595D01*
X116026850Y-98366528D01*
X115887500Y-98324257D01*
X115887500Y-92822432D01*
X118262501Y-90447432D01*
X118262501Y-92114868D01*
X117872192Y-92505178D01*
X117368000Y-92505178D01*
X117195965Y-92522122D01*
X117030541Y-92572303D01*
X116878086Y-92653792D01*
X116744458Y-92763458D01*
X116634792Y-92897086D01*
X116553303Y-93049541D01*
X116503122Y-93214965D01*
X116486178Y-93387000D01*
X116486178Y-93874500D01*
X116503122Y-94046535D01*
X116553303Y-94211959D01*
X116634792Y-94364414D01*
X116744458Y-94498042D01*
X116830006Y-94568250D01*
X116744458Y-94638458D01*
X116634792Y-94772086D01*
X116553303Y-94924541D01*
X116503122Y-95089965D01*
X116486178Y-95262000D01*
X116486178Y-95749500D01*
X116503122Y-95921535D01*
X116553303Y-96086959D01*
X116634792Y-96239414D01*
X116744458Y-96373042D01*
X116878086Y-96482708D01*
X117030541Y-96564197D01*
X117195965Y-96614378D01*
X117272348Y-96621901D01*
X117282829Y-96634672D01*
X117311899Y-96658529D01*
X118618000Y-97964631D01*
X118618001Y-100553633D01*
X118614314Y-100591066D01*
X118629027Y-100740444D01*
X118672599Y-100884081D01*
X118743355Y-101016458D01*
X118796650Y-101081397D01*
X118838579Y-101132488D01*
X118867649Y-101156345D01*
X123271405Y-105560102D01*
X123295262Y-105589172D01*
X123324332Y-105613029D01*
X123411291Y-105684395D01*
X123482048Y-105722215D01*
X123543669Y-105755152D01*
X123687306Y-105798724D01*
X123799258Y-105809750D01*
X123799261Y-105809750D01*
X123836684Y-105813436D01*
X123874107Y-105809750D01*
X130512817Y-105809750D01*
X130133139Y-106189428D01*
X129718750Y-106189428D01*
X129546715Y-106206372D01*
X129381291Y-106256553D01*
X129228836Y-106338042D01*
X129095208Y-106447708D01*
X129060910Y-106489500D01*
X120356934Y-106489500D01*
X116575072Y-102707640D01*
X116575072Y-101987000D01*
X116558008Y-101813746D01*
X116507472Y-101647150D01*
X116425405Y-101493614D01*
X116314962Y-101359038D01*
X116180386Y-101248595D01*
X116026850Y-101166528D01*
X115860254Y-101115992D01*
X115687000Y-101098928D01*
X114437000Y-101098928D01*
X114263746Y-101115992D01*
X114097150Y-101166528D01*
X113943614Y-101248595D01*
X113809038Y-101359038D01*
X113698595Y-101493614D01*
X113616528Y-101647150D01*
X113565992Y-101813746D01*
X113548928Y-101987000D01*
X113548928Y-102737000D01*
X113565992Y-102910254D01*
X113616528Y-103076850D01*
X113698595Y-103230386D01*
X113809038Y-103364962D01*
X113943614Y-103475405D01*
X114097150Y-103557472D01*
X114263746Y-103608008D01*
X114437000Y-103625072D01*
X115157640Y-103625072D01*
X119402611Y-107870045D01*
X119428459Y-107901541D01*
X119459955Y-107927389D01*
X119459958Y-107927392D01*
X119554157Y-108004699D01*
X119656817Y-108059572D01*
X119697566Y-108081353D01*
X119853174Y-108128556D01*
X119974447Y-108140500D01*
X119974449Y-108140500D01*
X120015000Y-108144494D01*
X120055550Y-108140500D01*
X129060910Y-108140500D01*
X129095208Y-108182292D01*
X129101564Y-108187508D01*
X129023815Y-108251315D01*
X128944463Y-108348006D01*
X128885498Y-108458320D01*
X128849188Y-108578018D01*
X128836928Y-108702500D01*
X128840000Y-108904250D01*
X128998750Y-109063000D01*
X130048000Y-109063000D01*
X130048000Y-109043000D01*
X130302000Y-109043000D01*
X130302000Y-109063000D01*
X130322000Y-109063000D01*
X130322000Y-109317000D01*
X130302000Y-109317000D01*
X130302000Y-110153750D01*
X130460750Y-110312500D01*
X130875000Y-110315572D01*
X130999482Y-110303312D01*
X131119180Y-110267002D01*
X131229494Y-110208037D01*
X131326185Y-110128685D01*
X131405537Y-110031994D01*
X131464502Y-109921680D01*
X131500812Y-109801982D01*
X131513072Y-109677500D01*
X131510433Y-109504193D01*
X133105268Y-111099029D01*
X133131121Y-111130531D01*
X133171991Y-111164072D01*
X133256818Y-111233688D01*
X133256820Y-111233689D01*
X133400228Y-111310343D01*
X133555836Y-111357546D01*
X133677109Y-111369490D01*
X133677118Y-111369490D01*
X133717661Y-111373483D01*
X133758204Y-111369490D01*
X135100788Y-111369490D01*
X135141338Y-111373484D01*
X135181888Y-111369490D01*
X135181891Y-111369490D01*
X135303164Y-111357546D01*
X135458772Y-111310343D01*
X135602180Y-111233689D01*
X135727879Y-111130531D01*
X135753736Y-111099024D01*
X135905785Y-110946975D01*
X135937291Y-110921119D01*
X136040449Y-110795420D01*
X136117103Y-110652012D01*
X136164306Y-110496404D01*
X136176250Y-110375131D01*
X136176250Y-110375129D01*
X136180244Y-110334579D01*
X136176250Y-110294028D01*
X136176250Y-109732750D01*
X136277752Y-109732750D01*
X136277752Y-109592584D01*
X136321256Y-109628287D01*
X136344417Y-109640667D01*
X136436500Y-109732750D01*
X136550087Y-109723204D01*
X136551268Y-109723562D01*
X136675750Y-109735822D01*
X137225750Y-109735822D01*
X137350232Y-109723562D01*
X137350750Y-109723405D01*
X137351268Y-109723562D01*
X137475750Y-109735822D01*
X138025750Y-109735822D01*
X138150232Y-109723562D01*
X138150750Y-109723405D01*
X138151268Y-109723562D01*
X138275750Y-109735822D01*
X138825750Y-109735822D01*
X138950232Y-109723562D01*
X138950750Y-109723405D01*
X138951268Y-109723562D01*
X139075750Y-109735822D01*
X139625750Y-109735822D01*
X139750232Y-109723562D01*
X139750750Y-109723405D01*
X139751268Y-109723562D01*
X139875750Y-109735822D01*
X140425750Y-109735822D01*
X140550232Y-109723562D01*
X140550750Y-109723405D01*
X140551268Y-109723562D01*
X140675750Y-109735822D01*
X141225750Y-109735822D01*
X141350232Y-109723562D01*
X141350750Y-109723405D01*
X141351268Y-109723562D01*
X141475750Y-109735822D01*
X142025750Y-109735822D01*
X142150232Y-109723562D01*
X142151413Y-109723204D01*
X142265000Y-109732750D01*
X142357083Y-109640667D01*
X142380244Y-109628287D01*
X142423748Y-109592584D01*
X142423748Y-109732750D01*
X142525251Y-109732750D01*
X142525251Y-110036190D01*
X142521256Y-110076750D01*
X142537195Y-110238576D01*
X142564278Y-110327857D01*
X142451768Y-110338938D01*
X142332070Y-110375248D01*
X142221756Y-110434213D01*
X142125065Y-110513565D01*
X142045713Y-110610256D01*
X141986748Y-110720570D01*
X141950438Y-110840268D01*
X141938178Y-110964750D01*
X141941250Y-111379000D01*
X142100000Y-111537750D01*
X142936750Y-111537750D01*
X142936750Y-111517750D01*
X143190750Y-111517750D01*
X143190750Y-111537750D01*
X143210750Y-111537750D01*
X143210750Y-111791750D01*
X143190750Y-111791750D01*
X143190750Y-112841000D01*
X143349500Y-112999750D01*
X143551250Y-113002822D01*
X143675732Y-112990562D01*
X143795430Y-112954252D01*
X143905744Y-112895287D01*
X144002435Y-112815935D01*
X144066242Y-112738186D01*
X144071458Y-112744542D01*
X144205086Y-112854208D01*
X144357541Y-112935697D01*
X144522965Y-112985878D01*
X144695000Y-113002822D01*
X145182500Y-113002822D01*
X145354535Y-112985878D01*
X145519959Y-112935697D01*
X145672414Y-112854208D01*
X145806042Y-112744542D01*
X145889438Y-112642924D01*
X145940744Y-112677205D01*
X146129102Y-112755226D01*
X146329061Y-112795000D01*
X146532939Y-112795000D01*
X146732898Y-112755226D01*
X146921256Y-112677205D01*
X147090774Y-112563937D01*
X147234937Y-112419774D01*
X147348205Y-112250256D01*
X147426226Y-112061898D01*
X147466000Y-111861939D01*
X147466000Y-111658061D01*
X147426226Y-111458102D01*
X147348205Y-111269744D01*
X147234937Y-111100226D01*
X147090774Y-110956063D01*
X146921256Y-110842795D01*
X146732898Y-110764774D01*
X146532939Y-110725000D01*
X146329061Y-110725000D01*
X146129102Y-110764774D01*
X145974603Y-110828770D01*
X145915708Y-110718586D01*
X145806042Y-110584958D01*
X145672414Y-110475292D01*
X145519959Y-110393803D01*
X145354535Y-110343622D01*
X145182500Y-110326678D01*
X144768111Y-110326678D01*
X144176250Y-109734818D01*
X144176250Y-109414896D01*
X144215252Y-109341930D01*
X144229033Y-109296500D01*
X146997928Y-109296500D01*
X147010188Y-109420982D01*
X147046498Y-109540680D01*
X147105463Y-109650994D01*
X147184815Y-109747685D01*
X147281506Y-109827037D01*
X147391820Y-109886002D01*
X147511518Y-109922312D01*
X147636000Y-109934572D01*
X148050250Y-109931500D01*
X148209000Y-109772750D01*
X148209000Y-108936000D01*
X148463000Y-108936000D01*
X148463000Y-109772750D01*
X148621750Y-109931500D01*
X149036000Y-109934572D01*
X149160482Y-109922312D01*
X149280180Y-109886002D01*
X149390494Y-109827037D01*
X149487185Y-109747685D01*
X149566537Y-109650994D01*
X149625502Y-109540680D01*
X149661812Y-109420982D01*
X149674072Y-109296500D01*
X149671000Y-109094750D01*
X149512250Y-108936000D01*
X148463000Y-108936000D01*
X148209000Y-108936000D01*
X147159750Y-108936000D01*
X147001000Y-109094750D01*
X146997928Y-109296500D01*
X144229033Y-109296500D01*
X144251562Y-109222232D01*
X144263822Y-109097750D01*
X144263822Y-107597750D01*
X144259788Y-107556788D01*
X144300750Y-107560822D01*
X145800750Y-107560822D01*
X145925232Y-107548562D01*
X146044930Y-107512252D01*
X146155244Y-107453287D01*
X146208294Y-107409750D01*
X146337121Y-107409750D01*
X146373712Y-107446341D01*
X146397578Y-107475422D01*
X146513608Y-107570645D01*
X146645985Y-107641402D01*
X146789622Y-107684974D01*
X146901574Y-107696000D01*
X146901577Y-107696000D01*
X146939000Y-107699686D01*
X146976423Y-107696000D01*
X147169797Y-107696000D01*
X147256208Y-107801292D01*
X147262564Y-107806508D01*
X147184815Y-107870315D01*
X147105463Y-107967006D01*
X147046498Y-108077320D01*
X147010188Y-108197018D01*
X146997928Y-108321500D01*
X147001000Y-108523250D01*
X147159750Y-108682000D01*
X148209000Y-108682000D01*
X148209000Y-108662000D01*
X148463000Y-108662000D01*
X148463000Y-108682000D01*
X149512250Y-108682000D01*
X149671000Y-108523250D01*
X149674072Y-108321500D01*
X149661812Y-108197018D01*
X149625502Y-108077320D01*
X149566537Y-107967006D01*
X149487185Y-107870315D01*
X149409436Y-107806508D01*
X149415792Y-107801292D01*
X149525458Y-107667664D01*
X149606947Y-107515209D01*
X149657128Y-107349785D01*
X149674072Y-107177750D01*
X149674072Y-106690250D01*
X149657128Y-106518215D01*
X149606947Y-106352791D01*
X149525458Y-106200336D01*
X149415792Y-106066708D01*
X149282164Y-105957042D01*
X149129709Y-105875553D01*
X148964285Y-105825372D01*
X148792250Y-105808428D01*
X147879750Y-105808428D01*
X147707715Y-105825372D01*
X147542291Y-105875553D01*
X147389836Y-105957042D01*
X147256208Y-106066708D01*
X147208932Y-106124313D01*
X147194172Y-106106328D01*
X147078142Y-106011105D01*
X146945765Y-105940348D01*
X146802128Y-105896776D01*
X146690176Y-105885750D01*
X146690173Y-105885750D01*
X146652750Y-105882064D01*
X146615327Y-105885750D01*
X146438822Y-105885750D01*
X146438822Y-105572750D01*
X146426562Y-105448268D01*
X146426405Y-105447750D01*
X146426562Y-105447232D01*
X146438822Y-105322750D01*
X146438822Y-105009750D01*
X149525120Y-105009750D01*
X149860000Y-105344630D01*
X149860000Y-119164500D01*
X114300529Y-119164500D01*
X113934540Y-119128614D01*
X113613538Y-119031698D01*
X113317475Y-118874279D01*
X113057627Y-118662351D01*
X112843894Y-118403992D01*
X112684412Y-118109036D01*
X112585257Y-117788719D01*
X112547000Y-117424729D01*
X112547000Y-117335000D01*
X114233928Y-117335000D01*
X114246188Y-117459482D01*
X114282498Y-117579180D01*
X114341463Y-117689494D01*
X114420815Y-117786185D01*
X114517506Y-117865537D01*
X114627820Y-117924502D01*
X114747518Y-117960812D01*
X114872000Y-117973072D01*
X115486250Y-117970000D01*
X115645000Y-117811250D01*
X115645000Y-116912000D01*
X115899000Y-116912000D01*
X115899000Y-117811250D01*
X116057750Y-117970000D01*
X116672000Y-117973072D01*
X116796482Y-117960812D01*
X116916180Y-117924502D01*
X117026494Y-117865537D01*
X117123185Y-117786185D01*
X117202537Y-117689494D01*
X117261502Y-117579180D01*
X117297812Y-117459482D01*
X117310072Y-117335000D01*
X117307000Y-117070750D01*
X117148250Y-116912000D01*
X115899000Y-116912000D01*
X115645000Y-116912000D01*
X114395750Y-116912000D01*
X114237000Y-117070750D01*
X114233928Y-117335000D01*
X112547000Y-117335000D01*
X112547000Y-116235000D01*
X114233928Y-116235000D01*
X114237000Y-116499250D01*
X114395750Y-116658000D01*
X115645000Y-116658000D01*
X115645000Y-115758750D01*
X115899000Y-115758750D01*
X115899000Y-116658000D01*
X117148250Y-116658000D01*
X117307000Y-116499250D01*
X117310072Y-116235000D01*
X120433928Y-116235000D01*
X120433928Y-117335000D01*
X120446188Y-117459482D01*
X120482498Y-117579180D01*
X120541463Y-117689494D01*
X120620815Y-117786185D01*
X120717506Y-117865537D01*
X120827820Y-117924502D01*
X120947518Y-117960812D01*
X121072000Y-117973072D01*
X122872000Y-117973072D01*
X122996482Y-117960812D01*
X123116180Y-117924502D01*
X123226494Y-117865537D01*
X123323185Y-117786185D01*
X123402537Y-117689494D01*
X123461502Y-117579180D01*
X123497812Y-117459482D01*
X123510072Y-117335000D01*
X123510072Y-116235000D01*
X123497812Y-116110518D01*
X123461502Y-115990820D01*
X123402537Y-115880506D01*
X123323185Y-115783815D01*
X123226494Y-115704463D01*
X123116180Y-115645498D01*
X122996482Y-115609188D01*
X122872000Y-115596928D01*
X121072000Y-115596928D01*
X120947518Y-115609188D01*
X120827820Y-115645498D01*
X120717506Y-115704463D01*
X120620815Y-115783815D01*
X120541463Y-115880506D01*
X120482498Y-115990820D01*
X120446188Y-116110518D01*
X120433928Y-116235000D01*
X117310072Y-116235000D01*
X117297812Y-116110518D01*
X117261502Y-115990820D01*
X117202537Y-115880506D01*
X117123185Y-115783815D01*
X117026494Y-115704463D01*
X116916180Y-115645498D01*
X116796482Y-115609188D01*
X116672000Y-115596928D01*
X116057750Y-115600000D01*
X115899000Y-115758750D01*
X115645000Y-115758750D01*
X115486250Y-115600000D01*
X114872000Y-115596928D01*
X114747518Y-115609188D01*
X114627820Y-115645498D01*
X114517506Y-115704463D01*
X114420815Y-115783815D01*
X114341463Y-115880506D01*
X114282498Y-115990820D01*
X114246188Y-116110518D01*
X114233928Y-116235000D01*
X112547000Y-116235000D01*
X112547000Y-112535000D01*
X114233928Y-112535000D01*
X114233928Y-113635000D01*
X114246188Y-113759482D01*
X114282498Y-113879180D01*
X114341463Y-113989494D01*
X114420815Y-114086185D01*
X114517506Y-114165537D01*
X114627820Y-114224502D01*
X114747518Y-114260812D01*
X114872000Y-114273072D01*
X116672000Y-114273072D01*
X116796482Y-114260812D01*
X116916180Y-114224502D01*
X117026494Y-114165537D01*
X117123185Y-114086185D01*
X117202537Y-113989494D01*
X117261502Y-113879180D01*
X117297812Y-113759482D01*
X117310072Y-113635000D01*
X117310072Y-112535000D01*
X120433928Y-112535000D01*
X120433928Y-113635000D01*
X120446188Y-113759482D01*
X120482498Y-113879180D01*
X120541463Y-113989494D01*
X120620815Y-114086185D01*
X120717506Y-114165537D01*
X120827820Y-114224502D01*
X120947518Y-114260812D01*
X121072000Y-114273072D01*
X122872000Y-114273072D01*
X122996482Y-114260812D01*
X123116180Y-114224502D01*
X123226494Y-114165537D01*
X123323185Y-114086185D01*
X123402537Y-113989494D01*
X123440217Y-113919000D01*
X123758289Y-113919000D01*
X123800226Y-113960937D01*
X123969744Y-114074205D01*
X124158102Y-114152226D01*
X124358061Y-114192000D01*
X124561939Y-114192000D01*
X124761898Y-114152226D01*
X124950256Y-114074205D01*
X125119774Y-113960937D01*
X125263937Y-113816774D01*
X125377205Y-113647256D01*
X125455226Y-113458898D01*
X125495000Y-113258939D01*
X125495000Y-113055061D01*
X125455226Y-112855102D01*
X125377205Y-112666744D01*
X125263937Y-112497226D01*
X125131461Y-112364750D01*
X141938178Y-112364750D01*
X141950438Y-112489232D01*
X141986748Y-112608930D01*
X142045713Y-112719244D01*
X142125065Y-112815935D01*
X142221756Y-112895287D01*
X142332070Y-112954252D01*
X142451768Y-112990562D01*
X142576250Y-113002822D01*
X142778000Y-112999750D01*
X142936750Y-112841000D01*
X142936750Y-111791750D01*
X142100000Y-111791750D01*
X141941250Y-111950500D01*
X141938178Y-112364750D01*
X125131461Y-112364750D01*
X125119774Y-112353063D01*
X124950256Y-112239795D01*
X124761898Y-112161774D01*
X124561939Y-112122000D01*
X124358061Y-112122000D01*
X124158102Y-112161774D01*
X123969744Y-112239795D01*
X123800226Y-112353063D01*
X123758289Y-112395000D01*
X123493105Y-112395000D01*
X123461502Y-112290820D01*
X123402537Y-112180506D01*
X123323185Y-112083815D01*
X123226494Y-112004463D01*
X123116180Y-111945498D01*
X122996482Y-111909188D01*
X122872000Y-111896928D01*
X121072000Y-111896928D01*
X120947518Y-111909188D01*
X120827820Y-111945498D01*
X120717506Y-112004463D01*
X120620815Y-112083815D01*
X120541463Y-112180506D01*
X120482498Y-112290820D01*
X120446188Y-112410518D01*
X120433928Y-112535000D01*
X117310072Y-112535000D01*
X117297812Y-112410518D01*
X117261502Y-112290820D01*
X117202537Y-112180506D01*
X117123185Y-112083815D01*
X117026494Y-112004463D01*
X116916180Y-111945498D01*
X116796482Y-111909188D01*
X116672000Y-111896928D01*
X114872000Y-111896928D01*
X114747518Y-111909188D01*
X114627820Y-111945498D01*
X114517506Y-112004463D01*
X114420815Y-112083815D01*
X114341463Y-112180506D01*
X114282498Y-112290820D01*
X114246188Y-112410518D01*
X114233928Y-112535000D01*
X112547000Y-112535000D01*
X112547000Y-109677500D01*
X128836928Y-109677500D01*
X128849188Y-109801982D01*
X128885498Y-109921680D01*
X128944463Y-110031994D01*
X129023815Y-110128685D01*
X129120506Y-110208037D01*
X129230820Y-110267002D01*
X129350518Y-110303312D01*
X129475000Y-110315572D01*
X129889250Y-110312500D01*
X130048000Y-110153750D01*
X130048000Y-109317000D01*
X128998750Y-109317000D01*
X128840000Y-109475750D01*
X128836928Y-109677500D01*
X112547000Y-109677500D01*
X112547000Y-84138029D01*
X112582886Y-83772040D01*
X112679801Y-83451040D01*
X112837221Y-83154975D01*
X113049149Y-82895127D01*
X113307510Y-82681392D01*
X113602464Y-82521912D01*
X113922782Y-82422756D01*
X114286762Y-82384500D01*
X114752360Y-82384500D01*
X114710987Y-82520889D01*
G36*
X149860000Y-97902985D02*
G01*
X149685102Y-97937774D01*
X149496744Y-98015795D01*
X149488997Y-98020971D01*
X149447542Y-97970458D01*
X149441186Y-97965242D01*
X149518935Y-97901435D01*
X149598287Y-97804744D01*
X149657252Y-97694430D01*
X149693562Y-97574732D01*
X149705822Y-97450250D01*
X149702750Y-97248500D01*
X149544000Y-97089750D01*
X148494750Y-97089750D01*
X148494750Y-97109750D01*
X148240750Y-97109750D01*
X148240750Y-97089750D01*
X147191500Y-97089750D01*
X147032750Y-97248500D01*
X147029678Y-97450250D01*
X147041938Y-97574732D01*
X147078248Y-97694430D01*
X147137213Y-97804744D01*
X147216565Y-97901435D01*
X147294314Y-97965242D01*
X147287958Y-97970458D01*
X147178292Y-98104086D01*
X147096803Y-98256541D01*
X147046622Y-98421965D01*
X147029678Y-98594000D01*
X147029678Y-98622250D01*
X146435750Y-98622250D01*
X146435750Y-98520748D01*
X146277002Y-98520748D01*
X146435750Y-98362000D01*
X146425927Y-98245119D01*
X146389015Y-98125605D01*
X146329496Y-98015589D01*
X146249658Y-97919299D01*
X146152568Y-97840434D01*
X146041958Y-97782026D01*
X145922079Y-97746320D01*
X145797537Y-97734686D01*
X145336500Y-97737750D01*
X145177750Y-97896500D01*
X145177750Y-98520750D01*
X145197750Y-98520750D01*
X145197750Y-98534678D01*
X144300750Y-98534678D01*
X144176268Y-98546938D01*
X144056570Y-98583248D01*
X143946256Y-98642213D01*
X143849565Y-98721565D01*
X143770213Y-98818256D01*
X143757833Y-98841417D01*
X143665750Y-98933500D01*
X143675296Y-99047087D01*
X143674938Y-99048268D01*
X143662678Y-99172750D01*
X143662678Y-99722750D01*
X143674938Y-99847232D01*
X143675095Y-99847750D01*
X143674938Y-99848268D01*
X143662678Y-99972750D01*
X143662678Y-100522750D01*
X143674938Y-100647232D01*
X143675095Y-100647750D01*
X143674938Y-100648268D01*
X143662678Y-100772750D01*
X143662678Y-101322750D01*
X143674938Y-101447232D01*
X143675095Y-101447750D01*
X143674938Y-101448268D01*
X143662678Y-101572750D01*
X143662678Y-102122750D01*
X143674938Y-102247232D01*
X143675095Y-102247750D01*
X143674938Y-102248268D01*
X143662678Y-102372750D01*
X143662678Y-102922750D01*
X143674938Y-103047232D01*
X143675095Y-103047750D01*
X143674938Y-103048268D01*
X143662678Y-103172750D01*
X143662678Y-103722750D01*
X143674938Y-103847232D01*
X143675095Y-103847750D01*
X143674938Y-103848268D01*
X143662678Y-103972750D01*
X143662678Y-104522750D01*
X143674938Y-104647232D01*
X143675095Y-104647750D01*
X143674938Y-104648268D01*
X143662678Y-104772750D01*
X143662678Y-105322750D01*
X143674938Y-105447232D01*
X143675095Y-105447750D01*
X143674938Y-105448268D01*
X143662678Y-105572750D01*
X143662678Y-106122750D01*
X143674938Y-106247232D01*
X143675095Y-106247750D01*
X143674938Y-106248268D01*
X143662678Y-106372750D01*
X143662678Y-106922750D01*
X143666712Y-106963712D01*
X143625750Y-106959678D01*
X143075750Y-106959678D01*
X142951268Y-106971938D01*
X142950087Y-106972296D01*
X142836500Y-106962750D01*
X142744417Y-107054833D01*
X142721256Y-107067213D01*
X142624565Y-107146565D01*
X142550750Y-107236509D01*
X142476935Y-107146565D01*
X142380244Y-107067213D01*
X142357083Y-107054833D01*
X142265000Y-106962750D01*
X142151413Y-106972296D01*
X142150232Y-106971938D01*
X142025750Y-106959678D01*
X141475750Y-106959678D01*
X141351268Y-106971938D01*
X141350750Y-106972095D01*
X141350232Y-106971938D01*
X141225750Y-106959678D01*
X140675750Y-106959678D01*
X140551268Y-106971938D01*
X140550750Y-106972095D01*
X140550232Y-106971938D01*
X140425750Y-106959678D01*
X139875750Y-106959678D01*
X139751268Y-106971938D01*
X139750750Y-106972095D01*
X139750232Y-106971938D01*
X139625750Y-106959678D01*
X139075750Y-106959678D01*
X138951268Y-106971938D01*
X138950750Y-106972095D01*
X138950232Y-106971938D01*
X138825750Y-106959678D01*
X138275750Y-106959678D01*
X138151268Y-106971938D01*
X138150750Y-106972095D01*
X138150232Y-106971938D01*
X138025750Y-106959678D01*
X137475750Y-106959678D01*
X137351268Y-106971938D01*
X137350750Y-106972095D01*
X137350232Y-106971938D01*
X137225750Y-106959678D01*
X136675750Y-106959678D01*
X136551268Y-106971938D01*
X136550087Y-106972296D01*
X136436500Y-106962750D01*
X136344417Y-107054833D01*
X136321256Y-107067213D01*
X136224565Y-107146565D01*
X136150750Y-107236509D01*
X136076935Y-107146565D01*
X135980244Y-107067213D01*
X135957083Y-107054833D01*
X135865000Y-106962750D01*
X135751413Y-106972296D01*
X135750232Y-106971938D01*
X135625750Y-106959678D01*
X135075750Y-106959678D01*
X135034788Y-106963712D01*
X135038822Y-106922750D01*
X135038822Y-106372750D01*
X135026562Y-106248268D01*
X135026405Y-106247750D01*
X135026562Y-106247232D01*
X135038822Y-106122750D01*
X135038822Y-105572750D01*
X135026562Y-105448268D01*
X135026405Y-105447750D01*
X135026562Y-105447232D01*
X135038822Y-105322750D01*
X135038822Y-104772750D01*
X135026562Y-104648268D01*
X135026405Y-104647750D01*
X135026562Y-104647232D01*
X135038822Y-104522750D01*
X135038822Y-103972750D01*
X135026562Y-103848268D01*
X135026204Y-103847087D01*
X135035750Y-103733500D01*
X134943667Y-103641417D01*
X134931287Y-103618256D01*
X134851935Y-103521565D01*
X134761991Y-103447750D01*
X134851935Y-103373935D01*
X134931287Y-103277244D01*
X134943667Y-103254083D01*
X135035750Y-103162000D01*
X135026204Y-103048413D01*
X135026562Y-103047232D01*
X135038822Y-102922750D01*
X135038822Y-102372750D01*
X135026562Y-102248268D01*
X135026405Y-102247750D01*
X135026562Y-102247232D01*
X135038822Y-102122750D01*
X135038822Y-101572750D01*
X135026562Y-101448268D01*
X135026405Y-101447750D01*
X135026562Y-101447232D01*
X135038822Y-101322750D01*
X135038822Y-100772750D01*
X135026562Y-100648268D01*
X135026405Y-100647750D01*
X135026562Y-100647232D01*
X135038822Y-100522750D01*
X135038822Y-99972750D01*
X135026562Y-99848268D01*
X135026405Y-99847750D01*
X135026562Y-99847232D01*
X135038822Y-99722750D01*
X135038822Y-99172750D01*
X135026562Y-99048268D01*
X135026405Y-99047750D01*
X135026562Y-99047232D01*
X135038822Y-98922750D01*
X135038822Y-98372750D01*
X135034788Y-98331788D01*
X135075750Y-98335822D01*
X135625750Y-98335822D01*
X135750232Y-98323562D01*
X135750750Y-98323405D01*
X135751268Y-98323562D01*
X135875750Y-98335822D01*
X136425750Y-98335822D01*
X136550232Y-98323562D01*
X136550750Y-98323405D01*
X136551268Y-98323562D01*
X136675750Y-98335822D01*
X137225750Y-98335822D01*
X137350232Y-98323562D01*
X137351413Y-98323204D01*
X137465000Y-98332750D01*
X137557083Y-98240667D01*
X137580244Y-98228287D01*
X137676935Y-98148935D01*
X137750750Y-98058991D01*
X137824565Y-98148935D01*
X137921256Y-98228287D01*
X137944417Y-98240667D01*
X138036500Y-98332750D01*
X138150087Y-98323204D01*
X138151268Y-98323562D01*
X138275750Y-98335822D01*
X138825750Y-98335822D01*
X138950232Y-98323562D01*
X138950750Y-98323405D01*
X138951268Y-98323562D01*
X139075750Y-98335822D01*
X139625750Y-98335822D01*
X139750232Y-98323562D01*
X139750750Y-98323405D01*
X139751268Y-98323562D01*
X139875750Y-98335822D01*
X140425750Y-98335822D01*
X140550232Y-98323562D01*
X140550750Y-98323405D01*
X140551268Y-98323562D01*
X140675750Y-98335822D01*
X141225750Y-98335822D01*
X141350232Y-98323562D01*
X141350750Y-98323405D01*
X141351268Y-98323562D01*
X141475750Y-98335822D01*
X142025750Y-98335822D01*
X142150232Y-98323562D01*
X142150750Y-98323405D01*
X142151268Y-98323562D01*
X142275750Y-98335822D01*
X142825750Y-98335822D01*
X142950232Y-98323562D01*
X142950750Y-98323405D01*
X142951268Y-98323562D01*
X143075750Y-98335822D01*
X143625750Y-98335822D01*
X143668302Y-98331631D01*
X143665750Y-98362000D01*
X143824500Y-98520750D01*
X144923750Y-98520750D01*
X144923750Y-97896500D01*
X144765000Y-97737750D01*
X144303963Y-97734686D01*
X144259778Y-97738814D01*
X144263822Y-97697750D01*
X144263822Y-96475250D01*
X147029678Y-96475250D01*
X147032750Y-96677000D01*
X147191500Y-96835750D01*
X148240750Y-96835750D01*
X148240750Y-95999000D01*
X148494750Y-95999000D01*
X148494750Y-96835750D01*
X149544000Y-96835750D01*
X149702750Y-96677000D01*
X149705822Y-96475250D01*
X149693562Y-96350768D01*
X149657252Y-96231070D01*
X149598287Y-96120756D01*
X149518935Y-96024065D01*
X149422244Y-95944713D01*
X149311930Y-95885748D01*
X149192232Y-95849438D01*
X149067750Y-95837178D01*
X148653500Y-95840250D01*
X148494750Y-95999000D01*
X148240750Y-95999000D01*
X148082000Y-95840250D01*
X147667750Y-95837178D01*
X147543268Y-95849438D01*
X147423570Y-95885748D01*
X147313256Y-95944713D01*
X147216565Y-96024065D01*
X147137213Y-96120756D01*
X147078248Y-96231070D01*
X147041938Y-96350768D01*
X147029678Y-96475250D01*
X144263822Y-96475250D01*
X144263822Y-96197750D01*
X144251562Y-96073268D01*
X144215252Y-95953570D01*
X144156287Y-95843256D01*
X144076935Y-95746565D01*
X143980244Y-95667213D01*
X143869930Y-95608248D01*
X143750232Y-95571938D01*
X143625750Y-95559678D01*
X143075750Y-95559678D01*
X142951268Y-95571938D01*
X142950750Y-95572095D01*
X142950232Y-95571938D01*
X142825750Y-95559678D01*
X142275750Y-95559678D01*
X142151268Y-95571938D01*
X142150750Y-95572095D01*
X142150232Y-95571938D01*
X142025750Y-95559678D01*
X141475750Y-95559678D01*
X141351268Y-95571938D01*
X141350750Y-95572095D01*
X141350232Y-95571938D01*
X141225750Y-95559678D01*
X140675750Y-95559678D01*
X140551268Y-95571938D01*
X140550750Y-95572095D01*
X140550232Y-95571938D01*
X140425750Y-95559678D01*
X140112750Y-95559678D01*
X140112750Y-92813380D01*
X140963102Y-91963029D01*
X140992172Y-91939172D01*
X141056240Y-91861105D01*
X141087395Y-91823143D01*
X141109481Y-91781822D01*
X141150750Y-91781822D01*
X141275232Y-91769562D01*
X141394930Y-91733252D01*
X141505244Y-91674287D01*
X141601935Y-91594935D01*
X141681287Y-91498244D01*
X141740252Y-91387930D01*
X141753351Y-91344750D01*
X142502547Y-91344750D01*
X142588958Y-91450042D01*
X142722586Y-91559708D01*
X142875041Y-91641197D01*
X143040465Y-91691378D01*
X143212500Y-91708322D01*
X144125000Y-91708322D01*
X144297035Y-91691378D01*
X144462459Y-91641197D01*
X144614914Y-91559708D01*
X144748542Y-91450042D01*
X144858208Y-91316414D01*
X144939697Y-91163959D01*
X144989878Y-90998535D01*
X145006822Y-90826500D01*
X145006822Y-90339000D01*
X144989878Y-90166965D01*
X144939697Y-90001541D01*
X144858208Y-89849086D01*
X144748542Y-89715458D01*
X144742186Y-89710242D01*
X144819935Y-89646435D01*
X144899287Y-89549744D01*
X144958252Y-89439430D01*
X144994562Y-89319732D01*
X145006822Y-89195250D01*
X145003750Y-88993500D01*
X144845000Y-88834750D01*
X143795750Y-88834750D01*
X143795750Y-88854750D01*
X143541750Y-88854750D01*
X143541750Y-88834750D01*
X142492500Y-88834750D01*
X142333750Y-88993500D01*
X142330678Y-89195250D01*
X142342938Y-89319732D01*
X142379248Y-89439430D01*
X142438213Y-89549744D01*
X142517565Y-89646435D01*
X142595314Y-89710242D01*
X142588958Y-89715458D01*
X142502547Y-89820750D01*
X141776708Y-89820750D01*
X141776562Y-89819268D01*
X141740252Y-89699570D01*
X141737141Y-89693750D01*
X141740252Y-89687930D01*
X141776562Y-89568232D01*
X141788822Y-89443750D01*
X141785750Y-89129500D01*
X141627000Y-88970750D01*
X140577750Y-88970750D01*
X140577750Y-88990750D01*
X140323750Y-88990750D01*
X140323750Y-88970750D01*
X140303750Y-88970750D01*
X140303750Y-88716750D01*
X140323750Y-88716750D01*
X140323750Y-87767500D01*
X140577750Y-87767500D01*
X140577750Y-88716750D01*
X141627000Y-88716750D01*
X141785750Y-88558000D01*
X141788822Y-88243750D01*
X141786508Y-88220250D01*
X142330678Y-88220250D01*
X142333750Y-88422000D01*
X142492500Y-88580750D01*
X143541750Y-88580750D01*
X143541750Y-87744000D01*
X143795750Y-87744000D01*
X143795750Y-88580750D01*
X144845000Y-88580750D01*
X145003750Y-88422000D01*
X145006822Y-88220250D01*
X144994562Y-88095768D01*
X144958252Y-87976070D01*
X144899287Y-87865756D01*
X144819935Y-87769065D01*
X144723244Y-87689713D01*
X144612930Y-87630748D01*
X144493232Y-87594438D01*
X144368750Y-87582178D01*
X143954500Y-87585250D01*
X143795750Y-87744000D01*
X143541750Y-87744000D01*
X143383000Y-87585250D01*
X142968750Y-87582178D01*
X142844268Y-87594438D01*
X142724570Y-87630748D01*
X142614256Y-87689713D01*
X142517565Y-87769065D01*
X142438213Y-87865756D01*
X142379248Y-87976070D01*
X142342938Y-88095768D01*
X142330678Y-88220250D01*
X141786508Y-88220250D01*
X141776562Y-88119268D01*
X141740252Y-87999570D01*
X141681287Y-87889256D01*
X141601935Y-87792565D01*
X141505244Y-87713213D01*
X141394930Y-87654248D01*
X141275232Y-87617938D01*
X141150750Y-87605678D01*
X140736500Y-87608750D01*
X140577750Y-87767500D01*
X140323750Y-87767500D01*
X140165000Y-87608750D01*
X139750750Y-87605678D01*
X139626268Y-87617938D01*
X139506570Y-87654248D01*
X139396256Y-87713213D01*
X139350750Y-87750559D01*
X139305244Y-87713213D01*
X139194930Y-87654248D01*
X139075232Y-87617938D01*
X138950750Y-87605678D01*
X137550750Y-87605678D01*
X137426268Y-87617938D01*
X137306570Y-87654248D01*
X137196256Y-87713213D01*
X137099565Y-87792565D01*
X137020213Y-87889256D01*
X136961248Y-87999570D01*
X136936319Y-88081750D01*
X136100908Y-88081750D01*
X136095208Y-88071086D01*
X135985542Y-87937458D01*
X135851914Y-87827792D01*
X135699459Y-87746303D01*
X135534035Y-87696122D01*
X135362000Y-87679178D01*
X134449500Y-87679178D01*
X134277465Y-87696122D01*
X134112041Y-87746303D01*
X133959586Y-87827792D01*
X133825958Y-87937458D01*
X133716292Y-88071086D01*
X133634803Y-88223541D01*
X133584622Y-88388965D01*
X133567678Y-88561000D01*
X133567678Y-89048500D01*
X133584622Y-89220535D01*
X133634803Y-89385959D01*
X133716292Y-89538414D01*
X133825958Y-89672042D01*
X133832314Y-89677258D01*
X133754565Y-89741065D01*
X133675213Y-89837756D01*
X133616248Y-89948070D01*
X133579938Y-90067768D01*
X133567678Y-90192250D01*
X133570750Y-90394000D01*
X133729500Y-90552750D01*
X134778750Y-90552750D01*
X134778750Y-90532750D01*
X135032750Y-90532750D01*
X135032750Y-90552750D01*
X135052750Y-90552750D01*
X135052750Y-90806750D01*
X135032750Y-90806750D01*
X135032750Y-91643500D01*
X135191500Y-91802250D01*
X135605750Y-91805322D01*
X135730232Y-91793062D01*
X135849930Y-91756752D01*
X135890001Y-91735333D01*
X135890001Y-92244199D01*
X135886314Y-92281632D01*
X135901027Y-92431010D01*
X135944599Y-92574647D01*
X136015355Y-92707024D01*
X136084080Y-92790765D01*
X136110579Y-92823054D01*
X136139649Y-92846911D01*
X137788750Y-94496013D01*
X137788751Y-95790205D01*
X137778821Y-95802304D01*
X137776250Y-95776197D01*
X137764306Y-95654924D01*
X137717103Y-95499316D01*
X137697878Y-95463349D01*
X137640449Y-95355907D01*
X137563142Y-95261708D01*
X137563139Y-95261705D01*
X137537291Y-95230209D01*
X137505795Y-95204361D01*
X136986887Y-94685455D01*
X136961031Y-94653949D01*
X136835332Y-94550791D01*
X136691924Y-94474137D01*
X136536316Y-94426934D01*
X136415043Y-94414990D01*
X136415040Y-94414990D01*
X136374490Y-94410996D01*
X136333940Y-94414990D01*
X133430191Y-94414990D01*
X133389641Y-94410996D01*
X133349090Y-94414990D01*
X133349088Y-94414990D01*
X133227815Y-94426934D01*
X133072207Y-94474137D01*
X132928799Y-94550791D01*
X132889247Y-94583250D01*
X132686090Y-94583250D01*
X132651792Y-94541458D01*
X132645436Y-94536242D01*
X132723185Y-94472435D01*
X132802537Y-94375744D01*
X132861502Y-94265430D01*
X132897812Y-94145732D01*
X132910072Y-94021250D01*
X132907000Y-93819500D01*
X132748250Y-93660750D01*
X131699000Y-93660750D01*
X131699000Y-93680750D01*
X131445000Y-93680750D01*
X131445000Y-93660750D01*
X131425000Y-93660750D01*
X131425000Y-93406750D01*
X131445000Y-93406750D01*
X131445000Y-92570000D01*
X131699000Y-92570000D01*
X131699000Y-93406750D01*
X132748250Y-93406750D01*
X132907000Y-93248000D01*
X132910072Y-93046250D01*
X132897812Y-92921768D01*
X132861502Y-92802070D01*
X132802537Y-92691756D01*
X132723185Y-92595065D01*
X132626494Y-92515713D01*
X132516180Y-92456748D01*
X132396482Y-92420438D01*
X132272000Y-92408178D01*
X131857750Y-92411250D01*
X131699000Y-92570000D01*
X131445000Y-92570000D01*
X131286250Y-92411250D01*
X130872000Y-92408178D01*
X130747518Y-92420438D01*
X130627820Y-92456748D01*
X130517506Y-92515713D01*
X130420815Y-92595065D01*
X130341463Y-92691756D01*
X130282498Y-92802070D01*
X130246188Y-92921768D01*
X130233928Y-93046250D01*
X130234576Y-93088835D01*
X130149939Y-93072000D01*
X129946061Y-93072000D01*
X129746102Y-93111774D01*
X129596617Y-93173693D01*
X129591128Y-93117965D01*
X129540947Y-92952541D01*
X129459458Y-92800086D01*
X129349792Y-92666458D01*
X129216164Y-92556792D01*
X129063709Y-92475303D01*
X128898285Y-92425122D01*
X128726250Y-92408178D01*
X127813750Y-92408178D01*
X127641715Y-92425122D01*
X127476291Y-92475303D01*
X127323836Y-92556792D01*
X127190208Y-92666458D01*
X127080542Y-92800086D01*
X126999053Y-92952541D01*
X126948872Y-93117965D01*
X126931928Y-93290000D01*
X126931928Y-93777500D01*
X126948872Y-93949535D01*
X126999053Y-94114959D01*
X127080542Y-94267414D01*
X127190208Y-94401042D01*
X127275756Y-94471250D01*
X127190208Y-94541458D01*
X127137508Y-94605673D01*
X127109256Y-94586795D01*
X126920898Y-94508774D01*
X126720939Y-94469000D01*
X126517061Y-94469000D01*
X126317102Y-94508774D01*
X126128744Y-94586795D01*
X125959226Y-94700063D01*
X125815063Y-94844226D01*
X125701795Y-95013744D01*
X125623774Y-95202102D01*
X125584000Y-95402061D01*
X125584000Y-95605939D01*
X125623774Y-95805898D01*
X125701795Y-95994256D01*
X125815063Y-96163774D01*
X125959226Y-96307937D01*
X126128744Y-96421205D01*
X126317102Y-96499226D01*
X126517061Y-96539000D01*
X126720939Y-96539000D01*
X126920898Y-96499226D01*
X127109256Y-96421205D01*
X127251378Y-96326243D01*
X127323836Y-96385708D01*
X127476291Y-96467197D01*
X127641715Y-96517378D01*
X127813750Y-96534322D01*
X127884580Y-96534322D01*
X127887329Y-96537672D01*
X127916399Y-96561529D01*
X128514220Y-97159351D01*
X128538078Y-97188422D01*
X128654108Y-97283645D01*
X128786485Y-97354402D01*
X128930122Y-97397974D01*
X129042074Y-97409000D01*
X129042083Y-97409000D01*
X129079499Y-97412685D01*
X129116915Y-97409000D01*
X132677577Y-97409000D01*
X132715000Y-97412686D01*
X132752423Y-97409000D01*
X132752426Y-97409000D01*
X132864378Y-97397974D01*
X133008015Y-97354402D01*
X133140392Y-97283645D01*
X133256422Y-97188422D01*
X133280284Y-97159347D01*
X133919631Y-96520000D01*
X134437678Y-96520000D01*
X134437678Y-97697750D01*
X134441712Y-97738712D01*
X134400750Y-97734678D01*
X132900750Y-97734678D01*
X132776268Y-97746938D01*
X132656570Y-97783248D01*
X132546256Y-97842213D01*
X132449565Y-97921565D01*
X132370213Y-98018256D01*
X132311248Y-98128570D01*
X132274938Y-98248268D01*
X132262678Y-98372750D01*
X132262678Y-98922750D01*
X132274938Y-99047232D01*
X132275095Y-99047750D01*
X132274938Y-99048268D01*
X132262678Y-99172750D01*
X132262678Y-99722750D01*
X132274938Y-99847232D01*
X132275095Y-99847750D01*
X132274938Y-99848268D01*
X132262678Y-99972750D01*
X132262678Y-100353997D01*
X132254898Y-100350774D01*
X132054939Y-100311000D01*
X131851061Y-100311000D01*
X131651102Y-100350774D01*
X131462744Y-100428795D01*
X131293226Y-100542063D01*
X131149063Y-100686226D01*
X131126318Y-100720267D01*
X131107209Y-100710053D01*
X130941785Y-100659872D01*
X130769750Y-100642928D01*
X130282250Y-100642928D01*
X130110215Y-100659872D01*
X129944791Y-100710053D01*
X129792336Y-100791542D01*
X129658708Y-100901208D01*
X129653492Y-100907564D01*
X129589685Y-100829815D01*
X129492994Y-100750463D01*
X129382680Y-100691498D01*
X129262982Y-100655188D01*
X129138500Y-100642928D01*
X128936750Y-100646000D01*
X128778000Y-100804750D01*
X128778000Y-101854000D01*
X128798000Y-101854000D01*
X128798000Y-102108000D01*
X128778000Y-102108000D01*
X128778000Y-103157250D01*
X128936750Y-103316000D01*
X129138500Y-103319072D01*
X129262982Y-103306812D01*
X129382680Y-103270502D01*
X129492994Y-103211537D01*
X129589685Y-103132185D01*
X129653492Y-103054436D01*
X129658708Y-103060792D01*
X129792336Y-103170458D01*
X129944791Y-103251947D01*
X130110215Y-103302128D01*
X130282250Y-103319072D01*
X130769750Y-103319072D01*
X130822512Y-103313875D01*
X130899735Y-103355152D01*
X131043372Y-103398724D01*
X131155324Y-103409750D01*
X131155327Y-103409750D01*
X131192750Y-103413436D01*
X131230173Y-103409750D01*
X132493206Y-103409750D01*
X132539509Y-103447750D01*
X132493206Y-103485750D01*
X123994380Y-103485750D01*
X123189630Y-102681000D01*
X127525428Y-102681000D01*
X127537688Y-102805482D01*
X127573998Y-102925180D01*
X127632963Y-103035494D01*
X127712315Y-103132185D01*
X127809006Y-103211537D01*
X127919320Y-103270502D01*
X128039018Y-103306812D01*
X128163500Y-103319072D01*
X128365250Y-103316000D01*
X128524000Y-103157250D01*
X128524000Y-102108000D01*
X127687250Y-102108000D01*
X127528500Y-102266750D01*
X127525428Y-102681000D01*
X123189630Y-102681000D01*
X121789630Y-101281000D01*
X127525428Y-101281000D01*
X127528500Y-101695250D01*
X127687250Y-101854000D01*
X128524000Y-101854000D01*
X128524000Y-100804750D01*
X128365250Y-100646000D01*
X128163500Y-100642928D01*
X128039018Y-100655188D01*
X127919320Y-100691498D01*
X127809006Y-100750463D01*
X127712315Y-100829815D01*
X127632963Y-100926506D01*
X127573998Y-101036820D01*
X127537688Y-101156518D01*
X127525428Y-101281000D01*
X121789630Y-101281000D01*
X121031000Y-100522370D01*
X121031000Y-97216630D01*
X121511601Y-96736030D01*
X121540672Y-96712172D01*
X121620348Y-96615086D01*
X121627535Y-96614378D01*
X121792959Y-96564197D01*
X121945414Y-96482708D01*
X122079042Y-96373042D01*
X122188708Y-96239414D01*
X122270197Y-96086959D01*
X122320378Y-95921535D01*
X122337322Y-95749500D01*
X122337322Y-95262000D01*
X122320378Y-95089965D01*
X122270197Y-94924541D01*
X122188708Y-94772086D01*
X122079042Y-94638458D01*
X121993494Y-94568250D01*
X122079042Y-94498042D01*
X122188708Y-94364414D01*
X122270197Y-94211959D01*
X122320378Y-94046535D01*
X122337322Y-93874500D01*
X122337322Y-93387000D01*
X122320378Y-93214965D01*
X122270197Y-93049541D01*
X122188708Y-92897086D01*
X122079042Y-92763458D01*
X121945414Y-92653792D01*
X121792959Y-92572303D01*
X121627535Y-92522122D01*
X121455500Y-92505178D01*
X120951309Y-92505178D01*
X120586500Y-92140370D01*
X120586500Y-91167250D01*
X133567678Y-91167250D01*
X133579938Y-91291732D01*
X133616248Y-91411430D01*
X133675213Y-91521744D01*
X133754565Y-91618435D01*
X133851256Y-91697787D01*
X133961570Y-91756752D01*
X134081268Y-91793062D01*
X134205750Y-91805322D01*
X134620000Y-91802250D01*
X134778750Y-91643500D01*
X134778750Y-90806750D01*
X133729500Y-90806750D01*
X133570750Y-90965500D01*
X133567678Y-91167250D01*
X120586500Y-91167250D01*
X120586500Y-89575072D01*
X120874500Y-89575072D01*
X120998982Y-89562812D01*
X121023766Y-89555294D01*
X121043139Y-89561404D01*
X121142750Y-89572000D01*
X121301500Y-89413250D01*
X121301500Y-89408033D01*
X121325685Y-89388185D01*
X121405037Y-89291494D01*
X121464002Y-89181180D01*
X121500312Y-89061482D01*
X121512572Y-88937000D01*
X121512572Y-86687000D01*
X121500312Y-86562518D01*
X121464002Y-86442820D01*
X121405037Y-86332506D01*
X121325685Y-86235815D01*
X121301500Y-86215967D01*
X121301500Y-86210750D01*
X121142750Y-86052000D01*
X121043139Y-86062596D01*
X121023766Y-86068706D01*
X120998982Y-86061188D01*
X120874500Y-86048928D01*
X120374500Y-86048928D01*
X120250018Y-86061188D01*
X120224500Y-86068929D01*
X120198982Y-86061188D01*
X120074500Y-86048928D01*
X119574500Y-86048928D01*
X119450018Y-86061188D01*
X119424500Y-86068929D01*
X119398982Y-86061188D01*
X119274500Y-86048928D01*
X118774500Y-86048928D01*
X118650018Y-86061188D01*
X118624500Y-86068929D01*
X118598982Y-86061188D01*
X118474500Y-86048928D01*
X117974500Y-86048928D01*
X117850018Y-86061188D01*
X117730320Y-86097498D01*
X117620006Y-86156463D01*
X117523315Y-86235815D01*
X117443963Y-86332506D01*
X117384998Y-86442820D01*
X117384254Y-86445271D01*
X117229634Y-86256866D01*
X117003514Y-86071294D01*
X116936500Y-86035474D01*
X116936500Y-85088525D01*
X117003513Y-85052706D01*
X117229634Y-84867134D01*
X117415206Y-84641014D01*
X117553099Y-84383034D01*
X117638013Y-84103111D01*
X117640880Y-84074000D01*
X122008120Y-84074000D01*
X122010987Y-84103110D01*
X122095901Y-84383033D01*
X122233794Y-84641013D01*
X122419366Y-84867134D01*
X122645486Y-85052706D01*
X122712500Y-85088526D01*
X122712501Y-86035475D01*
X122645487Y-86071294D01*
X122419367Y-86256866D01*
X122264623Y-86445421D01*
X122208906Y-86338366D01*
X122130623Y-86240807D01*
X122034811Y-86160396D01*
X121925152Y-86100221D01*
X121805861Y-86062596D01*
X121706250Y-86052000D01*
X121547500Y-86210750D01*
X121547500Y-87685000D01*
X121571500Y-87685000D01*
X121571500Y-87939000D01*
X121547500Y-87939000D01*
X121547500Y-89413250D01*
X121706250Y-89572000D01*
X121805861Y-89561404D01*
X121925152Y-89523779D01*
X122034811Y-89463604D01*
X122130623Y-89383193D01*
X122208906Y-89285634D01*
X122264623Y-89178578D01*
X122419366Y-89367134D01*
X122645486Y-89552706D01*
X122903466Y-89690599D01*
X123183389Y-89775513D01*
X123474500Y-89804185D01*
X123765610Y-89775513D01*
X124045533Y-89690599D01*
X124303513Y-89552706D01*
X124529634Y-89367134D01*
X124715206Y-89141014D01*
X124853099Y-88883034D01*
X124938013Y-88603111D01*
X124959500Y-88384950D01*
X124959500Y-87239050D01*
X124938013Y-87020889D01*
X124853099Y-86740966D01*
X124715206Y-86482986D01*
X124529634Y-86256866D01*
X124303514Y-86071294D01*
X124236500Y-86035474D01*
X124236500Y-85088525D01*
X124303513Y-85052706D01*
X124529634Y-84867134D01*
X124715206Y-84641014D01*
X124853099Y-84383034D01*
X124938013Y-84103111D01*
X124959500Y-83884950D01*
X124959500Y-82739050D01*
X124938013Y-82520889D01*
X124896640Y-82384500D01*
X149860000Y-82384500D01*
X149860000Y-97902985D01*
X149860000Y-97902985D01*
G37*
X149860000Y-97902985D02*
X149685102Y-97937774D01*
X149496744Y-98015795D01*
X149488997Y-98020971D01*
X149447542Y-97970458D01*
X149441186Y-97965242D01*
X149518935Y-97901435D01*
X149598287Y-97804744D01*
X149657252Y-97694430D01*
X149693562Y-97574732D01*
X149705822Y-97450250D01*
X149702750Y-97248500D01*
X149544000Y-97089750D01*
X148494750Y-97089750D01*
X148494750Y-97109750D01*
X148240750Y-97109750D01*
X148240750Y-97089750D01*
X147191500Y-97089750D01*
X147032750Y-97248500D01*
X147029678Y-97450250D01*
X147041938Y-97574732D01*
X147078248Y-97694430D01*
X147137213Y-97804744D01*
X147216565Y-97901435D01*
X147294314Y-97965242D01*
X147287958Y-97970458D01*
X147178292Y-98104086D01*
X147096803Y-98256541D01*
X147046622Y-98421965D01*
X147029678Y-98594000D01*
X147029678Y-98622250D01*
X146435750Y-98622250D01*
X146435750Y-98520748D01*
X146277002Y-98520748D01*
X146435750Y-98362000D01*
X146425927Y-98245119D01*
X146389015Y-98125605D01*
X146329496Y-98015589D01*
X146249658Y-97919299D01*
X146152568Y-97840434D01*
X146041958Y-97782026D01*
X145922079Y-97746320D01*
X145797537Y-97734686D01*
X145336500Y-97737750D01*
X145177750Y-97896500D01*
X145177750Y-98520750D01*
X145197750Y-98520750D01*
X145197750Y-98534678D01*
X144300750Y-98534678D01*
X144176268Y-98546938D01*
X144056570Y-98583248D01*
X143946256Y-98642213D01*
X143849565Y-98721565D01*
X143770213Y-98818256D01*
X143757833Y-98841417D01*
X143665750Y-98933500D01*
X143675296Y-99047087D01*
X143674938Y-99048268D01*
X143662678Y-99172750D01*
X143662678Y-99722750D01*
X143674938Y-99847232D01*
X143675095Y-99847750D01*
X143674938Y-99848268D01*
X143662678Y-99972750D01*
X143662678Y-100522750D01*
X143674938Y-100647232D01*
X143675095Y-100647750D01*
X143674938Y-100648268D01*
X143662678Y-100772750D01*
X143662678Y-101322750D01*
X143674938Y-101447232D01*
X143675095Y-101447750D01*
X143674938Y-101448268D01*
X143662678Y-101572750D01*
X143662678Y-102122750D01*
X143674938Y-102247232D01*
X143675095Y-102247750D01*
X143674938Y-102248268D01*
X143662678Y-102372750D01*
X143662678Y-102922750D01*
X143674938Y-103047232D01*
X143675095Y-103047750D01*
X143674938Y-103048268D01*
X143662678Y-103172750D01*
X143662678Y-103722750D01*
X143674938Y-103847232D01*
X143675095Y-103847750D01*
X143674938Y-103848268D01*
X143662678Y-103972750D01*
X143662678Y-104522750D01*
X143674938Y-104647232D01*
X143675095Y-104647750D01*
X143674938Y-104648268D01*
X143662678Y-104772750D01*
X143662678Y-105322750D01*
X143674938Y-105447232D01*
X143675095Y-105447750D01*
X143674938Y-105448268D01*
X143662678Y-105572750D01*
X143662678Y-106122750D01*
X143674938Y-106247232D01*
X143675095Y-106247750D01*
X143674938Y-106248268D01*
X143662678Y-106372750D01*
X143662678Y-106922750D01*
X143666712Y-106963712D01*
X143625750Y-106959678D01*
X143075750Y-106959678D01*
X142951268Y-106971938D01*
X142950087Y-106972296D01*
X142836500Y-106962750D01*
X142744417Y-107054833D01*
X142721256Y-107067213D01*
X142624565Y-107146565D01*
X142550750Y-107236509D01*
X142476935Y-107146565D01*
X142380244Y-107067213D01*
X142357083Y-107054833D01*
X142265000Y-106962750D01*
X142151413Y-106972296D01*
X142150232Y-106971938D01*
X142025750Y-106959678D01*
X141475750Y-106959678D01*
X141351268Y-106971938D01*
X141350750Y-106972095D01*
X141350232Y-106971938D01*
X141225750Y-106959678D01*
X140675750Y-106959678D01*
X140551268Y-106971938D01*
X140550750Y-106972095D01*
X140550232Y-106971938D01*
X140425750Y-106959678D01*
X139875750Y-106959678D01*
X139751268Y-106971938D01*
X139750750Y-106972095D01*
X139750232Y-106971938D01*
X139625750Y-106959678D01*
X139075750Y-106959678D01*
X138951268Y-106971938D01*
X138950750Y-106972095D01*
X138950232Y-106971938D01*
X138825750Y-106959678D01*
X138275750Y-106959678D01*
X138151268Y-106971938D01*
X138150750Y-106972095D01*
X138150232Y-106971938D01*
X138025750Y-106959678D01*
X137475750Y-106959678D01*
X137351268Y-106971938D01*
X137350750Y-106972095D01*
X137350232Y-106971938D01*
X137225750Y-106959678D01*
X136675750Y-106959678D01*
X136551268Y-106971938D01*
X136550087Y-106972296D01*
X136436500Y-106962750D01*
X136344417Y-107054833D01*
X136321256Y-107067213D01*
X136224565Y-107146565D01*
X136150750Y-107236509D01*
X136076935Y-107146565D01*
X135980244Y-107067213D01*
X135957083Y-107054833D01*
X135865000Y-106962750D01*
X135751413Y-106972296D01*
X135750232Y-106971938D01*
X135625750Y-106959678D01*
X135075750Y-106959678D01*
X135034788Y-106963712D01*
X135038822Y-106922750D01*
X135038822Y-106372750D01*
X135026562Y-106248268D01*
X135026405Y-106247750D01*
X135026562Y-106247232D01*
X135038822Y-106122750D01*
X135038822Y-105572750D01*
X135026562Y-105448268D01*
X135026405Y-105447750D01*
X135026562Y-105447232D01*
X135038822Y-105322750D01*
X135038822Y-104772750D01*
X135026562Y-104648268D01*
X135026405Y-104647750D01*
X135026562Y-104647232D01*
X135038822Y-104522750D01*
X135038822Y-103972750D01*
X135026562Y-103848268D01*
X135026204Y-103847087D01*
X135035750Y-103733500D01*
X134943667Y-103641417D01*
X134931287Y-103618256D01*
X134851935Y-103521565D01*
X134761991Y-103447750D01*
X134851935Y-103373935D01*
X134931287Y-103277244D01*
X134943667Y-103254083D01*
X135035750Y-103162000D01*
X135026204Y-103048413D01*
X135026562Y-103047232D01*
X135038822Y-102922750D01*
X135038822Y-102372750D01*
X135026562Y-102248268D01*
X135026405Y-102247750D01*
X135026562Y-102247232D01*
X135038822Y-102122750D01*
X135038822Y-101572750D01*
X135026562Y-101448268D01*
X135026405Y-101447750D01*
X135026562Y-101447232D01*
X135038822Y-101322750D01*
X135038822Y-100772750D01*
X135026562Y-100648268D01*
X135026405Y-100647750D01*
X135026562Y-100647232D01*
X135038822Y-100522750D01*
X135038822Y-99972750D01*
X135026562Y-99848268D01*
X135026405Y-99847750D01*
X135026562Y-99847232D01*
X135038822Y-99722750D01*
X135038822Y-99172750D01*
X135026562Y-99048268D01*
X135026405Y-99047750D01*
X135026562Y-99047232D01*
X135038822Y-98922750D01*
X135038822Y-98372750D01*
X135034788Y-98331788D01*
X135075750Y-98335822D01*
X135625750Y-98335822D01*
X135750232Y-98323562D01*
X135750750Y-98323405D01*
X135751268Y-98323562D01*
X135875750Y-98335822D01*
X136425750Y-98335822D01*
X136550232Y-98323562D01*
X136550750Y-98323405D01*
X136551268Y-98323562D01*
X136675750Y-98335822D01*
X137225750Y-98335822D01*
X137350232Y-98323562D01*
X137351413Y-98323204D01*
X137465000Y-98332750D01*
X137557083Y-98240667D01*
X137580244Y-98228287D01*
X137676935Y-98148935D01*
X137750750Y-98058991D01*
X137824565Y-98148935D01*
X137921256Y-98228287D01*
X137944417Y-98240667D01*
X138036500Y-98332750D01*
X138150087Y-98323204D01*
X138151268Y-98323562D01*
X138275750Y-98335822D01*
X138825750Y-98335822D01*
X138950232Y-98323562D01*
X138950750Y-98323405D01*
X138951268Y-98323562D01*
X139075750Y-98335822D01*
X139625750Y-98335822D01*
X139750232Y-98323562D01*
X139750750Y-98323405D01*
X139751268Y-98323562D01*
X139875750Y-98335822D01*
X140425750Y-98335822D01*
X140550232Y-98323562D01*
X140550750Y-98323405D01*
X140551268Y-98323562D01*
X140675750Y-98335822D01*
X141225750Y-98335822D01*
X141350232Y-98323562D01*
X141350750Y-98323405D01*
X141351268Y-98323562D01*
X141475750Y-98335822D01*
X142025750Y-98335822D01*
X142150232Y-98323562D01*
X142150750Y-98323405D01*
X142151268Y-98323562D01*
X142275750Y-98335822D01*
X142825750Y-98335822D01*
X142950232Y-98323562D01*
X142950750Y-98323405D01*
X142951268Y-98323562D01*
X143075750Y-98335822D01*
X143625750Y-98335822D01*
X143668302Y-98331631D01*
X143665750Y-98362000D01*
X143824500Y-98520750D01*
X144923750Y-98520750D01*
X144923750Y-97896500D01*
X144765000Y-97737750D01*
X144303963Y-97734686D01*
X144259778Y-97738814D01*
X144263822Y-97697750D01*
X144263822Y-96475250D01*
X147029678Y-96475250D01*
X147032750Y-96677000D01*
X147191500Y-96835750D01*
X148240750Y-96835750D01*
X148240750Y-95999000D01*
X148494750Y-95999000D01*
X148494750Y-96835750D01*
X149544000Y-96835750D01*
X149702750Y-96677000D01*
X149705822Y-96475250D01*
X149693562Y-96350768D01*
X149657252Y-96231070D01*
X149598287Y-96120756D01*
X149518935Y-96024065D01*
X149422244Y-95944713D01*
X149311930Y-95885748D01*
X149192232Y-95849438D01*
X149067750Y-95837178D01*
X148653500Y-95840250D01*
X148494750Y-95999000D01*
X148240750Y-95999000D01*
X148082000Y-95840250D01*
X147667750Y-95837178D01*
X147543268Y-95849438D01*
X147423570Y-95885748D01*
X147313256Y-95944713D01*
X147216565Y-96024065D01*
X147137213Y-96120756D01*
X147078248Y-96231070D01*
X147041938Y-96350768D01*
X147029678Y-96475250D01*
X144263822Y-96475250D01*
X144263822Y-96197750D01*
X144251562Y-96073268D01*
X144215252Y-95953570D01*
X144156287Y-95843256D01*
X144076935Y-95746565D01*
X143980244Y-95667213D01*
X143869930Y-95608248D01*
X143750232Y-95571938D01*
X143625750Y-95559678D01*
X143075750Y-95559678D01*
X142951268Y-95571938D01*
X142950750Y-95572095D01*
X142950232Y-95571938D01*
X142825750Y-95559678D01*
X142275750Y-95559678D01*
X142151268Y-95571938D01*
X142150750Y-95572095D01*
X142150232Y-95571938D01*
X142025750Y-95559678D01*
X141475750Y-95559678D01*
X141351268Y-95571938D01*
X141350750Y-95572095D01*
X141350232Y-95571938D01*
X141225750Y-95559678D01*
X140675750Y-95559678D01*
X140551268Y-95571938D01*
X140550750Y-95572095D01*
X140550232Y-95571938D01*
X140425750Y-95559678D01*
X140112750Y-95559678D01*
X140112750Y-92813380D01*
X140963102Y-91963029D01*
X140992172Y-91939172D01*
X141056240Y-91861105D01*
X141087395Y-91823143D01*
X141109481Y-91781822D01*
X141150750Y-91781822D01*
X141275232Y-91769562D01*
X141394930Y-91733252D01*
X141505244Y-91674287D01*
X141601935Y-91594935D01*
X141681287Y-91498244D01*
X141740252Y-91387930D01*
X141753351Y-91344750D01*
X142502547Y-91344750D01*
X142588958Y-91450042D01*
X142722586Y-91559708D01*
X142875041Y-91641197D01*
X143040465Y-91691378D01*
X143212500Y-91708322D01*
X144125000Y-91708322D01*
X144297035Y-91691378D01*
X144462459Y-91641197D01*
X144614914Y-91559708D01*
X144748542Y-91450042D01*
X144858208Y-91316414D01*
X144939697Y-91163959D01*
X144989878Y-90998535D01*
X145006822Y-90826500D01*
X145006822Y-90339000D01*
X144989878Y-90166965D01*
X144939697Y-90001541D01*
X144858208Y-89849086D01*
X144748542Y-89715458D01*
X144742186Y-89710242D01*
X144819935Y-89646435D01*
X144899287Y-89549744D01*
X144958252Y-89439430D01*
X144994562Y-89319732D01*
X145006822Y-89195250D01*
X145003750Y-88993500D01*
X144845000Y-88834750D01*
X143795750Y-88834750D01*
X143795750Y-88854750D01*
X143541750Y-88854750D01*
X143541750Y-88834750D01*
X142492500Y-88834750D01*
X142333750Y-88993500D01*
X142330678Y-89195250D01*
X142342938Y-89319732D01*
X142379248Y-89439430D01*
X142438213Y-89549744D01*
X142517565Y-89646435D01*
X142595314Y-89710242D01*
X142588958Y-89715458D01*
X142502547Y-89820750D01*
X141776708Y-89820750D01*
X141776562Y-89819268D01*
X141740252Y-89699570D01*
X141737141Y-89693750D01*
X141740252Y-89687930D01*
X141776562Y-89568232D01*
X141788822Y-89443750D01*
X141785750Y-89129500D01*
X141627000Y-88970750D01*
X140577750Y-88970750D01*
X140577750Y-88990750D01*
X140323750Y-88990750D01*
X140323750Y-88970750D01*
X140303750Y-88970750D01*
X140303750Y-88716750D01*
X140323750Y-88716750D01*
X140323750Y-87767500D01*
X140577750Y-87767500D01*
X140577750Y-88716750D01*
X141627000Y-88716750D01*
X141785750Y-88558000D01*
X141788822Y-88243750D01*
X141786508Y-88220250D01*
X142330678Y-88220250D01*
X142333750Y-88422000D01*
X142492500Y-88580750D01*
X143541750Y-88580750D01*
X143541750Y-87744000D01*
X143795750Y-87744000D01*
X143795750Y-88580750D01*
X144845000Y-88580750D01*
X145003750Y-88422000D01*
X145006822Y-88220250D01*
X144994562Y-88095768D01*
X144958252Y-87976070D01*
X144899287Y-87865756D01*
X144819935Y-87769065D01*
X144723244Y-87689713D01*
X144612930Y-87630748D01*
X144493232Y-87594438D01*
X144368750Y-87582178D01*
X143954500Y-87585250D01*
X143795750Y-87744000D01*
X143541750Y-87744000D01*
X143383000Y-87585250D01*
X142968750Y-87582178D01*
X142844268Y-87594438D01*
X142724570Y-87630748D01*
X142614256Y-87689713D01*
X142517565Y-87769065D01*
X142438213Y-87865756D01*
X142379248Y-87976070D01*
X142342938Y-88095768D01*
X142330678Y-88220250D01*
X141786508Y-88220250D01*
X141776562Y-88119268D01*
X141740252Y-87999570D01*
X141681287Y-87889256D01*
X141601935Y-87792565D01*
X141505244Y-87713213D01*
X141394930Y-87654248D01*
X141275232Y-87617938D01*
X141150750Y-87605678D01*
X140736500Y-87608750D01*
X140577750Y-87767500D01*
X140323750Y-87767500D01*
X140165000Y-87608750D01*
X139750750Y-87605678D01*
X139626268Y-87617938D01*
X139506570Y-87654248D01*
X139396256Y-87713213D01*
X139350750Y-87750559D01*
X139305244Y-87713213D01*
X139194930Y-87654248D01*
X139075232Y-87617938D01*
X138950750Y-87605678D01*
X137550750Y-87605678D01*
X137426268Y-87617938D01*
X137306570Y-87654248D01*
X137196256Y-87713213D01*
X137099565Y-87792565D01*
X137020213Y-87889256D01*
X136961248Y-87999570D01*
X136936319Y-88081750D01*
X136100908Y-88081750D01*
X136095208Y-88071086D01*
X135985542Y-87937458D01*
X135851914Y-87827792D01*
X135699459Y-87746303D01*
X135534035Y-87696122D01*
X135362000Y-87679178D01*
X134449500Y-87679178D01*
X134277465Y-87696122D01*
X134112041Y-87746303D01*
X133959586Y-87827792D01*
X133825958Y-87937458D01*
X133716292Y-88071086D01*
X133634803Y-88223541D01*
X133584622Y-88388965D01*
X133567678Y-88561000D01*
X133567678Y-89048500D01*
X133584622Y-89220535D01*
X133634803Y-89385959D01*
X133716292Y-89538414D01*
X133825958Y-89672042D01*
X133832314Y-89677258D01*
X133754565Y-89741065D01*
X133675213Y-89837756D01*
X133616248Y-89948070D01*
X133579938Y-90067768D01*
X133567678Y-90192250D01*
X133570750Y-90394000D01*
X133729500Y-90552750D01*
X134778750Y-90552750D01*
X134778750Y-90532750D01*
X135032750Y-90532750D01*
X135032750Y-90552750D01*
X135052750Y-90552750D01*
X135052750Y-90806750D01*
X135032750Y-90806750D01*
X135032750Y-91643500D01*
X135191500Y-91802250D01*
X135605750Y-91805322D01*
X135730232Y-91793062D01*
X135849930Y-91756752D01*
X135890001Y-91735333D01*
X135890001Y-92244199D01*
X135886314Y-92281632D01*
X135901027Y-92431010D01*
X135944599Y-92574647D01*
X136015355Y-92707024D01*
X136084080Y-92790765D01*
X136110579Y-92823054D01*
X136139649Y-92846911D01*
X137788750Y-94496013D01*
X137788751Y-95790205D01*
X137778821Y-95802304D01*
X137776250Y-95776197D01*
X137764306Y-95654924D01*
X137717103Y-95499316D01*
X137697878Y-95463349D01*
X137640449Y-95355907D01*
X137563142Y-95261708D01*
X137563139Y-95261705D01*
X137537291Y-95230209D01*
X137505795Y-95204361D01*
X136986887Y-94685455D01*
X136961031Y-94653949D01*
X136835332Y-94550791D01*
X136691924Y-94474137D01*
X136536316Y-94426934D01*
X136415043Y-94414990D01*
X136415040Y-94414990D01*
X136374490Y-94410996D01*
X136333940Y-94414990D01*
X133430191Y-94414990D01*
X133389641Y-94410996D01*
X133349090Y-94414990D01*
X133349088Y-94414990D01*
X133227815Y-94426934D01*
X133072207Y-94474137D01*
X132928799Y-94550791D01*
X132889247Y-94583250D01*
X132686090Y-94583250D01*
X132651792Y-94541458D01*
X132645436Y-94536242D01*
X132723185Y-94472435D01*
X132802537Y-94375744D01*
X132861502Y-94265430D01*
X132897812Y-94145732D01*
X132910072Y-94021250D01*
X132907000Y-93819500D01*
X132748250Y-93660750D01*
X131699000Y-93660750D01*
X131699000Y-93680750D01*
X131445000Y-93680750D01*
X131445000Y-93660750D01*
X131425000Y-93660750D01*
X131425000Y-93406750D01*
X131445000Y-93406750D01*
X131445000Y-92570000D01*
X131699000Y-92570000D01*
X131699000Y-93406750D01*
X132748250Y-93406750D01*
X132907000Y-93248000D01*
X132910072Y-93046250D01*
X132897812Y-92921768D01*
X132861502Y-92802070D01*
X132802537Y-92691756D01*
X132723185Y-92595065D01*
X132626494Y-92515713D01*
X132516180Y-92456748D01*
X132396482Y-92420438D01*
X132272000Y-92408178D01*
X131857750Y-92411250D01*
X131699000Y-92570000D01*
X131445000Y-92570000D01*
X131286250Y-92411250D01*
X130872000Y-92408178D01*
X130747518Y-92420438D01*
X130627820Y-92456748D01*
X130517506Y-92515713D01*
X130420815Y-92595065D01*
X130341463Y-92691756D01*
X130282498Y-92802070D01*
X130246188Y-92921768D01*
X130233928Y-93046250D01*
X130234576Y-93088835D01*
X130149939Y-93072000D01*
X129946061Y-93072000D01*
X129746102Y-93111774D01*
X129596617Y-93173693D01*
X129591128Y-93117965D01*
X129540947Y-92952541D01*
X129459458Y-92800086D01*
X129349792Y-92666458D01*
X129216164Y-92556792D01*
X129063709Y-92475303D01*
X128898285Y-92425122D01*
X128726250Y-92408178D01*
X127813750Y-92408178D01*
X127641715Y-92425122D01*
X127476291Y-92475303D01*
X127323836Y-92556792D01*
X127190208Y-92666458D01*
X127080542Y-92800086D01*
X126999053Y-92952541D01*
X126948872Y-93117965D01*
X126931928Y-93290000D01*
X126931928Y-93777500D01*
X126948872Y-93949535D01*
X126999053Y-94114959D01*
X127080542Y-94267414D01*
X127190208Y-94401042D01*
X127275756Y-94471250D01*
X127190208Y-94541458D01*
X127137508Y-94605673D01*
X127109256Y-94586795D01*
X126920898Y-94508774D01*
X126720939Y-94469000D01*
X126517061Y-94469000D01*
X126317102Y-94508774D01*
X126128744Y-94586795D01*
X125959226Y-94700063D01*
X125815063Y-94844226D01*
X125701795Y-95013744D01*
X125623774Y-95202102D01*
X125584000Y-95402061D01*
X125584000Y-95605939D01*
X125623774Y-95805898D01*
X125701795Y-95994256D01*
X125815063Y-96163774D01*
X125959226Y-96307937D01*
X126128744Y-96421205D01*
X126317102Y-96499226D01*
X126517061Y-96539000D01*
X126720939Y-96539000D01*
X126920898Y-96499226D01*
X127109256Y-96421205D01*
X127251378Y-96326243D01*
X127323836Y-96385708D01*
X127476291Y-96467197D01*
X127641715Y-96517378D01*
X127813750Y-96534322D01*
X127884580Y-96534322D01*
X127887329Y-96537672D01*
X127916399Y-96561529D01*
X128514220Y-97159351D01*
X128538078Y-97188422D01*
X128654108Y-97283645D01*
X128786485Y-97354402D01*
X128930122Y-97397974D01*
X129042074Y-97409000D01*
X129042083Y-97409000D01*
X129079499Y-97412685D01*
X129116915Y-97409000D01*
X132677577Y-97409000D01*
X132715000Y-97412686D01*
X132752423Y-97409000D01*
X132752426Y-97409000D01*
X132864378Y-97397974D01*
X133008015Y-97354402D01*
X133140392Y-97283645D01*
X133256422Y-97188422D01*
X133280284Y-97159347D01*
X133919631Y-96520000D01*
X134437678Y-96520000D01*
X134437678Y-97697750D01*
X134441712Y-97738712D01*
X134400750Y-97734678D01*
X132900750Y-97734678D01*
X132776268Y-97746938D01*
X132656570Y-97783248D01*
X132546256Y-97842213D01*
X132449565Y-97921565D01*
X132370213Y-98018256D01*
X132311248Y-98128570D01*
X132274938Y-98248268D01*
X132262678Y-98372750D01*
X132262678Y-98922750D01*
X132274938Y-99047232D01*
X132275095Y-99047750D01*
X132274938Y-99048268D01*
X132262678Y-99172750D01*
X132262678Y-99722750D01*
X132274938Y-99847232D01*
X132275095Y-99847750D01*
X132274938Y-99848268D01*
X132262678Y-99972750D01*
X132262678Y-100353997D01*
X132254898Y-100350774D01*
X132054939Y-100311000D01*
X131851061Y-100311000D01*
X131651102Y-100350774D01*
X131462744Y-100428795D01*
X131293226Y-100542063D01*
X131149063Y-100686226D01*
X131126318Y-100720267D01*
X131107209Y-100710053D01*
X130941785Y-100659872D01*
X130769750Y-100642928D01*
X130282250Y-100642928D01*
X130110215Y-100659872D01*
X129944791Y-100710053D01*
X129792336Y-100791542D01*
X129658708Y-100901208D01*
X129653492Y-100907564D01*
X129589685Y-100829815D01*
X129492994Y-100750463D01*
X129382680Y-100691498D01*
X129262982Y-100655188D01*
X129138500Y-100642928D01*
X128936750Y-100646000D01*
X128778000Y-100804750D01*
X128778000Y-101854000D01*
X128798000Y-101854000D01*
X128798000Y-102108000D01*
X128778000Y-102108000D01*
X128778000Y-103157250D01*
X128936750Y-103316000D01*
X129138500Y-103319072D01*
X129262982Y-103306812D01*
X129382680Y-103270502D01*
X129492994Y-103211537D01*
X129589685Y-103132185D01*
X129653492Y-103054436D01*
X129658708Y-103060792D01*
X129792336Y-103170458D01*
X129944791Y-103251947D01*
X130110215Y-103302128D01*
X130282250Y-103319072D01*
X130769750Y-103319072D01*
X130822512Y-103313875D01*
X130899735Y-103355152D01*
X131043372Y-103398724D01*
X131155324Y-103409750D01*
X131155327Y-103409750D01*
X131192750Y-103413436D01*
X131230173Y-103409750D01*
X132493206Y-103409750D01*
X132539509Y-103447750D01*
X132493206Y-103485750D01*
X123994380Y-103485750D01*
X123189630Y-102681000D01*
X127525428Y-102681000D01*
X127537688Y-102805482D01*
X127573998Y-102925180D01*
X127632963Y-103035494D01*
X127712315Y-103132185D01*
X127809006Y-103211537D01*
X127919320Y-103270502D01*
X128039018Y-103306812D01*
X128163500Y-103319072D01*
X128365250Y-103316000D01*
X128524000Y-103157250D01*
X128524000Y-102108000D01*
X127687250Y-102108000D01*
X127528500Y-102266750D01*
X127525428Y-102681000D01*
X123189630Y-102681000D01*
X121789630Y-101281000D01*
X127525428Y-101281000D01*
X127528500Y-101695250D01*
X127687250Y-101854000D01*
X128524000Y-101854000D01*
X128524000Y-100804750D01*
X128365250Y-100646000D01*
X128163500Y-100642928D01*
X128039018Y-100655188D01*
X127919320Y-100691498D01*
X127809006Y-100750463D01*
X127712315Y-100829815D01*
X127632963Y-100926506D01*
X127573998Y-101036820D01*
X127537688Y-101156518D01*
X127525428Y-101281000D01*
X121789630Y-101281000D01*
X121031000Y-100522370D01*
X121031000Y-97216630D01*
X121511601Y-96736030D01*
X121540672Y-96712172D01*
X121620348Y-96615086D01*
X121627535Y-96614378D01*
X121792959Y-96564197D01*
X121945414Y-96482708D01*
X122079042Y-96373042D01*
X122188708Y-96239414D01*
X122270197Y-96086959D01*
X122320378Y-95921535D01*
X122337322Y-95749500D01*
X122337322Y-95262000D01*
X122320378Y-95089965D01*
X122270197Y-94924541D01*
X122188708Y-94772086D01*
X122079042Y-94638458D01*
X121993494Y-94568250D01*
X122079042Y-94498042D01*
X122188708Y-94364414D01*
X122270197Y-94211959D01*
X122320378Y-94046535D01*
X122337322Y-93874500D01*
X122337322Y-93387000D01*
X122320378Y-93214965D01*
X122270197Y-93049541D01*
X122188708Y-92897086D01*
X122079042Y-92763458D01*
X121945414Y-92653792D01*
X121792959Y-92572303D01*
X121627535Y-92522122D01*
X121455500Y-92505178D01*
X120951309Y-92505178D01*
X120586500Y-92140370D01*
X120586500Y-91167250D01*
X133567678Y-91167250D01*
X133579938Y-91291732D01*
X133616248Y-91411430D01*
X133675213Y-91521744D01*
X133754565Y-91618435D01*
X133851256Y-91697787D01*
X133961570Y-91756752D01*
X134081268Y-91793062D01*
X134205750Y-91805322D01*
X134620000Y-91802250D01*
X134778750Y-91643500D01*
X134778750Y-90806750D01*
X133729500Y-90806750D01*
X133570750Y-90965500D01*
X133567678Y-91167250D01*
X120586500Y-91167250D01*
X120586500Y-89575072D01*
X120874500Y-89575072D01*
X120998982Y-89562812D01*
X121023766Y-89555294D01*
X121043139Y-89561404D01*
X121142750Y-89572000D01*
X121301500Y-89413250D01*
X121301500Y-89408033D01*
X121325685Y-89388185D01*
X121405037Y-89291494D01*
X121464002Y-89181180D01*
X121500312Y-89061482D01*
X121512572Y-88937000D01*
X121512572Y-86687000D01*
X121500312Y-86562518D01*
X121464002Y-86442820D01*
X121405037Y-86332506D01*
X121325685Y-86235815D01*
X121301500Y-86215967D01*
X121301500Y-86210750D01*
X121142750Y-86052000D01*
X121043139Y-86062596D01*
X121023766Y-86068706D01*
X120998982Y-86061188D01*
X120874500Y-86048928D01*
X120374500Y-86048928D01*
X120250018Y-86061188D01*
X120224500Y-86068929D01*
X120198982Y-86061188D01*
X120074500Y-86048928D01*
X119574500Y-86048928D01*
X119450018Y-86061188D01*
X119424500Y-86068929D01*
X119398982Y-86061188D01*
X119274500Y-86048928D01*
X118774500Y-86048928D01*
X118650018Y-86061188D01*
X118624500Y-86068929D01*
X118598982Y-86061188D01*
X118474500Y-86048928D01*
X117974500Y-86048928D01*
X117850018Y-86061188D01*
X117730320Y-86097498D01*
X117620006Y-86156463D01*
X117523315Y-86235815D01*
X117443963Y-86332506D01*
X117384998Y-86442820D01*
X117384254Y-86445271D01*
X117229634Y-86256866D01*
X117003514Y-86071294D01*
X116936500Y-86035474D01*
X116936500Y-85088525D01*
X117003513Y-85052706D01*
X117229634Y-84867134D01*
X117415206Y-84641014D01*
X117553099Y-84383034D01*
X117638013Y-84103111D01*
X117640880Y-84074000D01*
X122008120Y-84074000D01*
X122010987Y-84103110D01*
X122095901Y-84383033D01*
X122233794Y-84641013D01*
X122419366Y-84867134D01*
X122645486Y-85052706D01*
X122712500Y-85088526D01*
X122712501Y-86035475D01*
X122645487Y-86071294D01*
X122419367Y-86256866D01*
X122264623Y-86445421D01*
X122208906Y-86338366D01*
X122130623Y-86240807D01*
X122034811Y-86160396D01*
X121925152Y-86100221D01*
X121805861Y-86062596D01*
X121706250Y-86052000D01*
X121547500Y-86210750D01*
X121547500Y-87685000D01*
X121571500Y-87685000D01*
X121571500Y-87939000D01*
X121547500Y-87939000D01*
X121547500Y-89413250D01*
X121706250Y-89572000D01*
X121805861Y-89561404D01*
X121925152Y-89523779D01*
X122034811Y-89463604D01*
X122130623Y-89383193D01*
X122208906Y-89285634D01*
X122264623Y-89178578D01*
X122419366Y-89367134D01*
X122645486Y-89552706D01*
X122903466Y-89690599D01*
X123183389Y-89775513D01*
X123474500Y-89804185D01*
X123765610Y-89775513D01*
X124045533Y-89690599D01*
X124303513Y-89552706D01*
X124529634Y-89367134D01*
X124715206Y-89141014D01*
X124853099Y-88883034D01*
X124938013Y-88603111D01*
X124959500Y-88384950D01*
X124959500Y-87239050D01*
X124938013Y-87020889D01*
X124853099Y-86740966D01*
X124715206Y-86482986D01*
X124529634Y-86256866D01*
X124303514Y-86071294D01*
X124236500Y-86035474D01*
X124236500Y-85088525D01*
X124303513Y-85052706D01*
X124529634Y-84867134D01*
X124715206Y-84641014D01*
X124853099Y-84383034D01*
X124938013Y-84103111D01*
X124959500Y-83884950D01*
X124959500Y-82739050D01*
X124938013Y-82520889D01*
X124896640Y-82384500D01*
X149860000Y-82384500D01*
X149860000Y-97902985D01*
G36*
X138377750Y-90416750D02*
G01*
X138397750Y-90416750D01*
X138397750Y-90670750D01*
X138377750Y-90670750D01*
X138377750Y-91620000D01*
X138536500Y-91778750D01*
X138950750Y-91781822D01*
X138993232Y-91777638D01*
X138838404Y-91932466D01*
X138809328Y-91956328D01*
X138769296Y-92005108D01*
X138714105Y-92072358D01*
X138682090Y-92132254D01*
X138643348Y-92204736D01*
X138599776Y-92348373D01*
X138590757Y-92439947D01*
X138585064Y-92497750D01*
X138588750Y-92535173D01*
X138588750Y-93140751D01*
X137414000Y-91966002D01*
X137414000Y-91765841D01*
X137426268Y-91769562D01*
X137550750Y-91781822D01*
X137965000Y-91778750D01*
X138123750Y-91620000D01*
X138123750Y-90670750D01*
X138103750Y-90670750D01*
X138103750Y-90416750D01*
X138123750Y-90416750D01*
X138123750Y-90396750D01*
X138377750Y-90396750D01*
X138377750Y-90416750D01*
X138377750Y-90416750D01*
G37*
X138377750Y-90416750D02*
X138397750Y-90416750D01*
X138397750Y-90670750D01*
X138377750Y-90670750D01*
X138377750Y-91620000D01*
X138536500Y-91778750D01*
X138950750Y-91781822D01*
X138993232Y-91777638D01*
X138838404Y-91932466D01*
X138809328Y-91956328D01*
X138769296Y-92005108D01*
X138714105Y-92072358D01*
X138682090Y-92132254D01*
X138643348Y-92204736D01*
X138599776Y-92348373D01*
X138590757Y-92439947D01*
X138585064Y-92497750D01*
X138588750Y-92535173D01*
X138588750Y-93140751D01*
X137414000Y-91966002D01*
X137414000Y-91765841D01*
X137426268Y-91769562D01*
X137550750Y-91781822D01*
X137965000Y-91778750D01*
X138123750Y-91620000D01*
X138123750Y-90670750D01*
X138103750Y-90670750D01*
X138103750Y-90416750D01*
X138123750Y-90416750D01*
X138123750Y-90396750D01*
X138377750Y-90396750D01*
X138377750Y-90416750D01*
M02*
