G04 #@! TF.GenerationSoftware,KiCad,Pcbnew,(5.1.4)-1*
G04 #@! TF.CreationDate,2023-04-29T11:54:21-04:00*
G04 #@! TF.ProjectId,Evan-PCB-ISP,4576616e-2d50-4434-922d-4953502e6b69,rev?*
G04 #@! TF.SameCoordinates,Original*
G04 #@! TF.FileFunction,Soldermask,Top*
G04 #@! TF.FilePolarity,Negative*
%FSLAX46Y46*%
G04 Gerber Fmt 4.6, Leading zero omitted, Abs format (unit mm)*
G04 Created by KiCad (PCBNEW (5.1.4)-1) date 2023-04-29 11:54:21*
%MOMM*%
%LPD*%
G04 APERTURE LIST*
%ADD10C,0.100000*%
G04 APERTURE END LIST*
D10*
G36*
X160140224Y-108364934D02*
G01*
X160358224Y-108455233D01*
X160512373Y-108519083D01*
X160847298Y-108742873D01*
X161132127Y-109027702D01*
X161355917Y-109362627D01*
X161388312Y-109440836D01*
X161510066Y-109734776D01*
X161588650Y-110129844D01*
X161588650Y-110532656D01*
X161510066Y-110927724D01*
X161419767Y-111145724D01*
X161355917Y-111299873D01*
X161132127Y-111634798D01*
X160847298Y-111919627D01*
X160512373Y-112143417D01*
X160358224Y-112207267D01*
X160140224Y-112297566D01*
X159745156Y-112376150D01*
X159342344Y-112376150D01*
X158947276Y-112297566D01*
X158729276Y-112207267D01*
X158575127Y-112143417D01*
X158240202Y-111919627D01*
X157955373Y-111634798D01*
X157731583Y-111299873D01*
X157667733Y-111145724D01*
X157577434Y-110927724D01*
X157498850Y-110532656D01*
X157498850Y-110129844D01*
X157577434Y-109734776D01*
X157699188Y-109440836D01*
X157731583Y-109362627D01*
X157955373Y-109027702D01*
X158240202Y-108742873D01*
X158575127Y-108519083D01*
X158729276Y-108455233D01*
X158947276Y-108364934D01*
X159342344Y-108286350D01*
X159745156Y-108286350D01*
X160140224Y-108364934D01*
X160140224Y-108364934D01*
G37*
G36*
X179158474Y-108333184D02*
G01*
X179376474Y-108423483D01*
X179530623Y-108487333D01*
X179865548Y-108711123D01*
X180150377Y-108995952D01*
X180374167Y-109330877D01*
X180406562Y-109409086D01*
X180528316Y-109703026D01*
X180606900Y-110098094D01*
X180606900Y-110500906D01*
X180528316Y-110895974D01*
X180477451Y-111018772D01*
X180374167Y-111268123D01*
X180150377Y-111603048D01*
X179865548Y-111887877D01*
X179530623Y-112111667D01*
X179453971Y-112143417D01*
X179158474Y-112265816D01*
X178763406Y-112344400D01*
X178360594Y-112344400D01*
X177965526Y-112265816D01*
X177670029Y-112143417D01*
X177593377Y-112111667D01*
X177258452Y-111887877D01*
X176973623Y-111603048D01*
X176749833Y-111268123D01*
X176646549Y-111018772D01*
X176595684Y-110895974D01*
X176517100Y-110500906D01*
X176517100Y-110098094D01*
X176595684Y-109703026D01*
X176717438Y-109409086D01*
X176749833Y-109330877D01*
X176973623Y-108995952D01*
X177258452Y-108711123D01*
X177593377Y-108487333D01*
X177747526Y-108423483D01*
X177965526Y-108333184D01*
X178360594Y-108254600D01*
X178763406Y-108254600D01*
X179158474Y-108333184D01*
X179158474Y-108333184D01*
G37*
G36*
X164893854Y-109440835D02*
G01*
X165062376Y-109510639D01*
X165214041Y-109611978D01*
X165343022Y-109740959D01*
X165444361Y-109892624D01*
X165514165Y-110061146D01*
X165549750Y-110240047D01*
X165549750Y-110422453D01*
X165514165Y-110601354D01*
X165444361Y-110769876D01*
X165343022Y-110921541D01*
X165214041Y-111050522D01*
X165062376Y-111151861D01*
X164893854Y-111221665D01*
X164714953Y-111257250D01*
X164532547Y-111257250D01*
X164353646Y-111221665D01*
X164185124Y-111151861D01*
X164033459Y-111050522D01*
X163904478Y-110921541D01*
X163803139Y-110769876D01*
X163733335Y-110601354D01*
X163697750Y-110422453D01*
X163697750Y-110240047D01*
X163733335Y-110061146D01*
X163803139Y-109892624D01*
X163904478Y-109740959D01*
X164033459Y-109611978D01*
X164185124Y-109510639D01*
X164353646Y-109440835D01*
X164532547Y-109405250D01*
X164714953Y-109405250D01*
X164893854Y-109440835D01*
X164893854Y-109440835D01*
G37*
G36*
X154733854Y-109440835D02*
G01*
X154902376Y-109510639D01*
X155054041Y-109611978D01*
X155183022Y-109740959D01*
X155284361Y-109892624D01*
X155354165Y-110061146D01*
X155389750Y-110240047D01*
X155389750Y-110422453D01*
X155354165Y-110601354D01*
X155284361Y-110769876D01*
X155183022Y-110921541D01*
X155054041Y-111050522D01*
X154902376Y-111151861D01*
X154733854Y-111221665D01*
X154554953Y-111257250D01*
X154372547Y-111257250D01*
X154193646Y-111221665D01*
X154025124Y-111151861D01*
X153873459Y-111050522D01*
X153744478Y-110921541D01*
X153643139Y-110769876D01*
X153573335Y-110601354D01*
X153537750Y-110422453D01*
X153537750Y-110240047D01*
X153573335Y-110061146D01*
X153643139Y-109892624D01*
X153744478Y-109740959D01*
X153873459Y-109611978D01*
X154025124Y-109510639D01*
X154193646Y-109440835D01*
X154372547Y-109405250D01*
X154554953Y-109405250D01*
X154733854Y-109440835D01*
X154733854Y-109440835D01*
G37*
G36*
X183912104Y-109409085D02*
G01*
X184080626Y-109478889D01*
X184232291Y-109580228D01*
X184361272Y-109709209D01*
X184462611Y-109860874D01*
X184532415Y-110029396D01*
X184568000Y-110208297D01*
X184568000Y-110390703D01*
X184532415Y-110569604D01*
X184462611Y-110738126D01*
X184361272Y-110889791D01*
X184232291Y-111018772D01*
X184080626Y-111120111D01*
X183912104Y-111189915D01*
X183733203Y-111225500D01*
X183550797Y-111225500D01*
X183371896Y-111189915D01*
X183203374Y-111120111D01*
X183051709Y-111018772D01*
X182922728Y-110889791D01*
X182821389Y-110738126D01*
X182751585Y-110569604D01*
X182716000Y-110390703D01*
X182716000Y-110208297D01*
X182751585Y-110029396D01*
X182821389Y-109860874D01*
X182922728Y-109709209D01*
X183051709Y-109580228D01*
X183203374Y-109478889D01*
X183371896Y-109409085D01*
X183550797Y-109373500D01*
X183733203Y-109373500D01*
X183912104Y-109409085D01*
X183912104Y-109409085D01*
G37*
G36*
X173752104Y-109409085D02*
G01*
X173920626Y-109478889D01*
X174072291Y-109580228D01*
X174201272Y-109709209D01*
X174302611Y-109860874D01*
X174372415Y-110029396D01*
X174408000Y-110208297D01*
X174408000Y-110390703D01*
X174372415Y-110569604D01*
X174302611Y-110738126D01*
X174201272Y-110889791D01*
X174072291Y-111018772D01*
X173920626Y-111120111D01*
X173752104Y-111189915D01*
X173573203Y-111225500D01*
X173390797Y-111225500D01*
X173211896Y-111189915D01*
X173043374Y-111120111D01*
X172891709Y-111018772D01*
X172762728Y-110889791D01*
X172661389Y-110738126D01*
X172591585Y-110569604D01*
X172556000Y-110390703D01*
X172556000Y-110208297D01*
X172591585Y-110029396D01*
X172661389Y-109860874D01*
X172762728Y-109709209D01*
X172891709Y-109580228D01*
X173043374Y-109478889D01*
X173211896Y-109409085D01*
X173390797Y-109373500D01*
X173573203Y-109373500D01*
X173752104Y-109409085D01*
X173752104Y-109409085D01*
G37*
G36*
X179190224Y-89314934D02*
G01*
X179408224Y-89405233D01*
X179562373Y-89469083D01*
X179897298Y-89692873D01*
X180182127Y-89977702D01*
X180405917Y-90312627D01*
X180438312Y-90390836D01*
X180560066Y-90684776D01*
X180638650Y-91079844D01*
X180638650Y-91482656D01*
X180560066Y-91877724D01*
X180469767Y-92095724D01*
X180405917Y-92249873D01*
X180182127Y-92584798D01*
X179897298Y-92869627D01*
X179562373Y-93093417D01*
X179408224Y-93157267D01*
X179190224Y-93247566D01*
X178795156Y-93326150D01*
X178392344Y-93326150D01*
X177997276Y-93247566D01*
X177779276Y-93157267D01*
X177625127Y-93093417D01*
X177290202Y-92869627D01*
X177005373Y-92584798D01*
X176781583Y-92249873D01*
X176717733Y-92095724D01*
X176627434Y-91877724D01*
X176548850Y-91482656D01*
X176548850Y-91079844D01*
X176627434Y-90684776D01*
X176749188Y-90390836D01*
X176781583Y-90312627D01*
X177005373Y-89977702D01*
X177290202Y-89692873D01*
X177625127Y-89469083D01*
X177779276Y-89405233D01*
X177997276Y-89314934D01*
X178392344Y-89236350D01*
X178795156Y-89236350D01*
X179190224Y-89314934D01*
X179190224Y-89314934D01*
G37*
G36*
X160108474Y-89283184D02*
G01*
X160326474Y-89373483D01*
X160480623Y-89437333D01*
X160815548Y-89661123D01*
X161100377Y-89945952D01*
X161324167Y-90280877D01*
X161356562Y-90359086D01*
X161478316Y-90653026D01*
X161556900Y-91048094D01*
X161556900Y-91450906D01*
X161478316Y-91845974D01*
X161427451Y-91968772D01*
X161324167Y-92218123D01*
X161100377Y-92553048D01*
X160815548Y-92837877D01*
X160480623Y-93061667D01*
X160403971Y-93093417D01*
X160108474Y-93215816D01*
X159713406Y-93294400D01*
X159310594Y-93294400D01*
X158915526Y-93215816D01*
X158620029Y-93093417D01*
X158543377Y-93061667D01*
X158208452Y-92837877D01*
X157923623Y-92553048D01*
X157699833Y-92218123D01*
X157596549Y-91968772D01*
X157545684Y-91845974D01*
X157467100Y-91450906D01*
X157467100Y-91048094D01*
X157545684Y-90653026D01*
X157667438Y-90359086D01*
X157699833Y-90280877D01*
X157923623Y-89945952D01*
X158208452Y-89661123D01*
X158543377Y-89437333D01*
X158697526Y-89373483D01*
X158915526Y-89283184D01*
X159310594Y-89204600D01*
X159713406Y-89204600D01*
X160108474Y-89283184D01*
X160108474Y-89283184D01*
G37*
G36*
X183943854Y-90390835D02*
G01*
X184112376Y-90460639D01*
X184264041Y-90561978D01*
X184393022Y-90690959D01*
X184494361Y-90842624D01*
X184564165Y-91011146D01*
X184599750Y-91190047D01*
X184599750Y-91372453D01*
X184564165Y-91551354D01*
X184494361Y-91719876D01*
X184393022Y-91871541D01*
X184264041Y-92000522D01*
X184112376Y-92101861D01*
X183943854Y-92171665D01*
X183764953Y-92207250D01*
X183582547Y-92207250D01*
X183403646Y-92171665D01*
X183235124Y-92101861D01*
X183083459Y-92000522D01*
X182954478Y-91871541D01*
X182853139Y-91719876D01*
X182783335Y-91551354D01*
X182747750Y-91372453D01*
X182747750Y-91190047D01*
X182783335Y-91011146D01*
X182853139Y-90842624D01*
X182954478Y-90690959D01*
X183083459Y-90561978D01*
X183235124Y-90460639D01*
X183403646Y-90390835D01*
X183582547Y-90355250D01*
X183764953Y-90355250D01*
X183943854Y-90390835D01*
X183943854Y-90390835D01*
G37*
G36*
X173783854Y-90390835D02*
G01*
X173952376Y-90460639D01*
X174104041Y-90561978D01*
X174233022Y-90690959D01*
X174334361Y-90842624D01*
X174404165Y-91011146D01*
X174439750Y-91190047D01*
X174439750Y-91372453D01*
X174404165Y-91551354D01*
X174334361Y-91719876D01*
X174233022Y-91871541D01*
X174104041Y-92000522D01*
X173952376Y-92101861D01*
X173783854Y-92171665D01*
X173604953Y-92207250D01*
X173422547Y-92207250D01*
X173243646Y-92171665D01*
X173075124Y-92101861D01*
X172923459Y-92000522D01*
X172794478Y-91871541D01*
X172693139Y-91719876D01*
X172623335Y-91551354D01*
X172587750Y-91372453D01*
X172587750Y-91190047D01*
X172623335Y-91011146D01*
X172693139Y-90842624D01*
X172794478Y-90690959D01*
X172923459Y-90561978D01*
X173075124Y-90460639D01*
X173243646Y-90390835D01*
X173422547Y-90355250D01*
X173604953Y-90355250D01*
X173783854Y-90390835D01*
X173783854Y-90390835D01*
G37*
G36*
X154702104Y-90359085D02*
G01*
X154870626Y-90428889D01*
X155022291Y-90530228D01*
X155151272Y-90659209D01*
X155252611Y-90810874D01*
X155322415Y-90979396D01*
X155358000Y-91158297D01*
X155358000Y-91340703D01*
X155322415Y-91519604D01*
X155252611Y-91688126D01*
X155151272Y-91839791D01*
X155022291Y-91968772D01*
X154870626Y-92070111D01*
X154702104Y-92139915D01*
X154523203Y-92175500D01*
X154340797Y-92175500D01*
X154161896Y-92139915D01*
X153993374Y-92070111D01*
X153841709Y-91968772D01*
X153712728Y-91839791D01*
X153611389Y-91688126D01*
X153541585Y-91519604D01*
X153506000Y-91340703D01*
X153506000Y-91158297D01*
X153541585Y-90979396D01*
X153611389Y-90810874D01*
X153712728Y-90659209D01*
X153841709Y-90530228D01*
X153993374Y-90428889D01*
X154161896Y-90359085D01*
X154340797Y-90323500D01*
X154523203Y-90323500D01*
X154702104Y-90359085D01*
X154702104Y-90359085D01*
G37*
G36*
X164862104Y-90359085D02*
G01*
X165030626Y-90428889D01*
X165182291Y-90530228D01*
X165311272Y-90659209D01*
X165412611Y-90810874D01*
X165482415Y-90979396D01*
X165518000Y-91158297D01*
X165518000Y-91340703D01*
X165482415Y-91519604D01*
X165412611Y-91688126D01*
X165311272Y-91839791D01*
X165182291Y-91968772D01*
X165030626Y-92070111D01*
X164862104Y-92139915D01*
X164683203Y-92175500D01*
X164500797Y-92175500D01*
X164321896Y-92139915D01*
X164153374Y-92070111D01*
X164001709Y-91968772D01*
X163872728Y-91839791D01*
X163771389Y-91688126D01*
X163701585Y-91519604D01*
X163666000Y-91340703D01*
X163666000Y-91158297D01*
X163701585Y-90979396D01*
X163771389Y-90810874D01*
X163872728Y-90659209D01*
X164001709Y-90530228D01*
X164153374Y-90428889D01*
X164321896Y-90359085D01*
X164500797Y-90323500D01*
X164683203Y-90323500D01*
X164862104Y-90359085D01*
X164862104Y-90359085D01*
G37*
G36*
X123651127Y-86424037D02*
G01*
X123820966Y-86475557D01*
X123977491Y-86559222D01*
X124013229Y-86588552D01*
X124114686Y-86671814D01*
X124197948Y-86773271D01*
X124227278Y-86809009D01*
X124310943Y-86965534D01*
X124362463Y-87135373D01*
X124375500Y-87267742D01*
X124375500Y-88356258D01*
X124362463Y-88488627D01*
X124310943Y-88658466D01*
X124227278Y-88814991D01*
X124197948Y-88850729D01*
X124114686Y-88952186D01*
X123977489Y-89064779D01*
X123820967Y-89148442D01*
X123820965Y-89148443D01*
X123651126Y-89199963D01*
X123474500Y-89217359D01*
X123297873Y-89199963D01*
X123128034Y-89148443D01*
X122971509Y-89064778D01*
X122935771Y-89035448D01*
X122834314Y-88952186D01*
X122721721Y-88814989D01*
X122638058Y-88658467D01*
X122638057Y-88658465D01*
X122586537Y-88488626D01*
X122573500Y-88356257D01*
X122573501Y-87267742D01*
X122586538Y-87135373D01*
X122638058Y-86965534D01*
X122721723Y-86809009D01*
X122751053Y-86773271D01*
X122834315Y-86671814D01*
X122935772Y-86588552D01*
X122971510Y-86559222D01*
X123128035Y-86475557D01*
X123297874Y-86424037D01*
X123474500Y-86406641D01*
X123651127Y-86424037D01*
X123651127Y-86424037D01*
G37*
G36*
X116351127Y-86424037D02*
G01*
X116520966Y-86475557D01*
X116677491Y-86559222D01*
X116713229Y-86588552D01*
X116814686Y-86671814D01*
X116897948Y-86773271D01*
X116927278Y-86809009D01*
X117010943Y-86965534D01*
X117062463Y-87135373D01*
X117075500Y-87267742D01*
X117075500Y-88356258D01*
X117062463Y-88488627D01*
X117010943Y-88658466D01*
X116927278Y-88814991D01*
X116897948Y-88850729D01*
X116814686Y-88952186D01*
X116677489Y-89064779D01*
X116520967Y-89148442D01*
X116520965Y-89148443D01*
X116351126Y-89199963D01*
X116174500Y-89217359D01*
X115997873Y-89199963D01*
X115828034Y-89148443D01*
X115671509Y-89064778D01*
X115635771Y-89035448D01*
X115534314Y-88952186D01*
X115421721Y-88814989D01*
X115338058Y-88658467D01*
X115338057Y-88658465D01*
X115286537Y-88488626D01*
X115273500Y-88356257D01*
X115273501Y-87267742D01*
X115286538Y-87135373D01*
X115338058Y-86965534D01*
X115421723Y-86809009D01*
X115451053Y-86773271D01*
X115534315Y-86671814D01*
X115635772Y-86588552D01*
X115671510Y-86559222D01*
X115828035Y-86475557D01*
X115997874Y-86424037D01*
X116174500Y-86406641D01*
X116351127Y-86424037D01*
X116351127Y-86424037D01*
G37*
G36*
X116351127Y-81924037D02*
G01*
X116520966Y-81975557D01*
X116677491Y-82059222D01*
X116713229Y-82088552D01*
X116814686Y-82171814D01*
X116897948Y-82273271D01*
X116927278Y-82309009D01*
X117010943Y-82465534D01*
X117062463Y-82635373D01*
X117075500Y-82767742D01*
X117075500Y-83856258D01*
X117062463Y-83988627D01*
X117010943Y-84158466D01*
X116927278Y-84314991D01*
X116897948Y-84350729D01*
X116814686Y-84452186D01*
X116677489Y-84564779D01*
X116520967Y-84648442D01*
X116520965Y-84648443D01*
X116351126Y-84699963D01*
X116174500Y-84717359D01*
X115997873Y-84699963D01*
X115828034Y-84648443D01*
X115671509Y-84564778D01*
X115635771Y-84535448D01*
X115534314Y-84452186D01*
X115421721Y-84314989D01*
X115338058Y-84158467D01*
X115338057Y-84158465D01*
X115286537Y-83988626D01*
X115273500Y-83856257D01*
X115273501Y-82767742D01*
X115286538Y-82635373D01*
X115338058Y-82465534D01*
X115421723Y-82309009D01*
X115451053Y-82273271D01*
X115534315Y-82171814D01*
X115635772Y-82088552D01*
X115671510Y-82059222D01*
X115828035Y-81975557D01*
X115997874Y-81924037D01*
X116174500Y-81906641D01*
X116351127Y-81924037D01*
X116351127Y-81924037D01*
G37*
G36*
X123651127Y-81924037D02*
G01*
X123820966Y-81975557D01*
X123977491Y-82059222D01*
X124013229Y-82088552D01*
X124114686Y-82171814D01*
X124197948Y-82273271D01*
X124227278Y-82309009D01*
X124310943Y-82465534D01*
X124362463Y-82635373D01*
X124375500Y-82767742D01*
X124375500Y-83856258D01*
X124362463Y-83988627D01*
X124310943Y-84158466D01*
X124227278Y-84314991D01*
X124197948Y-84350729D01*
X124114686Y-84452186D01*
X123977489Y-84564779D01*
X123820967Y-84648442D01*
X123820965Y-84648443D01*
X123651126Y-84699963D01*
X123474500Y-84717359D01*
X123297873Y-84699963D01*
X123128034Y-84648443D01*
X122971509Y-84564778D01*
X122935771Y-84535448D01*
X122834314Y-84452186D01*
X122721721Y-84314989D01*
X122638058Y-84158467D01*
X122638057Y-84158465D01*
X122586537Y-83988626D01*
X122573500Y-83856257D01*
X122573501Y-82767742D01*
X122586538Y-82635373D01*
X122638058Y-82465534D01*
X122721723Y-82309009D01*
X122751053Y-82273271D01*
X122834315Y-82171814D01*
X122935772Y-82088552D01*
X122971510Y-82059222D01*
X123128035Y-81975557D01*
X123297874Y-81924037D01*
X123474500Y-81906641D01*
X123651127Y-81924037D01*
X123651127Y-81924037D01*
G37*
M02*
