M48
; DRILL file {KiCad (5.1.4)-1} date 4/29/2023 11:54:52 AM
; FORMAT={-:-/ absolute / inch / decimal}
; #@! TF.CreationDate,2023-04-29T11:54:52-04:00
; #@! TF.GenerationSoftware,Kicad,Pcbnew,(5.1.4)-1
; #@! TF.FileFunction,Plated,1,2,PTH
FMAT,2
INCH
T1C0.0157
T2C0.0276
T3C0.0579
%
G90
G05
T1
X4.9Y-4.455
X4.985Y-3.76
X5.12Y-3.705
X5.195Y-3.99
X5.1978Y-4.1672
X5.765Y-4.4
X5.905Y-3.895
T3
X6.1312Y-4.2437
X6.1828Y-4.1863
X6.3797Y-4.1666
X6.3812Y-4.1437
X6.8812Y-3.4937
X6.9328Y-3.4363
X7.1297Y-3.4166
X7.1312Y-3.3937
X6.13Y-3.4925
X6.1816Y-3.435
X6.3784Y-3.4153
X6.38Y-3.3925
X6.88Y-4.2425
X6.9316Y-4.185
X7.1284Y-4.1653
X7.13Y-4.1425
T2
G00X4.5738Y-3.2564
M15
G01X4.5738Y-3.3036
M16
G05
G00X4.5738Y-3.4335
M15
G01X4.5738Y-3.4808
M16
G05
G00X4.8612Y-3.2564
M15
G01X4.8612Y-3.3036
M16
G05
G00X4.8612Y-3.4335
M15
G01X4.8612Y-3.4808
M16
G05
T0
M30
