G04 #@! TF.GenerationSoftware,KiCad,Pcbnew,(5.1.4)-1*
G04 #@! TF.CreationDate,2023-04-29T11:54:21-04:00*
G04 #@! TF.ProjectId,Evan-PCB-ISP,4576616e-2d50-4434-922d-4953502e6b69,rev?*
G04 #@! TF.SameCoordinates,Original*
G04 #@! TF.FileFunction,Legend,Top*
G04 #@! TF.FilePolarity,Positive*
%FSLAX46Y46*%
G04 Gerber Fmt 4.6, Leading zero omitted, Abs format (unit mm)*
G04 Created by KiCad (PCBNEW (5.1.4)-1) date 2023-04-29 11:54:21*
%MOMM*%
%LPD*%
G04 APERTURE LIST*
%ADD10C,0.150000*%
%ADD11O,1.802000X2.802000*%
%ADD12C,1.852000*%
%ADD13C,4.089800*%
G04 APERTURE END LIST*
D10*
X131048571Y-116657380D02*
X131048571Y-115657380D01*
X131048571Y-116133571D02*
X131620000Y-116133571D01*
X131620000Y-116657380D02*
X131620000Y-115657380D01*
X132239047Y-116657380D02*
X132143809Y-116609761D01*
X132096190Y-116562142D01*
X132048571Y-116466904D01*
X132048571Y-116181190D01*
X132096190Y-116085952D01*
X132143809Y-116038333D01*
X132239047Y-115990714D01*
X132381904Y-115990714D01*
X132477142Y-116038333D01*
X132524761Y-116085952D01*
X132572380Y-116181190D01*
X132572380Y-116466904D01*
X132524761Y-116562142D01*
X132477142Y-116609761D01*
X132381904Y-116657380D01*
X132239047Y-116657380D01*
X133000952Y-115990714D02*
X133000952Y-116657380D01*
X133000952Y-116085952D02*
X133048571Y-116038333D01*
X133143809Y-115990714D01*
X133286666Y-115990714D01*
X133381904Y-116038333D01*
X133429523Y-116133571D01*
X133429523Y-116657380D01*
X133905714Y-116657380D02*
X133905714Y-115657380D01*
X134000952Y-116276428D02*
X134286666Y-116657380D01*
X134286666Y-115990714D02*
X133905714Y-116371666D01*
X135477142Y-116657380D02*
X135477142Y-115990714D01*
X135477142Y-116181190D02*
X135524761Y-116085952D01*
X135572380Y-116038333D01*
X135667619Y-115990714D01*
X135762857Y-115990714D01*
X136477142Y-116609761D02*
X136381904Y-116657380D01*
X136191428Y-116657380D01*
X136096190Y-116609761D01*
X136048571Y-116514523D01*
X136048571Y-116133571D01*
X136096190Y-116038333D01*
X136191428Y-115990714D01*
X136381904Y-115990714D01*
X136477142Y-116038333D01*
X136524761Y-116133571D01*
X136524761Y-116228809D01*
X136048571Y-116324047D01*
X136858095Y-115990714D02*
X137096190Y-116657380D01*
X137334285Y-115990714D01*
X138239047Y-116657380D02*
X137667619Y-116657380D01*
X137953333Y-116657380D02*
X137953333Y-115657380D01*
X137858095Y-115800238D01*
X137762857Y-115895476D01*
X137667619Y-115943095D01*
%LPC*%
D11*
X116174500Y-83312000D03*
X123474500Y-83312000D03*
X123474500Y-87812000D03*
X116174500Y-87812000D03*
D12*
X183642000Y-110299500D03*
X173482000Y-110299500D03*
D13*
X178562000Y-110299500D03*
D12*
X183673750Y-91281250D03*
X173513750Y-91281250D03*
D13*
X178593750Y-91281250D03*
D12*
X164623750Y-110331250D03*
X154463750Y-110331250D03*
D13*
X159543750Y-110331250D03*
D12*
X164592000Y-91249500D03*
X154432000Y-91249500D03*
D13*
X159512000Y-91249500D03*
M02*
