M48
; DRILL file {KiCad (5.1.4)-1} date 5/20/2023 6:37:01 PM
; FORMAT={-:-/ absolute / inch / decimal}
; #@! TF.CreationDate,2023-05-20T18:37:01-04:00
; #@! TF.GenerationSoftware,Kicad,Pcbnew,(5.1.4)-1
; #@! TF.FileFunction,NonPlated,1,2,NPTH
FMAT,2
INCH
T1C0.0118
T2C0.0256
T3C0.0472
T4C0.0669
T5C0.0709
T6C0.1929
%
G90
G05
T1
X10.4377Y-4.1562
X10.4611Y-4.1562
X10.4845Y-4.1562
X10.5079Y-4.1562
X10.5312Y-4.1562
X10.5546Y-4.1562
X10.578Y-4.1562
X10.6014Y-4.1562
X10.6248Y-4.1562
X2.094Y-1.7188
X2.1174Y-1.7188
X2.1407Y-1.7188
X2.1641Y-1.7188
X2.1875Y-1.7188
X2.2109Y-1.7188
X2.2343Y-1.7188
X2.2576Y-1.7188
X2.281Y-1.7188
X7.8127Y-1.7188
X7.8361Y-1.7188
X7.8595Y-1.7188
X7.8829Y-1.7188
X7.9062Y-1.7188
X7.9296Y-1.7188
X7.953Y-1.7188
X7.9764Y-1.7188
X7.9998Y-1.7188
X0.969Y-4.1562
X0.9924Y-4.1562
X1.0157Y-4.1562
X1.0391Y-4.1562
X1.0625Y-4.1562
X1.0859Y-4.1562
X1.1093Y-4.1562
X1.1326Y-4.1562
X1.156Y-4.1562
X3.594Y-1.7188
X3.6174Y-1.7188
X3.6407Y-1.7188
X3.6641Y-1.7188
X3.6875Y-1.7188
X3.7109Y-1.7188
X3.7343Y-1.7188
X3.7576Y-1.7188
X3.781Y-1.7188
X9.3127Y-1.7188
X9.3361Y-1.7188
X9.3595Y-1.7188
X9.3829Y-1.7188
X9.4062Y-1.7188
X9.4296Y-1.7188
X9.453Y-1.7188
X9.4764Y-1.7188
X9.4998Y-1.7188
T2
X6.23Y-1.8711
X6.4575Y-1.8711
X5.1362Y-1.8711
X5.3638Y-1.8711
T3
X5.2591Y-3.875
X5.5347Y-3.875
X6.0903Y-3.875
X6.3659Y-3.875
T4
X8.4562Y-3.5
X8.8562Y-3.5
X8.0812Y-4.375
X8.4812Y-4.375
X1.9875Y-3.5938
X2.3875Y-3.5938
X10.7062Y-3.0312
X11.1062Y-3.0312
X1.2375Y-3.7812
X1.6375Y-3.7812
X9.2062Y-2.8438
X9.6062Y-2.8438
X10.7062Y-2.2812
X11.1062Y-2.2812
X3.1125Y-4.375
X3.5125Y-4.375
X4.2375Y-2.1875
X4.6375Y-2.1875
X7.7062Y-2.0938
X8.1062Y-2.0938
X6.4312Y-4.483
X6.6312Y-4.8295
X9.9562Y-3.7812
X10.3562Y-3.7812
X0.4875Y-3.0312
X0.8875Y-3.0312
X6.9562Y-2.9375
X7.3563Y-2.9375
X1.2375Y-2.2812
X1.6375Y-2.2812
X6.9562Y-3.6875
X7.3563Y-3.6875
X0.4875Y-3.7812
X0.8875Y-3.7812
X8.4562Y-2.75
X8.8562Y-2.75
X9.9562Y-3.0312
X10.3562Y-3.0312
X0.4875Y-2.2812
X0.8875Y-2.2812
X4.2375Y-2.9375
X4.6375Y-2.9375
X8.4562Y-2.0
X8.8562Y-2.0
X4.9625Y-4.8295
X5.1625Y-4.483
X1.9875Y-2.0938
X2.3875Y-2.0938
X6.9562Y-2.1875
X7.3563Y-2.1875
X3.4875Y-2.8438
X3.8875Y-2.8438
X4.2375Y-3.6875
X4.6375Y-3.6875
X2.7375Y-2.0
X3.1375Y-2.0
X1.2375Y-3.0312
X1.6375Y-3.0312
X7.7062Y-3.5938
X8.1062Y-3.5938
X9.2062Y-3.5938
X9.6062Y-3.5938
X2.7375Y-3.5
X3.1375Y-3.5
X3.4875Y-2.0938
X3.8875Y-2.0938
X7.7062Y-2.8438
X8.1062Y-2.8438
X9.9562Y-2.2812
X10.3562Y-2.2812
X7.2443Y-4.5518
X7.6307Y-4.4482
X9.2062Y-2.0938
X9.6062Y-2.0938
X3.9631Y-4.4482
X4.3494Y-4.5518
X2.7375Y-2.75
X3.1375Y-2.75
X3.4875Y-3.5938
X3.8875Y-3.5938
X10.7062Y-3.7812
X11.1062Y-3.7812
X1.9875Y-2.8438
X2.3875Y-2.8438
T5
X8.4397Y-3.5
X8.8728Y-3.5
X8.0647Y-4.375
X8.4978Y-4.375
X1.971Y-3.5938
X2.404Y-3.5938
X10.6897Y-3.0312
X11.1228Y-3.0312
X1.221Y-3.7812
X1.654Y-3.7812
X9.1897Y-2.8438
X9.6228Y-2.8438
X10.6897Y-2.2812
X11.1228Y-2.2812
X3.096Y-4.375
X3.529Y-4.375
X4.221Y-2.1875
X4.654Y-2.1875
X7.6897Y-2.0938
X8.1228Y-2.0938
X6.423Y-4.4687
X6.6395Y-4.8438
X9.9397Y-3.7812
X10.3728Y-3.7812
X0.471Y-3.0312
X0.904Y-3.0312
X6.9397Y-2.9375
X7.3728Y-2.9375
X1.221Y-2.2812
X1.654Y-2.2812
X6.9397Y-3.6875
X7.3728Y-3.6875
X0.471Y-3.7812
X0.904Y-3.7812
X8.4397Y-2.75
X8.8728Y-2.75
X9.9397Y-3.0312
X10.3728Y-3.0312
X0.471Y-2.2812
X0.904Y-2.2812
X4.221Y-2.9375
X4.654Y-2.9375
X8.4397Y-2.0
X8.8728Y-2.0
X4.9542Y-4.8438
X5.1708Y-4.4687
X1.971Y-2.0938
X2.404Y-2.0938
X6.9397Y-2.1875
X7.3728Y-2.1875
X3.471Y-2.8438
X3.904Y-2.8438
X4.221Y-3.6875
X4.654Y-3.6875
X2.721Y-2.0
X3.154Y-2.0
X1.221Y-3.0312
X1.654Y-3.0312
X7.6897Y-3.5938
X8.1228Y-3.5938
X9.1897Y-3.5938
X9.6228Y-3.5938
X2.721Y-3.5
X3.154Y-3.5
X3.471Y-2.0938
X3.904Y-2.0938
X7.6897Y-2.8438
X8.1228Y-2.8438
X9.9397Y-2.2812
X10.3728Y-2.2812
X7.2283Y-4.556
X7.6467Y-4.444
X9.1897Y-2.0938
X9.6228Y-2.0938
X3.9471Y-4.444
X4.3654Y-4.556
X2.721Y-2.75
X3.154Y-2.75
X3.471Y-3.5938
X3.904Y-3.5938
X10.6897Y-3.7812
X11.1228Y-3.7812
X1.971Y-2.8438
X2.404Y-2.8438
T6
X8.6562Y-3.5
X8.2812Y-4.375
X2.1875Y-3.5938
X10.9062Y-3.0312
X1.4375Y-3.7812
X9.4062Y-2.8438
X10.9062Y-2.2812
X3.3125Y-4.375
X4.4375Y-2.1875
X7.9062Y-2.0938
X6.5312Y-4.6562
X10.1562Y-3.7812
X0.6875Y-3.0312
X7.1562Y-2.9375
X1.4375Y-2.2812
X7.1562Y-3.6875
X0.6875Y-3.7812
X8.6562Y-2.75
X10.1562Y-3.0312
X0.6875Y-2.2812
X4.4375Y-2.9375
X8.6562Y-2.0
X5.0625Y-4.6562
X2.1875Y-2.0938
X7.1562Y-2.1875
X3.6875Y-2.8438
X4.4375Y-3.6875
X2.9375Y-2.0
X1.4375Y-3.0312
X7.9062Y-3.5938
X9.4062Y-3.5938
X2.9375Y-3.5
X3.6875Y-2.0938
X7.9062Y-2.8438
X10.1562Y-2.2812
X7.4375Y-4.5
X9.4062Y-2.0938
X4.1562Y-4.5
X2.9375Y-2.75
X3.6875Y-3.5938
X10.9062Y-3.7812
X2.1875Y-2.8438
T0
M30
