G04 #@! TF.GenerationSoftware,KiCad,Pcbnew,(5.1.4)-1*
G04 #@! TF.CreationDate,2023-05-20T18:36:56-04:00*
G04 #@! TF.ProjectId,Corne Integrated Microchip,436f726e-6520-4496-9e74-656772617465,rev?*
G04 #@! TF.SameCoordinates,Original*
G04 #@! TF.FileFunction,Paste,Top*
G04 #@! TF.FilePolarity,Positive*
%FSLAX46Y46*%
G04 Gerber Fmt 4.6, Leading zero omitted, Abs format (unit mm)*
G04 Created by KiCad (PCBNEW (5.1.4)-1) date 2023-05-20 18:36:56*
%MOMM*%
%LPD*%
G04 APERTURE LIST*
%ADD10C,1.800000*%
%ADD11C,0.100000*%
%ADD12R,0.300000X2.450000*%
%ADD13R,0.600000X2.450000*%
%ADD14R,0.700000X1.000000*%
%ADD15R,0.700000X0.600000*%
%ADD16C,0.550000*%
%ADD17C,1.150000*%
%ADD18C,1.425000*%
G04 APERTURE END LIST*
D10*
X153574750Y-56879071D03*
D11*
G36*
X152215423Y-57133494D02*
G01*
X153115423Y-55574648D01*
X154934077Y-56624648D01*
X154034077Y-58183494D01*
X152215423Y-57133494D01*
X152215423Y-57133494D01*
G37*
D10*
X156086224Y-58329071D03*
D11*
G36*
X154726897Y-58583494D02*
G01*
X155626897Y-57024648D01*
X157445551Y-58074648D01*
X156545551Y-59633494D01*
X154726897Y-58583494D01*
X154726897Y-58583494D01*
G37*
D10*
X154936224Y-60320929D03*
D11*
G36*
X153576897Y-60575352D02*
G01*
X154476897Y-59016506D01*
X156295551Y-60066506D01*
X155395551Y-61625352D01*
X153576897Y-60575352D01*
X153576897Y-60575352D01*
G37*
D10*
X152424750Y-58870929D03*
D11*
G36*
X151065423Y-59125352D02*
G01*
X151965423Y-57566506D01*
X153784077Y-58616506D01*
X152884077Y-60175352D01*
X151065423Y-59125352D01*
X151065423Y-59125352D01*
G37*
D10*
X124731763Y-58870929D03*
D11*
G36*
X123372436Y-59125352D02*
G01*
X124272436Y-57566506D01*
X126091090Y-58616506D01*
X125191090Y-60175352D01*
X123372436Y-59125352D01*
X123372436Y-59125352D01*
G37*
D10*
X127243237Y-60320929D03*
D11*
G36*
X125883910Y-60575352D02*
G01*
X126783910Y-59016506D01*
X128602564Y-60066506D01*
X127702564Y-61625352D01*
X125883910Y-60575352D01*
X125883910Y-60575352D01*
G37*
D10*
X128393237Y-58329071D03*
D11*
G36*
X127033910Y-58583494D02*
G01*
X127933910Y-57024648D01*
X129752564Y-58074648D01*
X128852564Y-59633494D01*
X127033910Y-58583494D01*
X127033910Y-58583494D01*
G37*
D10*
X125881763Y-56879071D03*
D11*
G36*
X124522436Y-57133494D02*
G01*
X125422436Y-55574648D01*
X127241090Y-56624648D01*
X126341090Y-58183494D01*
X124522436Y-57133494D01*
X124522436Y-57133494D01*
G37*
D12*
X133600000Y-49470000D03*
X133100000Y-49470000D03*
X132600000Y-49470000D03*
X134100000Y-49470000D03*
X132100000Y-49470000D03*
X134600000Y-49470000D03*
X131600000Y-49470000D03*
X135100000Y-49470000D03*
D13*
X135800000Y-49470000D03*
X130900000Y-49470000D03*
X136575000Y-49470000D03*
X130125000Y-49470000D03*
D12*
X161381250Y-49470000D03*
X160881250Y-49470000D03*
X160381250Y-49470000D03*
X161881250Y-49470000D03*
X159881250Y-49470000D03*
X162381250Y-49470000D03*
X159381250Y-49470000D03*
X162881250Y-49470000D03*
D13*
X163581250Y-49470000D03*
X158681250Y-49470000D03*
X164356250Y-49470000D03*
X157906250Y-49470000D03*
D14*
X132350000Y-53225000D03*
D15*
X134350000Y-53025000D03*
X132350000Y-54925000D03*
X134350000Y-54925000D03*
D14*
X160131250Y-53225000D03*
D15*
X162131250Y-53025000D03*
X160131250Y-54925000D03*
X162131250Y-54925000D03*
D16*
X167990186Y-78195832D03*
D11*
G36*
X167265402Y-77859956D02*
G01*
X167654310Y-77471048D01*
X168714970Y-78531708D01*
X168326062Y-78920616D01*
X167265402Y-77859956D01*
X167265402Y-77859956D01*
G37*
D16*
X167424500Y-78761517D03*
D11*
G36*
X166699716Y-78425641D02*
G01*
X167088624Y-78036733D01*
X168149284Y-79097393D01*
X167760376Y-79486301D01*
X166699716Y-78425641D01*
X166699716Y-78425641D01*
G37*
D16*
X166858815Y-79327202D03*
D11*
G36*
X166134031Y-78991326D02*
G01*
X166522939Y-78602418D01*
X167583599Y-79663078D01*
X167194691Y-80051986D01*
X166134031Y-78991326D01*
X166134031Y-78991326D01*
G37*
D16*
X166293130Y-79892888D03*
D11*
G36*
X165568346Y-79557012D02*
G01*
X165957254Y-79168104D01*
X167017914Y-80228764D01*
X166629006Y-80617672D01*
X165568346Y-79557012D01*
X165568346Y-79557012D01*
G37*
D16*
X165727444Y-80458573D03*
D11*
G36*
X165002660Y-80122697D02*
G01*
X165391568Y-79733789D01*
X166452228Y-80794449D01*
X166063320Y-81183357D01*
X165002660Y-80122697D01*
X165002660Y-80122697D01*
G37*
D16*
X165161759Y-81024259D03*
D11*
G36*
X164436975Y-80688383D02*
G01*
X164825883Y-80299475D01*
X165886543Y-81360135D01*
X165497635Y-81749043D01*
X164436975Y-80688383D01*
X164436975Y-80688383D01*
G37*
D16*
X164596073Y-81589944D03*
D11*
G36*
X163871289Y-81254068D02*
G01*
X164260197Y-80865160D01*
X165320857Y-81925820D01*
X164931949Y-82314728D01*
X163871289Y-81254068D01*
X163871289Y-81254068D01*
G37*
D16*
X164030388Y-82155630D03*
D11*
G36*
X163305604Y-81819754D02*
G01*
X163694512Y-81430846D01*
X164755172Y-82491506D01*
X164366264Y-82880414D01*
X163305604Y-81819754D01*
X163305604Y-81819754D01*
G37*
D16*
X163464702Y-82721315D03*
D11*
G36*
X162739918Y-82385439D02*
G01*
X163128826Y-81996531D01*
X164189486Y-83057191D01*
X163800578Y-83446099D01*
X162739918Y-82385439D01*
X162739918Y-82385439D01*
G37*
D16*
X162899017Y-83287000D03*
D11*
G36*
X162174233Y-82951124D02*
G01*
X162563141Y-82562216D01*
X163623801Y-83622876D01*
X163234893Y-84011784D01*
X162174233Y-82951124D01*
X162174233Y-82951124D01*
G37*
D16*
X162333332Y-83852686D03*
D11*
G36*
X161608548Y-83516810D02*
G01*
X161997456Y-83127902D01*
X163058116Y-84188562D01*
X162669208Y-84577470D01*
X161608548Y-83516810D01*
X161608548Y-83516810D01*
G37*
D16*
X159929168Y-83852686D03*
D11*
G36*
X160265044Y-83127902D02*
G01*
X160653952Y-83516810D01*
X159593292Y-84577470D01*
X159204384Y-84188562D01*
X160265044Y-83127902D01*
X160265044Y-83127902D01*
G37*
D16*
X159363483Y-83287000D03*
D11*
G36*
X159699359Y-82562216D02*
G01*
X160088267Y-82951124D01*
X159027607Y-84011784D01*
X158638699Y-83622876D01*
X159699359Y-82562216D01*
X159699359Y-82562216D01*
G37*
D16*
X158797798Y-82721315D03*
D11*
G36*
X159133674Y-81996531D02*
G01*
X159522582Y-82385439D01*
X158461922Y-83446099D01*
X158073014Y-83057191D01*
X159133674Y-81996531D01*
X159133674Y-81996531D01*
G37*
D16*
X158232112Y-82155630D03*
D11*
G36*
X158567988Y-81430846D02*
G01*
X158956896Y-81819754D01*
X157896236Y-82880414D01*
X157507328Y-82491506D01*
X158567988Y-81430846D01*
X158567988Y-81430846D01*
G37*
D16*
X157666427Y-81589944D03*
D11*
G36*
X158002303Y-80865160D02*
G01*
X158391211Y-81254068D01*
X157330551Y-82314728D01*
X156941643Y-81925820D01*
X158002303Y-80865160D01*
X158002303Y-80865160D01*
G37*
D16*
X157100741Y-81024259D03*
D11*
G36*
X157436617Y-80299475D02*
G01*
X157825525Y-80688383D01*
X156764865Y-81749043D01*
X156375957Y-81360135D01*
X157436617Y-80299475D01*
X157436617Y-80299475D01*
G37*
D16*
X156535056Y-80458573D03*
D11*
G36*
X156870932Y-79733789D02*
G01*
X157259840Y-80122697D01*
X156199180Y-81183357D01*
X155810272Y-80794449D01*
X156870932Y-79733789D01*
X156870932Y-79733789D01*
G37*
D16*
X155969370Y-79892888D03*
D11*
G36*
X156305246Y-79168104D02*
G01*
X156694154Y-79557012D01*
X155633494Y-80617672D01*
X155244586Y-80228764D01*
X156305246Y-79168104D01*
X156305246Y-79168104D01*
G37*
D16*
X155403685Y-79327202D03*
D11*
G36*
X155739561Y-78602418D02*
G01*
X156128469Y-78991326D01*
X155067809Y-80051986D01*
X154678901Y-79663078D01*
X155739561Y-78602418D01*
X155739561Y-78602418D01*
G37*
D16*
X154838000Y-78761517D03*
D11*
G36*
X155173876Y-78036733D02*
G01*
X155562784Y-78425641D01*
X154502124Y-79486301D01*
X154113216Y-79097393D01*
X155173876Y-78036733D01*
X155173876Y-78036733D01*
G37*
D16*
X154272314Y-78195832D03*
D11*
G36*
X154608190Y-77471048D02*
G01*
X154997098Y-77859956D01*
X153936438Y-78920616D01*
X153547530Y-78531708D01*
X154608190Y-77471048D01*
X154608190Y-77471048D01*
G37*
D16*
X154272314Y-75791668D03*
D11*
G36*
X153547530Y-75455792D02*
G01*
X153936438Y-75066884D01*
X154997098Y-76127544D01*
X154608190Y-76516452D01*
X153547530Y-75455792D01*
X153547530Y-75455792D01*
G37*
D16*
X154838000Y-75225983D03*
D11*
G36*
X154113216Y-74890107D02*
G01*
X154502124Y-74501199D01*
X155562784Y-75561859D01*
X155173876Y-75950767D01*
X154113216Y-74890107D01*
X154113216Y-74890107D01*
G37*
D16*
X155403685Y-74660298D03*
D11*
G36*
X154678901Y-74324422D02*
G01*
X155067809Y-73935514D01*
X156128469Y-74996174D01*
X155739561Y-75385082D01*
X154678901Y-74324422D01*
X154678901Y-74324422D01*
G37*
D16*
X155969370Y-74094612D03*
D11*
G36*
X155244586Y-73758736D02*
G01*
X155633494Y-73369828D01*
X156694154Y-74430488D01*
X156305246Y-74819396D01*
X155244586Y-73758736D01*
X155244586Y-73758736D01*
G37*
D16*
X156535056Y-73528927D03*
D11*
G36*
X155810272Y-73193051D02*
G01*
X156199180Y-72804143D01*
X157259840Y-73864803D01*
X156870932Y-74253711D01*
X155810272Y-73193051D01*
X155810272Y-73193051D01*
G37*
D16*
X157100741Y-72963241D03*
D11*
G36*
X156375957Y-72627365D02*
G01*
X156764865Y-72238457D01*
X157825525Y-73299117D01*
X157436617Y-73688025D01*
X156375957Y-72627365D01*
X156375957Y-72627365D01*
G37*
D16*
X157666427Y-72397556D03*
D11*
G36*
X156941643Y-72061680D02*
G01*
X157330551Y-71672772D01*
X158391211Y-72733432D01*
X158002303Y-73122340D01*
X156941643Y-72061680D01*
X156941643Y-72061680D01*
G37*
D16*
X158232112Y-71831870D03*
D11*
G36*
X157507328Y-71495994D02*
G01*
X157896236Y-71107086D01*
X158956896Y-72167746D01*
X158567988Y-72556654D01*
X157507328Y-71495994D01*
X157507328Y-71495994D01*
G37*
D16*
X158797798Y-71266185D03*
D11*
G36*
X158073014Y-70930309D02*
G01*
X158461922Y-70541401D01*
X159522582Y-71602061D01*
X159133674Y-71990969D01*
X158073014Y-70930309D01*
X158073014Y-70930309D01*
G37*
D16*
X159363483Y-70700500D03*
D11*
G36*
X158638699Y-70364624D02*
G01*
X159027607Y-69975716D01*
X160088267Y-71036376D01*
X159699359Y-71425284D01*
X158638699Y-70364624D01*
X158638699Y-70364624D01*
G37*
D16*
X159929168Y-70134814D03*
D11*
G36*
X159204384Y-69798938D02*
G01*
X159593292Y-69410030D01*
X160653952Y-70470690D01*
X160265044Y-70859598D01*
X159204384Y-69798938D01*
X159204384Y-69798938D01*
G37*
D16*
X162333332Y-70134814D03*
D11*
G36*
X162669208Y-69410030D02*
G01*
X163058116Y-69798938D01*
X161997456Y-70859598D01*
X161608548Y-70470690D01*
X162669208Y-69410030D01*
X162669208Y-69410030D01*
G37*
D16*
X162899017Y-70700500D03*
D11*
G36*
X163234893Y-69975716D02*
G01*
X163623801Y-70364624D01*
X162563141Y-71425284D01*
X162174233Y-71036376D01*
X163234893Y-69975716D01*
X163234893Y-69975716D01*
G37*
D16*
X163464702Y-71266185D03*
D11*
G36*
X163800578Y-70541401D02*
G01*
X164189486Y-70930309D01*
X163128826Y-71990969D01*
X162739918Y-71602061D01*
X163800578Y-70541401D01*
X163800578Y-70541401D01*
G37*
D16*
X164030388Y-71831870D03*
D11*
G36*
X164366264Y-71107086D02*
G01*
X164755172Y-71495994D01*
X163694512Y-72556654D01*
X163305604Y-72167746D01*
X164366264Y-71107086D01*
X164366264Y-71107086D01*
G37*
D16*
X164596073Y-72397556D03*
D11*
G36*
X164931949Y-71672772D02*
G01*
X165320857Y-72061680D01*
X164260197Y-73122340D01*
X163871289Y-72733432D01*
X164931949Y-71672772D01*
X164931949Y-71672772D01*
G37*
D16*
X165161759Y-72963241D03*
D11*
G36*
X165497635Y-72238457D02*
G01*
X165886543Y-72627365D01*
X164825883Y-73688025D01*
X164436975Y-73299117D01*
X165497635Y-72238457D01*
X165497635Y-72238457D01*
G37*
D16*
X165727444Y-73528927D03*
D11*
G36*
X166063320Y-72804143D02*
G01*
X166452228Y-73193051D01*
X165391568Y-74253711D01*
X165002660Y-73864803D01*
X166063320Y-72804143D01*
X166063320Y-72804143D01*
G37*
D16*
X166293130Y-74094612D03*
D11*
G36*
X166629006Y-73369828D02*
G01*
X167017914Y-73758736D01*
X165957254Y-74819396D01*
X165568346Y-74430488D01*
X166629006Y-73369828D01*
X166629006Y-73369828D01*
G37*
D16*
X166858815Y-74660298D03*
D11*
G36*
X167194691Y-73935514D02*
G01*
X167583599Y-74324422D01*
X166522939Y-75385082D01*
X166134031Y-74996174D01*
X167194691Y-73935514D01*
X167194691Y-73935514D01*
G37*
D16*
X167424500Y-75225983D03*
D11*
G36*
X167760376Y-74501199D02*
G01*
X168149284Y-74890107D01*
X167088624Y-75950767D01*
X166699716Y-75561859D01*
X167760376Y-74501199D01*
X167760376Y-74501199D01*
G37*
D16*
X167990186Y-75791668D03*
D11*
G36*
X168326062Y-75066884D02*
G01*
X168714970Y-75455792D01*
X167654310Y-76516452D01*
X167265402Y-76127544D01*
X168326062Y-75066884D01*
X168326062Y-75066884D01*
G37*
D16*
X140208936Y-75791668D03*
D11*
G36*
X140544812Y-75066884D02*
G01*
X140933720Y-75455792D01*
X139873060Y-76516452D01*
X139484152Y-76127544D01*
X140544812Y-75066884D01*
X140544812Y-75066884D01*
G37*
D16*
X139643250Y-75225983D03*
D11*
G36*
X139979126Y-74501199D02*
G01*
X140368034Y-74890107D01*
X139307374Y-75950767D01*
X138918466Y-75561859D01*
X139979126Y-74501199D01*
X139979126Y-74501199D01*
G37*
D16*
X139077565Y-74660298D03*
D11*
G36*
X139413441Y-73935514D02*
G01*
X139802349Y-74324422D01*
X138741689Y-75385082D01*
X138352781Y-74996174D01*
X139413441Y-73935514D01*
X139413441Y-73935514D01*
G37*
D16*
X138511880Y-74094612D03*
D11*
G36*
X138847756Y-73369828D02*
G01*
X139236664Y-73758736D01*
X138176004Y-74819396D01*
X137787096Y-74430488D01*
X138847756Y-73369828D01*
X138847756Y-73369828D01*
G37*
D16*
X137946194Y-73528927D03*
D11*
G36*
X138282070Y-72804143D02*
G01*
X138670978Y-73193051D01*
X137610318Y-74253711D01*
X137221410Y-73864803D01*
X138282070Y-72804143D01*
X138282070Y-72804143D01*
G37*
D16*
X137380509Y-72963241D03*
D11*
G36*
X137716385Y-72238457D02*
G01*
X138105293Y-72627365D01*
X137044633Y-73688025D01*
X136655725Y-73299117D01*
X137716385Y-72238457D01*
X137716385Y-72238457D01*
G37*
D16*
X136814823Y-72397556D03*
D11*
G36*
X137150699Y-71672772D02*
G01*
X137539607Y-72061680D01*
X136478947Y-73122340D01*
X136090039Y-72733432D01*
X137150699Y-71672772D01*
X137150699Y-71672772D01*
G37*
D16*
X136249138Y-71831870D03*
D11*
G36*
X136585014Y-71107086D02*
G01*
X136973922Y-71495994D01*
X135913262Y-72556654D01*
X135524354Y-72167746D01*
X136585014Y-71107086D01*
X136585014Y-71107086D01*
G37*
D16*
X135683452Y-71266185D03*
D11*
G36*
X136019328Y-70541401D02*
G01*
X136408236Y-70930309D01*
X135347576Y-71990969D01*
X134958668Y-71602061D01*
X136019328Y-70541401D01*
X136019328Y-70541401D01*
G37*
D16*
X135117767Y-70700500D03*
D11*
G36*
X135453643Y-69975716D02*
G01*
X135842551Y-70364624D01*
X134781891Y-71425284D01*
X134392983Y-71036376D01*
X135453643Y-69975716D01*
X135453643Y-69975716D01*
G37*
D16*
X134552082Y-70134814D03*
D11*
G36*
X134887958Y-69410030D02*
G01*
X135276866Y-69798938D01*
X134216206Y-70859598D01*
X133827298Y-70470690D01*
X134887958Y-69410030D01*
X134887958Y-69410030D01*
G37*
D16*
X132147918Y-70134814D03*
D11*
G36*
X131423134Y-69798938D02*
G01*
X131812042Y-69410030D01*
X132872702Y-70470690D01*
X132483794Y-70859598D01*
X131423134Y-69798938D01*
X131423134Y-69798938D01*
G37*
D16*
X131582233Y-70700500D03*
D11*
G36*
X130857449Y-70364624D02*
G01*
X131246357Y-69975716D01*
X132307017Y-71036376D01*
X131918109Y-71425284D01*
X130857449Y-70364624D01*
X130857449Y-70364624D01*
G37*
D16*
X131016548Y-71266185D03*
D11*
G36*
X130291764Y-70930309D02*
G01*
X130680672Y-70541401D01*
X131741332Y-71602061D01*
X131352424Y-71990969D01*
X130291764Y-70930309D01*
X130291764Y-70930309D01*
G37*
D16*
X130450862Y-71831870D03*
D11*
G36*
X129726078Y-71495994D02*
G01*
X130114986Y-71107086D01*
X131175646Y-72167746D01*
X130786738Y-72556654D01*
X129726078Y-71495994D01*
X129726078Y-71495994D01*
G37*
D16*
X129885177Y-72397556D03*
D11*
G36*
X129160393Y-72061680D02*
G01*
X129549301Y-71672772D01*
X130609961Y-72733432D01*
X130221053Y-73122340D01*
X129160393Y-72061680D01*
X129160393Y-72061680D01*
G37*
D16*
X129319491Y-72963241D03*
D11*
G36*
X128594707Y-72627365D02*
G01*
X128983615Y-72238457D01*
X130044275Y-73299117D01*
X129655367Y-73688025D01*
X128594707Y-72627365D01*
X128594707Y-72627365D01*
G37*
D16*
X128753806Y-73528927D03*
D11*
G36*
X128029022Y-73193051D02*
G01*
X128417930Y-72804143D01*
X129478590Y-73864803D01*
X129089682Y-74253711D01*
X128029022Y-73193051D01*
X128029022Y-73193051D01*
G37*
D16*
X128188120Y-74094612D03*
D11*
G36*
X127463336Y-73758736D02*
G01*
X127852244Y-73369828D01*
X128912904Y-74430488D01*
X128523996Y-74819396D01*
X127463336Y-73758736D01*
X127463336Y-73758736D01*
G37*
D16*
X127622435Y-74660298D03*
D11*
G36*
X126897651Y-74324422D02*
G01*
X127286559Y-73935514D01*
X128347219Y-74996174D01*
X127958311Y-75385082D01*
X126897651Y-74324422D01*
X126897651Y-74324422D01*
G37*
D16*
X127056750Y-75225983D03*
D11*
G36*
X126331966Y-74890107D02*
G01*
X126720874Y-74501199D01*
X127781534Y-75561859D01*
X127392626Y-75950767D01*
X126331966Y-74890107D01*
X126331966Y-74890107D01*
G37*
D16*
X126491064Y-75791668D03*
D11*
G36*
X125766280Y-75455792D02*
G01*
X126155188Y-75066884D01*
X127215848Y-76127544D01*
X126826940Y-76516452D01*
X125766280Y-75455792D01*
X125766280Y-75455792D01*
G37*
D16*
X126491064Y-78195832D03*
D11*
G36*
X126826940Y-77471048D02*
G01*
X127215848Y-77859956D01*
X126155188Y-78920616D01*
X125766280Y-78531708D01*
X126826940Y-77471048D01*
X126826940Y-77471048D01*
G37*
D16*
X127056750Y-78761517D03*
D11*
G36*
X127392626Y-78036733D02*
G01*
X127781534Y-78425641D01*
X126720874Y-79486301D01*
X126331966Y-79097393D01*
X127392626Y-78036733D01*
X127392626Y-78036733D01*
G37*
D16*
X127622435Y-79327202D03*
D11*
G36*
X127958311Y-78602418D02*
G01*
X128347219Y-78991326D01*
X127286559Y-80051986D01*
X126897651Y-79663078D01*
X127958311Y-78602418D01*
X127958311Y-78602418D01*
G37*
D16*
X128188120Y-79892888D03*
D11*
G36*
X128523996Y-79168104D02*
G01*
X128912904Y-79557012D01*
X127852244Y-80617672D01*
X127463336Y-80228764D01*
X128523996Y-79168104D01*
X128523996Y-79168104D01*
G37*
D16*
X128753806Y-80458573D03*
D11*
G36*
X129089682Y-79733789D02*
G01*
X129478590Y-80122697D01*
X128417930Y-81183357D01*
X128029022Y-80794449D01*
X129089682Y-79733789D01*
X129089682Y-79733789D01*
G37*
D16*
X129319491Y-81024259D03*
D11*
G36*
X129655367Y-80299475D02*
G01*
X130044275Y-80688383D01*
X128983615Y-81749043D01*
X128594707Y-81360135D01*
X129655367Y-80299475D01*
X129655367Y-80299475D01*
G37*
D16*
X129885177Y-81589944D03*
D11*
G36*
X130221053Y-80865160D02*
G01*
X130609961Y-81254068D01*
X129549301Y-82314728D01*
X129160393Y-81925820D01*
X130221053Y-80865160D01*
X130221053Y-80865160D01*
G37*
D16*
X130450862Y-82155630D03*
D11*
G36*
X130786738Y-81430846D02*
G01*
X131175646Y-81819754D01*
X130114986Y-82880414D01*
X129726078Y-82491506D01*
X130786738Y-81430846D01*
X130786738Y-81430846D01*
G37*
D16*
X131016548Y-82721315D03*
D11*
G36*
X131352424Y-81996531D02*
G01*
X131741332Y-82385439D01*
X130680672Y-83446099D01*
X130291764Y-83057191D01*
X131352424Y-81996531D01*
X131352424Y-81996531D01*
G37*
D16*
X131582233Y-83287000D03*
D11*
G36*
X131918109Y-82562216D02*
G01*
X132307017Y-82951124D01*
X131246357Y-84011784D01*
X130857449Y-83622876D01*
X131918109Y-82562216D01*
X131918109Y-82562216D01*
G37*
D16*
X132147918Y-83852686D03*
D11*
G36*
X132483794Y-83127902D02*
G01*
X132872702Y-83516810D01*
X131812042Y-84577470D01*
X131423134Y-84188562D01*
X132483794Y-83127902D01*
X132483794Y-83127902D01*
G37*
D16*
X134552082Y-83852686D03*
D11*
G36*
X133827298Y-83516810D02*
G01*
X134216206Y-83127902D01*
X135276866Y-84188562D01*
X134887958Y-84577470D01*
X133827298Y-83516810D01*
X133827298Y-83516810D01*
G37*
D16*
X135117767Y-83287000D03*
D11*
G36*
X134392983Y-82951124D02*
G01*
X134781891Y-82562216D01*
X135842551Y-83622876D01*
X135453643Y-84011784D01*
X134392983Y-82951124D01*
X134392983Y-82951124D01*
G37*
D16*
X135683452Y-82721315D03*
D11*
G36*
X134958668Y-82385439D02*
G01*
X135347576Y-81996531D01*
X136408236Y-83057191D01*
X136019328Y-83446099D01*
X134958668Y-82385439D01*
X134958668Y-82385439D01*
G37*
D16*
X136249138Y-82155630D03*
D11*
G36*
X135524354Y-81819754D02*
G01*
X135913262Y-81430846D01*
X136973922Y-82491506D01*
X136585014Y-82880414D01*
X135524354Y-81819754D01*
X135524354Y-81819754D01*
G37*
D16*
X136814823Y-81589944D03*
D11*
G36*
X136090039Y-81254068D02*
G01*
X136478947Y-80865160D01*
X137539607Y-81925820D01*
X137150699Y-82314728D01*
X136090039Y-81254068D01*
X136090039Y-81254068D01*
G37*
D16*
X137380509Y-81024259D03*
D11*
G36*
X136655725Y-80688383D02*
G01*
X137044633Y-80299475D01*
X138105293Y-81360135D01*
X137716385Y-81749043D01*
X136655725Y-80688383D01*
X136655725Y-80688383D01*
G37*
D16*
X137946194Y-80458573D03*
D11*
G36*
X137221410Y-80122697D02*
G01*
X137610318Y-79733789D01*
X138670978Y-80794449D01*
X138282070Y-81183357D01*
X137221410Y-80122697D01*
X137221410Y-80122697D01*
G37*
D16*
X138511880Y-79892888D03*
D11*
G36*
X137787096Y-79557012D02*
G01*
X138176004Y-79168104D01*
X139236664Y-80228764D01*
X138847756Y-80617672D01*
X137787096Y-79557012D01*
X137787096Y-79557012D01*
G37*
D16*
X139077565Y-79327202D03*
D11*
G36*
X138352781Y-78991326D02*
G01*
X138741689Y-78602418D01*
X139802349Y-79663078D01*
X139413441Y-80051986D01*
X138352781Y-78991326D01*
X138352781Y-78991326D01*
G37*
D16*
X139643250Y-78761517D03*
D11*
G36*
X138918466Y-78425641D02*
G01*
X139307374Y-78036733D01*
X140368034Y-79097393D01*
X139979126Y-79486301D01*
X138918466Y-78425641D01*
X138918466Y-78425641D01*
G37*
D16*
X140208936Y-78195832D03*
D11*
G36*
X139484152Y-77859956D02*
G01*
X139873060Y-77471048D01*
X140933720Y-78531708D01*
X140544812Y-78920616D01*
X139484152Y-77859956D01*
X139484152Y-77859956D01*
G37*
G36*
X137437005Y-53276204D02*
G01*
X137461273Y-53279804D01*
X137485072Y-53285765D01*
X137508171Y-53294030D01*
X137530350Y-53304520D01*
X137551393Y-53317132D01*
X137571099Y-53331747D01*
X137589277Y-53348223D01*
X137605753Y-53366401D01*
X137620368Y-53386107D01*
X137632980Y-53407150D01*
X137643470Y-53429329D01*
X137651735Y-53452428D01*
X137657696Y-53476227D01*
X137661296Y-53500495D01*
X137662500Y-53524999D01*
X137662500Y-54425001D01*
X137661296Y-54449505D01*
X137657696Y-54473773D01*
X137651735Y-54497572D01*
X137643470Y-54520671D01*
X137632980Y-54542850D01*
X137620368Y-54563893D01*
X137605753Y-54583599D01*
X137589277Y-54601777D01*
X137571099Y-54618253D01*
X137551393Y-54632868D01*
X137530350Y-54645480D01*
X137508171Y-54655970D01*
X137485072Y-54664235D01*
X137461273Y-54670196D01*
X137437005Y-54673796D01*
X137412501Y-54675000D01*
X136762499Y-54675000D01*
X136737995Y-54673796D01*
X136713727Y-54670196D01*
X136689928Y-54664235D01*
X136666829Y-54655970D01*
X136644650Y-54645480D01*
X136623607Y-54632868D01*
X136603901Y-54618253D01*
X136585723Y-54601777D01*
X136569247Y-54583599D01*
X136554632Y-54563893D01*
X136542020Y-54542850D01*
X136531530Y-54520671D01*
X136523265Y-54497572D01*
X136517304Y-54473773D01*
X136513704Y-54449505D01*
X136512500Y-54425001D01*
X136512500Y-53524999D01*
X136513704Y-53500495D01*
X136517304Y-53476227D01*
X136523265Y-53452428D01*
X136531530Y-53429329D01*
X136542020Y-53407150D01*
X136554632Y-53386107D01*
X136569247Y-53366401D01*
X136585723Y-53348223D01*
X136603901Y-53331747D01*
X136623607Y-53317132D01*
X136644650Y-53304520D01*
X136666829Y-53294030D01*
X136689928Y-53285765D01*
X136713727Y-53279804D01*
X136737995Y-53276204D01*
X136762499Y-53275000D01*
X137412501Y-53275000D01*
X137437005Y-53276204D01*
X137437005Y-53276204D01*
G37*
D17*
X137087500Y-53975000D03*
D11*
G36*
X139487005Y-53276204D02*
G01*
X139511273Y-53279804D01*
X139535072Y-53285765D01*
X139558171Y-53294030D01*
X139580350Y-53304520D01*
X139601393Y-53317132D01*
X139621099Y-53331747D01*
X139639277Y-53348223D01*
X139655753Y-53366401D01*
X139670368Y-53386107D01*
X139682980Y-53407150D01*
X139693470Y-53429329D01*
X139701735Y-53452428D01*
X139707696Y-53476227D01*
X139711296Y-53500495D01*
X139712500Y-53524999D01*
X139712500Y-54425001D01*
X139711296Y-54449505D01*
X139707696Y-54473773D01*
X139701735Y-54497572D01*
X139693470Y-54520671D01*
X139682980Y-54542850D01*
X139670368Y-54563893D01*
X139655753Y-54583599D01*
X139639277Y-54601777D01*
X139621099Y-54618253D01*
X139601393Y-54632868D01*
X139580350Y-54645480D01*
X139558171Y-54655970D01*
X139535072Y-54664235D01*
X139511273Y-54670196D01*
X139487005Y-54673796D01*
X139462501Y-54675000D01*
X138812499Y-54675000D01*
X138787995Y-54673796D01*
X138763727Y-54670196D01*
X138739928Y-54664235D01*
X138716829Y-54655970D01*
X138694650Y-54645480D01*
X138673607Y-54632868D01*
X138653901Y-54618253D01*
X138635723Y-54601777D01*
X138619247Y-54583599D01*
X138604632Y-54563893D01*
X138592020Y-54542850D01*
X138581530Y-54520671D01*
X138573265Y-54497572D01*
X138567304Y-54473773D01*
X138563704Y-54449505D01*
X138562500Y-54425001D01*
X138562500Y-53524999D01*
X138563704Y-53500495D01*
X138567304Y-53476227D01*
X138573265Y-53452428D01*
X138581530Y-53429329D01*
X138592020Y-53407150D01*
X138604632Y-53386107D01*
X138619247Y-53366401D01*
X138635723Y-53348223D01*
X138653901Y-53331747D01*
X138673607Y-53317132D01*
X138694650Y-53304520D01*
X138716829Y-53294030D01*
X138739928Y-53285765D01*
X138763727Y-53279804D01*
X138787995Y-53276204D01*
X138812499Y-53275000D01*
X139462501Y-53275000D01*
X139487005Y-53276204D01*
X139487005Y-53276204D01*
G37*
D17*
X139137500Y-53975000D03*
D11*
G36*
X129962005Y-53276204D02*
G01*
X129986273Y-53279804D01*
X130010072Y-53285765D01*
X130033171Y-53294030D01*
X130055350Y-53304520D01*
X130076393Y-53317132D01*
X130096099Y-53331747D01*
X130114277Y-53348223D01*
X130130753Y-53366401D01*
X130145368Y-53386107D01*
X130157980Y-53407150D01*
X130168470Y-53429329D01*
X130176735Y-53452428D01*
X130182696Y-53476227D01*
X130186296Y-53500495D01*
X130187500Y-53524999D01*
X130187500Y-54425001D01*
X130186296Y-54449505D01*
X130182696Y-54473773D01*
X130176735Y-54497572D01*
X130168470Y-54520671D01*
X130157980Y-54542850D01*
X130145368Y-54563893D01*
X130130753Y-54583599D01*
X130114277Y-54601777D01*
X130096099Y-54618253D01*
X130076393Y-54632868D01*
X130055350Y-54645480D01*
X130033171Y-54655970D01*
X130010072Y-54664235D01*
X129986273Y-54670196D01*
X129962005Y-54673796D01*
X129937501Y-54675000D01*
X129287499Y-54675000D01*
X129262995Y-54673796D01*
X129238727Y-54670196D01*
X129214928Y-54664235D01*
X129191829Y-54655970D01*
X129169650Y-54645480D01*
X129148607Y-54632868D01*
X129128901Y-54618253D01*
X129110723Y-54601777D01*
X129094247Y-54583599D01*
X129079632Y-54563893D01*
X129067020Y-54542850D01*
X129056530Y-54520671D01*
X129048265Y-54497572D01*
X129042304Y-54473773D01*
X129038704Y-54449505D01*
X129037500Y-54425001D01*
X129037500Y-53524999D01*
X129038704Y-53500495D01*
X129042304Y-53476227D01*
X129048265Y-53452428D01*
X129056530Y-53429329D01*
X129067020Y-53407150D01*
X129079632Y-53386107D01*
X129094247Y-53366401D01*
X129110723Y-53348223D01*
X129128901Y-53331747D01*
X129148607Y-53317132D01*
X129169650Y-53304520D01*
X129191829Y-53294030D01*
X129214928Y-53285765D01*
X129238727Y-53279804D01*
X129262995Y-53276204D01*
X129287499Y-53275000D01*
X129937501Y-53275000D01*
X129962005Y-53276204D01*
X129962005Y-53276204D01*
G37*
D17*
X129612500Y-53975000D03*
D11*
G36*
X127912005Y-53276204D02*
G01*
X127936273Y-53279804D01*
X127960072Y-53285765D01*
X127983171Y-53294030D01*
X128005350Y-53304520D01*
X128026393Y-53317132D01*
X128046099Y-53331747D01*
X128064277Y-53348223D01*
X128080753Y-53366401D01*
X128095368Y-53386107D01*
X128107980Y-53407150D01*
X128118470Y-53429329D01*
X128126735Y-53452428D01*
X128132696Y-53476227D01*
X128136296Y-53500495D01*
X128137500Y-53524999D01*
X128137500Y-54425001D01*
X128136296Y-54449505D01*
X128132696Y-54473773D01*
X128126735Y-54497572D01*
X128118470Y-54520671D01*
X128107980Y-54542850D01*
X128095368Y-54563893D01*
X128080753Y-54583599D01*
X128064277Y-54601777D01*
X128046099Y-54618253D01*
X128026393Y-54632868D01*
X128005350Y-54645480D01*
X127983171Y-54655970D01*
X127960072Y-54664235D01*
X127936273Y-54670196D01*
X127912005Y-54673796D01*
X127887501Y-54675000D01*
X127237499Y-54675000D01*
X127212995Y-54673796D01*
X127188727Y-54670196D01*
X127164928Y-54664235D01*
X127141829Y-54655970D01*
X127119650Y-54645480D01*
X127098607Y-54632868D01*
X127078901Y-54618253D01*
X127060723Y-54601777D01*
X127044247Y-54583599D01*
X127029632Y-54563893D01*
X127017020Y-54542850D01*
X127006530Y-54520671D01*
X126998265Y-54497572D01*
X126992304Y-54473773D01*
X126988704Y-54449505D01*
X126987500Y-54425001D01*
X126987500Y-53524999D01*
X126988704Y-53500495D01*
X126992304Y-53476227D01*
X126998265Y-53452428D01*
X127006530Y-53429329D01*
X127017020Y-53407150D01*
X127029632Y-53386107D01*
X127044247Y-53366401D01*
X127060723Y-53348223D01*
X127078901Y-53331747D01*
X127098607Y-53317132D01*
X127119650Y-53304520D01*
X127141829Y-53294030D01*
X127164928Y-53285765D01*
X127188727Y-53279804D01*
X127212995Y-53276204D01*
X127237499Y-53275000D01*
X127887501Y-53275000D01*
X127912005Y-53276204D01*
X127912005Y-53276204D01*
G37*
D17*
X127562500Y-53975000D03*
D11*
G36*
X132808505Y-57138704D02*
G01*
X132832773Y-57142304D01*
X132856572Y-57148265D01*
X132879671Y-57156530D01*
X132901850Y-57167020D01*
X132922893Y-57179632D01*
X132942599Y-57194247D01*
X132960777Y-57210723D01*
X132977253Y-57228901D01*
X132991868Y-57248607D01*
X133004480Y-57269650D01*
X133014970Y-57291829D01*
X133023235Y-57314928D01*
X133029196Y-57338727D01*
X133032796Y-57362995D01*
X133034000Y-57387499D01*
X133034000Y-58037501D01*
X133032796Y-58062005D01*
X133029196Y-58086273D01*
X133023235Y-58110072D01*
X133014970Y-58133171D01*
X133004480Y-58155350D01*
X132991868Y-58176393D01*
X132977253Y-58196099D01*
X132960777Y-58214277D01*
X132942599Y-58230753D01*
X132922893Y-58245368D01*
X132901850Y-58257980D01*
X132879671Y-58268470D01*
X132856572Y-58276735D01*
X132832773Y-58282696D01*
X132808505Y-58286296D01*
X132784001Y-58287500D01*
X131883999Y-58287500D01*
X131859495Y-58286296D01*
X131835227Y-58282696D01*
X131811428Y-58276735D01*
X131788329Y-58268470D01*
X131766150Y-58257980D01*
X131745107Y-58245368D01*
X131725401Y-58230753D01*
X131707223Y-58214277D01*
X131690747Y-58196099D01*
X131676132Y-58176393D01*
X131663520Y-58155350D01*
X131653030Y-58133171D01*
X131644765Y-58110072D01*
X131638804Y-58086273D01*
X131635204Y-58062005D01*
X131634000Y-58037501D01*
X131634000Y-57387499D01*
X131635204Y-57362995D01*
X131638804Y-57338727D01*
X131644765Y-57314928D01*
X131653030Y-57291829D01*
X131663520Y-57269650D01*
X131676132Y-57248607D01*
X131690747Y-57228901D01*
X131707223Y-57210723D01*
X131725401Y-57194247D01*
X131745107Y-57179632D01*
X131766150Y-57167020D01*
X131788329Y-57156530D01*
X131811428Y-57148265D01*
X131835227Y-57142304D01*
X131859495Y-57138704D01*
X131883999Y-57137500D01*
X132784001Y-57137500D01*
X132808505Y-57138704D01*
X132808505Y-57138704D01*
G37*
D17*
X132334000Y-57712500D03*
D11*
G36*
X132808505Y-59188704D02*
G01*
X132832773Y-59192304D01*
X132856572Y-59198265D01*
X132879671Y-59206530D01*
X132901850Y-59217020D01*
X132922893Y-59229632D01*
X132942599Y-59244247D01*
X132960777Y-59260723D01*
X132977253Y-59278901D01*
X132991868Y-59298607D01*
X133004480Y-59319650D01*
X133014970Y-59341829D01*
X133023235Y-59364928D01*
X133029196Y-59388727D01*
X133032796Y-59412995D01*
X133034000Y-59437499D01*
X133034000Y-60087501D01*
X133032796Y-60112005D01*
X133029196Y-60136273D01*
X133023235Y-60160072D01*
X133014970Y-60183171D01*
X133004480Y-60205350D01*
X132991868Y-60226393D01*
X132977253Y-60246099D01*
X132960777Y-60264277D01*
X132942599Y-60280753D01*
X132922893Y-60295368D01*
X132901850Y-60307980D01*
X132879671Y-60318470D01*
X132856572Y-60326735D01*
X132832773Y-60332696D01*
X132808505Y-60336296D01*
X132784001Y-60337500D01*
X131883999Y-60337500D01*
X131859495Y-60336296D01*
X131835227Y-60332696D01*
X131811428Y-60326735D01*
X131788329Y-60318470D01*
X131766150Y-60307980D01*
X131745107Y-60295368D01*
X131725401Y-60280753D01*
X131707223Y-60264277D01*
X131690747Y-60246099D01*
X131676132Y-60226393D01*
X131663520Y-60205350D01*
X131653030Y-60183171D01*
X131644765Y-60160072D01*
X131638804Y-60136273D01*
X131635204Y-60112005D01*
X131634000Y-60087501D01*
X131634000Y-59437499D01*
X131635204Y-59412995D01*
X131638804Y-59388727D01*
X131644765Y-59364928D01*
X131653030Y-59341829D01*
X131663520Y-59319650D01*
X131676132Y-59298607D01*
X131690747Y-59278901D01*
X131707223Y-59260723D01*
X131725401Y-59244247D01*
X131745107Y-59229632D01*
X131766150Y-59217020D01*
X131788329Y-59206530D01*
X131811428Y-59198265D01*
X131835227Y-59192304D01*
X131859495Y-59188704D01*
X131883999Y-59187500D01*
X132784001Y-59187500D01*
X132808505Y-59188704D01*
X132808505Y-59188704D01*
G37*
D17*
X132334000Y-59762500D03*
D11*
G36*
X134840505Y-57138704D02*
G01*
X134864773Y-57142304D01*
X134888572Y-57148265D01*
X134911671Y-57156530D01*
X134933850Y-57167020D01*
X134954893Y-57179632D01*
X134974599Y-57194247D01*
X134992777Y-57210723D01*
X135009253Y-57228901D01*
X135023868Y-57248607D01*
X135036480Y-57269650D01*
X135046970Y-57291829D01*
X135055235Y-57314928D01*
X135061196Y-57338727D01*
X135064796Y-57362995D01*
X135066000Y-57387499D01*
X135066000Y-58037501D01*
X135064796Y-58062005D01*
X135061196Y-58086273D01*
X135055235Y-58110072D01*
X135046970Y-58133171D01*
X135036480Y-58155350D01*
X135023868Y-58176393D01*
X135009253Y-58196099D01*
X134992777Y-58214277D01*
X134974599Y-58230753D01*
X134954893Y-58245368D01*
X134933850Y-58257980D01*
X134911671Y-58268470D01*
X134888572Y-58276735D01*
X134864773Y-58282696D01*
X134840505Y-58286296D01*
X134816001Y-58287500D01*
X133915999Y-58287500D01*
X133891495Y-58286296D01*
X133867227Y-58282696D01*
X133843428Y-58276735D01*
X133820329Y-58268470D01*
X133798150Y-58257980D01*
X133777107Y-58245368D01*
X133757401Y-58230753D01*
X133739223Y-58214277D01*
X133722747Y-58196099D01*
X133708132Y-58176393D01*
X133695520Y-58155350D01*
X133685030Y-58133171D01*
X133676765Y-58110072D01*
X133670804Y-58086273D01*
X133667204Y-58062005D01*
X133666000Y-58037501D01*
X133666000Y-57387499D01*
X133667204Y-57362995D01*
X133670804Y-57338727D01*
X133676765Y-57314928D01*
X133685030Y-57291829D01*
X133695520Y-57269650D01*
X133708132Y-57248607D01*
X133722747Y-57228901D01*
X133739223Y-57210723D01*
X133757401Y-57194247D01*
X133777107Y-57179632D01*
X133798150Y-57167020D01*
X133820329Y-57156530D01*
X133843428Y-57148265D01*
X133867227Y-57142304D01*
X133891495Y-57138704D01*
X133915999Y-57137500D01*
X134816001Y-57137500D01*
X134840505Y-57138704D01*
X134840505Y-57138704D01*
G37*
D17*
X134366000Y-57712500D03*
D11*
G36*
X134840505Y-59188704D02*
G01*
X134864773Y-59192304D01*
X134888572Y-59198265D01*
X134911671Y-59206530D01*
X134933850Y-59217020D01*
X134954893Y-59229632D01*
X134974599Y-59244247D01*
X134992777Y-59260723D01*
X135009253Y-59278901D01*
X135023868Y-59298607D01*
X135036480Y-59319650D01*
X135046970Y-59341829D01*
X135055235Y-59364928D01*
X135061196Y-59388727D01*
X135064796Y-59412995D01*
X135066000Y-59437499D01*
X135066000Y-60087501D01*
X135064796Y-60112005D01*
X135061196Y-60136273D01*
X135055235Y-60160072D01*
X135046970Y-60183171D01*
X135036480Y-60205350D01*
X135023868Y-60226393D01*
X135009253Y-60246099D01*
X134992777Y-60264277D01*
X134974599Y-60280753D01*
X134954893Y-60295368D01*
X134933850Y-60307980D01*
X134911671Y-60318470D01*
X134888572Y-60326735D01*
X134864773Y-60332696D01*
X134840505Y-60336296D01*
X134816001Y-60337500D01*
X133915999Y-60337500D01*
X133891495Y-60336296D01*
X133867227Y-60332696D01*
X133843428Y-60326735D01*
X133820329Y-60318470D01*
X133798150Y-60307980D01*
X133777107Y-60295368D01*
X133757401Y-60280753D01*
X133739223Y-60264277D01*
X133722747Y-60246099D01*
X133708132Y-60226393D01*
X133695520Y-60205350D01*
X133685030Y-60183171D01*
X133676765Y-60160072D01*
X133670804Y-60136273D01*
X133667204Y-60112005D01*
X133666000Y-60087501D01*
X133666000Y-59437499D01*
X133667204Y-59412995D01*
X133670804Y-59388727D01*
X133676765Y-59364928D01*
X133685030Y-59341829D01*
X133695520Y-59319650D01*
X133708132Y-59298607D01*
X133722747Y-59278901D01*
X133739223Y-59260723D01*
X133757401Y-59244247D01*
X133777107Y-59229632D01*
X133798150Y-59217020D01*
X133820329Y-59206530D01*
X133843428Y-59198265D01*
X133867227Y-59192304D01*
X133891495Y-59188704D01*
X133915999Y-59187500D01*
X134816001Y-59187500D01*
X134840505Y-59188704D01*
X134840505Y-59188704D01*
G37*
D17*
X134366000Y-59762500D03*
D11*
G36*
X165218255Y-53276204D02*
G01*
X165242523Y-53279804D01*
X165266322Y-53285765D01*
X165289421Y-53294030D01*
X165311600Y-53304520D01*
X165332643Y-53317132D01*
X165352349Y-53331747D01*
X165370527Y-53348223D01*
X165387003Y-53366401D01*
X165401618Y-53386107D01*
X165414230Y-53407150D01*
X165424720Y-53429329D01*
X165432985Y-53452428D01*
X165438946Y-53476227D01*
X165442546Y-53500495D01*
X165443750Y-53524999D01*
X165443750Y-54425001D01*
X165442546Y-54449505D01*
X165438946Y-54473773D01*
X165432985Y-54497572D01*
X165424720Y-54520671D01*
X165414230Y-54542850D01*
X165401618Y-54563893D01*
X165387003Y-54583599D01*
X165370527Y-54601777D01*
X165352349Y-54618253D01*
X165332643Y-54632868D01*
X165311600Y-54645480D01*
X165289421Y-54655970D01*
X165266322Y-54664235D01*
X165242523Y-54670196D01*
X165218255Y-54673796D01*
X165193751Y-54675000D01*
X164543749Y-54675000D01*
X164519245Y-54673796D01*
X164494977Y-54670196D01*
X164471178Y-54664235D01*
X164448079Y-54655970D01*
X164425900Y-54645480D01*
X164404857Y-54632868D01*
X164385151Y-54618253D01*
X164366973Y-54601777D01*
X164350497Y-54583599D01*
X164335882Y-54563893D01*
X164323270Y-54542850D01*
X164312780Y-54520671D01*
X164304515Y-54497572D01*
X164298554Y-54473773D01*
X164294954Y-54449505D01*
X164293750Y-54425001D01*
X164293750Y-53524999D01*
X164294954Y-53500495D01*
X164298554Y-53476227D01*
X164304515Y-53452428D01*
X164312780Y-53429329D01*
X164323270Y-53407150D01*
X164335882Y-53386107D01*
X164350497Y-53366401D01*
X164366973Y-53348223D01*
X164385151Y-53331747D01*
X164404857Y-53317132D01*
X164425900Y-53304520D01*
X164448079Y-53294030D01*
X164471178Y-53285765D01*
X164494977Y-53279804D01*
X164519245Y-53276204D01*
X164543749Y-53275000D01*
X165193751Y-53275000D01*
X165218255Y-53276204D01*
X165218255Y-53276204D01*
G37*
D17*
X164868750Y-53975000D03*
D11*
G36*
X167268255Y-53276204D02*
G01*
X167292523Y-53279804D01*
X167316322Y-53285765D01*
X167339421Y-53294030D01*
X167361600Y-53304520D01*
X167382643Y-53317132D01*
X167402349Y-53331747D01*
X167420527Y-53348223D01*
X167437003Y-53366401D01*
X167451618Y-53386107D01*
X167464230Y-53407150D01*
X167474720Y-53429329D01*
X167482985Y-53452428D01*
X167488946Y-53476227D01*
X167492546Y-53500495D01*
X167493750Y-53524999D01*
X167493750Y-54425001D01*
X167492546Y-54449505D01*
X167488946Y-54473773D01*
X167482985Y-54497572D01*
X167474720Y-54520671D01*
X167464230Y-54542850D01*
X167451618Y-54563893D01*
X167437003Y-54583599D01*
X167420527Y-54601777D01*
X167402349Y-54618253D01*
X167382643Y-54632868D01*
X167361600Y-54645480D01*
X167339421Y-54655970D01*
X167316322Y-54664235D01*
X167292523Y-54670196D01*
X167268255Y-54673796D01*
X167243751Y-54675000D01*
X166593749Y-54675000D01*
X166569245Y-54673796D01*
X166544977Y-54670196D01*
X166521178Y-54664235D01*
X166498079Y-54655970D01*
X166475900Y-54645480D01*
X166454857Y-54632868D01*
X166435151Y-54618253D01*
X166416973Y-54601777D01*
X166400497Y-54583599D01*
X166385882Y-54563893D01*
X166373270Y-54542850D01*
X166362780Y-54520671D01*
X166354515Y-54497572D01*
X166348554Y-54473773D01*
X166344954Y-54449505D01*
X166343750Y-54425001D01*
X166343750Y-53524999D01*
X166344954Y-53500495D01*
X166348554Y-53476227D01*
X166354515Y-53452428D01*
X166362780Y-53429329D01*
X166373270Y-53407150D01*
X166385882Y-53386107D01*
X166400497Y-53366401D01*
X166416973Y-53348223D01*
X166435151Y-53331747D01*
X166454857Y-53317132D01*
X166475900Y-53304520D01*
X166498079Y-53294030D01*
X166521178Y-53285765D01*
X166544977Y-53279804D01*
X166569245Y-53276204D01*
X166593749Y-53275000D01*
X167243751Y-53275000D01*
X167268255Y-53276204D01*
X167268255Y-53276204D01*
G37*
D17*
X166918750Y-53975000D03*
D11*
G36*
X157512005Y-53276204D02*
G01*
X157536273Y-53279804D01*
X157560072Y-53285765D01*
X157583171Y-53294030D01*
X157605350Y-53304520D01*
X157626393Y-53317132D01*
X157646099Y-53331747D01*
X157664277Y-53348223D01*
X157680753Y-53366401D01*
X157695368Y-53386107D01*
X157707980Y-53407150D01*
X157718470Y-53429329D01*
X157726735Y-53452428D01*
X157732696Y-53476227D01*
X157736296Y-53500495D01*
X157737500Y-53524999D01*
X157737500Y-54425001D01*
X157736296Y-54449505D01*
X157732696Y-54473773D01*
X157726735Y-54497572D01*
X157718470Y-54520671D01*
X157707980Y-54542850D01*
X157695368Y-54563893D01*
X157680753Y-54583599D01*
X157664277Y-54601777D01*
X157646099Y-54618253D01*
X157626393Y-54632868D01*
X157605350Y-54645480D01*
X157583171Y-54655970D01*
X157560072Y-54664235D01*
X157536273Y-54670196D01*
X157512005Y-54673796D01*
X157487501Y-54675000D01*
X156837499Y-54675000D01*
X156812995Y-54673796D01*
X156788727Y-54670196D01*
X156764928Y-54664235D01*
X156741829Y-54655970D01*
X156719650Y-54645480D01*
X156698607Y-54632868D01*
X156678901Y-54618253D01*
X156660723Y-54601777D01*
X156644247Y-54583599D01*
X156629632Y-54563893D01*
X156617020Y-54542850D01*
X156606530Y-54520671D01*
X156598265Y-54497572D01*
X156592304Y-54473773D01*
X156588704Y-54449505D01*
X156587500Y-54425001D01*
X156587500Y-53524999D01*
X156588704Y-53500495D01*
X156592304Y-53476227D01*
X156598265Y-53452428D01*
X156606530Y-53429329D01*
X156617020Y-53407150D01*
X156629632Y-53386107D01*
X156644247Y-53366401D01*
X156660723Y-53348223D01*
X156678901Y-53331747D01*
X156698607Y-53317132D01*
X156719650Y-53304520D01*
X156741829Y-53294030D01*
X156764928Y-53285765D01*
X156788727Y-53279804D01*
X156812995Y-53276204D01*
X156837499Y-53275000D01*
X157487501Y-53275000D01*
X157512005Y-53276204D01*
X157512005Y-53276204D01*
G37*
D17*
X157162500Y-53975000D03*
D11*
G36*
X155462005Y-53276204D02*
G01*
X155486273Y-53279804D01*
X155510072Y-53285765D01*
X155533171Y-53294030D01*
X155555350Y-53304520D01*
X155576393Y-53317132D01*
X155596099Y-53331747D01*
X155614277Y-53348223D01*
X155630753Y-53366401D01*
X155645368Y-53386107D01*
X155657980Y-53407150D01*
X155668470Y-53429329D01*
X155676735Y-53452428D01*
X155682696Y-53476227D01*
X155686296Y-53500495D01*
X155687500Y-53524999D01*
X155687500Y-54425001D01*
X155686296Y-54449505D01*
X155682696Y-54473773D01*
X155676735Y-54497572D01*
X155668470Y-54520671D01*
X155657980Y-54542850D01*
X155645368Y-54563893D01*
X155630753Y-54583599D01*
X155614277Y-54601777D01*
X155596099Y-54618253D01*
X155576393Y-54632868D01*
X155555350Y-54645480D01*
X155533171Y-54655970D01*
X155510072Y-54664235D01*
X155486273Y-54670196D01*
X155462005Y-54673796D01*
X155437501Y-54675000D01*
X154787499Y-54675000D01*
X154762995Y-54673796D01*
X154738727Y-54670196D01*
X154714928Y-54664235D01*
X154691829Y-54655970D01*
X154669650Y-54645480D01*
X154648607Y-54632868D01*
X154628901Y-54618253D01*
X154610723Y-54601777D01*
X154594247Y-54583599D01*
X154579632Y-54563893D01*
X154567020Y-54542850D01*
X154556530Y-54520671D01*
X154548265Y-54497572D01*
X154542304Y-54473773D01*
X154538704Y-54449505D01*
X154537500Y-54425001D01*
X154537500Y-53524999D01*
X154538704Y-53500495D01*
X154542304Y-53476227D01*
X154548265Y-53452428D01*
X154556530Y-53429329D01*
X154567020Y-53407150D01*
X154579632Y-53386107D01*
X154594247Y-53366401D01*
X154610723Y-53348223D01*
X154628901Y-53331747D01*
X154648607Y-53317132D01*
X154669650Y-53304520D01*
X154691829Y-53294030D01*
X154714928Y-53285765D01*
X154738727Y-53279804D01*
X154762995Y-53276204D01*
X154787499Y-53275000D01*
X155437501Y-53275000D01*
X155462005Y-53276204D01*
X155462005Y-53276204D01*
G37*
D17*
X155112500Y-53975000D03*
D11*
G36*
X160589755Y-57369954D02*
G01*
X160614023Y-57373554D01*
X160637822Y-57379515D01*
X160660921Y-57387780D01*
X160683100Y-57398270D01*
X160704143Y-57410882D01*
X160723849Y-57425497D01*
X160742027Y-57441973D01*
X160758503Y-57460151D01*
X160773118Y-57479857D01*
X160785730Y-57500900D01*
X160796220Y-57523079D01*
X160804485Y-57546178D01*
X160810446Y-57569977D01*
X160814046Y-57594245D01*
X160815250Y-57618749D01*
X160815250Y-58268751D01*
X160814046Y-58293255D01*
X160810446Y-58317523D01*
X160804485Y-58341322D01*
X160796220Y-58364421D01*
X160785730Y-58386600D01*
X160773118Y-58407643D01*
X160758503Y-58427349D01*
X160742027Y-58445527D01*
X160723849Y-58462003D01*
X160704143Y-58476618D01*
X160683100Y-58489230D01*
X160660921Y-58499720D01*
X160637822Y-58507985D01*
X160614023Y-58513946D01*
X160589755Y-58517546D01*
X160565251Y-58518750D01*
X159665249Y-58518750D01*
X159640745Y-58517546D01*
X159616477Y-58513946D01*
X159592678Y-58507985D01*
X159569579Y-58499720D01*
X159547400Y-58489230D01*
X159526357Y-58476618D01*
X159506651Y-58462003D01*
X159488473Y-58445527D01*
X159471997Y-58427349D01*
X159457382Y-58407643D01*
X159444770Y-58386600D01*
X159434280Y-58364421D01*
X159426015Y-58341322D01*
X159420054Y-58317523D01*
X159416454Y-58293255D01*
X159415250Y-58268751D01*
X159415250Y-57618749D01*
X159416454Y-57594245D01*
X159420054Y-57569977D01*
X159426015Y-57546178D01*
X159434280Y-57523079D01*
X159444770Y-57500900D01*
X159457382Y-57479857D01*
X159471997Y-57460151D01*
X159488473Y-57441973D01*
X159506651Y-57425497D01*
X159526357Y-57410882D01*
X159547400Y-57398270D01*
X159569579Y-57387780D01*
X159592678Y-57379515D01*
X159616477Y-57373554D01*
X159640745Y-57369954D01*
X159665249Y-57368750D01*
X160565251Y-57368750D01*
X160589755Y-57369954D01*
X160589755Y-57369954D01*
G37*
D17*
X160115250Y-57943750D03*
D11*
G36*
X160589755Y-59419954D02*
G01*
X160614023Y-59423554D01*
X160637822Y-59429515D01*
X160660921Y-59437780D01*
X160683100Y-59448270D01*
X160704143Y-59460882D01*
X160723849Y-59475497D01*
X160742027Y-59491973D01*
X160758503Y-59510151D01*
X160773118Y-59529857D01*
X160785730Y-59550900D01*
X160796220Y-59573079D01*
X160804485Y-59596178D01*
X160810446Y-59619977D01*
X160814046Y-59644245D01*
X160815250Y-59668749D01*
X160815250Y-60318751D01*
X160814046Y-60343255D01*
X160810446Y-60367523D01*
X160804485Y-60391322D01*
X160796220Y-60414421D01*
X160785730Y-60436600D01*
X160773118Y-60457643D01*
X160758503Y-60477349D01*
X160742027Y-60495527D01*
X160723849Y-60512003D01*
X160704143Y-60526618D01*
X160683100Y-60539230D01*
X160660921Y-60549720D01*
X160637822Y-60557985D01*
X160614023Y-60563946D01*
X160589755Y-60567546D01*
X160565251Y-60568750D01*
X159665249Y-60568750D01*
X159640745Y-60567546D01*
X159616477Y-60563946D01*
X159592678Y-60557985D01*
X159569579Y-60549720D01*
X159547400Y-60539230D01*
X159526357Y-60526618D01*
X159506651Y-60512003D01*
X159488473Y-60495527D01*
X159471997Y-60477349D01*
X159457382Y-60457643D01*
X159444770Y-60436600D01*
X159434280Y-60414421D01*
X159426015Y-60391322D01*
X159420054Y-60367523D01*
X159416454Y-60343255D01*
X159415250Y-60318751D01*
X159415250Y-59668749D01*
X159416454Y-59644245D01*
X159420054Y-59619977D01*
X159426015Y-59596178D01*
X159434280Y-59573079D01*
X159444770Y-59550900D01*
X159457382Y-59529857D01*
X159471997Y-59510151D01*
X159488473Y-59491973D01*
X159506651Y-59475497D01*
X159526357Y-59460882D01*
X159547400Y-59448270D01*
X159569579Y-59437780D01*
X159592678Y-59429515D01*
X159616477Y-59423554D01*
X159640745Y-59419954D01*
X159665249Y-59418750D01*
X160565251Y-59418750D01*
X160589755Y-59419954D01*
X160589755Y-59419954D01*
G37*
D17*
X160115250Y-59993750D03*
D11*
G36*
X162621755Y-57369954D02*
G01*
X162646023Y-57373554D01*
X162669822Y-57379515D01*
X162692921Y-57387780D01*
X162715100Y-57398270D01*
X162736143Y-57410882D01*
X162755849Y-57425497D01*
X162774027Y-57441973D01*
X162790503Y-57460151D01*
X162805118Y-57479857D01*
X162817730Y-57500900D01*
X162828220Y-57523079D01*
X162836485Y-57546178D01*
X162842446Y-57569977D01*
X162846046Y-57594245D01*
X162847250Y-57618749D01*
X162847250Y-58268751D01*
X162846046Y-58293255D01*
X162842446Y-58317523D01*
X162836485Y-58341322D01*
X162828220Y-58364421D01*
X162817730Y-58386600D01*
X162805118Y-58407643D01*
X162790503Y-58427349D01*
X162774027Y-58445527D01*
X162755849Y-58462003D01*
X162736143Y-58476618D01*
X162715100Y-58489230D01*
X162692921Y-58499720D01*
X162669822Y-58507985D01*
X162646023Y-58513946D01*
X162621755Y-58517546D01*
X162597251Y-58518750D01*
X161697249Y-58518750D01*
X161672745Y-58517546D01*
X161648477Y-58513946D01*
X161624678Y-58507985D01*
X161601579Y-58499720D01*
X161579400Y-58489230D01*
X161558357Y-58476618D01*
X161538651Y-58462003D01*
X161520473Y-58445527D01*
X161503997Y-58427349D01*
X161489382Y-58407643D01*
X161476770Y-58386600D01*
X161466280Y-58364421D01*
X161458015Y-58341322D01*
X161452054Y-58317523D01*
X161448454Y-58293255D01*
X161447250Y-58268751D01*
X161447250Y-57618749D01*
X161448454Y-57594245D01*
X161452054Y-57569977D01*
X161458015Y-57546178D01*
X161466280Y-57523079D01*
X161476770Y-57500900D01*
X161489382Y-57479857D01*
X161503997Y-57460151D01*
X161520473Y-57441973D01*
X161538651Y-57425497D01*
X161558357Y-57410882D01*
X161579400Y-57398270D01*
X161601579Y-57387780D01*
X161624678Y-57379515D01*
X161648477Y-57373554D01*
X161672745Y-57369954D01*
X161697249Y-57368750D01*
X162597251Y-57368750D01*
X162621755Y-57369954D01*
X162621755Y-57369954D01*
G37*
D17*
X162147250Y-57943750D03*
D11*
G36*
X162621755Y-59419954D02*
G01*
X162646023Y-59423554D01*
X162669822Y-59429515D01*
X162692921Y-59437780D01*
X162715100Y-59448270D01*
X162736143Y-59460882D01*
X162755849Y-59475497D01*
X162774027Y-59491973D01*
X162790503Y-59510151D01*
X162805118Y-59529857D01*
X162817730Y-59550900D01*
X162828220Y-59573079D01*
X162836485Y-59596178D01*
X162842446Y-59619977D01*
X162846046Y-59644245D01*
X162847250Y-59668749D01*
X162847250Y-60318751D01*
X162846046Y-60343255D01*
X162842446Y-60367523D01*
X162836485Y-60391322D01*
X162828220Y-60414421D01*
X162817730Y-60436600D01*
X162805118Y-60457643D01*
X162790503Y-60477349D01*
X162774027Y-60495527D01*
X162755849Y-60512003D01*
X162736143Y-60526618D01*
X162715100Y-60539230D01*
X162692921Y-60549720D01*
X162669822Y-60557985D01*
X162646023Y-60563946D01*
X162621755Y-60567546D01*
X162597251Y-60568750D01*
X161697249Y-60568750D01*
X161672745Y-60567546D01*
X161648477Y-60563946D01*
X161624678Y-60557985D01*
X161601579Y-60549720D01*
X161579400Y-60539230D01*
X161558357Y-60526618D01*
X161538651Y-60512003D01*
X161520473Y-60495527D01*
X161503997Y-60477349D01*
X161489382Y-60457643D01*
X161476770Y-60436600D01*
X161466280Y-60414421D01*
X161458015Y-60391322D01*
X161452054Y-60367523D01*
X161448454Y-60343255D01*
X161447250Y-60318751D01*
X161447250Y-59668749D01*
X161448454Y-59644245D01*
X161452054Y-59619977D01*
X161458015Y-59596178D01*
X161466280Y-59573079D01*
X161476770Y-59550900D01*
X161489382Y-59529857D01*
X161503997Y-59510151D01*
X161520473Y-59491973D01*
X161538651Y-59475497D01*
X161558357Y-59460882D01*
X161579400Y-59448270D01*
X161601579Y-59437780D01*
X161624678Y-59429515D01*
X161648477Y-59423554D01*
X161672745Y-59419954D01*
X161697249Y-59418750D01*
X162597251Y-59418750D01*
X162621755Y-59419954D01*
X162621755Y-59419954D01*
G37*
D17*
X162147250Y-59993750D03*
D11*
G36*
X158000176Y-84859230D02*
G01*
X158024444Y-84862830D01*
X158048243Y-84868791D01*
X158071342Y-84877056D01*
X158093521Y-84887546D01*
X158114564Y-84900158D01*
X158134270Y-84914773D01*
X158152448Y-84931249D01*
X158612069Y-85390870D01*
X158628545Y-85409048D01*
X158643160Y-85428754D01*
X158655772Y-85449797D01*
X158666262Y-85471976D01*
X158674527Y-85495075D01*
X158680488Y-85518874D01*
X158684088Y-85543142D01*
X158685292Y-85567646D01*
X158684088Y-85592150D01*
X158680488Y-85616418D01*
X158674527Y-85640217D01*
X158666262Y-85663316D01*
X158655772Y-85685495D01*
X158643160Y-85706538D01*
X158628545Y-85726244D01*
X158612069Y-85744422D01*
X157975672Y-86380819D01*
X157957494Y-86397295D01*
X157937788Y-86411910D01*
X157916745Y-86424522D01*
X157894566Y-86435012D01*
X157871467Y-86443277D01*
X157847668Y-86449238D01*
X157823400Y-86452838D01*
X157798896Y-86454042D01*
X157774392Y-86452838D01*
X157750124Y-86449238D01*
X157726325Y-86443277D01*
X157703226Y-86435012D01*
X157681047Y-86424522D01*
X157660004Y-86411910D01*
X157640298Y-86397295D01*
X157622120Y-86380819D01*
X157162499Y-85921198D01*
X157146023Y-85903020D01*
X157131408Y-85883314D01*
X157118796Y-85862271D01*
X157108306Y-85840092D01*
X157100041Y-85816993D01*
X157094080Y-85793194D01*
X157090480Y-85768926D01*
X157089276Y-85744422D01*
X157090480Y-85719918D01*
X157094080Y-85695650D01*
X157100041Y-85671851D01*
X157108306Y-85648752D01*
X157118796Y-85626573D01*
X157131408Y-85605530D01*
X157146023Y-85585824D01*
X157162499Y-85567646D01*
X157798896Y-84931249D01*
X157817074Y-84914773D01*
X157836780Y-84900158D01*
X157857823Y-84887546D01*
X157880002Y-84877056D01*
X157903101Y-84868791D01*
X157926900Y-84862830D01*
X157951168Y-84859230D01*
X157975672Y-84858026D01*
X158000176Y-84859230D01*
X158000176Y-84859230D01*
G37*
D17*
X157887284Y-85656034D03*
D11*
G36*
X156550608Y-83409662D02*
G01*
X156574876Y-83413262D01*
X156598675Y-83419223D01*
X156621774Y-83427488D01*
X156643953Y-83437978D01*
X156664996Y-83450590D01*
X156684702Y-83465205D01*
X156702880Y-83481681D01*
X157162501Y-83941302D01*
X157178977Y-83959480D01*
X157193592Y-83979186D01*
X157206204Y-84000229D01*
X157216694Y-84022408D01*
X157224959Y-84045507D01*
X157230920Y-84069306D01*
X157234520Y-84093574D01*
X157235724Y-84118078D01*
X157234520Y-84142582D01*
X157230920Y-84166850D01*
X157224959Y-84190649D01*
X157216694Y-84213748D01*
X157206204Y-84235927D01*
X157193592Y-84256970D01*
X157178977Y-84276676D01*
X157162501Y-84294854D01*
X156526104Y-84931251D01*
X156507926Y-84947727D01*
X156488220Y-84962342D01*
X156467177Y-84974954D01*
X156444998Y-84985444D01*
X156421899Y-84993709D01*
X156398100Y-84999670D01*
X156373832Y-85003270D01*
X156349328Y-85004474D01*
X156324824Y-85003270D01*
X156300556Y-84999670D01*
X156276757Y-84993709D01*
X156253658Y-84985444D01*
X156231479Y-84974954D01*
X156210436Y-84962342D01*
X156190730Y-84947727D01*
X156172552Y-84931251D01*
X155712931Y-84471630D01*
X155696455Y-84453452D01*
X155681840Y-84433746D01*
X155669228Y-84412703D01*
X155658738Y-84390524D01*
X155650473Y-84367425D01*
X155644512Y-84343626D01*
X155640912Y-84319358D01*
X155639708Y-84294854D01*
X155640912Y-84270350D01*
X155644512Y-84246082D01*
X155650473Y-84222283D01*
X155658738Y-84199184D01*
X155669228Y-84177005D01*
X155681840Y-84155962D01*
X155696455Y-84136256D01*
X155712931Y-84118078D01*
X156349328Y-83481681D01*
X156367506Y-83465205D01*
X156387212Y-83450590D01*
X156408255Y-83437978D01*
X156430434Y-83427488D01*
X156453533Y-83419223D01*
X156477332Y-83413262D01*
X156501600Y-83409662D01*
X156526104Y-83408458D01*
X156550608Y-83409662D01*
X156550608Y-83409662D01*
G37*
D17*
X156437716Y-84206466D03*
D11*
G36*
X130218926Y-84859230D02*
G01*
X130243194Y-84862830D01*
X130266993Y-84868791D01*
X130290092Y-84877056D01*
X130312271Y-84887546D01*
X130333314Y-84900158D01*
X130353020Y-84914773D01*
X130371198Y-84931249D01*
X130830819Y-85390870D01*
X130847295Y-85409048D01*
X130861910Y-85428754D01*
X130874522Y-85449797D01*
X130885012Y-85471976D01*
X130893277Y-85495075D01*
X130899238Y-85518874D01*
X130902838Y-85543142D01*
X130904042Y-85567646D01*
X130902838Y-85592150D01*
X130899238Y-85616418D01*
X130893277Y-85640217D01*
X130885012Y-85663316D01*
X130874522Y-85685495D01*
X130861910Y-85706538D01*
X130847295Y-85726244D01*
X130830819Y-85744422D01*
X130194422Y-86380819D01*
X130176244Y-86397295D01*
X130156538Y-86411910D01*
X130135495Y-86424522D01*
X130113316Y-86435012D01*
X130090217Y-86443277D01*
X130066418Y-86449238D01*
X130042150Y-86452838D01*
X130017646Y-86454042D01*
X129993142Y-86452838D01*
X129968874Y-86449238D01*
X129945075Y-86443277D01*
X129921976Y-86435012D01*
X129899797Y-86424522D01*
X129878754Y-86411910D01*
X129859048Y-86397295D01*
X129840870Y-86380819D01*
X129381249Y-85921198D01*
X129364773Y-85903020D01*
X129350158Y-85883314D01*
X129337546Y-85862271D01*
X129327056Y-85840092D01*
X129318791Y-85816993D01*
X129312830Y-85793194D01*
X129309230Y-85768926D01*
X129308026Y-85744422D01*
X129309230Y-85719918D01*
X129312830Y-85695650D01*
X129318791Y-85671851D01*
X129327056Y-85648752D01*
X129337546Y-85626573D01*
X129350158Y-85605530D01*
X129364773Y-85585824D01*
X129381249Y-85567646D01*
X130017646Y-84931249D01*
X130035824Y-84914773D01*
X130055530Y-84900158D01*
X130076573Y-84887546D01*
X130098752Y-84877056D01*
X130121851Y-84868791D01*
X130145650Y-84862830D01*
X130169918Y-84859230D01*
X130194422Y-84858026D01*
X130218926Y-84859230D01*
X130218926Y-84859230D01*
G37*
D17*
X130106034Y-85656034D03*
D11*
G36*
X128769358Y-83409662D02*
G01*
X128793626Y-83413262D01*
X128817425Y-83419223D01*
X128840524Y-83427488D01*
X128862703Y-83437978D01*
X128883746Y-83450590D01*
X128903452Y-83465205D01*
X128921630Y-83481681D01*
X129381251Y-83941302D01*
X129397727Y-83959480D01*
X129412342Y-83979186D01*
X129424954Y-84000229D01*
X129435444Y-84022408D01*
X129443709Y-84045507D01*
X129449670Y-84069306D01*
X129453270Y-84093574D01*
X129454474Y-84118078D01*
X129453270Y-84142582D01*
X129449670Y-84166850D01*
X129443709Y-84190649D01*
X129435444Y-84213748D01*
X129424954Y-84235927D01*
X129412342Y-84256970D01*
X129397727Y-84276676D01*
X129381251Y-84294854D01*
X128744854Y-84931251D01*
X128726676Y-84947727D01*
X128706970Y-84962342D01*
X128685927Y-84974954D01*
X128663748Y-84985444D01*
X128640649Y-84993709D01*
X128616850Y-84999670D01*
X128592582Y-85003270D01*
X128568078Y-85004474D01*
X128543574Y-85003270D01*
X128519306Y-84999670D01*
X128495507Y-84993709D01*
X128472408Y-84985444D01*
X128450229Y-84974954D01*
X128429186Y-84962342D01*
X128409480Y-84947727D01*
X128391302Y-84931251D01*
X127931681Y-84471630D01*
X127915205Y-84453452D01*
X127900590Y-84433746D01*
X127887978Y-84412703D01*
X127877488Y-84390524D01*
X127869223Y-84367425D01*
X127863262Y-84343626D01*
X127859662Y-84319358D01*
X127858458Y-84294854D01*
X127859662Y-84270350D01*
X127863262Y-84246082D01*
X127869223Y-84222283D01*
X127877488Y-84199184D01*
X127887978Y-84177005D01*
X127900590Y-84155962D01*
X127915205Y-84136256D01*
X127931681Y-84118078D01*
X128568078Y-83481681D01*
X128586256Y-83465205D01*
X128605962Y-83450590D01*
X128627005Y-83437978D01*
X128649184Y-83427488D01*
X128672283Y-83419223D01*
X128696082Y-83413262D01*
X128720350Y-83409662D01*
X128744854Y-83408458D01*
X128769358Y-83409662D01*
X128769358Y-83409662D01*
G37*
D17*
X128656466Y-84206466D03*
D11*
G36*
X169128971Y-89127420D02*
G01*
X169153239Y-89131020D01*
X169177038Y-89136981D01*
X169200137Y-89145246D01*
X169222316Y-89155736D01*
X169243359Y-89168348D01*
X169263065Y-89182963D01*
X169281243Y-89199439D01*
X169297719Y-89217617D01*
X169312334Y-89237323D01*
X169324946Y-89258366D01*
X169335436Y-89280545D01*
X169343701Y-89303644D01*
X169349662Y-89327443D01*
X169353262Y-89351711D01*
X169354466Y-89376215D01*
X169354466Y-90276217D01*
X169353262Y-90300721D01*
X169349662Y-90324989D01*
X169343701Y-90348788D01*
X169335436Y-90371887D01*
X169324946Y-90394066D01*
X169312334Y-90415109D01*
X169297719Y-90434815D01*
X169281243Y-90452993D01*
X169263065Y-90469469D01*
X169243359Y-90484084D01*
X169222316Y-90496696D01*
X169200137Y-90507186D01*
X169177038Y-90515451D01*
X169153239Y-90521412D01*
X169128971Y-90525012D01*
X169104467Y-90526216D01*
X168454465Y-90526216D01*
X168429961Y-90525012D01*
X168405693Y-90521412D01*
X168381894Y-90515451D01*
X168358795Y-90507186D01*
X168336616Y-90496696D01*
X168315573Y-90484084D01*
X168295867Y-90469469D01*
X168277689Y-90452993D01*
X168261213Y-90434815D01*
X168246598Y-90415109D01*
X168233986Y-90394066D01*
X168223496Y-90371887D01*
X168215231Y-90348788D01*
X168209270Y-90324989D01*
X168205670Y-90300721D01*
X168204466Y-90276217D01*
X168204466Y-89376215D01*
X168205670Y-89351711D01*
X168209270Y-89327443D01*
X168215231Y-89303644D01*
X168223496Y-89280545D01*
X168233986Y-89258366D01*
X168246598Y-89237323D01*
X168261213Y-89217617D01*
X168277689Y-89199439D01*
X168295867Y-89182963D01*
X168315573Y-89168348D01*
X168336616Y-89155736D01*
X168358795Y-89145246D01*
X168381894Y-89136981D01*
X168405693Y-89131020D01*
X168429961Y-89127420D01*
X168454465Y-89126216D01*
X169104467Y-89126216D01*
X169128971Y-89127420D01*
X169128971Y-89127420D01*
G37*
D17*
X168779466Y-89826216D03*
D11*
G36*
X171178971Y-89127420D02*
G01*
X171203239Y-89131020D01*
X171227038Y-89136981D01*
X171250137Y-89145246D01*
X171272316Y-89155736D01*
X171293359Y-89168348D01*
X171313065Y-89182963D01*
X171331243Y-89199439D01*
X171347719Y-89217617D01*
X171362334Y-89237323D01*
X171374946Y-89258366D01*
X171385436Y-89280545D01*
X171393701Y-89303644D01*
X171399662Y-89327443D01*
X171403262Y-89351711D01*
X171404466Y-89376215D01*
X171404466Y-90276217D01*
X171403262Y-90300721D01*
X171399662Y-90324989D01*
X171393701Y-90348788D01*
X171385436Y-90371887D01*
X171374946Y-90394066D01*
X171362334Y-90415109D01*
X171347719Y-90434815D01*
X171331243Y-90452993D01*
X171313065Y-90469469D01*
X171293359Y-90484084D01*
X171272316Y-90496696D01*
X171250137Y-90507186D01*
X171227038Y-90515451D01*
X171203239Y-90521412D01*
X171178971Y-90525012D01*
X171154467Y-90526216D01*
X170504465Y-90526216D01*
X170479961Y-90525012D01*
X170455693Y-90521412D01*
X170431894Y-90515451D01*
X170408795Y-90507186D01*
X170386616Y-90496696D01*
X170365573Y-90484084D01*
X170345867Y-90469469D01*
X170327689Y-90452993D01*
X170311213Y-90434815D01*
X170296598Y-90415109D01*
X170283986Y-90394066D01*
X170273496Y-90371887D01*
X170265231Y-90348788D01*
X170259270Y-90324989D01*
X170255670Y-90300721D01*
X170254466Y-90276217D01*
X170254466Y-89376215D01*
X170255670Y-89351711D01*
X170259270Y-89327443D01*
X170265231Y-89303644D01*
X170273496Y-89280545D01*
X170283986Y-89258366D01*
X170296598Y-89237323D01*
X170311213Y-89217617D01*
X170327689Y-89199439D01*
X170345867Y-89182963D01*
X170365573Y-89168348D01*
X170386616Y-89155736D01*
X170408795Y-89145246D01*
X170431894Y-89136981D01*
X170455693Y-89131020D01*
X170479961Y-89127420D01*
X170504465Y-89126216D01*
X171154467Y-89126216D01*
X171178971Y-89127420D01*
X171178971Y-89127420D01*
G37*
D17*
X170829466Y-89826216D03*
D11*
G36*
X124599505Y-89281204D02*
G01*
X124623773Y-89284804D01*
X124647572Y-89290765D01*
X124670671Y-89299030D01*
X124692850Y-89309520D01*
X124713893Y-89322132D01*
X124733599Y-89336747D01*
X124751777Y-89353223D01*
X124768253Y-89371401D01*
X124782868Y-89391107D01*
X124795480Y-89412150D01*
X124805970Y-89434329D01*
X124814235Y-89457428D01*
X124820196Y-89481227D01*
X124823796Y-89505495D01*
X124825000Y-89529999D01*
X124825000Y-90430001D01*
X124823796Y-90454505D01*
X124820196Y-90478773D01*
X124814235Y-90502572D01*
X124805970Y-90525671D01*
X124795480Y-90547850D01*
X124782868Y-90568893D01*
X124768253Y-90588599D01*
X124751777Y-90606777D01*
X124733599Y-90623253D01*
X124713893Y-90637868D01*
X124692850Y-90650480D01*
X124670671Y-90660970D01*
X124647572Y-90669235D01*
X124623773Y-90675196D01*
X124599505Y-90678796D01*
X124575001Y-90680000D01*
X123924999Y-90680000D01*
X123900495Y-90678796D01*
X123876227Y-90675196D01*
X123852428Y-90669235D01*
X123829329Y-90660970D01*
X123807150Y-90650480D01*
X123786107Y-90637868D01*
X123766401Y-90623253D01*
X123748223Y-90606777D01*
X123731747Y-90588599D01*
X123717132Y-90568893D01*
X123704520Y-90547850D01*
X123694030Y-90525671D01*
X123685765Y-90502572D01*
X123679804Y-90478773D01*
X123676204Y-90454505D01*
X123675000Y-90430001D01*
X123675000Y-89529999D01*
X123676204Y-89505495D01*
X123679804Y-89481227D01*
X123685765Y-89457428D01*
X123694030Y-89434329D01*
X123704520Y-89412150D01*
X123717132Y-89391107D01*
X123731747Y-89371401D01*
X123748223Y-89353223D01*
X123766401Y-89336747D01*
X123786107Y-89322132D01*
X123807150Y-89309520D01*
X123829329Y-89299030D01*
X123852428Y-89290765D01*
X123876227Y-89284804D01*
X123900495Y-89281204D01*
X123924999Y-89280000D01*
X124575001Y-89280000D01*
X124599505Y-89281204D01*
X124599505Y-89281204D01*
G37*
D17*
X124250000Y-89980000D03*
D11*
G36*
X126649505Y-89281204D02*
G01*
X126673773Y-89284804D01*
X126697572Y-89290765D01*
X126720671Y-89299030D01*
X126742850Y-89309520D01*
X126763893Y-89322132D01*
X126783599Y-89336747D01*
X126801777Y-89353223D01*
X126818253Y-89371401D01*
X126832868Y-89391107D01*
X126845480Y-89412150D01*
X126855970Y-89434329D01*
X126864235Y-89457428D01*
X126870196Y-89481227D01*
X126873796Y-89505495D01*
X126875000Y-89529999D01*
X126875000Y-90430001D01*
X126873796Y-90454505D01*
X126870196Y-90478773D01*
X126864235Y-90502572D01*
X126855970Y-90525671D01*
X126845480Y-90547850D01*
X126832868Y-90568893D01*
X126818253Y-90588599D01*
X126801777Y-90606777D01*
X126783599Y-90623253D01*
X126763893Y-90637868D01*
X126742850Y-90650480D01*
X126720671Y-90660970D01*
X126697572Y-90669235D01*
X126673773Y-90675196D01*
X126649505Y-90678796D01*
X126625001Y-90680000D01*
X125974999Y-90680000D01*
X125950495Y-90678796D01*
X125926227Y-90675196D01*
X125902428Y-90669235D01*
X125879329Y-90660970D01*
X125857150Y-90650480D01*
X125836107Y-90637868D01*
X125816401Y-90623253D01*
X125798223Y-90606777D01*
X125781747Y-90588599D01*
X125767132Y-90568893D01*
X125754520Y-90547850D01*
X125744030Y-90525671D01*
X125735765Y-90502572D01*
X125729804Y-90478773D01*
X125726204Y-90454505D01*
X125725000Y-90430001D01*
X125725000Y-89529999D01*
X125726204Y-89505495D01*
X125729804Y-89481227D01*
X125735765Y-89457428D01*
X125744030Y-89434329D01*
X125754520Y-89412150D01*
X125767132Y-89391107D01*
X125781747Y-89371401D01*
X125798223Y-89353223D01*
X125816401Y-89336747D01*
X125836107Y-89322132D01*
X125857150Y-89309520D01*
X125879329Y-89299030D01*
X125902428Y-89290765D01*
X125926227Y-89284804D01*
X125950495Y-89281204D01*
X125974999Y-89280000D01*
X126625001Y-89280000D01*
X126649505Y-89281204D01*
X126649505Y-89281204D01*
G37*
D17*
X126300000Y-89980000D03*
D11*
G36*
X140349504Y-56438704D02*
G01*
X140373773Y-56442304D01*
X140397571Y-56448265D01*
X140420671Y-56456530D01*
X140442849Y-56467020D01*
X140463893Y-56479633D01*
X140483598Y-56494247D01*
X140501777Y-56510723D01*
X140518253Y-56528902D01*
X140532867Y-56548607D01*
X140545480Y-56569651D01*
X140555970Y-56591829D01*
X140564235Y-56614929D01*
X140570196Y-56638727D01*
X140573796Y-56662996D01*
X140575000Y-56687500D01*
X140575000Y-57612500D01*
X140573796Y-57637004D01*
X140570196Y-57661273D01*
X140564235Y-57685071D01*
X140555970Y-57708171D01*
X140545480Y-57730349D01*
X140532867Y-57751393D01*
X140518253Y-57771098D01*
X140501777Y-57789277D01*
X140483598Y-57805753D01*
X140463893Y-57820367D01*
X140442849Y-57832980D01*
X140420671Y-57843470D01*
X140397571Y-57851735D01*
X140373773Y-57857696D01*
X140349504Y-57861296D01*
X140325000Y-57862500D01*
X139075000Y-57862500D01*
X139050496Y-57861296D01*
X139026227Y-57857696D01*
X139002429Y-57851735D01*
X138979329Y-57843470D01*
X138957151Y-57832980D01*
X138936107Y-57820367D01*
X138916402Y-57805753D01*
X138898223Y-57789277D01*
X138881747Y-57771098D01*
X138867133Y-57751393D01*
X138854520Y-57730349D01*
X138844030Y-57708171D01*
X138835765Y-57685071D01*
X138829804Y-57661273D01*
X138826204Y-57637004D01*
X138825000Y-57612500D01*
X138825000Y-56687500D01*
X138826204Y-56662996D01*
X138829804Y-56638727D01*
X138835765Y-56614929D01*
X138844030Y-56591829D01*
X138854520Y-56569651D01*
X138867133Y-56548607D01*
X138881747Y-56528902D01*
X138898223Y-56510723D01*
X138916402Y-56494247D01*
X138936107Y-56479633D01*
X138957151Y-56467020D01*
X138979329Y-56456530D01*
X139002429Y-56448265D01*
X139026227Y-56442304D01*
X139050496Y-56438704D01*
X139075000Y-56437500D01*
X140325000Y-56437500D01*
X140349504Y-56438704D01*
X140349504Y-56438704D01*
G37*
D18*
X139700000Y-57150000D03*
D11*
G36*
X140349504Y-59413704D02*
G01*
X140373773Y-59417304D01*
X140397571Y-59423265D01*
X140420671Y-59431530D01*
X140442849Y-59442020D01*
X140463893Y-59454633D01*
X140483598Y-59469247D01*
X140501777Y-59485723D01*
X140518253Y-59503902D01*
X140532867Y-59523607D01*
X140545480Y-59544651D01*
X140555970Y-59566829D01*
X140564235Y-59589929D01*
X140570196Y-59613727D01*
X140573796Y-59637996D01*
X140575000Y-59662500D01*
X140575000Y-60587500D01*
X140573796Y-60612004D01*
X140570196Y-60636273D01*
X140564235Y-60660071D01*
X140555970Y-60683171D01*
X140545480Y-60705349D01*
X140532867Y-60726393D01*
X140518253Y-60746098D01*
X140501777Y-60764277D01*
X140483598Y-60780753D01*
X140463893Y-60795367D01*
X140442849Y-60807980D01*
X140420671Y-60818470D01*
X140397571Y-60826735D01*
X140373773Y-60832696D01*
X140349504Y-60836296D01*
X140325000Y-60837500D01*
X139075000Y-60837500D01*
X139050496Y-60836296D01*
X139026227Y-60832696D01*
X139002429Y-60826735D01*
X138979329Y-60818470D01*
X138957151Y-60807980D01*
X138936107Y-60795367D01*
X138916402Y-60780753D01*
X138898223Y-60764277D01*
X138881747Y-60746098D01*
X138867133Y-60726393D01*
X138854520Y-60705349D01*
X138844030Y-60683171D01*
X138835765Y-60660071D01*
X138829804Y-60636273D01*
X138826204Y-60612004D01*
X138825000Y-60587500D01*
X138825000Y-59662500D01*
X138826204Y-59637996D01*
X138829804Y-59613727D01*
X138835765Y-59589929D01*
X138844030Y-59566829D01*
X138854520Y-59544651D01*
X138867133Y-59523607D01*
X138881747Y-59503902D01*
X138898223Y-59485723D01*
X138916402Y-59469247D01*
X138936107Y-59454633D01*
X138957151Y-59442020D01*
X138979329Y-59431530D01*
X139002429Y-59423265D01*
X139026227Y-59417304D01*
X139050496Y-59413704D01*
X139075000Y-59412500D01*
X140325000Y-59412500D01*
X140349504Y-59413704D01*
X140349504Y-59413704D01*
G37*
D18*
X139700000Y-60125000D03*
D11*
G36*
X168130754Y-56438704D02*
G01*
X168155023Y-56442304D01*
X168178821Y-56448265D01*
X168201921Y-56456530D01*
X168224099Y-56467020D01*
X168245143Y-56479633D01*
X168264848Y-56494247D01*
X168283027Y-56510723D01*
X168299503Y-56528902D01*
X168314117Y-56548607D01*
X168326730Y-56569651D01*
X168337220Y-56591829D01*
X168345485Y-56614929D01*
X168351446Y-56638727D01*
X168355046Y-56662996D01*
X168356250Y-56687500D01*
X168356250Y-57612500D01*
X168355046Y-57637004D01*
X168351446Y-57661273D01*
X168345485Y-57685071D01*
X168337220Y-57708171D01*
X168326730Y-57730349D01*
X168314117Y-57751393D01*
X168299503Y-57771098D01*
X168283027Y-57789277D01*
X168264848Y-57805753D01*
X168245143Y-57820367D01*
X168224099Y-57832980D01*
X168201921Y-57843470D01*
X168178821Y-57851735D01*
X168155023Y-57857696D01*
X168130754Y-57861296D01*
X168106250Y-57862500D01*
X166856250Y-57862500D01*
X166831746Y-57861296D01*
X166807477Y-57857696D01*
X166783679Y-57851735D01*
X166760579Y-57843470D01*
X166738401Y-57832980D01*
X166717357Y-57820367D01*
X166697652Y-57805753D01*
X166679473Y-57789277D01*
X166662997Y-57771098D01*
X166648383Y-57751393D01*
X166635770Y-57730349D01*
X166625280Y-57708171D01*
X166617015Y-57685071D01*
X166611054Y-57661273D01*
X166607454Y-57637004D01*
X166606250Y-57612500D01*
X166606250Y-56687500D01*
X166607454Y-56662996D01*
X166611054Y-56638727D01*
X166617015Y-56614929D01*
X166625280Y-56591829D01*
X166635770Y-56569651D01*
X166648383Y-56548607D01*
X166662997Y-56528902D01*
X166679473Y-56510723D01*
X166697652Y-56494247D01*
X166717357Y-56479633D01*
X166738401Y-56467020D01*
X166760579Y-56456530D01*
X166783679Y-56448265D01*
X166807477Y-56442304D01*
X166831746Y-56438704D01*
X166856250Y-56437500D01*
X168106250Y-56437500D01*
X168130754Y-56438704D01*
X168130754Y-56438704D01*
G37*
D18*
X167481250Y-57150000D03*
D11*
G36*
X168130754Y-59413704D02*
G01*
X168155023Y-59417304D01*
X168178821Y-59423265D01*
X168201921Y-59431530D01*
X168224099Y-59442020D01*
X168245143Y-59454633D01*
X168264848Y-59469247D01*
X168283027Y-59485723D01*
X168299503Y-59503902D01*
X168314117Y-59523607D01*
X168326730Y-59544651D01*
X168337220Y-59566829D01*
X168345485Y-59589929D01*
X168351446Y-59613727D01*
X168355046Y-59637996D01*
X168356250Y-59662500D01*
X168356250Y-60587500D01*
X168355046Y-60612004D01*
X168351446Y-60636273D01*
X168345485Y-60660071D01*
X168337220Y-60683171D01*
X168326730Y-60705349D01*
X168314117Y-60726393D01*
X168299503Y-60746098D01*
X168283027Y-60764277D01*
X168264848Y-60780753D01*
X168245143Y-60795367D01*
X168224099Y-60807980D01*
X168201921Y-60818470D01*
X168178821Y-60826735D01*
X168155023Y-60832696D01*
X168130754Y-60836296D01*
X168106250Y-60837500D01*
X166856250Y-60837500D01*
X166831746Y-60836296D01*
X166807477Y-60832696D01*
X166783679Y-60826735D01*
X166760579Y-60818470D01*
X166738401Y-60807980D01*
X166717357Y-60795367D01*
X166697652Y-60780753D01*
X166679473Y-60764277D01*
X166662997Y-60746098D01*
X166648383Y-60726393D01*
X166635770Y-60705349D01*
X166625280Y-60683171D01*
X166617015Y-60660071D01*
X166611054Y-60636273D01*
X166607454Y-60612004D01*
X166606250Y-60587500D01*
X166606250Y-59662500D01*
X166607454Y-59637996D01*
X166611054Y-59613727D01*
X166617015Y-59589929D01*
X166625280Y-59566829D01*
X166635770Y-59544651D01*
X166648383Y-59523607D01*
X166662997Y-59503902D01*
X166679473Y-59485723D01*
X166697652Y-59469247D01*
X166717357Y-59454633D01*
X166738401Y-59442020D01*
X166760579Y-59431530D01*
X166783679Y-59423265D01*
X166807477Y-59417304D01*
X166831746Y-59413704D01*
X166856250Y-59412500D01*
X168106250Y-59412500D01*
X168130754Y-59413704D01*
X168130754Y-59413704D01*
G37*
D18*
X167481250Y-60125000D03*
D11*
G36*
X169305082Y-80096730D02*
G01*
X169329350Y-80100330D01*
X169353149Y-80106291D01*
X169376248Y-80114556D01*
X169398427Y-80125046D01*
X169419470Y-80137658D01*
X169439176Y-80152273D01*
X169457354Y-80168749D01*
X170093751Y-80805146D01*
X170110227Y-80823324D01*
X170124842Y-80843030D01*
X170137454Y-80864073D01*
X170147944Y-80886252D01*
X170156209Y-80909351D01*
X170162170Y-80933150D01*
X170165770Y-80957418D01*
X170166974Y-80981922D01*
X170165770Y-81006426D01*
X170162170Y-81030694D01*
X170156209Y-81054493D01*
X170147944Y-81077592D01*
X170137454Y-81099771D01*
X170124842Y-81120814D01*
X170110227Y-81140520D01*
X170093751Y-81158698D01*
X169634130Y-81618319D01*
X169615952Y-81634795D01*
X169596246Y-81649410D01*
X169575203Y-81662022D01*
X169553024Y-81672512D01*
X169529925Y-81680777D01*
X169506126Y-81686738D01*
X169481858Y-81690338D01*
X169457354Y-81691542D01*
X169432850Y-81690338D01*
X169408582Y-81686738D01*
X169384783Y-81680777D01*
X169361684Y-81672512D01*
X169339505Y-81662022D01*
X169318462Y-81649410D01*
X169298756Y-81634795D01*
X169280578Y-81618319D01*
X168644181Y-80981922D01*
X168627705Y-80963744D01*
X168613090Y-80944038D01*
X168600478Y-80922995D01*
X168589988Y-80900816D01*
X168581723Y-80877717D01*
X168575762Y-80853918D01*
X168572162Y-80829650D01*
X168570958Y-80805146D01*
X168572162Y-80780642D01*
X168575762Y-80756374D01*
X168581723Y-80732575D01*
X168589988Y-80709476D01*
X168600478Y-80687297D01*
X168613090Y-80666254D01*
X168627705Y-80646548D01*
X168644181Y-80628370D01*
X169103802Y-80168749D01*
X169121980Y-80152273D01*
X169141686Y-80137658D01*
X169162729Y-80125046D01*
X169184908Y-80114556D01*
X169208007Y-80106291D01*
X169231806Y-80100330D01*
X169256074Y-80096730D01*
X169280578Y-80095526D01*
X169305082Y-80096730D01*
X169305082Y-80096730D01*
G37*
D17*
X169368966Y-80893534D03*
D11*
G36*
X170754650Y-78647162D02*
G01*
X170778918Y-78650762D01*
X170802717Y-78656723D01*
X170825816Y-78664988D01*
X170847995Y-78675478D01*
X170869038Y-78688090D01*
X170888744Y-78702705D01*
X170906922Y-78719181D01*
X171543319Y-79355578D01*
X171559795Y-79373756D01*
X171574410Y-79393462D01*
X171587022Y-79414505D01*
X171597512Y-79436684D01*
X171605777Y-79459783D01*
X171611738Y-79483582D01*
X171615338Y-79507850D01*
X171616542Y-79532354D01*
X171615338Y-79556858D01*
X171611738Y-79581126D01*
X171605777Y-79604925D01*
X171597512Y-79628024D01*
X171587022Y-79650203D01*
X171574410Y-79671246D01*
X171559795Y-79690952D01*
X171543319Y-79709130D01*
X171083698Y-80168751D01*
X171065520Y-80185227D01*
X171045814Y-80199842D01*
X171024771Y-80212454D01*
X171002592Y-80222944D01*
X170979493Y-80231209D01*
X170955694Y-80237170D01*
X170931426Y-80240770D01*
X170906922Y-80241974D01*
X170882418Y-80240770D01*
X170858150Y-80237170D01*
X170834351Y-80231209D01*
X170811252Y-80222944D01*
X170789073Y-80212454D01*
X170768030Y-80199842D01*
X170748324Y-80185227D01*
X170730146Y-80168751D01*
X170093749Y-79532354D01*
X170077273Y-79514176D01*
X170062658Y-79494470D01*
X170050046Y-79473427D01*
X170039556Y-79451248D01*
X170031291Y-79428149D01*
X170025330Y-79404350D01*
X170021730Y-79380082D01*
X170020526Y-79355578D01*
X170021730Y-79331074D01*
X170025330Y-79306806D01*
X170031291Y-79283007D01*
X170039556Y-79259908D01*
X170050046Y-79237729D01*
X170062658Y-79216686D01*
X170077273Y-79196980D01*
X170093749Y-79178802D01*
X170553370Y-78719181D01*
X170571548Y-78702705D01*
X170591254Y-78688090D01*
X170612297Y-78675478D01*
X170634476Y-78664988D01*
X170657575Y-78656723D01*
X170681374Y-78650762D01*
X170705642Y-78647162D01*
X170730146Y-78645958D01*
X170754650Y-78647162D01*
X170754650Y-78647162D01*
G37*
D17*
X170818534Y-79443966D03*
D11*
G36*
X161605755Y-63488704D02*
G01*
X161630023Y-63492304D01*
X161653822Y-63498265D01*
X161676921Y-63506530D01*
X161699100Y-63517020D01*
X161720143Y-63529632D01*
X161739849Y-63544247D01*
X161758027Y-63560723D01*
X161774503Y-63578901D01*
X161789118Y-63598607D01*
X161801730Y-63619650D01*
X161812220Y-63641829D01*
X161820485Y-63664928D01*
X161826446Y-63688727D01*
X161830046Y-63712995D01*
X161831250Y-63737499D01*
X161831250Y-64387501D01*
X161830046Y-64412005D01*
X161826446Y-64436273D01*
X161820485Y-64460072D01*
X161812220Y-64483171D01*
X161801730Y-64505350D01*
X161789118Y-64526393D01*
X161774503Y-64546099D01*
X161758027Y-64564277D01*
X161739849Y-64580753D01*
X161720143Y-64595368D01*
X161699100Y-64607980D01*
X161676921Y-64618470D01*
X161653822Y-64626735D01*
X161630023Y-64632696D01*
X161605755Y-64636296D01*
X161581251Y-64637500D01*
X160681249Y-64637500D01*
X160656745Y-64636296D01*
X160632477Y-64632696D01*
X160608678Y-64626735D01*
X160585579Y-64618470D01*
X160563400Y-64607980D01*
X160542357Y-64595368D01*
X160522651Y-64580753D01*
X160504473Y-64564277D01*
X160487997Y-64546099D01*
X160473382Y-64526393D01*
X160460770Y-64505350D01*
X160450280Y-64483171D01*
X160442015Y-64460072D01*
X160436054Y-64436273D01*
X160432454Y-64412005D01*
X160431250Y-64387501D01*
X160431250Y-63737499D01*
X160432454Y-63712995D01*
X160436054Y-63688727D01*
X160442015Y-63664928D01*
X160450280Y-63641829D01*
X160460770Y-63619650D01*
X160473382Y-63598607D01*
X160487997Y-63578901D01*
X160504473Y-63560723D01*
X160522651Y-63544247D01*
X160542357Y-63529632D01*
X160563400Y-63517020D01*
X160585579Y-63506530D01*
X160608678Y-63498265D01*
X160632477Y-63492304D01*
X160656745Y-63488704D01*
X160681249Y-63487500D01*
X161581251Y-63487500D01*
X161605755Y-63488704D01*
X161605755Y-63488704D01*
G37*
D17*
X161131250Y-64062500D03*
D11*
G36*
X161605755Y-65538704D02*
G01*
X161630023Y-65542304D01*
X161653822Y-65548265D01*
X161676921Y-65556530D01*
X161699100Y-65567020D01*
X161720143Y-65579632D01*
X161739849Y-65594247D01*
X161758027Y-65610723D01*
X161774503Y-65628901D01*
X161789118Y-65648607D01*
X161801730Y-65669650D01*
X161812220Y-65691829D01*
X161820485Y-65714928D01*
X161826446Y-65738727D01*
X161830046Y-65762995D01*
X161831250Y-65787499D01*
X161831250Y-66437501D01*
X161830046Y-66462005D01*
X161826446Y-66486273D01*
X161820485Y-66510072D01*
X161812220Y-66533171D01*
X161801730Y-66555350D01*
X161789118Y-66576393D01*
X161774503Y-66596099D01*
X161758027Y-66614277D01*
X161739849Y-66630753D01*
X161720143Y-66645368D01*
X161699100Y-66657980D01*
X161676921Y-66668470D01*
X161653822Y-66676735D01*
X161630023Y-66682696D01*
X161605755Y-66686296D01*
X161581251Y-66687500D01*
X160681249Y-66687500D01*
X160656745Y-66686296D01*
X160632477Y-66682696D01*
X160608678Y-66676735D01*
X160585579Y-66668470D01*
X160563400Y-66657980D01*
X160542357Y-66645368D01*
X160522651Y-66630753D01*
X160504473Y-66614277D01*
X160487997Y-66596099D01*
X160473382Y-66576393D01*
X160460770Y-66555350D01*
X160450280Y-66533171D01*
X160442015Y-66510072D01*
X160436054Y-66486273D01*
X160432454Y-66462005D01*
X160431250Y-66437501D01*
X160431250Y-65787499D01*
X160432454Y-65762995D01*
X160436054Y-65738727D01*
X160442015Y-65714928D01*
X160450280Y-65691829D01*
X160460770Y-65669650D01*
X160473382Y-65648607D01*
X160487997Y-65628901D01*
X160504473Y-65610723D01*
X160522651Y-65594247D01*
X160542357Y-65579632D01*
X160563400Y-65567020D01*
X160585579Y-65556530D01*
X160608678Y-65548265D01*
X160632477Y-65542304D01*
X160656745Y-65538704D01*
X160681249Y-65537500D01*
X161581251Y-65537500D01*
X161605755Y-65538704D01*
X161605755Y-65538704D01*
G37*
D17*
X161131250Y-66112500D03*
D11*
G36*
X151788108Y-78647162D02*
G01*
X151812376Y-78650762D01*
X151836175Y-78656723D01*
X151859274Y-78664988D01*
X151881453Y-78675478D01*
X151902496Y-78688090D01*
X151922202Y-78702705D01*
X151940380Y-78719181D01*
X152400001Y-79178802D01*
X152416477Y-79196980D01*
X152431092Y-79216686D01*
X152443704Y-79237729D01*
X152454194Y-79259908D01*
X152462459Y-79283007D01*
X152468420Y-79306806D01*
X152472020Y-79331074D01*
X152473224Y-79355578D01*
X152472020Y-79380082D01*
X152468420Y-79404350D01*
X152462459Y-79428149D01*
X152454194Y-79451248D01*
X152443704Y-79473427D01*
X152431092Y-79494470D01*
X152416477Y-79514176D01*
X152400001Y-79532354D01*
X151763604Y-80168751D01*
X151745426Y-80185227D01*
X151725720Y-80199842D01*
X151704677Y-80212454D01*
X151682498Y-80222944D01*
X151659399Y-80231209D01*
X151635600Y-80237170D01*
X151611332Y-80240770D01*
X151586828Y-80241974D01*
X151562324Y-80240770D01*
X151538056Y-80237170D01*
X151514257Y-80231209D01*
X151491158Y-80222944D01*
X151468979Y-80212454D01*
X151447936Y-80199842D01*
X151428230Y-80185227D01*
X151410052Y-80168751D01*
X150950431Y-79709130D01*
X150933955Y-79690952D01*
X150919340Y-79671246D01*
X150906728Y-79650203D01*
X150896238Y-79628024D01*
X150887973Y-79604925D01*
X150882012Y-79581126D01*
X150878412Y-79556858D01*
X150877208Y-79532354D01*
X150878412Y-79507850D01*
X150882012Y-79483582D01*
X150887973Y-79459783D01*
X150896238Y-79436684D01*
X150906728Y-79414505D01*
X150919340Y-79393462D01*
X150933955Y-79373756D01*
X150950431Y-79355578D01*
X151586828Y-78719181D01*
X151605006Y-78702705D01*
X151624712Y-78688090D01*
X151645755Y-78675478D01*
X151667934Y-78664988D01*
X151691033Y-78656723D01*
X151714832Y-78650762D01*
X151739100Y-78647162D01*
X151763604Y-78645958D01*
X151788108Y-78647162D01*
X151788108Y-78647162D01*
G37*
D17*
X151675216Y-79443966D03*
D11*
G36*
X153237676Y-80096730D02*
G01*
X153261944Y-80100330D01*
X153285743Y-80106291D01*
X153308842Y-80114556D01*
X153331021Y-80125046D01*
X153352064Y-80137658D01*
X153371770Y-80152273D01*
X153389948Y-80168749D01*
X153849569Y-80628370D01*
X153866045Y-80646548D01*
X153880660Y-80666254D01*
X153893272Y-80687297D01*
X153903762Y-80709476D01*
X153912027Y-80732575D01*
X153917988Y-80756374D01*
X153921588Y-80780642D01*
X153922792Y-80805146D01*
X153921588Y-80829650D01*
X153917988Y-80853918D01*
X153912027Y-80877717D01*
X153903762Y-80900816D01*
X153893272Y-80922995D01*
X153880660Y-80944038D01*
X153866045Y-80963744D01*
X153849569Y-80981922D01*
X153213172Y-81618319D01*
X153194994Y-81634795D01*
X153175288Y-81649410D01*
X153154245Y-81662022D01*
X153132066Y-81672512D01*
X153108967Y-81680777D01*
X153085168Y-81686738D01*
X153060900Y-81690338D01*
X153036396Y-81691542D01*
X153011892Y-81690338D01*
X152987624Y-81686738D01*
X152963825Y-81680777D01*
X152940726Y-81672512D01*
X152918547Y-81662022D01*
X152897504Y-81649410D01*
X152877798Y-81634795D01*
X152859620Y-81618319D01*
X152399999Y-81158698D01*
X152383523Y-81140520D01*
X152368908Y-81120814D01*
X152356296Y-81099771D01*
X152345806Y-81077592D01*
X152337541Y-81054493D01*
X152331580Y-81030694D01*
X152327980Y-81006426D01*
X152326776Y-80981922D01*
X152327980Y-80957418D01*
X152331580Y-80933150D01*
X152337541Y-80909351D01*
X152345806Y-80886252D01*
X152356296Y-80864073D01*
X152368908Y-80843030D01*
X152383523Y-80823324D01*
X152399999Y-80805146D01*
X153036396Y-80168749D01*
X153054574Y-80152273D01*
X153074280Y-80137658D01*
X153095323Y-80125046D01*
X153117502Y-80114556D01*
X153140601Y-80106291D01*
X153164400Y-80100330D01*
X153188668Y-80096730D01*
X153213172Y-80095526D01*
X153237676Y-80096730D01*
X153237676Y-80096730D01*
G37*
D17*
X153124784Y-80893534D03*
D11*
G36*
X164967150Y-84203412D02*
G01*
X164991418Y-84207012D01*
X165015217Y-84212973D01*
X165038316Y-84221238D01*
X165060495Y-84231728D01*
X165081538Y-84244340D01*
X165101244Y-84258955D01*
X165119422Y-84275431D01*
X165755819Y-84911828D01*
X165772295Y-84930006D01*
X165786910Y-84949712D01*
X165799522Y-84970755D01*
X165810012Y-84992934D01*
X165818277Y-85016033D01*
X165824238Y-85039832D01*
X165827838Y-85064100D01*
X165829042Y-85088604D01*
X165827838Y-85113108D01*
X165824238Y-85137376D01*
X165818277Y-85161175D01*
X165810012Y-85184274D01*
X165799522Y-85206453D01*
X165786910Y-85227496D01*
X165772295Y-85247202D01*
X165755819Y-85265380D01*
X165296198Y-85725001D01*
X165278020Y-85741477D01*
X165258314Y-85756092D01*
X165237271Y-85768704D01*
X165215092Y-85779194D01*
X165191993Y-85787459D01*
X165168194Y-85793420D01*
X165143926Y-85797020D01*
X165119422Y-85798224D01*
X165094918Y-85797020D01*
X165070650Y-85793420D01*
X165046851Y-85787459D01*
X165023752Y-85779194D01*
X165001573Y-85768704D01*
X164980530Y-85756092D01*
X164960824Y-85741477D01*
X164942646Y-85725001D01*
X164306249Y-85088604D01*
X164289773Y-85070426D01*
X164275158Y-85050720D01*
X164262546Y-85029677D01*
X164252056Y-85007498D01*
X164243791Y-84984399D01*
X164237830Y-84960600D01*
X164234230Y-84936332D01*
X164233026Y-84911828D01*
X164234230Y-84887324D01*
X164237830Y-84863056D01*
X164243791Y-84839257D01*
X164252056Y-84816158D01*
X164262546Y-84793979D01*
X164275158Y-84772936D01*
X164289773Y-84753230D01*
X164306249Y-84735052D01*
X164765870Y-84275431D01*
X164784048Y-84258955D01*
X164803754Y-84244340D01*
X164824797Y-84231728D01*
X164846976Y-84221238D01*
X164870075Y-84212973D01*
X164893874Y-84207012D01*
X164918142Y-84203412D01*
X164942646Y-84202208D01*
X164967150Y-84203412D01*
X164967150Y-84203412D01*
G37*
D17*
X165031034Y-85000216D03*
D11*
G36*
X163517582Y-85652980D02*
G01*
X163541850Y-85656580D01*
X163565649Y-85662541D01*
X163588748Y-85670806D01*
X163610927Y-85681296D01*
X163631970Y-85693908D01*
X163651676Y-85708523D01*
X163669854Y-85724999D01*
X164306251Y-86361396D01*
X164322727Y-86379574D01*
X164337342Y-86399280D01*
X164349954Y-86420323D01*
X164360444Y-86442502D01*
X164368709Y-86465601D01*
X164374670Y-86489400D01*
X164378270Y-86513668D01*
X164379474Y-86538172D01*
X164378270Y-86562676D01*
X164374670Y-86586944D01*
X164368709Y-86610743D01*
X164360444Y-86633842D01*
X164349954Y-86656021D01*
X164337342Y-86677064D01*
X164322727Y-86696770D01*
X164306251Y-86714948D01*
X163846630Y-87174569D01*
X163828452Y-87191045D01*
X163808746Y-87205660D01*
X163787703Y-87218272D01*
X163765524Y-87228762D01*
X163742425Y-87237027D01*
X163718626Y-87242988D01*
X163694358Y-87246588D01*
X163669854Y-87247792D01*
X163645350Y-87246588D01*
X163621082Y-87242988D01*
X163597283Y-87237027D01*
X163574184Y-87228762D01*
X163552005Y-87218272D01*
X163530962Y-87205660D01*
X163511256Y-87191045D01*
X163493078Y-87174569D01*
X162856681Y-86538172D01*
X162840205Y-86519994D01*
X162825590Y-86500288D01*
X162812978Y-86479245D01*
X162802488Y-86457066D01*
X162794223Y-86433967D01*
X162788262Y-86410168D01*
X162784662Y-86385900D01*
X162783458Y-86361396D01*
X162784662Y-86336892D01*
X162788262Y-86312624D01*
X162794223Y-86288825D01*
X162802488Y-86265726D01*
X162812978Y-86243547D01*
X162825590Y-86222504D01*
X162840205Y-86202798D01*
X162856681Y-86184620D01*
X163316302Y-85724999D01*
X163334480Y-85708523D01*
X163354186Y-85693908D01*
X163375229Y-85681296D01*
X163397408Y-85670806D01*
X163420507Y-85662541D01*
X163444306Y-85656580D01*
X163468574Y-85652980D01*
X163493078Y-85651776D01*
X163517582Y-85652980D01*
X163517582Y-85652980D01*
G37*
D17*
X163581466Y-86449784D03*
D11*
G36*
X169599858Y-73154412D02*
G01*
X169624126Y-73158012D01*
X169647925Y-73163973D01*
X169671024Y-73172238D01*
X169693203Y-73182728D01*
X169714246Y-73195340D01*
X169733952Y-73209955D01*
X169752130Y-73226431D01*
X170211751Y-73686052D01*
X170228227Y-73704230D01*
X170242842Y-73723936D01*
X170255454Y-73744979D01*
X170265944Y-73767158D01*
X170274209Y-73790257D01*
X170280170Y-73814056D01*
X170283770Y-73838324D01*
X170284974Y-73862828D01*
X170283770Y-73887332D01*
X170280170Y-73911600D01*
X170274209Y-73935399D01*
X170265944Y-73958498D01*
X170255454Y-73980677D01*
X170242842Y-74001720D01*
X170228227Y-74021426D01*
X170211751Y-74039604D01*
X169575354Y-74676001D01*
X169557176Y-74692477D01*
X169537470Y-74707092D01*
X169516427Y-74719704D01*
X169494248Y-74730194D01*
X169471149Y-74738459D01*
X169447350Y-74744420D01*
X169423082Y-74748020D01*
X169398578Y-74749224D01*
X169374074Y-74748020D01*
X169349806Y-74744420D01*
X169326007Y-74738459D01*
X169302908Y-74730194D01*
X169280729Y-74719704D01*
X169259686Y-74707092D01*
X169239980Y-74692477D01*
X169221802Y-74676001D01*
X168762181Y-74216380D01*
X168745705Y-74198202D01*
X168731090Y-74178496D01*
X168718478Y-74157453D01*
X168707988Y-74135274D01*
X168699723Y-74112175D01*
X168693762Y-74088376D01*
X168690162Y-74064108D01*
X168688958Y-74039604D01*
X168690162Y-74015100D01*
X168693762Y-73990832D01*
X168699723Y-73967033D01*
X168707988Y-73943934D01*
X168718478Y-73921755D01*
X168731090Y-73900712D01*
X168745705Y-73881006D01*
X168762181Y-73862828D01*
X169398578Y-73226431D01*
X169416756Y-73209955D01*
X169436462Y-73195340D01*
X169457505Y-73182728D01*
X169479684Y-73172238D01*
X169502783Y-73163973D01*
X169526582Y-73158012D01*
X169550850Y-73154412D01*
X169575354Y-73153208D01*
X169599858Y-73154412D01*
X169599858Y-73154412D01*
G37*
D17*
X169486966Y-73951216D03*
D11*
G36*
X171049426Y-74603980D02*
G01*
X171073694Y-74607580D01*
X171097493Y-74613541D01*
X171120592Y-74621806D01*
X171142771Y-74632296D01*
X171163814Y-74644908D01*
X171183520Y-74659523D01*
X171201698Y-74675999D01*
X171661319Y-75135620D01*
X171677795Y-75153798D01*
X171692410Y-75173504D01*
X171705022Y-75194547D01*
X171715512Y-75216726D01*
X171723777Y-75239825D01*
X171729738Y-75263624D01*
X171733338Y-75287892D01*
X171734542Y-75312396D01*
X171733338Y-75336900D01*
X171729738Y-75361168D01*
X171723777Y-75384967D01*
X171715512Y-75408066D01*
X171705022Y-75430245D01*
X171692410Y-75451288D01*
X171677795Y-75470994D01*
X171661319Y-75489172D01*
X171024922Y-76125569D01*
X171006744Y-76142045D01*
X170987038Y-76156660D01*
X170965995Y-76169272D01*
X170943816Y-76179762D01*
X170920717Y-76188027D01*
X170896918Y-76193988D01*
X170872650Y-76197588D01*
X170848146Y-76198792D01*
X170823642Y-76197588D01*
X170799374Y-76193988D01*
X170775575Y-76188027D01*
X170752476Y-76179762D01*
X170730297Y-76169272D01*
X170709254Y-76156660D01*
X170689548Y-76142045D01*
X170671370Y-76125569D01*
X170211749Y-75665948D01*
X170195273Y-75647770D01*
X170180658Y-75628064D01*
X170168046Y-75607021D01*
X170157556Y-75584842D01*
X170149291Y-75561743D01*
X170143330Y-75537944D01*
X170139730Y-75513676D01*
X170138526Y-75489172D01*
X170139730Y-75464668D01*
X170143330Y-75440400D01*
X170149291Y-75416601D01*
X170157556Y-75393502D01*
X170168046Y-75371323D01*
X170180658Y-75350280D01*
X170195273Y-75330574D01*
X170211749Y-75312396D01*
X170848146Y-74675999D01*
X170866324Y-74659523D01*
X170886030Y-74644908D01*
X170907073Y-74632296D01*
X170929252Y-74621806D01*
X170952351Y-74613541D01*
X170976150Y-74607580D01*
X171000418Y-74603980D01*
X171024922Y-74602776D01*
X171049426Y-74603980D01*
X171049426Y-74603980D01*
G37*
D17*
X170936534Y-75400784D03*
D11*
G36*
X141292582Y-80096730D02*
G01*
X141316850Y-80100330D01*
X141340649Y-80106291D01*
X141363748Y-80114556D01*
X141385927Y-80125046D01*
X141406970Y-80137658D01*
X141426676Y-80152273D01*
X141444854Y-80168749D01*
X142081251Y-80805146D01*
X142097727Y-80823324D01*
X142112342Y-80843030D01*
X142124954Y-80864073D01*
X142135444Y-80886252D01*
X142143709Y-80909351D01*
X142149670Y-80933150D01*
X142153270Y-80957418D01*
X142154474Y-80981922D01*
X142153270Y-81006426D01*
X142149670Y-81030694D01*
X142143709Y-81054493D01*
X142135444Y-81077592D01*
X142124954Y-81099771D01*
X142112342Y-81120814D01*
X142097727Y-81140520D01*
X142081251Y-81158698D01*
X141621630Y-81618319D01*
X141603452Y-81634795D01*
X141583746Y-81649410D01*
X141562703Y-81662022D01*
X141540524Y-81672512D01*
X141517425Y-81680777D01*
X141493626Y-81686738D01*
X141469358Y-81690338D01*
X141444854Y-81691542D01*
X141420350Y-81690338D01*
X141396082Y-81686738D01*
X141372283Y-81680777D01*
X141349184Y-81672512D01*
X141327005Y-81662022D01*
X141305962Y-81649410D01*
X141286256Y-81634795D01*
X141268078Y-81618319D01*
X140631681Y-80981922D01*
X140615205Y-80963744D01*
X140600590Y-80944038D01*
X140587978Y-80922995D01*
X140577488Y-80900816D01*
X140569223Y-80877717D01*
X140563262Y-80853918D01*
X140559662Y-80829650D01*
X140558458Y-80805146D01*
X140559662Y-80780642D01*
X140563262Y-80756374D01*
X140569223Y-80732575D01*
X140577488Y-80709476D01*
X140587978Y-80687297D01*
X140600590Y-80666254D01*
X140615205Y-80646548D01*
X140631681Y-80628370D01*
X141091302Y-80168749D01*
X141109480Y-80152273D01*
X141129186Y-80137658D01*
X141150229Y-80125046D01*
X141172408Y-80114556D01*
X141195507Y-80106291D01*
X141219306Y-80100330D01*
X141243574Y-80096730D01*
X141268078Y-80095526D01*
X141292582Y-80096730D01*
X141292582Y-80096730D01*
G37*
D17*
X141356466Y-80893534D03*
D11*
G36*
X142742150Y-78647162D02*
G01*
X142766418Y-78650762D01*
X142790217Y-78656723D01*
X142813316Y-78664988D01*
X142835495Y-78675478D01*
X142856538Y-78688090D01*
X142876244Y-78702705D01*
X142894422Y-78719181D01*
X143530819Y-79355578D01*
X143547295Y-79373756D01*
X143561910Y-79393462D01*
X143574522Y-79414505D01*
X143585012Y-79436684D01*
X143593277Y-79459783D01*
X143599238Y-79483582D01*
X143602838Y-79507850D01*
X143604042Y-79532354D01*
X143602838Y-79556858D01*
X143599238Y-79581126D01*
X143593277Y-79604925D01*
X143585012Y-79628024D01*
X143574522Y-79650203D01*
X143561910Y-79671246D01*
X143547295Y-79690952D01*
X143530819Y-79709130D01*
X143071198Y-80168751D01*
X143053020Y-80185227D01*
X143033314Y-80199842D01*
X143012271Y-80212454D01*
X142990092Y-80222944D01*
X142966993Y-80231209D01*
X142943194Y-80237170D01*
X142918926Y-80240770D01*
X142894422Y-80241974D01*
X142869918Y-80240770D01*
X142845650Y-80237170D01*
X142821851Y-80231209D01*
X142798752Y-80222944D01*
X142776573Y-80212454D01*
X142755530Y-80199842D01*
X142735824Y-80185227D01*
X142717646Y-80168751D01*
X142081249Y-79532354D01*
X142064773Y-79514176D01*
X142050158Y-79494470D01*
X142037546Y-79473427D01*
X142027056Y-79451248D01*
X142018791Y-79428149D01*
X142012830Y-79404350D01*
X142009230Y-79380082D01*
X142008026Y-79355578D01*
X142009230Y-79331074D01*
X142012830Y-79306806D01*
X142018791Y-79283007D01*
X142027056Y-79259908D01*
X142037546Y-79237729D01*
X142050158Y-79216686D01*
X142064773Y-79196980D01*
X142081249Y-79178802D01*
X142540870Y-78719181D01*
X142559048Y-78702705D01*
X142578754Y-78688090D01*
X142599797Y-78675478D01*
X142621976Y-78664988D01*
X142645075Y-78656723D01*
X142668874Y-78650762D01*
X142693142Y-78647162D01*
X142717646Y-78645958D01*
X142742150Y-78647162D01*
X142742150Y-78647162D01*
G37*
D17*
X142806034Y-79443966D03*
D11*
G36*
X133824505Y-63719954D02*
G01*
X133848773Y-63723554D01*
X133872572Y-63729515D01*
X133895671Y-63737780D01*
X133917850Y-63748270D01*
X133938893Y-63760882D01*
X133958599Y-63775497D01*
X133976777Y-63791973D01*
X133993253Y-63810151D01*
X134007868Y-63829857D01*
X134020480Y-63850900D01*
X134030970Y-63873079D01*
X134039235Y-63896178D01*
X134045196Y-63919977D01*
X134048796Y-63944245D01*
X134050000Y-63968749D01*
X134050000Y-64618751D01*
X134048796Y-64643255D01*
X134045196Y-64667523D01*
X134039235Y-64691322D01*
X134030970Y-64714421D01*
X134020480Y-64736600D01*
X134007868Y-64757643D01*
X133993253Y-64777349D01*
X133976777Y-64795527D01*
X133958599Y-64812003D01*
X133938893Y-64826618D01*
X133917850Y-64839230D01*
X133895671Y-64849720D01*
X133872572Y-64857985D01*
X133848773Y-64863946D01*
X133824505Y-64867546D01*
X133800001Y-64868750D01*
X132899999Y-64868750D01*
X132875495Y-64867546D01*
X132851227Y-64863946D01*
X132827428Y-64857985D01*
X132804329Y-64849720D01*
X132782150Y-64839230D01*
X132761107Y-64826618D01*
X132741401Y-64812003D01*
X132723223Y-64795527D01*
X132706747Y-64777349D01*
X132692132Y-64757643D01*
X132679520Y-64736600D01*
X132669030Y-64714421D01*
X132660765Y-64691322D01*
X132654804Y-64667523D01*
X132651204Y-64643255D01*
X132650000Y-64618751D01*
X132650000Y-63968749D01*
X132651204Y-63944245D01*
X132654804Y-63919977D01*
X132660765Y-63896178D01*
X132669030Y-63873079D01*
X132679520Y-63850900D01*
X132692132Y-63829857D01*
X132706747Y-63810151D01*
X132723223Y-63791973D01*
X132741401Y-63775497D01*
X132761107Y-63760882D01*
X132782150Y-63748270D01*
X132804329Y-63737780D01*
X132827428Y-63729515D01*
X132851227Y-63723554D01*
X132875495Y-63719954D01*
X132899999Y-63718750D01*
X133800001Y-63718750D01*
X133824505Y-63719954D01*
X133824505Y-63719954D01*
G37*
D17*
X133350000Y-64293750D03*
D11*
G36*
X133824505Y-65769954D02*
G01*
X133848773Y-65773554D01*
X133872572Y-65779515D01*
X133895671Y-65787780D01*
X133917850Y-65798270D01*
X133938893Y-65810882D01*
X133958599Y-65825497D01*
X133976777Y-65841973D01*
X133993253Y-65860151D01*
X134007868Y-65879857D01*
X134020480Y-65900900D01*
X134030970Y-65923079D01*
X134039235Y-65946178D01*
X134045196Y-65969977D01*
X134048796Y-65994245D01*
X134050000Y-66018749D01*
X134050000Y-66668751D01*
X134048796Y-66693255D01*
X134045196Y-66717523D01*
X134039235Y-66741322D01*
X134030970Y-66764421D01*
X134020480Y-66786600D01*
X134007868Y-66807643D01*
X133993253Y-66827349D01*
X133976777Y-66845527D01*
X133958599Y-66862003D01*
X133938893Y-66876618D01*
X133917850Y-66889230D01*
X133895671Y-66899720D01*
X133872572Y-66907985D01*
X133848773Y-66913946D01*
X133824505Y-66917546D01*
X133800001Y-66918750D01*
X132899999Y-66918750D01*
X132875495Y-66917546D01*
X132851227Y-66913946D01*
X132827428Y-66907985D01*
X132804329Y-66899720D01*
X132782150Y-66889230D01*
X132761107Y-66876618D01*
X132741401Y-66862003D01*
X132723223Y-66845527D01*
X132706747Y-66827349D01*
X132692132Y-66807643D01*
X132679520Y-66786600D01*
X132669030Y-66764421D01*
X132660765Y-66741322D01*
X132654804Y-66717523D01*
X132651204Y-66693255D01*
X132650000Y-66668751D01*
X132650000Y-66018749D01*
X132651204Y-65994245D01*
X132654804Y-65969977D01*
X132660765Y-65946178D01*
X132669030Y-65923079D01*
X132679520Y-65900900D01*
X132692132Y-65879857D01*
X132706747Y-65860151D01*
X132723223Y-65841973D01*
X132741401Y-65825497D01*
X132761107Y-65810882D01*
X132782150Y-65798270D01*
X132804329Y-65787780D01*
X132827428Y-65779515D01*
X132851227Y-65773554D01*
X132875495Y-65769954D01*
X132899999Y-65768750D01*
X133800001Y-65768750D01*
X133824505Y-65769954D01*
X133824505Y-65769954D01*
G37*
D17*
X133350000Y-66343750D03*
D11*
G36*
X124006858Y-78647162D02*
G01*
X124031126Y-78650762D01*
X124054925Y-78656723D01*
X124078024Y-78664988D01*
X124100203Y-78675478D01*
X124121246Y-78688090D01*
X124140952Y-78702705D01*
X124159130Y-78719181D01*
X124618751Y-79178802D01*
X124635227Y-79196980D01*
X124649842Y-79216686D01*
X124662454Y-79237729D01*
X124672944Y-79259908D01*
X124681209Y-79283007D01*
X124687170Y-79306806D01*
X124690770Y-79331074D01*
X124691974Y-79355578D01*
X124690770Y-79380082D01*
X124687170Y-79404350D01*
X124681209Y-79428149D01*
X124672944Y-79451248D01*
X124662454Y-79473427D01*
X124649842Y-79494470D01*
X124635227Y-79514176D01*
X124618751Y-79532354D01*
X123982354Y-80168751D01*
X123964176Y-80185227D01*
X123944470Y-80199842D01*
X123923427Y-80212454D01*
X123901248Y-80222944D01*
X123878149Y-80231209D01*
X123854350Y-80237170D01*
X123830082Y-80240770D01*
X123805578Y-80241974D01*
X123781074Y-80240770D01*
X123756806Y-80237170D01*
X123733007Y-80231209D01*
X123709908Y-80222944D01*
X123687729Y-80212454D01*
X123666686Y-80199842D01*
X123646980Y-80185227D01*
X123628802Y-80168751D01*
X123169181Y-79709130D01*
X123152705Y-79690952D01*
X123138090Y-79671246D01*
X123125478Y-79650203D01*
X123114988Y-79628024D01*
X123106723Y-79604925D01*
X123100762Y-79581126D01*
X123097162Y-79556858D01*
X123095958Y-79532354D01*
X123097162Y-79507850D01*
X123100762Y-79483582D01*
X123106723Y-79459783D01*
X123114988Y-79436684D01*
X123125478Y-79414505D01*
X123138090Y-79393462D01*
X123152705Y-79373756D01*
X123169181Y-79355578D01*
X123805578Y-78719181D01*
X123823756Y-78702705D01*
X123843462Y-78688090D01*
X123864505Y-78675478D01*
X123886684Y-78664988D01*
X123909783Y-78656723D01*
X123933582Y-78650762D01*
X123957850Y-78647162D01*
X123982354Y-78645958D01*
X124006858Y-78647162D01*
X124006858Y-78647162D01*
G37*
D17*
X123893966Y-79443966D03*
D11*
G36*
X125456426Y-80096730D02*
G01*
X125480694Y-80100330D01*
X125504493Y-80106291D01*
X125527592Y-80114556D01*
X125549771Y-80125046D01*
X125570814Y-80137658D01*
X125590520Y-80152273D01*
X125608698Y-80168749D01*
X126068319Y-80628370D01*
X126084795Y-80646548D01*
X126099410Y-80666254D01*
X126112022Y-80687297D01*
X126122512Y-80709476D01*
X126130777Y-80732575D01*
X126136738Y-80756374D01*
X126140338Y-80780642D01*
X126141542Y-80805146D01*
X126140338Y-80829650D01*
X126136738Y-80853918D01*
X126130777Y-80877717D01*
X126122512Y-80900816D01*
X126112022Y-80922995D01*
X126099410Y-80944038D01*
X126084795Y-80963744D01*
X126068319Y-80981922D01*
X125431922Y-81618319D01*
X125413744Y-81634795D01*
X125394038Y-81649410D01*
X125372995Y-81662022D01*
X125350816Y-81672512D01*
X125327717Y-81680777D01*
X125303918Y-81686738D01*
X125279650Y-81690338D01*
X125255146Y-81691542D01*
X125230642Y-81690338D01*
X125206374Y-81686738D01*
X125182575Y-81680777D01*
X125159476Y-81672512D01*
X125137297Y-81662022D01*
X125116254Y-81649410D01*
X125096548Y-81634795D01*
X125078370Y-81618319D01*
X124618749Y-81158698D01*
X124602273Y-81140520D01*
X124587658Y-81120814D01*
X124575046Y-81099771D01*
X124564556Y-81077592D01*
X124556291Y-81054493D01*
X124550330Y-81030694D01*
X124546730Y-81006426D01*
X124545526Y-80981922D01*
X124546730Y-80957418D01*
X124550330Y-80933150D01*
X124556291Y-80909351D01*
X124564556Y-80886252D01*
X124575046Y-80864073D01*
X124587658Y-80843030D01*
X124602273Y-80823324D01*
X124618749Y-80805146D01*
X125255146Y-80168749D01*
X125273324Y-80152273D01*
X125293030Y-80137658D01*
X125314073Y-80125046D01*
X125336252Y-80114556D01*
X125359351Y-80106291D01*
X125383150Y-80100330D01*
X125407418Y-80096730D01*
X125431922Y-80095526D01*
X125456426Y-80096730D01*
X125456426Y-80096730D01*
G37*
D17*
X125343534Y-80893534D03*
D11*
G36*
X137116934Y-84203412D02*
G01*
X137141202Y-84207012D01*
X137165001Y-84212973D01*
X137188100Y-84221238D01*
X137210279Y-84231728D01*
X137231322Y-84244340D01*
X137251028Y-84258955D01*
X137269206Y-84275431D01*
X137905603Y-84911828D01*
X137922079Y-84930006D01*
X137936694Y-84949712D01*
X137949306Y-84970755D01*
X137959796Y-84992934D01*
X137968061Y-85016033D01*
X137974022Y-85039832D01*
X137977622Y-85064100D01*
X137978826Y-85088604D01*
X137977622Y-85113108D01*
X137974022Y-85137376D01*
X137968061Y-85161175D01*
X137959796Y-85184274D01*
X137949306Y-85206453D01*
X137936694Y-85227496D01*
X137922079Y-85247202D01*
X137905603Y-85265380D01*
X137445982Y-85725001D01*
X137427804Y-85741477D01*
X137408098Y-85756092D01*
X137387055Y-85768704D01*
X137364876Y-85779194D01*
X137341777Y-85787459D01*
X137317978Y-85793420D01*
X137293710Y-85797020D01*
X137269206Y-85798224D01*
X137244702Y-85797020D01*
X137220434Y-85793420D01*
X137196635Y-85787459D01*
X137173536Y-85779194D01*
X137151357Y-85768704D01*
X137130314Y-85756092D01*
X137110608Y-85741477D01*
X137092430Y-85725001D01*
X136456033Y-85088604D01*
X136439557Y-85070426D01*
X136424942Y-85050720D01*
X136412330Y-85029677D01*
X136401840Y-85007498D01*
X136393575Y-84984399D01*
X136387614Y-84960600D01*
X136384014Y-84936332D01*
X136382810Y-84911828D01*
X136384014Y-84887324D01*
X136387614Y-84863056D01*
X136393575Y-84839257D01*
X136401840Y-84816158D01*
X136412330Y-84793979D01*
X136424942Y-84772936D01*
X136439557Y-84753230D01*
X136456033Y-84735052D01*
X136915654Y-84275431D01*
X136933832Y-84258955D01*
X136953538Y-84244340D01*
X136974581Y-84231728D01*
X136996760Y-84221238D01*
X137019859Y-84212973D01*
X137043658Y-84207012D01*
X137067926Y-84203412D01*
X137092430Y-84202208D01*
X137116934Y-84203412D01*
X137116934Y-84203412D01*
G37*
D17*
X137180818Y-85000216D03*
D11*
G36*
X135667366Y-85652980D02*
G01*
X135691634Y-85656580D01*
X135715433Y-85662541D01*
X135738532Y-85670806D01*
X135760711Y-85681296D01*
X135781754Y-85693908D01*
X135801460Y-85708523D01*
X135819638Y-85724999D01*
X136456035Y-86361396D01*
X136472511Y-86379574D01*
X136487126Y-86399280D01*
X136499738Y-86420323D01*
X136510228Y-86442502D01*
X136518493Y-86465601D01*
X136524454Y-86489400D01*
X136528054Y-86513668D01*
X136529258Y-86538172D01*
X136528054Y-86562676D01*
X136524454Y-86586944D01*
X136518493Y-86610743D01*
X136510228Y-86633842D01*
X136499738Y-86656021D01*
X136487126Y-86677064D01*
X136472511Y-86696770D01*
X136456035Y-86714948D01*
X135996414Y-87174569D01*
X135978236Y-87191045D01*
X135958530Y-87205660D01*
X135937487Y-87218272D01*
X135915308Y-87228762D01*
X135892209Y-87237027D01*
X135868410Y-87242988D01*
X135844142Y-87246588D01*
X135819638Y-87247792D01*
X135795134Y-87246588D01*
X135770866Y-87242988D01*
X135747067Y-87237027D01*
X135723968Y-87228762D01*
X135701789Y-87218272D01*
X135680746Y-87205660D01*
X135661040Y-87191045D01*
X135642862Y-87174569D01*
X135006465Y-86538172D01*
X134989989Y-86519994D01*
X134975374Y-86500288D01*
X134962762Y-86479245D01*
X134952272Y-86457066D01*
X134944007Y-86433967D01*
X134938046Y-86410168D01*
X134934446Y-86385900D01*
X134933242Y-86361396D01*
X134934446Y-86336892D01*
X134938046Y-86312624D01*
X134944007Y-86288825D01*
X134952272Y-86265726D01*
X134962762Y-86243547D01*
X134975374Y-86222504D01*
X134989989Y-86202798D01*
X135006465Y-86184620D01*
X135466086Y-85724999D01*
X135484264Y-85708523D01*
X135503970Y-85693908D01*
X135525013Y-85681296D01*
X135547192Y-85670806D01*
X135570291Y-85662541D01*
X135594090Y-85656580D01*
X135618358Y-85652980D01*
X135642862Y-85651776D01*
X135667366Y-85652980D01*
X135667366Y-85652980D01*
G37*
D17*
X135731250Y-86449784D03*
D11*
G36*
X141813142Y-72990196D02*
G01*
X141837410Y-72993796D01*
X141861209Y-72999757D01*
X141884308Y-73008022D01*
X141906487Y-73018512D01*
X141927530Y-73031124D01*
X141947236Y-73045739D01*
X141965414Y-73062215D01*
X142425035Y-73521836D01*
X142441511Y-73540014D01*
X142456126Y-73559720D01*
X142468738Y-73580763D01*
X142479228Y-73602942D01*
X142487493Y-73626041D01*
X142493454Y-73649840D01*
X142497054Y-73674108D01*
X142498258Y-73698612D01*
X142497054Y-73723116D01*
X142493454Y-73747384D01*
X142487493Y-73771183D01*
X142479228Y-73794282D01*
X142468738Y-73816461D01*
X142456126Y-73837504D01*
X142441511Y-73857210D01*
X142425035Y-73875388D01*
X141788638Y-74511785D01*
X141770460Y-74528261D01*
X141750754Y-74542876D01*
X141729711Y-74555488D01*
X141707532Y-74565978D01*
X141684433Y-74574243D01*
X141660634Y-74580204D01*
X141636366Y-74583804D01*
X141611862Y-74585008D01*
X141587358Y-74583804D01*
X141563090Y-74580204D01*
X141539291Y-74574243D01*
X141516192Y-74565978D01*
X141494013Y-74555488D01*
X141472970Y-74542876D01*
X141453264Y-74528261D01*
X141435086Y-74511785D01*
X140975465Y-74052164D01*
X140958989Y-74033986D01*
X140944374Y-74014280D01*
X140931762Y-73993237D01*
X140921272Y-73971058D01*
X140913007Y-73947959D01*
X140907046Y-73924160D01*
X140903446Y-73899892D01*
X140902242Y-73875388D01*
X140903446Y-73850884D01*
X140907046Y-73826616D01*
X140913007Y-73802817D01*
X140921272Y-73779718D01*
X140931762Y-73757539D01*
X140944374Y-73736496D01*
X140958989Y-73716790D01*
X140975465Y-73698612D01*
X141611862Y-73062215D01*
X141630040Y-73045739D01*
X141649746Y-73031124D01*
X141670789Y-73018512D01*
X141692968Y-73008022D01*
X141716067Y-72999757D01*
X141739866Y-72993796D01*
X141764134Y-72990196D01*
X141788638Y-72988992D01*
X141813142Y-72990196D01*
X141813142Y-72990196D01*
G37*
D17*
X141700250Y-73787000D03*
D11*
G36*
X143262710Y-74439764D02*
G01*
X143286978Y-74443364D01*
X143310777Y-74449325D01*
X143333876Y-74457590D01*
X143356055Y-74468080D01*
X143377098Y-74480692D01*
X143396804Y-74495307D01*
X143414982Y-74511783D01*
X143874603Y-74971404D01*
X143891079Y-74989582D01*
X143905694Y-75009288D01*
X143918306Y-75030331D01*
X143928796Y-75052510D01*
X143937061Y-75075609D01*
X143943022Y-75099408D01*
X143946622Y-75123676D01*
X143947826Y-75148180D01*
X143946622Y-75172684D01*
X143943022Y-75196952D01*
X143937061Y-75220751D01*
X143928796Y-75243850D01*
X143918306Y-75266029D01*
X143905694Y-75287072D01*
X143891079Y-75306778D01*
X143874603Y-75324956D01*
X143238206Y-75961353D01*
X143220028Y-75977829D01*
X143200322Y-75992444D01*
X143179279Y-76005056D01*
X143157100Y-76015546D01*
X143134001Y-76023811D01*
X143110202Y-76029772D01*
X143085934Y-76033372D01*
X143061430Y-76034576D01*
X143036926Y-76033372D01*
X143012658Y-76029772D01*
X142988859Y-76023811D01*
X142965760Y-76015546D01*
X142943581Y-76005056D01*
X142922538Y-75992444D01*
X142902832Y-75977829D01*
X142884654Y-75961353D01*
X142425033Y-75501732D01*
X142408557Y-75483554D01*
X142393942Y-75463848D01*
X142381330Y-75442805D01*
X142370840Y-75420626D01*
X142362575Y-75397527D01*
X142356614Y-75373728D01*
X142353014Y-75349460D01*
X142351810Y-75324956D01*
X142353014Y-75300452D01*
X142356614Y-75276184D01*
X142362575Y-75252385D01*
X142370840Y-75229286D01*
X142381330Y-75207107D01*
X142393942Y-75186064D01*
X142408557Y-75166358D01*
X142425033Y-75148180D01*
X143061430Y-74511783D01*
X143079608Y-74495307D01*
X143099314Y-74480692D01*
X143120357Y-74468080D01*
X143142536Y-74457590D01*
X143165635Y-74449325D01*
X143189434Y-74443364D01*
X143213702Y-74439764D01*
X143238206Y-74438560D01*
X143262710Y-74439764D01*
X143262710Y-74439764D01*
G37*
D17*
X143149818Y-75236568D03*
D11*
G36*
X166731426Y-69777980D02*
G01*
X166755694Y-69781580D01*
X166779493Y-69787541D01*
X166802592Y-69795806D01*
X166824771Y-69806296D01*
X166845814Y-69818908D01*
X166865520Y-69833523D01*
X166883698Y-69849999D01*
X167343319Y-70309620D01*
X167359795Y-70327798D01*
X167374410Y-70347504D01*
X167387022Y-70368547D01*
X167397512Y-70390726D01*
X167405777Y-70413825D01*
X167411738Y-70437624D01*
X167415338Y-70461892D01*
X167416542Y-70486396D01*
X167415338Y-70510900D01*
X167411738Y-70535168D01*
X167405777Y-70558967D01*
X167397512Y-70582066D01*
X167387022Y-70604245D01*
X167374410Y-70625288D01*
X167359795Y-70644994D01*
X167343319Y-70663172D01*
X166706922Y-71299569D01*
X166688744Y-71316045D01*
X166669038Y-71330660D01*
X166647995Y-71343272D01*
X166625816Y-71353762D01*
X166602717Y-71362027D01*
X166578918Y-71367988D01*
X166554650Y-71371588D01*
X166530146Y-71372792D01*
X166505642Y-71371588D01*
X166481374Y-71367988D01*
X166457575Y-71362027D01*
X166434476Y-71353762D01*
X166412297Y-71343272D01*
X166391254Y-71330660D01*
X166371548Y-71316045D01*
X166353370Y-71299569D01*
X165893749Y-70839948D01*
X165877273Y-70821770D01*
X165862658Y-70802064D01*
X165850046Y-70781021D01*
X165839556Y-70758842D01*
X165831291Y-70735743D01*
X165825330Y-70711944D01*
X165821730Y-70687676D01*
X165820526Y-70663172D01*
X165821730Y-70638668D01*
X165825330Y-70614400D01*
X165831291Y-70590601D01*
X165839556Y-70567502D01*
X165850046Y-70545323D01*
X165862658Y-70524280D01*
X165877273Y-70504574D01*
X165893749Y-70486396D01*
X166530146Y-69849999D01*
X166548324Y-69833523D01*
X166568030Y-69818908D01*
X166589073Y-69806296D01*
X166611252Y-69795806D01*
X166634351Y-69787541D01*
X166658150Y-69781580D01*
X166682418Y-69777980D01*
X166706922Y-69776776D01*
X166731426Y-69777980D01*
X166731426Y-69777980D01*
G37*
D17*
X166618534Y-70574784D03*
D11*
G36*
X165281858Y-68328412D02*
G01*
X165306126Y-68332012D01*
X165329925Y-68337973D01*
X165353024Y-68346238D01*
X165375203Y-68356728D01*
X165396246Y-68369340D01*
X165415952Y-68383955D01*
X165434130Y-68400431D01*
X165893751Y-68860052D01*
X165910227Y-68878230D01*
X165924842Y-68897936D01*
X165937454Y-68918979D01*
X165947944Y-68941158D01*
X165956209Y-68964257D01*
X165962170Y-68988056D01*
X165965770Y-69012324D01*
X165966974Y-69036828D01*
X165965770Y-69061332D01*
X165962170Y-69085600D01*
X165956209Y-69109399D01*
X165947944Y-69132498D01*
X165937454Y-69154677D01*
X165924842Y-69175720D01*
X165910227Y-69195426D01*
X165893751Y-69213604D01*
X165257354Y-69850001D01*
X165239176Y-69866477D01*
X165219470Y-69881092D01*
X165198427Y-69893704D01*
X165176248Y-69904194D01*
X165153149Y-69912459D01*
X165129350Y-69918420D01*
X165105082Y-69922020D01*
X165080578Y-69923224D01*
X165056074Y-69922020D01*
X165031806Y-69918420D01*
X165008007Y-69912459D01*
X164984908Y-69904194D01*
X164962729Y-69893704D01*
X164941686Y-69881092D01*
X164921980Y-69866477D01*
X164903802Y-69850001D01*
X164444181Y-69390380D01*
X164427705Y-69372202D01*
X164413090Y-69352496D01*
X164400478Y-69331453D01*
X164389988Y-69309274D01*
X164381723Y-69286175D01*
X164375762Y-69262376D01*
X164372162Y-69238108D01*
X164370958Y-69213604D01*
X164372162Y-69189100D01*
X164375762Y-69164832D01*
X164381723Y-69141033D01*
X164389988Y-69117934D01*
X164400478Y-69095755D01*
X164413090Y-69074712D01*
X164427705Y-69055006D01*
X164444181Y-69036828D01*
X165080578Y-68400431D01*
X165098756Y-68383955D01*
X165118462Y-68369340D01*
X165139505Y-68356728D01*
X165161684Y-68346238D01*
X165184783Y-68337973D01*
X165208582Y-68332012D01*
X165232850Y-68328412D01*
X165257354Y-68327208D01*
X165281858Y-68328412D01*
X165281858Y-68328412D01*
G37*
D17*
X165168966Y-69125216D03*
D11*
G36*
X138950176Y-69777980D02*
G01*
X138974444Y-69781580D01*
X138998243Y-69787541D01*
X139021342Y-69795806D01*
X139043521Y-69806296D01*
X139064564Y-69818908D01*
X139084270Y-69833523D01*
X139102448Y-69849999D01*
X139562069Y-70309620D01*
X139578545Y-70327798D01*
X139593160Y-70347504D01*
X139605772Y-70368547D01*
X139616262Y-70390726D01*
X139624527Y-70413825D01*
X139630488Y-70437624D01*
X139634088Y-70461892D01*
X139635292Y-70486396D01*
X139634088Y-70510900D01*
X139630488Y-70535168D01*
X139624527Y-70558967D01*
X139616262Y-70582066D01*
X139605772Y-70604245D01*
X139593160Y-70625288D01*
X139578545Y-70644994D01*
X139562069Y-70663172D01*
X138925672Y-71299569D01*
X138907494Y-71316045D01*
X138887788Y-71330660D01*
X138866745Y-71343272D01*
X138844566Y-71353762D01*
X138821467Y-71362027D01*
X138797668Y-71367988D01*
X138773400Y-71371588D01*
X138748896Y-71372792D01*
X138724392Y-71371588D01*
X138700124Y-71367988D01*
X138676325Y-71362027D01*
X138653226Y-71353762D01*
X138631047Y-71343272D01*
X138610004Y-71330660D01*
X138590298Y-71316045D01*
X138572120Y-71299569D01*
X138112499Y-70839948D01*
X138096023Y-70821770D01*
X138081408Y-70802064D01*
X138068796Y-70781021D01*
X138058306Y-70758842D01*
X138050041Y-70735743D01*
X138044080Y-70711944D01*
X138040480Y-70687676D01*
X138039276Y-70663172D01*
X138040480Y-70638668D01*
X138044080Y-70614400D01*
X138050041Y-70590601D01*
X138058306Y-70567502D01*
X138068796Y-70545323D01*
X138081408Y-70524280D01*
X138096023Y-70504574D01*
X138112499Y-70486396D01*
X138748896Y-69849999D01*
X138767074Y-69833523D01*
X138786780Y-69818908D01*
X138807823Y-69806296D01*
X138830002Y-69795806D01*
X138853101Y-69787541D01*
X138876900Y-69781580D01*
X138901168Y-69777980D01*
X138925672Y-69776776D01*
X138950176Y-69777980D01*
X138950176Y-69777980D01*
G37*
D17*
X138837284Y-70574784D03*
D11*
G36*
X137500608Y-68328412D02*
G01*
X137524876Y-68332012D01*
X137548675Y-68337973D01*
X137571774Y-68346238D01*
X137593953Y-68356728D01*
X137614996Y-68369340D01*
X137634702Y-68383955D01*
X137652880Y-68400431D01*
X138112501Y-68860052D01*
X138128977Y-68878230D01*
X138143592Y-68897936D01*
X138156204Y-68918979D01*
X138166694Y-68941158D01*
X138174959Y-68964257D01*
X138180920Y-68988056D01*
X138184520Y-69012324D01*
X138185724Y-69036828D01*
X138184520Y-69061332D01*
X138180920Y-69085600D01*
X138174959Y-69109399D01*
X138166694Y-69132498D01*
X138156204Y-69154677D01*
X138143592Y-69175720D01*
X138128977Y-69195426D01*
X138112501Y-69213604D01*
X137476104Y-69850001D01*
X137457926Y-69866477D01*
X137438220Y-69881092D01*
X137417177Y-69893704D01*
X137394998Y-69904194D01*
X137371899Y-69912459D01*
X137348100Y-69918420D01*
X137323832Y-69922020D01*
X137299328Y-69923224D01*
X137274824Y-69922020D01*
X137250556Y-69918420D01*
X137226757Y-69912459D01*
X137203658Y-69904194D01*
X137181479Y-69893704D01*
X137160436Y-69881092D01*
X137140730Y-69866477D01*
X137122552Y-69850001D01*
X136662931Y-69390380D01*
X136646455Y-69372202D01*
X136631840Y-69352496D01*
X136619228Y-69331453D01*
X136608738Y-69309274D01*
X136600473Y-69286175D01*
X136594512Y-69262376D01*
X136590912Y-69238108D01*
X136589708Y-69213604D01*
X136590912Y-69189100D01*
X136594512Y-69164832D01*
X136600473Y-69141033D01*
X136608738Y-69117934D01*
X136619228Y-69095755D01*
X136631840Y-69074712D01*
X136646455Y-69055006D01*
X136662931Y-69036828D01*
X137299328Y-68400431D01*
X137317506Y-68383955D01*
X137337212Y-68369340D01*
X137358255Y-68356728D01*
X137380434Y-68346238D01*
X137403533Y-68337973D01*
X137427332Y-68332012D01*
X137451600Y-68328412D01*
X137476104Y-68327208D01*
X137500608Y-68328412D01*
X137500608Y-68328412D01*
G37*
D17*
X137387716Y-69125216D03*
D11*
G36*
X157224255Y-64586204D02*
G01*
X157248523Y-64589804D01*
X157272322Y-64595765D01*
X157295421Y-64604030D01*
X157317600Y-64614520D01*
X157338643Y-64627132D01*
X157358349Y-64641747D01*
X157376527Y-64658223D01*
X157393003Y-64676401D01*
X157407618Y-64696107D01*
X157420230Y-64717150D01*
X157430720Y-64739329D01*
X157438985Y-64762428D01*
X157444946Y-64786227D01*
X157448546Y-64810495D01*
X157449750Y-64834999D01*
X157449750Y-65485001D01*
X157448546Y-65509505D01*
X157444946Y-65533773D01*
X157438985Y-65557572D01*
X157430720Y-65580671D01*
X157420230Y-65602850D01*
X157407618Y-65623893D01*
X157393003Y-65643599D01*
X157376527Y-65661777D01*
X157358349Y-65678253D01*
X157338643Y-65692868D01*
X157317600Y-65705480D01*
X157295421Y-65715970D01*
X157272322Y-65724235D01*
X157248523Y-65730196D01*
X157224255Y-65733796D01*
X157199751Y-65735000D01*
X156299749Y-65735000D01*
X156275245Y-65733796D01*
X156250977Y-65730196D01*
X156227178Y-65724235D01*
X156204079Y-65715970D01*
X156181900Y-65705480D01*
X156160857Y-65692868D01*
X156141151Y-65678253D01*
X156122973Y-65661777D01*
X156106497Y-65643599D01*
X156091882Y-65623893D01*
X156079270Y-65602850D01*
X156068780Y-65580671D01*
X156060515Y-65557572D01*
X156054554Y-65533773D01*
X156050954Y-65509505D01*
X156049750Y-65485001D01*
X156049750Y-64834999D01*
X156050954Y-64810495D01*
X156054554Y-64786227D01*
X156060515Y-64762428D01*
X156068780Y-64739329D01*
X156079270Y-64717150D01*
X156091882Y-64696107D01*
X156106497Y-64676401D01*
X156122973Y-64658223D01*
X156141151Y-64641747D01*
X156160857Y-64627132D01*
X156181900Y-64614520D01*
X156204079Y-64604030D01*
X156227178Y-64595765D01*
X156250977Y-64589804D01*
X156275245Y-64586204D01*
X156299749Y-64585000D01*
X157199751Y-64585000D01*
X157224255Y-64586204D01*
X157224255Y-64586204D01*
G37*
D17*
X156749750Y-65160000D03*
D11*
G36*
X157224255Y-62536204D02*
G01*
X157248523Y-62539804D01*
X157272322Y-62545765D01*
X157295421Y-62554030D01*
X157317600Y-62564520D01*
X157338643Y-62577132D01*
X157358349Y-62591747D01*
X157376527Y-62608223D01*
X157393003Y-62626401D01*
X157407618Y-62646107D01*
X157420230Y-62667150D01*
X157430720Y-62689329D01*
X157438985Y-62712428D01*
X157444946Y-62736227D01*
X157448546Y-62760495D01*
X157449750Y-62784999D01*
X157449750Y-63435001D01*
X157448546Y-63459505D01*
X157444946Y-63483773D01*
X157438985Y-63507572D01*
X157430720Y-63530671D01*
X157420230Y-63552850D01*
X157407618Y-63573893D01*
X157393003Y-63593599D01*
X157376527Y-63611777D01*
X157358349Y-63628253D01*
X157338643Y-63642868D01*
X157317600Y-63655480D01*
X157295421Y-63665970D01*
X157272322Y-63674235D01*
X157248523Y-63680196D01*
X157224255Y-63683796D01*
X157199751Y-63685000D01*
X156299749Y-63685000D01*
X156275245Y-63683796D01*
X156250977Y-63680196D01*
X156227178Y-63674235D01*
X156204079Y-63665970D01*
X156181900Y-63655480D01*
X156160857Y-63642868D01*
X156141151Y-63628253D01*
X156122973Y-63611777D01*
X156106497Y-63593599D01*
X156091882Y-63573893D01*
X156079270Y-63552850D01*
X156068780Y-63530671D01*
X156060515Y-63507572D01*
X156054554Y-63483773D01*
X156050954Y-63459505D01*
X156049750Y-63435001D01*
X156049750Y-62784999D01*
X156050954Y-62760495D01*
X156054554Y-62736227D01*
X156060515Y-62712428D01*
X156068780Y-62689329D01*
X156079270Y-62667150D01*
X156091882Y-62646107D01*
X156106497Y-62626401D01*
X156122973Y-62608223D01*
X156141151Y-62591747D01*
X156160857Y-62577132D01*
X156181900Y-62564520D01*
X156204079Y-62554030D01*
X156227178Y-62545765D01*
X156250977Y-62539804D01*
X156275245Y-62536204D01*
X156299749Y-62535000D01*
X157199751Y-62535000D01*
X157224255Y-62536204D01*
X157224255Y-62536204D01*
G37*
D17*
X156749750Y-63110000D03*
D11*
G36*
X129474755Y-62536204D02*
G01*
X129499023Y-62539804D01*
X129522822Y-62545765D01*
X129545921Y-62554030D01*
X129568100Y-62564520D01*
X129589143Y-62577132D01*
X129608849Y-62591747D01*
X129627027Y-62608223D01*
X129643503Y-62626401D01*
X129658118Y-62646107D01*
X129670730Y-62667150D01*
X129681220Y-62689329D01*
X129689485Y-62712428D01*
X129695446Y-62736227D01*
X129699046Y-62760495D01*
X129700250Y-62784999D01*
X129700250Y-63435001D01*
X129699046Y-63459505D01*
X129695446Y-63483773D01*
X129689485Y-63507572D01*
X129681220Y-63530671D01*
X129670730Y-63552850D01*
X129658118Y-63573893D01*
X129643503Y-63593599D01*
X129627027Y-63611777D01*
X129608849Y-63628253D01*
X129589143Y-63642868D01*
X129568100Y-63655480D01*
X129545921Y-63665970D01*
X129522822Y-63674235D01*
X129499023Y-63680196D01*
X129474755Y-63683796D01*
X129450251Y-63685000D01*
X128550249Y-63685000D01*
X128525745Y-63683796D01*
X128501477Y-63680196D01*
X128477678Y-63674235D01*
X128454579Y-63665970D01*
X128432400Y-63655480D01*
X128411357Y-63642868D01*
X128391651Y-63628253D01*
X128373473Y-63611777D01*
X128356997Y-63593599D01*
X128342382Y-63573893D01*
X128329770Y-63552850D01*
X128319280Y-63530671D01*
X128311015Y-63507572D01*
X128305054Y-63483773D01*
X128301454Y-63459505D01*
X128300250Y-63435001D01*
X128300250Y-62784999D01*
X128301454Y-62760495D01*
X128305054Y-62736227D01*
X128311015Y-62712428D01*
X128319280Y-62689329D01*
X128329770Y-62667150D01*
X128342382Y-62646107D01*
X128356997Y-62626401D01*
X128373473Y-62608223D01*
X128391651Y-62591747D01*
X128411357Y-62577132D01*
X128432400Y-62564520D01*
X128454579Y-62554030D01*
X128477678Y-62545765D01*
X128501477Y-62539804D01*
X128525745Y-62536204D01*
X128550249Y-62535000D01*
X129450251Y-62535000D01*
X129474755Y-62536204D01*
X129474755Y-62536204D01*
G37*
D17*
X129000250Y-63110000D03*
D11*
G36*
X129474755Y-64586204D02*
G01*
X129499023Y-64589804D01*
X129522822Y-64595765D01*
X129545921Y-64604030D01*
X129568100Y-64614520D01*
X129589143Y-64627132D01*
X129608849Y-64641747D01*
X129627027Y-64658223D01*
X129643503Y-64676401D01*
X129658118Y-64696107D01*
X129670730Y-64717150D01*
X129681220Y-64739329D01*
X129689485Y-64762428D01*
X129695446Y-64786227D01*
X129699046Y-64810495D01*
X129700250Y-64834999D01*
X129700250Y-65485001D01*
X129699046Y-65509505D01*
X129695446Y-65533773D01*
X129689485Y-65557572D01*
X129681220Y-65580671D01*
X129670730Y-65602850D01*
X129658118Y-65623893D01*
X129643503Y-65643599D01*
X129627027Y-65661777D01*
X129608849Y-65678253D01*
X129589143Y-65692868D01*
X129568100Y-65705480D01*
X129545921Y-65715970D01*
X129522822Y-65724235D01*
X129499023Y-65730196D01*
X129474755Y-65733796D01*
X129450251Y-65735000D01*
X128550249Y-65735000D01*
X128525745Y-65733796D01*
X128501477Y-65730196D01*
X128477678Y-65724235D01*
X128454579Y-65715970D01*
X128432400Y-65705480D01*
X128411357Y-65692868D01*
X128391651Y-65678253D01*
X128373473Y-65661777D01*
X128356997Y-65643599D01*
X128342382Y-65623893D01*
X128329770Y-65602850D01*
X128319280Y-65580671D01*
X128311015Y-65557572D01*
X128305054Y-65533773D01*
X128301454Y-65509505D01*
X128300250Y-65485001D01*
X128300250Y-64834999D01*
X128301454Y-64810495D01*
X128305054Y-64786227D01*
X128311015Y-64762428D01*
X128319280Y-64739329D01*
X128329770Y-64717150D01*
X128342382Y-64696107D01*
X128356997Y-64676401D01*
X128373473Y-64658223D01*
X128391651Y-64641747D01*
X128411357Y-64627132D01*
X128432400Y-64614520D01*
X128454579Y-64604030D01*
X128477678Y-64595765D01*
X128501477Y-64589804D01*
X128525745Y-64586204D01*
X128550249Y-64585000D01*
X129450251Y-64585000D01*
X129474755Y-64586204D01*
X129474755Y-64586204D01*
G37*
D17*
X129000250Y-65160000D03*
D11*
G36*
X154462005Y-64586204D02*
G01*
X154486273Y-64589804D01*
X154510072Y-64595765D01*
X154533171Y-64604030D01*
X154555350Y-64614520D01*
X154576393Y-64627132D01*
X154596099Y-64641747D01*
X154614277Y-64658223D01*
X154630753Y-64676401D01*
X154645368Y-64696107D01*
X154657980Y-64717150D01*
X154668470Y-64739329D01*
X154676735Y-64762428D01*
X154682696Y-64786227D01*
X154686296Y-64810495D01*
X154687500Y-64834999D01*
X154687500Y-65485001D01*
X154686296Y-65509505D01*
X154682696Y-65533773D01*
X154676735Y-65557572D01*
X154668470Y-65580671D01*
X154657980Y-65602850D01*
X154645368Y-65623893D01*
X154630753Y-65643599D01*
X154614277Y-65661777D01*
X154596099Y-65678253D01*
X154576393Y-65692868D01*
X154555350Y-65705480D01*
X154533171Y-65715970D01*
X154510072Y-65724235D01*
X154486273Y-65730196D01*
X154462005Y-65733796D01*
X154437501Y-65735000D01*
X153537499Y-65735000D01*
X153512995Y-65733796D01*
X153488727Y-65730196D01*
X153464928Y-65724235D01*
X153441829Y-65715970D01*
X153419650Y-65705480D01*
X153398607Y-65692868D01*
X153378901Y-65678253D01*
X153360723Y-65661777D01*
X153344247Y-65643599D01*
X153329632Y-65623893D01*
X153317020Y-65602850D01*
X153306530Y-65580671D01*
X153298265Y-65557572D01*
X153292304Y-65533773D01*
X153288704Y-65509505D01*
X153287500Y-65485001D01*
X153287500Y-64834999D01*
X153288704Y-64810495D01*
X153292304Y-64786227D01*
X153298265Y-64762428D01*
X153306530Y-64739329D01*
X153317020Y-64717150D01*
X153329632Y-64696107D01*
X153344247Y-64676401D01*
X153360723Y-64658223D01*
X153378901Y-64641747D01*
X153398607Y-64627132D01*
X153419650Y-64614520D01*
X153441829Y-64604030D01*
X153464928Y-64595765D01*
X153488727Y-64589804D01*
X153512995Y-64586204D01*
X153537499Y-64585000D01*
X154437501Y-64585000D01*
X154462005Y-64586204D01*
X154462005Y-64586204D01*
G37*
D17*
X153987500Y-65160000D03*
D11*
G36*
X154462005Y-62536204D02*
G01*
X154486273Y-62539804D01*
X154510072Y-62545765D01*
X154533171Y-62554030D01*
X154555350Y-62564520D01*
X154576393Y-62577132D01*
X154596099Y-62591747D01*
X154614277Y-62608223D01*
X154630753Y-62626401D01*
X154645368Y-62646107D01*
X154657980Y-62667150D01*
X154668470Y-62689329D01*
X154676735Y-62712428D01*
X154682696Y-62736227D01*
X154686296Y-62760495D01*
X154687500Y-62784999D01*
X154687500Y-63435001D01*
X154686296Y-63459505D01*
X154682696Y-63483773D01*
X154676735Y-63507572D01*
X154668470Y-63530671D01*
X154657980Y-63552850D01*
X154645368Y-63573893D01*
X154630753Y-63593599D01*
X154614277Y-63611777D01*
X154596099Y-63628253D01*
X154576393Y-63642868D01*
X154555350Y-63655480D01*
X154533171Y-63665970D01*
X154510072Y-63674235D01*
X154486273Y-63680196D01*
X154462005Y-63683796D01*
X154437501Y-63685000D01*
X153537499Y-63685000D01*
X153512995Y-63683796D01*
X153488727Y-63680196D01*
X153464928Y-63674235D01*
X153441829Y-63665970D01*
X153419650Y-63655480D01*
X153398607Y-63642868D01*
X153378901Y-63628253D01*
X153360723Y-63611777D01*
X153344247Y-63593599D01*
X153329632Y-63573893D01*
X153317020Y-63552850D01*
X153306530Y-63530671D01*
X153298265Y-63507572D01*
X153292304Y-63483773D01*
X153288704Y-63459505D01*
X153287500Y-63435001D01*
X153287500Y-62784999D01*
X153288704Y-62760495D01*
X153292304Y-62736227D01*
X153298265Y-62712428D01*
X153306530Y-62689329D01*
X153317020Y-62667150D01*
X153329632Y-62646107D01*
X153344247Y-62626401D01*
X153360723Y-62608223D01*
X153378901Y-62591747D01*
X153398607Y-62577132D01*
X153419650Y-62564520D01*
X153441829Y-62554030D01*
X153464928Y-62545765D01*
X153488727Y-62539804D01*
X153512995Y-62536204D01*
X153537499Y-62535000D01*
X154437501Y-62535000D01*
X154462005Y-62536204D01*
X154462005Y-62536204D01*
G37*
D17*
X153987500Y-63110000D03*
D11*
G36*
X126680755Y-62536204D02*
G01*
X126705023Y-62539804D01*
X126728822Y-62545765D01*
X126751921Y-62554030D01*
X126774100Y-62564520D01*
X126795143Y-62577132D01*
X126814849Y-62591747D01*
X126833027Y-62608223D01*
X126849503Y-62626401D01*
X126864118Y-62646107D01*
X126876730Y-62667150D01*
X126887220Y-62689329D01*
X126895485Y-62712428D01*
X126901446Y-62736227D01*
X126905046Y-62760495D01*
X126906250Y-62784999D01*
X126906250Y-63435001D01*
X126905046Y-63459505D01*
X126901446Y-63483773D01*
X126895485Y-63507572D01*
X126887220Y-63530671D01*
X126876730Y-63552850D01*
X126864118Y-63573893D01*
X126849503Y-63593599D01*
X126833027Y-63611777D01*
X126814849Y-63628253D01*
X126795143Y-63642868D01*
X126774100Y-63655480D01*
X126751921Y-63665970D01*
X126728822Y-63674235D01*
X126705023Y-63680196D01*
X126680755Y-63683796D01*
X126656251Y-63685000D01*
X125756249Y-63685000D01*
X125731745Y-63683796D01*
X125707477Y-63680196D01*
X125683678Y-63674235D01*
X125660579Y-63665970D01*
X125638400Y-63655480D01*
X125617357Y-63642868D01*
X125597651Y-63628253D01*
X125579473Y-63611777D01*
X125562997Y-63593599D01*
X125548382Y-63573893D01*
X125535770Y-63552850D01*
X125525280Y-63530671D01*
X125517015Y-63507572D01*
X125511054Y-63483773D01*
X125507454Y-63459505D01*
X125506250Y-63435001D01*
X125506250Y-62784999D01*
X125507454Y-62760495D01*
X125511054Y-62736227D01*
X125517015Y-62712428D01*
X125525280Y-62689329D01*
X125535770Y-62667150D01*
X125548382Y-62646107D01*
X125562997Y-62626401D01*
X125579473Y-62608223D01*
X125597651Y-62591747D01*
X125617357Y-62577132D01*
X125638400Y-62564520D01*
X125660579Y-62554030D01*
X125683678Y-62545765D01*
X125707477Y-62539804D01*
X125731745Y-62536204D01*
X125756249Y-62535000D01*
X126656251Y-62535000D01*
X126680755Y-62536204D01*
X126680755Y-62536204D01*
G37*
D17*
X126206250Y-63110000D03*
D11*
G36*
X126680755Y-64586204D02*
G01*
X126705023Y-64589804D01*
X126728822Y-64595765D01*
X126751921Y-64604030D01*
X126774100Y-64614520D01*
X126795143Y-64627132D01*
X126814849Y-64641747D01*
X126833027Y-64658223D01*
X126849503Y-64676401D01*
X126864118Y-64696107D01*
X126876730Y-64717150D01*
X126887220Y-64739329D01*
X126895485Y-64762428D01*
X126901446Y-64786227D01*
X126905046Y-64810495D01*
X126906250Y-64834999D01*
X126906250Y-65485001D01*
X126905046Y-65509505D01*
X126901446Y-65533773D01*
X126895485Y-65557572D01*
X126887220Y-65580671D01*
X126876730Y-65602850D01*
X126864118Y-65623893D01*
X126849503Y-65643599D01*
X126833027Y-65661777D01*
X126814849Y-65678253D01*
X126795143Y-65692868D01*
X126774100Y-65705480D01*
X126751921Y-65715970D01*
X126728822Y-65724235D01*
X126705023Y-65730196D01*
X126680755Y-65733796D01*
X126656251Y-65735000D01*
X125756249Y-65735000D01*
X125731745Y-65733796D01*
X125707477Y-65730196D01*
X125683678Y-65724235D01*
X125660579Y-65715970D01*
X125638400Y-65705480D01*
X125617357Y-65692868D01*
X125597651Y-65678253D01*
X125579473Y-65661777D01*
X125562997Y-65643599D01*
X125548382Y-65623893D01*
X125535770Y-65602850D01*
X125525280Y-65580671D01*
X125517015Y-65557572D01*
X125511054Y-65533773D01*
X125507454Y-65509505D01*
X125506250Y-65485001D01*
X125506250Y-64834999D01*
X125507454Y-64810495D01*
X125511054Y-64786227D01*
X125517015Y-64762428D01*
X125525280Y-64739329D01*
X125535770Y-64717150D01*
X125548382Y-64696107D01*
X125562997Y-64676401D01*
X125579473Y-64658223D01*
X125597651Y-64641747D01*
X125617357Y-64627132D01*
X125638400Y-64614520D01*
X125660579Y-64604030D01*
X125683678Y-64595765D01*
X125707477Y-64589804D01*
X125731745Y-64586204D01*
X125756249Y-64585000D01*
X126656251Y-64585000D01*
X126680755Y-64586204D01*
X126680755Y-64586204D01*
G37*
D17*
X126206250Y-65160000D03*
M02*
