G04 #@! TF.GenerationSoftware,KiCad,Pcbnew,(5.1.4)-1*
G04 #@! TF.CreationDate,2023-05-20T18:36:56-04:00*
G04 #@! TF.ProjectId,Corne Integrated Microchip,436f726e-6520-4496-9e74-656772617465,rev?*
G04 #@! TF.SameCoordinates,Original*
G04 #@! TF.FileFunction,Legend,Bot*
G04 #@! TF.FilePolarity,Positive*
%FSLAX46Y46*%
G04 Gerber Fmt 4.6, Leading zero omitted, Abs format (unit mm)*
G04 Created by KiCad (PCBNEW (5.1.4)-1) date 2023-05-20 18:36:56*
%MOMM*%
%LPD*%
G04 APERTURE LIST*
%ADD10C,0.150000*%
%ADD11C,0.120000*%
G04 APERTURE END LIST*
D10*
X156241750Y-93345000D02*
X156241750Y-90805000D01*
X166401750Y-93345000D02*
X156241750Y-93345000D01*
X166401750Y-90805000D02*
X166401750Y-93345000D01*
X156241750Y-90805000D02*
X166401750Y-90805000D01*
X128111250Y-93345000D02*
X128111250Y-90805000D01*
X138271250Y-93345000D02*
X128111250Y-93345000D01*
X138271250Y-90805000D02*
X138271250Y-93345000D01*
X128111250Y-90805000D02*
X138271250Y-90805000D01*
D11*
X219281250Y-113437500D02*
X219281250Y-109537500D01*
X217281250Y-113437500D02*
X217281250Y-109537500D01*
X219281250Y-113437500D02*
X217281250Y-113437500D01*
X201818750Y-113375000D02*
X201818750Y-109475000D01*
X199818750Y-113375000D02*
X199818750Y-109475000D01*
X201818750Y-113375000D02*
X199818750Y-113375000D01*
X198643750Y-113375000D02*
X198643750Y-109475000D01*
X196643750Y-113375000D02*
X196643750Y-109475000D01*
X198643750Y-113375000D02*
X196643750Y-113375000D01*
X270081250Y-98356250D02*
X270081250Y-94456250D01*
X268081250Y-98356250D02*
X268081250Y-94456250D01*
X270081250Y-98356250D02*
X268081250Y-98356250D01*
X266906250Y-98356250D02*
X266906250Y-94456250D01*
X264906250Y-98356250D02*
X264906250Y-94456250D01*
X266906250Y-98356250D02*
X264906250Y-98356250D01*
X231981250Y-92800000D02*
X231981250Y-88900000D01*
X229981250Y-92800000D02*
X229981250Y-88900000D01*
X231981250Y-92800000D02*
X229981250Y-92800000D01*
X228806250Y-92800000D02*
X228806250Y-88900000D01*
X226806250Y-92800000D02*
X226806250Y-88900000D01*
X228806250Y-92800000D02*
X226806250Y-92800000D01*
X193881250Y-94387500D02*
X193881250Y-90487500D01*
X191881250Y-94387500D02*
X191881250Y-90487500D01*
X193881250Y-94387500D02*
X191881250Y-94387500D01*
X190706250Y-94325000D02*
X190706250Y-90425000D01*
X188706250Y-94325000D02*
X188706250Y-90425000D01*
X190706250Y-94325000D02*
X188706250Y-94325000D01*
X270081250Y-79306250D02*
X270081250Y-75406250D01*
X268081250Y-79306250D02*
X268081250Y-75406250D01*
X270081250Y-79306250D02*
X268081250Y-79306250D01*
X266906250Y-79306250D02*
X266906250Y-75406250D01*
X264906250Y-79306250D02*
X264906250Y-75406250D01*
X266906250Y-79306250D02*
X264906250Y-79306250D01*
X231981250Y-73750000D02*
X231981250Y-69850000D01*
X229981250Y-73750000D02*
X229981250Y-69850000D01*
X231981250Y-73750000D02*
X229981250Y-73750000D01*
X228806250Y-73750000D02*
X228806250Y-69850000D01*
X226806250Y-73750000D02*
X226806250Y-69850000D01*
X228806250Y-73750000D02*
X226806250Y-73750000D01*
X193881250Y-75337500D02*
X193881250Y-71437500D01*
X191881250Y-75337500D02*
X191881250Y-71437500D01*
X193881250Y-75337500D02*
X191881250Y-75337500D01*
X190706250Y-75337500D02*
X190706250Y-71437500D01*
X188706250Y-75337500D02*
X188706250Y-71437500D01*
X190706250Y-75337500D02*
X188706250Y-75337500D01*
X270081250Y-60256250D02*
X270081250Y-56356250D01*
X268081250Y-60256250D02*
X268081250Y-56356250D01*
X270081250Y-60256250D02*
X268081250Y-60256250D01*
X266906250Y-60256250D02*
X266906250Y-56356250D01*
X264906250Y-60256250D02*
X264906250Y-56356250D01*
X266906250Y-60256250D02*
X264906250Y-60256250D01*
X231981250Y-54637500D02*
X231981250Y-50737500D01*
X229981250Y-54637500D02*
X229981250Y-50737500D01*
X231981250Y-54637500D02*
X229981250Y-54637500D01*
X228806250Y-54637500D02*
X228806250Y-50737500D01*
X226806250Y-54637500D02*
X226806250Y-50737500D01*
X228806250Y-54637500D02*
X226806250Y-54637500D01*
X193881250Y-56287500D02*
X193881250Y-52387500D01*
X191881250Y-56287500D02*
X191881250Y-52387500D01*
X193881250Y-56287500D02*
X191881250Y-56287500D01*
X190706250Y-56287500D02*
X190706250Y-52387500D01*
X188706250Y-56287500D02*
X188706250Y-52387500D01*
X190706250Y-56287500D02*
X188706250Y-56287500D01*
X97837500Y-113437500D02*
X97837500Y-109537500D01*
X95837500Y-113437500D02*
X95837500Y-109537500D01*
X97837500Y-113437500D02*
X95837500Y-113437500D01*
X94662500Y-113437500D02*
X94662500Y-109537500D01*
X92662500Y-113437500D02*
X92662500Y-109537500D01*
X94662500Y-113437500D02*
X92662500Y-113437500D01*
X77200000Y-113437500D02*
X77200000Y-109537500D01*
X75200000Y-113437500D02*
X75200000Y-109537500D01*
X77200000Y-113437500D02*
X75200000Y-113437500D01*
X105775000Y-94387500D02*
X105775000Y-90487500D01*
X103775000Y-94387500D02*
X103775000Y-90487500D01*
X105775000Y-94387500D02*
X103775000Y-94387500D01*
X102600000Y-94387500D02*
X102600000Y-90487500D01*
X100600000Y-94387500D02*
X100600000Y-90487500D01*
X102600000Y-94387500D02*
X100600000Y-94387500D01*
X67675000Y-92800000D02*
X67675000Y-88900000D01*
X65675000Y-92800000D02*
X65675000Y-88900000D01*
X67675000Y-92800000D02*
X65675000Y-92800000D01*
X64500000Y-92800000D02*
X64500000Y-88900000D01*
X62500000Y-92800000D02*
X62500000Y-88900000D01*
X64500000Y-92800000D02*
X62500000Y-92800000D01*
X29575000Y-98356250D02*
X29575000Y-94456250D01*
X27575000Y-98356250D02*
X27575000Y-94456250D01*
X29575000Y-98356250D02*
X27575000Y-98356250D01*
X26400000Y-98356250D02*
X26400000Y-94456250D01*
X24400000Y-98356250D02*
X24400000Y-94456250D01*
X26400000Y-98356250D02*
X24400000Y-98356250D01*
X105775000Y-75337500D02*
X105775000Y-71437500D01*
X103775000Y-75337500D02*
X103775000Y-71437500D01*
X105775000Y-75337500D02*
X103775000Y-75337500D01*
X102600000Y-75337500D02*
X102600000Y-71437500D01*
X100600000Y-75337500D02*
X100600000Y-71437500D01*
X102600000Y-75337500D02*
X100600000Y-75337500D01*
X67675000Y-73750000D02*
X67675000Y-69850000D01*
X65675000Y-73750000D02*
X65675000Y-69850000D01*
X67675000Y-73750000D02*
X65675000Y-73750000D01*
X64500000Y-73750000D02*
X64500000Y-69850000D01*
X62500000Y-73750000D02*
X62500000Y-69850000D01*
X64500000Y-73750000D02*
X62500000Y-73750000D01*
X29575000Y-79306250D02*
X29575000Y-75406250D01*
X27575000Y-79306250D02*
X27575000Y-75406250D01*
X29575000Y-79306250D02*
X27575000Y-79306250D01*
X26400000Y-79306250D02*
X26400000Y-75406250D01*
X24400000Y-79306250D02*
X24400000Y-75406250D01*
X26400000Y-79306250D02*
X24400000Y-79306250D01*
X105775000Y-56287500D02*
X105775000Y-52387500D01*
X103775000Y-56287500D02*
X103775000Y-52387500D01*
X105775000Y-56287500D02*
X103775000Y-56287500D01*
X102600000Y-56287500D02*
X102600000Y-52387500D01*
X100600000Y-56287500D02*
X100600000Y-52387500D01*
X102600000Y-56287500D02*
X100600000Y-56287500D01*
X67675000Y-54700000D02*
X67675000Y-50800000D01*
X65675000Y-54700000D02*
X65675000Y-50800000D01*
X67675000Y-54700000D02*
X65675000Y-54700000D01*
X64500000Y-54700000D02*
X64500000Y-50800000D01*
X62500000Y-54700000D02*
X62500000Y-50800000D01*
X64500000Y-54700000D02*
X62500000Y-54700000D01*
X29575000Y-60256250D02*
X29575000Y-56356250D01*
X27575000Y-60256250D02*
X27575000Y-56356250D01*
X29575000Y-60256250D02*
X27575000Y-60256250D01*
X26400000Y-60256250D02*
X26400000Y-56356250D01*
X24400000Y-60256250D02*
X24400000Y-56356250D01*
X26400000Y-60256250D02*
X24400000Y-60256250D01*
D10*
X162714130Y-89427380D02*
X162523654Y-89427380D01*
X162428416Y-89475000D01*
X162333178Y-89570238D01*
X162285559Y-89760714D01*
X162285559Y-90094047D01*
X162333178Y-90284523D01*
X162428416Y-90379761D01*
X162523654Y-90427380D01*
X162714130Y-90427380D01*
X162809369Y-90379761D01*
X162904607Y-90284523D01*
X162952226Y-90094047D01*
X162952226Y-89760714D01*
X162904607Y-89570238D01*
X162809369Y-89475000D01*
X162714130Y-89427380D01*
X161380797Y-90427380D02*
X161856988Y-90427380D01*
X161856988Y-89427380D01*
X161047464Y-89903571D02*
X160714130Y-89903571D01*
X160571273Y-90427380D02*
X161047464Y-90427380D01*
X161047464Y-89427380D01*
X160571273Y-89427380D01*
X160142702Y-90427380D02*
X160142702Y-89427380D01*
X159904607Y-89427380D01*
X159761750Y-89475000D01*
X159666511Y-89570238D01*
X159618892Y-89665476D01*
X159571273Y-89855952D01*
X159571273Y-89998809D01*
X159618892Y-90189285D01*
X159666511Y-90284523D01*
X159761750Y-90379761D01*
X159904607Y-90427380D01*
X160142702Y-90427380D01*
X134583630Y-89427380D02*
X134393154Y-89427380D01*
X134297916Y-89475000D01*
X134202678Y-89570238D01*
X134155059Y-89760714D01*
X134155059Y-90094047D01*
X134202678Y-90284523D01*
X134297916Y-90379761D01*
X134393154Y-90427380D01*
X134583630Y-90427380D01*
X134678869Y-90379761D01*
X134774107Y-90284523D01*
X134821726Y-90094047D01*
X134821726Y-89760714D01*
X134774107Y-89570238D01*
X134678869Y-89475000D01*
X134583630Y-89427380D01*
X133250297Y-90427380D02*
X133726488Y-90427380D01*
X133726488Y-89427380D01*
X132916964Y-89903571D02*
X132583630Y-89903571D01*
X132440773Y-90427380D02*
X132916964Y-90427380D01*
X132916964Y-89427380D01*
X132440773Y-89427380D01*
X132012202Y-90427380D02*
X132012202Y-89427380D01*
X131774107Y-89427380D01*
X131631250Y-89475000D01*
X131536011Y-89570238D01*
X131488392Y-89665476D01*
X131440773Y-89855952D01*
X131440773Y-89998809D01*
X131488392Y-90189285D01*
X131536011Y-90284523D01*
X131631250Y-90379761D01*
X131774107Y-90427380D01*
X132012202Y-90427380D01*
X220733630Y-109973214D02*
X219733630Y-109973214D01*
X219733630Y-110211309D01*
X219781250Y-110354166D01*
X219876488Y-110449404D01*
X219971726Y-110497023D01*
X220162202Y-110544642D01*
X220305059Y-110544642D01*
X220495535Y-110497023D01*
X220590773Y-110449404D01*
X220686011Y-110354166D01*
X220733630Y-110211309D01*
X220733630Y-109973214D01*
X220066964Y-111401785D02*
X220733630Y-111401785D01*
X219686011Y-111163690D02*
X220400297Y-110925595D01*
X220400297Y-111544642D01*
X219828869Y-111877976D02*
X219781250Y-111925595D01*
X219733630Y-112020833D01*
X219733630Y-112258928D01*
X219781250Y-112354166D01*
X219828869Y-112401785D01*
X219924107Y-112449404D01*
X220019345Y-112449404D01*
X220162202Y-112401785D01*
X220733630Y-111830357D01*
X220733630Y-112449404D01*
X203271130Y-109910714D02*
X202271130Y-109910714D01*
X202271130Y-110148809D01*
X202318750Y-110291666D01*
X202413988Y-110386904D01*
X202509226Y-110434523D01*
X202699702Y-110482142D01*
X202842559Y-110482142D01*
X203033035Y-110434523D01*
X203128273Y-110386904D01*
X203223511Y-110291666D01*
X203271130Y-110148809D01*
X203271130Y-109910714D01*
X202604464Y-111339285D02*
X203271130Y-111339285D01*
X202223511Y-111101190D02*
X202937797Y-110863095D01*
X202937797Y-111482142D01*
X203271130Y-112386904D02*
X203271130Y-111815476D01*
X203271130Y-112101190D02*
X202271130Y-112101190D01*
X202413988Y-112005952D01*
X202509226Y-111910714D01*
X202556845Y-111815476D01*
X200096130Y-109910714D02*
X199096130Y-109910714D01*
X199096130Y-110148809D01*
X199143750Y-110291666D01*
X199238988Y-110386904D01*
X199334226Y-110434523D01*
X199524702Y-110482142D01*
X199667559Y-110482142D01*
X199858035Y-110434523D01*
X199953273Y-110386904D01*
X200048511Y-110291666D01*
X200096130Y-110148809D01*
X200096130Y-109910714D01*
X199429464Y-111339285D02*
X200096130Y-111339285D01*
X199048511Y-111101190D02*
X199762797Y-110863095D01*
X199762797Y-111482142D01*
X199096130Y-112053571D02*
X199096130Y-112148809D01*
X199143750Y-112244047D01*
X199191369Y-112291666D01*
X199286607Y-112339285D01*
X199477083Y-112386904D01*
X199715178Y-112386904D01*
X199905654Y-112339285D01*
X200000892Y-112291666D01*
X200048511Y-112244047D01*
X200096130Y-112148809D01*
X200096130Y-112053571D01*
X200048511Y-111958333D01*
X200000892Y-111910714D01*
X199905654Y-111863095D01*
X199715178Y-111815476D01*
X199477083Y-111815476D01*
X199286607Y-111863095D01*
X199191369Y-111910714D01*
X199143750Y-111958333D01*
X199096130Y-112053571D01*
X271533630Y-94891964D02*
X270533630Y-94891964D01*
X270533630Y-95130059D01*
X270581250Y-95272916D01*
X270676488Y-95368154D01*
X270771726Y-95415773D01*
X270962202Y-95463392D01*
X271105059Y-95463392D01*
X271295535Y-95415773D01*
X271390773Y-95368154D01*
X271486011Y-95272916D01*
X271533630Y-95130059D01*
X271533630Y-94891964D01*
X270533630Y-95796726D02*
X270533630Y-96415773D01*
X270914583Y-96082440D01*
X270914583Y-96225297D01*
X270962202Y-96320535D01*
X271009821Y-96368154D01*
X271105059Y-96415773D01*
X271343154Y-96415773D01*
X271438392Y-96368154D01*
X271486011Y-96320535D01*
X271533630Y-96225297D01*
X271533630Y-95939583D01*
X271486011Y-95844345D01*
X271438392Y-95796726D01*
X271533630Y-96891964D02*
X271533630Y-97082440D01*
X271486011Y-97177678D01*
X271438392Y-97225297D01*
X271295535Y-97320535D01*
X271105059Y-97368154D01*
X270724107Y-97368154D01*
X270628869Y-97320535D01*
X270581250Y-97272916D01*
X270533630Y-97177678D01*
X270533630Y-96987202D01*
X270581250Y-96891964D01*
X270628869Y-96844345D01*
X270724107Y-96796726D01*
X270962202Y-96796726D01*
X271057440Y-96844345D01*
X271105059Y-96891964D01*
X271152678Y-96987202D01*
X271152678Y-97177678D01*
X271105059Y-97272916D01*
X271057440Y-97320535D01*
X270962202Y-97368154D01*
X268358630Y-94891964D02*
X267358630Y-94891964D01*
X267358630Y-95130059D01*
X267406250Y-95272916D01*
X267501488Y-95368154D01*
X267596726Y-95415773D01*
X267787202Y-95463392D01*
X267930059Y-95463392D01*
X268120535Y-95415773D01*
X268215773Y-95368154D01*
X268311011Y-95272916D01*
X268358630Y-95130059D01*
X268358630Y-94891964D01*
X267358630Y-95796726D02*
X267358630Y-96415773D01*
X267739583Y-96082440D01*
X267739583Y-96225297D01*
X267787202Y-96320535D01*
X267834821Y-96368154D01*
X267930059Y-96415773D01*
X268168154Y-96415773D01*
X268263392Y-96368154D01*
X268311011Y-96320535D01*
X268358630Y-96225297D01*
X268358630Y-95939583D01*
X268311011Y-95844345D01*
X268263392Y-95796726D01*
X267787202Y-96987202D02*
X267739583Y-96891964D01*
X267691964Y-96844345D01*
X267596726Y-96796726D01*
X267549107Y-96796726D01*
X267453869Y-96844345D01*
X267406250Y-96891964D01*
X267358630Y-96987202D01*
X267358630Y-97177678D01*
X267406250Y-97272916D01*
X267453869Y-97320535D01*
X267549107Y-97368154D01*
X267596726Y-97368154D01*
X267691964Y-97320535D01*
X267739583Y-97272916D01*
X267787202Y-97177678D01*
X267787202Y-96987202D01*
X267834821Y-96891964D01*
X267882440Y-96844345D01*
X267977678Y-96796726D01*
X268168154Y-96796726D01*
X268263392Y-96844345D01*
X268311011Y-96891964D01*
X268358630Y-96987202D01*
X268358630Y-97177678D01*
X268311011Y-97272916D01*
X268263392Y-97320535D01*
X268168154Y-97368154D01*
X267977678Y-97368154D01*
X267882440Y-97320535D01*
X267834821Y-97272916D01*
X267787202Y-97177678D01*
X233433630Y-89335714D02*
X232433630Y-89335714D01*
X232433630Y-89573809D01*
X232481250Y-89716666D01*
X232576488Y-89811904D01*
X232671726Y-89859523D01*
X232862202Y-89907142D01*
X233005059Y-89907142D01*
X233195535Y-89859523D01*
X233290773Y-89811904D01*
X233386011Y-89716666D01*
X233433630Y-89573809D01*
X233433630Y-89335714D01*
X232433630Y-90240476D02*
X232433630Y-90859523D01*
X232814583Y-90526190D01*
X232814583Y-90669047D01*
X232862202Y-90764285D01*
X232909821Y-90811904D01*
X233005059Y-90859523D01*
X233243154Y-90859523D01*
X233338392Y-90811904D01*
X233386011Y-90764285D01*
X233433630Y-90669047D01*
X233433630Y-90383333D01*
X233386011Y-90288095D01*
X233338392Y-90240476D01*
X232433630Y-91192857D02*
X232433630Y-91859523D01*
X233433630Y-91430952D01*
X230258630Y-89335714D02*
X229258630Y-89335714D01*
X229258630Y-89573809D01*
X229306250Y-89716666D01*
X229401488Y-89811904D01*
X229496726Y-89859523D01*
X229687202Y-89907142D01*
X229830059Y-89907142D01*
X230020535Y-89859523D01*
X230115773Y-89811904D01*
X230211011Y-89716666D01*
X230258630Y-89573809D01*
X230258630Y-89335714D01*
X229258630Y-90240476D02*
X229258630Y-90859523D01*
X229639583Y-90526190D01*
X229639583Y-90669047D01*
X229687202Y-90764285D01*
X229734821Y-90811904D01*
X229830059Y-90859523D01*
X230068154Y-90859523D01*
X230163392Y-90811904D01*
X230211011Y-90764285D01*
X230258630Y-90669047D01*
X230258630Y-90383333D01*
X230211011Y-90288095D01*
X230163392Y-90240476D01*
X229258630Y-91716666D02*
X229258630Y-91526190D01*
X229306250Y-91430952D01*
X229353869Y-91383333D01*
X229496726Y-91288095D01*
X229687202Y-91240476D01*
X230068154Y-91240476D01*
X230163392Y-91288095D01*
X230211011Y-91335714D01*
X230258630Y-91430952D01*
X230258630Y-91621428D01*
X230211011Y-91716666D01*
X230163392Y-91764285D01*
X230068154Y-91811904D01*
X229830059Y-91811904D01*
X229734821Y-91764285D01*
X229687202Y-91716666D01*
X229639583Y-91621428D01*
X229639583Y-91430952D01*
X229687202Y-91335714D01*
X229734821Y-91288095D01*
X229830059Y-91240476D01*
X195333630Y-90923214D02*
X194333630Y-90923214D01*
X194333630Y-91161309D01*
X194381250Y-91304166D01*
X194476488Y-91399404D01*
X194571726Y-91447023D01*
X194762202Y-91494642D01*
X194905059Y-91494642D01*
X195095535Y-91447023D01*
X195190773Y-91399404D01*
X195286011Y-91304166D01*
X195333630Y-91161309D01*
X195333630Y-90923214D01*
X194333630Y-91827976D02*
X194333630Y-92447023D01*
X194714583Y-92113690D01*
X194714583Y-92256547D01*
X194762202Y-92351785D01*
X194809821Y-92399404D01*
X194905059Y-92447023D01*
X195143154Y-92447023D01*
X195238392Y-92399404D01*
X195286011Y-92351785D01*
X195333630Y-92256547D01*
X195333630Y-91970833D01*
X195286011Y-91875595D01*
X195238392Y-91827976D01*
X194333630Y-93351785D02*
X194333630Y-92875595D01*
X194809821Y-92827976D01*
X194762202Y-92875595D01*
X194714583Y-92970833D01*
X194714583Y-93208928D01*
X194762202Y-93304166D01*
X194809821Y-93351785D01*
X194905059Y-93399404D01*
X195143154Y-93399404D01*
X195238392Y-93351785D01*
X195286011Y-93304166D01*
X195333630Y-93208928D01*
X195333630Y-92970833D01*
X195286011Y-92875595D01*
X195238392Y-92827976D01*
X192158630Y-90860714D02*
X191158630Y-90860714D01*
X191158630Y-91098809D01*
X191206250Y-91241666D01*
X191301488Y-91336904D01*
X191396726Y-91384523D01*
X191587202Y-91432142D01*
X191730059Y-91432142D01*
X191920535Y-91384523D01*
X192015773Y-91336904D01*
X192111011Y-91241666D01*
X192158630Y-91098809D01*
X192158630Y-90860714D01*
X191158630Y-91765476D02*
X191158630Y-92384523D01*
X191539583Y-92051190D01*
X191539583Y-92194047D01*
X191587202Y-92289285D01*
X191634821Y-92336904D01*
X191730059Y-92384523D01*
X191968154Y-92384523D01*
X192063392Y-92336904D01*
X192111011Y-92289285D01*
X192158630Y-92194047D01*
X192158630Y-91908333D01*
X192111011Y-91813095D01*
X192063392Y-91765476D01*
X191491964Y-93241666D02*
X192158630Y-93241666D01*
X191111011Y-93003571D02*
X191825297Y-92765476D01*
X191825297Y-93384523D01*
X271533630Y-75841964D02*
X270533630Y-75841964D01*
X270533630Y-76080059D01*
X270581250Y-76222916D01*
X270676488Y-76318154D01*
X270771726Y-76365773D01*
X270962202Y-76413392D01*
X271105059Y-76413392D01*
X271295535Y-76365773D01*
X271390773Y-76318154D01*
X271486011Y-76222916D01*
X271533630Y-76080059D01*
X271533630Y-75841964D01*
X270533630Y-76746726D02*
X270533630Y-77365773D01*
X270914583Y-77032440D01*
X270914583Y-77175297D01*
X270962202Y-77270535D01*
X271009821Y-77318154D01*
X271105059Y-77365773D01*
X271343154Y-77365773D01*
X271438392Y-77318154D01*
X271486011Y-77270535D01*
X271533630Y-77175297D01*
X271533630Y-76889583D01*
X271486011Y-76794345D01*
X271438392Y-76746726D01*
X270533630Y-77699107D02*
X270533630Y-78318154D01*
X270914583Y-77984821D01*
X270914583Y-78127678D01*
X270962202Y-78222916D01*
X271009821Y-78270535D01*
X271105059Y-78318154D01*
X271343154Y-78318154D01*
X271438392Y-78270535D01*
X271486011Y-78222916D01*
X271533630Y-78127678D01*
X271533630Y-77841964D01*
X271486011Y-77746726D01*
X271438392Y-77699107D01*
X268358630Y-75841964D02*
X267358630Y-75841964D01*
X267358630Y-76080059D01*
X267406250Y-76222916D01*
X267501488Y-76318154D01*
X267596726Y-76365773D01*
X267787202Y-76413392D01*
X267930059Y-76413392D01*
X268120535Y-76365773D01*
X268215773Y-76318154D01*
X268311011Y-76222916D01*
X268358630Y-76080059D01*
X268358630Y-75841964D01*
X267358630Y-76746726D02*
X267358630Y-77365773D01*
X267739583Y-77032440D01*
X267739583Y-77175297D01*
X267787202Y-77270535D01*
X267834821Y-77318154D01*
X267930059Y-77365773D01*
X268168154Y-77365773D01*
X268263392Y-77318154D01*
X268311011Y-77270535D01*
X268358630Y-77175297D01*
X268358630Y-76889583D01*
X268311011Y-76794345D01*
X268263392Y-76746726D01*
X267453869Y-77746726D02*
X267406250Y-77794345D01*
X267358630Y-77889583D01*
X267358630Y-78127678D01*
X267406250Y-78222916D01*
X267453869Y-78270535D01*
X267549107Y-78318154D01*
X267644345Y-78318154D01*
X267787202Y-78270535D01*
X268358630Y-77699107D01*
X268358630Y-78318154D01*
X233433630Y-70285714D02*
X232433630Y-70285714D01*
X232433630Y-70523809D01*
X232481250Y-70666666D01*
X232576488Y-70761904D01*
X232671726Y-70809523D01*
X232862202Y-70857142D01*
X233005059Y-70857142D01*
X233195535Y-70809523D01*
X233290773Y-70761904D01*
X233386011Y-70666666D01*
X233433630Y-70523809D01*
X233433630Y-70285714D01*
X232433630Y-71190476D02*
X232433630Y-71809523D01*
X232814583Y-71476190D01*
X232814583Y-71619047D01*
X232862202Y-71714285D01*
X232909821Y-71761904D01*
X233005059Y-71809523D01*
X233243154Y-71809523D01*
X233338392Y-71761904D01*
X233386011Y-71714285D01*
X233433630Y-71619047D01*
X233433630Y-71333333D01*
X233386011Y-71238095D01*
X233338392Y-71190476D01*
X233433630Y-72761904D02*
X233433630Y-72190476D01*
X233433630Y-72476190D02*
X232433630Y-72476190D01*
X232576488Y-72380952D01*
X232671726Y-72285714D01*
X232719345Y-72190476D01*
X230258630Y-70285714D02*
X229258630Y-70285714D01*
X229258630Y-70523809D01*
X229306250Y-70666666D01*
X229401488Y-70761904D01*
X229496726Y-70809523D01*
X229687202Y-70857142D01*
X229830059Y-70857142D01*
X230020535Y-70809523D01*
X230115773Y-70761904D01*
X230211011Y-70666666D01*
X230258630Y-70523809D01*
X230258630Y-70285714D01*
X229258630Y-71190476D02*
X229258630Y-71809523D01*
X229639583Y-71476190D01*
X229639583Y-71619047D01*
X229687202Y-71714285D01*
X229734821Y-71761904D01*
X229830059Y-71809523D01*
X230068154Y-71809523D01*
X230163392Y-71761904D01*
X230211011Y-71714285D01*
X230258630Y-71619047D01*
X230258630Y-71333333D01*
X230211011Y-71238095D01*
X230163392Y-71190476D01*
X229258630Y-72428571D02*
X229258630Y-72523809D01*
X229306250Y-72619047D01*
X229353869Y-72666666D01*
X229449107Y-72714285D01*
X229639583Y-72761904D01*
X229877678Y-72761904D01*
X230068154Y-72714285D01*
X230163392Y-72666666D01*
X230211011Y-72619047D01*
X230258630Y-72523809D01*
X230258630Y-72428571D01*
X230211011Y-72333333D01*
X230163392Y-72285714D01*
X230068154Y-72238095D01*
X229877678Y-72190476D01*
X229639583Y-72190476D01*
X229449107Y-72238095D01*
X229353869Y-72285714D01*
X229306250Y-72333333D01*
X229258630Y-72428571D01*
X195333630Y-71873214D02*
X194333630Y-71873214D01*
X194333630Y-72111309D01*
X194381250Y-72254166D01*
X194476488Y-72349404D01*
X194571726Y-72397023D01*
X194762202Y-72444642D01*
X194905059Y-72444642D01*
X195095535Y-72397023D01*
X195190773Y-72349404D01*
X195286011Y-72254166D01*
X195333630Y-72111309D01*
X195333630Y-71873214D01*
X194428869Y-72825595D02*
X194381250Y-72873214D01*
X194333630Y-72968452D01*
X194333630Y-73206547D01*
X194381250Y-73301785D01*
X194428869Y-73349404D01*
X194524107Y-73397023D01*
X194619345Y-73397023D01*
X194762202Y-73349404D01*
X195333630Y-72777976D01*
X195333630Y-73397023D01*
X195333630Y-73873214D02*
X195333630Y-74063690D01*
X195286011Y-74158928D01*
X195238392Y-74206547D01*
X195095535Y-74301785D01*
X194905059Y-74349404D01*
X194524107Y-74349404D01*
X194428869Y-74301785D01*
X194381250Y-74254166D01*
X194333630Y-74158928D01*
X194333630Y-73968452D01*
X194381250Y-73873214D01*
X194428869Y-73825595D01*
X194524107Y-73777976D01*
X194762202Y-73777976D01*
X194857440Y-73825595D01*
X194905059Y-73873214D01*
X194952678Y-73968452D01*
X194952678Y-74158928D01*
X194905059Y-74254166D01*
X194857440Y-74301785D01*
X194762202Y-74349404D01*
X192158630Y-71873214D02*
X191158630Y-71873214D01*
X191158630Y-72111309D01*
X191206250Y-72254166D01*
X191301488Y-72349404D01*
X191396726Y-72397023D01*
X191587202Y-72444642D01*
X191730059Y-72444642D01*
X191920535Y-72397023D01*
X192015773Y-72349404D01*
X192111011Y-72254166D01*
X192158630Y-72111309D01*
X192158630Y-71873214D01*
X191253869Y-72825595D02*
X191206250Y-72873214D01*
X191158630Y-72968452D01*
X191158630Y-73206547D01*
X191206250Y-73301785D01*
X191253869Y-73349404D01*
X191349107Y-73397023D01*
X191444345Y-73397023D01*
X191587202Y-73349404D01*
X192158630Y-72777976D01*
X192158630Y-73397023D01*
X191587202Y-73968452D02*
X191539583Y-73873214D01*
X191491964Y-73825595D01*
X191396726Y-73777976D01*
X191349107Y-73777976D01*
X191253869Y-73825595D01*
X191206250Y-73873214D01*
X191158630Y-73968452D01*
X191158630Y-74158928D01*
X191206250Y-74254166D01*
X191253869Y-74301785D01*
X191349107Y-74349404D01*
X191396726Y-74349404D01*
X191491964Y-74301785D01*
X191539583Y-74254166D01*
X191587202Y-74158928D01*
X191587202Y-73968452D01*
X191634821Y-73873214D01*
X191682440Y-73825595D01*
X191777678Y-73777976D01*
X191968154Y-73777976D01*
X192063392Y-73825595D01*
X192111011Y-73873214D01*
X192158630Y-73968452D01*
X192158630Y-74158928D01*
X192111011Y-74254166D01*
X192063392Y-74301785D01*
X191968154Y-74349404D01*
X191777678Y-74349404D01*
X191682440Y-74301785D01*
X191634821Y-74254166D01*
X191587202Y-74158928D01*
X271533630Y-56791964D02*
X270533630Y-56791964D01*
X270533630Y-57030059D01*
X270581250Y-57172916D01*
X270676488Y-57268154D01*
X270771726Y-57315773D01*
X270962202Y-57363392D01*
X271105059Y-57363392D01*
X271295535Y-57315773D01*
X271390773Y-57268154D01*
X271486011Y-57172916D01*
X271533630Y-57030059D01*
X271533630Y-56791964D01*
X270628869Y-57744345D02*
X270581250Y-57791964D01*
X270533630Y-57887202D01*
X270533630Y-58125297D01*
X270581250Y-58220535D01*
X270628869Y-58268154D01*
X270724107Y-58315773D01*
X270819345Y-58315773D01*
X270962202Y-58268154D01*
X271533630Y-57696726D01*
X271533630Y-58315773D01*
X270533630Y-58649107D02*
X270533630Y-59315773D01*
X271533630Y-58887202D01*
X268358630Y-56791964D02*
X267358630Y-56791964D01*
X267358630Y-57030059D01*
X267406250Y-57172916D01*
X267501488Y-57268154D01*
X267596726Y-57315773D01*
X267787202Y-57363392D01*
X267930059Y-57363392D01*
X268120535Y-57315773D01*
X268215773Y-57268154D01*
X268311011Y-57172916D01*
X268358630Y-57030059D01*
X268358630Y-56791964D01*
X267453869Y-57744345D02*
X267406250Y-57791964D01*
X267358630Y-57887202D01*
X267358630Y-58125297D01*
X267406250Y-58220535D01*
X267453869Y-58268154D01*
X267549107Y-58315773D01*
X267644345Y-58315773D01*
X267787202Y-58268154D01*
X268358630Y-57696726D01*
X268358630Y-58315773D01*
X267358630Y-59172916D02*
X267358630Y-58982440D01*
X267406250Y-58887202D01*
X267453869Y-58839583D01*
X267596726Y-58744345D01*
X267787202Y-58696726D01*
X268168154Y-58696726D01*
X268263392Y-58744345D01*
X268311011Y-58791964D01*
X268358630Y-58887202D01*
X268358630Y-59077678D01*
X268311011Y-59172916D01*
X268263392Y-59220535D01*
X268168154Y-59268154D01*
X267930059Y-59268154D01*
X267834821Y-59220535D01*
X267787202Y-59172916D01*
X267739583Y-59077678D01*
X267739583Y-58887202D01*
X267787202Y-58791964D01*
X267834821Y-58744345D01*
X267930059Y-58696726D01*
X233433630Y-51173214D02*
X232433630Y-51173214D01*
X232433630Y-51411309D01*
X232481250Y-51554166D01*
X232576488Y-51649404D01*
X232671726Y-51697023D01*
X232862202Y-51744642D01*
X233005059Y-51744642D01*
X233195535Y-51697023D01*
X233290773Y-51649404D01*
X233386011Y-51554166D01*
X233433630Y-51411309D01*
X233433630Y-51173214D01*
X232528869Y-52125595D02*
X232481250Y-52173214D01*
X232433630Y-52268452D01*
X232433630Y-52506547D01*
X232481250Y-52601785D01*
X232528869Y-52649404D01*
X232624107Y-52697023D01*
X232719345Y-52697023D01*
X232862202Y-52649404D01*
X233433630Y-52077976D01*
X233433630Y-52697023D01*
X232433630Y-53601785D02*
X232433630Y-53125595D01*
X232909821Y-53077976D01*
X232862202Y-53125595D01*
X232814583Y-53220833D01*
X232814583Y-53458928D01*
X232862202Y-53554166D01*
X232909821Y-53601785D01*
X233005059Y-53649404D01*
X233243154Y-53649404D01*
X233338392Y-53601785D01*
X233386011Y-53554166D01*
X233433630Y-53458928D01*
X233433630Y-53220833D01*
X233386011Y-53125595D01*
X233338392Y-53077976D01*
X230258630Y-51173214D02*
X229258630Y-51173214D01*
X229258630Y-51411309D01*
X229306250Y-51554166D01*
X229401488Y-51649404D01*
X229496726Y-51697023D01*
X229687202Y-51744642D01*
X229830059Y-51744642D01*
X230020535Y-51697023D01*
X230115773Y-51649404D01*
X230211011Y-51554166D01*
X230258630Y-51411309D01*
X230258630Y-51173214D01*
X229353869Y-52125595D02*
X229306250Y-52173214D01*
X229258630Y-52268452D01*
X229258630Y-52506547D01*
X229306250Y-52601785D01*
X229353869Y-52649404D01*
X229449107Y-52697023D01*
X229544345Y-52697023D01*
X229687202Y-52649404D01*
X230258630Y-52077976D01*
X230258630Y-52697023D01*
X229591964Y-53554166D02*
X230258630Y-53554166D01*
X229211011Y-53316071D02*
X229925297Y-53077976D01*
X229925297Y-53697023D01*
X195333630Y-52823214D02*
X194333630Y-52823214D01*
X194333630Y-53061309D01*
X194381250Y-53204166D01*
X194476488Y-53299404D01*
X194571726Y-53347023D01*
X194762202Y-53394642D01*
X194905059Y-53394642D01*
X195095535Y-53347023D01*
X195190773Y-53299404D01*
X195286011Y-53204166D01*
X195333630Y-53061309D01*
X195333630Y-52823214D01*
X194428869Y-53775595D02*
X194381250Y-53823214D01*
X194333630Y-53918452D01*
X194333630Y-54156547D01*
X194381250Y-54251785D01*
X194428869Y-54299404D01*
X194524107Y-54347023D01*
X194619345Y-54347023D01*
X194762202Y-54299404D01*
X195333630Y-53727976D01*
X195333630Y-54347023D01*
X194333630Y-54680357D02*
X194333630Y-55299404D01*
X194714583Y-54966071D01*
X194714583Y-55108928D01*
X194762202Y-55204166D01*
X194809821Y-55251785D01*
X194905059Y-55299404D01*
X195143154Y-55299404D01*
X195238392Y-55251785D01*
X195286011Y-55204166D01*
X195333630Y-55108928D01*
X195333630Y-54823214D01*
X195286011Y-54727976D01*
X195238392Y-54680357D01*
X192158630Y-52823214D02*
X191158630Y-52823214D01*
X191158630Y-53061309D01*
X191206250Y-53204166D01*
X191301488Y-53299404D01*
X191396726Y-53347023D01*
X191587202Y-53394642D01*
X191730059Y-53394642D01*
X191920535Y-53347023D01*
X192015773Y-53299404D01*
X192111011Y-53204166D01*
X192158630Y-53061309D01*
X192158630Y-52823214D01*
X191253869Y-53775595D02*
X191206250Y-53823214D01*
X191158630Y-53918452D01*
X191158630Y-54156547D01*
X191206250Y-54251785D01*
X191253869Y-54299404D01*
X191349107Y-54347023D01*
X191444345Y-54347023D01*
X191587202Y-54299404D01*
X192158630Y-53727976D01*
X192158630Y-54347023D01*
X191253869Y-54727976D02*
X191206250Y-54775595D01*
X191158630Y-54870833D01*
X191158630Y-55108928D01*
X191206250Y-55204166D01*
X191253869Y-55251785D01*
X191349107Y-55299404D01*
X191444345Y-55299404D01*
X191587202Y-55251785D01*
X192158630Y-54680357D01*
X192158630Y-55299404D01*
X99289880Y-109973214D02*
X98289880Y-109973214D01*
X98289880Y-110211309D01*
X98337500Y-110354166D01*
X98432738Y-110449404D01*
X98527976Y-110497023D01*
X98718452Y-110544642D01*
X98861309Y-110544642D01*
X99051785Y-110497023D01*
X99147023Y-110449404D01*
X99242261Y-110354166D01*
X99289880Y-110211309D01*
X99289880Y-109973214D01*
X98385119Y-110925595D02*
X98337500Y-110973214D01*
X98289880Y-111068452D01*
X98289880Y-111306547D01*
X98337500Y-111401785D01*
X98385119Y-111449404D01*
X98480357Y-111497023D01*
X98575595Y-111497023D01*
X98718452Y-111449404D01*
X99289880Y-110877976D01*
X99289880Y-111497023D01*
X99289880Y-112449404D02*
X99289880Y-111877976D01*
X99289880Y-112163690D02*
X98289880Y-112163690D01*
X98432738Y-112068452D01*
X98527976Y-111973214D01*
X98575595Y-111877976D01*
X96114880Y-109973214D02*
X95114880Y-109973214D01*
X95114880Y-110211309D01*
X95162500Y-110354166D01*
X95257738Y-110449404D01*
X95352976Y-110497023D01*
X95543452Y-110544642D01*
X95686309Y-110544642D01*
X95876785Y-110497023D01*
X95972023Y-110449404D01*
X96067261Y-110354166D01*
X96114880Y-110211309D01*
X96114880Y-109973214D01*
X95210119Y-110925595D02*
X95162500Y-110973214D01*
X95114880Y-111068452D01*
X95114880Y-111306547D01*
X95162500Y-111401785D01*
X95210119Y-111449404D01*
X95305357Y-111497023D01*
X95400595Y-111497023D01*
X95543452Y-111449404D01*
X96114880Y-110877976D01*
X96114880Y-111497023D01*
X95114880Y-112116071D02*
X95114880Y-112211309D01*
X95162500Y-112306547D01*
X95210119Y-112354166D01*
X95305357Y-112401785D01*
X95495833Y-112449404D01*
X95733928Y-112449404D01*
X95924404Y-112401785D01*
X96019642Y-112354166D01*
X96067261Y-112306547D01*
X96114880Y-112211309D01*
X96114880Y-112116071D01*
X96067261Y-112020833D01*
X96019642Y-111973214D01*
X95924404Y-111925595D01*
X95733928Y-111877976D01*
X95495833Y-111877976D01*
X95305357Y-111925595D01*
X95210119Y-111973214D01*
X95162500Y-112020833D01*
X95114880Y-112116071D01*
X78652380Y-109973214D02*
X77652380Y-109973214D01*
X77652380Y-110211309D01*
X77700000Y-110354166D01*
X77795238Y-110449404D01*
X77890476Y-110497023D01*
X78080952Y-110544642D01*
X78223809Y-110544642D01*
X78414285Y-110497023D01*
X78509523Y-110449404D01*
X78604761Y-110354166D01*
X78652380Y-110211309D01*
X78652380Y-109973214D01*
X78652380Y-111497023D02*
X78652380Y-110925595D01*
X78652380Y-111211309D02*
X77652380Y-111211309D01*
X77795238Y-111116071D01*
X77890476Y-111020833D01*
X77938095Y-110925595D01*
X78652380Y-111973214D02*
X78652380Y-112163690D01*
X78604761Y-112258928D01*
X78557142Y-112306547D01*
X78414285Y-112401785D01*
X78223809Y-112449404D01*
X77842857Y-112449404D01*
X77747619Y-112401785D01*
X77700000Y-112354166D01*
X77652380Y-112258928D01*
X77652380Y-112068452D01*
X77700000Y-111973214D01*
X77747619Y-111925595D01*
X77842857Y-111877976D01*
X78080952Y-111877976D01*
X78176190Y-111925595D01*
X78223809Y-111973214D01*
X78271428Y-112068452D01*
X78271428Y-112258928D01*
X78223809Y-112354166D01*
X78176190Y-112401785D01*
X78080952Y-112449404D01*
X107227380Y-90923214D02*
X106227380Y-90923214D01*
X106227380Y-91161309D01*
X106275000Y-91304166D01*
X106370238Y-91399404D01*
X106465476Y-91447023D01*
X106655952Y-91494642D01*
X106798809Y-91494642D01*
X106989285Y-91447023D01*
X107084523Y-91399404D01*
X107179761Y-91304166D01*
X107227380Y-91161309D01*
X107227380Y-90923214D01*
X107227380Y-92447023D02*
X107227380Y-91875595D01*
X107227380Y-92161309D02*
X106227380Y-92161309D01*
X106370238Y-92066071D01*
X106465476Y-91970833D01*
X106513095Y-91875595D01*
X106655952Y-93018452D02*
X106608333Y-92923214D01*
X106560714Y-92875595D01*
X106465476Y-92827976D01*
X106417857Y-92827976D01*
X106322619Y-92875595D01*
X106275000Y-92923214D01*
X106227380Y-93018452D01*
X106227380Y-93208928D01*
X106275000Y-93304166D01*
X106322619Y-93351785D01*
X106417857Y-93399404D01*
X106465476Y-93399404D01*
X106560714Y-93351785D01*
X106608333Y-93304166D01*
X106655952Y-93208928D01*
X106655952Y-93018452D01*
X106703571Y-92923214D01*
X106751190Y-92875595D01*
X106846428Y-92827976D01*
X107036904Y-92827976D01*
X107132142Y-92875595D01*
X107179761Y-92923214D01*
X107227380Y-93018452D01*
X107227380Y-93208928D01*
X107179761Y-93304166D01*
X107132142Y-93351785D01*
X107036904Y-93399404D01*
X106846428Y-93399404D01*
X106751190Y-93351785D01*
X106703571Y-93304166D01*
X106655952Y-93208928D01*
X104052380Y-90923214D02*
X103052380Y-90923214D01*
X103052380Y-91161309D01*
X103100000Y-91304166D01*
X103195238Y-91399404D01*
X103290476Y-91447023D01*
X103480952Y-91494642D01*
X103623809Y-91494642D01*
X103814285Y-91447023D01*
X103909523Y-91399404D01*
X104004761Y-91304166D01*
X104052380Y-91161309D01*
X104052380Y-90923214D01*
X104052380Y-92447023D02*
X104052380Y-91875595D01*
X104052380Y-92161309D02*
X103052380Y-92161309D01*
X103195238Y-92066071D01*
X103290476Y-91970833D01*
X103338095Y-91875595D01*
X103052380Y-92780357D02*
X103052380Y-93447023D01*
X104052380Y-93018452D01*
X69127380Y-89335714D02*
X68127380Y-89335714D01*
X68127380Y-89573809D01*
X68175000Y-89716666D01*
X68270238Y-89811904D01*
X68365476Y-89859523D01*
X68555952Y-89907142D01*
X68698809Y-89907142D01*
X68889285Y-89859523D01*
X68984523Y-89811904D01*
X69079761Y-89716666D01*
X69127380Y-89573809D01*
X69127380Y-89335714D01*
X69127380Y-90859523D02*
X69127380Y-90288095D01*
X69127380Y-90573809D02*
X68127380Y-90573809D01*
X68270238Y-90478571D01*
X68365476Y-90383333D01*
X68413095Y-90288095D01*
X68127380Y-91716666D02*
X68127380Y-91526190D01*
X68175000Y-91430952D01*
X68222619Y-91383333D01*
X68365476Y-91288095D01*
X68555952Y-91240476D01*
X68936904Y-91240476D01*
X69032142Y-91288095D01*
X69079761Y-91335714D01*
X69127380Y-91430952D01*
X69127380Y-91621428D01*
X69079761Y-91716666D01*
X69032142Y-91764285D01*
X68936904Y-91811904D01*
X68698809Y-91811904D01*
X68603571Y-91764285D01*
X68555952Y-91716666D01*
X68508333Y-91621428D01*
X68508333Y-91430952D01*
X68555952Y-91335714D01*
X68603571Y-91288095D01*
X68698809Y-91240476D01*
X65952380Y-89335714D02*
X64952380Y-89335714D01*
X64952380Y-89573809D01*
X65000000Y-89716666D01*
X65095238Y-89811904D01*
X65190476Y-89859523D01*
X65380952Y-89907142D01*
X65523809Y-89907142D01*
X65714285Y-89859523D01*
X65809523Y-89811904D01*
X65904761Y-89716666D01*
X65952380Y-89573809D01*
X65952380Y-89335714D01*
X65952380Y-90859523D02*
X65952380Y-90288095D01*
X65952380Y-90573809D02*
X64952380Y-90573809D01*
X65095238Y-90478571D01*
X65190476Y-90383333D01*
X65238095Y-90288095D01*
X64952380Y-91764285D02*
X64952380Y-91288095D01*
X65428571Y-91240476D01*
X65380952Y-91288095D01*
X65333333Y-91383333D01*
X65333333Y-91621428D01*
X65380952Y-91716666D01*
X65428571Y-91764285D01*
X65523809Y-91811904D01*
X65761904Y-91811904D01*
X65857142Y-91764285D01*
X65904761Y-91716666D01*
X65952380Y-91621428D01*
X65952380Y-91383333D01*
X65904761Y-91288095D01*
X65857142Y-91240476D01*
X31027380Y-94891964D02*
X30027380Y-94891964D01*
X30027380Y-95130059D01*
X30075000Y-95272916D01*
X30170238Y-95368154D01*
X30265476Y-95415773D01*
X30455952Y-95463392D01*
X30598809Y-95463392D01*
X30789285Y-95415773D01*
X30884523Y-95368154D01*
X30979761Y-95272916D01*
X31027380Y-95130059D01*
X31027380Y-94891964D01*
X31027380Y-96415773D02*
X31027380Y-95844345D01*
X31027380Y-96130059D02*
X30027380Y-96130059D01*
X30170238Y-96034821D01*
X30265476Y-95939583D01*
X30313095Y-95844345D01*
X30360714Y-97272916D02*
X31027380Y-97272916D01*
X29979761Y-97034821D02*
X30694047Y-96796726D01*
X30694047Y-97415773D01*
X27852380Y-94891964D02*
X26852380Y-94891964D01*
X26852380Y-95130059D01*
X26900000Y-95272916D01*
X26995238Y-95368154D01*
X27090476Y-95415773D01*
X27280952Y-95463392D01*
X27423809Y-95463392D01*
X27614285Y-95415773D01*
X27709523Y-95368154D01*
X27804761Y-95272916D01*
X27852380Y-95130059D01*
X27852380Y-94891964D01*
X27852380Y-96415773D02*
X27852380Y-95844345D01*
X27852380Y-96130059D02*
X26852380Y-96130059D01*
X26995238Y-96034821D01*
X27090476Y-95939583D01*
X27138095Y-95844345D01*
X26852380Y-96749107D02*
X26852380Y-97368154D01*
X27233333Y-97034821D01*
X27233333Y-97177678D01*
X27280952Y-97272916D01*
X27328571Y-97320535D01*
X27423809Y-97368154D01*
X27661904Y-97368154D01*
X27757142Y-97320535D01*
X27804761Y-97272916D01*
X27852380Y-97177678D01*
X27852380Y-96891964D01*
X27804761Y-96796726D01*
X27757142Y-96749107D01*
X107227380Y-71873214D02*
X106227380Y-71873214D01*
X106227380Y-72111309D01*
X106275000Y-72254166D01*
X106370238Y-72349404D01*
X106465476Y-72397023D01*
X106655952Y-72444642D01*
X106798809Y-72444642D01*
X106989285Y-72397023D01*
X107084523Y-72349404D01*
X107179761Y-72254166D01*
X107227380Y-72111309D01*
X107227380Y-71873214D01*
X107227380Y-73397023D02*
X107227380Y-72825595D01*
X107227380Y-73111309D02*
X106227380Y-73111309D01*
X106370238Y-73016071D01*
X106465476Y-72920833D01*
X106513095Y-72825595D01*
X106322619Y-73777976D02*
X106275000Y-73825595D01*
X106227380Y-73920833D01*
X106227380Y-74158928D01*
X106275000Y-74254166D01*
X106322619Y-74301785D01*
X106417857Y-74349404D01*
X106513095Y-74349404D01*
X106655952Y-74301785D01*
X107227380Y-73730357D01*
X107227380Y-74349404D01*
X104052380Y-71873214D02*
X103052380Y-71873214D01*
X103052380Y-72111309D01*
X103100000Y-72254166D01*
X103195238Y-72349404D01*
X103290476Y-72397023D01*
X103480952Y-72444642D01*
X103623809Y-72444642D01*
X103814285Y-72397023D01*
X103909523Y-72349404D01*
X104004761Y-72254166D01*
X104052380Y-72111309D01*
X104052380Y-71873214D01*
X104052380Y-73397023D02*
X104052380Y-72825595D01*
X104052380Y-73111309D02*
X103052380Y-73111309D01*
X103195238Y-73016071D01*
X103290476Y-72920833D01*
X103338095Y-72825595D01*
X104052380Y-74349404D02*
X104052380Y-73777976D01*
X104052380Y-74063690D02*
X103052380Y-74063690D01*
X103195238Y-73968452D01*
X103290476Y-73873214D01*
X103338095Y-73777976D01*
X69127380Y-70285714D02*
X68127380Y-70285714D01*
X68127380Y-70523809D01*
X68175000Y-70666666D01*
X68270238Y-70761904D01*
X68365476Y-70809523D01*
X68555952Y-70857142D01*
X68698809Y-70857142D01*
X68889285Y-70809523D01*
X68984523Y-70761904D01*
X69079761Y-70666666D01*
X69127380Y-70523809D01*
X69127380Y-70285714D01*
X69127380Y-71809523D02*
X69127380Y-71238095D01*
X69127380Y-71523809D02*
X68127380Y-71523809D01*
X68270238Y-71428571D01*
X68365476Y-71333333D01*
X68413095Y-71238095D01*
X68127380Y-72428571D02*
X68127380Y-72523809D01*
X68175000Y-72619047D01*
X68222619Y-72666666D01*
X68317857Y-72714285D01*
X68508333Y-72761904D01*
X68746428Y-72761904D01*
X68936904Y-72714285D01*
X69032142Y-72666666D01*
X69079761Y-72619047D01*
X69127380Y-72523809D01*
X69127380Y-72428571D01*
X69079761Y-72333333D01*
X69032142Y-72285714D01*
X68936904Y-72238095D01*
X68746428Y-72190476D01*
X68508333Y-72190476D01*
X68317857Y-72238095D01*
X68222619Y-72285714D01*
X68175000Y-72333333D01*
X68127380Y-72428571D01*
X65952380Y-70761904D02*
X64952380Y-70761904D01*
X64952380Y-71000000D01*
X65000000Y-71142857D01*
X65095238Y-71238095D01*
X65190476Y-71285714D01*
X65380952Y-71333333D01*
X65523809Y-71333333D01*
X65714285Y-71285714D01*
X65809523Y-71238095D01*
X65904761Y-71142857D01*
X65952380Y-71000000D01*
X65952380Y-70761904D01*
X65952380Y-71809523D02*
X65952380Y-72000000D01*
X65904761Y-72095238D01*
X65857142Y-72142857D01*
X65714285Y-72238095D01*
X65523809Y-72285714D01*
X65142857Y-72285714D01*
X65047619Y-72238095D01*
X65000000Y-72190476D01*
X64952380Y-72095238D01*
X64952380Y-71904761D01*
X65000000Y-71809523D01*
X65047619Y-71761904D01*
X65142857Y-71714285D01*
X65380952Y-71714285D01*
X65476190Y-71761904D01*
X65523809Y-71809523D01*
X65571428Y-71904761D01*
X65571428Y-72095238D01*
X65523809Y-72190476D01*
X65476190Y-72238095D01*
X65380952Y-72285714D01*
X31027380Y-76318154D02*
X30027380Y-76318154D01*
X30027380Y-76556250D01*
X30075000Y-76699107D01*
X30170238Y-76794345D01*
X30265476Y-76841964D01*
X30455952Y-76889583D01*
X30598809Y-76889583D01*
X30789285Y-76841964D01*
X30884523Y-76794345D01*
X30979761Y-76699107D01*
X31027380Y-76556250D01*
X31027380Y-76318154D01*
X30455952Y-77461011D02*
X30408333Y-77365773D01*
X30360714Y-77318154D01*
X30265476Y-77270535D01*
X30217857Y-77270535D01*
X30122619Y-77318154D01*
X30075000Y-77365773D01*
X30027380Y-77461011D01*
X30027380Y-77651488D01*
X30075000Y-77746726D01*
X30122619Y-77794345D01*
X30217857Y-77841964D01*
X30265476Y-77841964D01*
X30360714Y-77794345D01*
X30408333Y-77746726D01*
X30455952Y-77651488D01*
X30455952Y-77461011D01*
X30503571Y-77365773D01*
X30551190Y-77318154D01*
X30646428Y-77270535D01*
X30836904Y-77270535D01*
X30932142Y-77318154D01*
X30979761Y-77365773D01*
X31027380Y-77461011D01*
X31027380Y-77651488D01*
X30979761Y-77746726D01*
X30932142Y-77794345D01*
X30836904Y-77841964D01*
X30646428Y-77841964D01*
X30551190Y-77794345D01*
X30503571Y-77746726D01*
X30455952Y-77651488D01*
X27852380Y-76318154D02*
X26852380Y-76318154D01*
X26852380Y-76556250D01*
X26900000Y-76699107D01*
X26995238Y-76794345D01*
X27090476Y-76841964D01*
X27280952Y-76889583D01*
X27423809Y-76889583D01*
X27614285Y-76841964D01*
X27709523Y-76794345D01*
X27804761Y-76699107D01*
X27852380Y-76556250D01*
X27852380Y-76318154D01*
X26852380Y-77222916D02*
X26852380Y-77889583D01*
X27852380Y-77461011D01*
X107227380Y-53299404D02*
X106227380Y-53299404D01*
X106227380Y-53537500D01*
X106275000Y-53680357D01*
X106370238Y-53775595D01*
X106465476Y-53823214D01*
X106655952Y-53870833D01*
X106798809Y-53870833D01*
X106989285Y-53823214D01*
X107084523Y-53775595D01*
X107179761Y-53680357D01*
X107227380Y-53537500D01*
X107227380Y-53299404D01*
X106227380Y-54727976D02*
X106227380Y-54537500D01*
X106275000Y-54442261D01*
X106322619Y-54394642D01*
X106465476Y-54299404D01*
X106655952Y-54251785D01*
X107036904Y-54251785D01*
X107132142Y-54299404D01*
X107179761Y-54347023D01*
X107227380Y-54442261D01*
X107227380Y-54632738D01*
X107179761Y-54727976D01*
X107132142Y-54775595D01*
X107036904Y-54823214D01*
X106798809Y-54823214D01*
X106703571Y-54775595D01*
X106655952Y-54727976D01*
X106608333Y-54632738D01*
X106608333Y-54442261D01*
X106655952Y-54347023D01*
X106703571Y-54299404D01*
X106798809Y-54251785D01*
X104052380Y-53299404D02*
X103052380Y-53299404D01*
X103052380Y-53537500D01*
X103100000Y-53680357D01*
X103195238Y-53775595D01*
X103290476Y-53823214D01*
X103480952Y-53870833D01*
X103623809Y-53870833D01*
X103814285Y-53823214D01*
X103909523Y-53775595D01*
X104004761Y-53680357D01*
X104052380Y-53537500D01*
X104052380Y-53299404D01*
X103052380Y-54775595D02*
X103052380Y-54299404D01*
X103528571Y-54251785D01*
X103480952Y-54299404D01*
X103433333Y-54394642D01*
X103433333Y-54632738D01*
X103480952Y-54727976D01*
X103528571Y-54775595D01*
X103623809Y-54823214D01*
X103861904Y-54823214D01*
X103957142Y-54775595D01*
X104004761Y-54727976D01*
X104052380Y-54632738D01*
X104052380Y-54394642D01*
X104004761Y-54299404D01*
X103957142Y-54251785D01*
X69127380Y-51711904D02*
X68127380Y-51711904D01*
X68127380Y-51950000D01*
X68175000Y-52092857D01*
X68270238Y-52188095D01*
X68365476Y-52235714D01*
X68555952Y-52283333D01*
X68698809Y-52283333D01*
X68889285Y-52235714D01*
X68984523Y-52188095D01*
X69079761Y-52092857D01*
X69127380Y-51950000D01*
X69127380Y-51711904D01*
X68460714Y-53140476D02*
X69127380Y-53140476D01*
X68079761Y-52902380D02*
X68794047Y-52664285D01*
X68794047Y-53283333D01*
X65952380Y-51711904D02*
X64952380Y-51711904D01*
X64952380Y-51950000D01*
X65000000Y-52092857D01*
X65095238Y-52188095D01*
X65190476Y-52235714D01*
X65380952Y-52283333D01*
X65523809Y-52283333D01*
X65714285Y-52235714D01*
X65809523Y-52188095D01*
X65904761Y-52092857D01*
X65952380Y-51950000D01*
X65952380Y-51711904D01*
X64952380Y-52616666D02*
X64952380Y-53235714D01*
X65333333Y-52902380D01*
X65333333Y-53045238D01*
X65380952Y-53140476D01*
X65428571Y-53188095D01*
X65523809Y-53235714D01*
X65761904Y-53235714D01*
X65857142Y-53188095D01*
X65904761Y-53140476D01*
X65952380Y-53045238D01*
X65952380Y-52759523D01*
X65904761Y-52664285D01*
X65857142Y-52616666D01*
X31027380Y-57268154D02*
X30027380Y-57268154D01*
X30027380Y-57506250D01*
X30075000Y-57649107D01*
X30170238Y-57744345D01*
X30265476Y-57791964D01*
X30455952Y-57839583D01*
X30598809Y-57839583D01*
X30789285Y-57791964D01*
X30884523Y-57744345D01*
X30979761Y-57649107D01*
X31027380Y-57506250D01*
X31027380Y-57268154D01*
X30122619Y-58220535D02*
X30075000Y-58268154D01*
X30027380Y-58363392D01*
X30027380Y-58601488D01*
X30075000Y-58696726D01*
X30122619Y-58744345D01*
X30217857Y-58791964D01*
X30313095Y-58791964D01*
X30455952Y-58744345D01*
X31027380Y-58172916D01*
X31027380Y-58791964D01*
X27852380Y-57268154D02*
X26852380Y-57268154D01*
X26852380Y-57506250D01*
X26900000Y-57649107D01*
X26995238Y-57744345D01*
X27090476Y-57791964D01*
X27280952Y-57839583D01*
X27423809Y-57839583D01*
X27614285Y-57791964D01*
X27709523Y-57744345D01*
X27804761Y-57649107D01*
X27852380Y-57506250D01*
X27852380Y-57268154D01*
X27852380Y-58791964D02*
X27852380Y-58220535D01*
X27852380Y-58506250D02*
X26852380Y-58506250D01*
X26995238Y-58411011D01*
X27090476Y-58315773D01*
X27138095Y-58220535D01*
M02*
