G04 #@! TF.GenerationSoftware,KiCad,Pcbnew,(5.1.4)-1*
G04 #@! TF.CreationDate,2023-04-29T19:21:49-04:00*
G04 #@! TF.ProjectId,Rev 1,52657620-312e-46b6-9963-61645f706362,rev?*
G04 #@! TF.SameCoordinates,Original*
G04 #@! TF.FileFunction,Soldermask,Bot*
G04 #@! TF.FilePolarity,Negative*
%FSLAX46Y46*%
G04 Gerber Fmt 4.6, Leading zero omitted, Abs format (unit mm)*
G04 Created by KiCad (PCBNEW (5.1.4)-1) date 2023-04-29 19:21:49*
%MOMM*%
%LPD*%
G04 APERTURE LIST*
%ADD10C,0.100000*%
G04 APERTURE END LIST*
D10*
G36*
X63165661Y-122151776D02*
G01*
X63284387Y-122200954D01*
X63452291Y-122270502D01*
X63452292Y-122270503D01*
X63710254Y-122442867D01*
X63929633Y-122662246D01*
X64044803Y-122834611D01*
X64101998Y-122920209D01*
X64220724Y-123206840D01*
X64281250Y-123511125D01*
X64281250Y-123821375D01*
X64220724Y-124125660D01*
X64101998Y-124412291D01*
X64101997Y-124412292D01*
X63929633Y-124670254D01*
X63710254Y-124889633D01*
X63537889Y-125004803D01*
X63452291Y-125061998D01*
X63284387Y-125131546D01*
X63165661Y-125180724D01*
X63013517Y-125210987D01*
X62861375Y-125241250D01*
X62551125Y-125241250D01*
X62398983Y-125210987D01*
X62246839Y-125180724D01*
X62128113Y-125131546D01*
X61960209Y-125061998D01*
X61874611Y-125004803D01*
X61702246Y-124889633D01*
X61482867Y-124670254D01*
X61310503Y-124412292D01*
X61310502Y-124412291D01*
X61191776Y-124125660D01*
X61131250Y-123821375D01*
X61131250Y-123511125D01*
X61191776Y-123206840D01*
X61310502Y-122920209D01*
X61367697Y-122834611D01*
X61482867Y-122662246D01*
X61702246Y-122442867D01*
X61960208Y-122270503D01*
X61960209Y-122270502D01*
X62128113Y-122200954D01*
X62246839Y-122151776D01*
X62551125Y-122091250D01*
X62861375Y-122091250D01*
X63165661Y-122151776D01*
X63165661Y-122151776D01*
G37*
G36*
X39353161Y-122151776D02*
G01*
X39471887Y-122200954D01*
X39639791Y-122270502D01*
X39639792Y-122270503D01*
X39897754Y-122442867D01*
X40117133Y-122662246D01*
X40232303Y-122834611D01*
X40289498Y-122920209D01*
X40408224Y-123206840D01*
X40468750Y-123511125D01*
X40468750Y-123821375D01*
X40408224Y-124125660D01*
X40289498Y-124412291D01*
X40289497Y-124412292D01*
X40117133Y-124670254D01*
X39897754Y-124889633D01*
X39725389Y-125004803D01*
X39639791Y-125061998D01*
X39471887Y-125131546D01*
X39353161Y-125180724D01*
X39201017Y-125210987D01*
X39048875Y-125241250D01*
X38738625Y-125241250D01*
X38586483Y-125210987D01*
X38434339Y-125180724D01*
X38315613Y-125131546D01*
X38147709Y-125061998D01*
X38062111Y-125004803D01*
X37889746Y-124889633D01*
X37670367Y-124670254D01*
X37498003Y-124412292D01*
X37498002Y-124412291D01*
X37379276Y-124125660D01*
X37318750Y-123821375D01*
X37318750Y-123511125D01*
X37379276Y-123206840D01*
X37498002Y-122920209D01*
X37555197Y-122834611D01*
X37670367Y-122662246D01*
X37889746Y-122442867D01*
X38147708Y-122270503D01*
X38147709Y-122270502D01*
X38315613Y-122200954D01*
X38434339Y-122151776D01*
X38738625Y-122091250D01*
X39048875Y-122091250D01*
X39353161Y-122151776D01*
X39353161Y-122151776D01*
G37*
G36*
X107276474Y-117127934D02*
G01*
X107494474Y-117218233D01*
X107648623Y-117282083D01*
X107983548Y-117505873D01*
X108268377Y-117790702D01*
X108492167Y-118125627D01*
X108492167Y-118125628D01*
X108646316Y-118497776D01*
X108724900Y-118892844D01*
X108724900Y-119295656D01*
X108646316Y-119690724D01*
X108584363Y-119840291D01*
X108492167Y-120062873D01*
X108268377Y-120397798D01*
X107983548Y-120682627D01*
X107648623Y-120906417D01*
X107494474Y-120970267D01*
X107276474Y-121060566D01*
X106881406Y-121139150D01*
X106478594Y-121139150D01*
X106083526Y-121060566D01*
X105865526Y-120970267D01*
X105711377Y-120906417D01*
X105376452Y-120682627D01*
X105091623Y-120397798D01*
X104867833Y-120062873D01*
X104775637Y-119840291D01*
X104713684Y-119690724D01*
X104635100Y-119295656D01*
X104635100Y-118892844D01*
X104713684Y-118497776D01*
X104867833Y-118125628D01*
X104867833Y-118125627D01*
X105091623Y-117790702D01*
X105376452Y-117505873D01*
X105711377Y-117282083D01*
X105865526Y-117218233D01*
X106083526Y-117127934D01*
X106478594Y-117049350D01*
X106881406Y-117049350D01*
X107276474Y-117127934D01*
X107276474Y-117127934D01*
G37*
G36*
X91747267Y-117549513D02*
G01*
X91899411Y-117579776D01*
X92018137Y-117628954D01*
X92186041Y-117698502D01*
X92186042Y-117698503D01*
X92444004Y-117870867D01*
X92663383Y-118090246D01*
X92687024Y-118125628D01*
X92835748Y-118348209D01*
X92895895Y-118493417D01*
X92954474Y-118634839D01*
X92972637Y-118726150D01*
X93015000Y-118939125D01*
X93015000Y-119249375D01*
X92954474Y-119553660D01*
X92835748Y-119840291D01*
X92835747Y-119840292D01*
X92663383Y-120098254D01*
X92444004Y-120317633D01*
X92324028Y-120397798D01*
X92186041Y-120489998D01*
X92018137Y-120559546D01*
X91899411Y-120608724D01*
X91747267Y-120638987D01*
X91595125Y-120669250D01*
X91284875Y-120669250D01*
X91132733Y-120638987D01*
X90980589Y-120608724D01*
X90861863Y-120559546D01*
X90693959Y-120489998D01*
X90555972Y-120397798D01*
X90435996Y-120317633D01*
X90216617Y-120098254D01*
X90044253Y-119840292D01*
X90044252Y-119840291D01*
X89925526Y-119553660D01*
X89865000Y-119249375D01*
X89865000Y-118939125D01*
X89907363Y-118726150D01*
X89925526Y-118634839D01*
X89984105Y-118493417D01*
X90044252Y-118348209D01*
X90192976Y-118125628D01*
X90216617Y-118090246D01*
X90435996Y-117870867D01*
X90693958Y-117698503D01*
X90693959Y-117698502D01*
X90861863Y-117628954D01*
X90980589Y-117579776D01*
X91132733Y-117549513D01*
X91284875Y-117519250D01*
X91595125Y-117519250D01*
X91747267Y-117549513D01*
X91747267Y-117549513D01*
G37*
G36*
X79971474Y-114714934D02*
G01*
X80189474Y-114805233D01*
X80343623Y-114869083D01*
X80678548Y-115092873D01*
X80963377Y-115377702D01*
X81187167Y-115712627D01*
X81219562Y-115790836D01*
X81341316Y-116084776D01*
X81419900Y-116479844D01*
X81419900Y-116882656D01*
X81341316Y-117277724D01*
X81290451Y-117400522D01*
X81187167Y-117649873D01*
X80963377Y-117984798D01*
X80678548Y-118269627D01*
X80343623Y-118493417D01*
X80189474Y-118557267D01*
X79971474Y-118647566D01*
X79576406Y-118726150D01*
X79173594Y-118726150D01*
X78778526Y-118647566D01*
X78560526Y-118557267D01*
X78406377Y-118493417D01*
X78071452Y-118269627D01*
X77786623Y-117984798D01*
X77562833Y-117649873D01*
X77459549Y-117400522D01*
X77408684Y-117277724D01*
X77330100Y-116882656D01*
X77330100Y-116479844D01*
X77408684Y-116084776D01*
X77530438Y-115790836D01*
X77562833Y-115712627D01*
X77786623Y-115377702D01*
X78071452Y-115092873D01*
X78406377Y-114869083D01*
X78560526Y-114805233D01*
X78778526Y-114714934D01*
X79173594Y-114636350D01*
X79576406Y-114636350D01*
X79971474Y-114714934D01*
X79971474Y-114714934D01*
G37*
G36*
X51396474Y-114714934D02*
G01*
X51614474Y-114805233D01*
X51768623Y-114869083D01*
X52103548Y-115092873D01*
X52388377Y-115377702D01*
X52612167Y-115712627D01*
X52644562Y-115790836D01*
X52766316Y-116084776D01*
X52844900Y-116479844D01*
X52844900Y-116882656D01*
X52766316Y-117277724D01*
X52715451Y-117400522D01*
X52612167Y-117649873D01*
X52388377Y-117984798D01*
X52103548Y-118269627D01*
X51768623Y-118493417D01*
X51614474Y-118557267D01*
X51396474Y-118647566D01*
X51001406Y-118726150D01*
X50598594Y-118726150D01*
X50203526Y-118647566D01*
X49985526Y-118557267D01*
X49831377Y-118493417D01*
X49496452Y-118269627D01*
X49211623Y-117984798D01*
X48987833Y-117649873D01*
X48884549Y-117400522D01*
X48833684Y-117277724D01*
X48755100Y-116882656D01*
X48755100Y-116479844D01*
X48833684Y-116084776D01*
X48955438Y-115790836D01*
X48987833Y-115712627D01*
X49211623Y-115377702D01*
X49496452Y-115092873D01*
X49831377Y-114869083D01*
X49985526Y-114805233D01*
X50203526Y-114714934D01*
X50598594Y-114636350D01*
X51001406Y-114636350D01*
X51396474Y-114714934D01*
X51396474Y-114714934D01*
G37*
G36*
X74565104Y-115790835D02*
G01*
X74733626Y-115860639D01*
X74885291Y-115961978D01*
X75014272Y-116090959D01*
X75115611Y-116242624D01*
X75185415Y-116411146D01*
X75221000Y-116590047D01*
X75221000Y-116772453D01*
X75185415Y-116951354D01*
X75115611Y-117119876D01*
X75014272Y-117271541D01*
X74885291Y-117400522D01*
X74733626Y-117501861D01*
X74565104Y-117571665D01*
X74386203Y-117607250D01*
X74203797Y-117607250D01*
X74024896Y-117571665D01*
X73856374Y-117501861D01*
X73704709Y-117400522D01*
X73575728Y-117271541D01*
X73474389Y-117119876D01*
X73404585Y-116951354D01*
X73369000Y-116772453D01*
X73369000Y-116590047D01*
X73404585Y-116411146D01*
X73474389Y-116242624D01*
X73575728Y-116090959D01*
X73704709Y-115961978D01*
X73856374Y-115860639D01*
X74024896Y-115790835D01*
X74203797Y-115755250D01*
X74386203Y-115755250D01*
X74565104Y-115790835D01*
X74565104Y-115790835D01*
G37*
G36*
X84725104Y-115790835D02*
G01*
X84893626Y-115860639D01*
X85045291Y-115961978D01*
X85174272Y-116090959D01*
X85275611Y-116242624D01*
X85345415Y-116411146D01*
X85381000Y-116590047D01*
X85381000Y-116772453D01*
X85345415Y-116951354D01*
X85275611Y-117119876D01*
X85174272Y-117271541D01*
X85045291Y-117400522D01*
X84893626Y-117501861D01*
X84725104Y-117571665D01*
X84546203Y-117607250D01*
X84363797Y-117607250D01*
X84184896Y-117571665D01*
X84016374Y-117501861D01*
X83864709Y-117400522D01*
X83735728Y-117271541D01*
X83634389Y-117119876D01*
X83564585Y-116951354D01*
X83529000Y-116772453D01*
X83529000Y-116590047D01*
X83564585Y-116411146D01*
X83634389Y-116242624D01*
X83735728Y-116090959D01*
X83864709Y-115961978D01*
X84016374Y-115860639D01*
X84184896Y-115790835D01*
X84363797Y-115755250D01*
X84546203Y-115755250D01*
X84725104Y-115790835D01*
X84725104Y-115790835D01*
G37*
G36*
X45990104Y-115790835D02*
G01*
X46158626Y-115860639D01*
X46310291Y-115961978D01*
X46439272Y-116090959D01*
X46540611Y-116242624D01*
X46610415Y-116411146D01*
X46646000Y-116590047D01*
X46646000Y-116772453D01*
X46610415Y-116951354D01*
X46540611Y-117119876D01*
X46439272Y-117271541D01*
X46310291Y-117400522D01*
X46158626Y-117501861D01*
X45990104Y-117571665D01*
X45811203Y-117607250D01*
X45628797Y-117607250D01*
X45449896Y-117571665D01*
X45281374Y-117501861D01*
X45129709Y-117400522D01*
X45000728Y-117271541D01*
X44899389Y-117119876D01*
X44829585Y-116951354D01*
X44794000Y-116772453D01*
X44794000Y-116590047D01*
X44829585Y-116411146D01*
X44899389Y-116242624D01*
X45000728Y-116090959D01*
X45129709Y-115961978D01*
X45281374Y-115860639D01*
X45449896Y-115790835D01*
X45628797Y-115755250D01*
X45811203Y-115755250D01*
X45990104Y-115790835D01*
X45990104Y-115790835D01*
G37*
G36*
X56150104Y-115790835D02*
G01*
X56318626Y-115860639D01*
X56470291Y-115961978D01*
X56599272Y-116090959D01*
X56700611Y-116242624D01*
X56770415Y-116411146D01*
X56806000Y-116590047D01*
X56806000Y-116772453D01*
X56770415Y-116951354D01*
X56700611Y-117119876D01*
X56599272Y-117271541D01*
X56470291Y-117400522D01*
X56318626Y-117501861D01*
X56150104Y-117571665D01*
X55971203Y-117607250D01*
X55788797Y-117607250D01*
X55609896Y-117571665D01*
X55441374Y-117501861D01*
X55289709Y-117400522D01*
X55160728Y-117271541D01*
X55059389Y-117119876D01*
X54989585Y-116951354D01*
X54954000Y-116772453D01*
X54954000Y-116590047D01*
X54989585Y-116411146D01*
X55059389Y-116242624D01*
X55160728Y-116090959D01*
X55289709Y-115961978D01*
X55441374Y-115860639D01*
X55609896Y-115790835D01*
X55788797Y-115755250D01*
X55971203Y-115755250D01*
X56150104Y-115790835D01*
X56150104Y-115790835D01*
G37*
G36*
X75756560Y-112980314D02*
G01*
X75908027Y-113010443D01*
X76122045Y-113099092D01*
X76122046Y-113099093D01*
X76314654Y-113227789D01*
X76478461Y-113391596D01*
X76564258Y-113520001D01*
X76607158Y-113584205D01*
X76695807Y-113798223D01*
X76741000Y-114025424D01*
X76741000Y-114257076D01*
X76695807Y-114484277D01*
X76607158Y-114698295D01*
X76607157Y-114698296D01*
X76478461Y-114890904D01*
X76314654Y-115054711D01*
X76257540Y-115092873D01*
X76122045Y-115183408D01*
X75908027Y-115272057D01*
X75756560Y-115302186D01*
X75680827Y-115317250D01*
X75449173Y-115317250D01*
X75373440Y-115302186D01*
X75221973Y-115272057D01*
X75007955Y-115183408D01*
X74872460Y-115092873D01*
X74815346Y-115054711D01*
X74651539Y-114890904D01*
X74522843Y-114698296D01*
X74522842Y-114698295D01*
X74434193Y-114484277D01*
X74389000Y-114257076D01*
X74389000Y-114025424D01*
X74434193Y-113798223D01*
X74522842Y-113584205D01*
X74565742Y-113520001D01*
X74651539Y-113391596D01*
X74815346Y-113227789D01*
X75007954Y-113099093D01*
X75007955Y-113099092D01*
X75221973Y-113010443D01*
X75373440Y-112980314D01*
X75449173Y-112965250D01*
X75680827Y-112965250D01*
X75756560Y-112980314D01*
X75756560Y-112980314D01*
G37*
G36*
X47181560Y-112980314D02*
G01*
X47333027Y-113010443D01*
X47547045Y-113099092D01*
X47547046Y-113099093D01*
X47739654Y-113227789D01*
X47903461Y-113391596D01*
X47989258Y-113520001D01*
X48032158Y-113584205D01*
X48120807Y-113798223D01*
X48166000Y-114025424D01*
X48166000Y-114257076D01*
X48120807Y-114484277D01*
X48032158Y-114698295D01*
X48032157Y-114698296D01*
X47903461Y-114890904D01*
X47739654Y-115054711D01*
X47682540Y-115092873D01*
X47547045Y-115183408D01*
X47333027Y-115272057D01*
X47181560Y-115302186D01*
X47105827Y-115317250D01*
X46874173Y-115317250D01*
X46798440Y-115302186D01*
X46646973Y-115272057D01*
X46432955Y-115183408D01*
X46297460Y-115092873D01*
X46240346Y-115054711D01*
X46076539Y-114890904D01*
X45947843Y-114698296D01*
X45947842Y-114698295D01*
X45859193Y-114484277D01*
X45814000Y-114257076D01*
X45814000Y-114025424D01*
X45859193Y-113798223D01*
X45947842Y-113584205D01*
X45990742Y-113520001D01*
X46076539Y-113391596D01*
X46240346Y-113227789D01*
X46432954Y-113099093D01*
X46432955Y-113099092D01*
X46646973Y-113010443D01*
X46798440Y-112980314D01*
X46874173Y-112965250D01*
X47105827Y-112965250D01*
X47181560Y-112980314D01*
X47181560Y-112980314D01*
G37*
G36*
X82106560Y-110440314D02*
G01*
X82258027Y-110470443D01*
X82472045Y-110559092D01*
X82472046Y-110559093D01*
X82664654Y-110687789D01*
X82828461Y-110851596D01*
X82914258Y-110980001D01*
X82957158Y-111044205D01*
X83045807Y-111258223D01*
X83091000Y-111485424D01*
X83091000Y-111717076D01*
X83045807Y-111944277D01*
X82957158Y-112158295D01*
X82957157Y-112158296D01*
X82828461Y-112350904D01*
X82664654Y-112514711D01*
X82536249Y-112600508D01*
X82472045Y-112643408D01*
X82258027Y-112732057D01*
X82106560Y-112762186D01*
X82030827Y-112777250D01*
X81799173Y-112777250D01*
X81723440Y-112762186D01*
X81571973Y-112732057D01*
X81357955Y-112643408D01*
X81293751Y-112600508D01*
X81165346Y-112514711D01*
X81001539Y-112350904D01*
X80872843Y-112158296D01*
X80872842Y-112158295D01*
X80784193Y-111944277D01*
X80739000Y-111717076D01*
X80739000Y-111485424D01*
X80784193Y-111258223D01*
X80872842Y-111044205D01*
X80915742Y-110980001D01*
X81001539Y-110851596D01*
X81165346Y-110687789D01*
X81357954Y-110559093D01*
X81357955Y-110559092D01*
X81571973Y-110470443D01*
X81723440Y-110440314D01*
X81799173Y-110425250D01*
X82030827Y-110425250D01*
X82106560Y-110440314D01*
X82106560Y-110440314D01*
G37*
G36*
X53531560Y-110440314D02*
G01*
X53683027Y-110470443D01*
X53897045Y-110559092D01*
X53897046Y-110559093D01*
X54089654Y-110687789D01*
X54253461Y-110851596D01*
X54339258Y-110980001D01*
X54382158Y-111044205D01*
X54470807Y-111258223D01*
X54516000Y-111485424D01*
X54516000Y-111717076D01*
X54470807Y-111944277D01*
X54382158Y-112158295D01*
X54382157Y-112158296D01*
X54253461Y-112350904D01*
X54089654Y-112514711D01*
X53961249Y-112600508D01*
X53897045Y-112643408D01*
X53683027Y-112732057D01*
X53531560Y-112762186D01*
X53455827Y-112777250D01*
X53224173Y-112777250D01*
X53148440Y-112762186D01*
X52996973Y-112732057D01*
X52782955Y-112643408D01*
X52718751Y-112600508D01*
X52590346Y-112514711D01*
X52426539Y-112350904D01*
X52297843Y-112158296D01*
X52297842Y-112158295D01*
X52209193Y-111944277D01*
X52164000Y-111717076D01*
X52164000Y-111485424D01*
X52209193Y-111258223D01*
X52297842Y-111044205D01*
X52340742Y-110980001D01*
X52426539Y-110851596D01*
X52590346Y-110687789D01*
X52782954Y-110559093D01*
X52782955Y-110559092D01*
X52996973Y-110470443D01*
X53148440Y-110440314D01*
X53224173Y-110425250D01*
X53455827Y-110425250D01*
X53531560Y-110440314D01*
X53531560Y-110440314D01*
G37*
G36*
X39490224Y-106459934D02*
G01*
X39647249Y-106524976D01*
X39862373Y-106614083D01*
X40197298Y-106837873D01*
X40482127Y-107122702D01*
X40705917Y-107457627D01*
X40705917Y-107457628D01*
X40860066Y-107829776D01*
X40938650Y-108224844D01*
X40938650Y-108627656D01*
X40860066Y-109022724D01*
X40818710Y-109122565D01*
X40705917Y-109394873D01*
X40482127Y-109729798D01*
X40197298Y-110014627D01*
X39862373Y-110238417D01*
X39708224Y-110302267D01*
X39490224Y-110392566D01*
X39095156Y-110471150D01*
X38692344Y-110471150D01*
X38297276Y-110392566D01*
X38079276Y-110302267D01*
X37925127Y-110238417D01*
X37590202Y-110014627D01*
X37305373Y-109729798D01*
X37081583Y-109394873D01*
X36968790Y-109122565D01*
X36927434Y-109022724D01*
X36848850Y-108627656D01*
X36848850Y-108224844D01*
X36927434Y-107829776D01*
X37081583Y-107457628D01*
X37081583Y-107457627D01*
X37305373Y-107122702D01*
X37590202Y-106837873D01*
X37925127Y-106614083D01*
X38140251Y-106524976D01*
X38297276Y-106459934D01*
X38692344Y-106381350D01*
X39095156Y-106381350D01*
X39490224Y-106459934D01*
X39490224Y-106459934D01*
G37*
G36*
X63302724Y-106459934D02*
G01*
X63459749Y-106524976D01*
X63674873Y-106614083D01*
X64009798Y-106837873D01*
X64294627Y-107122702D01*
X64518417Y-107457627D01*
X64518417Y-107457628D01*
X64672566Y-107829776D01*
X64751150Y-108224844D01*
X64751150Y-108627656D01*
X64672566Y-109022724D01*
X64631210Y-109122565D01*
X64518417Y-109394873D01*
X64294627Y-109729798D01*
X64009798Y-110014627D01*
X63674873Y-110238417D01*
X63520724Y-110302267D01*
X63302724Y-110392566D01*
X62907656Y-110471150D01*
X62504844Y-110471150D01*
X62109776Y-110392566D01*
X61891776Y-110302267D01*
X61737627Y-110238417D01*
X61402702Y-110014627D01*
X61117873Y-109729798D01*
X60894083Y-109394873D01*
X60781290Y-109122565D01*
X60739934Y-109022724D01*
X60661350Y-108627656D01*
X60661350Y-108224844D01*
X60739934Y-107829776D01*
X60894083Y-107457628D01*
X60894083Y-107457627D01*
X61117873Y-107122702D01*
X61402702Y-106837873D01*
X61737627Y-106614083D01*
X61952751Y-106524976D01*
X62109776Y-106459934D01*
X62504844Y-106381350D01*
X62907656Y-106381350D01*
X63302724Y-106459934D01*
X63302724Y-106459934D01*
G37*
G36*
X99021474Y-105189934D02*
G01*
X99166669Y-105250076D01*
X99393623Y-105344083D01*
X99728548Y-105567873D01*
X100013377Y-105852702D01*
X100237167Y-106187627D01*
X100269562Y-106265836D01*
X100391316Y-106559776D01*
X100469900Y-106954844D01*
X100469900Y-107357656D01*
X100391316Y-107752724D01*
X100340451Y-107875522D01*
X100237167Y-108124873D01*
X100013377Y-108459798D01*
X99728548Y-108744627D01*
X99393623Y-108968417D01*
X99262514Y-109022724D01*
X99021474Y-109122566D01*
X98626406Y-109201150D01*
X98223594Y-109201150D01*
X97828526Y-109122566D01*
X97587486Y-109022724D01*
X97456377Y-108968417D01*
X97121452Y-108744627D01*
X96836623Y-108459798D01*
X96612833Y-108124873D01*
X96509549Y-107875522D01*
X96458684Y-107752724D01*
X96380100Y-107357656D01*
X96380100Y-106954844D01*
X96458684Y-106559776D01*
X96580438Y-106265836D01*
X96612833Y-106187627D01*
X96836623Y-105852702D01*
X97121452Y-105567873D01*
X97456377Y-105344083D01*
X97683331Y-105250076D01*
X97828526Y-105189934D01*
X98223594Y-105111350D01*
X98626406Y-105111350D01*
X99021474Y-105189934D01*
X99021474Y-105189934D01*
G37*
G36*
X122771000Y-108166000D02*
G01*
X121069000Y-108166000D01*
X121069000Y-106464000D01*
X122771000Y-106464000D01*
X122771000Y-108166000D01*
X122771000Y-108166000D01*
G37*
G36*
X114466823Y-106476313D02*
G01*
X114627242Y-106524976D01*
X114759906Y-106595886D01*
X114775078Y-106603996D01*
X114904659Y-106710341D01*
X115011004Y-106839922D01*
X115011005Y-106839924D01*
X115090024Y-106987758D01*
X115138687Y-107148177D01*
X115155117Y-107315000D01*
X115138687Y-107481823D01*
X115090024Y-107642242D01*
X115019114Y-107774906D01*
X115011004Y-107790078D01*
X114904659Y-107919659D01*
X114775078Y-108026004D01*
X114775076Y-108026005D01*
X114627242Y-108105024D01*
X114466823Y-108153687D01*
X114341804Y-108166000D01*
X114258196Y-108166000D01*
X114133177Y-108153687D01*
X113972758Y-108105024D01*
X113824924Y-108026005D01*
X113824922Y-108026004D01*
X113695341Y-107919659D01*
X113588996Y-107790078D01*
X113580886Y-107774906D01*
X113509976Y-107642242D01*
X113461313Y-107481823D01*
X113444883Y-107315000D01*
X113461313Y-107148177D01*
X113509976Y-106987758D01*
X113588995Y-106839924D01*
X113588996Y-106839922D01*
X113695341Y-106710341D01*
X113824922Y-106603996D01*
X113840094Y-106595886D01*
X113972758Y-106524976D01*
X114133177Y-106476313D01*
X114258196Y-106464000D01*
X114341804Y-106464000D01*
X114466823Y-106476313D01*
X114466823Y-106476313D01*
G37*
G36*
X103775104Y-106265835D02*
G01*
X103943626Y-106335639D01*
X104095291Y-106436978D01*
X104224272Y-106565959D01*
X104325611Y-106717624D01*
X104395415Y-106886146D01*
X104431000Y-107065047D01*
X104431000Y-107247453D01*
X104395415Y-107426354D01*
X104325611Y-107594876D01*
X104224272Y-107746541D01*
X104095291Y-107875522D01*
X103943626Y-107976861D01*
X103775104Y-108046665D01*
X103596203Y-108082250D01*
X103413797Y-108082250D01*
X103234896Y-108046665D01*
X103066374Y-107976861D01*
X102914709Y-107875522D01*
X102785728Y-107746541D01*
X102684389Y-107594876D01*
X102614585Y-107426354D01*
X102579000Y-107247453D01*
X102579000Y-107065047D01*
X102614585Y-106886146D01*
X102684389Y-106717624D01*
X102785728Y-106565959D01*
X102914709Y-106436978D01*
X103066374Y-106335639D01*
X103234896Y-106265835D01*
X103413797Y-106230250D01*
X103596203Y-106230250D01*
X103775104Y-106265835D01*
X103775104Y-106265835D01*
G37*
G36*
X93615104Y-106265835D02*
G01*
X93783626Y-106335639D01*
X93935291Y-106436978D01*
X94064272Y-106565959D01*
X94165611Y-106717624D01*
X94235415Y-106886146D01*
X94271000Y-107065047D01*
X94271000Y-107247453D01*
X94235415Y-107426354D01*
X94165611Y-107594876D01*
X94064272Y-107746541D01*
X93935291Y-107875522D01*
X93783626Y-107976861D01*
X93615104Y-108046665D01*
X93436203Y-108082250D01*
X93253797Y-108082250D01*
X93074896Y-108046665D01*
X92906374Y-107976861D01*
X92754709Y-107875522D01*
X92625728Y-107746541D01*
X92524389Y-107594876D01*
X92454585Y-107426354D01*
X92419000Y-107247453D01*
X92419000Y-107065047D01*
X92454585Y-106886146D01*
X92524389Y-106717624D01*
X92625728Y-106565959D01*
X92754709Y-106436978D01*
X92906374Y-106335639D01*
X93074896Y-106265835D01*
X93253797Y-106230250D01*
X93436203Y-106230250D01*
X93615104Y-106265835D01*
X93615104Y-106265835D01*
G37*
G36*
X94806560Y-103455314D02*
G01*
X94958027Y-103485443D01*
X95172045Y-103574092D01*
X95172046Y-103574093D01*
X95364654Y-103702789D01*
X95528461Y-103866596D01*
X95566817Y-103924000D01*
X95657158Y-104059205D01*
X95745807Y-104273223D01*
X95791000Y-104500424D01*
X95791000Y-104732076D01*
X95745807Y-104959277D01*
X95657158Y-105173295D01*
X95657157Y-105173296D01*
X95528461Y-105365904D01*
X95364654Y-105529711D01*
X95307540Y-105567873D01*
X95172045Y-105658408D01*
X94958027Y-105747057D01*
X94806560Y-105777186D01*
X94730827Y-105792250D01*
X94499173Y-105792250D01*
X94423440Y-105777186D01*
X94271973Y-105747057D01*
X94057955Y-105658408D01*
X93922460Y-105567873D01*
X93865346Y-105529711D01*
X93701539Y-105365904D01*
X93572843Y-105173296D01*
X93572842Y-105173295D01*
X93484193Y-104959277D01*
X93439000Y-104732076D01*
X93439000Y-104500424D01*
X93484193Y-104273223D01*
X93572842Y-104059205D01*
X93663183Y-103924000D01*
X93701539Y-103866596D01*
X93865346Y-103702789D01*
X94057954Y-103574093D01*
X94057955Y-103574092D01*
X94271973Y-103485443D01*
X94423440Y-103455314D01*
X94499173Y-103440250D01*
X94730827Y-103440250D01*
X94806560Y-103455314D01*
X94806560Y-103455314D01*
G37*
G36*
X114466823Y-103936313D02*
G01*
X114627242Y-103984976D01*
X114759906Y-104055886D01*
X114775078Y-104063996D01*
X114904659Y-104170341D01*
X115011004Y-104299922D01*
X115011005Y-104299924D01*
X115090024Y-104447758D01*
X115138687Y-104608177D01*
X115155117Y-104775000D01*
X115138687Y-104941823D01*
X115090024Y-105102242D01*
X115043151Y-105189935D01*
X115011004Y-105250078D01*
X114904659Y-105379659D01*
X114775078Y-105486004D01*
X114775076Y-105486005D01*
X114627242Y-105565024D01*
X114466823Y-105613687D01*
X114341804Y-105626000D01*
X114258196Y-105626000D01*
X114133177Y-105613687D01*
X113972758Y-105565024D01*
X113824924Y-105486005D01*
X113824922Y-105486004D01*
X113695341Y-105379659D01*
X113588996Y-105250078D01*
X113556849Y-105189935D01*
X113509976Y-105102242D01*
X113461313Y-104941823D01*
X113444883Y-104775000D01*
X113461313Y-104608177D01*
X113509976Y-104447758D01*
X113588995Y-104299924D01*
X113588996Y-104299922D01*
X113695341Y-104170341D01*
X113824922Y-104063996D01*
X113840094Y-104055886D01*
X113972758Y-103984976D01*
X114133177Y-103936313D01*
X114258196Y-103924000D01*
X114341804Y-103924000D01*
X114466823Y-103936313D01*
X114466823Y-103936313D01*
G37*
G36*
X122771000Y-105626000D02*
G01*
X121069000Y-105626000D01*
X121069000Y-103924000D01*
X122771000Y-103924000D01*
X122771000Y-105626000D01*
X122771000Y-105626000D01*
G37*
G36*
X101156560Y-100915314D02*
G01*
X101308027Y-100945443D01*
X101522045Y-101034092D01*
X101522046Y-101034093D01*
X101714654Y-101162789D01*
X101878461Y-101326596D01*
X101916817Y-101384000D01*
X102007158Y-101519205D01*
X102095807Y-101733223D01*
X102141000Y-101960424D01*
X102141000Y-102192076D01*
X102095807Y-102419277D01*
X102007158Y-102633295D01*
X102007157Y-102633296D01*
X101878461Y-102825904D01*
X101714654Y-102989711D01*
X101588976Y-103073686D01*
X101522045Y-103118408D01*
X101308027Y-103207057D01*
X101156560Y-103237186D01*
X101080827Y-103252250D01*
X100849173Y-103252250D01*
X100773440Y-103237186D01*
X100621973Y-103207057D01*
X100407955Y-103118408D01*
X100341024Y-103073686D01*
X100215346Y-102989711D01*
X100051539Y-102825904D01*
X99922843Y-102633296D01*
X99922842Y-102633295D01*
X99834193Y-102419277D01*
X99789000Y-102192076D01*
X99789000Y-101960424D01*
X99834193Y-101733223D01*
X99922842Y-101519205D01*
X100013183Y-101384000D01*
X100051539Y-101326596D01*
X100215346Y-101162789D01*
X100407954Y-101034093D01*
X100407955Y-101034092D01*
X100621973Y-100945443D01*
X100773440Y-100915314D01*
X100849173Y-100900250D01*
X101080827Y-100900250D01*
X101156560Y-100915314D01*
X101156560Y-100915314D01*
G37*
G36*
X114466823Y-101396313D02*
G01*
X114627242Y-101444976D01*
X114759906Y-101515886D01*
X114775078Y-101523996D01*
X114904659Y-101630341D01*
X115011004Y-101759922D01*
X115011005Y-101759924D01*
X115090024Y-101907758D01*
X115138687Y-102068177D01*
X115155117Y-102235000D01*
X115138687Y-102401823D01*
X115090024Y-102562242D01*
X115052045Y-102633295D01*
X115011004Y-102710078D01*
X114904659Y-102839659D01*
X114775078Y-102946004D01*
X114775076Y-102946005D01*
X114627242Y-103025024D01*
X114466823Y-103073687D01*
X114341804Y-103086000D01*
X114258196Y-103086000D01*
X114133177Y-103073687D01*
X113972758Y-103025024D01*
X113824924Y-102946005D01*
X113824922Y-102946004D01*
X113695341Y-102839659D01*
X113588996Y-102710078D01*
X113547955Y-102633295D01*
X113509976Y-102562242D01*
X113461313Y-102401823D01*
X113444883Y-102235000D01*
X113461313Y-102068177D01*
X113509976Y-101907758D01*
X113588995Y-101759924D01*
X113588996Y-101759922D01*
X113695341Y-101630341D01*
X113824922Y-101523996D01*
X113840094Y-101515886D01*
X113972758Y-101444976D01*
X114133177Y-101396313D01*
X114258196Y-101384000D01*
X114341804Y-101384000D01*
X114466823Y-101396313D01*
X114466823Y-101396313D01*
G37*
G36*
X122771000Y-103086000D02*
G01*
X121069000Y-103086000D01*
X121069000Y-101384000D01*
X122771000Y-101384000D01*
X122771000Y-103086000D01*
X122771000Y-103086000D01*
G37*
G36*
X122771000Y-100546000D02*
G01*
X121069000Y-100546000D01*
X121069000Y-98844000D01*
X122771000Y-98844000D01*
X122771000Y-100546000D01*
X122771000Y-100546000D01*
G37*
G36*
X114466823Y-98856313D02*
G01*
X114627242Y-98904976D01*
X114759906Y-98975886D01*
X114775078Y-98983996D01*
X114904659Y-99090341D01*
X115011004Y-99219922D01*
X115011005Y-99219924D01*
X115090024Y-99367758D01*
X115138687Y-99528177D01*
X115155117Y-99695000D01*
X115138687Y-99861823D01*
X115090024Y-100022242D01*
X115019114Y-100154906D01*
X115011004Y-100170078D01*
X114904659Y-100299659D01*
X114775078Y-100406004D01*
X114775076Y-100406005D01*
X114627242Y-100485024D01*
X114466823Y-100533687D01*
X114341804Y-100546000D01*
X114258196Y-100546000D01*
X114133177Y-100533687D01*
X113972758Y-100485024D01*
X113824924Y-100406005D01*
X113824922Y-100406004D01*
X113695341Y-100299659D01*
X113588996Y-100170078D01*
X113580886Y-100154906D01*
X113509976Y-100022242D01*
X113461313Y-99861823D01*
X113444883Y-99695000D01*
X113461313Y-99528177D01*
X113509976Y-99367758D01*
X113588995Y-99219924D01*
X113588996Y-99219922D01*
X113695341Y-99090341D01*
X113824922Y-98983996D01*
X113840094Y-98975886D01*
X113972758Y-98904976D01*
X114133177Y-98856313D01*
X114258196Y-98844000D01*
X114341804Y-98844000D01*
X114466823Y-98856313D01*
X114466823Y-98856313D01*
G37*
G36*
X60921474Y-95664934D02*
G01*
X61139474Y-95755233D01*
X61293623Y-95819083D01*
X61628548Y-96042873D01*
X61913377Y-96327702D01*
X62137167Y-96662627D01*
X62196813Y-96806627D01*
X62291316Y-97034776D01*
X62369900Y-97429844D01*
X62369900Y-97832656D01*
X62291316Y-98227724D01*
X62240451Y-98350522D01*
X62137167Y-98599873D01*
X61913377Y-98934798D01*
X61628548Y-99219627D01*
X61293623Y-99443417D01*
X61139474Y-99507267D01*
X60921474Y-99597566D01*
X60526406Y-99676150D01*
X60123594Y-99676150D01*
X59728526Y-99597566D01*
X59510526Y-99507267D01*
X59356377Y-99443417D01*
X59021452Y-99219627D01*
X58736623Y-98934798D01*
X58512833Y-98599873D01*
X58409549Y-98350522D01*
X58358684Y-98227724D01*
X58280100Y-97832656D01*
X58280100Y-97429844D01*
X58358684Y-97034776D01*
X58453187Y-96806627D01*
X58512833Y-96662627D01*
X58736623Y-96327702D01*
X59021452Y-96042873D01*
X59356377Y-95819083D01*
X59510526Y-95755233D01*
X59728526Y-95664934D01*
X60123594Y-95586350D01*
X60526406Y-95586350D01*
X60921474Y-95664934D01*
X60921474Y-95664934D01*
G37*
G36*
X41871474Y-95664934D02*
G01*
X42089474Y-95755233D01*
X42243623Y-95819083D01*
X42578548Y-96042873D01*
X42863377Y-96327702D01*
X43087167Y-96662627D01*
X43146813Y-96806627D01*
X43241316Y-97034776D01*
X43319900Y-97429844D01*
X43319900Y-97832656D01*
X43241316Y-98227724D01*
X43190451Y-98350522D01*
X43087167Y-98599873D01*
X42863377Y-98934798D01*
X42578548Y-99219627D01*
X42243623Y-99443417D01*
X42089474Y-99507267D01*
X41871474Y-99597566D01*
X41476406Y-99676150D01*
X41073594Y-99676150D01*
X40678526Y-99597566D01*
X40460526Y-99507267D01*
X40306377Y-99443417D01*
X39971452Y-99219627D01*
X39686623Y-98934798D01*
X39462833Y-98599873D01*
X39359549Y-98350522D01*
X39308684Y-98227724D01*
X39230100Y-97832656D01*
X39230100Y-97429844D01*
X39308684Y-97034776D01*
X39403187Y-96806627D01*
X39462833Y-96662627D01*
X39686623Y-96327702D01*
X39971452Y-96042873D01*
X40306377Y-95819083D01*
X40460526Y-95755233D01*
X40678526Y-95664934D01*
X41073594Y-95586350D01*
X41476406Y-95586350D01*
X41871474Y-95664934D01*
X41871474Y-95664934D01*
G37*
G36*
X79971474Y-95664934D02*
G01*
X80189474Y-95755233D01*
X80343623Y-95819083D01*
X80678548Y-96042873D01*
X80963377Y-96327702D01*
X81187167Y-96662627D01*
X81246813Y-96806627D01*
X81341316Y-97034776D01*
X81419900Y-97429844D01*
X81419900Y-97832656D01*
X81341316Y-98227724D01*
X81290451Y-98350522D01*
X81187167Y-98599873D01*
X80963377Y-98934798D01*
X80678548Y-99219627D01*
X80343623Y-99443417D01*
X80189474Y-99507267D01*
X79971474Y-99597566D01*
X79576406Y-99676150D01*
X79173594Y-99676150D01*
X78778526Y-99597566D01*
X78560526Y-99507267D01*
X78406377Y-99443417D01*
X78071452Y-99219627D01*
X77786623Y-98934798D01*
X77562833Y-98599873D01*
X77459549Y-98350522D01*
X77408684Y-98227724D01*
X77330100Y-97832656D01*
X77330100Y-97429844D01*
X77408684Y-97034776D01*
X77503187Y-96806627D01*
X77562833Y-96662627D01*
X77786623Y-96327702D01*
X78071452Y-96042873D01*
X78406377Y-95819083D01*
X78560526Y-95755233D01*
X78778526Y-95664934D01*
X79173594Y-95586350D01*
X79576406Y-95586350D01*
X79971474Y-95664934D01*
X79971474Y-95664934D01*
G37*
G36*
X36465104Y-96740835D02*
G01*
X36633626Y-96810639D01*
X36785291Y-96911978D01*
X36914272Y-97040959D01*
X37015611Y-97192624D01*
X37085415Y-97361146D01*
X37121000Y-97540047D01*
X37121000Y-97722453D01*
X37085415Y-97901354D01*
X37015611Y-98069876D01*
X36914272Y-98221541D01*
X36785291Y-98350522D01*
X36633626Y-98451861D01*
X36465104Y-98521665D01*
X36286203Y-98557250D01*
X36103797Y-98557250D01*
X35924896Y-98521665D01*
X35756374Y-98451861D01*
X35604709Y-98350522D01*
X35475728Y-98221541D01*
X35374389Y-98069876D01*
X35304585Y-97901354D01*
X35269000Y-97722453D01*
X35269000Y-97540047D01*
X35304585Y-97361146D01*
X35374389Y-97192624D01*
X35475728Y-97040959D01*
X35604709Y-96911978D01*
X35756374Y-96810639D01*
X35924896Y-96740835D01*
X36103797Y-96705250D01*
X36286203Y-96705250D01*
X36465104Y-96740835D01*
X36465104Y-96740835D01*
G37*
G36*
X46625104Y-96740835D02*
G01*
X46793626Y-96810639D01*
X46945291Y-96911978D01*
X47074272Y-97040959D01*
X47175611Y-97192624D01*
X47245415Y-97361146D01*
X47281000Y-97540047D01*
X47281000Y-97722453D01*
X47245415Y-97901354D01*
X47175611Y-98069876D01*
X47074272Y-98221541D01*
X46945291Y-98350522D01*
X46793626Y-98451861D01*
X46625104Y-98521665D01*
X46446203Y-98557250D01*
X46263797Y-98557250D01*
X46084896Y-98521665D01*
X45916374Y-98451861D01*
X45764709Y-98350522D01*
X45635728Y-98221541D01*
X45534389Y-98069876D01*
X45464585Y-97901354D01*
X45429000Y-97722453D01*
X45429000Y-97540047D01*
X45464585Y-97361146D01*
X45534389Y-97192624D01*
X45635728Y-97040959D01*
X45764709Y-96911978D01*
X45916374Y-96810639D01*
X46084896Y-96740835D01*
X46263797Y-96705250D01*
X46446203Y-96705250D01*
X46625104Y-96740835D01*
X46625104Y-96740835D01*
G37*
G36*
X65675104Y-96740835D02*
G01*
X65843626Y-96810639D01*
X65995291Y-96911978D01*
X66124272Y-97040959D01*
X66225611Y-97192624D01*
X66295415Y-97361146D01*
X66331000Y-97540047D01*
X66331000Y-97722453D01*
X66295415Y-97901354D01*
X66225611Y-98069876D01*
X66124272Y-98221541D01*
X65995291Y-98350522D01*
X65843626Y-98451861D01*
X65675104Y-98521665D01*
X65496203Y-98557250D01*
X65313797Y-98557250D01*
X65134896Y-98521665D01*
X64966374Y-98451861D01*
X64814709Y-98350522D01*
X64685728Y-98221541D01*
X64584389Y-98069876D01*
X64514585Y-97901354D01*
X64479000Y-97722453D01*
X64479000Y-97540047D01*
X64514585Y-97361146D01*
X64584389Y-97192624D01*
X64685728Y-97040959D01*
X64814709Y-96911978D01*
X64966374Y-96810639D01*
X65134896Y-96740835D01*
X65313797Y-96705250D01*
X65496203Y-96705250D01*
X65675104Y-96740835D01*
X65675104Y-96740835D01*
G37*
G36*
X55515104Y-96740835D02*
G01*
X55683626Y-96810639D01*
X55835291Y-96911978D01*
X55964272Y-97040959D01*
X56065611Y-97192624D01*
X56135415Y-97361146D01*
X56171000Y-97540047D01*
X56171000Y-97722453D01*
X56135415Y-97901354D01*
X56065611Y-98069876D01*
X55964272Y-98221541D01*
X55835291Y-98350522D01*
X55683626Y-98451861D01*
X55515104Y-98521665D01*
X55336203Y-98557250D01*
X55153797Y-98557250D01*
X54974896Y-98521665D01*
X54806374Y-98451861D01*
X54654709Y-98350522D01*
X54525728Y-98221541D01*
X54424389Y-98069876D01*
X54354585Y-97901354D01*
X54319000Y-97722453D01*
X54319000Y-97540047D01*
X54354585Y-97361146D01*
X54424389Y-97192624D01*
X54525728Y-97040959D01*
X54654709Y-96911978D01*
X54806374Y-96810639D01*
X54974896Y-96740835D01*
X55153797Y-96705250D01*
X55336203Y-96705250D01*
X55515104Y-96740835D01*
X55515104Y-96740835D01*
G37*
G36*
X74565104Y-96740835D02*
G01*
X74733626Y-96810639D01*
X74885291Y-96911978D01*
X75014272Y-97040959D01*
X75115611Y-97192624D01*
X75185415Y-97361146D01*
X75221000Y-97540047D01*
X75221000Y-97722453D01*
X75185415Y-97901354D01*
X75115611Y-98069876D01*
X75014272Y-98221541D01*
X74885291Y-98350522D01*
X74733626Y-98451861D01*
X74565104Y-98521665D01*
X74386203Y-98557250D01*
X74203797Y-98557250D01*
X74024896Y-98521665D01*
X73856374Y-98451861D01*
X73704709Y-98350522D01*
X73575728Y-98221541D01*
X73474389Y-98069876D01*
X73404585Y-97901354D01*
X73369000Y-97722453D01*
X73369000Y-97540047D01*
X73404585Y-97361146D01*
X73474389Y-97192624D01*
X73575728Y-97040959D01*
X73704709Y-96911978D01*
X73856374Y-96810639D01*
X74024896Y-96740835D01*
X74203797Y-96705250D01*
X74386203Y-96705250D01*
X74565104Y-96740835D01*
X74565104Y-96740835D01*
G37*
G36*
X84725104Y-96740835D02*
G01*
X84893626Y-96810639D01*
X85045291Y-96911978D01*
X85174272Y-97040959D01*
X85275611Y-97192624D01*
X85345415Y-97361146D01*
X85381000Y-97540047D01*
X85381000Y-97722453D01*
X85345415Y-97901354D01*
X85275611Y-98069876D01*
X85174272Y-98221541D01*
X85045291Y-98350522D01*
X84893626Y-98451861D01*
X84725104Y-98521665D01*
X84546203Y-98557250D01*
X84363797Y-98557250D01*
X84184896Y-98521665D01*
X84016374Y-98451861D01*
X83864709Y-98350522D01*
X83735728Y-98221541D01*
X83634389Y-98069876D01*
X83564585Y-97901354D01*
X83529000Y-97722453D01*
X83529000Y-97540047D01*
X83564585Y-97361146D01*
X83634389Y-97192624D01*
X83735728Y-97040959D01*
X83864709Y-96911978D01*
X84016374Y-96810639D01*
X84184896Y-96740835D01*
X84363797Y-96705250D01*
X84546203Y-96705250D01*
X84725104Y-96740835D01*
X84725104Y-96740835D01*
G37*
G36*
X122771000Y-98006000D02*
G01*
X121069000Y-98006000D01*
X121069000Y-96304000D01*
X122771000Y-96304000D01*
X122771000Y-98006000D01*
X122771000Y-98006000D01*
G37*
G36*
X114466823Y-96316313D02*
G01*
X114627242Y-96364976D01*
X114759906Y-96435886D01*
X114775078Y-96443996D01*
X114904659Y-96550341D01*
X115011004Y-96679922D01*
X115011005Y-96679924D01*
X115090024Y-96827758D01*
X115138687Y-96988177D01*
X115155117Y-97155000D01*
X115138687Y-97321823D01*
X115090024Y-97482242D01*
X115019114Y-97614906D01*
X115011004Y-97630078D01*
X114904659Y-97759659D01*
X114775078Y-97866004D01*
X114775076Y-97866005D01*
X114627242Y-97945024D01*
X114466823Y-97993687D01*
X114341804Y-98006000D01*
X114258196Y-98006000D01*
X114133177Y-97993687D01*
X113972758Y-97945024D01*
X113824924Y-97866005D01*
X113824922Y-97866004D01*
X113695341Y-97759659D01*
X113588996Y-97630078D01*
X113580886Y-97614906D01*
X113509976Y-97482242D01*
X113461313Y-97321823D01*
X113444883Y-97155000D01*
X113461313Y-96988177D01*
X113509976Y-96827758D01*
X113588995Y-96679924D01*
X113588996Y-96679922D01*
X113695341Y-96550341D01*
X113824922Y-96443996D01*
X113840094Y-96435886D01*
X113972758Y-96364976D01*
X114133177Y-96316313D01*
X114258196Y-96304000D01*
X114341804Y-96304000D01*
X114466823Y-96316313D01*
X114466823Y-96316313D01*
G37*
G36*
X107276474Y-93251934D02*
G01*
X107494474Y-93342233D01*
X107648623Y-93406083D01*
X107983548Y-93629873D01*
X108268377Y-93914702D01*
X108492167Y-94249627D01*
X108556017Y-94403776D01*
X108646316Y-94621776D01*
X108724900Y-95016844D01*
X108724900Y-95419656D01*
X108646316Y-95814724D01*
X108567621Y-96004711D01*
X108492167Y-96186873D01*
X108268377Y-96521798D01*
X107983548Y-96806627D01*
X107648623Y-97030417D01*
X107494474Y-97094267D01*
X107276474Y-97184566D01*
X106881406Y-97263150D01*
X106478594Y-97263150D01*
X106083526Y-97184566D01*
X105865526Y-97094267D01*
X105711377Y-97030417D01*
X105376452Y-96806627D01*
X105091623Y-96521798D01*
X104867833Y-96186873D01*
X104792379Y-96004711D01*
X104713684Y-95814724D01*
X104635100Y-95419656D01*
X104635100Y-95016844D01*
X104713684Y-94621776D01*
X104803983Y-94403776D01*
X104867833Y-94249627D01*
X105091623Y-93914702D01*
X105376452Y-93629873D01*
X105711377Y-93406083D01*
X105865526Y-93342233D01*
X106083526Y-93251934D01*
X106478594Y-93173350D01*
X106881406Y-93173350D01*
X107276474Y-93251934D01*
X107276474Y-93251934D01*
G37*
G36*
X91747267Y-93673513D02*
G01*
X91899411Y-93703776D01*
X92018137Y-93752954D01*
X92186041Y-93822502D01*
X92271639Y-93879697D01*
X92444004Y-93994867D01*
X92663383Y-94214246D01*
X92687024Y-94249628D01*
X92835748Y-94472209D01*
X92861427Y-94534204D01*
X92950078Y-94748225D01*
X92954474Y-94758840D01*
X93015000Y-95063125D01*
X93015000Y-95373375D01*
X93008704Y-95405025D01*
X92957006Y-95664934D01*
X92954474Y-95677660D01*
X92835748Y-95964291D01*
X92808740Y-96004711D01*
X92663383Y-96222254D01*
X92444004Y-96441633D01*
X92324028Y-96521798D01*
X92186041Y-96613998D01*
X92068637Y-96662628D01*
X91899411Y-96732724D01*
X91595125Y-96793250D01*
X91284875Y-96793250D01*
X90980589Y-96732724D01*
X90811363Y-96662628D01*
X90693959Y-96613998D01*
X90555972Y-96521798D01*
X90435996Y-96441633D01*
X90216617Y-96222254D01*
X90071260Y-96004711D01*
X90044252Y-95964291D01*
X89925526Y-95677660D01*
X89922995Y-95664934D01*
X89871296Y-95405025D01*
X89865000Y-95373375D01*
X89865000Y-95063125D01*
X89925526Y-94758840D01*
X89929923Y-94748225D01*
X90018573Y-94534204D01*
X90044252Y-94472209D01*
X90192976Y-94249628D01*
X90216617Y-94214246D01*
X90435996Y-93994867D01*
X90608361Y-93879697D01*
X90693959Y-93822502D01*
X90861863Y-93752954D01*
X90980589Y-93703776D01*
X91284875Y-93643250D01*
X91595125Y-93643250D01*
X91747267Y-93673513D01*
X91747267Y-93673513D01*
G37*
G36*
X37656560Y-93930314D02*
G01*
X37808027Y-93960443D01*
X38022045Y-94049092D01*
X38022046Y-94049093D01*
X38214654Y-94177789D01*
X38378461Y-94341596D01*
X38449676Y-94448177D01*
X38507158Y-94534205D01*
X38595807Y-94748223D01*
X38641000Y-94975424D01*
X38641000Y-95207076D01*
X38595807Y-95434277D01*
X38507158Y-95648295D01*
X38507157Y-95648296D01*
X38378461Y-95840904D01*
X38214654Y-96004711D01*
X38157540Y-96042873D01*
X38022045Y-96133408D01*
X37808027Y-96222057D01*
X37656560Y-96252186D01*
X37580827Y-96267250D01*
X37349173Y-96267250D01*
X37273440Y-96252186D01*
X37121973Y-96222057D01*
X36907955Y-96133408D01*
X36772460Y-96042873D01*
X36715346Y-96004711D01*
X36551539Y-95840904D01*
X36422843Y-95648296D01*
X36422842Y-95648295D01*
X36334193Y-95434277D01*
X36289000Y-95207076D01*
X36289000Y-94975424D01*
X36334193Y-94748223D01*
X36422842Y-94534205D01*
X36480324Y-94448177D01*
X36551539Y-94341596D01*
X36715346Y-94177789D01*
X36907954Y-94049093D01*
X36907955Y-94049092D01*
X37121973Y-93960443D01*
X37273440Y-93930314D01*
X37349173Y-93915250D01*
X37580827Y-93915250D01*
X37656560Y-93930314D01*
X37656560Y-93930314D01*
G37*
G36*
X75756560Y-93930314D02*
G01*
X75908027Y-93960443D01*
X76122045Y-94049092D01*
X76122046Y-94049093D01*
X76314654Y-94177789D01*
X76478461Y-94341596D01*
X76549676Y-94448177D01*
X76607158Y-94534205D01*
X76695807Y-94748223D01*
X76741000Y-94975424D01*
X76741000Y-95207076D01*
X76695807Y-95434277D01*
X76607158Y-95648295D01*
X76607157Y-95648296D01*
X76478461Y-95840904D01*
X76314654Y-96004711D01*
X76257540Y-96042873D01*
X76122045Y-96133408D01*
X75908027Y-96222057D01*
X75756560Y-96252186D01*
X75680827Y-96267250D01*
X75449173Y-96267250D01*
X75373440Y-96252186D01*
X75221973Y-96222057D01*
X75007955Y-96133408D01*
X74872460Y-96042873D01*
X74815346Y-96004711D01*
X74651539Y-95840904D01*
X74522843Y-95648296D01*
X74522842Y-95648295D01*
X74434193Y-95434277D01*
X74389000Y-95207076D01*
X74389000Y-94975424D01*
X74434193Y-94748223D01*
X74522842Y-94534205D01*
X74580324Y-94448177D01*
X74651539Y-94341596D01*
X74815346Y-94177789D01*
X75007954Y-94049093D01*
X75007955Y-94049092D01*
X75221973Y-93960443D01*
X75373440Y-93930314D01*
X75449173Y-93915250D01*
X75680827Y-93915250D01*
X75756560Y-93930314D01*
X75756560Y-93930314D01*
G37*
G36*
X56706560Y-93930314D02*
G01*
X56858027Y-93960443D01*
X57072045Y-94049092D01*
X57072046Y-94049093D01*
X57264654Y-94177789D01*
X57428461Y-94341596D01*
X57499676Y-94448177D01*
X57557158Y-94534205D01*
X57645807Y-94748223D01*
X57691000Y-94975424D01*
X57691000Y-95207076D01*
X57645807Y-95434277D01*
X57557158Y-95648295D01*
X57557157Y-95648296D01*
X57428461Y-95840904D01*
X57264654Y-96004711D01*
X57207540Y-96042873D01*
X57072045Y-96133408D01*
X56858027Y-96222057D01*
X56706560Y-96252186D01*
X56630827Y-96267250D01*
X56399173Y-96267250D01*
X56323440Y-96252186D01*
X56171973Y-96222057D01*
X55957955Y-96133408D01*
X55822460Y-96042873D01*
X55765346Y-96004711D01*
X55601539Y-95840904D01*
X55472843Y-95648296D01*
X55472842Y-95648295D01*
X55384193Y-95434277D01*
X55339000Y-95207076D01*
X55339000Y-94975424D01*
X55384193Y-94748223D01*
X55472842Y-94534205D01*
X55530324Y-94448177D01*
X55601539Y-94341596D01*
X55765346Y-94177789D01*
X55957954Y-94049093D01*
X55957955Y-94049092D01*
X56171973Y-93960443D01*
X56323440Y-93930314D01*
X56399173Y-93915250D01*
X56630827Y-93915250D01*
X56706560Y-93930314D01*
X56706560Y-93930314D01*
G37*
G36*
X114466823Y-93776313D02*
G01*
X114597380Y-93815917D01*
X114619087Y-93822502D01*
X114627242Y-93824976D01*
X114759906Y-93895886D01*
X114775078Y-93903996D01*
X114904659Y-94010341D01*
X115011004Y-94139922D01*
X115011005Y-94139924D01*
X115090024Y-94287758D01*
X115138687Y-94448177D01*
X115155117Y-94615000D01*
X115138687Y-94781823D01*
X115090024Y-94942242D01*
X115050148Y-95016844D01*
X115011004Y-95090078D01*
X114904659Y-95219659D01*
X114775078Y-95326004D01*
X114775076Y-95326005D01*
X114627242Y-95405024D01*
X114466823Y-95453687D01*
X114341804Y-95466000D01*
X114258196Y-95466000D01*
X114133177Y-95453687D01*
X113972758Y-95405024D01*
X113824924Y-95326005D01*
X113824922Y-95326004D01*
X113695341Y-95219659D01*
X113588996Y-95090078D01*
X113549852Y-95016844D01*
X113509976Y-94942242D01*
X113461313Y-94781823D01*
X113444883Y-94615000D01*
X113461313Y-94448177D01*
X113509976Y-94287758D01*
X113588995Y-94139924D01*
X113588996Y-94139922D01*
X113695341Y-94010341D01*
X113824922Y-93903996D01*
X113840094Y-93895886D01*
X113972758Y-93824976D01*
X113980914Y-93822502D01*
X114002620Y-93815917D01*
X114133177Y-93776313D01*
X114258196Y-93764000D01*
X114341804Y-93764000D01*
X114466823Y-93776313D01*
X114466823Y-93776313D01*
G37*
G36*
X122771000Y-95466000D02*
G01*
X121069000Y-95466000D01*
X121069000Y-93764000D01*
X122771000Y-93764000D01*
X122771000Y-95466000D01*
X122771000Y-95466000D01*
G37*
G36*
X44006560Y-91390314D02*
G01*
X44158027Y-91420443D01*
X44372045Y-91509092D01*
X44372046Y-91509093D01*
X44564654Y-91637789D01*
X44728461Y-91801596D01*
X44799676Y-91908177D01*
X44857158Y-91994205D01*
X44945807Y-92208223D01*
X44991000Y-92435424D01*
X44991000Y-92667076D01*
X44945807Y-92894277D01*
X44857158Y-93108295D01*
X44857157Y-93108296D01*
X44728461Y-93300904D01*
X44564654Y-93464711D01*
X44436249Y-93550508D01*
X44372045Y-93593408D01*
X44158027Y-93682057D01*
X44006560Y-93712186D01*
X43930827Y-93727250D01*
X43699173Y-93727250D01*
X43623440Y-93712186D01*
X43471973Y-93682057D01*
X43257955Y-93593408D01*
X43193751Y-93550508D01*
X43065346Y-93464711D01*
X42901539Y-93300904D01*
X42772843Y-93108296D01*
X42772842Y-93108295D01*
X42684193Y-92894277D01*
X42639000Y-92667076D01*
X42639000Y-92435424D01*
X42684193Y-92208223D01*
X42772842Y-91994205D01*
X42830324Y-91908177D01*
X42901539Y-91801596D01*
X43065346Y-91637789D01*
X43257954Y-91509093D01*
X43257955Y-91509092D01*
X43471973Y-91420443D01*
X43623440Y-91390314D01*
X43699173Y-91375250D01*
X43930827Y-91375250D01*
X44006560Y-91390314D01*
X44006560Y-91390314D01*
G37*
G36*
X63056560Y-91390314D02*
G01*
X63208027Y-91420443D01*
X63422045Y-91509092D01*
X63422046Y-91509093D01*
X63614654Y-91637789D01*
X63778461Y-91801596D01*
X63849676Y-91908177D01*
X63907158Y-91994205D01*
X63995807Y-92208223D01*
X64041000Y-92435424D01*
X64041000Y-92667076D01*
X63995807Y-92894277D01*
X63907158Y-93108295D01*
X63907157Y-93108296D01*
X63778461Y-93300904D01*
X63614654Y-93464711D01*
X63486249Y-93550508D01*
X63422045Y-93593408D01*
X63208027Y-93682057D01*
X63056560Y-93712186D01*
X62980827Y-93727250D01*
X62749173Y-93727250D01*
X62673440Y-93712186D01*
X62521973Y-93682057D01*
X62307955Y-93593408D01*
X62243751Y-93550508D01*
X62115346Y-93464711D01*
X61951539Y-93300904D01*
X61822843Y-93108296D01*
X61822842Y-93108295D01*
X61734193Y-92894277D01*
X61689000Y-92667076D01*
X61689000Y-92435424D01*
X61734193Y-92208223D01*
X61822842Y-91994205D01*
X61880324Y-91908177D01*
X61951539Y-91801596D01*
X62115346Y-91637789D01*
X62307954Y-91509093D01*
X62307955Y-91509092D01*
X62521973Y-91420443D01*
X62673440Y-91390314D01*
X62749173Y-91375250D01*
X62980827Y-91375250D01*
X63056560Y-91390314D01*
X63056560Y-91390314D01*
G37*
G36*
X82106560Y-91390314D02*
G01*
X82258027Y-91420443D01*
X82472045Y-91509092D01*
X82472046Y-91509093D01*
X82664654Y-91637789D01*
X82828461Y-91801596D01*
X82899676Y-91908177D01*
X82957158Y-91994205D01*
X83045807Y-92208223D01*
X83091000Y-92435424D01*
X83091000Y-92667076D01*
X83045807Y-92894277D01*
X82957158Y-93108295D01*
X82957157Y-93108296D01*
X82828461Y-93300904D01*
X82664654Y-93464711D01*
X82536249Y-93550508D01*
X82472045Y-93593408D01*
X82258027Y-93682057D01*
X82106560Y-93712186D01*
X82030827Y-93727250D01*
X81799173Y-93727250D01*
X81723440Y-93712186D01*
X81571973Y-93682057D01*
X81357955Y-93593408D01*
X81293751Y-93550508D01*
X81165346Y-93464711D01*
X81001539Y-93300904D01*
X80872843Y-93108296D01*
X80872842Y-93108295D01*
X80784193Y-92894277D01*
X80739000Y-92667076D01*
X80739000Y-92435424D01*
X80784193Y-92208223D01*
X80872842Y-91994205D01*
X80930324Y-91908177D01*
X81001539Y-91801596D01*
X81165346Y-91637789D01*
X81357954Y-91509093D01*
X81357955Y-91509092D01*
X81571973Y-91420443D01*
X81723440Y-91390314D01*
X81799173Y-91375250D01*
X82030827Y-91375250D01*
X82106560Y-91390314D01*
X82106560Y-91390314D01*
G37*
G36*
X114466823Y-91236313D02*
G01*
X114627242Y-91284976D01*
X114759906Y-91355886D01*
X114775078Y-91363996D01*
X114904659Y-91470341D01*
X115011004Y-91599922D01*
X115011005Y-91599924D01*
X115090024Y-91747758D01*
X115138687Y-91908177D01*
X115155117Y-92075000D01*
X115138687Y-92241823D01*
X115090024Y-92402242D01*
X115019114Y-92534906D01*
X115011004Y-92550078D01*
X114904659Y-92679659D01*
X114775078Y-92786004D01*
X114775076Y-92786005D01*
X114627242Y-92865024D01*
X114466823Y-92913687D01*
X114341804Y-92926000D01*
X114258196Y-92926000D01*
X114133177Y-92913687D01*
X113972758Y-92865024D01*
X113824924Y-92786005D01*
X113824922Y-92786004D01*
X113695341Y-92679659D01*
X113588996Y-92550078D01*
X113580886Y-92534906D01*
X113509976Y-92402242D01*
X113461313Y-92241823D01*
X113444883Y-92075000D01*
X113461313Y-91908177D01*
X113509976Y-91747758D01*
X113588995Y-91599924D01*
X113588996Y-91599922D01*
X113695341Y-91470341D01*
X113824922Y-91363996D01*
X113840094Y-91355886D01*
X113972758Y-91284976D01*
X114133177Y-91236313D01*
X114258196Y-91224000D01*
X114341804Y-91224000D01*
X114466823Y-91236313D01*
X114466823Y-91236313D01*
G37*
G36*
X122771000Y-92926000D02*
G01*
X121069000Y-92926000D01*
X121069000Y-91224000D01*
X122771000Y-91224000D01*
X122771000Y-92926000D01*
X122771000Y-92926000D01*
G37*
G36*
X122771000Y-90386000D02*
G01*
X121069000Y-90386000D01*
X121069000Y-88684000D01*
X122771000Y-88684000D01*
X122771000Y-90386000D01*
X122771000Y-90386000D01*
G37*
G36*
X114466823Y-88696313D02*
G01*
X114627242Y-88744976D01*
X114759906Y-88815886D01*
X114775078Y-88823996D01*
X114904659Y-88930341D01*
X115011004Y-89059922D01*
X115011005Y-89059924D01*
X115090024Y-89207758D01*
X115138687Y-89368177D01*
X115155117Y-89535000D01*
X115138687Y-89701823D01*
X115090024Y-89862242D01*
X115019114Y-89994906D01*
X115011004Y-90010078D01*
X114904659Y-90139659D01*
X114775078Y-90246004D01*
X114775076Y-90246005D01*
X114627242Y-90325024D01*
X114466823Y-90373687D01*
X114341804Y-90386000D01*
X114258196Y-90386000D01*
X114133177Y-90373687D01*
X113972758Y-90325024D01*
X113824924Y-90246005D01*
X113824922Y-90246004D01*
X113695341Y-90139659D01*
X113588996Y-90010078D01*
X113580886Y-89994906D01*
X113509976Y-89862242D01*
X113461313Y-89701823D01*
X113444883Y-89535000D01*
X113461313Y-89368177D01*
X113509976Y-89207758D01*
X113588995Y-89059924D01*
X113588996Y-89059922D01*
X113695341Y-88930341D01*
X113824922Y-88823996D01*
X113840094Y-88815886D01*
X113972758Y-88744976D01*
X114133177Y-88696313D01*
X114258196Y-88684000D01*
X114341804Y-88684000D01*
X114466823Y-88696313D01*
X114466823Y-88696313D01*
G37*
G36*
X122771000Y-87846000D02*
G01*
X121069000Y-87846000D01*
X121069000Y-86144000D01*
X122771000Y-86144000D01*
X122771000Y-87846000D01*
X122771000Y-87846000D01*
G37*
G36*
X114466823Y-86156313D02*
G01*
X114627242Y-86204976D01*
X114759906Y-86275886D01*
X114775078Y-86283996D01*
X114904659Y-86390341D01*
X115011004Y-86519922D01*
X115011005Y-86519924D01*
X115090024Y-86667758D01*
X115138687Y-86828177D01*
X115155117Y-86995000D01*
X115138687Y-87161823D01*
X115090024Y-87322242D01*
X115019114Y-87454906D01*
X115011004Y-87470078D01*
X114904659Y-87599659D01*
X114775078Y-87706004D01*
X114775076Y-87706005D01*
X114627242Y-87785024D01*
X114466823Y-87833687D01*
X114341804Y-87846000D01*
X114258196Y-87846000D01*
X114133177Y-87833687D01*
X113972758Y-87785024D01*
X113824924Y-87706005D01*
X113824922Y-87706004D01*
X113695341Y-87599659D01*
X113588996Y-87470078D01*
X113580886Y-87454906D01*
X113509976Y-87322242D01*
X113461313Y-87161823D01*
X113444883Y-86995000D01*
X113461313Y-86828177D01*
X113509976Y-86667758D01*
X113588995Y-86519924D01*
X113588996Y-86519922D01*
X113695341Y-86390341D01*
X113824922Y-86283996D01*
X113840094Y-86275886D01*
X113972758Y-86204976D01*
X114133177Y-86156313D01*
X114258196Y-86144000D01*
X114341804Y-86144000D01*
X114466823Y-86156313D01*
X114466823Y-86156313D01*
G37*
G36*
X114466823Y-83616313D02*
G01*
X114627242Y-83664976D01*
X114759906Y-83735886D01*
X114775078Y-83743996D01*
X114904659Y-83850341D01*
X115011004Y-83979922D01*
X115011005Y-83979924D01*
X115090024Y-84127758D01*
X115138687Y-84288177D01*
X115155117Y-84455000D01*
X115138687Y-84621823D01*
X115090024Y-84782242D01*
X115019114Y-84914906D01*
X115011004Y-84930078D01*
X114904659Y-85059659D01*
X114775078Y-85166004D01*
X114775076Y-85166005D01*
X114627242Y-85245024D01*
X114466823Y-85293687D01*
X114341804Y-85306000D01*
X114258196Y-85306000D01*
X114133177Y-85293687D01*
X113972758Y-85245024D01*
X113824924Y-85166005D01*
X113824922Y-85166004D01*
X113695341Y-85059659D01*
X113588996Y-84930078D01*
X113580886Y-84914906D01*
X113509976Y-84782242D01*
X113461313Y-84621823D01*
X113444883Y-84455000D01*
X113461313Y-84288177D01*
X113509976Y-84127758D01*
X113588995Y-83979924D01*
X113588996Y-83979922D01*
X113695341Y-83850341D01*
X113824922Y-83743996D01*
X113840094Y-83735886D01*
X113972758Y-83664976D01*
X114133177Y-83616313D01*
X114258196Y-83604000D01*
X114341804Y-83604000D01*
X114466823Y-83616313D01*
X114466823Y-83616313D01*
G37*
G36*
X122771000Y-85306000D02*
G01*
X121069000Y-85306000D01*
X121069000Y-83604000D01*
X122771000Y-83604000D01*
X122771000Y-85306000D01*
X122771000Y-85306000D01*
G37*
G36*
X107276474Y-79027934D02*
G01*
X107494474Y-79118233D01*
X107648623Y-79182083D01*
X107983548Y-79405873D01*
X108268377Y-79690702D01*
X108492167Y-80025627D01*
X108492167Y-80025628D01*
X108646316Y-80397776D01*
X108724900Y-80792844D01*
X108724900Y-81195656D01*
X108646316Y-81590724D01*
X108581097Y-81748177D01*
X108492167Y-81962873D01*
X108268377Y-82297798D01*
X107983548Y-82582627D01*
X107648623Y-82806417D01*
X107494474Y-82870267D01*
X107276474Y-82960566D01*
X106881406Y-83039150D01*
X106478594Y-83039150D01*
X106083526Y-82960566D01*
X105865526Y-82870267D01*
X105711377Y-82806417D01*
X105376452Y-82582627D01*
X105091623Y-82297798D01*
X104867833Y-81962873D01*
X104778903Y-81748177D01*
X104713684Y-81590724D01*
X104635100Y-81195656D01*
X104635100Y-80792844D01*
X104713684Y-80397776D01*
X104867833Y-80025628D01*
X104867833Y-80025627D01*
X105091623Y-79690702D01*
X105376452Y-79405873D01*
X105711377Y-79182083D01*
X105865526Y-79118233D01*
X106083526Y-79027934D01*
X106478594Y-78949350D01*
X106881406Y-78949350D01*
X107276474Y-79027934D01*
X107276474Y-79027934D01*
G37*
G36*
X114466823Y-81076313D02*
G01*
X114627242Y-81124976D01*
X114672887Y-81149374D01*
X114775078Y-81203996D01*
X114904659Y-81310341D01*
X115011004Y-81439922D01*
X115011005Y-81439924D01*
X115090024Y-81587758D01*
X115138687Y-81748177D01*
X115155117Y-81915000D01*
X115138687Y-82081823D01*
X115090024Y-82242242D01*
X115019114Y-82374906D01*
X115011004Y-82390078D01*
X114904659Y-82519659D01*
X114775078Y-82626004D01*
X114775076Y-82626005D01*
X114627242Y-82705024D01*
X114466823Y-82753687D01*
X114341804Y-82766000D01*
X114258196Y-82766000D01*
X114133177Y-82753687D01*
X113972758Y-82705024D01*
X113824924Y-82626005D01*
X113824922Y-82626004D01*
X113695341Y-82519659D01*
X113588996Y-82390078D01*
X113580886Y-82374906D01*
X113509976Y-82242242D01*
X113461313Y-82081823D01*
X113444883Y-81915000D01*
X113461313Y-81748177D01*
X113509976Y-81587758D01*
X113588995Y-81439924D01*
X113588996Y-81439922D01*
X113695341Y-81310341D01*
X113824922Y-81203996D01*
X113927113Y-81149374D01*
X113972758Y-81124976D01*
X114133177Y-81076313D01*
X114258196Y-81064000D01*
X114341804Y-81064000D01*
X114466823Y-81076313D01*
X114466823Y-81076313D01*
G37*
G36*
X122771000Y-82766000D02*
G01*
X121069000Y-82766000D01*
X121069000Y-81064000D01*
X122771000Y-81064000D01*
X122771000Y-82766000D01*
X122771000Y-82766000D01*
G37*
G36*
X91747267Y-79449513D02*
G01*
X91899411Y-79479776D01*
X92018137Y-79528954D01*
X92186041Y-79598502D01*
X92186042Y-79598503D01*
X92444004Y-79770867D01*
X92663383Y-79990246D01*
X92687024Y-80025628D01*
X92835748Y-80248209D01*
X92895895Y-80393417D01*
X92954474Y-80534839D01*
X92972637Y-80626150D01*
X93015000Y-80839125D01*
X93015000Y-81149375D01*
X92954474Y-81453660D01*
X92835748Y-81740291D01*
X92778553Y-81825889D01*
X92663383Y-81998254D01*
X92444004Y-82217633D01*
X92324028Y-82297798D01*
X92186041Y-82389998D01*
X92018137Y-82459546D01*
X91899411Y-82508724D01*
X91747267Y-82538987D01*
X91595125Y-82569250D01*
X91284875Y-82569250D01*
X91132733Y-82538987D01*
X90980589Y-82508724D01*
X90861863Y-82459546D01*
X90693959Y-82389998D01*
X90555972Y-82297798D01*
X90435996Y-82217633D01*
X90216617Y-81998254D01*
X90101447Y-81825889D01*
X90044252Y-81740291D01*
X89925526Y-81453660D01*
X89865000Y-81149375D01*
X89865000Y-80839125D01*
X89907363Y-80626150D01*
X89925526Y-80534839D01*
X89984105Y-80393417D01*
X90044252Y-80248209D01*
X90192976Y-80025628D01*
X90216617Y-79990246D01*
X90435996Y-79770867D01*
X90693958Y-79598503D01*
X90693959Y-79598502D01*
X90861863Y-79528954D01*
X90980589Y-79479776D01*
X91132733Y-79449513D01*
X91284875Y-79419250D01*
X91595125Y-79419250D01*
X91747267Y-79449513D01*
X91747267Y-79449513D01*
G37*
G36*
X79971474Y-76614934D02*
G01*
X80189474Y-76705233D01*
X80343623Y-76769083D01*
X80678548Y-76992873D01*
X80963377Y-77277702D01*
X81187167Y-77612627D01*
X81219562Y-77690836D01*
X81341316Y-77984776D01*
X81419900Y-78379844D01*
X81419900Y-78782656D01*
X81341316Y-79177724D01*
X81290451Y-79300522D01*
X81187167Y-79549873D01*
X80963377Y-79884798D01*
X80678548Y-80169627D01*
X80343623Y-80393417D01*
X80189474Y-80457267D01*
X79971474Y-80547566D01*
X79576406Y-80626150D01*
X79173594Y-80626150D01*
X78778526Y-80547566D01*
X78560526Y-80457267D01*
X78406377Y-80393417D01*
X78071452Y-80169627D01*
X77786623Y-79884798D01*
X77562833Y-79549873D01*
X77459549Y-79300522D01*
X77408684Y-79177724D01*
X77330100Y-78782656D01*
X77330100Y-78379844D01*
X77408684Y-77984776D01*
X77530438Y-77690836D01*
X77562833Y-77612627D01*
X77786623Y-77277702D01*
X78071452Y-76992873D01*
X78406377Y-76769083D01*
X78560526Y-76705233D01*
X78778526Y-76614934D01*
X79173594Y-76536350D01*
X79576406Y-76536350D01*
X79971474Y-76614934D01*
X79971474Y-76614934D01*
G37*
G36*
X60921474Y-76614934D02*
G01*
X61139474Y-76705233D01*
X61293623Y-76769083D01*
X61628548Y-76992873D01*
X61913377Y-77277702D01*
X62137167Y-77612627D01*
X62169562Y-77690836D01*
X62291316Y-77984776D01*
X62369900Y-78379844D01*
X62369900Y-78782656D01*
X62291316Y-79177724D01*
X62240451Y-79300522D01*
X62137167Y-79549873D01*
X61913377Y-79884798D01*
X61628548Y-80169627D01*
X61293623Y-80393417D01*
X61139474Y-80457267D01*
X60921474Y-80547566D01*
X60526406Y-80626150D01*
X60123594Y-80626150D01*
X59728526Y-80547566D01*
X59510526Y-80457267D01*
X59356377Y-80393417D01*
X59021452Y-80169627D01*
X58736623Y-79884798D01*
X58512833Y-79549873D01*
X58409549Y-79300522D01*
X58358684Y-79177724D01*
X58280100Y-78782656D01*
X58280100Y-78379844D01*
X58358684Y-77984776D01*
X58480438Y-77690836D01*
X58512833Y-77612627D01*
X58736623Y-77277702D01*
X59021452Y-76992873D01*
X59356377Y-76769083D01*
X59510526Y-76705233D01*
X59728526Y-76614934D01*
X60123594Y-76536350D01*
X60526406Y-76536350D01*
X60921474Y-76614934D01*
X60921474Y-76614934D01*
G37*
G36*
X41871474Y-76614934D02*
G01*
X42089474Y-76705233D01*
X42243623Y-76769083D01*
X42578548Y-76992873D01*
X42863377Y-77277702D01*
X43087167Y-77612627D01*
X43119562Y-77690836D01*
X43241316Y-77984776D01*
X43319900Y-78379844D01*
X43319900Y-78782656D01*
X43241316Y-79177724D01*
X43190451Y-79300522D01*
X43087167Y-79549873D01*
X42863377Y-79884798D01*
X42578548Y-80169627D01*
X42243623Y-80393417D01*
X42089474Y-80457267D01*
X41871474Y-80547566D01*
X41476406Y-80626150D01*
X41073594Y-80626150D01*
X40678526Y-80547566D01*
X40460526Y-80457267D01*
X40306377Y-80393417D01*
X39971452Y-80169627D01*
X39686623Y-79884798D01*
X39462833Y-79549873D01*
X39359549Y-79300522D01*
X39308684Y-79177724D01*
X39230100Y-78782656D01*
X39230100Y-78379844D01*
X39308684Y-77984776D01*
X39430438Y-77690836D01*
X39462833Y-77612627D01*
X39686623Y-77277702D01*
X39971452Y-76992873D01*
X40306377Y-76769083D01*
X40460526Y-76705233D01*
X40678526Y-76614934D01*
X41073594Y-76536350D01*
X41476406Y-76536350D01*
X41871474Y-76614934D01*
X41871474Y-76614934D01*
G37*
G36*
X122771000Y-80226000D02*
G01*
X121069000Y-80226000D01*
X121069000Y-78524000D01*
X122771000Y-78524000D01*
X122771000Y-80226000D01*
X122771000Y-80226000D01*
G37*
G36*
X114466823Y-78536313D02*
G01*
X114627242Y-78584976D01*
X114759906Y-78655886D01*
X114775078Y-78663996D01*
X114904659Y-78770341D01*
X115011004Y-78899922D01*
X115011005Y-78899924D01*
X115090024Y-79047758D01*
X115138687Y-79208177D01*
X115155117Y-79375000D01*
X115138687Y-79541823D01*
X115090024Y-79702242D01*
X115053343Y-79770867D01*
X115011004Y-79850078D01*
X114904659Y-79979659D01*
X114775078Y-80086004D01*
X114775076Y-80086005D01*
X114627242Y-80165024D01*
X114466823Y-80213687D01*
X114341804Y-80226000D01*
X114258196Y-80226000D01*
X114133177Y-80213687D01*
X113972758Y-80165024D01*
X113824924Y-80086005D01*
X113824922Y-80086004D01*
X113695341Y-79979659D01*
X113588996Y-79850078D01*
X113546657Y-79770867D01*
X113509976Y-79702242D01*
X113461313Y-79541823D01*
X113444883Y-79375000D01*
X113461313Y-79208177D01*
X113509976Y-79047758D01*
X113588995Y-78899924D01*
X113588996Y-78899922D01*
X113695341Y-78770341D01*
X113824922Y-78663996D01*
X113840094Y-78655886D01*
X113972758Y-78584976D01*
X114133177Y-78536313D01*
X114258196Y-78524000D01*
X114341804Y-78524000D01*
X114466823Y-78536313D01*
X114466823Y-78536313D01*
G37*
G36*
X65675104Y-77690835D02*
G01*
X65843626Y-77760639D01*
X65995291Y-77861978D01*
X66124272Y-77990959D01*
X66225611Y-78142624D01*
X66295415Y-78311146D01*
X66331000Y-78490047D01*
X66331000Y-78672453D01*
X66295415Y-78851354D01*
X66225611Y-79019876D01*
X66124272Y-79171541D01*
X65995291Y-79300522D01*
X65843626Y-79401861D01*
X65675104Y-79471665D01*
X65496203Y-79507250D01*
X65313797Y-79507250D01*
X65134896Y-79471665D01*
X64966374Y-79401861D01*
X64814709Y-79300522D01*
X64685728Y-79171541D01*
X64584389Y-79019876D01*
X64514585Y-78851354D01*
X64479000Y-78672453D01*
X64479000Y-78490047D01*
X64514585Y-78311146D01*
X64584389Y-78142624D01*
X64685728Y-77990959D01*
X64814709Y-77861978D01*
X64966374Y-77760639D01*
X65134896Y-77690835D01*
X65313797Y-77655250D01*
X65496203Y-77655250D01*
X65675104Y-77690835D01*
X65675104Y-77690835D01*
G37*
G36*
X36465104Y-77690835D02*
G01*
X36633626Y-77760639D01*
X36785291Y-77861978D01*
X36914272Y-77990959D01*
X37015611Y-78142624D01*
X37085415Y-78311146D01*
X37121000Y-78490047D01*
X37121000Y-78672453D01*
X37085415Y-78851354D01*
X37015611Y-79019876D01*
X36914272Y-79171541D01*
X36785291Y-79300522D01*
X36633626Y-79401861D01*
X36465104Y-79471665D01*
X36286203Y-79507250D01*
X36103797Y-79507250D01*
X35924896Y-79471665D01*
X35756374Y-79401861D01*
X35604709Y-79300522D01*
X35475728Y-79171541D01*
X35374389Y-79019876D01*
X35304585Y-78851354D01*
X35269000Y-78672453D01*
X35269000Y-78490047D01*
X35304585Y-78311146D01*
X35374389Y-78142624D01*
X35475728Y-77990959D01*
X35604709Y-77861978D01*
X35756374Y-77760639D01*
X35924896Y-77690835D01*
X36103797Y-77655250D01*
X36286203Y-77655250D01*
X36465104Y-77690835D01*
X36465104Y-77690835D01*
G37*
G36*
X46625104Y-77690835D02*
G01*
X46793626Y-77760639D01*
X46945291Y-77861978D01*
X47074272Y-77990959D01*
X47175611Y-78142624D01*
X47245415Y-78311146D01*
X47281000Y-78490047D01*
X47281000Y-78672453D01*
X47245415Y-78851354D01*
X47175611Y-79019876D01*
X47074272Y-79171541D01*
X46945291Y-79300522D01*
X46793626Y-79401861D01*
X46625104Y-79471665D01*
X46446203Y-79507250D01*
X46263797Y-79507250D01*
X46084896Y-79471665D01*
X45916374Y-79401861D01*
X45764709Y-79300522D01*
X45635728Y-79171541D01*
X45534389Y-79019876D01*
X45464585Y-78851354D01*
X45429000Y-78672453D01*
X45429000Y-78490047D01*
X45464585Y-78311146D01*
X45534389Y-78142624D01*
X45635728Y-77990959D01*
X45764709Y-77861978D01*
X45916374Y-77760639D01*
X46084896Y-77690835D01*
X46263797Y-77655250D01*
X46446203Y-77655250D01*
X46625104Y-77690835D01*
X46625104Y-77690835D01*
G37*
G36*
X55515104Y-77690835D02*
G01*
X55683626Y-77760639D01*
X55835291Y-77861978D01*
X55964272Y-77990959D01*
X56065611Y-78142624D01*
X56135415Y-78311146D01*
X56171000Y-78490047D01*
X56171000Y-78672453D01*
X56135415Y-78851354D01*
X56065611Y-79019876D01*
X55964272Y-79171541D01*
X55835291Y-79300522D01*
X55683626Y-79401861D01*
X55515104Y-79471665D01*
X55336203Y-79507250D01*
X55153797Y-79507250D01*
X54974896Y-79471665D01*
X54806374Y-79401861D01*
X54654709Y-79300522D01*
X54525728Y-79171541D01*
X54424389Y-79019876D01*
X54354585Y-78851354D01*
X54319000Y-78672453D01*
X54319000Y-78490047D01*
X54354585Y-78311146D01*
X54424389Y-78142624D01*
X54525728Y-77990959D01*
X54654709Y-77861978D01*
X54806374Y-77760639D01*
X54974896Y-77690835D01*
X55153797Y-77655250D01*
X55336203Y-77655250D01*
X55515104Y-77690835D01*
X55515104Y-77690835D01*
G37*
G36*
X84725104Y-77690835D02*
G01*
X84893626Y-77760639D01*
X85045291Y-77861978D01*
X85174272Y-77990959D01*
X85275611Y-78142624D01*
X85345415Y-78311146D01*
X85381000Y-78490047D01*
X85381000Y-78672453D01*
X85345415Y-78851354D01*
X85275611Y-79019876D01*
X85174272Y-79171541D01*
X85045291Y-79300522D01*
X84893626Y-79401861D01*
X84725104Y-79471665D01*
X84546203Y-79507250D01*
X84363797Y-79507250D01*
X84184896Y-79471665D01*
X84016374Y-79401861D01*
X83864709Y-79300522D01*
X83735728Y-79171541D01*
X83634389Y-79019876D01*
X83564585Y-78851354D01*
X83529000Y-78672453D01*
X83529000Y-78490047D01*
X83564585Y-78311146D01*
X83634389Y-78142624D01*
X83735728Y-77990959D01*
X83864709Y-77861978D01*
X84016374Y-77760639D01*
X84184896Y-77690835D01*
X84363797Y-77655250D01*
X84546203Y-77655250D01*
X84725104Y-77690835D01*
X84725104Y-77690835D01*
G37*
G36*
X74565104Y-77690835D02*
G01*
X74733626Y-77760639D01*
X74885291Y-77861978D01*
X75014272Y-77990959D01*
X75115611Y-78142624D01*
X75185415Y-78311146D01*
X75221000Y-78490047D01*
X75221000Y-78672453D01*
X75185415Y-78851354D01*
X75115611Y-79019876D01*
X75014272Y-79171541D01*
X74885291Y-79300522D01*
X74733626Y-79401861D01*
X74565104Y-79471665D01*
X74386203Y-79507250D01*
X74203797Y-79507250D01*
X74024896Y-79471665D01*
X73856374Y-79401861D01*
X73704709Y-79300522D01*
X73575728Y-79171541D01*
X73474389Y-79019876D01*
X73404585Y-78851354D01*
X73369000Y-78672453D01*
X73369000Y-78490047D01*
X73404585Y-78311146D01*
X73474389Y-78142624D01*
X73575728Y-77990959D01*
X73704709Y-77861978D01*
X73856374Y-77760639D01*
X74024896Y-77690835D01*
X74203797Y-77655250D01*
X74386203Y-77655250D01*
X74565104Y-77690835D01*
X74565104Y-77690835D01*
G37*
G36*
X114466823Y-75996313D02*
G01*
X114627242Y-76044976D01*
X114759906Y-76115886D01*
X114775078Y-76123996D01*
X114904659Y-76230341D01*
X115011004Y-76359922D01*
X115011005Y-76359924D01*
X115090024Y-76507758D01*
X115138687Y-76668177D01*
X115155117Y-76835000D01*
X115138687Y-77001823D01*
X115090024Y-77162242D01*
X115028309Y-77277702D01*
X115011004Y-77310078D01*
X114904659Y-77439659D01*
X114775078Y-77546004D01*
X114775076Y-77546005D01*
X114627242Y-77625024D01*
X114466823Y-77673687D01*
X114341804Y-77686000D01*
X114258196Y-77686000D01*
X114133177Y-77673687D01*
X113972758Y-77625024D01*
X113824924Y-77546005D01*
X113824922Y-77546004D01*
X113695341Y-77439659D01*
X113588996Y-77310078D01*
X113571691Y-77277702D01*
X113509976Y-77162242D01*
X113461313Y-77001823D01*
X113444883Y-76835000D01*
X113461313Y-76668177D01*
X113509976Y-76507758D01*
X113588995Y-76359924D01*
X113588996Y-76359922D01*
X113695341Y-76230341D01*
X113824922Y-76123996D01*
X113840094Y-76115886D01*
X113972758Y-76044976D01*
X114133177Y-75996313D01*
X114258196Y-75984000D01*
X114341804Y-75984000D01*
X114466823Y-75996313D01*
X114466823Y-75996313D01*
G37*
G36*
X122771000Y-77686000D02*
G01*
X121069000Y-77686000D01*
X121069000Y-75984000D01*
X122771000Y-75984000D01*
X122771000Y-77686000D01*
X122771000Y-77686000D01*
G37*
G36*
X75756560Y-74880314D02*
G01*
X75908027Y-74910443D01*
X76122045Y-74999092D01*
X76132391Y-75006005D01*
X76314654Y-75127789D01*
X76478461Y-75291596D01*
X76564258Y-75420001D01*
X76607158Y-75484205D01*
X76695807Y-75698223D01*
X76741000Y-75925424D01*
X76741000Y-76157076D01*
X76695807Y-76384277D01*
X76607158Y-76598295D01*
X76607157Y-76598296D01*
X76478461Y-76790904D01*
X76314654Y-76954711D01*
X76186249Y-77040508D01*
X76122045Y-77083408D01*
X75908027Y-77172057D01*
X75756560Y-77202186D01*
X75680827Y-77217250D01*
X75449173Y-77217250D01*
X75373440Y-77202186D01*
X75221973Y-77172057D01*
X75007955Y-77083408D01*
X74943751Y-77040508D01*
X74815346Y-76954711D01*
X74651539Y-76790904D01*
X74522843Y-76598296D01*
X74522842Y-76598295D01*
X74434193Y-76384277D01*
X74389000Y-76157076D01*
X74389000Y-75925424D01*
X74434193Y-75698223D01*
X74522842Y-75484205D01*
X74565742Y-75420001D01*
X74651539Y-75291596D01*
X74815346Y-75127789D01*
X74997609Y-75006005D01*
X75007955Y-74999092D01*
X75221973Y-74910443D01*
X75373440Y-74880314D01*
X75449173Y-74865250D01*
X75680827Y-74865250D01*
X75756560Y-74880314D01*
X75756560Y-74880314D01*
G37*
G36*
X56706560Y-74880314D02*
G01*
X56858027Y-74910443D01*
X57072045Y-74999092D01*
X57082391Y-75006005D01*
X57264654Y-75127789D01*
X57428461Y-75291596D01*
X57514258Y-75420001D01*
X57557158Y-75484205D01*
X57645807Y-75698223D01*
X57691000Y-75925424D01*
X57691000Y-76157076D01*
X57645807Y-76384277D01*
X57557158Y-76598295D01*
X57557157Y-76598296D01*
X57428461Y-76790904D01*
X57264654Y-76954711D01*
X57136249Y-77040508D01*
X57072045Y-77083408D01*
X56858027Y-77172057D01*
X56706560Y-77202186D01*
X56630827Y-77217250D01*
X56399173Y-77217250D01*
X56323440Y-77202186D01*
X56171973Y-77172057D01*
X55957955Y-77083408D01*
X55893751Y-77040508D01*
X55765346Y-76954711D01*
X55601539Y-76790904D01*
X55472843Y-76598296D01*
X55472842Y-76598295D01*
X55384193Y-76384277D01*
X55339000Y-76157076D01*
X55339000Y-75925424D01*
X55384193Y-75698223D01*
X55472842Y-75484205D01*
X55515742Y-75420001D01*
X55601539Y-75291596D01*
X55765346Y-75127789D01*
X55947609Y-75006005D01*
X55957955Y-74999092D01*
X56171973Y-74910443D01*
X56323440Y-74880314D01*
X56399173Y-74865250D01*
X56630827Y-74865250D01*
X56706560Y-74880314D01*
X56706560Y-74880314D01*
G37*
G36*
X37656560Y-74880314D02*
G01*
X37808027Y-74910443D01*
X38022045Y-74999092D01*
X38032391Y-75006005D01*
X38214654Y-75127789D01*
X38378461Y-75291596D01*
X38464258Y-75420001D01*
X38507158Y-75484205D01*
X38595807Y-75698223D01*
X38641000Y-75925424D01*
X38641000Y-76157076D01*
X38595807Y-76384277D01*
X38507158Y-76598295D01*
X38507157Y-76598296D01*
X38378461Y-76790904D01*
X38214654Y-76954711D01*
X38086249Y-77040508D01*
X38022045Y-77083408D01*
X37808027Y-77172057D01*
X37656560Y-77202186D01*
X37580827Y-77217250D01*
X37349173Y-77217250D01*
X37273440Y-77202186D01*
X37121973Y-77172057D01*
X36907955Y-77083408D01*
X36843751Y-77040508D01*
X36715346Y-76954711D01*
X36551539Y-76790904D01*
X36422843Y-76598296D01*
X36422842Y-76598295D01*
X36334193Y-76384277D01*
X36289000Y-76157076D01*
X36289000Y-75925424D01*
X36334193Y-75698223D01*
X36422842Y-75484205D01*
X36465742Y-75420001D01*
X36551539Y-75291596D01*
X36715346Y-75127789D01*
X36897609Y-75006005D01*
X36907955Y-74999092D01*
X37121973Y-74910443D01*
X37273440Y-74880314D01*
X37349173Y-74865250D01*
X37580827Y-74865250D01*
X37656560Y-74880314D01*
X37656560Y-74880314D01*
G37*
G36*
X114466823Y-73456313D02*
G01*
X114627242Y-73504976D01*
X114759906Y-73575886D01*
X114775078Y-73583996D01*
X114904659Y-73690341D01*
X115011004Y-73819922D01*
X115011005Y-73819924D01*
X115090024Y-73967758D01*
X115138687Y-74128177D01*
X115155117Y-74295000D01*
X115138687Y-74461823D01*
X115090024Y-74622242D01*
X115019114Y-74754906D01*
X115011004Y-74770078D01*
X114904659Y-74899659D01*
X114775078Y-75006004D01*
X114775076Y-75006005D01*
X114627242Y-75085024D01*
X114466823Y-75133687D01*
X114341804Y-75146000D01*
X114258196Y-75146000D01*
X114133177Y-75133687D01*
X113972758Y-75085024D01*
X113824924Y-75006005D01*
X113824922Y-75006004D01*
X113695341Y-74899659D01*
X113588996Y-74770078D01*
X113580886Y-74754906D01*
X113509976Y-74622242D01*
X113461313Y-74461823D01*
X113444883Y-74295000D01*
X113461313Y-74128177D01*
X113509976Y-73967758D01*
X113588995Y-73819924D01*
X113588996Y-73819922D01*
X113695341Y-73690341D01*
X113824922Y-73583996D01*
X113840094Y-73575886D01*
X113972758Y-73504976D01*
X114133177Y-73456313D01*
X114258196Y-73444000D01*
X114341804Y-73444000D01*
X114466823Y-73456313D01*
X114466823Y-73456313D01*
G37*
G36*
X122771000Y-75146000D02*
G01*
X121069000Y-75146000D01*
X121069000Y-73444000D01*
X122771000Y-73444000D01*
X122771000Y-75146000D01*
X122771000Y-75146000D01*
G37*
G36*
X82106560Y-72340314D02*
G01*
X82258027Y-72370443D01*
X82472045Y-72459092D01*
X82482391Y-72466005D01*
X82664654Y-72587789D01*
X82828461Y-72751596D01*
X82914258Y-72880001D01*
X82957158Y-72944205D01*
X83045807Y-73158223D01*
X83091000Y-73385424D01*
X83091000Y-73617076D01*
X83045807Y-73844277D01*
X82957158Y-74058295D01*
X82957157Y-74058296D01*
X82828461Y-74250904D01*
X82664654Y-74414711D01*
X82536249Y-74500508D01*
X82472045Y-74543408D01*
X82258027Y-74632057D01*
X82106560Y-74662186D01*
X82030827Y-74677250D01*
X81799173Y-74677250D01*
X81723440Y-74662186D01*
X81571973Y-74632057D01*
X81357955Y-74543408D01*
X81293751Y-74500508D01*
X81165346Y-74414711D01*
X81001539Y-74250904D01*
X80872843Y-74058296D01*
X80872842Y-74058295D01*
X80784193Y-73844277D01*
X80739000Y-73617076D01*
X80739000Y-73385424D01*
X80784193Y-73158223D01*
X80872842Y-72944205D01*
X80915742Y-72880001D01*
X81001539Y-72751596D01*
X81165346Y-72587789D01*
X81347609Y-72466005D01*
X81357955Y-72459092D01*
X81571973Y-72370443D01*
X81723440Y-72340314D01*
X81799173Y-72325250D01*
X82030827Y-72325250D01*
X82106560Y-72340314D01*
X82106560Y-72340314D01*
G37*
G36*
X44006560Y-72340314D02*
G01*
X44158027Y-72370443D01*
X44372045Y-72459092D01*
X44382391Y-72466005D01*
X44564654Y-72587789D01*
X44728461Y-72751596D01*
X44814258Y-72880001D01*
X44857158Y-72944205D01*
X44945807Y-73158223D01*
X44991000Y-73385424D01*
X44991000Y-73617076D01*
X44945807Y-73844277D01*
X44857158Y-74058295D01*
X44857157Y-74058296D01*
X44728461Y-74250904D01*
X44564654Y-74414711D01*
X44436249Y-74500508D01*
X44372045Y-74543408D01*
X44158027Y-74632057D01*
X44006560Y-74662186D01*
X43930827Y-74677250D01*
X43699173Y-74677250D01*
X43623440Y-74662186D01*
X43471973Y-74632057D01*
X43257955Y-74543408D01*
X43193751Y-74500508D01*
X43065346Y-74414711D01*
X42901539Y-74250904D01*
X42772843Y-74058296D01*
X42772842Y-74058295D01*
X42684193Y-73844277D01*
X42639000Y-73617076D01*
X42639000Y-73385424D01*
X42684193Y-73158223D01*
X42772842Y-72944205D01*
X42815742Y-72880001D01*
X42901539Y-72751596D01*
X43065346Y-72587789D01*
X43247609Y-72466005D01*
X43257955Y-72459092D01*
X43471973Y-72370443D01*
X43623440Y-72340314D01*
X43699173Y-72325250D01*
X43930827Y-72325250D01*
X44006560Y-72340314D01*
X44006560Y-72340314D01*
G37*
G36*
X63056560Y-72340314D02*
G01*
X63208027Y-72370443D01*
X63422045Y-72459092D01*
X63432391Y-72466005D01*
X63614654Y-72587789D01*
X63778461Y-72751596D01*
X63864258Y-72880001D01*
X63907158Y-72944205D01*
X63995807Y-73158223D01*
X64041000Y-73385424D01*
X64041000Y-73617076D01*
X63995807Y-73844277D01*
X63907158Y-74058295D01*
X63907157Y-74058296D01*
X63778461Y-74250904D01*
X63614654Y-74414711D01*
X63486249Y-74500508D01*
X63422045Y-74543408D01*
X63208027Y-74632057D01*
X63056560Y-74662186D01*
X62980827Y-74677250D01*
X62749173Y-74677250D01*
X62673440Y-74662186D01*
X62521973Y-74632057D01*
X62307955Y-74543408D01*
X62243751Y-74500508D01*
X62115346Y-74414711D01*
X61951539Y-74250904D01*
X61822843Y-74058296D01*
X61822842Y-74058295D01*
X61734193Y-73844277D01*
X61689000Y-73617076D01*
X61689000Y-73385424D01*
X61734193Y-73158223D01*
X61822842Y-72944205D01*
X61865742Y-72880001D01*
X61951539Y-72751596D01*
X62115346Y-72587789D01*
X62297609Y-72466005D01*
X62307955Y-72459092D01*
X62521973Y-72370443D01*
X62673440Y-72340314D01*
X62749173Y-72325250D01*
X62980827Y-72325250D01*
X63056560Y-72340314D01*
X63056560Y-72340314D01*
G37*
G36*
X114466823Y-70916313D02*
G01*
X114627242Y-70964976D01*
X114734983Y-71022565D01*
X114775078Y-71043996D01*
X114904659Y-71150341D01*
X115011004Y-71279922D01*
X115011005Y-71279924D01*
X115090024Y-71427758D01*
X115138687Y-71588177D01*
X115155117Y-71755000D01*
X115138687Y-71921823D01*
X115090024Y-72082242D01*
X115019114Y-72214906D01*
X115011004Y-72230078D01*
X114904659Y-72359659D01*
X114775078Y-72466004D01*
X114775076Y-72466005D01*
X114627242Y-72545024D01*
X114466823Y-72593687D01*
X114341804Y-72606000D01*
X114258196Y-72606000D01*
X114133177Y-72593687D01*
X113972758Y-72545024D01*
X113824924Y-72466005D01*
X113824922Y-72466004D01*
X113695341Y-72359659D01*
X113588996Y-72230078D01*
X113580886Y-72214906D01*
X113509976Y-72082242D01*
X113461313Y-71921823D01*
X113444883Y-71755000D01*
X113461313Y-71588177D01*
X113509976Y-71427758D01*
X113588995Y-71279924D01*
X113588996Y-71279922D01*
X113695341Y-71150341D01*
X113824922Y-71043996D01*
X113865017Y-71022565D01*
X113972758Y-70964976D01*
X114133177Y-70916313D01*
X114258196Y-70904000D01*
X114341804Y-70904000D01*
X114466823Y-70916313D01*
X114466823Y-70916313D01*
G37*
G36*
X122771000Y-72606000D02*
G01*
X121069000Y-72606000D01*
X121069000Y-70904000D01*
X122771000Y-70904000D01*
X122771000Y-72606000D01*
X122771000Y-72606000D01*
G37*
G36*
X99021474Y-67089934D02*
G01*
X99166669Y-67150076D01*
X99393623Y-67244083D01*
X99728548Y-67467873D01*
X100013377Y-67752702D01*
X100237167Y-68087627D01*
X100269562Y-68165836D01*
X100391316Y-68459776D01*
X100469900Y-68854844D01*
X100469900Y-69257656D01*
X100391316Y-69652724D01*
X100340451Y-69775522D01*
X100237167Y-70024873D01*
X100013377Y-70359798D01*
X99728548Y-70644627D01*
X99393623Y-70868417D01*
X99277991Y-70916313D01*
X99021474Y-71022566D01*
X98626406Y-71101150D01*
X98223594Y-71101150D01*
X97828526Y-71022566D01*
X97572009Y-70916313D01*
X97456377Y-70868417D01*
X97121452Y-70644627D01*
X96836623Y-70359798D01*
X96612833Y-70024873D01*
X96509549Y-69775522D01*
X96458684Y-69652724D01*
X96380100Y-69257656D01*
X96380100Y-68854844D01*
X96458684Y-68459776D01*
X96580438Y-68165836D01*
X96612833Y-68087627D01*
X96836623Y-67752702D01*
X97121452Y-67467873D01*
X97456377Y-67244083D01*
X97683331Y-67150076D01*
X97828526Y-67089934D01*
X98223594Y-67011350D01*
X98626406Y-67011350D01*
X99021474Y-67089934D01*
X99021474Y-67089934D01*
G37*
G36*
X114466823Y-68376313D02*
G01*
X114627242Y-68424976D01*
X114759906Y-68495886D01*
X114775078Y-68503996D01*
X114904659Y-68610341D01*
X115011004Y-68739922D01*
X115011005Y-68739924D01*
X115090024Y-68887758D01*
X115138687Y-69048177D01*
X115155117Y-69215000D01*
X115138687Y-69381823D01*
X115090024Y-69542242D01*
X115019114Y-69674906D01*
X115011004Y-69690078D01*
X114904659Y-69819659D01*
X114775078Y-69926004D01*
X114775076Y-69926005D01*
X114627242Y-70005024D01*
X114466823Y-70053687D01*
X114341804Y-70066000D01*
X114258196Y-70066000D01*
X114133177Y-70053687D01*
X113972758Y-70005024D01*
X113824924Y-69926005D01*
X113824922Y-69926004D01*
X113695341Y-69819659D01*
X113588996Y-69690078D01*
X113580886Y-69674906D01*
X113509976Y-69542242D01*
X113461313Y-69381823D01*
X113444883Y-69215000D01*
X113461313Y-69048177D01*
X113509976Y-68887758D01*
X113588995Y-68739924D01*
X113588996Y-68739922D01*
X113695341Y-68610341D01*
X113824922Y-68503996D01*
X113840094Y-68495886D01*
X113972758Y-68424976D01*
X114133177Y-68376313D01*
X114258196Y-68364000D01*
X114341804Y-68364000D01*
X114466823Y-68376313D01*
X114466823Y-68376313D01*
G37*
G36*
X122771000Y-70066000D02*
G01*
X121069000Y-70066000D01*
X121069000Y-68364000D01*
X122771000Y-68364000D01*
X122771000Y-70066000D01*
X122771000Y-70066000D01*
G37*
G36*
X93615104Y-68165835D02*
G01*
X93783626Y-68235639D01*
X93935291Y-68336978D01*
X94064272Y-68465959D01*
X94165611Y-68617624D01*
X94235415Y-68786146D01*
X94271000Y-68965047D01*
X94271000Y-69147453D01*
X94235415Y-69326354D01*
X94165611Y-69494876D01*
X94064272Y-69646541D01*
X93935291Y-69775522D01*
X93783626Y-69876861D01*
X93615104Y-69946665D01*
X93436203Y-69982250D01*
X93253797Y-69982250D01*
X93074896Y-69946665D01*
X92906374Y-69876861D01*
X92754709Y-69775522D01*
X92625728Y-69646541D01*
X92524389Y-69494876D01*
X92454585Y-69326354D01*
X92419000Y-69147453D01*
X92419000Y-68965047D01*
X92454585Y-68786146D01*
X92524389Y-68617624D01*
X92625728Y-68465959D01*
X92754709Y-68336978D01*
X92906374Y-68235639D01*
X93074896Y-68165835D01*
X93253797Y-68130250D01*
X93436203Y-68130250D01*
X93615104Y-68165835D01*
X93615104Y-68165835D01*
G37*
G36*
X103775104Y-68165835D02*
G01*
X103943626Y-68235639D01*
X104095291Y-68336978D01*
X104224272Y-68465959D01*
X104325611Y-68617624D01*
X104395415Y-68786146D01*
X104431000Y-68965047D01*
X104431000Y-69147453D01*
X104395415Y-69326354D01*
X104325611Y-69494876D01*
X104224272Y-69646541D01*
X104095291Y-69775522D01*
X103943626Y-69876861D01*
X103775104Y-69946665D01*
X103596203Y-69982250D01*
X103413797Y-69982250D01*
X103234896Y-69946665D01*
X103066374Y-69876861D01*
X102914709Y-69775522D01*
X102785728Y-69646541D01*
X102684389Y-69494876D01*
X102614585Y-69326354D01*
X102579000Y-69147453D01*
X102579000Y-68965047D01*
X102614585Y-68786146D01*
X102684389Y-68617624D01*
X102785728Y-68465959D01*
X102914709Y-68336978D01*
X103066374Y-68235639D01*
X103234896Y-68165835D01*
X103413797Y-68130250D01*
X103596203Y-68130250D01*
X103775104Y-68165835D01*
X103775104Y-68165835D01*
G37*
G36*
X94806560Y-65355314D02*
G01*
X94958027Y-65385443D01*
X95172045Y-65474092D01*
X95172046Y-65474093D01*
X95364654Y-65602789D01*
X95528461Y-65766596D01*
X95566817Y-65824000D01*
X95657158Y-65959205D01*
X95745807Y-66173223D01*
X95791000Y-66400424D01*
X95791000Y-66632076D01*
X95745807Y-66859277D01*
X95657158Y-67073295D01*
X95657157Y-67073296D01*
X95528461Y-67265904D01*
X95364654Y-67429711D01*
X95307540Y-67467873D01*
X95172045Y-67558408D01*
X94958027Y-67647057D01*
X94806560Y-67677186D01*
X94730827Y-67692250D01*
X94499173Y-67692250D01*
X94423440Y-67677186D01*
X94271973Y-67647057D01*
X94057955Y-67558408D01*
X93922460Y-67467873D01*
X93865346Y-67429711D01*
X93701539Y-67265904D01*
X93572843Y-67073296D01*
X93572842Y-67073295D01*
X93484193Y-66859277D01*
X93439000Y-66632076D01*
X93439000Y-66400424D01*
X93484193Y-66173223D01*
X93572842Y-65959205D01*
X93663183Y-65824000D01*
X93701539Y-65766596D01*
X93865346Y-65602789D01*
X94057954Y-65474093D01*
X94057955Y-65474092D01*
X94271973Y-65385443D01*
X94423440Y-65355314D01*
X94499173Y-65340250D01*
X94730827Y-65340250D01*
X94806560Y-65355314D01*
X94806560Y-65355314D01*
G37*
G36*
X122771000Y-67526000D02*
G01*
X121069000Y-67526000D01*
X121069000Y-65824000D01*
X122771000Y-65824000D01*
X122771000Y-67526000D01*
X122771000Y-67526000D01*
G37*
G36*
X114466823Y-65836313D02*
G01*
X114627242Y-65884976D01*
X114759906Y-65955886D01*
X114775078Y-65963996D01*
X114904659Y-66070341D01*
X115011004Y-66199922D01*
X115011005Y-66199924D01*
X115090024Y-66347758D01*
X115138687Y-66508177D01*
X115155117Y-66675000D01*
X115138687Y-66841823D01*
X115090024Y-67002242D01*
X115043151Y-67089935D01*
X115011004Y-67150078D01*
X114904659Y-67279659D01*
X114775078Y-67386004D01*
X114775076Y-67386005D01*
X114627242Y-67465024D01*
X114466823Y-67513687D01*
X114341804Y-67526000D01*
X114258196Y-67526000D01*
X114133177Y-67513687D01*
X113972758Y-67465024D01*
X113824924Y-67386005D01*
X113824922Y-67386004D01*
X113695341Y-67279659D01*
X113588996Y-67150078D01*
X113556849Y-67089935D01*
X113509976Y-67002242D01*
X113461313Y-66841823D01*
X113444883Y-66675000D01*
X113461313Y-66508177D01*
X113509976Y-66347758D01*
X113588995Y-66199924D01*
X113588996Y-66199922D01*
X113695341Y-66070341D01*
X113824922Y-65963996D01*
X113840094Y-65955886D01*
X113972758Y-65884976D01*
X114133177Y-65836313D01*
X114258196Y-65824000D01*
X114341804Y-65824000D01*
X114466823Y-65836313D01*
X114466823Y-65836313D01*
G37*
G36*
X101156560Y-62815314D02*
G01*
X101308027Y-62845443D01*
X101522045Y-62934092D01*
X101522046Y-62934093D01*
X101714654Y-63062789D01*
X101878461Y-63226596D01*
X101946964Y-63329118D01*
X102007158Y-63419205D01*
X102095807Y-63633223D01*
X102141000Y-63860424D01*
X102141000Y-64092076D01*
X102095807Y-64319277D01*
X102007158Y-64533295D01*
X102007157Y-64533296D01*
X101878461Y-64725904D01*
X101714654Y-64889711D01*
X101586249Y-64975508D01*
X101522045Y-65018408D01*
X101308027Y-65107057D01*
X101156560Y-65137186D01*
X101080827Y-65152250D01*
X100849173Y-65152250D01*
X100773440Y-65137186D01*
X100621973Y-65107057D01*
X100407955Y-65018408D01*
X100343751Y-64975508D01*
X100215346Y-64889711D01*
X100051539Y-64725904D01*
X99922843Y-64533296D01*
X99922842Y-64533295D01*
X99834193Y-64319277D01*
X99789000Y-64092076D01*
X99789000Y-63860424D01*
X99834193Y-63633223D01*
X99922842Y-63419205D01*
X99983036Y-63329118D01*
X100051539Y-63226596D01*
X100215346Y-63062789D01*
X100407954Y-62934093D01*
X100407955Y-62934092D01*
X100621973Y-62845443D01*
X100773440Y-62815314D01*
X100849173Y-62800250D01*
X101080827Y-62800250D01*
X101156560Y-62815314D01*
X101156560Y-62815314D01*
G37*
G36*
X126159233Y-61846335D02*
G01*
X126327990Y-61916236D01*
X126479868Y-62017718D01*
X126609032Y-62146882D01*
X126710514Y-62298760D01*
X126780415Y-62467517D01*
X126816050Y-62646668D01*
X126816050Y-62829332D01*
X126780415Y-63008483D01*
X126710514Y-63177240D01*
X126609032Y-63329118D01*
X126479868Y-63458282D01*
X126327990Y-63559764D01*
X126159233Y-63629665D01*
X125980082Y-63665300D01*
X125797418Y-63665300D01*
X125618267Y-63629665D01*
X125449510Y-63559764D01*
X125297632Y-63458282D01*
X125168468Y-63329118D01*
X125066986Y-63177240D01*
X124997085Y-63008483D01*
X124961450Y-62829332D01*
X124961450Y-62646668D01*
X124997085Y-62467517D01*
X125066986Y-62298760D01*
X125168468Y-62146882D01*
X125297632Y-62017718D01*
X125449510Y-61916236D01*
X125618267Y-61846335D01*
X125797418Y-61810700D01*
X125980082Y-61810700D01*
X126159233Y-61846335D01*
X126159233Y-61846335D01*
G37*
G36*
X110919233Y-61846335D02*
G01*
X111087990Y-61916236D01*
X111239868Y-62017718D01*
X111369032Y-62146882D01*
X111470514Y-62298760D01*
X111540415Y-62467517D01*
X111576050Y-62646668D01*
X111576050Y-62829332D01*
X111540415Y-63008483D01*
X111470514Y-63177240D01*
X111369032Y-63329118D01*
X111239868Y-63458282D01*
X111087990Y-63559764D01*
X110919233Y-63629665D01*
X110740082Y-63665300D01*
X110557418Y-63665300D01*
X110378267Y-63629665D01*
X110209510Y-63559764D01*
X110057632Y-63458282D01*
X109928468Y-63329118D01*
X109826986Y-63177240D01*
X109757085Y-63008483D01*
X109721450Y-62829332D01*
X109721450Y-62646668D01*
X109757085Y-62467517D01*
X109826986Y-62298760D01*
X109928468Y-62146882D01*
X110057632Y-62017718D01*
X110209510Y-61916236D01*
X110378267Y-61846335D01*
X110557418Y-61810700D01*
X110740082Y-61810700D01*
X110919233Y-61846335D01*
X110919233Y-61846335D01*
G37*
G36*
X60921474Y-57564934D02*
G01*
X61139474Y-57655233D01*
X61293623Y-57719083D01*
X61628548Y-57942873D01*
X61913377Y-58227702D01*
X62137167Y-58562627D01*
X62196813Y-58706627D01*
X62291316Y-58934776D01*
X62369900Y-59329844D01*
X62369900Y-59732656D01*
X62291316Y-60127724D01*
X62240451Y-60250522D01*
X62137167Y-60499873D01*
X61913377Y-60834798D01*
X61628548Y-61119627D01*
X61293623Y-61343417D01*
X61139474Y-61407267D01*
X60921474Y-61497566D01*
X60526406Y-61576150D01*
X60123594Y-61576150D01*
X59728526Y-61497566D01*
X59510526Y-61407267D01*
X59356377Y-61343417D01*
X59021452Y-61119627D01*
X58736623Y-60834798D01*
X58512833Y-60499873D01*
X58409549Y-60250522D01*
X58358684Y-60127724D01*
X58280100Y-59732656D01*
X58280100Y-59329844D01*
X58358684Y-58934776D01*
X58453187Y-58706627D01*
X58512833Y-58562627D01*
X58736623Y-58227702D01*
X59021452Y-57942873D01*
X59356377Y-57719083D01*
X59510526Y-57655233D01*
X59728526Y-57564934D01*
X60123594Y-57486350D01*
X60526406Y-57486350D01*
X60921474Y-57564934D01*
X60921474Y-57564934D01*
G37*
G36*
X41871474Y-57564934D02*
G01*
X42089474Y-57655233D01*
X42243623Y-57719083D01*
X42578548Y-57942873D01*
X42863377Y-58227702D01*
X43087167Y-58562627D01*
X43146813Y-58706627D01*
X43241316Y-58934776D01*
X43319900Y-59329844D01*
X43319900Y-59732656D01*
X43241316Y-60127724D01*
X43190451Y-60250522D01*
X43087167Y-60499873D01*
X42863377Y-60834798D01*
X42578548Y-61119627D01*
X42243623Y-61343417D01*
X42089474Y-61407267D01*
X41871474Y-61497566D01*
X41476406Y-61576150D01*
X41073594Y-61576150D01*
X40678526Y-61497566D01*
X40460526Y-61407267D01*
X40306377Y-61343417D01*
X39971452Y-61119627D01*
X39686623Y-60834798D01*
X39462833Y-60499873D01*
X39359549Y-60250522D01*
X39308684Y-60127724D01*
X39230100Y-59732656D01*
X39230100Y-59329844D01*
X39308684Y-58934776D01*
X39403187Y-58706627D01*
X39462833Y-58562627D01*
X39686623Y-58227702D01*
X39971452Y-57942873D01*
X40306377Y-57719083D01*
X40460526Y-57655233D01*
X40678526Y-57564934D01*
X41073594Y-57486350D01*
X41476406Y-57486350D01*
X41871474Y-57564934D01*
X41871474Y-57564934D01*
G37*
G36*
X79971474Y-57564934D02*
G01*
X80189474Y-57655233D01*
X80343623Y-57719083D01*
X80678548Y-57942873D01*
X80963377Y-58227702D01*
X81187167Y-58562627D01*
X81246813Y-58706627D01*
X81341316Y-58934776D01*
X81419900Y-59329844D01*
X81419900Y-59732656D01*
X81341316Y-60127724D01*
X81290451Y-60250522D01*
X81187167Y-60499873D01*
X80963377Y-60834798D01*
X80678548Y-61119627D01*
X80343623Y-61343417D01*
X80189474Y-61407267D01*
X79971474Y-61497566D01*
X79576406Y-61576150D01*
X79173594Y-61576150D01*
X78778526Y-61497566D01*
X78560526Y-61407267D01*
X78406377Y-61343417D01*
X78071452Y-61119627D01*
X77786623Y-60834798D01*
X77562833Y-60499873D01*
X77459549Y-60250522D01*
X77408684Y-60127724D01*
X77330100Y-59732656D01*
X77330100Y-59329844D01*
X77408684Y-58934776D01*
X77503187Y-58706627D01*
X77562833Y-58562627D01*
X77786623Y-58227702D01*
X78071452Y-57942873D01*
X78406377Y-57719083D01*
X78560526Y-57655233D01*
X78778526Y-57564934D01*
X79173594Y-57486350D01*
X79576406Y-57486350D01*
X79971474Y-57564934D01*
X79971474Y-57564934D01*
G37*
G36*
X126159233Y-59306335D02*
G01*
X126327990Y-59376236D01*
X126479868Y-59477718D01*
X126609032Y-59606882D01*
X126710514Y-59758760D01*
X126780415Y-59927517D01*
X126816050Y-60106668D01*
X126816050Y-60289332D01*
X126780415Y-60468483D01*
X126710514Y-60637240D01*
X126609032Y-60789118D01*
X126479868Y-60918282D01*
X126327990Y-61019764D01*
X126159233Y-61089665D01*
X125980082Y-61125300D01*
X125797418Y-61125300D01*
X125618267Y-61089665D01*
X125449510Y-61019764D01*
X125297632Y-60918282D01*
X125168468Y-60789118D01*
X125066986Y-60637240D01*
X124997085Y-60468483D01*
X124961450Y-60289332D01*
X124961450Y-60106668D01*
X124997085Y-59927517D01*
X125066986Y-59758760D01*
X125168468Y-59606882D01*
X125297632Y-59477718D01*
X125449510Y-59376236D01*
X125618267Y-59306335D01*
X125797418Y-59270700D01*
X125980082Y-59270700D01*
X126159233Y-59306335D01*
X126159233Y-59306335D01*
G37*
G36*
X110919233Y-59306335D02*
G01*
X111087990Y-59376236D01*
X111239868Y-59477718D01*
X111369032Y-59606882D01*
X111470514Y-59758760D01*
X111540415Y-59927517D01*
X111576050Y-60106668D01*
X111576050Y-60289332D01*
X111540415Y-60468483D01*
X111470514Y-60637240D01*
X111369032Y-60789118D01*
X111239868Y-60918282D01*
X111087990Y-61019764D01*
X110919233Y-61089665D01*
X110740082Y-61125300D01*
X110557418Y-61125300D01*
X110378267Y-61089665D01*
X110209510Y-61019764D01*
X110057632Y-60918282D01*
X109928468Y-60789118D01*
X109826986Y-60637240D01*
X109757085Y-60468483D01*
X109721450Y-60289332D01*
X109721450Y-60106668D01*
X109757085Y-59927517D01*
X109826986Y-59758760D01*
X109928468Y-59606882D01*
X110057632Y-59477718D01*
X110209510Y-59376236D01*
X110378267Y-59306335D01*
X110557418Y-59270700D01*
X110740082Y-59270700D01*
X110919233Y-59306335D01*
X110919233Y-59306335D01*
G37*
G36*
X65675104Y-58640835D02*
G01*
X65843626Y-58710639D01*
X65995291Y-58811978D01*
X66124272Y-58940959D01*
X66225611Y-59092624D01*
X66295415Y-59261146D01*
X66331000Y-59440047D01*
X66331000Y-59622453D01*
X66295415Y-59801354D01*
X66225611Y-59969876D01*
X66124272Y-60121541D01*
X65995291Y-60250522D01*
X65843626Y-60351861D01*
X65675104Y-60421665D01*
X65496203Y-60457250D01*
X65313797Y-60457250D01*
X65134896Y-60421665D01*
X64966374Y-60351861D01*
X64814709Y-60250522D01*
X64685728Y-60121541D01*
X64584389Y-59969876D01*
X64514585Y-59801354D01*
X64479000Y-59622453D01*
X64479000Y-59440047D01*
X64514585Y-59261146D01*
X64584389Y-59092624D01*
X64685728Y-58940959D01*
X64814709Y-58811978D01*
X64966374Y-58710639D01*
X65134896Y-58640835D01*
X65313797Y-58605250D01*
X65496203Y-58605250D01*
X65675104Y-58640835D01*
X65675104Y-58640835D01*
G37*
G36*
X84725104Y-58640835D02*
G01*
X84893626Y-58710639D01*
X85045291Y-58811978D01*
X85174272Y-58940959D01*
X85275611Y-59092624D01*
X85345415Y-59261146D01*
X85381000Y-59440047D01*
X85381000Y-59622453D01*
X85345415Y-59801354D01*
X85275611Y-59969876D01*
X85174272Y-60121541D01*
X85045291Y-60250522D01*
X84893626Y-60351861D01*
X84725104Y-60421665D01*
X84546203Y-60457250D01*
X84363797Y-60457250D01*
X84184896Y-60421665D01*
X84016374Y-60351861D01*
X83864709Y-60250522D01*
X83735728Y-60121541D01*
X83634389Y-59969876D01*
X83564585Y-59801354D01*
X83529000Y-59622453D01*
X83529000Y-59440047D01*
X83564585Y-59261146D01*
X83634389Y-59092624D01*
X83735728Y-58940959D01*
X83864709Y-58811978D01*
X84016374Y-58710639D01*
X84184896Y-58640835D01*
X84363797Y-58605250D01*
X84546203Y-58605250D01*
X84725104Y-58640835D01*
X84725104Y-58640835D01*
G37*
G36*
X74565104Y-58640835D02*
G01*
X74733626Y-58710639D01*
X74885291Y-58811978D01*
X75014272Y-58940959D01*
X75115611Y-59092624D01*
X75185415Y-59261146D01*
X75221000Y-59440047D01*
X75221000Y-59622453D01*
X75185415Y-59801354D01*
X75115611Y-59969876D01*
X75014272Y-60121541D01*
X74885291Y-60250522D01*
X74733626Y-60351861D01*
X74565104Y-60421665D01*
X74386203Y-60457250D01*
X74203797Y-60457250D01*
X74024896Y-60421665D01*
X73856374Y-60351861D01*
X73704709Y-60250522D01*
X73575728Y-60121541D01*
X73474389Y-59969876D01*
X73404585Y-59801354D01*
X73369000Y-59622453D01*
X73369000Y-59440047D01*
X73404585Y-59261146D01*
X73474389Y-59092624D01*
X73575728Y-58940959D01*
X73704709Y-58811978D01*
X73856374Y-58710639D01*
X74024896Y-58640835D01*
X74203797Y-58605250D01*
X74386203Y-58605250D01*
X74565104Y-58640835D01*
X74565104Y-58640835D01*
G37*
G36*
X55515104Y-58640835D02*
G01*
X55683626Y-58710639D01*
X55835291Y-58811978D01*
X55964272Y-58940959D01*
X56065611Y-59092624D01*
X56135415Y-59261146D01*
X56171000Y-59440047D01*
X56171000Y-59622453D01*
X56135415Y-59801354D01*
X56065611Y-59969876D01*
X55964272Y-60121541D01*
X55835291Y-60250522D01*
X55683626Y-60351861D01*
X55515104Y-60421665D01*
X55336203Y-60457250D01*
X55153797Y-60457250D01*
X54974896Y-60421665D01*
X54806374Y-60351861D01*
X54654709Y-60250522D01*
X54525728Y-60121541D01*
X54424389Y-59969876D01*
X54354585Y-59801354D01*
X54319000Y-59622453D01*
X54319000Y-59440047D01*
X54354585Y-59261146D01*
X54424389Y-59092624D01*
X54525728Y-58940959D01*
X54654709Y-58811978D01*
X54806374Y-58710639D01*
X54974896Y-58640835D01*
X55153797Y-58605250D01*
X55336203Y-58605250D01*
X55515104Y-58640835D01*
X55515104Y-58640835D01*
G37*
G36*
X46625104Y-58640835D02*
G01*
X46793626Y-58710639D01*
X46945291Y-58811978D01*
X47074272Y-58940959D01*
X47175611Y-59092624D01*
X47245415Y-59261146D01*
X47281000Y-59440047D01*
X47281000Y-59622453D01*
X47245415Y-59801354D01*
X47175611Y-59969876D01*
X47074272Y-60121541D01*
X46945291Y-60250522D01*
X46793626Y-60351861D01*
X46625104Y-60421665D01*
X46446203Y-60457250D01*
X46263797Y-60457250D01*
X46084896Y-60421665D01*
X45916374Y-60351861D01*
X45764709Y-60250522D01*
X45635728Y-60121541D01*
X45534389Y-59969876D01*
X45464585Y-59801354D01*
X45429000Y-59622453D01*
X45429000Y-59440047D01*
X45464585Y-59261146D01*
X45534389Y-59092624D01*
X45635728Y-58940959D01*
X45764709Y-58811978D01*
X45916374Y-58710639D01*
X46084896Y-58640835D01*
X46263797Y-58605250D01*
X46446203Y-58605250D01*
X46625104Y-58640835D01*
X46625104Y-58640835D01*
G37*
G36*
X36465104Y-58640835D02*
G01*
X36633626Y-58710639D01*
X36785291Y-58811978D01*
X36914272Y-58940959D01*
X37015611Y-59092624D01*
X37085415Y-59261146D01*
X37121000Y-59440047D01*
X37121000Y-59622453D01*
X37085415Y-59801354D01*
X37015611Y-59969876D01*
X36914272Y-60121541D01*
X36785291Y-60250522D01*
X36633626Y-60351861D01*
X36465104Y-60421665D01*
X36286203Y-60457250D01*
X36103797Y-60457250D01*
X35924896Y-60421665D01*
X35756374Y-60351861D01*
X35604709Y-60250522D01*
X35475728Y-60121541D01*
X35374389Y-59969876D01*
X35304585Y-59801354D01*
X35269000Y-59622453D01*
X35269000Y-59440047D01*
X35304585Y-59261146D01*
X35374389Y-59092624D01*
X35475728Y-58940959D01*
X35604709Y-58811978D01*
X35756374Y-58710639D01*
X35924896Y-58640835D01*
X36103797Y-58605250D01*
X36286203Y-58605250D01*
X36465104Y-58640835D01*
X36465104Y-58640835D01*
G37*
G36*
X107276474Y-55151934D02*
G01*
X107494474Y-55242233D01*
X107648623Y-55306083D01*
X107983548Y-55529873D01*
X108268377Y-55814702D01*
X108492167Y-56149627D01*
X108556017Y-56303776D01*
X108646316Y-56521776D01*
X108724900Y-56916844D01*
X108724900Y-57319656D01*
X108646316Y-57714724D01*
X108567621Y-57904711D01*
X108492167Y-58086873D01*
X108268377Y-58421798D01*
X107983548Y-58706627D01*
X107648623Y-58930417D01*
X107494474Y-58994267D01*
X107276474Y-59084566D01*
X106881406Y-59163150D01*
X106478594Y-59163150D01*
X106083526Y-59084566D01*
X105865526Y-58994267D01*
X105711377Y-58930417D01*
X105376452Y-58706627D01*
X105091623Y-58421798D01*
X104867833Y-58086873D01*
X104792379Y-57904711D01*
X104713684Y-57714724D01*
X104635100Y-57319656D01*
X104635100Y-56916844D01*
X104713684Y-56521776D01*
X104803983Y-56303776D01*
X104867833Y-56149627D01*
X105091623Y-55814702D01*
X105376452Y-55529873D01*
X105711377Y-55306083D01*
X105865526Y-55242233D01*
X106083526Y-55151934D01*
X106478594Y-55073350D01*
X106881406Y-55073350D01*
X107276474Y-55151934D01*
X107276474Y-55151934D01*
G37*
G36*
X91899411Y-55603776D02*
G01*
X92018137Y-55652954D01*
X92186041Y-55722502D01*
X92186042Y-55722503D01*
X92444004Y-55894867D01*
X92663383Y-56114246D01*
X92687024Y-56149628D01*
X92835748Y-56372209D01*
X92861427Y-56434204D01*
X92954474Y-56658839D01*
X93015000Y-56963126D01*
X93015000Y-57273374D01*
X92956661Y-57566668D01*
X92954474Y-57577660D01*
X92835748Y-57864291D01*
X92808740Y-57904711D01*
X92663383Y-58122254D01*
X92444004Y-58341633D01*
X92324028Y-58421798D01*
X92186041Y-58513998D01*
X92068637Y-58562628D01*
X91899411Y-58632724D01*
X91747267Y-58662987D01*
X91595125Y-58693250D01*
X91284875Y-58693250D01*
X91132733Y-58662987D01*
X90980589Y-58632724D01*
X90811363Y-58562628D01*
X90693959Y-58513998D01*
X90555972Y-58421798D01*
X90435996Y-58341633D01*
X90216617Y-58122254D01*
X90071260Y-57904711D01*
X90044252Y-57864291D01*
X89925526Y-57577660D01*
X89923340Y-57566668D01*
X89865000Y-57273374D01*
X89865000Y-56963126D01*
X89925526Y-56658839D01*
X90018573Y-56434204D01*
X90044252Y-56372209D01*
X90192976Y-56149628D01*
X90216617Y-56114246D01*
X90435996Y-55894867D01*
X90693958Y-55722503D01*
X90693959Y-55722502D01*
X90861863Y-55652954D01*
X90980589Y-55603776D01*
X91284875Y-55543250D01*
X91595125Y-55543250D01*
X91899411Y-55603776D01*
X91899411Y-55603776D01*
G37*
G36*
X113459233Y-56766335D02*
G01*
X113627990Y-56836236D01*
X113779868Y-56937718D01*
X113909032Y-57066882D01*
X114010514Y-57218760D01*
X114080415Y-57387517D01*
X114116050Y-57566668D01*
X114116050Y-57749332D01*
X114080415Y-57928483D01*
X114010514Y-58097240D01*
X113909032Y-58249118D01*
X113779868Y-58378282D01*
X113627990Y-58479764D01*
X113459233Y-58549665D01*
X113280082Y-58585300D01*
X113097418Y-58585300D01*
X112918267Y-58549665D01*
X112749510Y-58479764D01*
X112597632Y-58378282D01*
X112468468Y-58249118D01*
X112366986Y-58097240D01*
X112297085Y-57928483D01*
X112261450Y-57749332D01*
X112261450Y-57566668D01*
X112297085Y-57387517D01*
X112366986Y-57218760D01*
X112468468Y-57066882D01*
X112597632Y-56937718D01*
X112749510Y-56836236D01*
X112918267Y-56766335D01*
X113097418Y-56730700D01*
X113280082Y-56730700D01*
X113459233Y-56766335D01*
X113459233Y-56766335D01*
G37*
G36*
X110919233Y-56766335D02*
G01*
X111087990Y-56836236D01*
X111239868Y-56937718D01*
X111369032Y-57066882D01*
X111470514Y-57218760D01*
X111540415Y-57387517D01*
X111576050Y-57566668D01*
X111576050Y-57749332D01*
X111540415Y-57928483D01*
X111470514Y-58097240D01*
X111369032Y-58249118D01*
X111239868Y-58378282D01*
X111087990Y-58479764D01*
X110919233Y-58549665D01*
X110740082Y-58585300D01*
X110557418Y-58585300D01*
X110378267Y-58549665D01*
X110209510Y-58479764D01*
X110057632Y-58378282D01*
X109928468Y-58249118D01*
X109826986Y-58097240D01*
X109757085Y-57928483D01*
X109721450Y-57749332D01*
X109721450Y-57566668D01*
X109757085Y-57387517D01*
X109826986Y-57218760D01*
X109928468Y-57066882D01*
X110057632Y-56937718D01*
X110209510Y-56836236D01*
X110378267Y-56766335D01*
X110557418Y-56730700D01*
X110740082Y-56730700D01*
X110919233Y-56766335D01*
X110919233Y-56766335D01*
G37*
G36*
X118539233Y-56766335D02*
G01*
X118707990Y-56836236D01*
X118859868Y-56937718D01*
X118989032Y-57066882D01*
X119090514Y-57218760D01*
X119160415Y-57387517D01*
X119196050Y-57566668D01*
X119196050Y-57749332D01*
X119160415Y-57928483D01*
X119090514Y-58097240D01*
X118989032Y-58249118D01*
X118859868Y-58378282D01*
X118707990Y-58479764D01*
X118539233Y-58549665D01*
X118360082Y-58585300D01*
X118177418Y-58585300D01*
X117998267Y-58549665D01*
X117829510Y-58479764D01*
X117677632Y-58378282D01*
X117548468Y-58249118D01*
X117446986Y-58097240D01*
X117377085Y-57928483D01*
X117341450Y-57749332D01*
X117341450Y-57566668D01*
X117377085Y-57387517D01*
X117446986Y-57218760D01*
X117548468Y-57066882D01*
X117677632Y-56937718D01*
X117829510Y-56836236D01*
X117998267Y-56766335D01*
X118177418Y-56730700D01*
X118360082Y-56730700D01*
X118539233Y-56766335D01*
X118539233Y-56766335D01*
G37*
G36*
X126159233Y-56766335D02*
G01*
X126327990Y-56836236D01*
X126479868Y-56937718D01*
X126609032Y-57066882D01*
X126710514Y-57218760D01*
X126780415Y-57387517D01*
X126816050Y-57566668D01*
X126816050Y-57749332D01*
X126780415Y-57928483D01*
X126710514Y-58097240D01*
X126609032Y-58249118D01*
X126479868Y-58378282D01*
X126327990Y-58479764D01*
X126159233Y-58549665D01*
X125980082Y-58585300D01*
X125797418Y-58585300D01*
X125618267Y-58549665D01*
X125449510Y-58479764D01*
X125297632Y-58378282D01*
X125168468Y-58249118D01*
X125066986Y-58097240D01*
X124997085Y-57928483D01*
X124961450Y-57749332D01*
X124961450Y-57566668D01*
X124997085Y-57387517D01*
X125066986Y-57218760D01*
X125168468Y-57066882D01*
X125297632Y-56937718D01*
X125449510Y-56836236D01*
X125618267Y-56766335D01*
X125797418Y-56730700D01*
X125980082Y-56730700D01*
X126159233Y-56766335D01*
X126159233Y-56766335D01*
G37*
G36*
X115999233Y-56766335D02*
G01*
X116167990Y-56836236D01*
X116319868Y-56937718D01*
X116449032Y-57066882D01*
X116550514Y-57218760D01*
X116620415Y-57387517D01*
X116656050Y-57566668D01*
X116656050Y-57749332D01*
X116620415Y-57928483D01*
X116550514Y-58097240D01*
X116449032Y-58249118D01*
X116319868Y-58378282D01*
X116167990Y-58479764D01*
X115999233Y-58549665D01*
X115820082Y-58585300D01*
X115637418Y-58585300D01*
X115458267Y-58549665D01*
X115289510Y-58479764D01*
X115137632Y-58378282D01*
X115008468Y-58249118D01*
X114906986Y-58097240D01*
X114837085Y-57928483D01*
X114801450Y-57749332D01*
X114801450Y-57566668D01*
X114837085Y-57387517D01*
X114906986Y-57218760D01*
X115008468Y-57066882D01*
X115137632Y-56937718D01*
X115289510Y-56836236D01*
X115458267Y-56766335D01*
X115637418Y-56730700D01*
X115820082Y-56730700D01*
X115999233Y-56766335D01*
X115999233Y-56766335D01*
G37*
G36*
X75756560Y-55830314D02*
G01*
X75908027Y-55860443D01*
X76122045Y-55949092D01*
X76122046Y-55949093D01*
X76314654Y-56077789D01*
X76478461Y-56241596D01*
X76564258Y-56370001D01*
X76607158Y-56434205D01*
X76695807Y-56648223D01*
X76741000Y-56875424D01*
X76741000Y-57107076D01*
X76695807Y-57334277D01*
X76607158Y-57548295D01*
X76594881Y-57566669D01*
X76478461Y-57740904D01*
X76314654Y-57904711D01*
X76257540Y-57942873D01*
X76122045Y-58033408D01*
X75908027Y-58122057D01*
X75756560Y-58152186D01*
X75680827Y-58167250D01*
X75449173Y-58167250D01*
X75373440Y-58152186D01*
X75221973Y-58122057D01*
X75007955Y-58033408D01*
X74872460Y-57942873D01*
X74815346Y-57904711D01*
X74651539Y-57740904D01*
X74535119Y-57566669D01*
X74522842Y-57548295D01*
X74434193Y-57334277D01*
X74389000Y-57107076D01*
X74389000Y-56875424D01*
X74434193Y-56648223D01*
X74522842Y-56434205D01*
X74565742Y-56370001D01*
X74651539Y-56241596D01*
X74815346Y-56077789D01*
X75007954Y-55949093D01*
X75007955Y-55949092D01*
X75221973Y-55860443D01*
X75373440Y-55830314D01*
X75449173Y-55815250D01*
X75680827Y-55815250D01*
X75756560Y-55830314D01*
X75756560Y-55830314D01*
G37*
G36*
X56706560Y-55830314D02*
G01*
X56858027Y-55860443D01*
X57072045Y-55949092D01*
X57072046Y-55949093D01*
X57264654Y-56077789D01*
X57428461Y-56241596D01*
X57514258Y-56370001D01*
X57557158Y-56434205D01*
X57645807Y-56648223D01*
X57691000Y-56875424D01*
X57691000Y-57107076D01*
X57645807Y-57334277D01*
X57557158Y-57548295D01*
X57544881Y-57566669D01*
X57428461Y-57740904D01*
X57264654Y-57904711D01*
X57207540Y-57942873D01*
X57072045Y-58033408D01*
X56858027Y-58122057D01*
X56706560Y-58152186D01*
X56630827Y-58167250D01*
X56399173Y-58167250D01*
X56323440Y-58152186D01*
X56171973Y-58122057D01*
X55957955Y-58033408D01*
X55822460Y-57942873D01*
X55765346Y-57904711D01*
X55601539Y-57740904D01*
X55485119Y-57566669D01*
X55472842Y-57548295D01*
X55384193Y-57334277D01*
X55339000Y-57107076D01*
X55339000Y-56875424D01*
X55384193Y-56648223D01*
X55472842Y-56434205D01*
X55515742Y-56370001D01*
X55601539Y-56241596D01*
X55765346Y-56077789D01*
X55957954Y-55949093D01*
X55957955Y-55949092D01*
X56171973Y-55860443D01*
X56323440Y-55830314D01*
X56399173Y-55815250D01*
X56630827Y-55815250D01*
X56706560Y-55830314D01*
X56706560Y-55830314D01*
G37*
G36*
X37656560Y-55830314D02*
G01*
X37808027Y-55860443D01*
X38022045Y-55949092D01*
X38022046Y-55949093D01*
X38214654Y-56077789D01*
X38378461Y-56241596D01*
X38464258Y-56370001D01*
X38507158Y-56434205D01*
X38595807Y-56648223D01*
X38641000Y-56875424D01*
X38641000Y-57107076D01*
X38595807Y-57334277D01*
X38507158Y-57548295D01*
X38494881Y-57566669D01*
X38378461Y-57740904D01*
X38214654Y-57904711D01*
X38157540Y-57942873D01*
X38022045Y-58033408D01*
X37808027Y-58122057D01*
X37656560Y-58152186D01*
X37580827Y-58167250D01*
X37349173Y-58167250D01*
X37273440Y-58152186D01*
X37121973Y-58122057D01*
X36907955Y-58033408D01*
X36772460Y-57942873D01*
X36715346Y-57904711D01*
X36551539Y-57740904D01*
X36435119Y-57566669D01*
X36422842Y-57548295D01*
X36334193Y-57334277D01*
X36289000Y-57107076D01*
X36289000Y-56875424D01*
X36334193Y-56648223D01*
X36422842Y-56434205D01*
X36465742Y-56370001D01*
X36551539Y-56241596D01*
X36715346Y-56077789D01*
X36907954Y-55949093D01*
X36907955Y-55949092D01*
X37121973Y-55860443D01*
X37273440Y-55830314D01*
X37349173Y-55815250D01*
X37580827Y-55815250D01*
X37656560Y-55830314D01*
X37656560Y-55830314D01*
G37*
G36*
X126159233Y-54226335D02*
G01*
X126327990Y-54296236D01*
X126479868Y-54397718D01*
X126609032Y-54526882D01*
X126710514Y-54678760D01*
X126780415Y-54847517D01*
X126816050Y-55026668D01*
X126816050Y-55209332D01*
X126780415Y-55388483D01*
X126710514Y-55557240D01*
X126609032Y-55709118D01*
X126479868Y-55838282D01*
X126327990Y-55939764D01*
X126159233Y-56009665D01*
X125980082Y-56045300D01*
X125797418Y-56045300D01*
X125618267Y-56009665D01*
X125449510Y-55939764D01*
X125297632Y-55838282D01*
X125168468Y-55709118D01*
X125066986Y-55557240D01*
X124997085Y-55388483D01*
X124961450Y-55209332D01*
X124961450Y-55026668D01*
X124997085Y-54847517D01*
X125066986Y-54678760D01*
X125168468Y-54526882D01*
X125297632Y-54397718D01*
X125449510Y-54296236D01*
X125618267Y-54226335D01*
X125797418Y-54190700D01*
X125980082Y-54190700D01*
X126159233Y-54226335D01*
X126159233Y-54226335D01*
G37*
G36*
X110919233Y-54226335D02*
G01*
X111087990Y-54296236D01*
X111239868Y-54397718D01*
X111369032Y-54526882D01*
X111470514Y-54678760D01*
X111540415Y-54847517D01*
X111576050Y-55026668D01*
X111576050Y-55209332D01*
X111540415Y-55388483D01*
X111470514Y-55557240D01*
X111369032Y-55709118D01*
X111239868Y-55838282D01*
X111087990Y-55939764D01*
X110919233Y-56009665D01*
X110740082Y-56045300D01*
X110557418Y-56045300D01*
X110378267Y-56009665D01*
X110209510Y-55939764D01*
X110057632Y-55838282D01*
X109928468Y-55709118D01*
X109826986Y-55557240D01*
X109757085Y-55388483D01*
X109721450Y-55209332D01*
X109721450Y-55026668D01*
X109757085Y-54847517D01*
X109826986Y-54678760D01*
X109928468Y-54526882D01*
X110057632Y-54397718D01*
X110209510Y-54296236D01*
X110378267Y-54226335D01*
X110557418Y-54190700D01*
X110740082Y-54190700D01*
X110919233Y-54226335D01*
X110919233Y-54226335D01*
G37*
G36*
X82106560Y-53290314D02*
G01*
X82258027Y-53320443D01*
X82472045Y-53409092D01*
X82472046Y-53409093D01*
X82664654Y-53537789D01*
X82828461Y-53701596D01*
X82914258Y-53830001D01*
X82957158Y-53894205D01*
X83045807Y-54108223D01*
X83091000Y-54335424D01*
X83091000Y-54567076D01*
X83045807Y-54794277D01*
X82957158Y-55008295D01*
X82944881Y-55026669D01*
X82828461Y-55200904D01*
X82664654Y-55364711D01*
X82536249Y-55450508D01*
X82472045Y-55493408D01*
X82258027Y-55582057D01*
X82106560Y-55612186D01*
X82030827Y-55627250D01*
X81799173Y-55627250D01*
X81723440Y-55612186D01*
X81571973Y-55582057D01*
X81357955Y-55493408D01*
X81293751Y-55450508D01*
X81165346Y-55364711D01*
X81001539Y-55200904D01*
X80885119Y-55026669D01*
X80872842Y-55008295D01*
X80784193Y-54794277D01*
X80739000Y-54567076D01*
X80739000Y-54335424D01*
X80784193Y-54108223D01*
X80872842Y-53894205D01*
X80915742Y-53830001D01*
X81001539Y-53701596D01*
X81165346Y-53537789D01*
X81357954Y-53409093D01*
X81357955Y-53409092D01*
X81571973Y-53320443D01*
X81723440Y-53290314D01*
X81799173Y-53275250D01*
X82030827Y-53275250D01*
X82106560Y-53290314D01*
X82106560Y-53290314D01*
G37*
G36*
X63056560Y-53290314D02*
G01*
X63208027Y-53320443D01*
X63422045Y-53409092D01*
X63422046Y-53409093D01*
X63614654Y-53537789D01*
X63778461Y-53701596D01*
X63864258Y-53830001D01*
X63907158Y-53894205D01*
X63995807Y-54108223D01*
X64041000Y-54335424D01*
X64041000Y-54567076D01*
X63995807Y-54794277D01*
X63907158Y-55008295D01*
X63894881Y-55026669D01*
X63778461Y-55200904D01*
X63614654Y-55364711D01*
X63486249Y-55450508D01*
X63422045Y-55493408D01*
X63208027Y-55582057D01*
X63056560Y-55612186D01*
X62980827Y-55627250D01*
X62749173Y-55627250D01*
X62673440Y-55612186D01*
X62521973Y-55582057D01*
X62307955Y-55493408D01*
X62243751Y-55450508D01*
X62115346Y-55364711D01*
X61951539Y-55200904D01*
X61835119Y-55026669D01*
X61822842Y-55008295D01*
X61734193Y-54794277D01*
X61689000Y-54567076D01*
X61689000Y-54335424D01*
X61734193Y-54108223D01*
X61822842Y-53894205D01*
X61865742Y-53830001D01*
X61951539Y-53701596D01*
X62115346Y-53537789D01*
X62307954Y-53409093D01*
X62307955Y-53409092D01*
X62521973Y-53320443D01*
X62673440Y-53290314D01*
X62749173Y-53275250D01*
X62980827Y-53275250D01*
X63056560Y-53290314D01*
X63056560Y-53290314D01*
G37*
G36*
X44006560Y-53290314D02*
G01*
X44158027Y-53320443D01*
X44372045Y-53409092D01*
X44372046Y-53409093D01*
X44564654Y-53537789D01*
X44728461Y-53701596D01*
X44814258Y-53830001D01*
X44857158Y-53894205D01*
X44945807Y-54108223D01*
X44991000Y-54335424D01*
X44991000Y-54567076D01*
X44945807Y-54794277D01*
X44857158Y-55008295D01*
X44844881Y-55026669D01*
X44728461Y-55200904D01*
X44564654Y-55364711D01*
X44436249Y-55450508D01*
X44372045Y-55493408D01*
X44158027Y-55582057D01*
X44006560Y-55612186D01*
X43930827Y-55627250D01*
X43699173Y-55627250D01*
X43623440Y-55612186D01*
X43471973Y-55582057D01*
X43257955Y-55493408D01*
X43193751Y-55450508D01*
X43065346Y-55364711D01*
X42901539Y-55200904D01*
X42785119Y-55026669D01*
X42772842Y-55008295D01*
X42684193Y-54794277D01*
X42639000Y-54567076D01*
X42639000Y-54335424D01*
X42684193Y-54108223D01*
X42772842Y-53894205D01*
X42815742Y-53830001D01*
X42901539Y-53701596D01*
X43065346Y-53537789D01*
X43257954Y-53409093D01*
X43257955Y-53409092D01*
X43471973Y-53320443D01*
X43623440Y-53290314D01*
X43699173Y-53275250D01*
X43930827Y-53275250D01*
X44006560Y-53290314D01*
X44006560Y-53290314D01*
G37*
G36*
X126159233Y-51686335D02*
G01*
X126327990Y-51756236D01*
X126479868Y-51857718D01*
X126609032Y-51986882D01*
X126710514Y-52138760D01*
X126780415Y-52307517D01*
X126816050Y-52486668D01*
X126816050Y-52669332D01*
X126780415Y-52848483D01*
X126710514Y-53017240D01*
X126609032Y-53169118D01*
X126479868Y-53298282D01*
X126327990Y-53399764D01*
X126159233Y-53469665D01*
X125980082Y-53505300D01*
X125797418Y-53505300D01*
X125618267Y-53469665D01*
X125449510Y-53399764D01*
X125297632Y-53298282D01*
X125168468Y-53169118D01*
X125066986Y-53017240D01*
X124997085Y-52848483D01*
X124961450Y-52669332D01*
X124961450Y-52486668D01*
X124997085Y-52307517D01*
X125066986Y-52138760D01*
X125168468Y-51986882D01*
X125297632Y-51857718D01*
X125449510Y-51756236D01*
X125618267Y-51686335D01*
X125797418Y-51650700D01*
X125980082Y-51650700D01*
X126159233Y-51686335D01*
X126159233Y-51686335D01*
G37*
G36*
X110919233Y-51686335D02*
G01*
X111087990Y-51756236D01*
X111239868Y-51857718D01*
X111369032Y-51986882D01*
X111470514Y-52138760D01*
X111540415Y-52307517D01*
X111576050Y-52486668D01*
X111576050Y-52669332D01*
X111540415Y-52848483D01*
X111470514Y-53017240D01*
X111369032Y-53169118D01*
X111239868Y-53298282D01*
X111087990Y-53399764D01*
X110919233Y-53469665D01*
X110740082Y-53505300D01*
X110557418Y-53505300D01*
X110378267Y-53469665D01*
X110209510Y-53399764D01*
X110057632Y-53298282D01*
X109928468Y-53169118D01*
X109826986Y-53017240D01*
X109757085Y-52848483D01*
X109721450Y-52669332D01*
X109721450Y-52486668D01*
X109757085Y-52307517D01*
X109826986Y-52138760D01*
X109928468Y-51986882D01*
X110057632Y-51857718D01*
X110209510Y-51756236D01*
X110378267Y-51686335D01*
X110557418Y-51650700D01*
X110740082Y-51650700D01*
X110919233Y-51686335D01*
X110919233Y-51686335D01*
G37*
G36*
X126159233Y-49146335D02*
G01*
X126327990Y-49216236D01*
X126479868Y-49317718D01*
X126609032Y-49446882D01*
X126710514Y-49598760D01*
X126780415Y-49767517D01*
X126816050Y-49946668D01*
X126816050Y-50129332D01*
X126780415Y-50308483D01*
X126710514Y-50477240D01*
X126609032Y-50629118D01*
X126479868Y-50758282D01*
X126327990Y-50859764D01*
X126159233Y-50929665D01*
X125980082Y-50965300D01*
X125797418Y-50965300D01*
X125618267Y-50929665D01*
X125449510Y-50859764D01*
X125297632Y-50758282D01*
X125168468Y-50629118D01*
X125066986Y-50477240D01*
X124997085Y-50308483D01*
X124961450Y-50129332D01*
X124961450Y-49946668D01*
X124997085Y-49767517D01*
X125066986Y-49598760D01*
X125168468Y-49446882D01*
X125297632Y-49317718D01*
X125449510Y-49216236D01*
X125618267Y-49146335D01*
X125797418Y-49110700D01*
X125980082Y-49110700D01*
X126159233Y-49146335D01*
X126159233Y-49146335D01*
G37*
G36*
X110919233Y-49146335D02*
G01*
X111087990Y-49216236D01*
X111239868Y-49317718D01*
X111369032Y-49446882D01*
X111470514Y-49598760D01*
X111540415Y-49767517D01*
X111576050Y-49946668D01*
X111576050Y-50129332D01*
X111540415Y-50308483D01*
X111470514Y-50477240D01*
X111369032Y-50629118D01*
X111239868Y-50758282D01*
X111087990Y-50859764D01*
X110919233Y-50929665D01*
X110740082Y-50965300D01*
X110557418Y-50965300D01*
X110378267Y-50929665D01*
X110209510Y-50859764D01*
X110057632Y-50758282D01*
X109928468Y-50629118D01*
X109826986Y-50477240D01*
X109757085Y-50308483D01*
X109721450Y-50129332D01*
X109721450Y-49946668D01*
X109757085Y-49767517D01*
X109826986Y-49598760D01*
X109928468Y-49446882D01*
X110057632Y-49317718D01*
X110209510Y-49216236D01*
X110378267Y-49146335D01*
X110557418Y-49110700D01*
X110740082Y-49110700D01*
X110919233Y-49146335D01*
X110919233Y-49146335D01*
G37*
G36*
X126159233Y-46606335D02*
G01*
X126327990Y-46676236D01*
X126479868Y-46777718D01*
X126609032Y-46906882D01*
X126710514Y-47058760D01*
X126780415Y-47227517D01*
X126816050Y-47406668D01*
X126816050Y-47589332D01*
X126780415Y-47768483D01*
X126710514Y-47937240D01*
X126609032Y-48089118D01*
X126479868Y-48218282D01*
X126327990Y-48319764D01*
X126159233Y-48389665D01*
X125980082Y-48425300D01*
X125797418Y-48425300D01*
X125618267Y-48389665D01*
X125449510Y-48319764D01*
X125297632Y-48218282D01*
X125168468Y-48089118D01*
X125066986Y-47937240D01*
X124997085Y-47768483D01*
X124961450Y-47589332D01*
X124961450Y-47406668D01*
X124997085Y-47227517D01*
X125066986Y-47058760D01*
X125168468Y-46906882D01*
X125297632Y-46777718D01*
X125449510Y-46676236D01*
X125618267Y-46606335D01*
X125797418Y-46570700D01*
X125980082Y-46570700D01*
X126159233Y-46606335D01*
X126159233Y-46606335D01*
G37*
G36*
X110919233Y-46606335D02*
G01*
X111087990Y-46676236D01*
X111239868Y-46777718D01*
X111369032Y-46906882D01*
X111470514Y-47058760D01*
X111540415Y-47227517D01*
X111576050Y-47406668D01*
X111576050Y-47589332D01*
X111540415Y-47768483D01*
X111470514Y-47937240D01*
X111369032Y-48089118D01*
X111239868Y-48218282D01*
X111087990Y-48319764D01*
X110919233Y-48389665D01*
X110740082Y-48425300D01*
X110557418Y-48425300D01*
X110378267Y-48389665D01*
X110209510Y-48319764D01*
X110057632Y-48218282D01*
X109928468Y-48089118D01*
X109826986Y-47937240D01*
X109757085Y-47768483D01*
X109721450Y-47589332D01*
X109721450Y-47406668D01*
X109757085Y-47227517D01*
X109826986Y-47058760D01*
X109928468Y-46906882D01*
X110057632Y-46777718D01*
X110209510Y-46676236D01*
X110378267Y-46606335D01*
X110557418Y-46570700D01*
X110740082Y-46570700D01*
X110919233Y-46606335D01*
X110919233Y-46606335D01*
G37*
G36*
X110919233Y-44066335D02*
G01*
X111087990Y-44136236D01*
X111239868Y-44237718D01*
X111369032Y-44366882D01*
X111470514Y-44518760D01*
X111540415Y-44687517D01*
X111576050Y-44866668D01*
X111576050Y-45049332D01*
X111540415Y-45228483D01*
X111470514Y-45397240D01*
X111369032Y-45549118D01*
X111239868Y-45678282D01*
X111087990Y-45779764D01*
X110919233Y-45849665D01*
X110740082Y-45885300D01*
X110557418Y-45885300D01*
X110378267Y-45849665D01*
X110209510Y-45779764D01*
X110057632Y-45678282D01*
X109928468Y-45549118D01*
X109826986Y-45397240D01*
X109757085Y-45228483D01*
X109721450Y-45049332D01*
X109721450Y-44866668D01*
X109757085Y-44687517D01*
X109826986Y-44518760D01*
X109928468Y-44366882D01*
X110057632Y-44237718D01*
X110209510Y-44136236D01*
X110378267Y-44066335D01*
X110557418Y-44030700D01*
X110740082Y-44030700D01*
X110919233Y-44066335D01*
X110919233Y-44066335D01*
G37*
G36*
X126159233Y-44066335D02*
G01*
X126327990Y-44136236D01*
X126479868Y-44237718D01*
X126609032Y-44366882D01*
X126710514Y-44518760D01*
X126780415Y-44687517D01*
X126816050Y-44866668D01*
X126816050Y-45049332D01*
X126780415Y-45228483D01*
X126710514Y-45397240D01*
X126609032Y-45549118D01*
X126479868Y-45678282D01*
X126327990Y-45779764D01*
X126159233Y-45849665D01*
X125980082Y-45885300D01*
X125797418Y-45885300D01*
X125618267Y-45849665D01*
X125449510Y-45779764D01*
X125297632Y-45678282D01*
X125168468Y-45549118D01*
X125066986Y-45397240D01*
X124997085Y-45228483D01*
X124961450Y-45049332D01*
X124961450Y-44866668D01*
X124997085Y-44687517D01*
X125066986Y-44518760D01*
X125168468Y-44366882D01*
X125297632Y-44237718D01*
X125449510Y-44136236D01*
X125618267Y-44066335D01*
X125797418Y-44030700D01*
X125980082Y-44030700D01*
X126159233Y-44066335D01*
X126159233Y-44066335D01*
G37*
G36*
X126159233Y-41526335D02*
G01*
X126327990Y-41596236D01*
X126479868Y-41697718D01*
X126609032Y-41826882D01*
X126710514Y-41978760D01*
X126780415Y-42147517D01*
X126816050Y-42326668D01*
X126816050Y-42509332D01*
X126780415Y-42688483D01*
X126710514Y-42857240D01*
X126609032Y-43009118D01*
X126479868Y-43138282D01*
X126327990Y-43239764D01*
X126159233Y-43309665D01*
X125980082Y-43345300D01*
X125797418Y-43345300D01*
X125618267Y-43309665D01*
X125449510Y-43239764D01*
X125297632Y-43138282D01*
X125168468Y-43009118D01*
X125066986Y-42857240D01*
X124997085Y-42688483D01*
X124961450Y-42509332D01*
X124961450Y-42326668D01*
X124997085Y-42147517D01*
X125066986Y-41978760D01*
X125168468Y-41826882D01*
X125297632Y-41697718D01*
X125449510Y-41596236D01*
X125618267Y-41526335D01*
X125797418Y-41490700D01*
X125980082Y-41490700D01*
X126159233Y-41526335D01*
X126159233Y-41526335D01*
G37*
G36*
X110919233Y-41526335D02*
G01*
X111087990Y-41596236D01*
X111239868Y-41697718D01*
X111369032Y-41826882D01*
X111470514Y-41978760D01*
X111540415Y-42147517D01*
X111576050Y-42326668D01*
X111576050Y-42509332D01*
X111540415Y-42688483D01*
X111470514Y-42857240D01*
X111369032Y-43009118D01*
X111239868Y-43138282D01*
X111087990Y-43239764D01*
X110919233Y-43309665D01*
X110740082Y-43345300D01*
X110557418Y-43345300D01*
X110378267Y-43309665D01*
X110209510Y-43239764D01*
X110057632Y-43138282D01*
X109928468Y-43009118D01*
X109826986Y-42857240D01*
X109757085Y-42688483D01*
X109721450Y-42509332D01*
X109721450Y-42326668D01*
X109757085Y-42147517D01*
X109826986Y-41978760D01*
X109928468Y-41826882D01*
X110057632Y-41697718D01*
X110209510Y-41596236D01*
X110378267Y-41526335D01*
X110557418Y-41490700D01*
X110740082Y-41490700D01*
X110919233Y-41526335D01*
X110919233Y-41526335D01*
G37*
G36*
X99021474Y-38514934D02*
G01*
X99239474Y-38605233D01*
X99393623Y-38669083D01*
X99728548Y-38892873D01*
X100013377Y-39177702D01*
X100237167Y-39512627D01*
X100298475Y-39660639D01*
X100391316Y-39884776D01*
X100469900Y-40279844D01*
X100469900Y-40682656D01*
X100391316Y-41077724D01*
X100340451Y-41200522D01*
X100237167Y-41449873D01*
X100013377Y-41784798D01*
X99728548Y-42069627D01*
X99393623Y-42293417D01*
X99313345Y-42326669D01*
X99021474Y-42447566D01*
X98626406Y-42526150D01*
X98223594Y-42526150D01*
X97828526Y-42447566D01*
X97536655Y-42326669D01*
X97456377Y-42293417D01*
X97121452Y-42069627D01*
X96836623Y-41784798D01*
X96612833Y-41449873D01*
X96509549Y-41200522D01*
X96458684Y-41077724D01*
X96380100Y-40682656D01*
X96380100Y-40279844D01*
X96458684Y-39884776D01*
X96551525Y-39660639D01*
X96612833Y-39512627D01*
X96836623Y-39177702D01*
X97121452Y-38892873D01*
X97456377Y-38669083D01*
X97610526Y-38605233D01*
X97828526Y-38514934D01*
X98223594Y-38436350D01*
X98626406Y-38436350D01*
X99021474Y-38514934D01*
X99021474Y-38514934D01*
G37*
G36*
X41871474Y-38514934D02*
G01*
X42089474Y-38605233D01*
X42243623Y-38669083D01*
X42578548Y-38892873D01*
X42863377Y-39177702D01*
X43087167Y-39512627D01*
X43148475Y-39660639D01*
X43241316Y-39884776D01*
X43319900Y-40279844D01*
X43319900Y-40682656D01*
X43241316Y-41077724D01*
X43190451Y-41200522D01*
X43087167Y-41449873D01*
X42863377Y-41784798D01*
X42578548Y-42069627D01*
X42243623Y-42293417D01*
X42163345Y-42326669D01*
X41871474Y-42447566D01*
X41476406Y-42526150D01*
X41073594Y-42526150D01*
X40678526Y-42447566D01*
X40386655Y-42326669D01*
X40306377Y-42293417D01*
X39971452Y-42069627D01*
X39686623Y-41784798D01*
X39462833Y-41449873D01*
X39359549Y-41200522D01*
X39308684Y-41077724D01*
X39230100Y-40682656D01*
X39230100Y-40279844D01*
X39308684Y-39884776D01*
X39401525Y-39660639D01*
X39462833Y-39512627D01*
X39686623Y-39177702D01*
X39971452Y-38892873D01*
X40306377Y-38669083D01*
X40460526Y-38605233D01*
X40678526Y-38514934D01*
X41073594Y-38436350D01*
X41476406Y-38436350D01*
X41871474Y-38514934D01*
X41871474Y-38514934D01*
G37*
G36*
X60921474Y-38514934D02*
G01*
X61139474Y-38605233D01*
X61293623Y-38669083D01*
X61628548Y-38892873D01*
X61913377Y-39177702D01*
X62137167Y-39512627D01*
X62198475Y-39660639D01*
X62291316Y-39884776D01*
X62369900Y-40279844D01*
X62369900Y-40682656D01*
X62291316Y-41077724D01*
X62240451Y-41200522D01*
X62137167Y-41449873D01*
X61913377Y-41784798D01*
X61628548Y-42069627D01*
X61293623Y-42293417D01*
X61213345Y-42326669D01*
X60921474Y-42447566D01*
X60526406Y-42526150D01*
X60123594Y-42526150D01*
X59728526Y-42447566D01*
X59436655Y-42326669D01*
X59356377Y-42293417D01*
X59021452Y-42069627D01*
X58736623Y-41784798D01*
X58512833Y-41449873D01*
X58409549Y-41200522D01*
X58358684Y-41077724D01*
X58280100Y-40682656D01*
X58280100Y-40279844D01*
X58358684Y-39884776D01*
X58451525Y-39660639D01*
X58512833Y-39512627D01*
X58736623Y-39177702D01*
X59021452Y-38892873D01*
X59356377Y-38669083D01*
X59510526Y-38605233D01*
X59728526Y-38514934D01*
X60123594Y-38436350D01*
X60526406Y-38436350D01*
X60921474Y-38514934D01*
X60921474Y-38514934D01*
G37*
G36*
X79971474Y-38514934D02*
G01*
X80189474Y-38605233D01*
X80343623Y-38669083D01*
X80678548Y-38892873D01*
X80963377Y-39177702D01*
X81187167Y-39512627D01*
X81248475Y-39660639D01*
X81341316Y-39884776D01*
X81419900Y-40279844D01*
X81419900Y-40682656D01*
X81341316Y-41077724D01*
X81290451Y-41200522D01*
X81187167Y-41449873D01*
X80963377Y-41784798D01*
X80678548Y-42069627D01*
X80343623Y-42293417D01*
X80263345Y-42326669D01*
X79971474Y-42447566D01*
X79576406Y-42526150D01*
X79173594Y-42526150D01*
X78778526Y-42447566D01*
X78486655Y-42326669D01*
X78406377Y-42293417D01*
X78071452Y-42069627D01*
X77786623Y-41784798D01*
X77562833Y-41449873D01*
X77459549Y-41200522D01*
X77408684Y-41077724D01*
X77330100Y-40682656D01*
X77330100Y-40279844D01*
X77408684Y-39884776D01*
X77501525Y-39660639D01*
X77562833Y-39512627D01*
X77786623Y-39177702D01*
X78071452Y-38892873D01*
X78406377Y-38669083D01*
X78560526Y-38605233D01*
X78778526Y-38514934D01*
X79173594Y-38436350D01*
X79576406Y-38436350D01*
X79971474Y-38514934D01*
X79971474Y-38514934D01*
G37*
G36*
X74565104Y-39590835D02*
G01*
X74733626Y-39660639D01*
X74885291Y-39761978D01*
X75014272Y-39890959D01*
X75115611Y-40042624D01*
X75185415Y-40211146D01*
X75221000Y-40390047D01*
X75221000Y-40572453D01*
X75185415Y-40751354D01*
X75115611Y-40919876D01*
X75014272Y-41071541D01*
X74885291Y-41200522D01*
X74733626Y-41301861D01*
X74565104Y-41371665D01*
X74386203Y-41407250D01*
X74203797Y-41407250D01*
X74024896Y-41371665D01*
X73856374Y-41301861D01*
X73704709Y-41200522D01*
X73575728Y-41071541D01*
X73474389Y-40919876D01*
X73404585Y-40751354D01*
X73369000Y-40572453D01*
X73369000Y-40390047D01*
X73404585Y-40211146D01*
X73474389Y-40042624D01*
X73575728Y-39890959D01*
X73704709Y-39761978D01*
X73856374Y-39660639D01*
X74024896Y-39590835D01*
X74203797Y-39555250D01*
X74386203Y-39555250D01*
X74565104Y-39590835D01*
X74565104Y-39590835D01*
G37*
G36*
X36465104Y-39590835D02*
G01*
X36633626Y-39660639D01*
X36785291Y-39761978D01*
X36914272Y-39890959D01*
X37015611Y-40042624D01*
X37085415Y-40211146D01*
X37121000Y-40390047D01*
X37121000Y-40572453D01*
X37085415Y-40751354D01*
X37015611Y-40919876D01*
X36914272Y-41071541D01*
X36785291Y-41200522D01*
X36633626Y-41301861D01*
X36465104Y-41371665D01*
X36286203Y-41407250D01*
X36103797Y-41407250D01*
X35924896Y-41371665D01*
X35756374Y-41301861D01*
X35604709Y-41200522D01*
X35475728Y-41071541D01*
X35374389Y-40919876D01*
X35304585Y-40751354D01*
X35269000Y-40572453D01*
X35269000Y-40390047D01*
X35304585Y-40211146D01*
X35374389Y-40042624D01*
X35475728Y-39890959D01*
X35604709Y-39761978D01*
X35756374Y-39660639D01*
X35924896Y-39590835D01*
X36103797Y-39555250D01*
X36286203Y-39555250D01*
X36465104Y-39590835D01*
X36465104Y-39590835D01*
G37*
G36*
X46625104Y-39590835D02*
G01*
X46793626Y-39660639D01*
X46945291Y-39761978D01*
X47074272Y-39890959D01*
X47175611Y-40042624D01*
X47245415Y-40211146D01*
X47281000Y-40390047D01*
X47281000Y-40572453D01*
X47245415Y-40751354D01*
X47175611Y-40919876D01*
X47074272Y-41071541D01*
X46945291Y-41200522D01*
X46793626Y-41301861D01*
X46625104Y-41371665D01*
X46446203Y-41407250D01*
X46263797Y-41407250D01*
X46084896Y-41371665D01*
X45916374Y-41301861D01*
X45764709Y-41200522D01*
X45635728Y-41071541D01*
X45534389Y-40919876D01*
X45464585Y-40751354D01*
X45429000Y-40572453D01*
X45429000Y-40390047D01*
X45464585Y-40211146D01*
X45534389Y-40042624D01*
X45635728Y-39890959D01*
X45764709Y-39761978D01*
X45916374Y-39660639D01*
X46084896Y-39590835D01*
X46263797Y-39555250D01*
X46446203Y-39555250D01*
X46625104Y-39590835D01*
X46625104Y-39590835D01*
G37*
G36*
X103775104Y-39590835D02*
G01*
X103943626Y-39660639D01*
X104095291Y-39761978D01*
X104224272Y-39890959D01*
X104325611Y-40042624D01*
X104395415Y-40211146D01*
X104431000Y-40390047D01*
X104431000Y-40572453D01*
X104395415Y-40751354D01*
X104325611Y-40919876D01*
X104224272Y-41071541D01*
X104095291Y-41200522D01*
X103943626Y-41301861D01*
X103775104Y-41371665D01*
X103596203Y-41407250D01*
X103413797Y-41407250D01*
X103234896Y-41371665D01*
X103066374Y-41301861D01*
X102914709Y-41200522D01*
X102785728Y-41071541D01*
X102684389Y-40919876D01*
X102614585Y-40751354D01*
X102579000Y-40572453D01*
X102579000Y-40390047D01*
X102614585Y-40211146D01*
X102684389Y-40042624D01*
X102785728Y-39890959D01*
X102914709Y-39761978D01*
X103066374Y-39660639D01*
X103234896Y-39590835D01*
X103413797Y-39555250D01*
X103596203Y-39555250D01*
X103775104Y-39590835D01*
X103775104Y-39590835D01*
G37*
G36*
X84725104Y-39590835D02*
G01*
X84893626Y-39660639D01*
X85045291Y-39761978D01*
X85174272Y-39890959D01*
X85275611Y-40042624D01*
X85345415Y-40211146D01*
X85381000Y-40390047D01*
X85381000Y-40572453D01*
X85345415Y-40751354D01*
X85275611Y-40919876D01*
X85174272Y-41071541D01*
X85045291Y-41200522D01*
X84893626Y-41301861D01*
X84725104Y-41371665D01*
X84546203Y-41407250D01*
X84363797Y-41407250D01*
X84184896Y-41371665D01*
X84016374Y-41301861D01*
X83864709Y-41200522D01*
X83735728Y-41071541D01*
X83634389Y-40919876D01*
X83564585Y-40751354D01*
X83529000Y-40572453D01*
X83529000Y-40390047D01*
X83564585Y-40211146D01*
X83634389Y-40042624D01*
X83735728Y-39890959D01*
X83864709Y-39761978D01*
X84016374Y-39660639D01*
X84184896Y-39590835D01*
X84363797Y-39555250D01*
X84546203Y-39555250D01*
X84725104Y-39590835D01*
X84725104Y-39590835D01*
G37*
G36*
X65675104Y-39590835D02*
G01*
X65843626Y-39660639D01*
X65995291Y-39761978D01*
X66124272Y-39890959D01*
X66225611Y-40042624D01*
X66295415Y-40211146D01*
X66331000Y-40390047D01*
X66331000Y-40572453D01*
X66295415Y-40751354D01*
X66225611Y-40919876D01*
X66124272Y-41071541D01*
X65995291Y-41200522D01*
X65843626Y-41301861D01*
X65675104Y-41371665D01*
X65496203Y-41407250D01*
X65313797Y-41407250D01*
X65134896Y-41371665D01*
X64966374Y-41301861D01*
X64814709Y-41200522D01*
X64685728Y-41071541D01*
X64584389Y-40919876D01*
X64514585Y-40751354D01*
X64479000Y-40572453D01*
X64479000Y-40390047D01*
X64514585Y-40211146D01*
X64584389Y-40042624D01*
X64685728Y-39890959D01*
X64814709Y-39761978D01*
X64966374Y-39660639D01*
X65134896Y-39590835D01*
X65313797Y-39555250D01*
X65496203Y-39555250D01*
X65675104Y-39590835D01*
X65675104Y-39590835D01*
G37*
G36*
X55515104Y-39590835D02*
G01*
X55683626Y-39660639D01*
X55835291Y-39761978D01*
X55964272Y-39890959D01*
X56065611Y-40042624D01*
X56135415Y-40211146D01*
X56171000Y-40390047D01*
X56171000Y-40572453D01*
X56135415Y-40751354D01*
X56065611Y-40919876D01*
X55964272Y-41071541D01*
X55835291Y-41200522D01*
X55683626Y-41301861D01*
X55515104Y-41371665D01*
X55336203Y-41407250D01*
X55153797Y-41407250D01*
X54974896Y-41371665D01*
X54806374Y-41301861D01*
X54654709Y-41200522D01*
X54525728Y-41071541D01*
X54424389Y-40919876D01*
X54354585Y-40751354D01*
X54319000Y-40572453D01*
X54319000Y-40390047D01*
X54354585Y-40211146D01*
X54424389Y-40042624D01*
X54525728Y-39890959D01*
X54654709Y-39761978D01*
X54806374Y-39660639D01*
X54974896Y-39590835D01*
X55153797Y-39555250D01*
X55336203Y-39555250D01*
X55515104Y-39590835D01*
X55515104Y-39590835D01*
G37*
G36*
X93615104Y-39590835D02*
G01*
X93783626Y-39660639D01*
X93935291Y-39761978D01*
X94064272Y-39890959D01*
X94165611Y-40042624D01*
X94235415Y-40211146D01*
X94271000Y-40390047D01*
X94271000Y-40572453D01*
X94235415Y-40751354D01*
X94165611Y-40919876D01*
X94064272Y-41071541D01*
X93935291Y-41200522D01*
X93783626Y-41301861D01*
X93615104Y-41371665D01*
X93436203Y-41407250D01*
X93253797Y-41407250D01*
X93074896Y-41371665D01*
X92906374Y-41301861D01*
X92754709Y-41200522D01*
X92625728Y-41071541D01*
X92524389Y-40919876D01*
X92454585Y-40751354D01*
X92419000Y-40572453D01*
X92419000Y-40390047D01*
X92454585Y-40211146D01*
X92524389Y-40042624D01*
X92625728Y-39890959D01*
X92754709Y-39761978D01*
X92906374Y-39660639D01*
X93074896Y-39590835D01*
X93253797Y-39555250D01*
X93436203Y-39555250D01*
X93615104Y-39590835D01*
X93615104Y-39590835D01*
G37*
G36*
X126159233Y-38986335D02*
G01*
X126327990Y-39056236D01*
X126479868Y-39157718D01*
X126609032Y-39286882D01*
X126710514Y-39438760D01*
X126780415Y-39607517D01*
X126816050Y-39786668D01*
X126816050Y-39969332D01*
X126780415Y-40148483D01*
X126710514Y-40317240D01*
X126609032Y-40469118D01*
X126479868Y-40598282D01*
X126327990Y-40699764D01*
X126159233Y-40769665D01*
X125980082Y-40805300D01*
X125797418Y-40805300D01*
X125618267Y-40769665D01*
X125449510Y-40699764D01*
X125297632Y-40598282D01*
X125168468Y-40469118D01*
X125066986Y-40317240D01*
X124997085Y-40148483D01*
X124961450Y-39969332D01*
X124961450Y-39786668D01*
X124997085Y-39607517D01*
X125066986Y-39438760D01*
X125168468Y-39286882D01*
X125297632Y-39157718D01*
X125449510Y-39056236D01*
X125618267Y-38986335D01*
X125797418Y-38950700D01*
X125980082Y-38950700D01*
X126159233Y-38986335D01*
X126159233Y-38986335D01*
G37*
G36*
X110919233Y-38986335D02*
G01*
X111087990Y-39056236D01*
X111239868Y-39157718D01*
X111369032Y-39286882D01*
X111470514Y-39438760D01*
X111540415Y-39607517D01*
X111576050Y-39786668D01*
X111576050Y-39969332D01*
X111540415Y-40148483D01*
X111470514Y-40317240D01*
X111369032Y-40469118D01*
X111239868Y-40598282D01*
X111087990Y-40699764D01*
X110919233Y-40769665D01*
X110740082Y-40805300D01*
X110557418Y-40805300D01*
X110378267Y-40769665D01*
X110209510Y-40699764D01*
X110057632Y-40598282D01*
X109928468Y-40469118D01*
X109826986Y-40317240D01*
X109757085Y-40148483D01*
X109721450Y-39969332D01*
X109721450Y-39786668D01*
X109757085Y-39607517D01*
X109826986Y-39438760D01*
X109928468Y-39286882D01*
X110057632Y-39157718D01*
X110209510Y-39056236D01*
X110378267Y-38986335D01*
X110557418Y-38950700D01*
X110740082Y-38950700D01*
X110919233Y-38986335D01*
X110919233Y-38986335D01*
G37*
G36*
X94806560Y-36780314D02*
G01*
X94958027Y-36810443D01*
X95172045Y-36899092D01*
X95172046Y-36899093D01*
X95364654Y-37027789D01*
X95528461Y-37191596D01*
X95565259Y-37246669D01*
X95657158Y-37384205D01*
X95745807Y-37598223D01*
X95775936Y-37749690D01*
X95791000Y-37825423D01*
X95791000Y-38057077D01*
X95790760Y-38058282D01*
X95745807Y-38284277D01*
X95657158Y-38498295D01*
X95657157Y-38498296D01*
X95528461Y-38690904D01*
X95364654Y-38854711D01*
X95307540Y-38892873D01*
X95172045Y-38983408D01*
X94958027Y-39072057D01*
X94806560Y-39102186D01*
X94730827Y-39117250D01*
X94499173Y-39117250D01*
X94423440Y-39102186D01*
X94271973Y-39072057D01*
X94057955Y-38983408D01*
X93922460Y-38892873D01*
X93865346Y-38854711D01*
X93701539Y-38690904D01*
X93572843Y-38498296D01*
X93572842Y-38498295D01*
X93484193Y-38284277D01*
X93439240Y-38058282D01*
X93439000Y-38057077D01*
X93439000Y-37825423D01*
X93454064Y-37749690D01*
X93484193Y-37598223D01*
X93572842Y-37384205D01*
X93664741Y-37246669D01*
X93701539Y-37191596D01*
X93865346Y-37027789D01*
X94057954Y-36899093D01*
X94057955Y-36899092D01*
X94271973Y-36810443D01*
X94423440Y-36780314D01*
X94499173Y-36765250D01*
X94730827Y-36765250D01*
X94806560Y-36780314D01*
X94806560Y-36780314D01*
G37*
G36*
X37656560Y-36780314D02*
G01*
X37808027Y-36810443D01*
X38022045Y-36899092D01*
X38022046Y-36899093D01*
X38214654Y-37027789D01*
X38378461Y-37191596D01*
X38415259Y-37246669D01*
X38507158Y-37384205D01*
X38595807Y-37598223D01*
X38625936Y-37749690D01*
X38641000Y-37825423D01*
X38641000Y-38057077D01*
X38640760Y-38058282D01*
X38595807Y-38284277D01*
X38507158Y-38498295D01*
X38507157Y-38498296D01*
X38378461Y-38690904D01*
X38214654Y-38854711D01*
X38157540Y-38892873D01*
X38022045Y-38983408D01*
X37808027Y-39072057D01*
X37656560Y-39102186D01*
X37580827Y-39117250D01*
X37349173Y-39117250D01*
X37273440Y-39102186D01*
X37121973Y-39072057D01*
X36907955Y-38983408D01*
X36772460Y-38892873D01*
X36715346Y-38854711D01*
X36551539Y-38690904D01*
X36422843Y-38498296D01*
X36422842Y-38498295D01*
X36334193Y-38284277D01*
X36289240Y-38058282D01*
X36289000Y-38057077D01*
X36289000Y-37825423D01*
X36304064Y-37749690D01*
X36334193Y-37598223D01*
X36422842Y-37384205D01*
X36514741Y-37246669D01*
X36551539Y-37191596D01*
X36715346Y-37027789D01*
X36907954Y-36899093D01*
X36907955Y-36899092D01*
X37121973Y-36810443D01*
X37273440Y-36780314D01*
X37349173Y-36765250D01*
X37580827Y-36765250D01*
X37656560Y-36780314D01*
X37656560Y-36780314D01*
G37*
G36*
X56706560Y-36780314D02*
G01*
X56858027Y-36810443D01*
X57072045Y-36899092D01*
X57072046Y-36899093D01*
X57264654Y-37027789D01*
X57428461Y-37191596D01*
X57465259Y-37246669D01*
X57557158Y-37384205D01*
X57645807Y-37598223D01*
X57675936Y-37749690D01*
X57691000Y-37825423D01*
X57691000Y-38057077D01*
X57690760Y-38058282D01*
X57645807Y-38284277D01*
X57557158Y-38498295D01*
X57557157Y-38498296D01*
X57428461Y-38690904D01*
X57264654Y-38854711D01*
X57207540Y-38892873D01*
X57072045Y-38983408D01*
X56858027Y-39072057D01*
X56706560Y-39102186D01*
X56630827Y-39117250D01*
X56399173Y-39117250D01*
X56323440Y-39102186D01*
X56171973Y-39072057D01*
X55957955Y-38983408D01*
X55822460Y-38892873D01*
X55765346Y-38854711D01*
X55601539Y-38690904D01*
X55472843Y-38498296D01*
X55472842Y-38498295D01*
X55384193Y-38284277D01*
X55339240Y-38058282D01*
X55339000Y-38057077D01*
X55339000Y-37825423D01*
X55354064Y-37749690D01*
X55384193Y-37598223D01*
X55472842Y-37384205D01*
X55564741Y-37246669D01*
X55601539Y-37191596D01*
X55765346Y-37027789D01*
X55957954Y-36899093D01*
X55957955Y-36899092D01*
X56171973Y-36810443D01*
X56323440Y-36780314D01*
X56399173Y-36765250D01*
X56630827Y-36765250D01*
X56706560Y-36780314D01*
X56706560Y-36780314D01*
G37*
G36*
X75756560Y-36780314D02*
G01*
X75908027Y-36810443D01*
X76122045Y-36899092D01*
X76122046Y-36899093D01*
X76314654Y-37027789D01*
X76478461Y-37191596D01*
X76515259Y-37246669D01*
X76607158Y-37384205D01*
X76695807Y-37598223D01*
X76725936Y-37749690D01*
X76741000Y-37825423D01*
X76741000Y-38057077D01*
X76740760Y-38058282D01*
X76695807Y-38284277D01*
X76607158Y-38498295D01*
X76607157Y-38498296D01*
X76478461Y-38690904D01*
X76314654Y-38854711D01*
X76257540Y-38892873D01*
X76122045Y-38983408D01*
X75908027Y-39072057D01*
X75756560Y-39102186D01*
X75680827Y-39117250D01*
X75449173Y-39117250D01*
X75373440Y-39102186D01*
X75221973Y-39072057D01*
X75007955Y-38983408D01*
X74872460Y-38892873D01*
X74815346Y-38854711D01*
X74651539Y-38690904D01*
X74522843Y-38498296D01*
X74522842Y-38498295D01*
X74434193Y-38284277D01*
X74389240Y-38058282D01*
X74389000Y-38057077D01*
X74389000Y-37825423D01*
X74404064Y-37749690D01*
X74434193Y-37598223D01*
X74522842Y-37384205D01*
X74614741Y-37246669D01*
X74651539Y-37191596D01*
X74815346Y-37027789D01*
X75007954Y-36899093D01*
X75007955Y-36899092D01*
X75221973Y-36810443D01*
X75373440Y-36780314D01*
X75449173Y-36765250D01*
X75680827Y-36765250D01*
X75756560Y-36780314D01*
X75756560Y-36780314D01*
G37*
G36*
X126159233Y-36446335D02*
G01*
X126327990Y-36516236D01*
X126479868Y-36617718D01*
X126609032Y-36746882D01*
X126710514Y-36898760D01*
X126780415Y-37067517D01*
X126816050Y-37246668D01*
X126816050Y-37429332D01*
X126780415Y-37608483D01*
X126710514Y-37777240D01*
X126609032Y-37929118D01*
X126479868Y-38058282D01*
X126327990Y-38159764D01*
X126159233Y-38229665D01*
X125980082Y-38265300D01*
X125797418Y-38265300D01*
X125618267Y-38229665D01*
X125449510Y-38159764D01*
X125297632Y-38058282D01*
X125168468Y-37929118D01*
X125066986Y-37777240D01*
X124997085Y-37608483D01*
X124961450Y-37429332D01*
X124961450Y-37246668D01*
X124997085Y-37067517D01*
X125066986Y-36898760D01*
X125168468Y-36746882D01*
X125297632Y-36617718D01*
X125449510Y-36516236D01*
X125618267Y-36446335D01*
X125797418Y-36410700D01*
X125980082Y-36410700D01*
X126159233Y-36446335D01*
X126159233Y-36446335D01*
G37*
G36*
X110919233Y-36446335D02*
G01*
X111087990Y-36516236D01*
X111239868Y-36617718D01*
X111369032Y-36746882D01*
X111470514Y-36898760D01*
X111540415Y-37067517D01*
X111576050Y-37246668D01*
X111576050Y-37429332D01*
X111540415Y-37608483D01*
X111470514Y-37777240D01*
X111369032Y-37929118D01*
X111239868Y-38058282D01*
X111087990Y-38159764D01*
X110919233Y-38229665D01*
X110740082Y-38265300D01*
X110557418Y-38265300D01*
X110378267Y-38229665D01*
X110209510Y-38159764D01*
X110057632Y-38058282D01*
X109928468Y-37929118D01*
X109826986Y-37777240D01*
X109757085Y-37608483D01*
X109721450Y-37429332D01*
X109721450Y-37246668D01*
X109757085Y-37067517D01*
X109826986Y-36898760D01*
X109928468Y-36746882D01*
X110057632Y-36617718D01*
X110209510Y-36516236D01*
X110378267Y-36446335D01*
X110557418Y-36410700D01*
X110740082Y-36410700D01*
X110919233Y-36446335D01*
X110919233Y-36446335D01*
G37*
G36*
X101156560Y-34240314D02*
G01*
X101308027Y-34270443D01*
X101522045Y-34359092D01*
X101522046Y-34359093D01*
X101714654Y-34487789D01*
X101878461Y-34651596D01*
X101915259Y-34706669D01*
X102007158Y-34844205D01*
X102095807Y-35058223D01*
X102125936Y-35209690D01*
X102141000Y-35285423D01*
X102141000Y-35517077D01*
X102140760Y-35518282D01*
X102095807Y-35744277D01*
X102007158Y-35958295D01*
X102007157Y-35958296D01*
X101878461Y-36150904D01*
X101714654Y-36314711D01*
X101586249Y-36400508D01*
X101522045Y-36443408D01*
X101308027Y-36532057D01*
X101156560Y-36562186D01*
X101080827Y-36577250D01*
X100849173Y-36577250D01*
X100773440Y-36562186D01*
X100621973Y-36532057D01*
X100407955Y-36443408D01*
X100343751Y-36400508D01*
X100215346Y-36314711D01*
X100051539Y-36150904D01*
X99922843Y-35958296D01*
X99922842Y-35958295D01*
X99834193Y-35744277D01*
X99789240Y-35518282D01*
X99789000Y-35517077D01*
X99789000Y-35285423D01*
X99804064Y-35209690D01*
X99834193Y-35058223D01*
X99922842Y-34844205D01*
X100014741Y-34706669D01*
X100051539Y-34651596D01*
X100215346Y-34487789D01*
X100407954Y-34359093D01*
X100407955Y-34359092D01*
X100621973Y-34270443D01*
X100773440Y-34240314D01*
X100849173Y-34225250D01*
X101080827Y-34225250D01*
X101156560Y-34240314D01*
X101156560Y-34240314D01*
G37*
G36*
X82106560Y-34240314D02*
G01*
X82258027Y-34270443D01*
X82472045Y-34359092D01*
X82472046Y-34359093D01*
X82664654Y-34487789D01*
X82828461Y-34651596D01*
X82865259Y-34706669D01*
X82957158Y-34844205D01*
X83045807Y-35058223D01*
X83075936Y-35209690D01*
X83091000Y-35285423D01*
X83091000Y-35517077D01*
X83090760Y-35518282D01*
X83045807Y-35744277D01*
X82957158Y-35958295D01*
X82957157Y-35958296D01*
X82828461Y-36150904D01*
X82664654Y-36314711D01*
X82536249Y-36400508D01*
X82472045Y-36443408D01*
X82258027Y-36532057D01*
X82106560Y-36562186D01*
X82030827Y-36577250D01*
X81799173Y-36577250D01*
X81723440Y-36562186D01*
X81571973Y-36532057D01*
X81357955Y-36443408D01*
X81293751Y-36400508D01*
X81165346Y-36314711D01*
X81001539Y-36150904D01*
X80872843Y-35958296D01*
X80872842Y-35958295D01*
X80784193Y-35744277D01*
X80739240Y-35518282D01*
X80739000Y-35517077D01*
X80739000Y-35285423D01*
X80754064Y-35209690D01*
X80784193Y-35058223D01*
X80872842Y-34844205D01*
X80964741Y-34706669D01*
X81001539Y-34651596D01*
X81165346Y-34487789D01*
X81357954Y-34359093D01*
X81357955Y-34359092D01*
X81571973Y-34270443D01*
X81723440Y-34240314D01*
X81799173Y-34225250D01*
X82030827Y-34225250D01*
X82106560Y-34240314D01*
X82106560Y-34240314D01*
G37*
G36*
X63056560Y-34240314D02*
G01*
X63208027Y-34270443D01*
X63422045Y-34359092D01*
X63422046Y-34359093D01*
X63614654Y-34487789D01*
X63778461Y-34651596D01*
X63815259Y-34706669D01*
X63907158Y-34844205D01*
X63995807Y-35058223D01*
X64025936Y-35209690D01*
X64041000Y-35285423D01*
X64041000Y-35517077D01*
X64040760Y-35518282D01*
X63995807Y-35744277D01*
X63907158Y-35958295D01*
X63907157Y-35958296D01*
X63778461Y-36150904D01*
X63614654Y-36314711D01*
X63486249Y-36400508D01*
X63422045Y-36443408D01*
X63208027Y-36532057D01*
X63056560Y-36562186D01*
X62980827Y-36577250D01*
X62749173Y-36577250D01*
X62673440Y-36562186D01*
X62521973Y-36532057D01*
X62307955Y-36443408D01*
X62243751Y-36400508D01*
X62115346Y-36314711D01*
X61951539Y-36150904D01*
X61822843Y-35958296D01*
X61822842Y-35958295D01*
X61734193Y-35744277D01*
X61689240Y-35518282D01*
X61689000Y-35517077D01*
X61689000Y-35285423D01*
X61704064Y-35209690D01*
X61734193Y-35058223D01*
X61822842Y-34844205D01*
X61914741Y-34706669D01*
X61951539Y-34651596D01*
X62115346Y-34487789D01*
X62307954Y-34359093D01*
X62307955Y-34359092D01*
X62521973Y-34270443D01*
X62673440Y-34240314D01*
X62749173Y-34225250D01*
X62980827Y-34225250D01*
X63056560Y-34240314D01*
X63056560Y-34240314D01*
G37*
G36*
X44006560Y-34240314D02*
G01*
X44158027Y-34270443D01*
X44372045Y-34359092D01*
X44372046Y-34359093D01*
X44564654Y-34487789D01*
X44728461Y-34651596D01*
X44765259Y-34706669D01*
X44857158Y-34844205D01*
X44945807Y-35058223D01*
X44975936Y-35209690D01*
X44991000Y-35285423D01*
X44991000Y-35517077D01*
X44990760Y-35518282D01*
X44945807Y-35744277D01*
X44857158Y-35958295D01*
X44857157Y-35958296D01*
X44728461Y-36150904D01*
X44564654Y-36314711D01*
X44436249Y-36400508D01*
X44372045Y-36443408D01*
X44158027Y-36532057D01*
X44006560Y-36562186D01*
X43930827Y-36577250D01*
X43699173Y-36577250D01*
X43623440Y-36562186D01*
X43471973Y-36532057D01*
X43257955Y-36443408D01*
X43193751Y-36400508D01*
X43065346Y-36314711D01*
X42901539Y-36150904D01*
X42772843Y-35958296D01*
X42772842Y-35958295D01*
X42684193Y-35744277D01*
X42639240Y-35518282D01*
X42639000Y-35517077D01*
X42639000Y-35285423D01*
X42654064Y-35209690D01*
X42684193Y-35058223D01*
X42772842Y-34844205D01*
X42864741Y-34706669D01*
X42901539Y-34651596D01*
X43065346Y-34487789D01*
X43257954Y-34359093D01*
X43257955Y-34359092D01*
X43471973Y-34270443D01*
X43623440Y-34240314D01*
X43699173Y-34225250D01*
X43930827Y-34225250D01*
X44006560Y-34240314D01*
X44006560Y-34240314D01*
G37*
G36*
X126159233Y-33906335D02*
G01*
X126327990Y-33976236D01*
X126479868Y-34077718D01*
X126609032Y-34206882D01*
X126710514Y-34358760D01*
X126780415Y-34527517D01*
X126816050Y-34706668D01*
X126816050Y-34889332D01*
X126780415Y-35068483D01*
X126710514Y-35237240D01*
X126609032Y-35389118D01*
X126479868Y-35518282D01*
X126327990Y-35619764D01*
X126159233Y-35689665D01*
X125980082Y-35725300D01*
X125797418Y-35725300D01*
X125618267Y-35689665D01*
X125449510Y-35619764D01*
X125297632Y-35518282D01*
X125168468Y-35389118D01*
X125066986Y-35237240D01*
X124997085Y-35068483D01*
X124961450Y-34889332D01*
X124961450Y-34706668D01*
X124997085Y-34527517D01*
X125066986Y-34358760D01*
X125168468Y-34206882D01*
X125297632Y-34077718D01*
X125449510Y-33976236D01*
X125618267Y-33906335D01*
X125797418Y-33870700D01*
X125980082Y-33870700D01*
X126159233Y-33906335D01*
X126159233Y-33906335D01*
G37*
G36*
X110919233Y-33906335D02*
G01*
X111087990Y-33976236D01*
X111239868Y-34077718D01*
X111369032Y-34206882D01*
X111470514Y-34358760D01*
X111540415Y-34527517D01*
X111576050Y-34706668D01*
X111576050Y-34889332D01*
X111540415Y-35068483D01*
X111470514Y-35237240D01*
X111369032Y-35389118D01*
X111239868Y-35518282D01*
X111087990Y-35619764D01*
X110919233Y-35689665D01*
X110740082Y-35725300D01*
X110557418Y-35725300D01*
X110378267Y-35689665D01*
X110209510Y-35619764D01*
X110057632Y-35518282D01*
X109928468Y-35389118D01*
X109826986Y-35237240D01*
X109757085Y-35068483D01*
X109721450Y-34889332D01*
X109721450Y-34706668D01*
X109757085Y-34527517D01*
X109826986Y-34358760D01*
X109928468Y-34206882D01*
X110057632Y-34077718D01*
X110209510Y-33976236D01*
X110378267Y-33906335D01*
X110557418Y-33870700D01*
X110740082Y-33870700D01*
X110919233Y-33906335D01*
X110919233Y-33906335D01*
G37*
M02*
