M48
; DRILL file {KiCad (5.1.4)-1} date 4/29/2023 7:21:58 PM
; FORMAT={-:-/ absolute / inch / decimal}
; #@! TF.CreationDate,2023-04-29T19:21:58-04:00
; #@! TF.GenerationSoftware,Kicad,Pcbnew,(5.1.4)-1
; #@! TF.FileFunction,NonPlated,1,2,NPTH
FMAT,2
INCH
T1C0.0689
T2C0.1200
T3C0.1570
%
G90
G05
T1
X4.075Y-4.2188
X2.925Y-3.0938
X3.325Y-3.0938
X3.675Y-2.7188
X4.075Y-2.7188
X1.425Y-2.3438
X1.825Y-2.3438
X2.175Y-1.5938
X2.575Y-1.5938
X2.925Y-3.8438
X3.325Y-3.8438
X2.925Y-4.5938
X3.325Y-4.5938
X2.925Y-2.3438
X3.325Y-2.3438
X3.675Y-1.5938
X4.075Y-1.5938
X1.425Y-3.0938
X1.825Y-3.0938
X1.425Y-3.8438
X1.825Y-3.8438
X1.8Y-4.5938
X2.2Y-4.5938
X3.675Y-4.2188
X2.175Y-3.8438
X2.575Y-3.8438
X2.175Y-3.0938
X2.575Y-3.0938
X2.175Y-2.3438
X2.575Y-2.3438
X2.925Y-1.5938
X3.325Y-1.5938
X1.425Y-1.5938
X1.825Y-1.5938
T2
X1.5312Y-4.8687
X2.4688Y-4.8687
X3.6Y-3.7487
X3.6Y-4.6887
X3.6Y-2.2487
X3.6Y-3.1887
T3
X1.5312Y-4.2687
X2.0Y-4.5938
X2.4688Y-4.2687
X3.875Y-4.2188
X4.2Y-3.7487
X4.2Y-4.6887
X2.375Y-3.8438
X2.375Y-3.0938
X2.375Y-2.3438
X3.125Y-1.5938
X1.625Y-1.5938
X3.125Y-3.0938
X3.875Y-2.7188
X4.2Y-2.2487
X4.2Y-3.1887
X1.625Y-2.3438
X2.375Y-1.5938
X3.125Y-3.8438
X3.125Y-4.5938
X3.125Y-2.3438
X3.875Y-1.5938
X1.625Y-3.0938
X1.625Y-3.8438
T0
M30
