G04 #@! TF.GenerationSoftware,KiCad,Pcbnew,(5.1.4)-1*
G04 #@! TF.CreationDate,2023-04-29T19:21:49-04:00*
G04 #@! TF.ProjectId,Rev 1,52657620-312e-46b6-9963-61645f706362,rev?*
G04 #@! TF.SameCoordinates,Original*
G04 #@! TF.FileFunction,Legend,Bot*
G04 #@! TF.FilePolarity,Positive*
%FSLAX46Y46*%
G04 Gerber Fmt 4.6, Leading zero omitted, Abs format (unit mm)*
G04 Created by KiCad (PCBNEW (5.1.4)-1) date 2023-04-29 19:21:49*
%MOMM*%
%LPD*%
G04 APERTURE LIST*
%ADD10C,0.300000*%
%ADD11C,0.381000*%
%ADD12C,0.150000*%
G04 APERTURE END LIST*
D10*
X126746250Y-111803571D02*
X126558750Y-110303571D01*
X126103392Y-111803571D02*
X126005178Y-111017857D01*
X126058750Y-110875000D01*
X126192678Y-110803571D01*
X126406964Y-110803571D01*
X126558750Y-110875000D01*
X126639107Y-110946428D01*
X125174821Y-111803571D02*
X125308750Y-111732142D01*
X125371250Y-111660714D01*
X125424821Y-111517857D01*
X125371250Y-111089285D01*
X125281964Y-110946428D01*
X125201607Y-110875000D01*
X125049821Y-110803571D01*
X124835535Y-110803571D01*
X124701607Y-110875000D01*
X124639107Y-110946428D01*
X124585535Y-111089285D01*
X124639107Y-111517857D01*
X124728392Y-111660714D01*
X124808750Y-111732142D01*
X124960535Y-111803571D01*
X125174821Y-111803571D01*
X123906964Y-110803571D02*
X124031964Y-111803571D01*
X123924821Y-110946428D02*
X123844464Y-110875000D01*
X123692678Y-110803571D01*
X123478392Y-110803571D01*
X123344464Y-110875000D01*
X123290892Y-111017857D01*
X123389107Y-111803571D01*
X122674821Y-111803571D02*
X122487321Y-110303571D01*
X122460535Y-111232142D02*
X122103392Y-111803571D01*
X121978392Y-110803571D02*
X122621250Y-111375000D01*
X121362321Y-110446428D02*
X121281964Y-110375000D01*
X121130178Y-110303571D01*
X120773035Y-110303571D01*
X120639107Y-110375000D01*
X120576607Y-110446428D01*
X120523035Y-110589285D01*
X120540892Y-110732142D01*
X120639107Y-110946428D01*
X121603392Y-111803571D01*
X120674821Y-111803571D01*
X119558750Y-110303571D02*
X119415892Y-110303571D01*
X119281964Y-110375000D01*
X119219464Y-110446428D01*
X119165892Y-110589285D01*
X119130178Y-110875000D01*
X119174821Y-111232142D01*
X119281964Y-111517857D01*
X119371250Y-111660714D01*
X119451607Y-111732142D01*
X119603392Y-111803571D01*
X119746250Y-111803571D01*
X119880178Y-111732142D01*
X119942678Y-111660714D01*
X119996250Y-111517857D01*
X120031964Y-111232142D01*
X119987321Y-110875000D01*
X119880178Y-110589285D01*
X119790892Y-110446428D01*
X119710535Y-110375000D01*
X119558750Y-110303571D01*
X117460535Y-111803571D02*
X117335535Y-110803571D01*
X117371250Y-111089285D02*
X117281964Y-110946428D01*
X117201607Y-110875000D01*
X117049821Y-110803571D01*
X116906964Y-110803571D01*
X115951607Y-111732142D02*
X116103392Y-111803571D01*
X116389107Y-111803571D01*
X116523035Y-111732142D01*
X116576607Y-111589285D01*
X116505178Y-111017857D01*
X116415892Y-110875000D01*
X116264107Y-110803571D01*
X115978392Y-110803571D01*
X115844464Y-110875000D01*
X115790892Y-111017857D01*
X115808750Y-111160714D01*
X116540892Y-111303571D01*
X115264107Y-110803571D02*
X115031964Y-111803571D01*
X114549821Y-110803571D01*
X112174821Y-111803571D02*
X113031964Y-111803571D01*
X112603392Y-111803571D02*
X112415892Y-110303571D01*
X112585535Y-110517857D01*
X112746250Y-110660714D01*
X112898035Y-110732142D01*
X111514107Y-111660714D02*
X111451607Y-111732142D01*
X111531964Y-111803571D01*
X111594464Y-111732142D01*
X111514107Y-111660714D01*
X111531964Y-111803571D01*
X110344464Y-110303571D02*
X110201607Y-110303571D01*
X110067678Y-110375000D01*
X110005178Y-110446428D01*
X109951607Y-110589285D01*
X109915892Y-110875000D01*
X109960535Y-111232142D01*
X110067678Y-111517857D01*
X110156964Y-111660714D01*
X110237321Y-111732142D01*
X110389107Y-111803571D01*
X110531964Y-111803571D01*
X110665892Y-111732142D01*
X110728392Y-111660714D01*
X110781964Y-111517857D01*
X110817678Y-111232142D01*
X110773035Y-110875000D01*
X110665892Y-110589285D01*
X110576607Y-110446428D01*
X110496250Y-110375000D01*
X110344464Y-110303571D01*
D11*
X127158750Y-64008000D02*
X127158750Y-30988000D01*
X109378750Y-64008000D02*
X127158750Y-64008000D01*
X109378750Y-30988000D02*
X109378750Y-64008000D01*
X127158750Y-30988000D02*
X109378750Y-30988000D01*
D12*
X124294845Y-40239904D02*
X124561511Y-39858952D01*
X124751988Y-40239904D02*
X124751988Y-39439904D01*
X124447226Y-39439904D01*
X124371035Y-39478000D01*
X124332940Y-39516095D01*
X124294845Y-39592285D01*
X124294845Y-39706571D01*
X124332940Y-39782761D01*
X124371035Y-39820857D01*
X124447226Y-39858952D01*
X124751988Y-39858952D01*
X123990083Y-40201809D02*
X123875797Y-40239904D01*
X123685321Y-40239904D01*
X123609130Y-40201809D01*
X123571035Y-40163714D01*
X123532940Y-40087523D01*
X123532940Y-40011333D01*
X123571035Y-39935142D01*
X123609130Y-39897047D01*
X123685321Y-39858952D01*
X123837702Y-39820857D01*
X123913892Y-39782761D01*
X123951988Y-39744666D01*
X123990083Y-39668476D01*
X123990083Y-39592285D01*
X123951988Y-39516095D01*
X123913892Y-39478000D01*
X123837702Y-39439904D01*
X123647226Y-39439904D01*
X123532940Y-39478000D01*
X123304369Y-39439904D02*
X122847226Y-39439904D01*
X123075797Y-40239904D02*
X123075797Y-39439904D01*
X113531560Y-34359904D02*
X113455369Y-34359904D01*
X113379179Y-34398000D01*
X113341083Y-34436095D01*
X113302988Y-34512285D01*
X113264893Y-34664666D01*
X113264893Y-34855142D01*
X113302988Y-35007523D01*
X113341083Y-35083714D01*
X113379179Y-35121809D01*
X113455369Y-35159904D01*
X113531560Y-35159904D01*
X113607750Y-35121809D01*
X113645845Y-35083714D01*
X113683940Y-35007523D01*
X113722036Y-34855142D01*
X113722036Y-34664666D01*
X113683940Y-34512285D01*
X113645845Y-34436095D01*
X113607750Y-34398000D01*
X113531560Y-34359904D01*
X112769655Y-34359904D02*
X112693464Y-34359904D01*
X112617274Y-34398000D01*
X112579179Y-34436095D01*
X112541083Y-34512285D01*
X112502988Y-34664666D01*
X112502988Y-34855142D01*
X112541083Y-35007523D01*
X112579179Y-35083714D01*
X112617274Y-35121809D01*
X112693464Y-35159904D01*
X112769655Y-35159904D01*
X112845845Y-35121809D01*
X112883940Y-35083714D01*
X112922036Y-35007523D01*
X112960131Y-34855142D01*
X112960131Y-34664666D01*
X112922036Y-34512285D01*
X112883940Y-34436095D01*
X112845845Y-34398000D01*
X112769655Y-34359904D01*
X111817274Y-34359904D02*
X111969655Y-34359904D01*
X112045845Y-34398000D01*
X112083940Y-34436095D01*
X112160131Y-34550380D01*
X112198226Y-34702761D01*
X112198226Y-35007523D01*
X112160131Y-35083714D01*
X112122036Y-35121809D01*
X112045845Y-35159904D01*
X111893464Y-35159904D01*
X111817274Y-35121809D01*
X111779179Y-35083714D01*
X111741083Y-35007523D01*
X111741083Y-34817047D01*
X111779179Y-34740857D01*
X111817274Y-34702761D01*
X111893464Y-34664666D01*
X112045845Y-34664666D01*
X112122036Y-34702761D01*
X112160131Y-34740857D01*
X112198226Y-34817047D01*
X124605941Y-59759904D02*
X124529750Y-59759904D01*
X124453560Y-59798000D01*
X124415464Y-59836095D01*
X124377369Y-59912285D01*
X124339274Y-60064666D01*
X124339274Y-60255142D01*
X124377369Y-60407523D01*
X124415464Y-60483714D01*
X124453560Y-60521809D01*
X124529750Y-60559904D01*
X124605941Y-60559904D01*
X124682131Y-60521809D01*
X124720226Y-60483714D01*
X124758321Y-60407523D01*
X124796417Y-60255142D01*
X124796417Y-60064666D01*
X124758321Y-59912285D01*
X124720226Y-59836095D01*
X124682131Y-59798000D01*
X124605941Y-59759904D01*
X123577369Y-60559904D02*
X124034512Y-60559904D01*
X123805941Y-60559904D02*
X123805941Y-59759904D01*
X123882131Y-59874190D01*
X123958321Y-59950380D01*
X124034512Y-59988476D01*
X123082131Y-59759904D02*
X123005941Y-59759904D01*
X122929750Y-59798000D01*
X122891655Y-59836095D01*
X122853560Y-59912285D01*
X122815464Y-60064666D01*
X122815464Y-60255142D01*
X122853560Y-60407523D01*
X122891655Y-60483714D01*
X122929750Y-60521809D01*
X123005941Y-60559904D01*
X123082131Y-60559904D01*
X123158321Y-60521809D01*
X123196417Y-60483714D01*
X123234512Y-60407523D01*
X123272607Y-60255142D01*
X123272607Y-60064666D01*
X123234512Y-59912285D01*
X123196417Y-59836095D01*
X123158321Y-59798000D01*
X123082131Y-59759904D01*
X124339274Y-52939904D02*
X124796417Y-52939904D01*
X124567845Y-52939904D02*
X124567845Y-52139904D01*
X124644036Y-52254190D01*
X124720226Y-52330380D01*
X124796417Y-52368476D01*
X123577369Y-52939904D02*
X124034512Y-52939904D01*
X123805941Y-52939904D02*
X123805941Y-52139904D01*
X123882131Y-52254190D01*
X123958321Y-52330380D01*
X124034512Y-52368476D01*
X122853560Y-52139904D02*
X123234512Y-52139904D01*
X123272607Y-52520857D01*
X123234512Y-52482761D01*
X123158321Y-52444666D01*
X122967845Y-52444666D01*
X122891655Y-52482761D01*
X122853560Y-52520857D01*
X122815464Y-52597047D01*
X122815464Y-52787523D01*
X122853560Y-52863714D01*
X122891655Y-52901809D01*
X122967845Y-52939904D01*
X123158321Y-52939904D01*
X123234512Y-52901809D01*
X123272607Y-52863714D01*
X124605941Y-49599904D02*
X124529750Y-49599904D01*
X124453560Y-49638000D01*
X124415464Y-49676095D01*
X124377369Y-49752285D01*
X124339274Y-49904666D01*
X124339274Y-50095142D01*
X124377369Y-50247523D01*
X124415464Y-50323714D01*
X124453560Y-50361809D01*
X124529750Y-50399904D01*
X124605941Y-50399904D01*
X124682131Y-50361809D01*
X124720226Y-50323714D01*
X124758321Y-50247523D01*
X124796417Y-50095142D01*
X124796417Y-49904666D01*
X124758321Y-49752285D01*
X124720226Y-49676095D01*
X124682131Y-49638000D01*
X124605941Y-49599904D01*
X123844036Y-49599904D02*
X123767845Y-49599904D01*
X123691655Y-49638000D01*
X123653560Y-49676095D01*
X123615464Y-49752285D01*
X123577369Y-49904666D01*
X123577369Y-50095142D01*
X123615464Y-50247523D01*
X123653560Y-50323714D01*
X123691655Y-50361809D01*
X123767845Y-50399904D01*
X123844036Y-50399904D01*
X123920226Y-50361809D01*
X123958321Y-50323714D01*
X123996417Y-50247523D01*
X124034512Y-50095142D01*
X124034512Y-49904666D01*
X123996417Y-49752285D01*
X123958321Y-49676095D01*
X123920226Y-49638000D01*
X123844036Y-49599904D01*
X123272607Y-49676095D02*
X123234512Y-49638000D01*
X123158321Y-49599904D01*
X122967845Y-49599904D01*
X122891655Y-49638000D01*
X122853560Y-49676095D01*
X122815464Y-49752285D01*
X122815464Y-49828476D01*
X122853560Y-49942761D01*
X123310702Y-50399904D01*
X122815464Y-50399904D01*
X124605941Y-47059904D02*
X124529750Y-47059904D01*
X124453560Y-47098000D01*
X124415464Y-47136095D01*
X124377369Y-47212285D01*
X124339274Y-47364666D01*
X124339274Y-47555142D01*
X124377369Y-47707523D01*
X124415464Y-47783714D01*
X124453560Y-47821809D01*
X124529750Y-47859904D01*
X124605941Y-47859904D01*
X124682131Y-47821809D01*
X124720226Y-47783714D01*
X124758321Y-47707523D01*
X124796417Y-47555142D01*
X124796417Y-47364666D01*
X124758321Y-47212285D01*
X124720226Y-47136095D01*
X124682131Y-47098000D01*
X124605941Y-47059904D01*
X124034512Y-47136095D02*
X123996417Y-47098000D01*
X123920226Y-47059904D01*
X123729750Y-47059904D01*
X123653560Y-47098000D01*
X123615464Y-47136095D01*
X123577369Y-47212285D01*
X123577369Y-47288476D01*
X123615464Y-47402761D01*
X124072607Y-47859904D01*
X123577369Y-47859904D01*
X123196417Y-47859904D02*
X123044036Y-47859904D01*
X122967845Y-47821809D01*
X122929750Y-47783714D01*
X122853560Y-47669428D01*
X122815464Y-47517047D01*
X122815464Y-47212285D01*
X122853560Y-47136095D01*
X122891655Y-47098000D01*
X122967845Y-47059904D01*
X123120226Y-47059904D01*
X123196417Y-47098000D01*
X123234512Y-47136095D01*
X123272607Y-47212285D01*
X123272607Y-47402761D01*
X123234512Y-47478952D01*
X123196417Y-47517047D01*
X123120226Y-47555142D01*
X122967845Y-47555142D01*
X122891655Y-47517047D01*
X122853560Y-47478952D01*
X122815464Y-47402761D01*
X124294845Y-35159904D02*
X124561512Y-34778952D01*
X124751988Y-35159904D02*
X124751988Y-34359904D01*
X124447226Y-34359904D01*
X124371036Y-34398000D01*
X124332941Y-34436095D01*
X124294845Y-34512285D01*
X124294845Y-34626571D01*
X124332941Y-34702761D01*
X124371036Y-34740857D01*
X124447226Y-34778952D01*
X124751988Y-34778952D01*
X123990084Y-34931333D02*
X123609131Y-34931333D01*
X124066274Y-35159904D02*
X123799607Y-34359904D01*
X123532941Y-35159904D01*
X123342465Y-34359904D02*
X123151988Y-35159904D01*
X122999607Y-34588476D01*
X122847226Y-35159904D01*
X122656750Y-34359904D01*
X124332940Y-36938000D02*
X124409131Y-36899904D01*
X124523417Y-36899904D01*
X124637702Y-36938000D01*
X124713893Y-37014190D01*
X124751988Y-37090380D01*
X124790083Y-37242761D01*
X124790083Y-37357047D01*
X124751988Y-37509428D01*
X124713893Y-37585619D01*
X124637702Y-37661809D01*
X124523417Y-37699904D01*
X124447226Y-37699904D01*
X124332940Y-37661809D01*
X124294845Y-37623714D01*
X124294845Y-37357047D01*
X124447226Y-37357047D01*
X123951988Y-37699904D02*
X123951988Y-36899904D01*
X123494845Y-37699904D01*
X123494845Y-36899904D01*
X123113893Y-37699904D02*
X123113893Y-36899904D01*
X122923417Y-36899904D01*
X122809131Y-36938000D01*
X122732940Y-37014190D01*
X122694845Y-37090380D01*
X122656750Y-37242761D01*
X122656750Y-37357047D01*
X122694845Y-37509428D01*
X122732940Y-37585619D01*
X122809131Y-37661809D01*
X122923417Y-37699904D01*
X123113893Y-37699904D01*
X124872607Y-41979904D02*
X124605941Y-42779904D01*
X124339274Y-41979904D01*
X123615464Y-42703714D02*
X123653560Y-42741809D01*
X123767845Y-42779904D01*
X123844036Y-42779904D01*
X123958321Y-42741809D01*
X124034512Y-42665619D01*
X124072607Y-42589428D01*
X124110702Y-42437047D01*
X124110702Y-42322761D01*
X124072607Y-42170380D01*
X124034512Y-42094190D01*
X123958321Y-42018000D01*
X123844036Y-41979904D01*
X123767845Y-41979904D01*
X123653560Y-42018000D01*
X123615464Y-42056095D01*
X122815464Y-42703714D02*
X122853560Y-42741809D01*
X122967845Y-42779904D01*
X123044036Y-42779904D01*
X123158321Y-42741809D01*
X123234512Y-42665619D01*
X123272607Y-42589428D01*
X123310702Y-42437047D01*
X123310702Y-42322761D01*
X123272607Y-42170380D01*
X123234512Y-42094190D01*
X123158321Y-42018000D01*
X123044036Y-41979904D01*
X122967845Y-41979904D01*
X122853560Y-42018000D01*
X122815464Y-42056095D01*
X124605941Y-44519904D02*
X124529750Y-44519904D01*
X124453560Y-44558000D01*
X124415464Y-44596095D01*
X124377369Y-44672285D01*
X124339274Y-44824666D01*
X124339274Y-45015142D01*
X124377369Y-45167523D01*
X124415464Y-45243714D01*
X124453560Y-45281809D01*
X124529750Y-45319904D01*
X124605941Y-45319904D01*
X124682131Y-45281809D01*
X124720226Y-45243714D01*
X124758321Y-45167523D01*
X124796417Y-45015142D01*
X124796417Y-44824666D01*
X124758321Y-44672285D01*
X124720226Y-44596095D01*
X124682131Y-44558000D01*
X124605941Y-44519904D01*
X124072607Y-44519904D02*
X123577369Y-44519904D01*
X123844036Y-44824666D01*
X123729750Y-44824666D01*
X123653560Y-44862761D01*
X123615464Y-44900857D01*
X123577369Y-44977047D01*
X123577369Y-45167523D01*
X123615464Y-45243714D01*
X123653560Y-45281809D01*
X123729750Y-45319904D01*
X123958321Y-45319904D01*
X124034512Y-45281809D01*
X124072607Y-45243714D01*
X122815464Y-45319904D02*
X123272607Y-45319904D01*
X123044036Y-45319904D02*
X123044036Y-44519904D01*
X123120226Y-44634190D01*
X123196417Y-44710380D01*
X123272607Y-44748476D01*
X124339274Y-55479904D02*
X124796417Y-55479904D01*
X124567845Y-55479904D02*
X124567845Y-54679904D01*
X124644036Y-54794190D01*
X124720226Y-54870380D01*
X124796417Y-54908476D01*
X123577369Y-55479904D02*
X124034512Y-55479904D01*
X123805941Y-55479904D02*
X123805941Y-54679904D01*
X123882131Y-54794190D01*
X123958321Y-54870380D01*
X124034512Y-54908476D01*
X123310702Y-54679904D02*
X122815464Y-54679904D01*
X123082131Y-54984666D01*
X122967845Y-54984666D01*
X122891655Y-55022761D01*
X122853560Y-55060857D01*
X122815464Y-55137047D01*
X122815464Y-55327523D01*
X122853560Y-55403714D01*
X122891655Y-55441809D01*
X122967845Y-55479904D01*
X123196417Y-55479904D01*
X123272607Y-55441809D01*
X123310702Y-55403714D01*
X124339274Y-58019904D02*
X124796417Y-58019904D01*
X124567845Y-58019904D02*
X124567845Y-57219904D01*
X124644036Y-57334190D01*
X124720226Y-57410380D01*
X124796417Y-57448476D01*
X123577369Y-58019904D02*
X124034512Y-58019904D01*
X123805941Y-58019904D02*
X123805941Y-57219904D01*
X123882131Y-57334190D01*
X123958321Y-57410380D01*
X124034512Y-57448476D01*
X122815464Y-58019904D02*
X123272607Y-58019904D01*
X123044036Y-58019904D02*
X123044036Y-57219904D01*
X123120226Y-57334190D01*
X123196417Y-57410380D01*
X123272607Y-57448476D01*
X113264893Y-60559904D02*
X113722036Y-60559904D01*
X113493464Y-60559904D02*
X113493464Y-59759904D01*
X113569655Y-59874190D01*
X113645845Y-59950380D01*
X113722036Y-59988476D01*
X112769655Y-59759904D02*
X112693464Y-59759904D01*
X112617274Y-59798000D01*
X112579179Y-59836095D01*
X112541083Y-59912285D01*
X112502988Y-60064666D01*
X112502988Y-60255142D01*
X112541083Y-60407523D01*
X112579179Y-60483714D01*
X112617274Y-60521809D01*
X112693464Y-60559904D01*
X112769655Y-60559904D01*
X112845845Y-60521809D01*
X112883940Y-60483714D01*
X112922036Y-60407523D01*
X112960131Y-60255142D01*
X112960131Y-60064666D01*
X112922036Y-59912285D01*
X112883940Y-59836095D01*
X112845845Y-59798000D01*
X112769655Y-59759904D01*
X111817274Y-60026571D02*
X111817274Y-60559904D01*
X112007750Y-59721809D02*
X112198226Y-60293238D01*
X111702988Y-60293238D01*
X113264893Y-55479904D02*
X113722036Y-55479904D01*
X113493464Y-55479904D02*
X113493464Y-54679904D01*
X113569655Y-54794190D01*
X113645845Y-54870380D01*
X113722036Y-54908476D01*
X112769655Y-54679904D02*
X112693464Y-54679904D01*
X112617274Y-54718000D01*
X112579179Y-54756095D01*
X112541083Y-54832285D01*
X112502988Y-54984666D01*
X112502988Y-55175142D01*
X112541083Y-55327523D01*
X112579179Y-55403714D01*
X112617274Y-55441809D01*
X112693464Y-55479904D01*
X112769655Y-55479904D01*
X112845845Y-55441809D01*
X112883940Y-55403714D01*
X112922036Y-55327523D01*
X112960131Y-55175142D01*
X112960131Y-54984666D01*
X112922036Y-54832285D01*
X112883940Y-54756095D01*
X112845845Y-54718000D01*
X112769655Y-54679904D01*
X112007750Y-54679904D02*
X111931560Y-54679904D01*
X111855369Y-54718000D01*
X111817274Y-54756095D01*
X111779179Y-54832285D01*
X111741083Y-54984666D01*
X111741083Y-55175142D01*
X111779179Y-55327523D01*
X111817274Y-55403714D01*
X111855369Y-55441809D01*
X111931560Y-55479904D01*
X112007750Y-55479904D01*
X112083940Y-55441809D01*
X112122036Y-55403714D01*
X112160131Y-55327523D01*
X112198226Y-55175142D01*
X112198226Y-54984666D01*
X112160131Y-54832285D01*
X112122036Y-54756095D01*
X112083940Y-54718000D01*
X112007750Y-54679904D01*
X113531560Y-52129904D02*
X113455369Y-52129904D01*
X113379179Y-52168000D01*
X113341083Y-52206095D01*
X113302988Y-52282285D01*
X113264893Y-52434666D01*
X113264893Y-52625142D01*
X113302988Y-52777523D01*
X113341083Y-52853714D01*
X113379179Y-52891809D01*
X113455369Y-52929904D01*
X113531560Y-52929904D01*
X113607750Y-52891809D01*
X113645845Y-52853714D01*
X113683940Y-52777523D01*
X113722036Y-52625142D01*
X113722036Y-52434666D01*
X113683940Y-52282285D01*
X113645845Y-52206095D01*
X113607750Y-52168000D01*
X113531560Y-52129904D01*
X112960131Y-52206095D02*
X112922036Y-52168000D01*
X112845845Y-52129904D01*
X112655369Y-52129904D01*
X112579179Y-52168000D01*
X112541083Y-52206095D01*
X112502988Y-52282285D01*
X112502988Y-52358476D01*
X112541083Y-52472761D01*
X112998226Y-52929904D01*
X112502988Y-52929904D01*
X111817274Y-52396571D02*
X111817274Y-52929904D01*
X112007750Y-52091809D02*
X112198226Y-52663238D01*
X111702988Y-52663238D01*
X113531560Y-49629904D02*
X113455369Y-49629904D01*
X113379179Y-49668000D01*
X113341083Y-49706095D01*
X113302988Y-49782285D01*
X113264893Y-49934666D01*
X113264893Y-50125142D01*
X113302988Y-50277523D01*
X113341083Y-50353714D01*
X113379179Y-50391809D01*
X113455369Y-50429904D01*
X113531560Y-50429904D01*
X113607750Y-50391809D01*
X113645845Y-50353714D01*
X113683940Y-50277523D01*
X113722036Y-50125142D01*
X113722036Y-49934666D01*
X113683940Y-49782285D01*
X113645845Y-49706095D01*
X113607750Y-49668000D01*
X113531560Y-49629904D01*
X112960131Y-49706095D02*
X112922036Y-49668000D01*
X112845845Y-49629904D01*
X112655369Y-49629904D01*
X112579179Y-49668000D01*
X112541083Y-49706095D01*
X112502988Y-49782285D01*
X112502988Y-49858476D01*
X112541083Y-49972761D01*
X112998226Y-50429904D01*
X112502988Y-50429904D01*
X112198226Y-49706095D02*
X112160131Y-49668000D01*
X112083940Y-49629904D01*
X111893464Y-49629904D01*
X111817274Y-49668000D01*
X111779179Y-49706095D01*
X111741083Y-49782285D01*
X111741083Y-49858476D01*
X111779179Y-49972761D01*
X112236321Y-50429904D01*
X111741083Y-50429904D01*
X113417273Y-39478000D02*
X113493464Y-39439904D01*
X113607750Y-39439904D01*
X113722035Y-39478000D01*
X113798226Y-39554190D01*
X113836321Y-39630380D01*
X113874416Y-39782761D01*
X113874416Y-39897047D01*
X113836321Y-40049428D01*
X113798226Y-40125619D01*
X113722035Y-40201809D01*
X113607750Y-40239904D01*
X113531559Y-40239904D01*
X113417273Y-40201809D01*
X113379178Y-40163714D01*
X113379178Y-39897047D01*
X113531559Y-39897047D01*
X113036321Y-40239904D02*
X113036321Y-39439904D01*
X112579178Y-40239904D01*
X112579178Y-39439904D01*
X112198226Y-40239904D02*
X112198226Y-39439904D01*
X112007750Y-39439904D01*
X111893464Y-39478000D01*
X111817273Y-39554190D01*
X111779178Y-39630380D01*
X111741083Y-39782761D01*
X111741083Y-39897047D01*
X111779178Y-40049428D01*
X111817273Y-40125619D01*
X111893464Y-40201809D01*
X112007750Y-40239904D01*
X112198226Y-40239904D01*
X113417273Y-42018000D02*
X113493464Y-41979904D01*
X113607750Y-41979904D01*
X113722035Y-42018000D01*
X113798226Y-42094190D01*
X113836321Y-42170380D01*
X113874416Y-42322761D01*
X113874416Y-42437047D01*
X113836321Y-42589428D01*
X113798226Y-42665619D01*
X113722035Y-42741809D01*
X113607750Y-42779904D01*
X113531559Y-42779904D01*
X113417273Y-42741809D01*
X113379178Y-42703714D01*
X113379178Y-42437047D01*
X113531559Y-42437047D01*
X113036321Y-42779904D02*
X113036321Y-41979904D01*
X112579178Y-42779904D01*
X112579178Y-41979904D01*
X112198226Y-42779904D02*
X112198226Y-41979904D01*
X112007750Y-41979904D01*
X111893464Y-42018000D01*
X111817273Y-42094190D01*
X111779178Y-42170380D01*
X111741083Y-42322761D01*
X111741083Y-42437047D01*
X111779178Y-42589428D01*
X111817273Y-42665619D01*
X111893464Y-42741809D01*
X112007750Y-42779904D01*
X112198226Y-42779904D01*
X113531560Y-44519904D02*
X113455369Y-44519904D01*
X113379179Y-44558000D01*
X113341083Y-44596095D01*
X113302988Y-44672285D01*
X113264893Y-44824666D01*
X113264893Y-45015142D01*
X113302988Y-45167523D01*
X113341083Y-45243714D01*
X113379179Y-45281809D01*
X113455369Y-45319904D01*
X113531560Y-45319904D01*
X113607750Y-45281809D01*
X113645845Y-45243714D01*
X113683940Y-45167523D01*
X113722036Y-45015142D01*
X113722036Y-44824666D01*
X113683940Y-44672285D01*
X113645845Y-44596095D01*
X113607750Y-44558000D01*
X113531560Y-44519904D01*
X112502988Y-45319904D02*
X112960131Y-45319904D01*
X112731560Y-45319904D02*
X112731560Y-44519904D01*
X112807750Y-44634190D01*
X112883940Y-44710380D01*
X112960131Y-44748476D01*
X112236321Y-44519904D02*
X111702988Y-44519904D01*
X112045845Y-45319904D01*
X113531560Y-47129904D02*
X113455369Y-47129904D01*
X113379179Y-47168000D01*
X113341083Y-47206095D01*
X113302988Y-47282285D01*
X113264893Y-47434666D01*
X113264893Y-47625142D01*
X113302988Y-47777523D01*
X113341083Y-47853714D01*
X113379179Y-47891809D01*
X113455369Y-47929904D01*
X113531560Y-47929904D01*
X113607750Y-47891809D01*
X113645845Y-47853714D01*
X113683940Y-47777523D01*
X113722036Y-47625142D01*
X113722036Y-47434666D01*
X113683940Y-47282285D01*
X113645845Y-47206095D01*
X113607750Y-47168000D01*
X113531560Y-47129904D01*
X112960131Y-47206095D02*
X112922036Y-47168000D01*
X112845845Y-47129904D01*
X112655369Y-47129904D01*
X112579179Y-47168000D01*
X112541083Y-47206095D01*
X112502988Y-47282285D01*
X112502988Y-47358476D01*
X112541083Y-47472761D01*
X112998226Y-47929904D01*
X112502988Y-47929904D01*
X112007750Y-47129904D02*
X111931560Y-47129904D01*
X111855369Y-47168000D01*
X111817274Y-47206095D01*
X111779179Y-47282285D01*
X111741083Y-47434666D01*
X111741083Y-47625142D01*
X111779179Y-47777523D01*
X111817274Y-47853714D01*
X111855369Y-47891809D01*
X111931560Y-47929904D01*
X112007750Y-47929904D01*
X112083940Y-47891809D01*
X112122036Y-47853714D01*
X112160131Y-47777523D01*
X112198226Y-47625142D01*
X112198226Y-47434666D01*
X112160131Y-47282285D01*
X112122036Y-47206095D01*
X112083940Y-47168000D01*
X112007750Y-47129904D01*
X113531560Y-36829904D02*
X113455369Y-36829904D01*
X113379179Y-36868000D01*
X113341083Y-36906095D01*
X113302988Y-36982285D01*
X113264893Y-37134666D01*
X113264893Y-37325142D01*
X113302988Y-37477523D01*
X113341083Y-37553714D01*
X113379179Y-37591809D01*
X113455369Y-37629904D01*
X113531560Y-37629904D01*
X113607750Y-37591809D01*
X113645845Y-37553714D01*
X113683940Y-37477523D01*
X113722036Y-37325142D01*
X113722036Y-37134666D01*
X113683940Y-36982285D01*
X113645845Y-36906095D01*
X113607750Y-36868000D01*
X113531560Y-36829904D01*
X112769655Y-36829904D02*
X112693464Y-36829904D01*
X112617274Y-36868000D01*
X112579179Y-36906095D01*
X112541083Y-36982285D01*
X112502988Y-37134666D01*
X112502988Y-37325142D01*
X112541083Y-37477523D01*
X112579179Y-37553714D01*
X112617274Y-37591809D01*
X112693464Y-37629904D01*
X112769655Y-37629904D01*
X112845845Y-37591809D01*
X112883940Y-37553714D01*
X112922036Y-37477523D01*
X112960131Y-37325142D01*
X112960131Y-37134666D01*
X112922036Y-36982285D01*
X112883940Y-36906095D01*
X112845845Y-36868000D01*
X112769655Y-36829904D01*
X112045845Y-37172761D02*
X112122036Y-37134666D01*
X112160131Y-37096571D01*
X112198226Y-37020380D01*
X112198226Y-36982285D01*
X112160131Y-36906095D01*
X112122036Y-36868000D01*
X112045845Y-36829904D01*
X111893464Y-36829904D01*
X111817274Y-36868000D01*
X111779179Y-36906095D01*
X111741083Y-36982285D01*
X111741083Y-37020380D01*
X111779179Y-37096571D01*
X111817274Y-37134666D01*
X111893464Y-37172761D01*
X112045845Y-37172761D01*
X112122036Y-37210857D01*
X112160131Y-37248952D01*
X112198226Y-37325142D01*
X112198226Y-37477523D01*
X112160131Y-37553714D01*
X112122036Y-37591809D01*
X112045845Y-37629904D01*
X111893464Y-37629904D01*
X111817274Y-37591809D01*
X111779179Y-37553714D01*
X111741083Y-37477523D01*
X111741083Y-37325142D01*
X111779179Y-37248952D01*
X111817274Y-37210857D01*
X111893464Y-37172761D01*
M02*
