G04 #@! TF.GenerationSoftware,KiCad,Pcbnew,(5.1.4)-1*
G04 #@! TF.CreationDate,2023-04-29T11:54:21-04:00*
G04 #@! TF.ProjectId,Evan-PCB-ISP,4576616e-2d50-4434-922d-4953502e6b69,rev?*
G04 #@! TF.SameCoordinates,Original*
G04 #@! TF.FileFunction,Legend,Bot*
G04 #@! TF.FilePolarity,Positive*
%FSLAX46Y46*%
G04 Gerber Fmt 4.6, Leading zero omitted, Abs format (unit mm)*
G04 Created by KiCad (PCBNEW (5.1.4)-1) date 2023-04-29 11:54:21*
%MOMM*%
%LPD*%
G04 APERTURE LIST*
%ADD10C,0.120000*%
%ADD11C,0.150000*%
%ADD12R,1.502000X1.302000*%
%ADD13O,1.802000X2.802000*%
%ADD14R,0.602000X2.352000*%
%ADD15R,0.652000X1.602000*%
%ADD16R,1.602000X0.652000*%
%ADD17R,1.902000X1.202000*%
%ADD18C,0.100000*%
%ADD19C,1.077000*%
%ADD20C,1.852000*%
%ADD21C,2.352000*%
%ADD22C,4.089800*%
%ADD23C,2.352000*%
%ADD24C,1.352000*%
%ADD25R,1.302000X1.002000*%
G04 APERTURE END LIST*
D10*
X141350750Y-91343750D02*
X137350750Y-91343750D01*
X141350750Y-88043750D02*
X141350750Y-91343750D01*
D11*
X115974500Y-83312000D02*
X115974500Y-88762000D01*
X123674500Y-83312000D02*
X123674500Y-88762000D01*
X115974500Y-88762000D02*
X123674500Y-88762000D01*
X134175750Y-107247750D02*
X132900750Y-107247750D01*
X144525750Y-107822750D02*
X143850750Y-107822750D01*
X144525750Y-97472750D02*
X143850750Y-97472750D01*
X134175750Y-97472750D02*
X134850750Y-97472750D01*
X134175750Y-107822750D02*
X134850750Y-107822750D01*
X134175750Y-97472750D02*
X134175750Y-98147750D01*
X144525750Y-97472750D02*
X144525750Y-98147750D01*
X144525750Y-107822750D02*
X144525750Y-107147750D01*
X134175750Y-107822750D02*
X134175750Y-107247750D01*
X121472000Y-112335000D02*
X116272000Y-112335000D01*
X116272000Y-112335000D02*
X116272000Y-117535000D01*
X116272000Y-117535000D02*
X121472000Y-117535000D01*
X121472000Y-117535000D02*
X121472000Y-112335000D01*
X119872000Y-114935000D02*
G75*
G03X119872000Y-114935000I-1000000J0D01*
G01*
D10*
X147626000Y-108130078D02*
X147626000Y-107612922D01*
X149046000Y-108130078D02*
X149046000Y-107612922D01*
X128980000Y-94212672D02*
X128980000Y-94729828D01*
X127560000Y-94212672D02*
X127560000Y-94729828D01*
X120289250Y-94826828D02*
X120289250Y-94309672D01*
X121709250Y-94826828D02*
X121709250Y-94309672D01*
X117114250Y-94826828D02*
X117114250Y-94309672D01*
X118534250Y-94826828D02*
X118534250Y-94309672D01*
X114152000Y-101564064D02*
X114152000Y-100359936D01*
X115972000Y-101564064D02*
X115972000Y-100359936D01*
X187499500Y-112549500D02*
X187499500Y-108649500D01*
X185499500Y-112549500D02*
X185499500Y-108649500D01*
X187499500Y-112549500D02*
X185499500Y-112549500D01*
X187531250Y-93468750D02*
X187531250Y-89568750D01*
X185531250Y-93468750D02*
X185531250Y-89568750D01*
X187531250Y-93468750D02*
X185531250Y-93468750D01*
X168481250Y-112518750D02*
X168481250Y-108618750D01*
X166481250Y-112518750D02*
X166481250Y-108618750D01*
X168481250Y-112518750D02*
X166481250Y-112518750D01*
X168449500Y-93499500D02*
X168449500Y-89599500D01*
X166449500Y-93499500D02*
X166449500Y-89599500D01*
X168449500Y-93499500D02*
X166449500Y-93499500D01*
X129847078Y-102691000D02*
X129329922Y-102691000D01*
X129847078Y-101271000D02*
X129329922Y-101271000D01*
X130885000Y-107993922D02*
X130885000Y-108511078D01*
X129465000Y-107993922D02*
X129465000Y-108511078D01*
X135615750Y-89483672D02*
X135615750Y-90000828D01*
X134195750Y-89483672D02*
X134195750Y-90000828D01*
X142958750Y-89903828D02*
X142958750Y-89386672D01*
X144378750Y-89903828D02*
X144378750Y-89386672D01*
X130862000Y-94729828D02*
X130862000Y-94212672D01*
X132282000Y-94729828D02*
X132282000Y-94212672D01*
X144259828Y-112374750D02*
X143742672Y-112374750D01*
X144259828Y-110954750D02*
X143742672Y-110954750D01*
X147657750Y-98158828D02*
X147657750Y-97641672D01*
X149077750Y-98158828D02*
X149077750Y-97641672D01*
D11*
X139826940Y-87219940D02*
X139826940Y-87696130D01*
X140160273Y-86696130D02*
X139826940Y-87219940D01*
X139493607Y-86696130D01*
X138636464Y-87696130D02*
X139207892Y-87696130D01*
X138922178Y-87696130D02*
X138922178Y-86696130D01*
X139017416Y-86838988D01*
X139112654Y-86934226D01*
X139207892Y-86981845D01*
X121562595Y-84796380D02*
X121562595Y-85605904D01*
X121514976Y-85701142D01*
X121467357Y-85748761D01*
X121372119Y-85796380D01*
X121181642Y-85796380D01*
X121086404Y-85748761D01*
X121038785Y-85701142D01*
X120991166Y-85605904D01*
X120991166Y-84796380D01*
X120562595Y-85748761D02*
X120419738Y-85796380D01*
X120181642Y-85796380D01*
X120086404Y-85748761D01*
X120038785Y-85701142D01*
X119991166Y-85605904D01*
X119991166Y-85510666D01*
X120038785Y-85415428D01*
X120086404Y-85367809D01*
X120181642Y-85320190D01*
X120372119Y-85272571D01*
X120467357Y-85224952D01*
X120514976Y-85177333D01*
X120562595Y-85082095D01*
X120562595Y-84986857D01*
X120514976Y-84891619D01*
X120467357Y-84844000D01*
X120372119Y-84796380D01*
X120134023Y-84796380D01*
X119991166Y-84844000D01*
X119229261Y-85272571D02*
X119086404Y-85320190D01*
X119038785Y-85367809D01*
X118991166Y-85463047D01*
X118991166Y-85605904D01*
X119038785Y-85701142D01*
X119086404Y-85748761D01*
X119181642Y-85796380D01*
X119562595Y-85796380D01*
X119562595Y-84796380D01*
X119229261Y-84796380D01*
X119134023Y-84844000D01*
X119086404Y-84891619D01*
X119038785Y-84986857D01*
X119038785Y-85082095D01*
X119086404Y-85177333D01*
X119134023Y-85224952D01*
X119229261Y-85272571D01*
X119562595Y-85272571D01*
X118038785Y-85796380D02*
X118610214Y-85796380D01*
X118324500Y-85796380D02*
X118324500Y-84796380D01*
X118419738Y-84939238D01*
X118514976Y-85034476D01*
X118610214Y-85082095D01*
X140112654Y-109550130D02*
X140112654Y-110359654D01*
X140065035Y-110454892D01*
X140017416Y-110502511D01*
X139922178Y-110550130D01*
X139731702Y-110550130D01*
X139636464Y-110502511D01*
X139588845Y-110454892D01*
X139541226Y-110359654D01*
X139541226Y-109550130D01*
X138541226Y-110550130D02*
X139112654Y-110550130D01*
X138826940Y-110550130D02*
X138826940Y-109550130D01*
X138922178Y-109692988D01*
X139017416Y-109788226D01*
X139112654Y-109835845D01*
X120205333Y-119403761D02*
X120062476Y-119451380D01*
X119824380Y-119451380D01*
X119729142Y-119403761D01*
X119681523Y-119356142D01*
X119633904Y-119260904D01*
X119633904Y-119165666D01*
X119681523Y-119070428D01*
X119729142Y-119022809D01*
X119824380Y-118975190D01*
X120014857Y-118927571D01*
X120110095Y-118879952D01*
X120157714Y-118832333D01*
X120205333Y-118737095D01*
X120205333Y-118641857D01*
X120157714Y-118546619D01*
X120110095Y-118499000D01*
X120014857Y-118451380D01*
X119776761Y-118451380D01*
X119633904Y-118499000D01*
X119300571Y-118451380D02*
X119062476Y-119451380D01*
X118872000Y-118737095D01*
X118681523Y-119451380D01*
X118443428Y-118451380D01*
X117538666Y-119451380D02*
X118110095Y-119451380D01*
X117824380Y-119451380D02*
X117824380Y-118451380D01*
X117919619Y-118594238D01*
X118014857Y-118689476D01*
X118110095Y-118737095D01*
X150438380Y-107704833D02*
X149962190Y-107371500D01*
X150438380Y-107133404D02*
X149438380Y-107133404D01*
X149438380Y-107514357D01*
X149486000Y-107609595D01*
X149533619Y-107657214D01*
X149628857Y-107704833D01*
X149771714Y-107704833D01*
X149866952Y-107657214D01*
X149914571Y-107609595D01*
X149962190Y-107514357D01*
X149962190Y-107133404D01*
X149771714Y-108561976D02*
X150438380Y-108561976D01*
X149390761Y-108323880D02*
X150105047Y-108085785D01*
X150105047Y-108704833D01*
X127072380Y-94304583D02*
X126596190Y-93971250D01*
X127072380Y-93733154D02*
X126072380Y-93733154D01*
X126072380Y-94114107D01*
X126120000Y-94209345D01*
X126167619Y-94256964D01*
X126262857Y-94304583D01*
X126405714Y-94304583D01*
X126500952Y-94256964D01*
X126548571Y-94209345D01*
X126596190Y-94114107D01*
X126596190Y-93733154D01*
X126072380Y-94637916D02*
X126072380Y-95256964D01*
X126453333Y-94923630D01*
X126453333Y-95066488D01*
X126500952Y-95161726D01*
X126548571Y-95209345D01*
X126643809Y-95256964D01*
X126881904Y-95256964D01*
X126977142Y-95209345D01*
X127024761Y-95161726D01*
X127072380Y-95066488D01*
X127072380Y-94780773D01*
X127024761Y-94685535D01*
X126977142Y-94637916D01*
X123101630Y-94401583D02*
X122625440Y-94068250D01*
X123101630Y-93830154D02*
X122101630Y-93830154D01*
X122101630Y-94211107D01*
X122149250Y-94306345D01*
X122196869Y-94353964D01*
X122292107Y-94401583D01*
X122434964Y-94401583D01*
X122530202Y-94353964D01*
X122577821Y-94306345D01*
X122625440Y-94211107D01*
X122625440Y-93830154D01*
X122196869Y-94782535D02*
X122149250Y-94830154D01*
X122101630Y-94925392D01*
X122101630Y-95163488D01*
X122149250Y-95258726D01*
X122196869Y-95306345D01*
X122292107Y-95353964D01*
X122387345Y-95353964D01*
X122530202Y-95306345D01*
X123101630Y-94734916D01*
X123101630Y-95353964D01*
X119926630Y-94401583D02*
X119450440Y-94068250D01*
X119926630Y-93830154D02*
X118926630Y-93830154D01*
X118926630Y-94211107D01*
X118974250Y-94306345D01*
X119021869Y-94353964D01*
X119117107Y-94401583D01*
X119259964Y-94401583D01*
X119355202Y-94353964D01*
X119402821Y-94306345D01*
X119450440Y-94211107D01*
X119450440Y-93830154D01*
X119926630Y-95353964D02*
X119926630Y-94782535D01*
X119926630Y-95068250D02*
X118926630Y-95068250D01*
X119069488Y-94973011D01*
X119164726Y-94877773D01*
X119212345Y-94782535D01*
X116810571Y-100628666D02*
X116810571Y-100295333D01*
X117334380Y-100295333D02*
X116334380Y-100295333D01*
X116334380Y-100771523D01*
X117334380Y-101676285D02*
X117334380Y-101104857D01*
X117334380Y-101390571D02*
X116334380Y-101390571D01*
X116477238Y-101295333D01*
X116572476Y-101200095D01*
X116620095Y-101104857D01*
X188951880Y-109561404D02*
X187951880Y-109561404D01*
X187951880Y-109799500D01*
X187999500Y-109942357D01*
X188094738Y-110037595D01*
X188189976Y-110085214D01*
X188380452Y-110132833D01*
X188523309Y-110132833D01*
X188713785Y-110085214D01*
X188809023Y-110037595D01*
X188904261Y-109942357D01*
X188951880Y-109799500D01*
X188951880Y-109561404D01*
X188285214Y-110989976D02*
X188951880Y-110989976D01*
X187904261Y-110751880D02*
X188618547Y-110513785D01*
X188618547Y-111132833D01*
X188983630Y-90480654D02*
X187983630Y-90480654D01*
X187983630Y-90718750D01*
X188031250Y-90861607D01*
X188126488Y-90956845D01*
X188221726Y-91004464D01*
X188412202Y-91052083D01*
X188555059Y-91052083D01*
X188745535Y-91004464D01*
X188840773Y-90956845D01*
X188936011Y-90861607D01*
X188983630Y-90718750D01*
X188983630Y-90480654D01*
X187983630Y-91385416D02*
X187983630Y-92004464D01*
X188364583Y-91671130D01*
X188364583Y-91813988D01*
X188412202Y-91909226D01*
X188459821Y-91956845D01*
X188555059Y-92004464D01*
X188793154Y-92004464D01*
X188888392Y-91956845D01*
X188936011Y-91909226D01*
X188983630Y-91813988D01*
X188983630Y-91528273D01*
X188936011Y-91433035D01*
X188888392Y-91385416D01*
X169933630Y-109530654D02*
X168933630Y-109530654D01*
X168933630Y-109768750D01*
X168981250Y-109911607D01*
X169076488Y-110006845D01*
X169171726Y-110054464D01*
X169362202Y-110102083D01*
X169505059Y-110102083D01*
X169695535Y-110054464D01*
X169790773Y-110006845D01*
X169886011Y-109911607D01*
X169933630Y-109768750D01*
X169933630Y-109530654D01*
X169028869Y-110483035D02*
X168981250Y-110530654D01*
X168933630Y-110625892D01*
X168933630Y-110863988D01*
X168981250Y-110959226D01*
X169028869Y-111006845D01*
X169124107Y-111054464D01*
X169219345Y-111054464D01*
X169362202Y-111006845D01*
X169933630Y-110435416D01*
X169933630Y-111054464D01*
X169901880Y-90511404D02*
X168901880Y-90511404D01*
X168901880Y-90749500D01*
X168949500Y-90892357D01*
X169044738Y-90987595D01*
X169139976Y-91035214D01*
X169330452Y-91082833D01*
X169473309Y-91082833D01*
X169663785Y-91035214D01*
X169759023Y-90987595D01*
X169854261Y-90892357D01*
X169901880Y-90749500D01*
X169901880Y-90511404D01*
X169901880Y-92035214D02*
X169901880Y-91463785D01*
X169901880Y-91749500D02*
X168901880Y-91749500D01*
X169044738Y-91654261D01*
X169139976Y-91559023D01*
X169187595Y-91463785D01*
X129755166Y-100688142D02*
X129802785Y-100735761D01*
X129945642Y-100783380D01*
X130040880Y-100783380D01*
X130183738Y-100735761D01*
X130278976Y-100640523D01*
X130326595Y-100545285D01*
X130374214Y-100354809D01*
X130374214Y-100211952D01*
X130326595Y-100021476D01*
X130278976Y-99926238D01*
X130183738Y-99831000D01*
X130040880Y-99783380D01*
X129945642Y-99783380D01*
X129802785Y-99831000D01*
X129755166Y-99878619D01*
X129421833Y-99783380D02*
X128755166Y-99783380D01*
X129183738Y-100783380D01*
X128882142Y-108085833D02*
X128929761Y-108038214D01*
X128977380Y-107895357D01*
X128977380Y-107800119D01*
X128929761Y-107657261D01*
X128834523Y-107562023D01*
X128739285Y-107514404D01*
X128548809Y-107466785D01*
X128405952Y-107466785D01*
X128215476Y-107514404D01*
X128120238Y-107562023D01*
X128025000Y-107657261D01*
X127977380Y-107800119D01*
X127977380Y-107895357D01*
X128025000Y-108038214D01*
X128072619Y-108085833D01*
X127977380Y-108942976D02*
X127977380Y-108752500D01*
X128025000Y-108657261D01*
X128072619Y-108609642D01*
X128215476Y-108514404D01*
X128405952Y-108466785D01*
X128786904Y-108466785D01*
X128882142Y-108514404D01*
X128929761Y-108562023D01*
X128977380Y-108657261D01*
X128977380Y-108847738D01*
X128929761Y-108942976D01*
X128882142Y-108990595D01*
X128786904Y-109038214D01*
X128548809Y-109038214D01*
X128453571Y-108990595D01*
X128405952Y-108942976D01*
X128358333Y-108847738D01*
X128358333Y-108657261D01*
X128405952Y-108562023D01*
X128453571Y-108514404D01*
X128548809Y-108466785D01*
X133612892Y-89575583D02*
X133660511Y-89527964D01*
X133708130Y-89385107D01*
X133708130Y-89289869D01*
X133660511Y-89147011D01*
X133565273Y-89051773D01*
X133470035Y-89004154D01*
X133279559Y-88956535D01*
X133136702Y-88956535D01*
X132946226Y-89004154D01*
X132850988Y-89051773D01*
X132755750Y-89147011D01*
X132708130Y-89289869D01*
X132708130Y-89385107D01*
X132755750Y-89527964D01*
X132803369Y-89575583D01*
X132708130Y-90480345D02*
X132708130Y-90004154D01*
X133184321Y-89956535D01*
X133136702Y-90004154D01*
X133089083Y-90099392D01*
X133089083Y-90337488D01*
X133136702Y-90432726D01*
X133184321Y-90480345D01*
X133279559Y-90527964D01*
X133517654Y-90527964D01*
X133612892Y-90480345D01*
X133660511Y-90432726D01*
X133708130Y-90337488D01*
X133708130Y-90099392D01*
X133660511Y-90004154D01*
X133612892Y-89956535D01*
X145675892Y-89478583D02*
X145723511Y-89430964D01*
X145771130Y-89288107D01*
X145771130Y-89192869D01*
X145723511Y-89050011D01*
X145628273Y-88954773D01*
X145533035Y-88907154D01*
X145342559Y-88859535D01*
X145199702Y-88859535D01*
X145009226Y-88907154D01*
X144913988Y-88954773D01*
X144818750Y-89050011D01*
X144771130Y-89192869D01*
X144771130Y-89288107D01*
X144818750Y-89430964D01*
X144866369Y-89478583D01*
X145104464Y-90335726D02*
X145771130Y-90335726D01*
X144723511Y-90097630D02*
X145437797Y-89859535D01*
X145437797Y-90478583D01*
X133579142Y-94304583D02*
X133626761Y-94256964D01*
X133674380Y-94114107D01*
X133674380Y-94018869D01*
X133626761Y-93876011D01*
X133531523Y-93780773D01*
X133436285Y-93733154D01*
X133245809Y-93685535D01*
X133102952Y-93685535D01*
X132912476Y-93733154D01*
X132817238Y-93780773D01*
X132722000Y-93876011D01*
X132674380Y-94018869D01*
X132674380Y-94114107D01*
X132722000Y-94256964D01*
X132769619Y-94304583D01*
X132674380Y-94637916D02*
X132674380Y-95256964D01*
X133055333Y-94923630D01*
X133055333Y-95066488D01*
X133102952Y-95161726D01*
X133150571Y-95209345D01*
X133245809Y-95256964D01*
X133483904Y-95256964D01*
X133579142Y-95209345D01*
X133626761Y-95161726D01*
X133674380Y-95066488D01*
X133674380Y-94780773D01*
X133626761Y-94685535D01*
X133579142Y-94637916D01*
X144167916Y-110371892D02*
X144215535Y-110419511D01*
X144358392Y-110467130D01*
X144453630Y-110467130D01*
X144596488Y-110419511D01*
X144691726Y-110324273D01*
X144739345Y-110229035D01*
X144786964Y-110038559D01*
X144786964Y-109895702D01*
X144739345Y-109705226D01*
X144691726Y-109609988D01*
X144596488Y-109514750D01*
X144453630Y-109467130D01*
X144358392Y-109467130D01*
X144215535Y-109514750D01*
X144167916Y-109562369D01*
X143786964Y-109562369D02*
X143739345Y-109514750D01*
X143644107Y-109467130D01*
X143406011Y-109467130D01*
X143310773Y-109514750D01*
X143263154Y-109562369D01*
X143215535Y-109657607D01*
X143215535Y-109752845D01*
X143263154Y-109895702D01*
X143834583Y-110467130D01*
X143215535Y-110467130D01*
X150374892Y-97733583D02*
X150422511Y-97685964D01*
X150470130Y-97543107D01*
X150470130Y-97447869D01*
X150422511Y-97305011D01*
X150327273Y-97209773D01*
X150232035Y-97162154D01*
X150041559Y-97114535D01*
X149898702Y-97114535D01*
X149708226Y-97162154D01*
X149612988Y-97209773D01*
X149517750Y-97305011D01*
X149470130Y-97447869D01*
X149470130Y-97543107D01*
X149517750Y-97685964D01*
X149565369Y-97733583D01*
X150470130Y-98685964D02*
X150470130Y-98114535D01*
X150470130Y-98400250D02*
X149470130Y-98400250D01*
X149612988Y-98305011D01*
X149708226Y-98209773D01*
X149755845Y-98114535D01*
%LPC*%
D12*
X140450750Y-88843750D03*
X138250750Y-88843750D03*
X138250750Y-90543750D03*
X140450750Y-90543750D03*
D13*
X116174500Y-83312000D03*
X123474500Y-83312000D03*
X123474500Y-87812000D03*
X116174500Y-87812000D03*
D14*
X118224500Y-87812000D03*
X119024500Y-87812000D03*
X119824500Y-87812000D03*
X120624500Y-87812000D03*
X121424500Y-87812000D03*
D15*
X135350750Y-108347750D03*
X136150750Y-108347750D03*
X136950750Y-108347750D03*
X137750750Y-108347750D03*
X138550750Y-108347750D03*
X139350750Y-108347750D03*
X140150750Y-108347750D03*
X140950750Y-108347750D03*
X141750750Y-108347750D03*
X142550750Y-108347750D03*
X143350750Y-108347750D03*
D16*
X145050750Y-106647750D03*
X145050750Y-105847750D03*
X145050750Y-105047750D03*
X145050750Y-104247750D03*
X145050750Y-103447750D03*
X145050750Y-102647750D03*
X145050750Y-101847750D03*
X145050750Y-101047750D03*
X145050750Y-100247750D03*
X145050750Y-99447750D03*
X145050750Y-98647750D03*
D15*
X143350750Y-96947750D03*
X142550750Y-96947750D03*
X141750750Y-96947750D03*
X140950750Y-96947750D03*
X140150750Y-96947750D03*
X139350750Y-96947750D03*
X138550750Y-96947750D03*
X137750750Y-96947750D03*
X136950750Y-96947750D03*
X136150750Y-96947750D03*
X135350750Y-96947750D03*
D16*
X133650750Y-98647750D03*
X133650750Y-99447750D03*
X133650750Y-100247750D03*
X133650750Y-101047750D03*
X133650750Y-101847750D03*
X133650750Y-102647750D03*
X133650750Y-103447750D03*
X133650750Y-104247750D03*
X133650750Y-105047750D03*
X133650750Y-105847750D03*
X133650750Y-106647750D03*
D17*
X121972000Y-116785000D03*
X115772000Y-113085000D03*
X121972000Y-113085000D03*
X115772000Y-116785000D03*
D18*
G36*
X148844141Y-106396797D02*
G01*
X148870278Y-106400674D01*
X148895909Y-106407094D01*
X148920788Y-106415995D01*
X148944674Y-106427293D01*
X148967337Y-106440877D01*
X148988560Y-106456617D01*
X149008139Y-106474361D01*
X149025883Y-106493940D01*
X149041623Y-106515163D01*
X149055207Y-106537826D01*
X149066505Y-106561712D01*
X149075406Y-106586591D01*
X149081826Y-106612222D01*
X149085703Y-106638359D01*
X149087000Y-106664750D01*
X149087000Y-107203250D01*
X149085703Y-107229641D01*
X149081826Y-107255778D01*
X149075406Y-107281409D01*
X149066505Y-107306288D01*
X149055207Y-107330174D01*
X149041623Y-107352837D01*
X149025883Y-107374060D01*
X149008139Y-107393639D01*
X148988560Y-107411383D01*
X148967337Y-107427123D01*
X148944674Y-107440707D01*
X148920788Y-107452005D01*
X148895909Y-107460906D01*
X148870278Y-107467326D01*
X148844141Y-107471203D01*
X148817750Y-107472500D01*
X147854250Y-107472500D01*
X147827859Y-107471203D01*
X147801722Y-107467326D01*
X147776091Y-107460906D01*
X147751212Y-107452005D01*
X147727326Y-107440707D01*
X147704663Y-107427123D01*
X147683440Y-107411383D01*
X147663861Y-107393639D01*
X147646117Y-107374060D01*
X147630377Y-107352837D01*
X147616793Y-107330174D01*
X147605495Y-107306288D01*
X147596594Y-107281409D01*
X147590174Y-107255778D01*
X147586297Y-107229641D01*
X147585000Y-107203250D01*
X147585000Y-106664750D01*
X147586297Y-106638359D01*
X147590174Y-106612222D01*
X147596594Y-106586591D01*
X147605495Y-106561712D01*
X147616793Y-106537826D01*
X147630377Y-106515163D01*
X147646117Y-106493940D01*
X147663861Y-106474361D01*
X147683440Y-106456617D01*
X147704663Y-106440877D01*
X147727326Y-106427293D01*
X147751212Y-106415995D01*
X147776091Y-106407094D01*
X147801722Y-106400674D01*
X147827859Y-106396797D01*
X147854250Y-106395500D01*
X148817750Y-106395500D01*
X148844141Y-106396797D01*
X148844141Y-106396797D01*
G37*
D19*
X148336000Y-106934000D03*
D18*
G36*
X148844141Y-108271797D02*
G01*
X148870278Y-108275674D01*
X148895909Y-108282094D01*
X148920788Y-108290995D01*
X148944674Y-108302293D01*
X148967337Y-108315877D01*
X148988560Y-108331617D01*
X149008139Y-108349361D01*
X149025883Y-108368940D01*
X149041623Y-108390163D01*
X149055207Y-108412826D01*
X149066505Y-108436712D01*
X149075406Y-108461591D01*
X149081826Y-108487222D01*
X149085703Y-108513359D01*
X149087000Y-108539750D01*
X149087000Y-109078250D01*
X149085703Y-109104641D01*
X149081826Y-109130778D01*
X149075406Y-109156409D01*
X149066505Y-109181288D01*
X149055207Y-109205174D01*
X149041623Y-109227837D01*
X149025883Y-109249060D01*
X149008139Y-109268639D01*
X148988560Y-109286383D01*
X148967337Y-109302123D01*
X148944674Y-109315707D01*
X148920788Y-109327005D01*
X148895909Y-109335906D01*
X148870278Y-109342326D01*
X148844141Y-109346203D01*
X148817750Y-109347500D01*
X147854250Y-109347500D01*
X147827859Y-109346203D01*
X147801722Y-109342326D01*
X147776091Y-109335906D01*
X147751212Y-109327005D01*
X147727326Y-109315707D01*
X147704663Y-109302123D01*
X147683440Y-109286383D01*
X147663861Y-109268639D01*
X147646117Y-109249060D01*
X147630377Y-109227837D01*
X147616793Y-109205174D01*
X147605495Y-109181288D01*
X147596594Y-109156409D01*
X147590174Y-109130778D01*
X147586297Y-109104641D01*
X147585000Y-109078250D01*
X147585000Y-108539750D01*
X147586297Y-108513359D01*
X147590174Y-108487222D01*
X147596594Y-108461591D01*
X147605495Y-108436712D01*
X147616793Y-108412826D01*
X147630377Y-108390163D01*
X147646117Y-108368940D01*
X147663861Y-108349361D01*
X147683440Y-108331617D01*
X147704663Y-108315877D01*
X147727326Y-108302293D01*
X147751212Y-108290995D01*
X147776091Y-108282094D01*
X147801722Y-108275674D01*
X147827859Y-108271797D01*
X147854250Y-108270500D01*
X148817750Y-108270500D01*
X148844141Y-108271797D01*
X148844141Y-108271797D01*
G37*
D19*
X148336000Y-108809000D03*
D18*
G36*
X128778141Y-94871547D02*
G01*
X128804278Y-94875424D01*
X128829909Y-94881844D01*
X128854788Y-94890745D01*
X128878674Y-94902043D01*
X128901337Y-94915627D01*
X128922560Y-94931367D01*
X128942139Y-94949111D01*
X128959883Y-94968690D01*
X128975623Y-94989913D01*
X128989207Y-95012576D01*
X129000505Y-95036462D01*
X129009406Y-95061341D01*
X129015826Y-95086972D01*
X129019703Y-95113109D01*
X129021000Y-95139500D01*
X129021000Y-95678000D01*
X129019703Y-95704391D01*
X129015826Y-95730528D01*
X129009406Y-95756159D01*
X129000505Y-95781038D01*
X128989207Y-95804924D01*
X128975623Y-95827587D01*
X128959883Y-95848810D01*
X128942139Y-95868389D01*
X128922560Y-95886133D01*
X128901337Y-95901873D01*
X128878674Y-95915457D01*
X128854788Y-95926755D01*
X128829909Y-95935656D01*
X128804278Y-95942076D01*
X128778141Y-95945953D01*
X128751750Y-95947250D01*
X127788250Y-95947250D01*
X127761859Y-95945953D01*
X127735722Y-95942076D01*
X127710091Y-95935656D01*
X127685212Y-95926755D01*
X127661326Y-95915457D01*
X127638663Y-95901873D01*
X127617440Y-95886133D01*
X127597861Y-95868389D01*
X127580117Y-95848810D01*
X127564377Y-95827587D01*
X127550793Y-95804924D01*
X127539495Y-95781038D01*
X127530594Y-95756159D01*
X127524174Y-95730528D01*
X127520297Y-95704391D01*
X127519000Y-95678000D01*
X127519000Y-95139500D01*
X127520297Y-95113109D01*
X127524174Y-95086972D01*
X127530594Y-95061341D01*
X127539495Y-95036462D01*
X127550793Y-95012576D01*
X127564377Y-94989913D01*
X127580117Y-94968690D01*
X127597861Y-94949111D01*
X127617440Y-94931367D01*
X127638663Y-94915627D01*
X127661326Y-94902043D01*
X127685212Y-94890745D01*
X127710091Y-94881844D01*
X127735722Y-94875424D01*
X127761859Y-94871547D01*
X127788250Y-94870250D01*
X128751750Y-94870250D01*
X128778141Y-94871547D01*
X128778141Y-94871547D01*
G37*
D19*
X128270000Y-95408750D03*
D18*
G36*
X128778141Y-92996547D02*
G01*
X128804278Y-93000424D01*
X128829909Y-93006844D01*
X128854788Y-93015745D01*
X128878674Y-93027043D01*
X128901337Y-93040627D01*
X128922560Y-93056367D01*
X128942139Y-93074111D01*
X128959883Y-93093690D01*
X128975623Y-93114913D01*
X128989207Y-93137576D01*
X129000505Y-93161462D01*
X129009406Y-93186341D01*
X129015826Y-93211972D01*
X129019703Y-93238109D01*
X129021000Y-93264500D01*
X129021000Y-93803000D01*
X129019703Y-93829391D01*
X129015826Y-93855528D01*
X129009406Y-93881159D01*
X129000505Y-93906038D01*
X128989207Y-93929924D01*
X128975623Y-93952587D01*
X128959883Y-93973810D01*
X128942139Y-93993389D01*
X128922560Y-94011133D01*
X128901337Y-94026873D01*
X128878674Y-94040457D01*
X128854788Y-94051755D01*
X128829909Y-94060656D01*
X128804278Y-94067076D01*
X128778141Y-94070953D01*
X128751750Y-94072250D01*
X127788250Y-94072250D01*
X127761859Y-94070953D01*
X127735722Y-94067076D01*
X127710091Y-94060656D01*
X127685212Y-94051755D01*
X127661326Y-94040457D01*
X127638663Y-94026873D01*
X127617440Y-94011133D01*
X127597861Y-93993389D01*
X127580117Y-93973810D01*
X127564377Y-93952587D01*
X127550793Y-93929924D01*
X127539495Y-93906038D01*
X127530594Y-93881159D01*
X127524174Y-93855528D01*
X127520297Y-93829391D01*
X127519000Y-93803000D01*
X127519000Y-93264500D01*
X127520297Y-93238109D01*
X127524174Y-93211972D01*
X127530594Y-93186341D01*
X127539495Y-93161462D01*
X127550793Y-93137576D01*
X127564377Y-93114913D01*
X127580117Y-93093690D01*
X127597861Y-93074111D01*
X127617440Y-93056367D01*
X127638663Y-93040627D01*
X127661326Y-93027043D01*
X127685212Y-93015745D01*
X127710091Y-93006844D01*
X127735722Y-93000424D01*
X127761859Y-92996547D01*
X127788250Y-92995250D01*
X128751750Y-92995250D01*
X128778141Y-92996547D01*
X128778141Y-92996547D01*
G37*
D19*
X128270000Y-93533750D03*
D18*
G36*
X121507391Y-93093547D02*
G01*
X121533528Y-93097424D01*
X121559159Y-93103844D01*
X121584038Y-93112745D01*
X121607924Y-93124043D01*
X121630587Y-93137627D01*
X121651810Y-93153367D01*
X121671389Y-93171111D01*
X121689133Y-93190690D01*
X121704873Y-93211913D01*
X121718457Y-93234576D01*
X121729755Y-93258462D01*
X121738656Y-93283341D01*
X121745076Y-93308972D01*
X121748953Y-93335109D01*
X121750250Y-93361500D01*
X121750250Y-93900000D01*
X121748953Y-93926391D01*
X121745076Y-93952528D01*
X121738656Y-93978159D01*
X121729755Y-94003038D01*
X121718457Y-94026924D01*
X121704873Y-94049587D01*
X121689133Y-94070810D01*
X121671389Y-94090389D01*
X121651810Y-94108133D01*
X121630587Y-94123873D01*
X121607924Y-94137457D01*
X121584038Y-94148755D01*
X121559159Y-94157656D01*
X121533528Y-94164076D01*
X121507391Y-94167953D01*
X121481000Y-94169250D01*
X120517500Y-94169250D01*
X120491109Y-94167953D01*
X120464972Y-94164076D01*
X120439341Y-94157656D01*
X120414462Y-94148755D01*
X120390576Y-94137457D01*
X120367913Y-94123873D01*
X120346690Y-94108133D01*
X120327111Y-94090389D01*
X120309367Y-94070810D01*
X120293627Y-94049587D01*
X120280043Y-94026924D01*
X120268745Y-94003038D01*
X120259844Y-93978159D01*
X120253424Y-93952528D01*
X120249547Y-93926391D01*
X120248250Y-93900000D01*
X120248250Y-93361500D01*
X120249547Y-93335109D01*
X120253424Y-93308972D01*
X120259844Y-93283341D01*
X120268745Y-93258462D01*
X120280043Y-93234576D01*
X120293627Y-93211913D01*
X120309367Y-93190690D01*
X120327111Y-93171111D01*
X120346690Y-93153367D01*
X120367913Y-93137627D01*
X120390576Y-93124043D01*
X120414462Y-93112745D01*
X120439341Y-93103844D01*
X120464972Y-93097424D01*
X120491109Y-93093547D01*
X120517500Y-93092250D01*
X121481000Y-93092250D01*
X121507391Y-93093547D01*
X121507391Y-93093547D01*
G37*
D19*
X120999250Y-93630750D03*
D18*
G36*
X121507391Y-94968547D02*
G01*
X121533528Y-94972424D01*
X121559159Y-94978844D01*
X121584038Y-94987745D01*
X121607924Y-94999043D01*
X121630587Y-95012627D01*
X121651810Y-95028367D01*
X121671389Y-95046111D01*
X121689133Y-95065690D01*
X121704873Y-95086913D01*
X121718457Y-95109576D01*
X121729755Y-95133462D01*
X121738656Y-95158341D01*
X121745076Y-95183972D01*
X121748953Y-95210109D01*
X121750250Y-95236500D01*
X121750250Y-95775000D01*
X121748953Y-95801391D01*
X121745076Y-95827528D01*
X121738656Y-95853159D01*
X121729755Y-95878038D01*
X121718457Y-95901924D01*
X121704873Y-95924587D01*
X121689133Y-95945810D01*
X121671389Y-95965389D01*
X121651810Y-95983133D01*
X121630587Y-95998873D01*
X121607924Y-96012457D01*
X121584038Y-96023755D01*
X121559159Y-96032656D01*
X121533528Y-96039076D01*
X121507391Y-96042953D01*
X121481000Y-96044250D01*
X120517500Y-96044250D01*
X120491109Y-96042953D01*
X120464972Y-96039076D01*
X120439341Y-96032656D01*
X120414462Y-96023755D01*
X120390576Y-96012457D01*
X120367913Y-95998873D01*
X120346690Y-95983133D01*
X120327111Y-95965389D01*
X120309367Y-95945810D01*
X120293627Y-95924587D01*
X120280043Y-95901924D01*
X120268745Y-95878038D01*
X120259844Y-95853159D01*
X120253424Y-95827528D01*
X120249547Y-95801391D01*
X120248250Y-95775000D01*
X120248250Y-95236500D01*
X120249547Y-95210109D01*
X120253424Y-95183972D01*
X120259844Y-95158341D01*
X120268745Y-95133462D01*
X120280043Y-95109576D01*
X120293627Y-95086913D01*
X120309367Y-95065690D01*
X120327111Y-95046111D01*
X120346690Y-95028367D01*
X120367913Y-95012627D01*
X120390576Y-94999043D01*
X120414462Y-94987745D01*
X120439341Y-94978844D01*
X120464972Y-94972424D01*
X120491109Y-94968547D01*
X120517500Y-94967250D01*
X121481000Y-94967250D01*
X121507391Y-94968547D01*
X121507391Y-94968547D01*
G37*
D19*
X120999250Y-95505750D03*
D18*
G36*
X118332391Y-93093547D02*
G01*
X118358528Y-93097424D01*
X118384159Y-93103844D01*
X118409038Y-93112745D01*
X118432924Y-93124043D01*
X118455587Y-93137627D01*
X118476810Y-93153367D01*
X118496389Y-93171111D01*
X118514133Y-93190690D01*
X118529873Y-93211913D01*
X118543457Y-93234576D01*
X118554755Y-93258462D01*
X118563656Y-93283341D01*
X118570076Y-93308972D01*
X118573953Y-93335109D01*
X118575250Y-93361500D01*
X118575250Y-93900000D01*
X118573953Y-93926391D01*
X118570076Y-93952528D01*
X118563656Y-93978159D01*
X118554755Y-94003038D01*
X118543457Y-94026924D01*
X118529873Y-94049587D01*
X118514133Y-94070810D01*
X118496389Y-94090389D01*
X118476810Y-94108133D01*
X118455587Y-94123873D01*
X118432924Y-94137457D01*
X118409038Y-94148755D01*
X118384159Y-94157656D01*
X118358528Y-94164076D01*
X118332391Y-94167953D01*
X118306000Y-94169250D01*
X117342500Y-94169250D01*
X117316109Y-94167953D01*
X117289972Y-94164076D01*
X117264341Y-94157656D01*
X117239462Y-94148755D01*
X117215576Y-94137457D01*
X117192913Y-94123873D01*
X117171690Y-94108133D01*
X117152111Y-94090389D01*
X117134367Y-94070810D01*
X117118627Y-94049587D01*
X117105043Y-94026924D01*
X117093745Y-94003038D01*
X117084844Y-93978159D01*
X117078424Y-93952528D01*
X117074547Y-93926391D01*
X117073250Y-93900000D01*
X117073250Y-93361500D01*
X117074547Y-93335109D01*
X117078424Y-93308972D01*
X117084844Y-93283341D01*
X117093745Y-93258462D01*
X117105043Y-93234576D01*
X117118627Y-93211913D01*
X117134367Y-93190690D01*
X117152111Y-93171111D01*
X117171690Y-93153367D01*
X117192913Y-93137627D01*
X117215576Y-93124043D01*
X117239462Y-93112745D01*
X117264341Y-93103844D01*
X117289972Y-93097424D01*
X117316109Y-93093547D01*
X117342500Y-93092250D01*
X118306000Y-93092250D01*
X118332391Y-93093547D01*
X118332391Y-93093547D01*
G37*
D19*
X117824250Y-93630750D03*
D18*
G36*
X118332391Y-94968547D02*
G01*
X118358528Y-94972424D01*
X118384159Y-94978844D01*
X118409038Y-94987745D01*
X118432924Y-94999043D01*
X118455587Y-95012627D01*
X118476810Y-95028367D01*
X118496389Y-95046111D01*
X118514133Y-95065690D01*
X118529873Y-95086913D01*
X118543457Y-95109576D01*
X118554755Y-95133462D01*
X118563656Y-95158341D01*
X118570076Y-95183972D01*
X118573953Y-95210109D01*
X118575250Y-95236500D01*
X118575250Y-95775000D01*
X118573953Y-95801391D01*
X118570076Y-95827528D01*
X118563656Y-95853159D01*
X118554755Y-95878038D01*
X118543457Y-95901924D01*
X118529873Y-95924587D01*
X118514133Y-95945810D01*
X118496389Y-95965389D01*
X118476810Y-95983133D01*
X118455587Y-95998873D01*
X118432924Y-96012457D01*
X118409038Y-96023755D01*
X118384159Y-96032656D01*
X118358528Y-96039076D01*
X118332391Y-96042953D01*
X118306000Y-96044250D01*
X117342500Y-96044250D01*
X117316109Y-96042953D01*
X117289972Y-96039076D01*
X117264341Y-96032656D01*
X117239462Y-96023755D01*
X117215576Y-96012457D01*
X117192913Y-95998873D01*
X117171690Y-95983133D01*
X117152111Y-95965389D01*
X117134367Y-95945810D01*
X117118627Y-95924587D01*
X117105043Y-95901924D01*
X117093745Y-95878038D01*
X117084844Y-95853159D01*
X117078424Y-95827528D01*
X117074547Y-95801391D01*
X117073250Y-95775000D01*
X117073250Y-95236500D01*
X117074547Y-95210109D01*
X117078424Y-95183972D01*
X117084844Y-95158341D01*
X117093745Y-95133462D01*
X117105043Y-95109576D01*
X117118627Y-95086913D01*
X117134367Y-95065690D01*
X117152111Y-95046111D01*
X117171690Y-95028367D01*
X117192913Y-95012627D01*
X117215576Y-94999043D01*
X117239462Y-94987745D01*
X117264341Y-94978844D01*
X117289972Y-94972424D01*
X117316109Y-94968547D01*
X117342500Y-94967250D01*
X118306000Y-94967250D01*
X118332391Y-94968547D01*
X118332391Y-94968547D01*
G37*
D19*
X117824250Y-95505750D03*
D20*
X183642000Y-110299500D03*
X173482000Y-110299500D03*
D21*
X176062000Y-106299500D03*
D22*
X178562000Y-110299500D03*
D21*
X175407001Y-107029500D03*
D23*
X174752000Y-107759500D02*
X176062002Y-106299500D01*
D21*
X181102000Y-105219500D03*
X181082000Y-105509500D03*
D23*
X181062000Y-105799500D02*
X181102000Y-105219500D01*
D20*
X183673750Y-91281250D03*
X173513750Y-91281250D03*
D21*
X176093750Y-87281250D03*
D22*
X178593750Y-91281250D03*
D21*
X175438751Y-88011250D03*
D23*
X174783750Y-88741250D02*
X176093752Y-87281250D01*
D21*
X181133750Y-86201250D03*
X181113750Y-86491250D03*
D23*
X181093750Y-86781250D02*
X181133750Y-86201250D01*
D20*
X164623750Y-110331250D03*
X154463750Y-110331250D03*
D21*
X157043750Y-106331250D03*
D22*
X159543750Y-110331250D03*
D21*
X156388751Y-107061250D03*
D23*
X155733750Y-107791250D02*
X157043752Y-106331250D01*
D21*
X162083750Y-105251250D03*
X162063750Y-105541250D03*
D23*
X162043750Y-105831250D02*
X162083750Y-105251250D01*
D20*
X164592000Y-91249500D03*
X154432000Y-91249500D03*
D21*
X157012000Y-87249500D03*
D22*
X159512000Y-91249500D03*
D21*
X156357001Y-87979500D03*
D23*
X155702000Y-88709500D02*
X157012002Y-87249500D01*
D21*
X162052000Y-86169500D03*
X162032000Y-86459500D03*
D23*
X162012000Y-86749500D02*
X162052000Y-86169500D01*
D18*
G36*
X115744104Y-98887302D02*
G01*
X115770352Y-98891196D01*
X115796093Y-98897643D01*
X115821078Y-98906583D01*
X115845066Y-98917928D01*
X115867826Y-98931571D01*
X115889140Y-98947378D01*
X115908802Y-98965198D01*
X115926622Y-98984860D01*
X115942429Y-99006174D01*
X115956072Y-99028934D01*
X115967417Y-99052922D01*
X115976357Y-99077907D01*
X115982804Y-99103648D01*
X115986698Y-99129896D01*
X115988000Y-99156400D01*
X115988000Y-99967600D01*
X115986698Y-99994104D01*
X115982804Y-100020352D01*
X115976357Y-100046093D01*
X115967417Y-100071078D01*
X115956072Y-100095066D01*
X115942429Y-100117826D01*
X115926622Y-100139140D01*
X115908802Y-100158802D01*
X115889140Y-100176622D01*
X115867826Y-100192429D01*
X115845066Y-100206072D01*
X115821078Y-100217417D01*
X115796093Y-100226357D01*
X115770352Y-100232804D01*
X115744104Y-100236698D01*
X115717600Y-100238000D01*
X114406400Y-100238000D01*
X114379896Y-100236698D01*
X114353648Y-100232804D01*
X114327907Y-100226357D01*
X114302922Y-100217417D01*
X114278934Y-100206072D01*
X114256174Y-100192429D01*
X114234860Y-100176622D01*
X114215198Y-100158802D01*
X114197378Y-100139140D01*
X114181571Y-100117826D01*
X114167928Y-100095066D01*
X114156583Y-100071078D01*
X114147643Y-100046093D01*
X114141196Y-100020352D01*
X114137302Y-99994104D01*
X114136000Y-99967600D01*
X114136000Y-99156400D01*
X114137302Y-99129896D01*
X114141196Y-99103648D01*
X114147643Y-99077907D01*
X114156583Y-99052922D01*
X114167928Y-99028934D01*
X114181571Y-99006174D01*
X114197378Y-98984860D01*
X114215198Y-98965198D01*
X114234860Y-98947378D01*
X114256174Y-98931571D01*
X114278934Y-98917928D01*
X114302922Y-98906583D01*
X114327907Y-98897643D01*
X114353648Y-98891196D01*
X114379896Y-98887302D01*
X114406400Y-98886000D01*
X115717600Y-98886000D01*
X115744104Y-98887302D01*
X115744104Y-98887302D01*
G37*
D24*
X115062000Y-99562000D03*
D18*
G36*
X115744104Y-101687302D02*
G01*
X115770352Y-101691196D01*
X115796093Y-101697643D01*
X115821078Y-101706583D01*
X115845066Y-101717928D01*
X115867826Y-101731571D01*
X115889140Y-101747378D01*
X115908802Y-101765198D01*
X115926622Y-101784860D01*
X115942429Y-101806174D01*
X115956072Y-101828934D01*
X115967417Y-101852922D01*
X115976357Y-101877907D01*
X115982804Y-101903648D01*
X115986698Y-101929896D01*
X115988000Y-101956400D01*
X115988000Y-102767600D01*
X115986698Y-102794104D01*
X115982804Y-102820352D01*
X115976357Y-102846093D01*
X115967417Y-102871078D01*
X115956072Y-102895066D01*
X115942429Y-102917826D01*
X115926622Y-102939140D01*
X115908802Y-102958802D01*
X115889140Y-102976622D01*
X115867826Y-102992429D01*
X115845066Y-103006072D01*
X115821078Y-103017417D01*
X115796093Y-103026357D01*
X115770352Y-103032804D01*
X115744104Y-103036698D01*
X115717600Y-103038000D01*
X114406400Y-103038000D01*
X114379896Y-103036698D01*
X114353648Y-103032804D01*
X114327907Y-103026357D01*
X114302922Y-103017417D01*
X114278934Y-103006072D01*
X114256174Y-102992429D01*
X114234860Y-102976622D01*
X114215198Y-102958802D01*
X114197378Y-102939140D01*
X114181571Y-102917826D01*
X114167928Y-102895066D01*
X114156583Y-102871078D01*
X114147643Y-102846093D01*
X114141196Y-102820352D01*
X114137302Y-102794104D01*
X114136000Y-102767600D01*
X114136000Y-101956400D01*
X114137302Y-101929896D01*
X114141196Y-101903648D01*
X114147643Y-101877907D01*
X114156583Y-101852922D01*
X114167928Y-101828934D01*
X114181571Y-101806174D01*
X114197378Y-101784860D01*
X114215198Y-101765198D01*
X114234860Y-101747378D01*
X114256174Y-101731571D01*
X114278934Y-101717928D01*
X114302922Y-101706583D01*
X114327907Y-101697643D01*
X114353648Y-101691196D01*
X114379896Y-101687302D01*
X114406400Y-101686000D01*
X115717600Y-101686000D01*
X115744104Y-101687302D01*
X115744104Y-101687302D01*
G37*
D24*
X115062000Y-102362000D03*
D25*
X186499500Y-108649500D03*
X186499500Y-111949500D03*
X186531250Y-89568750D03*
X186531250Y-92868750D03*
X167481250Y-108618750D03*
X167481250Y-111918750D03*
X167449500Y-89599500D03*
X167449500Y-92899500D03*
D18*
G36*
X128946641Y-101231297D02*
G01*
X128972778Y-101235174D01*
X128998409Y-101241594D01*
X129023288Y-101250495D01*
X129047174Y-101261793D01*
X129069837Y-101275377D01*
X129091060Y-101291117D01*
X129110639Y-101308861D01*
X129128383Y-101328440D01*
X129144123Y-101349663D01*
X129157707Y-101372326D01*
X129169005Y-101396212D01*
X129177906Y-101421091D01*
X129184326Y-101446722D01*
X129188203Y-101472859D01*
X129189500Y-101499250D01*
X129189500Y-102462750D01*
X129188203Y-102489141D01*
X129184326Y-102515278D01*
X129177906Y-102540909D01*
X129169005Y-102565788D01*
X129157707Y-102589674D01*
X129144123Y-102612337D01*
X129128383Y-102633560D01*
X129110639Y-102653139D01*
X129091060Y-102670883D01*
X129069837Y-102686623D01*
X129047174Y-102700207D01*
X129023288Y-102711505D01*
X128998409Y-102720406D01*
X128972778Y-102726826D01*
X128946641Y-102730703D01*
X128920250Y-102732000D01*
X128381750Y-102732000D01*
X128355359Y-102730703D01*
X128329222Y-102726826D01*
X128303591Y-102720406D01*
X128278712Y-102711505D01*
X128254826Y-102700207D01*
X128232163Y-102686623D01*
X128210940Y-102670883D01*
X128191361Y-102653139D01*
X128173617Y-102633560D01*
X128157877Y-102612337D01*
X128144293Y-102589674D01*
X128132995Y-102565788D01*
X128124094Y-102540909D01*
X128117674Y-102515278D01*
X128113797Y-102489141D01*
X128112500Y-102462750D01*
X128112500Y-101499250D01*
X128113797Y-101472859D01*
X128117674Y-101446722D01*
X128124094Y-101421091D01*
X128132995Y-101396212D01*
X128144293Y-101372326D01*
X128157877Y-101349663D01*
X128173617Y-101328440D01*
X128191361Y-101308861D01*
X128210940Y-101291117D01*
X128232163Y-101275377D01*
X128254826Y-101261793D01*
X128278712Y-101250495D01*
X128303591Y-101241594D01*
X128329222Y-101235174D01*
X128355359Y-101231297D01*
X128381750Y-101230000D01*
X128920250Y-101230000D01*
X128946641Y-101231297D01*
X128946641Y-101231297D01*
G37*
D19*
X128651000Y-101981000D03*
D18*
G36*
X130821641Y-101231297D02*
G01*
X130847778Y-101235174D01*
X130873409Y-101241594D01*
X130898288Y-101250495D01*
X130922174Y-101261793D01*
X130944837Y-101275377D01*
X130966060Y-101291117D01*
X130985639Y-101308861D01*
X131003383Y-101328440D01*
X131019123Y-101349663D01*
X131032707Y-101372326D01*
X131044005Y-101396212D01*
X131052906Y-101421091D01*
X131059326Y-101446722D01*
X131063203Y-101472859D01*
X131064500Y-101499250D01*
X131064500Y-102462750D01*
X131063203Y-102489141D01*
X131059326Y-102515278D01*
X131052906Y-102540909D01*
X131044005Y-102565788D01*
X131032707Y-102589674D01*
X131019123Y-102612337D01*
X131003383Y-102633560D01*
X130985639Y-102653139D01*
X130966060Y-102670883D01*
X130944837Y-102686623D01*
X130922174Y-102700207D01*
X130898288Y-102711505D01*
X130873409Y-102720406D01*
X130847778Y-102726826D01*
X130821641Y-102730703D01*
X130795250Y-102732000D01*
X130256750Y-102732000D01*
X130230359Y-102730703D01*
X130204222Y-102726826D01*
X130178591Y-102720406D01*
X130153712Y-102711505D01*
X130129826Y-102700207D01*
X130107163Y-102686623D01*
X130085940Y-102670883D01*
X130066361Y-102653139D01*
X130048617Y-102633560D01*
X130032877Y-102612337D01*
X130019293Y-102589674D01*
X130007995Y-102565788D01*
X129999094Y-102540909D01*
X129992674Y-102515278D01*
X129988797Y-102489141D01*
X129987500Y-102462750D01*
X129987500Y-101499250D01*
X129988797Y-101472859D01*
X129992674Y-101446722D01*
X129999094Y-101421091D01*
X130007995Y-101396212D01*
X130019293Y-101372326D01*
X130032877Y-101349663D01*
X130048617Y-101328440D01*
X130066361Y-101308861D01*
X130085940Y-101291117D01*
X130107163Y-101275377D01*
X130129826Y-101261793D01*
X130153712Y-101250495D01*
X130178591Y-101241594D01*
X130204222Y-101235174D01*
X130230359Y-101231297D01*
X130256750Y-101230000D01*
X130795250Y-101230000D01*
X130821641Y-101231297D01*
X130821641Y-101231297D01*
G37*
D19*
X130526000Y-101981000D03*
D18*
G36*
X130683141Y-108652797D02*
G01*
X130709278Y-108656674D01*
X130734909Y-108663094D01*
X130759788Y-108671995D01*
X130783674Y-108683293D01*
X130806337Y-108696877D01*
X130827560Y-108712617D01*
X130847139Y-108730361D01*
X130864883Y-108749940D01*
X130880623Y-108771163D01*
X130894207Y-108793826D01*
X130905505Y-108817712D01*
X130914406Y-108842591D01*
X130920826Y-108868222D01*
X130924703Y-108894359D01*
X130926000Y-108920750D01*
X130926000Y-109459250D01*
X130924703Y-109485641D01*
X130920826Y-109511778D01*
X130914406Y-109537409D01*
X130905505Y-109562288D01*
X130894207Y-109586174D01*
X130880623Y-109608837D01*
X130864883Y-109630060D01*
X130847139Y-109649639D01*
X130827560Y-109667383D01*
X130806337Y-109683123D01*
X130783674Y-109696707D01*
X130759788Y-109708005D01*
X130734909Y-109716906D01*
X130709278Y-109723326D01*
X130683141Y-109727203D01*
X130656750Y-109728500D01*
X129693250Y-109728500D01*
X129666859Y-109727203D01*
X129640722Y-109723326D01*
X129615091Y-109716906D01*
X129590212Y-109708005D01*
X129566326Y-109696707D01*
X129543663Y-109683123D01*
X129522440Y-109667383D01*
X129502861Y-109649639D01*
X129485117Y-109630060D01*
X129469377Y-109608837D01*
X129455793Y-109586174D01*
X129444495Y-109562288D01*
X129435594Y-109537409D01*
X129429174Y-109511778D01*
X129425297Y-109485641D01*
X129424000Y-109459250D01*
X129424000Y-108920750D01*
X129425297Y-108894359D01*
X129429174Y-108868222D01*
X129435594Y-108842591D01*
X129444495Y-108817712D01*
X129455793Y-108793826D01*
X129469377Y-108771163D01*
X129485117Y-108749940D01*
X129502861Y-108730361D01*
X129522440Y-108712617D01*
X129543663Y-108696877D01*
X129566326Y-108683293D01*
X129590212Y-108671995D01*
X129615091Y-108663094D01*
X129640722Y-108656674D01*
X129666859Y-108652797D01*
X129693250Y-108651500D01*
X130656750Y-108651500D01*
X130683141Y-108652797D01*
X130683141Y-108652797D01*
G37*
D19*
X130175000Y-109190000D03*
D18*
G36*
X130683141Y-106777797D02*
G01*
X130709278Y-106781674D01*
X130734909Y-106788094D01*
X130759788Y-106796995D01*
X130783674Y-106808293D01*
X130806337Y-106821877D01*
X130827560Y-106837617D01*
X130847139Y-106855361D01*
X130864883Y-106874940D01*
X130880623Y-106896163D01*
X130894207Y-106918826D01*
X130905505Y-106942712D01*
X130914406Y-106967591D01*
X130920826Y-106993222D01*
X130924703Y-107019359D01*
X130926000Y-107045750D01*
X130926000Y-107584250D01*
X130924703Y-107610641D01*
X130920826Y-107636778D01*
X130914406Y-107662409D01*
X130905505Y-107687288D01*
X130894207Y-107711174D01*
X130880623Y-107733837D01*
X130864883Y-107755060D01*
X130847139Y-107774639D01*
X130827560Y-107792383D01*
X130806337Y-107808123D01*
X130783674Y-107821707D01*
X130759788Y-107833005D01*
X130734909Y-107841906D01*
X130709278Y-107848326D01*
X130683141Y-107852203D01*
X130656750Y-107853500D01*
X129693250Y-107853500D01*
X129666859Y-107852203D01*
X129640722Y-107848326D01*
X129615091Y-107841906D01*
X129590212Y-107833005D01*
X129566326Y-107821707D01*
X129543663Y-107808123D01*
X129522440Y-107792383D01*
X129502861Y-107774639D01*
X129485117Y-107755060D01*
X129469377Y-107733837D01*
X129455793Y-107711174D01*
X129444495Y-107687288D01*
X129435594Y-107662409D01*
X129429174Y-107636778D01*
X129425297Y-107610641D01*
X129424000Y-107584250D01*
X129424000Y-107045750D01*
X129425297Y-107019359D01*
X129429174Y-106993222D01*
X129435594Y-106967591D01*
X129444495Y-106942712D01*
X129455793Y-106918826D01*
X129469377Y-106896163D01*
X129485117Y-106874940D01*
X129502861Y-106855361D01*
X129522440Y-106837617D01*
X129543663Y-106821877D01*
X129566326Y-106808293D01*
X129590212Y-106796995D01*
X129615091Y-106788094D01*
X129640722Y-106781674D01*
X129666859Y-106777797D01*
X129693250Y-106776500D01*
X130656750Y-106776500D01*
X130683141Y-106777797D01*
X130683141Y-106777797D01*
G37*
D19*
X130175000Y-107315000D03*
D18*
G36*
X135413891Y-90142547D02*
G01*
X135440028Y-90146424D01*
X135465659Y-90152844D01*
X135490538Y-90161745D01*
X135514424Y-90173043D01*
X135537087Y-90186627D01*
X135558310Y-90202367D01*
X135577889Y-90220111D01*
X135595633Y-90239690D01*
X135611373Y-90260913D01*
X135624957Y-90283576D01*
X135636255Y-90307462D01*
X135645156Y-90332341D01*
X135651576Y-90357972D01*
X135655453Y-90384109D01*
X135656750Y-90410500D01*
X135656750Y-90949000D01*
X135655453Y-90975391D01*
X135651576Y-91001528D01*
X135645156Y-91027159D01*
X135636255Y-91052038D01*
X135624957Y-91075924D01*
X135611373Y-91098587D01*
X135595633Y-91119810D01*
X135577889Y-91139389D01*
X135558310Y-91157133D01*
X135537087Y-91172873D01*
X135514424Y-91186457D01*
X135490538Y-91197755D01*
X135465659Y-91206656D01*
X135440028Y-91213076D01*
X135413891Y-91216953D01*
X135387500Y-91218250D01*
X134424000Y-91218250D01*
X134397609Y-91216953D01*
X134371472Y-91213076D01*
X134345841Y-91206656D01*
X134320962Y-91197755D01*
X134297076Y-91186457D01*
X134274413Y-91172873D01*
X134253190Y-91157133D01*
X134233611Y-91139389D01*
X134215867Y-91119810D01*
X134200127Y-91098587D01*
X134186543Y-91075924D01*
X134175245Y-91052038D01*
X134166344Y-91027159D01*
X134159924Y-91001528D01*
X134156047Y-90975391D01*
X134154750Y-90949000D01*
X134154750Y-90410500D01*
X134156047Y-90384109D01*
X134159924Y-90357972D01*
X134166344Y-90332341D01*
X134175245Y-90307462D01*
X134186543Y-90283576D01*
X134200127Y-90260913D01*
X134215867Y-90239690D01*
X134233611Y-90220111D01*
X134253190Y-90202367D01*
X134274413Y-90186627D01*
X134297076Y-90173043D01*
X134320962Y-90161745D01*
X134345841Y-90152844D01*
X134371472Y-90146424D01*
X134397609Y-90142547D01*
X134424000Y-90141250D01*
X135387500Y-90141250D01*
X135413891Y-90142547D01*
X135413891Y-90142547D01*
G37*
D19*
X134905750Y-90679750D03*
D18*
G36*
X135413891Y-88267547D02*
G01*
X135440028Y-88271424D01*
X135465659Y-88277844D01*
X135490538Y-88286745D01*
X135514424Y-88298043D01*
X135537087Y-88311627D01*
X135558310Y-88327367D01*
X135577889Y-88345111D01*
X135595633Y-88364690D01*
X135611373Y-88385913D01*
X135624957Y-88408576D01*
X135636255Y-88432462D01*
X135645156Y-88457341D01*
X135651576Y-88482972D01*
X135655453Y-88509109D01*
X135656750Y-88535500D01*
X135656750Y-89074000D01*
X135655453Y-89100391D01*
X135651576Y-89126528D01*
X135645156Y-89152159D01*
X135636255Y-89177038D01*
X135624957Y-89200924D01*
X135611373Y-89223587D01*
X135595633Y-89244810D01*
X135577889Y-89264389D01*
X135558310Y-89282133D01*
X135537087Y-89297873D01*
X135514424Y-89311457D01*
X135490538Y-89322755D01*
X135465659Y-89331656D01*
X135440028Y-89338076D01*
X135413891Y-89341953D01*
X135387500Y-89343250D01*
X134424000Y-89343250D01*
X134397609Y-89341953D01*
X134371472Y-89338076D01*
X134345841Y-89331656D01*
X134320962Y-89322755D01*
X134297076Y-89311457D01*
X134274413Y-89297873D01*
X134253190Y-89282133D01*
X134233611Y-89264389D01*
X134215867Y-89244810D01*
X134200127Y-89223587D01*
X134186543Y-89200924D01*
X134175245Y-89177038D01*
X134166344Y-89152159D01*
X134159924Y-89126528D01*
X134156047Y-89100391D01*
X134154750Y-89074000D01*
X134154750Y-88535500D01*
X134156047Y-88509109D01*
X134159924Y-88482972D01*
X134166344Y-88457341D01*
X134175245Y-88432462D01*
X134186543Y-88408576D01*
X134200127Y-88385913D01*
X134215867Y-88364690D01*
X134233611Y-88345111D01*
X134253190Y-88327367D01*
X134274413Y-88311627D01*
X134297076Y-88298043D01*
X134320962Y-88286745D01*
X134345841Y-88277844D01*
X134371472Y-88271424D01*
X134397609Y-88267547D01*
X134424000Y-88266250D01*
X135387500Y-88266250D01*
X135413891Y-88267547D01*
X135413891Y-88267547D01*
G37*
D19*
X134905750Y-88804750D03*
D18*
G36*
X144176891Y-88170547D02*
G01*
X144203028Y-88174424D01*
X144228659Y-88180844D01*
X144253538Y-88189745D01*
X144277424Y-88201043D01*
X144300087Y-88214627D01*
X144321310Y-88230367D01*
X144340889Y-88248111D01*
X144358633Y-88267690D01*
X144374373Y-88288913D01*
X144387957Y-88311576D01*
X144399255Y-88335462D01*
X144408156Y-88360341D01*
X144414576Y-88385972D01*
X144418453Y-88412109D01*
X144419750Y-88438500D01*
X144419750Y-88977000D01*
X144418453Y-89003391D01*
X144414576Y-89029528D01*
X144408156Y-89055159D01*
X144399255Y-89080038D01*
X144387957Y-89103924D01*
X144374373Y-89126587D01*
X144358633Y-89147810D01*
X144340889Y-89167389D01*
X144321310Y-89185133D01*
X144300087Y-89200873D01*
X144277424Y-89214457D01*
X144253538Y-89225755D01*
X144228659Y-89234656D01*
X144203028Y-89241076D01*
X144176891Y-89244953D01*
X144150500Y-89246250D01*
X143187000Y-89246250D01*
X143160609Y-89244953D01*
X143134472Y-89241076D01*
X143108841Y-89234656D01*
X143083962Y-89225755D01*
X143060076Y-89214457D01*
X143037413Y-89200873D01*
X143016190Y-89185133D01*
X142996611Y-89167389D01*
X142978867Y-89147810D01*
X142963127Y-89126587D01*
X142949543Y-89103924D01*
X142938245Y-89080038D01*
X142929344Y-89055159D01*
X142922924Y-89029528D01*
X142919047Y-89003391D01*
X142917750Y-88977000D01*
X142917750Y-88438500D01*
X142919047Y-88412109D01*
X142922924Y-88385972D01*
X142929344Y-88360341D01*
X142938245Y-88335462D01*
X142949543Y-88311576D01*
X142963127Y-88288913D01*
X142978867Y-88267690D01*
X142996611Y-88248111D01*
X143016190Y-88230367D01*
X143037413Y-88214627D01*
X143060076Y-88201043D01*
X143083962Y-88189745D01*
X143108841Y-88180844D01*
X143134472Y-88174424D01*
X143160609Y-88170547D01*
X143187000Y-88169250D01*
X144150500Y-88169250D01*
X144176891Y-88170547D01*
X144176891Y-88170547D01*
G37*
D19*
X143668750Y-88707750D03*
D18*
G36*
X144176891Y-90045547D02*
G01*
X144203028Y-90049424D01*
X144228659Y-90055844D01*
X144253538Y-90064745D01*
X144277424Y-90076043D01*
X144300087Y-90089627D01*
X144321310Y-90105367D01*
X144340889Y-90123111D01*
X144358633Y-90142690D01*
X144374373Y-90163913D01*
X144387957Y-90186576D01*
X144399255Y-90210462D01*
X144408156Y-90235341D01*
X144414576Y-90260972D01*
X144418453Y-90287109D01*
X144419750Y-90313500D01*
X144419750Y-90852000D01*
X144418453Y-90878391D01*
X144414576Y-90904528D01*
X144408156Y-90930159D01*
X144399255Y-90955038D01*
X144387957Y-90978924D01*
X144374373Y-91001587D01*
X144358633Y-91022810D01*
X144340889Y-91042389D01*
X144321310Y-91060133D01*
X144300087Y-91075873D01*
X144277424Y-91089457D01*
X144253538Y-91100755D01*
X144228659Y-91109656D01*
X144203028Y-91116076D01*
X144176891Y-91119953D01*
X144150500Y-91121250D01*
X143187000Y-91121250D01*
X143160609Y-91119953D01*
X143134472Y-91116076D01*
X143108841Y-91109656D01*
X143083962Y-91100755D01*
X143060076Y-91089457D01*
X143037413Y-91075873D01*
X143016190Y-91060133D01*
X142996611Y-91042389D01*
X142978867Y-91022810D01*
X142963127Y-91001587D01*
X142949543Y-90978924D01*
X142938245Y-90955038D01*
X142929344Y-90930159D01*
X142922924Y-90904528D01*
X142919047Y-90878391D01*
X142917750Y-90852000D01*
X142917750Y-90313500D01*
X142919047Y-90287109D01*
X142922924Y-90260972D01*
X142929344Y-90235341D01*
X142938245Y-90210462D01*
X142949543Y-90186576D01*
X142963127Y-90163913D01*
X142978867Y-90142690D01*
X142996611Y-90123111D01*
X143016190Y-90105367D01*
X143037413Y-90089627D01*
X143060076Y-90076043D01*
X143083962Y-90064745D01*
X143108841Y-90055844D01*
X143134472Y-90049424D01*
X143160609Y-90045547D01*
X143187000Y-90044250D01*
X144150500Y-90044250D01*
X144176891Y-90045547D01*
X144176891Y-90045547D01*
G37*
D19*
X143668750Y-90582750D03*
D18*
G36*
X132080141Y-92996547D02*
G01*
X132106278Y-93000424D01*
X132131909Y-93006844D01*
X132156788Y-93015745D01*
X132180674Y-93027043D01*
X132203337Y-93040627D01*
X132224560Y-93056367D01*
X132244139Y-93074111D01*
X132261883Y-93093690D01*
X132277623Y-93114913D01*
X132291207Y-93137576D01*
X132302505Y-93161462D01*
X132311406Y-93186341D01*
X132317826Y-93211972D01*
X132321703Y-93238109D01*
X132323000Y-93264500D01*
X132323000Y-93803000D01*
X132321703Y-93829391D01*
X132317826Y-93855528D01*
X132311406Y-93881159D01*
X132302505Y-93906038D01*
X132291207Y-93929924D01*
X132277623Y-93952587D01*
X132261883Y-93973810D01*
X132244139Y-93993389D01*
X132224560Y-94011133D01*
X132203337Y-94026873D01*
X132180674Y-94040457D01*
X132156788Y-94051755D01*
X132131909Y-94060656D01*
X132106278Y-94067076D01*
X132080141Y-94070953D01*
X132053750Y-94072250D01*
X131090250Y-94072250D01*
X131063859Y-94070953D01*
X131037722Y-94067076D01*
X131012091Y-94060656D01*
X130987212Y-94051755D01*
X130963326Y-94040457D01*
X130940663Y-94026873D01*
X130919440Y-94011133D01*
X130899861Y-93993389D01*
X130882117Y-93973810D01*
X130866377Y-93952587D01*
X130852793Y-93929924D01*
X130841495Y-93906038D01*
X130832594Y-93881159D01*
X130826174Y-93855528D01*
X130822297Y-93829391D01*
X130821000Y-93803000D01*
X130821000Y-93264500D01*
X130822297Y-93238109D01*
X130826174Y-93211972D01*
X130832594Y-93186341D01*
X130841495Y-93161462D01*
X130852793Y-93137576D01*
X130866377Y-93114913D01*
X130882117Y-93093690D01*
X130899861Y-93074111D01*
X130919440Y-93056367D01*
X130940663Y-93040627D01*
X130963326Y-93027043D01*
X130987212Y-93015745D01*
X131012091Y-93006844D01*
X131037722Y-93000424D01*
X131063859Y-92996547D01*
X131090250Y-92995250D01*
X132053750Y-92995250D01*
X132080141Y-92996547D01*
X132080141Y-92996547D01*
G37*
D19*
X131572000Y-93533750D03*
D18*
G36*
X132080141Y-94871547D02*
G01*
X132106278Y-94875424D01*
X132131909Y-94881844D01*
X132156788Y-94890745D01*
X132180674Y-94902043D01*
X132203337Y-94915627D01*
X132224560Y-94931367D01*
X132244139Y-94949111D01*
X132261883Y-94968690D01*
X132277623Y-94989913D01*
X132291207Y-95012576D01*
X132302505Y-95036462D01*
X132311406Y-95061341D01*
X132317826Y-95086972D01*
X132321703Y-95113109D01*
X132323000Y-95139500D01*
X132323000Y-95678000D01*
X132321703Y-95704391D01*
X132317826Y-95730528D01*
X132311406Y-95756159D01*
X132302505Y-95781038D01*
X132291207Y-95804924D01*
X132277623Y-95827587D01*
X132261883Y-95848810D01*
X132244139Y-95868389D01*
X132224560Y-95886133D01*
X132203337Y-95901873D01*
X132180674Y-95915457D01*
X132156788Y-95926755D01*
X132131909Y-95935656D01*
X132106278Y-95942076D01*
X132080141Y-95945953D01*
X132053750Y-95947250D01*
X131090250Y-95947250D01*
X131063859Y-95945953D01*
X131037722Y-95942076D01*
X131012091Y-95935656D01*
X130987212Y-95926755D01*
X130963326Y-95915457D01*
X130940663Y-95901873D01*
X130919440Y-95886133D01*
X130899861Y-95868389D01*
X130882117Y-95848810D01*
X130866377Y-95827587D01*
X130852793Y-95804924D01*
X130841495Y-95781038D01*
X130832594Y-95756159D01*
X130826174Y-95730528D01*
X130822297Y-95704391D01*
X130821000Y-95678000D01*
X130821000Y-95139500D01*
X130822297Y-95113109D01*
X130826174Y-95086972D01*
X130832594Y-95061341D01*
X130841495Y-95036462D01*
X130852793Y-95012576D01*
X130866377Y-94989913D01*
X130882117Y-94968690D01*
X130899861Y-94949111D01*
X130919440Y-94931367D01*
X130940663Y-94915627D01*
X130963326Y-94902043D01*
X130987212Y-94890745D01*
X131012091Y-94881844D01*
X131037722Y-94875424D01*
X131063859Y-94871547D01*
X131090250Y-94870250D01*
X132053750Y-94870250D01*
X132080141Y-94871547D01*
X132080141Y-94871547D01*
G37*
D19*
X131572000Y-95408750D03*
D18*
G36*
X143359391Y-110915047D02*
G01*
X143385528Y-110918924D01*
X143411159Y-110925344D01*
X143436038Y-110934245D01*
X143459924Y-110945543D01*
X143482587Y-110959127D01*
X143503810Y-110974867D01*
X143523389Y-110992611D01*
X143541133Y-111012190D01*
X143556873Y-111033413D01*
X143570457Y-111056076D01*
X143581755Y-111079962D01*
X143590656Y-111104841D01*
X143597076Y-111130472D01*
X143600953Y-111156609D01*
X143602250Y-111183000D01*
X143602250Y-112146500D01*
X143600953Y-112172891D01*
X143597076Y-112199028D01*
X143590656Y-112224659D01*
X143581755Y-112249538D01*
X143570457Y-112273424D01*
X143556873Y-112296087D01*
X143541133Y-112317310D01*
X143523389Y-112336889D01*
X143503810Y-112354633D01*
X143482587Y-112370373D01*
X143459924Y-112383957D01*
X143436038Y-112395255D01*
X143411159Y-112404156D01*
X143385528Y-112410576D01*
X143359391Y-112414453D01*
X143333000Y-112415750D01*
X142794500Y-112415750D01*
X142768109Y-112414453D01*
X142741972Y-112410576D01*
X142716341Y-112404156D01*
X142691462Y-112395255D01*
X142667576Y-112383957D01*
X142644913Y-112370373D01*
X142623690Y-112354633D01*
X142604111Y-112336889D01*
X142586367Y-112317310D01*
X142570627Y-112296087D01*
X142557043Y-112273424D01*
X142545745Y-112249538D01*
X142536844Y-112224659D01*
X142530424Y-112199028D01*
X142526547Y-112172891D01*
X142525250Y-112146500D01*
X142525250Y-111183000D01*
X142526547Y-111156609D01*
X142530424Y-111130472D01*
X142536844Y-111104841D01*
X142545745Y-111079962D01*
X142557043Y-111056076D01*
X142570627Y-111033413D01*
X142586367Y-111012190D01*
X142604111Y-110992611D01*
X142623690Y-110974867D01*
X142644913Y-110959127D01*
X142667576Y-110945543D01*
X142691462Y-110934245D01*
X142716341Y-110925344D01*
X142741972Y-110918924D01*
X142768109Y-110915047D01*
X142794500Y-110913750D01*
X143333000Y-110913750D01*
X143359391Y-110915047D01*
X143359391Y-110915047D01*
G37*
D19*
X143063750Y-111664750D03*
D18*
G36*
X145234391Y-110915047D02*
G01*
X145260528Y-110918924D01*
X145286159Y-110925344D01*
X145311038Y-110934245D01*
X145334924Y-110945543D01*
X145357587Y-110959127D01*
X145378810Y-110974867D01*
X145398389Y-110992611D01*
X145416133Y-111012190D01*
X145431873Y-111033413D01*
X145445457Y-111056076D01*
X145456755Y-111079962D01*
X145465656Y-111104841D01*
X145472076Y-111130472D01*
X145475953Y-111156609D01*
X145477250Y-111183000D01*
X145477250Y-112146500D01*
X145475953Y-112172891D01*
X145472076Y-112199028D01*
X145465656Y-112224659D01*
X145456755Y-112249538D01*
X145445457Y-112273424D01*
X145431873Y-112296087D01*
X145416133Y-112317310D01*
X145398389Y-112336889D01*
X145378810Y-112354633D01*
X145357587Y-112370373D01*
X145334924Y-112383957D01*
X145311038Y-112395255D01*
X145286159Y-112404156D01*
X145260528Y-112410576D01*
X145234391Y-112414453D01*
X145208000Y-112415750D01*
X144669500Y-112415750D01*
X144643109Y-112414453D01*
X144616972Y-112410576D01*
X144591341Y-112404156D01*
X144566462Y-112395255D01*
X144542576Y-112383957D01*
X144519913Y-112370373D01*
X144498690Y-112354633D01*
X144479111Y-112336889D01*
X144461367Y-112317310D01*
X144445627Y-112296087D01*
X144432043Y-112273424D01*
X144420745Y-112249538D01*
X144411844Y-112224659D01*
X144405424Y-112199028D01*
X144401547Y-112172891D01*
X144400250Y-112146500D01*
X144400250Y-111183000D01*
X144401547Y-111156609D01*
X144405424Y-111130472D01*
X144411844Y-111104841D01*
X144420745Y-111079962D01*
X144432043Y-111056076D01*
X144445627Y-111033413D01*
X144461367Y-111012190D01*
X144479111Y-110992611D01*
X144498690Y-110974867D01*
X144519913Y-110959127D01*
X144542576Y-110945543D01*
X144566462Y-110934245D01*
X144591341Y-110925344D01*
X144616972Y-110918924D01*
X144643109Y-110915047D01*
X144669500Y-110913750D01*
X145208000Y-110913750D01*
X145234391Y-110915047D01*
X145234391Y-110915047D01*
G37*
D19*
X144938750Y-111664750D03*
D18*
G36*
X148875891Y-96425547D02*
G01*
X148902028Y-96429424D01*
X148927659Y-96435844D01*
X148952538Y-96444745D01*
X148976424Y-96456043D01*
X148999087Y-96469627D01*
X149020310Y-96485367D01*
X149039889Y-96503111D01*
X149057633Y-96522690D01*
X149073373Y-96543913D01*
X149086957Y-96566576D01*
X149098255Y-96590462D01*
X149107156Y-96615341D01*
X149113576Y-96640972D01*
X149117453Y-96667109D01*
X149118750Y-96693500D01*
X149118750Y-97232000D01*
X149117453Y-97258391D01*
X149113576Y-97284528D01*
X149107156Y-97310159D01*
X149098255Y-97335038D01*
X149086957Y-97358924D01*
X149073373Y-97381587D01*
X149057633Y-97402810D01*
X149039889Y-97422389D01*
X149020310Y-97440133D01*
X148999087Y-97455873D01*
X148976424Y-97469457D01*
X148952538Y-97480755D01*
X148927659Y-97489656D01*
X148902028Y-97496076D01*
X148875891Y-97499953D01*
X148849500Y-97501250D01*
X147886000Y-97501250D01*
X147859609Y-97499953D01*
X147833472Y-97496076D01*
X147807841Y-97489656D01*
X147782962Y-97480755D01*
X147759076Y-97469457D01*
X147736413Y-97455873D01*
X147715190Y-97440133D01*
X147695611Y-97422389D01*
X147677867Y-97402810D01*
X147662127Y-97381587D01*
X147648543Y-97358924D01*
X147637245Y-97335038D01*
X147628344Y-97310159D01*
X147621924Y-97284528D01*
X147618047Y-97258391D01*
X147616750Y-97232000D01*
X147616750Y-96693500D01*
X147618047Y-96667109D01*
X147621924Y-96640972D01*
X147628344Y-96615341D01*
X147637245Y-96590462D01*
X147648543Y-96566576D01*
X147662127Y-96543913D01*
X147677867Y-96522690D01*
X147695611Y-96503111D01*
X147715190Y-96485367D01*
X147736413Y-96469627D01*
X147759076Y-96456043D01*
X147782962Y-96444745D01*
X147807841Y-96435844D01*
X147833472Y-96429424D01*
X147859609Y-96425547D01*
X147886000Y-96424250D01*
X148849500Y-96424250D01*
X148875891Y-96425547D01*
X148875891Y-96425547D01*
G37*
D19*
X148367750Y-96962750D03*
D18*
G36*
X148875891Y-98300547D02*
G01*
X148902028Y-98304424D01*
X148927659Y-98310844D01*
X148952538Y-98319745D01*
X148976424Y-98331043D01*
X148999087Y-98344627D01*
X149020310Y-98360367D01*
X149039889Y-98378111D01*
X149057633Y-98397690D01*
X149073373Y-98418913D01*
X149086957Y-98441576D01*
X149098255Y-98465462D01*
X149107156Y-98490341D01*
X149113576Y-98515972D01*
X149117453Y-98542109D01*
X149118750Y-98568500D01*
X149118750Y-99107000D01*
X149117453Y-99133391D01*
X149113576Y-99159528D01*
X149107156Y-99185159D01*
X149098255Y-99210038D01*
X149086957Y-99233924D01*
X149073373Y-99256587D01*
X149057633Y-99277810D01*
X149039889Y-99297389D01*
X149020310Y-99315133D01*
X148999087Y-99330873D01*
X148976424Y-99344457D01*
X148952538Y-99355755D01*
X148927659Y-99364656D01*
X148902028Y-99371076D01*
X148875891Y-99374953D01*
X148849500Y-99376250D01*
X147886000Y-99376250D01*
X147859609Y-99374953D01*
X147833472Y-99371076D01*
X147807841Y-99364656D01*
X147782962Y-99355755D01*
X147759076Y-99344457D01*
X147736413Y-99330873D01*
X147715190Y-99315133D01*
X147695611Y-99297389D01*
X147677867Y-99277810D01*
X147662127Y-99256587D01*
X147648543Y-99233924D01*
X147637245Y-99210038D01*
X147628344Y-99185159D01*
X147621924Y-99159528D01*
X147618047Y-99133391D01*
X147616750Y-99107000D01*
X147616750Y-98568500D01*
X147618047Y-98542109D01*
X147621924Y-98515972D01*
X147628344Y-98490341D01*
X147637245Y-98465462D01*
X147648543Y-98441576D01*
X147662127Y-98418913D01*
X147677867Y-98397690D01*
X147695611Y-98378111D01*
X147715190Y-98360367D01*
X147736413Y-98344627D01*
X147759076Y-98331043D01*
X147782962Y-98319745D01*
X147807841Y-98310844D01*
X147833472Y-98304424D01*
X147859609Y-98300547D01*
X147886000Y-98299250D01*
X148849500Y-98299250D01*
X148875891Y-98300547D01*
X148875891Y-98300547D01*
G37*
D19*
X148367750Y-98837750D03*
M02*
