G04 #@! TF.GenerationSoftware,KiCad,Pcbnew,(5.1.4)-1*
G04 #@! TF.CreationDate,2023-05-20T19:36:27-04:00*
G04 #@! TF.ProjectId,Sample,53616d70-6c65-42e6-9b69-6361645f7063,rev?*
G04 #@! TF.SameCoordinates,Original*
G04 #@! TF.FileFunction,Soldermask,Top*
G04 #@! TF.FilePolarity,Negative*
%FSLAX46Y46*%
G04 Gerber Fmt 4.6, Leading zero omitted, Abs format (unit mm)*
G04 Created by KiCad (PCBNEW (5.1.4)-1) date 2023-05-20 19:36:27*
%MOMM*%
%LPD*%
G04 APERTURE LIST*
%ADD10C,0.100000*%
G04 APERTURE END LIST*
D10*
G36*
X139043671Y-97320143D02*
G01*
X139175807Y-97360227D01*
X139175809Y-97360228D01*
X139297589Y-97425320D01*
X139297591Y-97425321D01*
X139297590Y-97425321D01*
X139404330Y-97512920D01*
X139491929Y-97619660D01*
X139557023Y-97741443D01*
X139597107Y-97873579D01*
X139607250Y-97976569D01*
X139607250Y-98523432D01*
X139597107Y-98626421D01*
X139557023Y-98758556D01*
X139557022Y-98758559D01*
X139491931Y-98880338D01*
X139491929Y-98880340D01*
X139404330Y-98987080D01*
X139316730Y-99058971D01*
X139297588Y-99074680D01*
X139175808Y-99139772D01*
X139175806Y-99139773D01*
X139043670Y-99179857D01*
X138906250Y-99193391D01*
X138768829Y-99179857D01*
X138636693Y-99139773D01*
X138636691Y-99139772D01*
X138514911Y-99074680D01*
X138498680Y-99061360D01*
X138408170Y-98987080D01*
X138320571Y-98880339D01*
X138255477Y-98758556D01*
X138215393Y-98626420D01*
X138205250Y-98523431D01*
X138205250Y-97976568D01*
X138215393Y-97873579D01*
X138255477Y-97741443D01*
X138320570Y-97619660D01*
X138408171Y-97512920D01*
X138514911Y-97425321D01*
X138514910Y-97425321D01*
X138514912Y-97425320D01*
X138636692Y-97360228D01*
X138636694Y-97360227D01*
X138768830Y-97320143D01*
X138906250Y-97306609D01*
X139043671Y-97320143D01*
X139043671Y-97320143D01*
G37*
G36*
X129869171Y-92797056D02*
G01*
X130110765Y-92845112D01*
X130565918Y-93033643D01*
X130669019Y-93102533D01*
X130975544Y-93307346D01*
X131323904Y-93655706D01*
X131528717Y-93962231D01*
X131597607Y-94065332D01*
X131786138Y-94520485D01*
X131882250Y-95003673D01*
X131882250Y-95496327D01*
X131786138Y-95979515D01*
X131694396Y-96201000D01*
X131597608Y-96434666D01*
X131323904Y-96844294D01*
X130975544Y-97192654D01*
X130724751Y-97360228D01*
X130565918Y-97466357D01*
X130110765Y-97654888D01*
X129869171Y-97702944D01*
X129627578Y-97751000D01*
X129134922Y-97751000D01*
X128893329Y-97702944D01*
X128651735Y-97654888D01*
X128196582Y-97466357D01*
X128037749Y-97360228D01*
X127786956Y-97192654D01*
X127438596Y-96844294D01*
X127164892Y-96434666D01*
X127068104Y-96201000D01*
X126976362Y-95979515D01*
X126880250Y-95496327D01*
X126880250Y-95003673D01*
X126976362Y-94520485D01*
X127164893Y-94065332D01*
X127233783Y-93962231D01*
X127438596Y-93655706D01*
X127786956Y-93307346D01*
X128093481Y-93102533D01*
X128196582Y-93033643D01*
X128651735Y-92845112D01*
X128893329Y-92797056D01*
X129134922Y-92749000D01*
X129627578Y-92749000D01*
X129869171Y-92797056D01*
X129869171Y-92797056D01*
G37*
G36*
X135158645Y-94335546D02*
G01*
X135331716Y-94407234D01*
X135331717Y-94407235D01*
X135487477Y-94511310D01*
X135619940Y-94643773D01*
X135619941Y-94643775D01*
X135724016Y-94799534D01*
X135795704Y-94972605D01*
X135832250Y-95156333D01*
X135832250Y-95343667D01*
X135795704Y-95527395D01*
X135724016Y-95700466D01*
X135724015Y-95700467D01*
X135619940Y-95856227D01*
X135487477Y-95988690D01*
X135409068Y-96041081D01*
X135331716Y-96092766D01*
X135158645Y-96164454D01*
X134974917Y-96201000D01*
X134787583Y-96201000D01*
X134603855Y-96164454D01*
X134594345Y-96160515D01*
X134570896Y-96153402D01*
X134546510Y-96151000D01*
X134372508Y-96151000D01*
X134347738Y-96146073D01*
X134198438Y-96116376D01*
X134034466Y-96048456D01*
X133886896Y-95949853D01*
X133761397Y-95824354D01*
X133662794Y-95676784D01*
X133594874Y-95512812D01*
X133560250Y-95338741D01*
X133560250Y-95161259D01*
X133594874Y-94987188D01*
X133662794Y-94823216D01*
X133761397Y-94675646D01*
X133886896Y-94550147D01*
X134034466Y-94451544D01*
X134198438Y-94383624D01*
X134347738Y-94353927D01*
X134372508Y-94349000D01*
X134546510Y-94349000D01*
X134570896Y-94346598D01*
X134594345Y-94339485D01*
X134603855Y-94335546D01*
X134787583Y-94299000D01*
X134974917Y-94299000D01*
X135158645Y-94335546D01*
X135158645Y-94335546D01*
G37*
G36*
X124158645Y-94335546D02*
G01*
X124168155Y-94339485D01*
X124191604Y-94346598D01*
X124215990Y-94349000D01*
X124389992Y-94349000D01*
X124414762Y-94353927D01*
X124564062Y-94383624D01*
X124728034Y-94451544D01*
X124875604Y-94550147D01*
X125001103Y-94675646D01*
X125099706Y-94823216D01*
X125167626Y-94987188D01*
X125202250Y-95161259D01*
X125202250Y-95338741D01*
X125167626Y-95512812D01*
X125099706Y-95676784D01*
X125001103Y-95824354D01*
X124875604Y-95949853D01*
X124728034Y-96048456D01*
X124564062Y-96116376D01*
X124414762Y-96146073D01*
X124389992Y-96151000D01*
X124215990Y-96151000D01*
X124191604Y-96153402D01*
X124168155Y-96160515D01*
X124158645Y-96164454D01*
X123974917Y-96201000D01*
X123787583Y-96201000D01*
X123603855Y-96164454D01*
X123430784Y-96092766D01*
X123353432Y-96041081D01*
X123275023Y-95988690D01*
X123142560Y-95856227D01*
X123038485Y-95700467D01*
X123038484Y-95700466D01*
X122966796Y-95527395D01*
X122930250Y-95343667D01*
X122930250Y-95156333D01*
X122966796Y-94972605D01*
X123038484Y-94799534D01*
X123142559Y-94643775D01*
X123142560Y-94643773D01*
X123275023Y-94511310D01*
X123430783Y-94407235D01*
X123430784Y-94407234D01*
X123603855Y-94335546D01*
X123787583Y-94299000D01*
X123974917Y-94299000D01*
X124158645Y-94335546D01*
X124158645Y-94335546D01*
G37*
G36*
X139607250Y-93190000D02*
G01*
X138205250Y-93190000D01*
X138205250Y-91310000D01*
X139607250Y-91310000D01*
X139607250Y-93190000D01*
X139607250Y-93190000D01*
G37*
M02*
