G04 #@! TF.GenerationSoftware,KiCad,Pcbnew,(5.1.4)-1*
G04 #@! TF.CreationDate,2023-05-20T19:36:27-04:00*
G04 #@! TF.ProjectId,Sample,53616d70-6c65-42e6-9b69-6361645f7063,rev?*
G04 #@! TF.SameCoordinates,Original*
G04 #@! TF.FileFunction,Soldermask,Bot*
G04 #@! TF.FilePolarity,Negative*
%FSLAX46Y46*%
G04 Gerber Fmt 4.6, Leading zero omitted, Abs format (unit mm)*
G04 Created by KiCad (PCBNEW (5.1.4)-1) date 2023-05-20 19:36:27*
%MOMM*%
%LPD*%
G04 APERTURE LIST*
%ADD10C,0.100000*%
G04 APERTURE END LIST*
D10*
G36*
X129809821Y-100352863D02*
G01*
X129888273Y-100360590D01*
X129988932Y-100391125D01*
X130039263Y-100406392D01*
X130178415Y-100480771D01*
X130300383Y-100580867D01*
X130400479Y-100702835D01*
X130474858Y-100841987D01*
X130474858Y-100841988D01*
X130520660Y-100992977D01*
X130536125Y-101150000D01*
X130520660Y-101307023D01*
X130490125Y-101407682D01*
X130474858Y-101458013D01*
X130400479Y-101597165D01*
X130300383Y-101719133D01*
X130178415Y-101819229D01*
X130039263Y-101893608D01*
X129988932Y-101908875D01*
X129888273Y-101939410D01*
X129809821Y-101947137D01*
X129770596Y-101951000D01*
X128991904Y-101951000D01*
X128952679Y-101947137D01*
X128874227Y-101939410D01*
X128773568Y-101908875D01*
X128723237Y-101893608D01*
X128584085Y-101819229D01*
X128462117Y-101719133D01*
X128362021Y-101597165D01*
X128287642Y-101458013D01*
X128272375Y-101407682D01*
X128241840Y-101307023D01*
X128226375Y-101150000D01*
X128241840Y-100992977D01*
X128287642Y-100841988D01*
X128287642Y-100841987D01*
X128362021Y-100702835D01*
X128462117Y-100580867D01*
X128584085Y-100480771D01*
X128723237Y-100406392D01*
X128773568Y-100391125D01*
X128874227Y-100360590D01*
X128952679Y-100352863D01*
X128991904Y-100349000D01*
X129770596Y-100349000D01*
X129809821Y-100352863D01*
X129809821Y-100352863D01*
G37*
G36*
X124748073Y-98311313D02*
G01*
X124908492Y-98359976D01*
X125041156Y-98430886D01*
X125056328Y-98438996D01*
X125185909Y-98545341D01*
X125292254Y-98674922D01*
X125292255Y-98674924D01*
X125371274Y-98822758D01*
X125419937Y-98983177D01*
X125436367Y-99150000D01*
X125419937Y-99316823D01*
X125371274Y-99477242D01*
X125300364Y-99609906D01*
X125292254Y-99625078D01*
X125185909Y-99754659D01*
X125056328Y-99861004D01*
X125056326Y-99861005D01*
X124908492Y-99940024D01*
X124748073Y-99988687D01*
X124623054Y-100001000D01*
X123939446Y-100001000D01*
X123814427Y-99988687D01*
X123654008Y-99940024D01*
X123506174Y-99861005D01*
X123506172Y-99861004D01*
X123376591Y-99754659D01*
X123270246Y-99625078D01*
X123262136Y-99609906D01*
X123191226Y-99477242D01*
X123142563Y-99316823D01*
X123126133Y-99150000D01*
X123142563Y-98983177D01*
X123191226Y-98822758D01*
X123270245Y-98674924D01*
X123270246Y-98674922D01*
X123376591Y-98545341D01*
X123506172Y-98438996D01*
X123521344Y-98430886D01*
X123654008Y-98359976D01*
X123814427Y-98311313D01*
X123939446Y-98299000D01*
X124623054Y-98299000D01*
X124748073Y-98311313D01*
X124748073Y-98311313D01*
G37*
G36*
X139607250Y-97776000D02*
G01*
X138205250Y-97776000D01*
X138205250Y-96274000D01*
X139607250Y-96274000D01*
X139607250Y-97776000D01*
X139607250Y-97776000D01*
G37*
G36*
X129869171Y-92797056D02*
G01*
X130110765Y-92845112D01*
X130565918Y-93033643D01*
X130627668Y-93074903D01*
X130975544Y-93307346D01*
X131323904Y-93655706D01*
X131432761Y-93818623D01*
X131597607Y-94065332D01*
X131786138Y-94520485D01*
X131882250Y-95003673D01*
X131882250Y-95496327D01*
X131786138Y-95979515D01*
X131694396Y-96201000D01*
X131597608Y-96434666D01*
X131323904Y-96844294D01*
X130975544Y-97192654D01*
X130669019Y-97397467D01*
X130565918Y-97466357D01*
X130110765Y-97654888D01*
X129869171Y-97702944D01*
X129627578Y-97751000D01*
X129134922Y-97751000D01*
X128893329Y-97702944D01*
X128651735Y-97654888D01*
X128196582Y-97466357D01*
X128093481Y-97397467D01*
X127786956Y-97192654D01*
X127438596Y-96844294D01*
X127164892Y-96434666D01*
X127068104Y-96201000D01*
X126976362Y-95979515D01*
X126880250Y-95496327D01*
X126880250Y-95003673D01*
X126976362Y-94520485D01*
X127164893Y-94065332D01*
X127329739Y-93818623D01*
X127438596Y-93655706D01*
X127786956Y-93307346D01*
X128134832Y-93074903D01*
X128196582Y-93033643D01*
X128651735Y-92845112D01*
X128893329Y-92797056D01*
X129134922Y-92749000D01*
X129627578Y-92749000D01*
X129869171Y-92797056D01*
X129869171Y-92797056D01*
G37*
G36*
X135158645Y-94335546D02*
G01*
X135331716Y-94407234D01*
X135331717Y-94407235D01*
X135487477Y-94511310D01*
X135619940Y-94643773D01*
X135619941Y-94643775D01*
X135724016Y-94799534D01*
X135795704Y-94972605D01*
X135832250Y-95156333D01*
X135832250Y-95343667D01*
X135795704Y-95527395D01*
X135724016Y-95700466D01*
X135724015Y-95700467D01*
X135619940Y-95856227D01*
X135487477Y-95988690D01*
X135409068Y-96041081D01*
X135331716Y-96092766D01*
X135158645Y-96164454D01*
X134974917Y-96201000D01*
X134787583Y-96201000D01*
X134603855Y-96164454D01*
X134594345Y-96160515D01*
X134570896Y-96153402D01*
X134546510Y-96151000D01*
X134372508Y-96151000D01*
X134347738Y-96146073D01*
X134198438Y-96116376D01*
X134034466Y-96048456D01*
X133886896Y-95949853D01*
X133761397Y-95824354D01*
X133662794Y-95676784D01*
X133594874Y-95512812D01*
X133560250Y-95338741D01*
X133560250Y-95161259D01*
X133594874Y-94987188D01*
X133662794Y-94823216D01*
X133761397Y-94675646D01*
X133886896Y-94550147D01*
X134034466Y-94451544D01*
X134198438Y-94383624D01*
X134347738Y-94353927D01*
X134372508Y-94349000D01*
X134546510Y-94349000D01*
X134570896Y-94346598D01*
X134594345Y-94339485D01*
X134603855Y-94335546D01*
X134787583Y-94299000D01*
X134974917Y-94299000D01*
X135158645Y-94335546D01*
X135158645Y-94335546D01*
G37*
G36*
X124158645Y-94335546D02*
G01*
X124168155Y-94339485D01*
X124191604Y-94346598D01*
X124215990Y-94349000D01*
X124389992Y-94349000D01*
X124414762Y-94353927D01*
X124564062Y-94383624D01*
X124728034Y-94451544D01*
X124875604Y-94550147D01*
X125001103Y-94675646D01*
X125099706Y-94823216D01*
X125167626Y-94987188D01*
X125202250Y-95161259D01*
X125202250Y-95338741D01*
X125167626Y-95512812D01*
X125099706Y-95676784D01*
X125001103Y-95824354D01*
X124875604Y-95949853D01*
X124728034Y-96048456D01*
X124564062Y-96116376D01*
X124414762Y-96146073D01*
X124389992Y-96151000D01*
X124215990Y-96151000D01*
X124191604Y-96153402D01*
X124168155Y-96160515D01*
X124158645Y-96164454D01*
X123974917Y-96201000D01*
X123787583Y-96201000D01*
X123603855Y-96164454D01*
X123430784Y-96092766D01*
X123353432Y-96041081D01*
X123275023Y-95988690D01*
X123142560Y-95856227D01*
X123038485Y-95700467D01*
X123038484Y-95700466D01*
X122966796Y-95527395D01*
X122930250Y-95343667D01*
X122930250Y-95156333D01*
X122966796Y-94972605D01*
X123038484Y-94799534D01*
X123142559Y-94643775D01*
X123142560Y-94643773D01*
X123275023Y-94511310D01*
X123430783Y-94407235D01*
X123430784Y-94407234D01*
X123603855Y-94335546D01*
X123787583Y-94299000D01*
X123974917Y-94299000D01*
X124158645Y-94335546D01*
X124158645Y-94335546D01*
G37*
G36*
X139607250Y-94226000D02*
G01*
X138205250Y-94226000D01*
X138205250Y-92724000D01*
X139607250Y-92724000D01*
X139607250Y-94226000D01*
X139607250Y-94226000D01*
G37*
G36*
X125936153Y-91507075D02*
G01*
X126163821Y-91601378D01*
X126368716Y-91738285D01*
X126542965Y-91912534D01*
X126679872Y-92117429D01*
X126774175Y-92345097D01*
X126822250Y-92586787D01*
X126822250Y-92833213D01*
X126774175Y-93074903D01*
X126679872Y-93302571D01*
X126542965Y-93507466D01*
X126368716Y-93681715D01*
X126163821Y-93818622D01*
X126163820Y-93818623D01*
X126163819Y-93818623D01*
X125936153Y-93912925D01*
X125694464Y-93961000D01*
X125448036Y-93961000D01*
X125206347Y-93912925D01*
X124978681Y-93818623D01*
X124978680Y-93818623D01*
X124978679Y-93818622D01*
X124773784Y-93681715D01*
X124599535Y-93507466D01*
X124462628Y-93302571D01*
X124368325Y-93074903D01*
X124320250Y-92833213D01*
X124320250Y-92586787D01*
X124368325Y-92345097D01*
X124462628Y-92117429D01*
X124599535Y-91912534D01*
X124773784Y-91738285D01*
X124978679Y-91601378D01*
X125206347Y-91507075D01*
X125448036Y-91459000D01*
X125694464Y-91459000D01*
X125936153Y-91507075D01*
X125936153Y-91507075D01*
G37*
G36*
X134793034Y-88898275D02*
G01*
X134881365Y-88906196D01*
X135032747Y-88950679D01*
X135032750Y-88950680D01*
X135172543Y-89023840D01*
X135295382Y-89122870D01*
X135396537Y-89243957D01*
X135396538Y-89243959D01*
X135472128Y-89382457D01*
X135519246Y-89533041D01*
X135519246Y-89533045D01*
X135536081Y-89689922D01*
X135521986Y-89847073D01*
X135477504Y-89998458D01*
X135452211Y-90046787D01*
X135404342Y-90138254D01*
X135305314Y-90261090D01*
X135263131Y-90296329D01*
X135184223Y-90362248D01*
X135045726Y-90437837D01*
X134962258Y-90463954D01*
X134895142Y-90484955D01*
X134895141Y-90484955D01*
X134895138Y-90484956D01*
X134777572Y-90497572D01*
X133823733Y-90505895D01*
X133216428Y-90511195D01*
X133192064Y-90513809D01*
X133168678Y-90521127D01*
X133147169Y-90532866D01*
X133128363Y-90548576D01*
X133112984Y-90567653D01*
X133102035Y-90588354D01*
X133029872Y-90762571D01*
X132892965Y-90967466D01*
X132718716Y-91141715D01*
X132513821Y-91278622D01*
X132513820Y-91278623D01*
X132513819Y-91278623D01*
X132286153Y-91372925D01*
X132044464Y-91421000D01*
X131798036Y-91421000D01*
X131556347Y-91372925D01*
X131328681Y-91278623D01*
X131328680Y-91278623D01*
X131328679Y-91278622D01*
X131123784Y-91141715D01*
X130949535Y-90967466D01*
X130812628Y-90762571D01*
X130718325Y-90534903D01*
X130670250Y-90293213D01*
X130670250Y-90046787D01*
X130718325Y-89805097D01*
X130749731Y-89729275D01*
X130812627Y-89577431D01*
X130842285Y-89533045D01*
X130949535Y-89372534D01*
X131123784Y-89198285D01*
X131328679Y-89061378D01*
X131339367Y-89056951D01*
X131419304Y-89023840D01*
X131494941Y-88992510D01*
X131506984Y-88986750D01*
X131516859Y-88981360D01*
X131531970Y-88976632D01*
X131542473Y-88972822D01*
X131556347Y-88967075D01*
X131566711Y-88965013D01*
X131579651Y-88961712D01*
X131667441Y-88934243D01*
X131779057Y-88922265D01*
X131790103Y-88920578D01*
X131798037Y-88919000D01*
X132056574Y-88919000D01*
X132059066Y-88919235D01*
X134763590Y-88895634D01*
X134763591Y-88895634D01*
X134793034Y-88898275D01*
X134793034Y-88898275D01*
G37*
M02*
