G04 #@! TF.GenerationSoftware,KiCad,Pcbnew,(5.1.4)-1*
G04 #@! TF.CreationDate,2023-05-20T19:36:27-04:00*
G04 #@! TF.ProjectId,Sample,53616d70-6c65-42e6-9b69-6361645f7063,rev?*
G04 #@! TF.SameCoordinates,Original*
G04 #@! TF.FileFunction,Copper,L2,Bot*
G04 #@! TF.FilePolarity,Positive*
%FSLAX46Y46*%
G04 Gerber Fmt 4.6, Leading zero omitted, Abs format (unit mm)*
G04 Created by KiCad (PCBNEW (5.1.4)-1) date 2023-05-20 19:36:27*
%MOMM*%
%LPD*%
G04 APERTURE LIST*
%ADD10C,2.400000*%
%ADD11C,1.500000*%
%ADD12C,1.500000*%
%ADD13O,2.200000X1.600000*%
%ADD14O,2.200000X1.500000*%
%ADD15R,1.300000X1.400000*%
%ADD16O,1.300000X1.778000*%
%ADD17R,1.300000X1.778000*%
%ADD18C,0.250000*%
%ADD19C,0.254000*%
G04 APERTURE END LIST*
D10*
X131921250Y-90170000D03*
D11*
X133281292Y-89709599D03*
D12*
X131831347Y-89722252D02*
X134731237Y-89696946D01*
D13*
X124281250Y-99150000D03*
D14*
X129381250Y-101150000D03*
D10*
X125571250Y-92710000D03*
D15*
X138906250Y-97025000D03*
X138906250Y-93475000D03*
D16*
X138906250Y-98250000D03*
D17*
X138906250Y-92250000D03*
D18*
X138906250Y-92250000D02*
X138906250Y-93475000D01*
X138906250Y-97025000D02*
X138906250Y-98250000D01*
D19*
G36*
X155908710Y-86420886D02*
G01*
X156229710Y-86517801D01*
X156525775Y-86675221D01*
X156785623Y-86887149D01*
X156999358Y-87145510D01*
X157158838Y-87440464D01*
X157257994Y-87760782D01*
X157296250Y-88124762D01*
X157296251Y-102361461D01*
X157260364Y-102727460D01*
X157163448Y-103048462D01*
X157006029Y-103344525D01*
X156794101Y-103604373D01*
X156535742Y-103818106D01*
X156240786Y-103977588D01*
X155920469Y-104076743D01*
X155556479Y-104115000D01*
X122269779Y-104115000D01*
X121903790Y-104079114D01*
X121582788Y-103982198D01*
X121286725Y-103824779D01*
X121026877Y-103612851D01*
X120813144Y-103354492D01*
X120653662Y-103059536D01*
X120554507Y-102739219D01*
X120516250Y-102375229D01*
X120516250Y-101150000D01*
X127639549Y-101150000D01*
X127666290Y-101421507D01*
X127745486Y-101682581D01*
X127874093Y-101923188D01*
X128047169Y-102134081D01*
X128258062Y-102307157D01*
X128498669Y-102435764D01*
X128759743Y-102514960D01*
X128963213Y-102535000D01*
X129799287Y-102535000D01*
X130002757Y-102514960D01*
X130263831Y-102435764D01*
X130504438Y-102307157D01*
X130715331Y-102134081D01*
X130888407Y-101923188D01*
X131017014Y-101682581D01*
X131096210Y-101421507D01*
X131122951Y-101150000D01*
X131096210Y-100878493D01*
X131017014Y-100617419D01*
X130888407Y-100376812D01*
X130715331Y-100165919D01*
X130504438Y-99992843D01*
X130263831Y-99864236D01*
X130002757Y-99785040D01*
X129799287Y-99765000D01*
X128963213Y-99765000D01*
X128759743Y-99785040D01*
X128498669Y-99864236D01*
X128258062Y-99992843D01*
X128047169Y-100165919D01*
X127874093Y-100376812D01*
X127745486Y-100617419D01*
X127666290Y-100878493D01*
X127639549Y-101150000D01*
X120516250Y-101150000D01*
X120516250Y-99150000D01*
X122539307Y-99150000D01*
X122567014Y-99431309D01*
X122649068Y-99701808D01*
X122782318Y-99951101D01*
X122961642Y-100169608D01*
X123180149Y-100348932D01*
X123429442Y-100482182D01*
X123699941Y-100564236D01*
X123910758Y-100585000D01*
X124651742Y-100585000D01*
X124862559Y-100564236D01*
X125133058Y-100482182D01*
X125382351Y-100348932D01*
X125600858Y-100169608D01*
X125780182Y-99951101D01*
X125913432Y-99701808D01*
X125995486Y-99431309D01*
X126023193Y-99150000D01*
X125995486Y-98868691D01*
X125913432Y-98598192D01*
X125780182Y-98348899D01*
X125600858Y-98130392D01*
X125382351Y-97951068D01*
X125133058Y-97817818D01*
X124862559Y-97735764D01*
X124651742Y-97715000D01*
X123910758Y-97715000D01*
X123699941Y-97735764D01*
X123429442Y-97817818D01*
X123180149Y-97951068D01*
X122961642Y-98130392D01*
X122782318Y-98348899D01*
X122649068Y-98598192D01*
X122567014Y-98868691D01*
X122539307Y-99150000D01*
X120516250Y-99150000D01*
X120516250Y-95098816D01*
X122346250Y-95098816D01*
X122346250Y-95401184D01*
X122405239Y-95697743D01*
X122520951Y-95977095D01*
X122688938Y-96228505D01*
X122902745Y-96442312D01*
X123154155Y-96610299D01*
X123433507Y-96726011D01*
X123730066Y-96785000D01*
X124032434Y-96785000D01*
X124283802Y-96735000D01*
X124447510Y-96735000D01*
X124734408Y-96677932D01*
X125004661Y-96565990D01*
X125247882Y-96403475D01*
X125454725Y-96196632D01*
X125617240Y-95953411D01*
X125729182Y-95683158D01*
X125786250Y-95396260D01*
X125786250Y-95103740D01*
X125729182Y-94816842D01*
X125617240Y-94546589D01*
X125616178Y-94545000D01*
X125751982Y-94545000D01*
X126106500Y-94474482D01*
X126416485Y-94346082D01*
X126414805Y-94350139D01*
X126296250Y-94946154D01*
X126296250Y-95553846D01*
X126414805Y-96149861D01*
X126647358Y-96711295D01*
X126984974Y-97216573D01*
X127414677Y-97646276D01*
X127919955Y-97983892D01*
X128481389Y-98216445D01*
X129077404Y-98335000D01*
X129685096Y-98335000D01*
X130281111Y-98216445D01*
X130842545Y-97983892D01*
X131347823Y-97646276D01*
X131777526Y-97216573D01*
X132115142Y-96711295D01*
X132347695Y-96149861D01*
X132466250Y-95553846D01*
X132466250Y-95103740D01*
X132976250Y-95103740D01*
X132976250Y-95396260D01*
X133033318Y-95683158D01*
X133145260Y-95953411D01*
X133307775Y-96196632D01*
X133514618Y-96403475D01*
X133757839Y-96565990D01*
X134028092Y-96677932D01*
X134314990Y-96735000D01*
X134478698Y-96735000D01*
X134730066Y-96785000D01*
X135032434Y-96785000D01*
X135328993Y-96726011D01*
X135608345Y-96610299D01*
X135859755Y-96442312D01*
X135977067Y-96325000D01*
X137618178Y-96325000D01*
X137618178Y-97725000D01*
X137630438Y-97849482D01*
X137630818Y-97850734D01*
X137621250Y-97947877D01*
X137621250Y-98552122D01*
X137639843Y-98740903D01*
X137713321Y-98983126D01*
X137832642Y-99206361D01*
X137993222Y-99402028D01*
X138188888Y-99562608D01*
X138412123Y-99681929D01*
X138654346Y-99755407D01*
X138906250Y-99780217D01*
X139158153Y-99755407D01*
X139400376Y-99681929D01*
X139623611Y-99562608D01*
X139819278Y-99402028D01*
X139979858Y-99206362D01*
X140099179Y-98983127D01*
X140172657Y-98740904D01*
X140191250Y-98552123D01*
X140191250Y-97947878D01*
X140181682Y-97850734D01*
X140182062Y-97849482D01*
X140194322Y-97725000D01*
X140194322Y-96325000D01*
X140182062Y-96200518D01*
X140145752Y-96080820D01*
X140086787Y-95970506D01*
X140007435Y-95873815D01*
X139910744Y-95794463D01*
X139800430Y-95735498D01*
X139680732Y-95699188D01*
X139556250Y-95686928D01*
X138256250Y-95686928D01*
X138131768Y-95699188D01*
X138012070Y-95735498D01*
X137901756Y-95794463D01*
X137805065Y-95873815D01*
X137725713Y-95970506D01*
X137666748Y-96080820D01*
X137630438Y-96200518D01*
X137618178Y-96325000D01*
X135977067Y-96325000D01*
X136073562Y-96228505D01*
X136241549Y-95977095D01*
X136357261Y-95697743D01*
X136416250Y-95401184D01*
X136416250Y-95098816D01*
X136357261Y-94802257D01*
X136241549Y-94522905D01*
X136073562Y-94271495D01*
X135859755Y-94057688D01*
X135608345Y-93889701D01*
X135328993Y-93773989D01*
X135032434Y-93715000D01*
X134730066Y-93715000D01*
X134478698Y-93765000D01*
X134314990Y-93765000D01*
X134028092Y-93822068D01*
X133757839Y-93934010D01*
X133514618Y-94096525D01*
X133307775Y-94303368D01*
X133145260Y-94546589D01*
X133033318Y-94816842D01*
X132976250Y-95103740D01*
X132466250Y-95103740D01*
X132466250Y-94946154D01*
X132347695Y-94350139D01*
X132115142Y-93788705D01*
X131777526Y-93283427D01*
X131347823Y-92853724D01*
X130842545Y-92516108D01*
X130281111Y-92283555D01*
X129685096Y-92165000D01*
X129077404Y-92165000D01*
X128481389Y-92283555D01*
X127919955Y-92516108D01*
X127414677Y-92853724D01*
X127406250Y-92862151D01*
X127406250Y-92529268D01*
X127335732Y-92174750D01*
X127197406Y-91840801D01*
X126996588Y-91540256D01*
X126740994Y-91284662D01*
X126440449Y-91083844D01*
X126106500Y-90945518D01*
X125751982Y-90875000D01*
X125390518Y-90875000D01*
X125036000Y-90945518D01*
X124702051Y-91083844D01*
X124401506Y-91284662D01*
X124145912Y-91540256D01*
X123945094Y-91840801D01*
X123806768Y-92174750D01*
X123736250Y-92529268D01*
X123736250Y-92890732D01*
X123806768Y-93245250D01*
X123945094Y-93579199D01*
X124036355Y-93715780D01*
X124032434Y-93715000D01*
X123730066Y-93715000D01*
X123433507Y-93773989D01*
X123154155Y-93889701D01*
X122902745Y-94057688D01*
X122688938Y-94271495D01*
X122520951Y-94522905D01*
X122405239Y-94802257D01*
X122346250Y-95098816D01*
X120516250Y-95098816D01*
X120516250Y-89989268D01*
X130086250Y-89989268D01*
X130086250Y-90350732D01*
X130156768Y-90705250D01*
X130295094Y-91039199D01*
X130495912Y-91339744D01*
X130751506Y-91595338D01*
X131052051Y-91796156D01*
X131386000Y-91934482D01*
X131740518Y-92005000D01*
X132101982Y-92005000D01*
X132456500Y-91934482D01*
X132790449Y-91796156D01*
X133090994Y-91595338D01*
X133325332Y-91361000D01*
X137618178Y-91361000D01*
X137618178Y-94175000D01*
X137630438Y-94299482D01*
X137666748Y-94419180D01*
X137725713Y-94529494D01*
X137805065Y-94626185D01*
X137901756Y-94705537D01*
X138012070Y-94764502D01*
X138131768Y-94800812D01*
X138256250Y-94813072D01*
X139556250Y-94813072D01*
X139680732Y-94800812D01*
X139800430Y-94764502D01*
X139910744Y-94705537D01*
X140007435Y-94626185D01*
X140086787Y-94529494D01*
X140145752Y-94419180D01*
X140182062Y-94299482D01*
X140194322Y-94175000D01*
X140194322Y-91361000D01*
X140182062Y-91236518D01*
X140145752Y-91116820D01*
X140086787Y-91006506D01*
X140007435Y-90909815D01*
X139910744Y-90830463D01*
X139800430Y-90771498D01*
X139680732Y-90735188D01*
X139556250Y-90722928D01*
X138256250Y-90722928D01*
X138131768Y-90735188D01*
X138012070Y-90771498D01*
X137901756Y-90830463D01*
X137805065Y-90909815D01*
X137725713Y-91006506D01*
X137666748Y-91116820D01*
X137630438Y-91236518D01*
X137618178Y-91361000D01*
X133325332Y-91361000D01*
X133346588Y-91339744D01*
X133511698Y-91092640D01*
X134811356Y-91081299D01*
X135014644Y-91059484D01*
X135275017Y-90978013D01*
X135514492Y-90847311D01*
X135723867Y-90672402D01*
X135895096Y-90460006D01*
X136021599Y-90218286D01*
X136098513Y-89956531D01*
X136122884Y-89684802D01*
X136093775Y-89413539D01*
X136012304Y-89153166D01*
X135881602Y-88913690D01*
X135706692Y-88704316D01*
X135494297Y-88533087D01*
X135252577Y-88406584D01*
X134990822Y-88329669D01*
X134787185Y-88311406D01*
X132083437Y-88335000D01*
X131740518Y-88335000D01*
X131696324Y-88343791D01*
X131547940Y-88359714D01*
X131428699Y-88397025D01*
X131386000Y-88405518D01*
X131337958Y-88425418D01*
X131287567Y-88441185D01*
X131248765Y-88462363D01*
X131052051Y-88543844D01*
X130751506Y-88744662D01*
X130495912Y-89000256D01*
X130295094Y-89300801D01*
X130156768Y-89634750D01*
X130086250Y-89989268D01*
X120516250Y-89989268D01*
X120516250Y-88138529D01*
X120552136Y-87772540D01*
X120649051Y-87451540D01*
X120806471Y-87155475D01*
X121018399Y-86895627D01*
X121276760Y-86681892D01*
X121571714Y-86522412D01*
X121892032Y-86423256D01*
X122256012Y-86385000D01*
X155542721Y-86385000D01*
X155908710Y-86420886D01*
X155908710Y-86420886D01*
G37*
X155908710Y-86420886D02*
X156229710Y-86517801D01*
X156525775Y-86675221D01*
X156785623Y-86887149D01*
X156999358Y-87145510D01*
X157158838Y-87440464D01*
X157257994Y-87760782D01*
X157296250Y-88124762D01*
X157296251Y-102361461D01*
X157260364Y-102727460D01*
X157163448Y-103048462D01*
X157006029Y-103344525D01*
X156794101Y-103604373D01*
X156535742Y-103818106D01*
X156240786Y-103977588D01*
X155920469Y-104076743D01*
X155556479Y-104115000D01*
X122269779Y-104115000D01*
X121903790Y-104079114D01*
X121582788Y-103982198D01*
X121286725Y-103824779D01*
X121026877Y-103612851D01*
X120813144Y-103354492D01*
X120653662Y-103059536D01*
X120554507Y-102739219D01*
X120516250Y-102375229D01*
X120516250Y-101150000D01*
X127639549Y-101150000D01*
X127666290Y-101421507D01*
X127745486Y-101682581D01*
X127874093Y-101923188D01*
X128047169Y-102134081D01*
X128258062Y-102307157D01*
X128498669Y-102435764D01*
X128759743Y-102514960D01*
X128963213Y-102535000D01*
X129799287Y-102535000D01*
X130002757Y-102514960D01*
X130263831Y-102435764D01*
X130504438Y-102307157D01*
X130715331Y-102134081D01*
X130888407Y-101923188D01*
X131017014Y-101682581D01*
X131096210Y-101421507D01*
X131122951Y-101150000D01*
X131096210Y-100878493D01*
X131017014Y-100617419D01*
X130888407Y-100376812D01*
X130715331Y-100165919D01*
X130504438Y-99992843D01*
X130263831Y-99864236D01*
X130002757Y-99785040D01*
X129799287Y-99765000D01*
X128963213Y-99765000D01*
X128759743Y-99785040D01*
X128498669Y-99864236D01*
X128258062Y-99992843D01*
X128047169Y-100165919D01*
X127874093Y-100376812D01*
X127745486Y-100617419D01*
X127666290Y-100878493D01*
X127639549Y-101150000D01*
X120516250Y-101150000D01*
X120516250Y-99150000D01*
X122539307Y-99150000D01*
X122567014Y-99431309D01*
X122649068Y-99701808D01*
X122782318Y-99951101D01*
X122961642Y-100169608D01*
X123180149Y-100348932D01*
X123429442Y-100482182D01*
X123699941Y-100564236D01*
X123910758Y-100585000D01*
X124651742Y-100585000D01*
X124862559Y-100564236D01*
X125133058Y-100482182D01*
X125382351Y-100348932D01*
X125600858Y-100169608D01*
X125780182Y-99951101D01*
X125913432Y-99701808D01*
X125995486Y-99431309D01*
X126023193Y-99150000D01*
X125995486Y-98868691D01*
X125913432Y-98598192D01*
X125780182Y-98348899D01*
X125600858Y-98130392D01*
X125382351Y-97951068D01*
X125133058Y-97817818D01*
X124862559Y-97735764D01*
X124651742Y-97715000D01*
X123910758Y-97715000D01*
X123699941Y-97735764D01*
X123429442Y-97817818D01*
X123180149Y-97951068D01*
X122961642Y-98130392D01*
X122782318Y-98348899D01*
X122649068Y-98598192D01*
X122567014Y-98868691D01*
X122539307Y-99150000D01*
X120516250Y-99150000D01*
X120516250Y-95098816D01*
X122346250Y-95098816D01*
X122346250Y-95401184D01*
X122405239Y-95697743D01*
X122520951Y-95977095D01*
X122688938Y-96228505D01*
X122902745Y-96442312D01*
X123154155Y-96610299D01*
X123433507Y-96726011D01*
X123730066Y-96785000D01*
X124032434Y-96785000D01*
X124283802Y-96735000D01*
X124447510Y-96735000D01*
X124734408Y-96677932D01*
X125004661Y-96565990D01*
X125247882Y-96403475D01*
X125454725Y-96196632D01*
X125617240Y-95953411D01*
X125729182Y-95683158D01*
X125786250Y-95396260D01*
X125786250Y-95103740D01*
X125729182Y-94816842D01*
X125617240Y-94546589D01*
X125616178Y-94545000D01*
X125751982Y-94545000D01*
X126106500Y-94474482D01*
X126416485Y-94346082D01*
X126414805Y-94350139D01*
X126296250Y-94946154D01*
X126296250Y-95553846D01*
X126414805Y-96149861D01*
X126647358Y-96711295D01*
X126984974Y-97216573D01*
X127414677Y-97646276D01*
X127919955Y-97983892D01*
X128481389Y-98216445D01*
X129077404Y-98335000D01*
X129685096Y-98335000D01*
X130281111Y-98216445D01*
X130842545Y-97983892D01*
X131347823Y-97646276D01*
X131777526Y-97216573D01*
X132115142Y-96711295D01*
X132347695Y-96149861D01*
X132466250Y-95553846D01*
X132466250Y-95103740D01*
X132976250Y-95103740D01*
X132976250Y-95396260D01*
X133033318Y-95683158D01*
X133145260Y-95953411D01*
X133307775Y-96196632D01*
X133514618Y-96403475D01*
X133757839Y-96565990D01*
X134028092Y-96677932D01*
X134314990Y-96735000D01*
X134478698Y-96735000D01*
X134730066Y-96785000D01*
X135032434Y-96785000D01*
X135328993Y-96726011D01*
X135608345Y-96610299D01*
X135859755Y-96442312D01*
X135977067Y-96325000D01*
X137618178Y-96325000D01*
X137618178Y-97725000D01*
X137630438Y-97849482D01*
X137630818Y-97850734D01*
X137621250Y-97947877D01*
X137621250Y-98552122D01*
X137639843Y-98740903D01*
X137713321Y-98983126D01*
X137832642Y-99206361D01*
X137993222Y-99402028D01*
X138188888Y-99562608D01*
X138412123Y-99681929D01*
X138654346Y-99755407D01*
X138906250Y-99780217D01*
X139158153Y-99755407D01*
X139400376Y-99681929D01*
X139623611Y-99562608D01*
X139819278Y-99402028D01*
X139979858Y-99206362D01*
X140099179Y-98983127D01*
X140172657Y-98740904D01*
X140191250Y-98552123D01*
X140191250Y-97947878D01*
X140181682Y-97850734D01*
X140182062Y-97849482D01*
X140194322Y-97725000D01*
X140194322Y-96325000D01*
X140182062Y-96200518D01*
X140145752Y-96080820D01*
X140086787Y-95970506D01*
X140007435Y-95873815D01*
X139910744Y-95794463D01*
X139800430Y-95735498D01*
X139680732Y-95699188D01*
X139556250Y-95686928D01*
X138256250Y-95686928D01*
X138131768Y-95699188D01*
X138012070Y-95735498D01*
X137901756Y-95794463D01*
X137805065Y-95873815D01*
X137725713Y-95970506D01*
X137666748Y-96080820D01*
X137630438Y-96200518D01*
X137618178Y-96325000D01*
X135977067Y-96325000D01*
X136073562Y-96228505D01*
X136241549Y-95977095D01*
X136357261Y-95697743D01*
X136416250Y-95401184D01*
X136416250Y-95098816D01*
X136357261Y-94802257D01*
X136241549Y-94522905D01*
X136073562Y-94271495D01*
X135859755Y-94057688D01*
X135608345Y-93889701D01*
X135328993Y-93773989D01*
X135032434Y-93715000D01*
X134730066Y-93715000D01*
X134478698Y-93765000D01*
X134314990Y-93765000D01*
X134028092Y-93822068D01*
X133757839Y-93934010D01*
X133514618Y-94096525D01*
X133307775Y-94303368D01*
X133145260Y-94546589D01*
X133033318Y-94816842D01*
X132976250Y-95103740D01*
X132466250Y-95103740D01*
X132466250Y-94946154D01*
X132347695Y-94350139D01*
X132115142Y-93788705D01*
X131777526Y-93283427D01*
X131347823Y-92853724D01*
X130842545Y-92516108D01*
X130281111Y-92283555D01*
X129685096Y-92165000D01*
X129077404Y-92165000D01*
X128481389Y-92283555D01*
X127919955Y-92516108D01*
X127414677Y-92853724D01*
X127406250Y-92862151D01*
X127406250Y-92529268D01*
X127335732Y-92174750D01*
X127197406Y-91840801D01*
X126996588Y-91540256D01*
X126740994Y-91284662D01*
X126440449Y-91083844D01*
X126106500Y-90945518D01*
X125751982Y-90875000D01*
X125390518Y-90875000D01*
X125036000Y-90945518D01*
X124702051Y-91083844D01*
X124401506Y-91284662D01*
X124145912Y-91540256D01*
X123945094Y-91840801D01*
X123806768Y-92174750D01*
X123736250Y-92529268D01*
X123736250Y-92890732D01*
X123806768Y-93245250D01*
X123945094Y-93579199D01*
X124036355Y-93715780D01*
X124032434Y-93715000D01*
X123730066Y-93715000D01*
X123433507Y-93773989D01*
X123154155Y-93889701D01*
X122902745Y-94057688D01*
X122688938Y-94271495D01*
X122520951Y-94522905D01*
X122405239Y-94802257D01*
X122346250Y-95098816D01*
X120516250Y-95098816D01*
X120516250Y-89989268D01*
X130086250Y-89989268D01*
X130086250Y-90350732D01*
X130156768Y-90705250D01*
X130295094Y-91039199D01*
X130495912Y-91339744D01*
X130751506Y-91595338D01*
X131052051Y-91796156D01*
X131386000Y-91934482D01*
X131740518Y-92005000D01*
X132101982Y-92005000D01*
X132456500Y-91934482D01*
X132790449Y-91796156D01*
X133090994Y-91595338D01*
X133325332Y-91361000D01*
X137618178Y-91361000D01*
X137618178Y-94175000D01*
X137630438Y-94299482D01*
X137666748Y-94419180D01*
X137725713Y-94529494D01*
X137805065Y-94626185D01*
X137901756Y-94705537D01*
X138012070Y-94764502D01*
X138131768Y-94800812D01*
X138256250Y-94813072D01*
X139556250Y-94813072D01*
X139680732Y-94800812D01*
X139800430Y-94764502D01*
X139910744Y-94705537D01*
X140007435Y-94626185D01*
X140086787Y-94529494D01*
X140145752Y-94419180D01*
X140182062Y-94299482D01*
X140194322Y-94175000D01*
X140194322Y-91361000D01*
X140182062Y-91236518D01*
X140145752Y-91116820D01*
X140086787Y-91006506D01*
X140007435Y-90909815D01*
X139910744Y-90830463D01*
X139800430Y-90771498D01*
X139680732Y-90735188D01*
X139556250Y-90722928D01*
X138256250Y-90722928D01*
X138131768Y-90735188D01*
X138012070Y-90771498D01*
X137901756Y-90830463D01*
X137805065Y-90909815D01*
X137725713Y-91006506D01*
X137666748Y-91116820D01*
X137630438Y-91236518D01*
X137618178Y-91361000D01*
X133325332Y-91361000D01*
X133346588Y-91339744D01*
X133511698Y-91092640D01*
X134811356Y-91081299D01*
X135014644Y-91059484D01*
X135275017Y-90978013D01*
X135514492Y-90847311D01*
X135723867Y-90672402D01*
X135895096Y-90460006D01*
X136021599Y-90218286D01*
X136098513Y-89956531D01*
X136122884Y-89684802D01*
X136093775Y-89413539D01*
X136012304Y-89153166D01*
X135881602Y-88913690D01*
X135706692Y-88704316D01*
X135494297Y-88533087D01*
X135252577Y-88406584D01*
X134990822Y-88329669D01*
X134787185Y-88311406D01*
X132083437Y-88335000D01*
X131740518Y-88335000D01*
X131696324Y-88343791D01*
X131547940Y-88359714D01*
X131428699Y-88397025D01*
X131386000Y-88405518D01*
X131337958Y-88425418D01*
X131287567Y-88441185D01*
X131248765Y-88462363D01*
X131052051Y-88543844D01*
X130751506Y-88744662D01*
X130495912Y-89000256D01*
X130295094Y-89300801D01*
X130156768Y-89634750D01*
X130086250Y-89989268D01*
X120516250Y-89989268D01*
X120516250Y-88138529D01*
X120552136Y-87772540D01*
X120649051Y-87451540D01*
X120806471Y-87155475D01*
X121018399Y-86895627D01*
X121276760Y-86681892D01*
X121571714Y-86522412D01*
X121892032Y-86423256D01*
X122256012Y-86385000D01*
X155542721Y-86385000D01*
X155908710Y-86420886D01*
M02*
