M48
; DRILL file {KiCad (5.1.4)-1} date 5/20/2023 6:47:34 PM
; FORMAT={-:-/ absolute / inch / decimal}
; #@! TF.CreationDate,2023-05-20T18:47:34-04:00
; #@! TF.GenerationSoftware,Kicad,Pcbnew,(5.1.4)-1
; #@! TF.FileFunction,NonPlated,1,2,NPTH
FMAT,2
INCH
T1C0.0118
T2C0.0472
T3C0.0669
T4C0.0709
T5C0.0906
T6C0.1693
T7C0.1929
%
G90
G05
T1
X2.28Y-1.2587
X2.3034Y-1.2587
X2.3268Y-1.2587
X2.3501Y-1.2587
X2.3735Y-1.2587
X2.3969Y-1.2587
X2.4203Y-1.2587
X2.4437Y-1.2587
X2.467Y-1.2587
X9.3867Y-1.2587
X9.4101Y-1.2587
X9.4335Y-1.2587
X9.4568Y-1.2587
X9.4802Y-1.2587
X9.5036Y-1.2587
X9.527Y-1.2587
X9.5503Y-1.2587
X9.5737Y-1.2587
X7.8899Y-1.2591
X7.9132Y-1.2591
X7.9366Y-1.2591
X7.96Y-1.2591
X7.9834Y-1.2591
X8.0067Y-1.2591
X8.0301Y-1.2591
X8.0535Y-1.2591
X8.0769Y-1.2591
X2.276Y-3.6764
X2.2993Y-3.6764
X2.3227Y-3.6764
X2.3461Y-3.6764
X2.3695Y-3.6764
X2.3928Y-3.6764
X2.4162Y-3.6764
X2.4396Y-3.6764
X2.463Y-3.6764
X10.884Y-3.6768
X10.9073Y-3.6768
X10.9307Y-3.6768
X10.9541Y-3.6768
X10.9775Y-3.6768
X11.0008Y-3.6768
X11.0242Y-3.6768
X11.0476Y-3.6768
X11.071Y-3.6768
X3.7749Y-1.2587
X3.7983Y-1.2587
X3.8217Y-1.2587
X3.845Y-1.2587
X3.8684Y-1.2587
X3.8918Y-1.2587
X3.9152Y-1.2587
X3.9385Y-1.2587
X3.9619Y-1.2587
X0.7804Y-3.6764
X0.8037Y-3.6764
X0.8271Y-3.6764
X0.8505Y-3.6764
X0.8739Y-3.6764
X0.8972Y-3.6764
X0.9206Y-3.6764
X0.944Y-3.6764
X0.9674Y-3.6764
X9.3879Y-3.6768
X9.4113Y-3.6768
X9.4346Y-3.6768
X9.458Y-3.6768
X9.4814Y-3.6768
X9.5048Y-3.6768
X9.5281Y-3.6768
X9.5515Y-3.6768
X9.5749Y-3.6768
T2
X6.146Y-3.3293
X6.4216Y-3.3293
X5.4218Y-3.3241
X5.6974Y-3.3241
T3
X9.2758Y-3.1169
X9.6758Y-3.1169
X8.5277Y-2.2754
X8.9277Y-2.2754
X2.1696Y-2.3689
X2.5696Y-2.3689
X8.5277Y-1.5274
X8.9277Y-1.5274
X5.0944Y-4.3187
X5.2944Y-3.9723
X2.1696Y-1.6209
X2.5696Y-1.6209
X1.4216Y-2.5559
X1.8216Y-2.5559
X7.0317Y-1.7144
X7.4317Y-1.7144
X4.1252Y-3.9461
X4.5116Y-4.0496
X7.7797Y-2.3689
X8.1797Y-2.3689
X10.0238Y-1.8079
X10.4238Y-1.8079
X7.7797Y-3.1169
X8.1797Y-3.1169
X8.1537Y-3.8896
X8.5537Y-3.8896
X10.7718Y-2.5559
X11.1718Y-2.5559
X9.2758Y-2.3689
X9.6758Y-2.3689
X0.6735Y-2.5559
X1.0735Y-2.5559
X9.2758Y-1.6209
X9.6758Y-1.6209
X8.5277Y-3.0234
X8.9277Y-3.0234
X1.4216Y-3.3039
X1.8216Y-3.3039
X4.4137Y-2.4624
X4.8137Y-2.4624
X2.9176Y-2.2754
X3.3176Y-2.2754
X10.7718Y-1.8079
X11.1718Y-1.8079
X1.4216Y-1.8079
X1.8216Y-1.8079
X2.1696Y-3.1169
X2.5696Y-3.1169
X3.6656Y-1.6209
X4.0656Y-1.6209
X3.2916Y-3.8896
X3.6916Y-3.8896
X3.6656Y-3.1169
X4.0656Y-3.1169
X10.0238Y-3.304
X10.4238Y-3.304
X6.551Y-3.9723
X6.751Y-4.3187
X7.3338Y-4.0496
X7.7201Y-3.9461
X0.6735Y-3.3039
X1.0735Y-3.3039
X7.7797Y-1.6209
X8.1797Y-1.6209
X10.7718Y-3.304
X11.1718Y-3.304
X3.6656Y-2.3689
X4.0656Y-2.3689
X0.6735Y-1.8079
X1.0735Y-1.8079
X7.0317Y-2.4624
X7.4317Y-2.4624
X4.4137Y-3.2104
X4.8137Y-3.2104
X10.0238Y-2.5559
X10.4238Y-2.5559
X4.4137Y-1.7144
X4.8137Y-1.7144
X2.9176Y-3.0234
X3.3176Y-3.0234
X2.9176Y-1.5274
X3.3176Y-1.5274
X7.0317Y-3.2105
X7.4317Y-3.2105
T4
X1.405Y-3.3039
X1.8381Y-3.3039
X4.3971Y-2.4624
X4.8302Y-2.4624
X2.9011Y-2.2754
X3.3342Y-2.2754
X10.7553Y-1.8079
X11.1884Y-1.8079
X1.405Y-1.8079
X1.8381Y-1.8079
X2.1531Y-3.1169
X2.5861Y-3.1169
X3.6491Y-1.6209
X4.0822Y-1.6209
X3.2751Y-3.8896
X3.7082Y-3.8896
X3.6491Y-3.1169
X4.0822Y-3.1169
X10.0073Y-3.304
X10.4403Y-3.304
X6.5427Y-3.958
X6.7592Y-4.333
X7.3178Y-4.0539
X7.7361Y-3.9418
X0.657Y-3.3039
X1.0901Y-3.3039
X7.7632Y-1.6209
X8.1963Y-1.6209
X10.7553Y-3.304
X11.1884Y-3.304
X3.6491Y-2.3689
X4.0822Y-2.3689
X0.657Y-1.8079
X1.0901Y-1.8079
X7.0152Y-2.4624
X7.4482Y-2.4624
X4.3971Y-3.2104
X4.8302Y-3.2104
X10.0073Y-2.5559
X10.4403Y-2.5559
X4.3971Y-1.7144
X4.8302Y-1.7144
X2.9011Y-3.0234
X3.3342Y-3.0234
X2.9011Y-1.5274
X3.3342Y-1.5274
X7.0152Y-3.2105
X7.4482Y-3.2105
X9.2592Y-3.1169
X9.6923Y-3.1169
X8.5112Y-2.2754
X8.9443Y-2.2754
X2.1531Y-2.3689
X2.5861Y-2.3689
X8.5112Y-1.5274
X8.9443Y-1.5274
X5.0861Y-4.333
X5.3027Y-3.9579
X2.1531Y-1.6209
X2.5861Y-1.6209
X1.405Y-2.5559
X1.8381Y-2.5559
X7.0152Y-1.7144
X7.4482Y-1.7144
X4.1092Y-3.9418
X4.5276Y-4.0539
X7.7632Y-2.3689
X8.1963Y-2.3689
X10.0073Y-1.8079
X10.4403Y-1.8079
X7.7632Y-3.1169
X8.1963Y-3.1169
X8.1372Y-3.8896
X8.5703Y-3.8896
X10.7553Y-2.5559
X11.1884Y-2.5559
X9.2592Y-2.3689
X9.6923Y-2.3689
X0.657Y-2.5559
X1.0901Y-2.5559
X9.2592Y-1.6209
X9.6923Y-1.6209
X8.5112Y-3.0234
X8.9443Y-3.0234
T5
X5.1159Y-3.3236
X6.7279Y-3.3284
X5.6841Y-3.6591
X6.1548Y-3.6648
T6
X7.0664Y-3.9152
X4.7797Y-3.9094
X10.5983Y-2.1822
X1.9966Y-2.9309
X9.8509Y-2.1822
X10.5983Y-2.9302
X8.8998Y-3.6101
X1.2479Y-2.1819
X9.8509Y-2.9302
X2.9464Y-3.6097
X7.6077Y-2.0448
X4.2382Y-2.0445
X1.9966Y-2.1829
X1.2479Y-2.9299
T7
X10.2238Y-3.304
X6.651Y-4.1455
X7.527Y-3.9979
X0.8735Y-3.3039
X7.9797Y-1.6209
X10.9718Y-3.304
X3.8656Y-2.3689
X0.8735Y-1.8079
X7.2317Y-2.4624
X4.6137Y-3.2104
X10.2238Y-2.5559
X4.6137Y-1.7144
X3.1176Y-3.0234
X3.1176Y-1.5274
X7.2317Y-3.2105
X9.4758Y-3.1169
X8.7277Y-2.2754
X2.3696Y-2.3689
X8.7277Y-1.5274
X5.1944Y-4.1455
X2.3696Y-1.6209
X1.6216Y-2.5559
X7.2317Y-1.7144
X4.3184Y-3.9978
X7.9797Y-2.3689
X10.2238Y-1.8079
X7.9797Y-3.1169
X8.3537Y-3.8896
X10.9718Y-2.5559
X9.4758Y-2.3689
X0.8735Y-2.5559
X9.4758Y-1.6209
X8.7277Y-3.0234
X1.6216Y-3.3039
X4.6137Y-2.4624
X3.1176Y-2.2754
X10.9718Y-1.8079
X1.6216Y-1.8079
X2.3696Y-3.1169
X3.8656Y-1.6209
X3.4916Y-3.8896
X3.8656Y-3.1169
T0
M30
